<?xml version="1.0" encoding="utf-8" standalone="no"?>
<!DOCTYPE svg PUBLIC "-//W3C//DTD SVG 1.1//EN"
  "http://www.w3.org/Graphics/SVG/1.1/DTD/svg11.dtd">
<svg xmlns:xlink="http://www.w3.org/1999/xlink" width="720pt" height="576pt" viewBox="0 0 720 576" xmlns="http://www.w3.org/2000/svg" version="1.1">
 <metadata>
  <rdf:RDF xmlns:dc="http://purl.org/dc/elements/1.1/" xmlns:cc="http://creativecommons.org/ns#" xmlns:rdf="http://www.w3.org/1999/02/22-rdf-syntax-ns#">
   <cc:Work>
    <dc:type rdf:resource="http://purl.org/dc/dcmitype/StillImage"/>
    <dc:date>2025-12-04T12:42:30.474442</dc:date>
    <dc:format>image/svg+xml</dc:format>
    <dc:creator>
     <cc:Agent>
      <dc:title>Matplotlib v3.10.7, https://matplotlib.org/</dc:title>
     </cc:Agent>
    </dc:creator>
   </cc:Work>
  </rdf:RDF>
 </metadata>
 <defs>
  <style type="text/css">*{stroke-linejoin: round; stroke-linecap: butt}</style>
 </defs>
 <g id="figure_1">
  <g id="patch_1">
   <path d="M 0 576 
L 720 576 
L 720 0 
L 0 0 
z
" style="fill: #ffffff"/>
  </g>
  <g id="axes_1">
   <g id="patch_2">
    <path d="M 90 512.64 
L 648 512.64 
L 648 69.12 
L 90 69.12 
z
" style="fill: #ffffff"/>
   </g>
   <g id="FillBetweenPolyCollection_1">
    <path d="M 124.82768 472.006537 
L 124.82768 487.057159 
L 148.487788 474.172306 
L 204.325645 419.479225 
L 281.930801 301.181584 
L 374.678426 226.742092 
L 622.636364 174.455642 
L 622.636364 150.453181 
L 622.636364 150.453181 
L 374.678426 199.247047 
L 281.930801 278.780698 
L 204.325645 399.14153 
L 148.487788 441.263903 
L 124.82768 472.006537 
z
" clip-path="url(#p7e15bb701b)" style="fill: #1f77b4; fill-opacity: 0.2"/>
   </g>
   <g id="matplotlib.axis_1">
    <g id="xtick_1">
     <g id="line2d_1">
      <defs>
       <path id="m24484113fd" d="M 0 0 
L 0 3.5 
" style="stroke: #000000; stroke-width: 0.8"/>
      </defs>
      <g>
       <use xlink:href="#m24484113fd" x="153.21981" y="512.64" style="stroke: #000000; stroke-width: 0.8"/>
      </g>
     </g>
     <g id="text_1">
      <!-- 1 -->
      <g transform="translate(148.76606 530.277812) scale(0.14 -0.14)">
       <defs>
        <path id="DejaVuSans-31" d="M 794 531 
L 1825 531 
L 1825 4091 
L 703 3866 
L 703 4441 
L 1819 4666 
L 2450 4666 
L 2450 531 
L 3481 531 
L 3481 0 
L 794 0 
L 794 531 
z
" transform="scale(0.015625)"/>
       </defs>
       <use xlink:href="#DejaVuSans-31"/>
      </g>
     </g>
    </g>
    <g id="xtick_2">
     <g id="line2d_2">
      <g>
       <use xlink:href="#m24484113fd" x="247.860244" y="512.64" style="stroke: #000000; stroke-width: 0.8"/>
      </g>
     </g>
     <g id="text_2">
      <!-- 2 -->
      <g transform="translate(243.406494 530.277812) scale(0.14 -0.14)">
       <defs>
        <path id="DejaVuSans-32" d="M 1228 531 
L 3431 531 
L 3431 0 
L 469 0 
L 469 531 
Q 828 903 1448 1529 
Q 2069 2156 2228 2338 
Q 2531 2678 2651 2914 
Q 2772 3150 2772 3378 
Q 2772 3750 2511 3984 
Q 2250 4219 1831 4219 
Q 1534 4219 1204 4116 
Q 875 4013 500 3803 
L 500 4441 
Q 881 4594 1212 4672 
Q 1544 4750 1819 4750 
Q 2544 4750 2975 4387 
Q 3406 4025 3406 3419 
Q 3406 3131 3298 2873 
Q 3191 2616 2906 2266 
Q 2828 2175 2409 1742 
Q 1991 1309 1228 531 
z
" transform="scale(0.015625)"/>
       </defs>
       <use xlink:href="#DejaVuSans-32"/>
      </g>
     </g>
    </g>
    <g id="xtick_3">
     <g id="line2d_3">
      <g>
       <use xlink:href="#m24484113fd" x="342.500678" y="512.64" style="stroke: #000000; stroke-width: 0.8"/>
      </g>
     </g>
     <g id="text_3">
      <!-- 3 -->
      <g transform="translate(338.046928 530.277812) scale(0.14 -0.14)">
       <defs>
        <path id="DejaVuSans-33" d="M 2597 2516 
Q 3050 2419 3304 2112 
Q 3559 1806 3559 1356 
Q 3559 666 3084 287 
Q 2609 -91 1734 -91 
Q 1441 -91 1130 -33 
Q 819 25 488 141 
L 488 750 
Q 750 597 1062 519 
Q 1375 441 1716 441 
Q 2309 441 2620 675 
Q 2931 909 2931 1356 
Q 2931 1769 2642 2001 
Q 2353 2234 1838 2234 
L 1294 2234 
L 1294 2753 
L 1863 2753 
Q 2328 2753 2575 2939 
Q 2822 3125 2822 3475 
Q 2822 3834 2567 4026 
Q 2313 4219 1838 4219 
Q 1578 4219 1281 4162 
Q 984 4106 628 3988 
L 628 4550 
Q 988 4650 1302 4700 
Q 1616 4750 1894 4750 
Q 2613 4750 3031 4423 
Q 3450 4097 3450 3541 
Q 3450 3153 3228 2886 
Q 3006 2619 2597 2516 
z
" transform="scale(0.015625)"/>
       </defs>
       <use xlink:href="#DejaVuSans-33"/>
      </g>
     </g>
    </g>
    <g id="xtick_4">
     <g id="line2d_4">
      <g>
       <use xlink:href="#m24484113fd" x="437.141113" y="512.64" style="stroke: #000000; stroke-width: 0.8"/>
      </g>
     </g>
     <g id="text_4">
      <!-- 4 -->
      <g transform="translate(432.687363 530.277812) scale(0.14 -0.14)">
       <defs>
        <path id="DejaVuSans-34" d="M 2419 4116 
L 825 1625 
L 2419 1625 
L 2419 4116 
z
M 2253 4666 
L 3047 4666 
L 3047 1625 
L 3713 1625 
L 3713 1100 
L 3047 1100 
L 3047 0 
L 2419 0 
L 2419 1100 
L 313 1100 
L 313 1709 
L 2253 4666 
z
" transform="scale(0.015625)"/>
       </defs>
       <use xlink:href="#DejaVuSans-34"/>
      </g>
     </g>
    </g>
    <g id="xtick_5">
     <g id="line2d_5">
      <g>
       <use xlink:href="#m24484113fd" x="531.781547" y="512.64" style="stroke: #000000; stroke-width: 0.8"/>
      </g>
     </g>
     <g id="text_5">
      <!-- 5 -->
      <g transform="translate(527.327797 530.277812) scale(0.14 -0.14)">
       <defs>
        <path id="DejaVuSans-35" d="M 691 4666 
L 3169 4666 
L 3169 4134 
L 1269 4134 
L 1269 2991 
Q 1406 3038 1543 3061 
Q 1681 3084 1819 3084 
Q 2600 3084 3056 2656 
Q 3513 2228 3513 1497 
Q 3513 744 3044 326 
Q 2575 -91 1722 -91 
Q 1428 -91 1123 -41 
Q 819 9 494 109 
L 494 744 
Q 775 591 1075 516 
Q 1375 441 1709 441 
Q 2250 441 2565 725 
Q 2881 1009 2881 1497 
Q 2881 1984 2565 2268 
Q 2250 2553 1709 2553 
Q 1456 2553 1204 2497 
Q 953 2441 691 2322 
L 691 4666 
z
" transform="scale(0.015625)"/>
       </defs>
       <use xlink:href="#DejaVuSans-35"/>
      </g>
     </g>
    </g>
    <g id="xtick_6">
     <g id="line2d_6">
      <g>
       <use xlink:href="#m24484113fd" x="626.421981" y="512.64" style="stroke: #000000; stroke-width: 0.8"/>
      </g>
     </g>
     <g id="text_6">
      <!-- 6 -->
      <g transform="translate(621.968231 530.277812) scale(0.14 -0.14)">
       <defs>
        <path id="DejaVuSans-36" d="M 2113 2584 
Q 1688 2584 1439 2293 
Q 1191 2003 1191 1497 
Q 1191 994 1439 701 
Q 1688 409 2113 409 
Q 2538 409 2786 701 
Q 3034 994 3034 1497 
Q 3034 2003 2786 2293 
Q 2538 2584 2113 2584 
z
M 3366 4563 
L 3366 3988 
Q 3128 4100 2886 4159 
Q 2644 4219 2406 4219 
Q 1781 4219 1451 3797 
Q 1122 3375 1075 2522 
Q 1259 2794 1537 2939 
Q 1816 3084 2150 3084 
Q 2853 3084 3261 2657 
Q 3669 2231 3669 1497 
Q 3669 778 3244 343 
Q 2819 -91 2113 -91 
Q 1303 -91 875 529 
Q 447 1150 447 2328 
Q 447 3434 972 4092 
Q 1497 4750 2381 4750 
Q 2619 4750 2861 4703 
Q 3103 4656 3366 4563 
z
" transform="scale(0.015625)"/>
       </defs>
       <use xlink:href="#DejaVuSans-36"/>
      </g>
     </g>
    </g>
    <g id="text_7">
     <!-- $\lambda$ ($\mu$m) -->
     <g transform="translate(345.83 547.829375) scale(0.14 -0.14)">
      <defs>
       <path id="DejaVuSans-Oblique-3bb" d="M 2350 4316 
L 3125 0 
L 2516 0 
L 2038 2588 
L 328 0 
L -281 0 
L 1903 3356 
L 1794 3975 
Q 1725 4369 1391 4369 
L 1091 4369 
L 1184 4863 
L 1550 4856 
Q 2253 4847 2350 4316 
z
" transform="scale(0.015625)"/>
       <path id="DejaVuSans-20" transform="scale(0.015625)"/>
       <path id="DejaVuSans-28" d="M 1984 4856 
Q 1566 4138 1362 3434 
Q 1159 2731 1159 2009 
Q 1159 1288 1364 580 
Q 1569 -128 1984 -844 
L 1484 -844 
Q 1016 -109 783 600 
Q 550 1309 550 2009 
Q 550 2706 781 3412 
Q 1013 4119 1484 4856 
L 1984 4856 
z
" transform="scale(0.015625)"/>
       <path id="DejaVuSans-Oblique-3bc" d="M -84 -1331 
L 856 3500 
L 1434 3500 
L 1009 1322 
Q 997 1256 987 1175 
Q 978 1094 978 1013 
Q 978 722 1161 565 
Q 1344 409 1684 409 
Q 2147 409 2431 671 
Q 2716 934 2816 1459 
L 3213 3500 
L 3788 3500 
L 3266 809 
Q 3253 750 3248 706 
Q 3244 663 3244 628 
Q 3244 531 3283 486 
Q 3322 441 3406 441 
Q 3438 441 3492 456 
Q 3547 472 3647 513 
L 3559 50 
Q 3422 -19 3297 -55 
Q 3172 -91 3053 -91 
Q 2847 -91 2730 40 
Q 2613 172 2613 403 
Q 2438 153 2195 31 
Q 1953 -91 1625 -91 
Q 1334 -91 1117 43 
Q 900 178 831 397 
L 494 -1331 
L -84 -1331 
z
" transform="scale(0.015625)"/>
       <path id="DejaVuSans-6d" d="M 3328 2828 
Q 3544 3216 3844 3400 
Q 4144 3584 4550 3584 
Q 5097 3584 5394 3201 
Q 5691 2819 5691 2113 
L 5691 0 
L 5113 0 
L 5113 2094 
Q 5113 2597 4934 2840 
Q 4756 3084 4391 3084 
Q 3944 3084 3684 2787 
Q 3425 2491 3425 1978 
L 3425 0 
L 2847 0 
L 2847 2094 
Q 2847 2600 2669 2842 
Q 2491 3084 2119 3084 
Q 1678 3084 1418 2786 
Q 1159 2488 1159 1978 
L 1159 0 
L 581 0 
L 581 3500 
L 1159 3500 
L 1159 2956 
Q 1356 3278 1631 3431 
Q 1906 3584 2284 3584 
Q 2666 3584 2933 3390 
Q 3200 3197 3328 2828 
z
" transform="scale(0.015625)"/>
       <path id="DejaVuSans-29" d="M 513 4856 
L 1013 4856 
Q 1481 4119 1714 3412 
Q 1947 2706 1947 2009 
Q 1947 1309 1714 600 
Q 1481 -109 1013 -844 
L 513 -844 
Q 928 -128 1133 580 
Q 1338 1288 1338 2009 
Q 1338 2731 1133 3434 
Q 928 4138 513 4856 
z
" transform="scale(0.015625)"/>
      </defs>
      <use xlink:href="#DejaVuSans-Oblique-3bb" transform="translate(0 0.015625)"/>
      <use xlink:href="#DejaVuSans-20" transform="translate(59.179688 0.015625)"/>
      <use xlink:href="#DejaVuSans-28" transform="translate(90.966797 0.015625)"/>
      <use xlink:href="#DejaVuSans-Oblique-3bc" transform="translate(129.980469 0.015625)"/>
      <use xlink:href="#DejaVuSans-6d" transform="translate(193.603516 0.015625)"/>
      <use xlink:href="#DejaVuSans-29" transform="translate(291.015625 0.015625)"/>
     </g>
    </g>
   </g>
   <g id="matplotlib.axis_2">
    <g id="ytick_1">
     <g id="line2d_7">
      <defs>
       <path id="m95883bd894" d="M 0 0 
L -3.5 0 
" style="stroke: #000000; stroke-width: 0.8"/>
      </defs>
      <g>
       <use xlink:href="#m95883bd894" x="90" y="492.48" style="stroke: #000000; stroke-width: 0.8"/>
      </g>
     </g>
     <g id="text_8">
      <!-- 0 -->
      <g transform="translate(74.0925 497.798906) scale(0.14 -0.14)">
       <defs>
        <path id="DejaVuSans-30" d="M 2034 4250 
Q 1547 4250 1301 3770 
Q 1056 3291 1056 2328 
Q 1056 1369 1301 889 
Q 1547 409 2034 409 
Q 2525 409 2770 889 
Q 3016 1369 3016 2328 
Q 3016 3291 2770 3770 
Q 2525 4250 2034 4250 
z
M 2034 4750 
Q 2819 4750 3233 4129 
Q 3647 3509 3647 2328 
Q 3647 1150 3233 529 
Q 2819 -91 2034 -91 
Q 1250 -91 836 529 
Q 422 1150 422 2328 
Q 422 3509 836 4129 
Q 1250 4750 2034 4750 
z
" transform="scale(0.015625)"/>
       </defs>
       <use xlink:href="#DejaVuSans-30"/>
      </g>
     </g>
    </g>
    <g id="ytick_2">
     <g id="line2d_8">
      <g>
       <use xlink:href="#m95883bd894" x="90" y="431.297177" style="stroke: #000000; stroke-width: 0.8"/>
      </g>
     </g>
     <g id="text_9">
      <!-- 25 -->
      <g transform="translate(65.185 436.616083) scale(0.14 -0.14)">
       <use xlink:href="#DejaVuSans-32"/>
       <use xlink:href="#DejaVuSans-35" transform="translate(63.623047 0)"/>
      </g>
     </g>
    </g>
    <g id="ytick_3">
     <g id="line2d_9">
      <g>
       <use xlink:href="#m95883bd894" x="90" y="370.114353" style="stroke: #000000; stroke-width: 0.8"/>
      </g>
     </g>
     <g id="text_10">
      <!-- 50 -->
      <g transform="translate(65.185 375.43326) scale(0.14 -0.14)">
       <use xlink:href="#DejaVuSans-35"/>
       <use xlink:href="#DejaVuSans-30" transform="translate(63.623047 0)"/>
      </g>
     </g>
    </g>
    <g id="ytick_4">
     <g id="line2d_10">
      <g>
       <use xlink:href="#m95883bd894" x="90" y="308.93153" style="stroke: #000000; stroke-width: 0.8"/>
      </g>
     </g>
     <g id="text_11">
      <!-- 75 -->
      <g transform="translate(65.185 314.250436) scale(0.14 -0.14)">
       <defs>
        <path id="DejaVuSans-37" d="M 525 4666 
L 3525 4666 
L 3525 4397 
L 1831 0 
L 1172 0 
L 2766 4134 
L 525 4134 
L 525 4666 
z
" transform="scale(0.015625)"/>
       </defs>
       <use xlink:href="#DejaVuSans-37"/>
       <use xlink:href="#DejaVuSans-35" transform="translate(63.623047 0)"/>
      </g>
     </g>
    </g>
    <g id="ytick_5">
     <g id="line2d_11">
      <g>
       <use xlink:href="#m95883bd894" x="90" y="247.748707" style="stroke: #000000; stroke-width: 0.8"/>
      </g>
     </g>
     <g id="text_12">
      <!-- 100 -->
      <g transform="translate(56.2775 253.067613) scale(0.14 -0.14)">
       <use xlink:href="#DejaVuSans-31"/>
       <use xlink:href="#DejaVuSans-30" transform="translate(63.623047 0)"/>
       <use xlink:href="#DejaVuSans-30" transform="translate(127.246094 0)"/>
      </g>
     </g>
    </g>
    <g id="ytick_6">
     <g id="line2d_12">
      <g>
       <use xlink:href="#m95883bd894" x="90" y="186.565884" style="stroke: #000000; stroke-width: 0.8"/>
      </g>
     </g>
     <g id="text_13">
      <!-- 125 -->
      <g transform="translate(56.2775 191.88479) scale(0.14 -0.14)">
       <use xlink:href="#DejaVuSans-31"/>
       <use xlink:href="#DejaVuSans-32" transform="translate(63.623047 0)"/>
       <use xlink:href="#DejaVuSans-35" transform="translate(127.246094 0)"/>
      </g>
     </g>
    </g>
    <g id="ytick_7">
     <g id="line2d_13">
      <g>
       <use xlink:href="#m95883bd894" x="90" y="125.38306" style="stroke: #000000; stroke-width: 0.8"/>
      </g>
     </g>
     <g id="text_14">
      <!-- 150 -->
      <g transform="translate(56.2775 130.701967) scale(0.14 -0.14)">
       <use xlink:href="#DejaVuSans-31"/>
       <use xlink:href="#DejaVuSans-35" transform="translate(63.623047 0)"/>
       <use xlink:href="#DejaVuSans-30" transform="translate(127.246094 0)"/>
      </g>
     </g>
    </g>
    <g id="text_15">
     <!-- Eclipse depth (ppm) -->
     <g transform="translate(49.365937 361.432344) rotate(-90) scale(0.14 -0.14)">
      <defs>
       <path id="DejaVuSans-45" d="M 628 4666 
L 3578 4666 
L 3578 4134 
L 1259 4134 
L 1259 2753 
L 3481 2753 
L 3481 2222 
L 1259 2222 
L 1259 531 
L 3634 531 
L 3634 0 
L 628 0 
L 628 4666 
z
" transform="scale(0.015625)"/>
       <path id="DejaVuSans-63" d="M 3122 3366 
L 3122 2828 
Q 2878 2963 2633 3030 
Q 2388 3097 2138 3097 
Q 1578 3097 1268 2742 
Q 959 2388 959 1747 
Q 959 1106 1268 751 
Q 1578 397 2138 397 
Q 2388 397 2633 464 
Q 2878 531 3122 666 
L 3122 134 
Q 2881 22 2623 -34 
Q 2366 -91 2075 -91 
Q 1284 -91 818 406 
Q 353 903 353 1747 
Q 353 2603 823 3093 
Q 1294 3584 2113 3584 
Q 2378 3584 2631 3529 
Q 2884 3475 3122 3366 
z
" transform="scale(0.015625)"/>
       <path id="DejaVuSans-6c" d="M 603 4863 
L 1178 4863 
L 1178 0 
L 603 0 
L 603 4863 
z
" transform="scale(0.015625)"/>
       <path id="DejaVuSans-69" d="M 603 3500 
L 1178 3500 
L 1178 0 
L 603 0 
L 603 3500 
z
M 603 4863 
L 1178 4863 
L 1178 4134 
L 603 4134 
L 603 4863 
z
" transform="scale(0.015625)"/>
       <path id="DejaVuSans-70" d="M 1159 525 
L 1159 -1331 
L 581 -1331 
L 581 3500 
L 1159 3500 
L 1159 2969 
Q 1341 3281 1617 3432 
Q 1894 3584 2278 3584 
Q 2916 3584 3314 3078 
Q 3713 2572 3713 1747 
Q 3713 922 3314 415 
Q 2916 -91 2278 -91 
Q 1894 -91 1617 61 
Q 1341 213 1159 525 
z
M 3116 1747 
Q 3116 2381 2855 2742 
Q 2594 3103 2138 3103 
Q 1681 3103 1420 2742 
Q 1159 2381 1159 1747 
Q 1159 1113 1420 752 
Q 1681 391 2138 391 
Q 2594 391 2855 752 
Q 3116 1113 3116 1747 
z
" transform="scale(0.015625)"/>
       <path id="DejaVuSans-73" d="M 2834 3397 
L 2834 2853 
Q 2591 2978 2328 3040 
Q 2066 3103 1784 3103 
Q 1356 3103 1142 2972 
Q 928 2841 928 2578 
Q 928 2378 1081 2264 
Q 1234 2150 1697 2047 
L 1894 2003 
Q 2506 1872 2764 1633 
Q 3022 1394 3022 966 
Q 3022 478 2636 193 
Q 2250 -91 1575 -91 
Q 1294 -91 989 -36 
Q 684 19 347 128 
L 347 722 
Q 666 556 975 473 
Q 1284 391 1588 391 
Q 1994 391 2212 530 
Q 2431 669 2431 922 
Q 2431 1156 2273 1281 
Q 2116 1406 1581 1522 
L 1381 1569 
Q 847 1681 609 1914 
Q 372 2147 372 2553 
Q 372 3047 722 3315 
Q 1072 3584 1716 3584 
Q 2034 3584 2315 3537 
Q 2597 3491 2834 3397 
z
" transform="scale(0.015625)"/>
       <path id="DejaVuSans-65" d="M 3597 1894 
L 3597 1613 
L 953 1613 
Q 991 1019 1311 708 
Q 1631 397 2203 397 
Q 2534 397 2845 478 
Q 3156 559 3463 722 
L 3463 178 
Q 3153 47 2828 -22 
Q 2503 -91 2169 -91 
Q 1331 -91 842 396 
Q 353 884 353 1716 
Q 353 2575 817 3079 
Q 1281 3584 2069 3584 
Q 2775 3584 3186 3129 
Q 3597 2675 3597 1894 
z
M 3022 2063 
Q 3016 2534 2758 2815 
Q 2500 3097 2075 3097 
Q 1594 3097 1305 2825 
Q 1016 2553 972 2059 
L 3022 2063 
z
" transform="scale(0.015625)"/>
       <path id="DejaVuSans-64" d="M 2906 2969 
L 2906 4863 
L 3481 4863 
L 3481 0 
L 2906 0 
L 2906 525 
Q 2725 213 2448 61 
Q 2172 -91 1784 -91 
Q 1150 -91 751 415 
Q 353 922 353 1747 
Q 353 2572 751 3078 
Q 1150 3584 1784 3584 
Q 2172 3584 2448 3432 
Q 2725 3281 2906 2969 
z
M 947 1747 
Q 947 1113 1208 752 
Q 1469 391 1925 391 
Q 2381 391 2643 752 
Q 2906 1113 2906 1747 
Q 2906 2381 2643 2742 
Q 2381 3103 1925 3103 
Q 1469 3103 1208 2742 
Q 947 2381 947 1747 
z
" transform="scale(0.015625)"/>
       <path id="DejaVuSans-74" d="M 1172 4494 
L 1172 3500 
L 2356 3500 
L 2356 3053 
L 1172 3053 
L 1172 1153 
Q 1172 725 1289 603 
Q 1406 481 1766 481 
L 2356 481 
L 2356 0 
L 1766 0 
Q 1100 0 847 248 
Q 594 497 594 1153 
L 594 3053 
L 172 3053 
L 172 3500 
L 594 3500 
L 594 4494 
L 1172 4494 
z
" transform="scale(0.015625)"/>
       <path id="DejaVuSans-68" d="M 3513 2113 
L 3513 0 
L 2938 0 
L 2938 2094 
Q 2938 2591 2744 2837 
Q 2550 3084 2163 3084 
Q 1697 3084 1428 2787 
Q 1159 2491 1159 1978 
L 1159 0 
L 581 0 
L 581 4863 
L 1159 4863 
L 1159 2956 
Q 1366 3272 1645 3428 
Q 1925 3584 2291 3584 
Q 2894 3584 3203 3211 
Q 3513 2838 3513 2113 
z
" transform="scale(0.015625)"/>
      </defs>
      <use xlink:href="#DejaVuSans-45"/>
      <use xlink:href="#DejaVuSans-63" transform="translate(63.183594 0)"/>
      <use xlink:href="#DejaVuSans-6c" transform="translate(118.164062 0)"/>
      <use xlink:href="#DejaVuSans-69" transform="translate(145.947266 0)"/>
      <use xlink:href="#DejaVuSans-70" transform="translate(173.730469 0)"/>
      <use xlink:href="#DejaVuSans-73" transform="translate(237.207031 0)"/>
      <use xlink:href="#DejaVuSans-65" transform="translate(289.306641 0)"/>
      <use xlink:href="#DejaVuSans-20" transform="translate(350.830078 0)"/>
      <use xlink:href="#DejaVuSans-64" transform="translate(382.617188 0)"/>
      <use xlink:href="#DejaVuSans-65" transform="translate(446.09375 0)"/>
      <use xlink:href="#DejaVuSans-70" transform="translate(507.617188 0)"/>
      <use xlink:href="#DejaVuSans-74" transform="translate(571.09375 0)"/>
      <use xlink:href="#DejaVuSans-68" transform="translate(610.302734 0)"/>
      <use xlink:href="#DejaVuSans-20" transform="translate(673.681641 0)"/>
      <use xlink:href="#DejaVuSans-28" transform="translate(705.46875 0)"/>
      <use xlink:href="#DejaVuSans-70" transform="translate(744.482422 0)"/>
      <use xlink:href="#DejaVuSans-70" transform="translate(807.958984 0)"/>
      <use xlink:href="#DejaVuSans-6d" transform="translate(871.435547 0)"/>
      <use xlink:href="#DejaVuSans-29" transform="translate(968.847656 0)"/>
     </g>
    </g>
   </g>
   <g id="line2d_14">
    <path d="M 124.82768 481.484247 
L 148.487788 460.600936 
L 204.325645 404.352775 
L 281.930801 289.512736 
L 374.678426 212.488294 
L 622.636364 171.788639 
" clip-path="url(#p7e15bb701b)" style="fill: none; stroke: #1f77b4; stroke-width: 1.5; stroke-linecap: square"/>
    <defs>
     <path id="m9c39813e92" d="M 0 3 
C 0.795609 3 1.55874 2.683901 2.12132 2.12132 
C 2.683901 1.55874 3 0.795609 3 0 
C 3 -0.795609 2.683901 -1.55874 2.12132 -2.12132 
C 1.55874 -2.683901 0.795609 -3 0 -3 
C -0.795609 -3 -1.55874 -2.683901 -2.12132 -2.12132 
C -2.683901 -1.55874 -3 -0.795609 -3 0 
C -3 0.795609 -2.683901 1.55874 -2.12132 2.12132 
C -1.55874 2.683901 -0.795609 3 0 3 
z
" style="stroke: #1f77b4"/>
    </defs>
    <g clip-path="url(#p7e15bb701b)">
     <use xlink:href="#m9c39813e92" x="124.82768" y="481.484247" style="fill: #1f77b4; stroke: #1f77b4"/>
     <use xlink:href="#m9c39813e92" x="148.487788" y="460.600936" style="fill: #1f77b4; stroke: #1f77b4"/>
     <use xlink:href="#m9c39813e92" x="204.325645" y="404.352775" style="fill: #1f77b4; stroke: #1f77b4"/>
     <use xlink:href="#m9c39813e92" x="281.930801" y="289.512736" style="fill: #1f77b4; stroke: #1f77b4"/>
     <use xlink:href="#m9c39813e92" x="374.678426" y="212.488294" style="fill: #1f77b4; stroke: #1f77b4"/>
     <use xlink:href="#m9c39813e92" x="622.636364" y="171.788639" style="fill: #1f77b4; stroke: #1f77b4"/>
    </g>
   </g>
   <g id="line2d_15">
    <path d="M 115.363636 485.352816 
L 124.82768 478.196202 
L 134.291723 468.546759 
L 143.755767 456.904116 
L 153.21981 443.851508 
L 162.683853 429.933811 
L 172.147897 415.604199 
L 181.61194 401.212359 
L 191.075984 387.01314 
L 200.540027 373.182827 
L 210.004071 359.836408 
L 219.468114 347.042956 
L 228.932157 334.838189 
L 238.396201 323.234246 
L 247.860244 312.22704 
L 257.324288 301.801675 
L 266.788331 291.936363 
L 276.252374 282.605217 
L 285.716418 273.780206 
L 295.180461 265.432514 
L 304.644505 257.533454 
L 314.108548 250.055074 
L 323.572592 242.970534 
L 333.036635 236.254335 
L 342.500678 229.882436 
L 351.964722 223.832293 
L 361.428765 218.082854 
L 370.892809 212.614515 
L 380.356852 207.409059 
L 389.820896 202.449584 
L 399.284939 197.72042 
L 408.748982 193.207047 
L 418.213026 188.896017 
L 427.677069 184.774872 
L 437.141113 180.832067 
L 446.605156 177.056905 
L 456.069199 173.439464 
L 465.533243 169.970539 
L 474.997286 166.641584 
L 484.46133 163.444658 
L 493.925373 160.37238 
L 503.389417 157.417878 
L 512.85346 154.574757 
L 522.317503 151.837053 
L 531.781547 149.199205 
L 541.24559 146.656018 
L 550.709634 144.202642 
L 560.173677 141.834538 
L 569.63772 139.54746 
L 579.101764 137.337428 
L 588.565807 135.200713 
L 598.029851 133.133814 
L 607.493894 131.133444 
L 616.957938 129.196515 
" clip-path="url(#p7e15bb701b)" style="fill: none; stroke: #ff7f0e; stroke-width: 1.5; stroke-linecap: square"/>
   </g>
   <g id="line2d_16">
    <path d="M 115.363636 492.48 
L 124.82768 492.48 
L 134.291723 492.48 
L 143.755767 492.48 
L 153.21981 492.48 
L 162.683853 492.48 
L 172.147897 492.48 
L 181.61194 492.48 
L 191.075984 492.48 
L 200.540027 492.48 
L 210.004071 492.48 
L 219.468114 492.48 
L 228.932157 492.48 
L 238.396201 492.48 
L 247.860244 492.48 
L 257.324288 492.48 
L 266.788331 492.48 
L 276.252374 492.48 
L 285.716418 492.48 
L 295.180461 492.48 
L 304.644505 492.48 
L 314.108548 492.48 
L 323.572592 492.48 
L 333.036635 492.48 
L 342.500678 492.48 
L 351.964722 492.48 
L 361.428765 492.48 
L 370.892809 492.48 
L 380.356852 492.48 
L 389.820896 492.48 
L 399.284939 492.48 
L 408.748982 492.48 
L 418.213026 492.48 
L 427.677069 492.48 
L 437.141113 492.48 
L 446.605156 492.48 
L 456.069199 492.48 
L 465.533243 492.48 
L 474.997286 492.48 
L 484.46133 492.48 
L 493.925373 492.48 
L 503.389417 492.48 
L 512.85346 492.48 
L 522.317503 492.48 
L 531.781547 492.48 
L 541.24559 492.48 
L 550.709634 492.48 
L 560.173677 492.48 
L 569.63772 492.48 
L 579.101764 492.48 
L 588.565807 492.48 
L 598.029851 492.48 
L 607.493894 492.48 
L 616.957938 492.48 
" clip-path="url(#p7e15bb701b)" style="fill: none; stroke-dasharray: 5.55,2.4; stroke-dashoffset: 0; stroke: #000000; stroke-width: 1.5"/>
   </g>
   <g id="patch_3">
    <path d="M 90 512.64 
L 90 69.12 
" style="fill: none; stroke: #000000; stroke-width: 0.8; stroke-linejoin: miter; stroke-linecap: square"/>
   </g>
   <g id="patch_4">
    <path d="M 648 512.64 
L 648 69.12 
" style="fill: none; stroke: #000000; stroke-width: 0.8; stroke-linejoin: miter; stroke-linecap: square"/>
   </g>
   <g id="patch_5">
    <path d="M 90 512.64 
L 648 512.64 
" style="fill: none; stroke: #000000; stroke-width: 0.8; stroke-linejoin: miter; stroke-linecap: square"/>
   </g>
   <g id="patch_6">
    <path d="M 90 69.12 
L 648 69.12 
" style="fill: none; stroke: #000000; stroke-width: 0.8; stroke-linejoin: miter; stroke-linecap: square"/>
   </g>
   <g id="text_16">
    <!-- FGS1 -->
    <g transform="translate(111.722211 471.484247) scale(0.1 -0.1)">
     <defs>
      <path id="DejaVuSans-46" d="M 628 4666 
L 3309 4666 
L 3309 4134 
L 1259 4134 
L 1259 2759 
L 3109 2759 
L 3109 2228 
L 1259 2228 
L 1259 0 
L 628 0 
L 628 4666 
z
" transform="scale(0.015625)"/>
      <path id="DejaVuSans-47" d="M 3809 666 
L 3809 1919 
L 2778 1919 
L 2778 2438 
L 4434 2438 
L 4434 434 
Q 4069 175 3628 42 
Q 3188 -91 2688 -91 
Q 1594 -91 976 548 
Q 359 1188 359 2328 
Q 359 3472 976 4111 
Q 1594 4750 2688 4750 
Q 3144 4750 3555 4637 
Q 3966 4525 4313 4306 
L 4313 3634 
Q 3963 3931 3569 4081 
Q 3175 4231 2741 4231 
Q 1884 4231 1454 3753 
Q 1025 3275 1025 2328 
Q 1025 1384 1454 906 
Q 1884 428 2741 428 
Q 3075 428 3337 486 
Q 3600 544 3809 666 
z
" transform="scale(0.015625)"/>
      <path id="DejaVuSans-53" d="M 3425 4513 
L 3425 3897 
Q 3066 4069 2747 4153 
Q 2428 4238 2131 4238 
Q 1616 4238 1336 4038 
Q 1056 3838 1056 3469 
Q 1056 3159 1242 3001 
Q 1428 2844 1947 2747 
L 2328 2669 
Q 3034 2534 3370 2195 
Q 3706 1856 3706 1288 
Q 3706 609 3251 259 
Q 2797 -91 1919 -91 
Q 1588 -91 1214 -16 
Q 841 59 441 206 
L 441 856 
Q 825 641 1194 531 
Q 1563 422 1919 422 
Q 2459 422 2753 634 
Q 3047 847 3047 1241 
Q 3047 1584 2836 1778 
Q 2625 1972 2144 2069 
L 1759 2144 
Q 1053 2284 737 2584 
Q 422 2884 422 3419 
Q 422 4038 858 4394 
Q 1294 4750 2059 4750 
Q 2388 4750 2728 4690 
Q 3069 4631 3425 4513 
z
" transform="scale(0.015625)"/>
     </defs>
     <use xlink:href="#DejaVuSans-46"/>
     <use xlink:href="#DejaVuSans-47" transform="translate(57.519531 0)"/>
     <use xlink:href="#DejaVuSans-53" transform="translate(135.009766 0)"/>
     <use xlink:href="#DejaVuSans-31" transform="translate(198.486328 0)"/>
    </g>
   </g>
   <g id="text_17">
    <!-- FGS2 -->
    <g transform="translate(135.38232 450.600936) scale(0.1 -0.1)">
     <use xlink:href="#DejaVuSans-46"/>
     <use xlink:href="#DejaVuSans-47" transform="translate(57.519531 0)"/>
     <use xlink:href="#DejaVuSans-53" transform="translate(135.009766 0)"/>
     <use xlink:href="#DejaVuSans-32" transform="translate(198.486328 0)"/>
    </g>
   </g>
   <g id="text_18">
    <!-- NIRSpec -->
    <g transform="translate(183.461582 394.352775) scale(0.1 -0.1)">
     <defs>
      <path id="DejaVuSans-4e" d="M 628 4666 
L 1478 4666 
L 3547 763 
L 3547 4666 
L 4159 4666 
L 4159 0 
L 3309 0 
L 1241 3903 
L 1241 0 
L 628 0 
L 628 4666 
z
" transform="scale(0.015625)"/>
      <path id="DejaVuSans-49" d="M 628 4666 
L 1259 4666 
L 1259 0 
L 628 0 
L 628 4666 
z
" transform="scale(0.015625)"/>
      <path id="DejaVuSans-52" d="M 2841 2188 
Q 3044 2119 3236 1894 
Q 3428 1669 3622 1275 
L 4263 0 
L 3584 0 
L 2988 1197 
Q 2756 1666 2539 1819 
Q 2322 1972 1947 1972 
L 1259 1972 
L 1259 0 
L 628 0 
L 628 4666 
L 2053 4666 
Q 2853 4666 3247 4331 
Q 3641 3997 3641 3322 
Q 3641 2881 3436 2590 
Q 3231 2300 2841 2188 
z
M 1259 4147 
L 1259 2491 
L 2053 2491 
Q 2509 2491 2742 2702 
Q 2975 2913 2975 3322 
Q 2975 3731 2742 3939 
Q 2509 4147 2053 4147 
L 1259 4147 
z
" transform="scale(0.015625)"/>
     </defs>
     <use xlink:href="#DejaVuSans-4e"/>
     <use xlink:href="#DejaVuSans-49" transform="translate(74.804688 0)"/>
     <use xlink:href="#DejaVuSans-52" transform="translate(104.296875 0)"/>
     <use xlink:href="#DejaVuSans-53" transform="translate(173.779297 0)"/>
     <use xlink:href="#DejaVuSans-70" transform="translate(237.255859 0)"/>
     <use xlink:href="#DejaVuSans-65" transform="translate(300.732422 0)"/>
     <use xlink:href="#DejaVuSans-63" transform="translate(362.255859 0)"/>
    </g>
   </g>
   <g id="text_19">
    <!-- AIRS-CH0-bin1 -->
    <g transform="translate(245.433144 279.512736) scale(0.1 -0.1)">
     <defs>
      <path id="DejaVuSans-41" d="M 2188 4044 
L 1331 1722 
L 3047 1722 
L 2188 4044 
z
M 1831 4666 
L 2547 4666 
L 4325 0 
L 3669 0 
L 3244 1197 
L 1141 1197 
L 716 0 
L 50 0 
L 1831 4666 
z
" transform="scale(0.015625)"/>
      <path id="DejaVuSans-2d" d="M 313 2009 
L 1997 2009 
L 1997 1497 
L 313 1497 
L 313 2009 
z
" transform="scale(0.015625)"/>
      <path id="DejaVuSans-43" d="M 4122 4306 
L 4122 3641 
Q 3803 3938 3442 4084 
Q 3081 4231 2675 4231 
Q 1875 4231 1450 3742 
Q 1025 3253 1025 2328 
Q 1025 1406 1450 917 
Q 1875 428 2675 428 
Q 3081 428 3442 575 
Q 3803 722 4122 1019 
L 4122 359 
Q 3791 134 3420 21 
Q 3050 -91 2638 -91 
Q 1578 -91 968 557 
Q 359 1206 359 2328 
Q 359 3453 968 4101 
Q 1578 4750 2638 4750 
Q 3056 4750 3426 4639 
Q 3797 4528 4122 4306 
z
" transform="scale(0.015625)"/>
      <path id="DejaVuSans-48" d="M 628 4666 
L 1259 4666 
L 1259 2753 
L 3553 2753 
L 3553 4666 
L 4184 4666 
L 4184 0 
L 3553 0 
L 3553 2222 
L 1259 2222 
L 1259 0 
L 628 0 
L 628 4666 
z
" transform="scale(0.015625)"/>
      <path id="DejaVuSans-62" d="M 3116 1747 
Q 3116 2381 2855 2742 
Q 2594 3103 2138 3103 
Q 1681 3103 1420 2742 
Q 1159 2381 1159 1747 
Q 1159 1113 1420 752 
Q 1681 391 2138 391 
Q 2594 391 2855 752 
Q 3116 1113 3116 1747 
z
M 1159 2969 
Q 1341 3281 1617 3432 
Q 1894 3584 2278 3584 
Q 2916 3584 3314 3078 
Q 3713 2572 3713 1747 
Q 3713 922 3314 415 
Q 2916 -91 2278 -91 
Q 1894 -91 1617 61 
Q 1341 213 1159 525 
L 1159 0 
L 581 0 
L 581 4863 
L 1159 4863 
L 1159 2969 
z
" transform="scale(0.015625)"/>
      <path id="DejaVuSans-6e" d="M 3513 2113 
L 3513 0 
L 2938 0 
L 2938 2094 
Q 2938 2591 2744 2837 
Q 2550 3084 2163 3084 
Q 1697 3084 1428 2787 
Q 1159 2491 1159 1978 
L 1159 0 
L 581 0 
L 581 3500 
L 1159 3500 
L 1159 2956 
Q 1366 3272 1645 3428 
Q 1925 3584 2291 3584 
Q 2894 3584 3203 3211 
Q 3513 2838 3513 2113 
z
" transform="scale(0.015625)"/>
     </defs>
     <use xlink:href="#DejaVuSans-41"/>
     <use xlink:href="#DejaVuSans-49" transform="translate(68.408203 0)"/>
     <use xlink:href="#DejaVuSans-52" transform="translate(97.900391 0)"/>
     <use xlink:href="#DejaVuSans-53" transform="translate(167.382812 0)"/>
     <use xlink:href="#DejaVuSans-2d" transform="translate(230.859375 0)"/>
     <use xlink:href="#DejaVuSans-43" transform="translate(266.943359 0)"/>
     <use xlink:href="#DejaVuSans-48" transform="translate(336.767578 0)"/>
     <use xlink:href="#DejaVuSans-30" transform="translate(411.962891 0)"/>
     <use xlink:href="#DejaVuSans-2d" transform="translate(475.585938 0)"/>
     <use xlink:href="#DejaVuSans-62" transform="translate(511.669922 0)"/>
     <use xlink:href="#DejaVuSans-69" transform="translate(575.146484 0)"/>
     <use xlink:href="#DejaVuSans-6e" transform="translate(602.929688 0)"/>
     <use xlink:href="#DejaVuSans-31" transform="translate(666.308594 0)"/>
    </g>
   </g>
   <g id="text_20">
    <!-- AIRS-CH0-bin2 -->
    <g transform="translate(338.18077 202.488294) scale(0.1 -0.1)">
     <use xlink:href="#DejaVuSans-41"/>
     <use xlink:href="#DejaVuSans-49" transform="translate(68.408203 0)"/>
     <use xlink:href="#DejaVuSans-52" transform="translate(97.900391 0)"/>
     <use xlink:href="#DejaVuSans-53" transform="translate(167.382812 0)"/>
     <use xlink:href="#DejaVuSans-2d" transform="translate(230.859375 0)"/>
     <use xlink:href="#DejaVuSans-43" transform="translate(266.943359 0)"/>
     <use xlink:href="#DejaVuSans-48" transform="translate(336.767578 0)"/>
     <use xlink:href="#DejaVuSans-30" transform="translate(411.962891 0)"/>
     <use xlink:href="#DejaVuSans-2d" transform="translate(475.585938 0)"/>
     <use xlink:href="#DejaVuSans-62" transform="translate(511.669922 0)"/>
     <use xlink:href="#DejaVuSans-69" transform="translate(575.146484 0)"/>
     <use xlink:href="#DejaVuSans-6e" transform="translate(602.929688 0)"/>
     <use xlink:href="#DejaVuSans-32" transform="translate(666.308594 0)"/>
    </g>
   </g>
   <g id="text_21">
    <!-- AIRS-CH1 -->
    <g transform="translate(598.855895 161.788639) scale(0.1 -0.1)">
     <use xlink:href="#DejaVuSans-41"/>
     <use xlink:href="#DejaVuSans-49" transform="translate(68.408203 0)"/>
     <use xlink:href="#DejaVuSans-52" transform="translate(97.900391 0)"/>
     <use xlink:href="#DejaVuSans-53" transform="translate(167.382812 0)"/>
     <use xlink:href="#DejaVuSans-2d" transform="translate(230.859375 0)"/>
     <use xlink:href="#DejaVuSans-43" transform="translate(266.943359 0)"/>
     <use xlink:href="#DejaVuSans-48" transform="translate(336.767578 0)"/>
     <use xlink:href="#DejaVuSans-31" transform="translate(411.962891 0)"/>
    </g>
   </g>
   <g id="text_22">
    <!-- Eclipse depth for 55 Cnc e -->
    <g transform="translate(276.929219 63.12) scale(0.14 -0.14)">
     <defs>
      <path id="DejaVuSans-66" d="M 2375 4863 
L 2375 4384 
L 1825 4384 
Q 1516 4384 1395 4259 
Q 1275 4134 1275 3809 
L 1275 3500 
L 2222 3500 
L 2222 3053 
L 1275 3053 
L 1275 0 
L 697 0 
L 697 3053 
L 147 3053 
L 147 3500 
L 697 3500 
L 697 3744 
Q 697 4328 969 4595 
Q 1241 4863 1831 4863 
L 2375 4863 
z
" transform="scale(0.015625)"/>
      <path id="DejaVuSans-6f" d="M 1959 3097 
Q 1497 3097 1228 2736 
Q 959 2375 959 1747 
Q 959 1119 1226 758 
Q 1494 397 1959 397 
Q 2419 397 2687 759 
Q 2956 1122 2956 1747 
Q 2956 2369 2687 2733 
Q 2419 3097 1959 3097 
z
M 1959 3584 
Q 2709 3584 3137 3096 
Q 3566 2609 3566 1747 
Q 3566 888 3137 398 
Q 2709 -91 1959 -91 
Q 1206 -91 779 398 
Q 353 888 353 1747 
Q 353 2609 779 3096 
Q 1206 3584 1959 3584 
z
" transform="scale(0.015625)"/>
      <path id="DejaVuSans-72" d="M 2631 2963 
Q 2534 3019 2420 3045 
Q 2306 3072 2169 3072 
Q 1681 3072 1420 2755 
Q 1159 2438 1159 1844 
L 1159 0 
L 581 0 
L 581 3500 
L 1159 3500 
L 1159 2956 
Q 1341 3275 1631 3429 
Q 1922 3584 2338 3584 
Q 2397 3584 2469 3576 
Q 2541 3569 2628 3553 
L 2631 2963 
z
" transform="scale(0.015625)"/>
     </defs>
     <use xlink:href="#DejaVuSans-45"/>
     <use xlink:href="#DejaVuSans-63" transform="translate(63.183594 0)"/>
     <use xlink:href="#DejaVuSans-6c" transform="translate(118.164062 0)"/>
     <use xlink:href="#DejaVuSans-69" transform="translate(145.947266 0)"/>
     <use xlink:href="#DejaVuSans-70" transform="translate(173.730469 0)"/>
     <use xlink:href="#DejaVuSans-73" transform="translate(237.207031 0)"/>
     <use xlink:href="#DejaVuSans-65" transform="translate(289.306641 0)"/>
     <use xlink:href="#DejaVuSans-20" transform="translate(350.830078 0)"/>
     <use xlink:href="#DejaVuSans-64" transform="translate(382.617188 0)"/>
     <use xlink:href="#DejaVuSans-65" transform="translate(446.09375 0)"/>
     <use xlink:href="#DejaVuSans-70" transform="translate(507.617188 0)"/>
     <use xlink:href="#DejaVuSans-74" transform="translate(571.09375 0)"/>
     <use xlink:href="#DejaVuSans-68" transform="translate(610.302734 0)"/>
     <use xlink:href="#DejaVuSans-20" transform="translate(673.681641 0)"/>
     <use xlink:href="#DejaVuSans-66" transform="translate(705.46875 0)"/>
     <use xlink:href="#DejaVuSans-6f" transform="translate(740.673828 0)"/>
     <use xlink:href="#DejaVuSans-72" transform="translate(801.855469 0)"/>
     <use xlink:href="#DejaVuSans-20" transform="translate(842.96875 0)"/>
     <use xlink:href="#DejaVuSans-35" transform="translate(874.755859 0)"/>
     <use xlink:href="#DejaVuSans-35" transform="translate(938.378906 0)"/>
     <use xlink:href="#DejaVuSans-20" transform="translate(1002.001953 0)"/>
     <use xlink:href="#DejaVuSans-43" transform="translate(1033.789062 0)"/>
     <use xlink:href="#DejaVuSans-6e" transform="translate(1103.613281 0)"/>
     <use xlink:href="#DejaVuSans-63" transform="translate(1166.992188 0)"/>
     <use xlink:href="#DejaVuSans-20" transform="translate(1221.972656 0)"/>
     <use xlink:href="#DejaVuSans-65" transform="translate(1253.759766 0)"/>
    </g>
   </g>
   <g id="legend_1">
    <g id="patch_7">
     <path d="M 98.4 131.895 
L 276.63375 131.895 
Q 279.03375 131.895 279.03375 129.495 
L 279.03375 77.52 
Q 279.03375 75.12 276.63375 75.12 
L 98.4 75.12 
Q 96 75.12 96 77.52 
L 96 129.495 
Q 96 131.895 98.4 131.895 
z
" style="fill: #ffffff; opacity: 0.8; stroke: #cccccc; stroke-linejoin: miter"/>
    </g>
    <g id="patch_8">
     <path d="M 100.8 89.038125 
L 124.8 89.038125 
L 124.8 80.638125 
L 100.8 80.638125 
z
" style="fill: #1f77b4; fill-opacity: 0.2"/>
    </g>
    <g id="text_23">
     <!-- asymmetric error -->
     <g transform="translate(134.4 89.038125) scale(0.12 -0.12)">
      <defs>
       <path id="DejaVuSans-61" d="M 2194 1759 
Q 1497 1759 1228 1600 
Q 959 1441 959 1056 
Q 959 750 1161 570 
Q 1363 391 1709 391 
Q 2188 391 2477 730 
Q 2766 1069 2766 1631 
L 2766 1759 
L 2194 1759 
z
M 3341 1997 
L 3341 0 
L 2766 0 
L 2766 531 
Q 2569 213 2275 61 
Q 1981 -91 1556 -91 
Q 1019 -91 701 211 
Q 384 513 384 1019 
Q 384 1609 779 1909 
Q 1175 2209 1959 2209 
L 2766 2209 
L 2766 2266 
Q 2766 2663 2505 2880 
Q 2244 3097 1772 3097 
Q 1472 3097 1187 3025 
Q 903 2953 641 2809 
L 641 3341 
Q 956 3463 1253 3523 
Q 1550 3584 1831 3584 
Q 2591 3584 2966 3190 
Q 3341 2797 3341 1997 
z
" transform="scale(0.015625)"/>
       <path id="DejaVuSans-79" d="M 2059 -325 
Q 1816 -950 1584 -1140 
Q 1353 -1331 966 -1331 
L 506 -1331 
L 506 -850 
L 844 -850 
Q 1081 -850 1212 -737 
Q 1344 -625 1503 -206 
L 1606 56 
L 191 3500 
L 800 3500 
L 1894 763 
L 2988 3500 
L 3597 3500 
L 2059 -325 
z
" transform="scale(0.015625)"/>
      </defs>
      <use xlink:href="#DejaVuSans-61"/>
      <use xlink:href="#DejaVuSans-73" transform="translate(61.279297 0)"/>
      <use xlink:href="#DejaVuSans-79" transform="translate(113.378906 0)"/>
      <use xlink:href="#DejaVuSans-6d" transform="translate(172.558594 0)"/>
      <use xlink:href="#DejaVuSans-6d" transform="translate(269.970703 0)"/>
      <use xlink:href="#DejaVuSans-65" transform="translate(367.382812 0)"/>
      <use xlink:href="#DejaVuSans-74" transform="translate(428.90625 0)"/>
      <use xlink:href="#DejaVuSans-72" transform="translate(468.115234 0)"/>
      <use xlink:href="#DejaVuSans-69" transform="translate(509.228516 0)"/>
      <use xlink:href="#DejaVuSans-63" transform="translate(537.011719 0)"/>
      <use xlink:href="#DejaVuSans-20" transform="translate(591.992188 0)"/>
      <use xlink:href="#DejaVuSans-65" transform="translate(623.779297 0)"/>
      <use xlink:href="#DejaVuSans-72" transform="translate(685.302734 0)"/>
      <use xlink:href="#DejaVuSans-72" transform="translate(724.666016 0)"/>
      <use xlink:href="#DejaVuSans-6f" transform="translate(763.529297 0)"/>
      <use xlink:href="#DejaVuSans-72" transform="translate(824.710938 0)"/>
     </g>
    </g>
    <g id="line2d_17">
     <path d="M 100.8 102.451875 
L 112.8 102.451875 
L 124.8 102.451875 
" style="fill: none; stroke: #ff7f0e; stroke-width: 1.5; stroke-linecap: square"/>
    </g>
    <g id="text_24">
     <!-- with initial values -->
     <g transform="translate(134.4 106.651875) scale(0.12 -0.12)">
      <defs>
       <path id="DejaVuSans-77" d="M 269 3500 
L 844 3500 
L 1563 769 
L 2278 3500 
L 2956 3500 
L 3675 769 
L 4391 3500 
L 4966 3500 
L 4050 0 
L 3372 0 
L 2619 2869 
L 1863 0 
L 1184 0 
L 269 3500 
z
" transform="scale(0.015625)"/>
       <path id="DejaVuSans-76" d="M 191 3500 
L 800 3500 
L 1894 563 
L 2988 3500 
L 3597 3500 
L 2284 0 
L 1503 0 
L 191 3500 
z
" transform="scale(0.015625)"/>
       <path id="DejaVuSans-75" d="M 544 1381 
L 544 3500 
L 1119 3500 
L 1119 1403 
Q 1119 906 1312 657 
Q 1506 409 1894 409 
Q 2359 409 2629 706 
Q 2900 1003 2900 1516 
L 2900 3500 
L 3475 3500 
L 3475 0 
L 2900 0 
L 2900 538 
Q 2691 219 2414 64 
Q 2138 -91 1772 -91 
Q 1169 -91 856 284 
Q 544 659 544 1381 
z
M 1991 3584 
L 1991 3584 
z
" transform="scale(0.015625)"/>
      </defs>
      <use xlink:href="#DejaVuSans-77"/>
      <use xlink:href="#DejaVuSans-69" transform="translate(81.787109 0)"/>
      <use xlink:href="#DejaVuSans-74" transform="translate(109.570312 0)"/>
      <use xlink:href="#DejaVuSans-68" transform="translate(148.779297 0)"/>
      <use xlink:href="#DejaVuSans-20" transform="translate(212.158203 0)"/>
      <use xlink:href="#DejaVuSans-69" transform="translate(243.945312 0)"/>
      <use xlink:href="#DejaVuSans-6e" transform="translate(271.728516 0)"/>
      <use xlink:href="#DejaVuSans-69" transform="translate(335.107422 0)"/>
      <use xlink:href="#DejaVuSans-74" transform="translate(362.890625 0)"/>
      <use xlink:href="#DejaVuSans-69" transform="translate(402.099609 0)"/>
      <use xlink:href="#DejaVuSans-61" transform="translate(429.882812 0)"/>
      <use xlink:href="#DejaVuSans-6c" transform="translate(491.162109 0)"/>
      <use xlink:href="#DejaVuSans-20" transform="translate(518.945312 0)"/>
      <use xlink:href="#DejaVuSans-76" transform="translate(550.732422 0)"/>
      <use xlink:href="#DejaVuSans-61" transform="translate(609.912109 0)"/>
      <use xlink:href="#DejaVuSans-6c" transform="translate(671.191406 0)"/>
      <use xlink:href="#DejaVuSans-75" transform="translate(698.974609 0)"/>
      <use xlink:href="#DejaVuSans-65" transform="translate(762.353516 0)"/>
      <use xlink:href="#DejaVuSans-73" transform="translate(823.876953 0)"/>
     </g>
    </g>
    <g id="line2d_18">
     <path d="M 100.8 120.065625 
L 112.8 120.065625 
L 124.8 120.065625 
" style="fill: none; stroke-dasharray: 5.55,2.4; stroke-dashoffset: 0; stroke: #ffff00; stroke-width: 1.5"/>
    </g>
    <g id="text_25">
     <!-- dalmatian_granite_slab -->
     <g transform="translate(134.4 124.265625) scale(0.12 -0.12)">
      <defs>
       <path id="DejaVuSans-5f" d="M 3263 -1063 
L 3263 -1509 
L -63 -1509 
L -63 -1063 
L 3263 -1063 
z
" transform="scale(0.015625)"/>
       <path id="DejaVuSans-67" d="M 2906 1791 
Q 2906 2416 2648 2759 
Q 2391 3103 1925 3103 
Q 1463 3103 1205 2759 
Q 947 2416 947 1791 
Q 947 1169 1205 825 
Q 1463 481 1925 481 
Q 2391 481 2648 825 
Q 2906 1169 2906 1791 
z
M 3481 434 
Q 3481 -459 3084 -895 
Q 2688 -1331 1869 -1331 
Q 1566 -1331 1297 -1286 
Q 1028 -1241 775 -1147 
L 775 -588 
Q 1028 -725 1275 -790 
Q 1522 -856 1778 -856 
Q 2344 -856 2625 -561 
Q 2906 -266 2906 331 
L 2906 616 
Q 2728 306 2450 153 
Q 2172 0 1784 0 
Q 1141 0 747 490 
Q 353 981 353 1791 
Q 353 2603 747 3093 
Q 1141 3584 1784 3584 
Q 2172 3584 2450 3431 
Q 2728 3278 2906 2969 
L 2906 3500 
L 3481 3500 
L 3481 434 
z
" transform="scale(0.015625)"/>
      </defs>
      <use xlink:href="#DejaVuSans-64"/>
      <use xlink:href="#DejaVuSans-61" transform="translate(63.476562 0)"/>
      <use xlink:href="#DejaVuSans-6c" transform="translate(124.755859 0)"/>
      <use xlink:href="#DejaVuSans-6d" transform="translate(152.539062 0)"/>
      <use xlink:href="#DejaVuSans-61" transform="translate(249.951172 0)"/>
      <use xlink:href="#DejaVuSans-74" transform="translate(311.230469 0)"/>
      <use xlink:href="#DejaVuSans-69" transform="translate(350.439453 0)"/>
      <use xlink:href="#DejaVuSans-61" transform="translate(378.222656 0)"/>
      <use xlink:href="#DejaVuSans-6e" transform="translate(439.501953 0)"/>
      <use xlink:href="#DejaVuSans-5f" transform="translate(502.880859 0)"/>
      <use xlink:href="#DejaVuSans-67" transform="translate(552.880859 0)"/>
      <use xlink:href="#DejaVuSans-72" transform="translate(616.357422 0)"/>
      <use xlink:href="#DejaVuSans-61" transform="translate(657.470703 0)"/>
      <use xlink:href="#DejaVuSans-6e" transform="translate(718.75 0)"/>
      <use xlink:href="#DejaVuSans-69" transform="translate(782.128906 0)"/>
      <use xlink:href="#DejaVuSans-74" transform="translate(809.912109 0)"/>
      <use xlink:href="#DejaVuSans-65" transform="translate(849.121094 0)"/>
      <use xlink:href="#DejaVuSans-5f" transform="translate(910.644531 0)"/>
      <use xlink:href="#DejaVuSans-73" transform="translate(960.644531 0)"/>
      <use xlink:href="#DejaVuSans-6c" transform="translate(1012.744141 0)"/>
      <use xlink:href="#DejaVuSans-61" transform="translate(1040.527344 0)"/>
      <use xlink:href="#DejaVuSans-62" transform="translate(1101.806641 0)"/>
     </g>
    </g>
   </g>
   <g id="line2d_19">
    <path d="M 119.974891 483.52207 
L 129.454136 475.581993 
L 138.930014 465.255895 
L 148.404013 453.959193 
L 157.874879 442.51432 
L 167.34688 431.152965 
L 176.819071 422.365241 
L 186.28792 415.556113 
L 195.756129 408.186081 
L 205.221521 403.076314 
L 214.687701 397.772341 
L 224.155819 387.752194 
L 233.620093 376.163028 
L 243.085295 364.765972 
L 252.552792 356.007895 
L 262.017518 345.96448 
L 271.480791 335.281709 
L 280.950454 320.114508 
L 290.417933 308.127453 
L 299.878157 299.040592 
L 309.341875 289.963676 
L 318.812302 274.406056 
L 328.2761 265.478023 
L 337.742119 256.879042 
L 347.208219 248.490898 
L 356.667421 240.989175 
L 366.136679 235.286771 
L 375.605449 229.254837 
L 385.071862 225.663616 
L 394.53528 220.011805 
L 403.99665 213.610569 
L 413.458234 206.762631 
L 422.923953 200.623635 
L 432.389719 194.330517 
L 441.852294 186.084743 
L 451.3187 179.864998 
L 460.787631 172.307338 
L 470.248052 155.183495 
L 479.709971 138.538617 
L 489.173944 130.966688 
L 498.641648 125.990692 
L 508.115114 124.083532 
L 517.574495 121.150938 
L 527.033837 117.116589 
L 536.496927 113.739686 
L 545.956193 110.971564 
L 555.416381 102.741239 
L 564.882964 101.369249 
L 574.349373 99.22731 
L 583.822091 91.69008 
L 593.294939 97.950243 
L 602.748146 93.256147 
L 612.202447 92.689453 
L 621.6661 89.28 
" clip-path="url(#p7e15bb701b)" style="fill: none; stroke-dasharray: 5.55,2.4; stroke-dashoffset: 0; stroke: #ffff00; stroke-width: 1.5"/>
   </g>
  </g>
 </g>
 <defs>
  <clipPath id="p7e15bb701b">
   <rect x="90" y="69.12" width="558" height="443.52"/>
  </clipPath>
 </defs>
</svg>
