<?xml version="1.0" encoding="utf-8" standalone="no"?>
<!DOCTYPE svg PUBLIC "-//W3C//DTD SVG 1.1//EN"
  "http://www.w3.org/Graphics/SVG/1.1/DTD/svg11.dtd">
<svg xmlns:xlink="http://www.w3.org/1999/xlink" width="460.8pt" height="345.6pt" viewBox="0 0 460.8 345.6" xmlns="http://www.w3.org/2000/svg" version="1.1">
 <metadata>
  <rdf:RDF xmlns:dc="http://purl.org/dc/elements/1.1/" xmlns:cc="http://creativecommons.org/ns#" xmlns:rdf="http://www.w3.org/1999/02/22-rdf-syntax-ns#">
   <cc:Work>
    <dc:type rdf:resource="http://purl.org/dc/dcmitype/StillImage"/>
    <dc:date>2025-11-19T16:37:18.414734</dc:date>
    <dc:format>image/svg+xml</dc:format>
    <dc:creator>
     <cc:Agent>
      <dc:title>Matplotlib v3.10.7, https://matplotlib.org/</dc:title>
     </cc:Agent>
    </dc:creator>
   </cc:Work>
  </rdf:RDF>
 </metadata>
 <defs>
  <style type="text/css">*{stroke-linejoin: round; stroke-linecap: butt}</style>
 </defs>
 <g id="figure_1">
  <g id="patch_1">
   <path d="M 0 345.6 
L 460.8 345.6 
L 460.8 0 
L 0 0 
z
" style="fill: #ffffff"/>
  </g>
  <g id="axes_1">
   <g id="patch_2">
    <path d="M 57.6 307.584 
L 414.72 307.584 
L 414.72 41.472 
L 57.6 41.472 
z
" style="fill: #ffffff"/>
   </g>
   <g id="matplotlib.axis_1">
    <g id="xtick_1">
     <g id="line2d_1">
      <defs>
       <path id="me2055c330d" d="M 0 0 
L 0 3.5 
" style="stroke: #000000; stroke-width: 0.8"/>
      </defs>
      <g>
       <use xlink:href="#me2055c330d" x="120.527343" y="307.584" style="stroke: #000000; stroke-width: 0.8"/>
      </g>
     </g>
     <g id="text_1">
      <!-- 0.4 -->
      <g transform="translate(109.395155 325.221812) scale(0.14 -0.14)">
       <defs>
        <path id="DejaVuSans-30" d="M 2034 4250 
Q 1547 4250 1301 3770 
Q 1056 3291 1056 2328 
Q 1056 1369 1301 889 
Q 1547 409 2034 409 
Q 2525 409 2770 889 
Q 3016 1369 3016 2328 
Q 3016 3291 2770 3770 
Q 2525 4250 2034 4250 
z
M 2034 4750 
Q 2819 4750 3233 4129 
Q 3647 3509 3647 2328 
Q 3647 1150 3233 529 
Q 2819 -91 2034 -91 
Q 1250 -91 836 529 
Q 422 1150 422 2328 
Q 422 3509 836 4129 
Q 1250 4750 2034 4750 
z
" transform="scale(0.015625)"/>
        <path id="DejaVuSans-2e" d="M 684 794 
L 1344 794 
L 1344 0 
L 684 0 
L 684 794 
z
" transform="scale(0.015625)"/>
        <path id="DejaVuSans-34" d="M 2419 4116 
L 825 1625 
L 2419 1625 
L 2419 4116 
z
M 2253 4666 
L 3047 4666 
L 3047 1625 
L 3713 1625 
L 3713 1100 
L 3047 1100 
L 3047 0 
L 2419 0 
L 2419 1100 
L 313 1100 
L 313 1709 
L 2253 4666 
z
" transform="scale(0.015625)"/>
       </defs>
       <use xlink:href="#DejaVuSans-30"/>
       <use xlink:href="#DejaVuSans-2e" transform="translate(63.623047 0)"/>
       <use xlink:href="#DejaVuSans-34" transform="translate(95.410156 0)"/>
      </g>
     </g>
    </g>
    <g id="xtick_2">
     <g id="line2d_2">
      <g>
       <use xlink:href="#me2055c330d" x="189.249689" y="307.584" style="stroke: #000000; stroke-width: 0.8"/>
      </g>
     </g>
     <g id="text_2">
      <!-- 0.6 -->
      <g transform="translate(178.117502 325.221812) scale(0.14 -0.14)">
       <defs>
        <path id="DejaVuSans-36" d="M 2113 2584 
Q 1688 2584 1439 2293 
Q 1191 2003 1191 1497 
Q 1191 994 1439 701 
Q 1688 409 2113 409 
Q 2538 409 2786 701 
Q 3034 994 3034 1497 
Q 3034 2003 2786 2293 
Q 2538 2584 2113 2584 
z
M 3366 4563 
L 3366 3988 
Q 3128 4100 2886 4159 
Q 2644 4219 2406 4219 
Q 1781 4219 1451 3797 
Q 1122 3375 1075 2522 
Q 1259 2794 1537 2939 
Q 1816 3084 2150 3084 
Q 2853 3084 3261 2657 
Q 3669 2231 3669 1497 
Q 3669 778 3244 343 
Q 2819 -91 2113 -91 
Q 1303 -91 875 529 
Q 447 1150 447 2328 
Q 447 3434 972 4092 
Q 1497 4750 2381 4750 
Q 2619 4750 2861 4703 
Q 3103 4656 3366 4563 
z
" transform="scale(0.015625)"/>
       </defs>
       <use xlink:href="#DejaVuSans-30"/>
       <use xlink:href="#DejaVuSans-2e" transform="translate(63.623047 0)"/>
       <use xlink:href="#DejaVuSans-36" transform="translate(95.410156 0)"/>
      </g>
     </g>
    </g>
    <g id="xtick_3">
     <g id="line2d_3">
      <g>
       <use xlink:href="#me2055c330d" x="257.972036" y="307.584" style="stroke: #000000; stroke-width: 0.8"/>
      </g>
     </g>
     <g id="text_3">
      <!-- 0.8 -->
      <g transform="translate(246.839849 325.221812) scale(0.14 -0.14)">
       <defs>
        <path id="DejaVuSans-38" d="M 2034 2216 
Q 1584 2216 1326 1975 
Q 1069 1734 1069 1313 
Q 1069 891 1326 650 
Q 1584 409 2034 409 
Q 2484 409 2743 651 
Q 3003 894 3003 1313 
Q 3003 1734 2745 1975 
Q 2488 2216 2034 2216 
z
M 1403 2484 
Q 997 2584 770 2862 
Q 544 3141 544 3541 
Q 544 4100 942 4425 
Q 1341 4750 2034 4750 
Q 2731 4750 3128 4425 
Q 3525 4100 3525 3541 
Q 3525 3141 3298 2862 
Q 3072 2584 2669 2484 
Q 3125 2378 3379 2068 
Q 3634 1759 3634 1313 
Q 3634 634 3220 271 
Q 2806 -91 2034 -91 
Q 1263 -91 848 271 
Q 434 634 434 1313 
Q 434 1759 690 2068 
Q 947 2378 1403 2484 
z
M 1172 3481 
Q 1172 3119 1398 2916 
Q 1625 2713 2034 2713 
Q 2441 2713 2670 2916 
Q 2900 3119 2900 3481 
Q 2900 3844 2670 4047 
Q 2441 4250 2034 4250 
Q 1625 4250 1398 4047 
Q 1172 3844 1172 3481 
z
" transform="scale(0.015625)"/>
       </defs>
       <use xlink:href="#DejaVuSans-30"/>
       <use xlink:href="#DejaVuSans-2e" transform="translate(63.623047 0)"/>
       <use xlink:href="#DejaVuSans-38" transform="translate(95.410156 0)"/>
      </g>
     </g>
    </g>
    <g id="xtick_4">
     <g id="line2d_4">
      <g>
       <use xlink:href="#me2055c330d" x="326.694383" y="307.584" style="stroke: #000000; stroke-width: 0.8"/>
      </g>
     </g>
     <g id="text_4">
      <!-- 1.0 -->
      <g transform="translate(315.562195 325.221812) scale(0.14 -0.14)">
       <defs>
        <path id="DejaVuSans-31" d="M 794 531 
L 1825 531 
L 1825 4091 
L 703 3866 
L 703 4441 
L 1819 4666 
L 2450 4666 
L 2450 531 
L 3481 531 
L 3481 0 
L 794 0 
L 794 531 
z
" transform="scale(0.015625)"/>
       </defs>
       <use xlink:href="#DejaVuSans-31"/>
       <use xlink:href="#DejaVuSans-2e" transform="translate(63.623047 0)"/>
       <use xlink:href="#DejaVuSans-30" transform="translate(95.410156 0)"/>
      </g>
     </g>
    </g>
    <g id="xtick_5">
     <g id="line2d_5">
      <g>
       <use xlink:href="#me2055c330d" x="395.41673" y="307.584" style="stroke: #000000; stroke-width: 0.8"/>
      </g>
     </g>
     <g id="text_5">
      <!-- 1.2 -->
      <g transform="translate(384.284542 325.221812) scale(0.14 -0.14)">
       <defs>
        <path id="DejaVuSans-32" d="M 1228 531 
L 3431 531 
L 3431 0 
L 469 0 
L 469 531 
Q 828 903 1448 1529 
Q 2069 2156 2228 2338 
Q 2531 2678 2651 2914 
Q 2772 3150 2772 3378 
Q 2772 3750 2511 3984 
Q 2250 4219 1831 4219 
Q 1534 4219 1204 4116 
Q 875 4013 500 3803 
L 500 4441 
Q 881 4594 1212 4672 
Q 1544 4750 1819 4750 
Q 2544 4750 2975 4387 
Q 3406 4025 3406 3419 
Q 3406 3131 3298 2873 
Q 3191 2616 2906 2266 
Q 2828 2175 2409 1742 
Q 1991 1309 1228 531 
z
" transform="scale(0.015625)"/>
       </defs>
       <use xlink:href="#DejaVuSans-31"/>
       <use xlink:href="#DejaVuSans-2e" transform="translate(63.623047 0)"/>
       <use xlink:href="#DejaVuSans-32" transform="translate(95.410156 0)"/>
      </g>
     </g>
    </g>
    <g id="text_6">
     <!-- BJD - 2459370.807543 [d] -->
     <g transform="translate(144.673281 342.771187) scale(0.14 -0.14)">
      <defs>
       <path id="DejaVuSans-42" d="M 1259 2228 
L 1259 519 
L 2272 519 
Q 2781 519 3026 730 
Q 3272 941 3272 1375 
Q 3272 1813 3026 2020 
Q 2781 2228 2272 2228 
L 1259 2228 
z
M 1259 4147 
L 1259 2741 
L 2194 2741 
Q 2656 2741 2882 2914 
Q 3109 3088 3109 3444 
Q 3109 3797 2882 3972 
Q 2656 4147 2194 4147 
L 1259 4147 
z
M 628 4666 
L 2241 4666 
Q 2963 4666 3353 4366 
Q 3744 4066 3744 3513 
Q 3744 3084 3544 2831 
Q 3344 2578 2956 2516 
Q 3422 2416 3680 2098 
Q 3938 1781 3938 1306 
Q 3938 681 3513 340 
Q 3088 0 2303 0 
L 628 0 
L 628 4666 
z
" transform="scale(0.015625)"/>
       <path id="DejaVuSans-4a" d="M 628 4666 
L 1259 4666 
L 1259 325 
Q 1259 -519 939 -900 
Q 619 -1281 -91 -1281 
L -331 -1281 
L -331 -750 
L -134 -750 
Q 284 -750 456 -515 
Q 628 -281 628 325 
L 628 4666 
z
" transform="scale(0.015625)"/>
       <path id="DejaVuSans-44" d="M 1259 4147 
L 1259 519 
L 2022 519 
Q 2988 519 3436 956 
Q 3884 1394 3884 2338 
Q 3884 3275 3436 3711 
Q 2988 4147 2022 4147 
L 1259 4147 
z
M 628 4666 
L 1925 4666 
Q 3281 4666 3915 4102 
Q 4550 3538 4550 2338 
Q 4550 1131 3912 565 
Q 3275 0 1925 0 
L 628 0 
L 628 4666 
z
" transform="scale(0.015625)"/>
       <path id="DejaVuSans-20" transform="scale(0.015625)"/>
       <path id="DejaVuSans-2d" d="M 313 2009 
L 1997 2009 
L 1997 1497 
L 313 1497 
L 313 2009 
z
" transform="scale(0.015625)"/>
       <path id="DejaVuSans-35" d="M 691 4666 
L 3169 4666 
L 3169 4134 
L 1269 4134 
L 1269 2991 
Q 1406 3038 1543 3061 
Q 1681 3084 1819 3084 
Q 2600 3084 3056 2656 
Q 3513 2228 3513 1497 
Q 3513 744 3044 326 
Q 2575 -91 1722 -91 
Q 1428 -91 1123 -41 
Q 819 9 494 109 
L 494 744 
Q 775 591 1075 516 
Q 1375 441 1709 441 
Q 2250 441 2565 725 
Q 2881 1009 2881 1497 
Q 2881 1984 2565 2268 
Q 2250 2553 1709 2553 
Q 1456 2553 1204 2497 
Q 953 2441 691 2322 
L 691 4666 
z
" transform="scale(0.015625)"/>
       <path id="DejaVuSans-39" d="M 703 97 
L 703 672 
Q 941 559 1184 500 
Q 1428 441 1663 441 
Q 2288 441 2617 861 
Q 2947 1281 2994 2138 
Q 2813 1869 2534 1725 
Q 2256 1581 1919 1581 
Q 1219 1581 811 2004 
Q 403 2428 403 3163 
Q 403 3881 828 4315 
Q 1253 4750 1959 4750 
Q 2769 4750 3195 4129 
Q 3622 3509 3622 2328 
Q 3622 1225 3098 567 
Q 2575 -91 1691 -91 
Q 1453 -91 1209 -44 
Q 966 3 703 97 
z
M 1959 2075 
Q 2384 2075 2632 2365 
Q 2881 2656 2881 3163 
Q 2881 3666 2632 3958 
Q 2384 4250 1959 4250 
Q 1534 4250 1286 3958 
Q 1038 3666 1038 3163 
Q 1038 2656 1286 2365 
Q 1534 2075 1959 2075 
z
" transform="scale(0.015625)"/>
       <path id="DejaVuSans-33" d="M 2597 2516 
Q 3050 2419 3304 2112 
Q 3559 1806 3559 1356 
Q 3559 666 3084 287 
Q 2609 -91 1734 -91 
Q 1441 -91 1130 -33 
Q 819 25 488 141 
L 488 750 
Q 750 597 1062 519 
Q 1375 441 1716 441 
Q 2309 441 2620 675 
Q 2931 909 2931 1356 
Q 2931 1769 2642 2001 
Q 2353 2234 1838 2234 
L 1294 2234 
L 1294 2753 
L 1863 2753 
Q 2328 2753 2575 2939 
Q 2822 3125 2822 3475 
Q 2822 3834 2567 4026 
Q 2313 4219 1838 4219 
Q 1578 4219 1281 4162 
Q 984 4106 628 3988 
L 628 4550 
Q 988 4650 1302 4700 
Q 1616 4750 1894 4750 
Q 2613 4750 3031 4423 
Q 3450 4097 3450 3541 
Q 3450 3153 3228 2886 
Q 3006 2619 2597 2516 
z
" transform="scale(0.015625)"/>
       <path id="DejaVuSans-37" d="M 525 4666 
L 3525 4666 
L 3525 4397 
L 1831 0 
L 1172 0 
L 2766 4134 
L 525 4134 
L 525 4666 
z
" transform="scale(0.015625)"/>
       <path id="DejaVuSans-5b" d="M 550 4863 
L 1875 4863 
L 1875 4416 
L 1125 4416 
L 1125 -397 
L 1875 -397 
L 1875 -844 
L 550 -844 
L 550 4863 
z
" transform="scale(0.015625)"/>
       <path id="DejaVuSans-64" d="M 2906 2969 
L 2906 4863 
L 3481 4863 
L 3481 0 
L 2906 0 
L 2906 525 
Q 2725 213 2448 61 
Q 2172 -91 1784 -91 
Q 1150 -91 751 415 
Q 353 922 353 1747 
Q 353 2572 751 3078 
Q 1150 3584 1784 3584 
Q 2172 3584 2448 3432 
Q 2725 3281 2906 2969 
z
M 947 1747 
Q 947 1113 1208 752 
Q 1469 391 1925 391 
Q 2381 391 2643 752 
Q 2906 1113 2906 1747 
Q 2906 2381 2643 2742 
Q 2381 3103 1925 3103 
Q 1469 3103 1208 2742 
Q 947 2381 947 1747 
z
" transform="scale(0.015625)"/>
       <path id="DejaVuSans-5d" d="M 1947 4863 
L 1947 -844 
L 622 -844 
L 622 -397 
L 1369 -397 
L 1369 4416 
L 622 4416 
L 622 4863 
L 1947 4863 
z
" transform="scale(0.015625)"/>
      </defs>
      <use xlink:href="#DejaVuSans-42"/>
      <use xlink:href="#DejaVuSans-4a" transform="translate(68.603516 0)"/>
      <use xlink:href="#DejaVuSans-44" transform="translate(98.095703 0)"/>
      <use xlink:href="#DejaVuSans-20" transform="translate(175.097656 0)"/>
      <use xlink:href="#DejaVuSans-2d" transform="translate(206.884766 0)"/>
      <use xlink:href="#DejaVuSans-20" transform="translate(242.96875 0)"/>
      <use xlink:href="#DejaVuSans-32" transform="translate(274.755859 0)"/>
      <use xlink:href="#DejaVuSans-34" transform="translate(338.378906 0)"/>
      <use xlink:href="#DejaVuSans-35" transform="translate(402.001953 0)"/>
      <use xlink:href="#DejaVuSans-39" transform="translate(465.625 0)"/>
      <use xlink:href="#DejaVuSans-33" transform="translate(529.248047 0)"/>
      <use xlink:href="#DejaVuSans-37" transform="translate(592.871094 0)"/>
      <use xlink:href="#DejaVuSans-30" transform="translate(656.494141 0)"/>
      <use xlink:href="#DejaVuSans-2e" transform="translate(720.117188 0)"/>
      <use xlink:href="#DejaVuSans-38" transform="translate(751.904297 0)"/>
      <use xlink:href="#DejaVuSans-30" transform="translate(815.527344 0)"/>
      <use xlink:href="#DejaVuSans-37" transform="translate(879.150391 0)"/>
      <use xlink:href="#DejaVuSans-35" transform="translate(942.773438 0)"/>
      <use xlink:href="#DejaVuSans-34" transform="translate(1006.396484 0)"/>
      <use xlink:href="#DejaVuSans-33" transform="translate(1070.019531 0)"/>
      <use xlink:href="#DejaVuSans-20" transform="translate(1133.642578 0)"/>
      <use xlink:href="#DejaVuSans-5b" transform="translate(1165.429688 0)"/>
      <use xlink:href="#DejaVuSans-64" transform="translate(1204.443359 0)"/>
      <use xlink:href="#DejaVuSans-5d" transform="translate(1267.919922 0)"/>
     </g>
    </g>
   </g>
   <g id="matplotlib.axis_2">
    <g id="ytick_1">
     <g id="line2d_6">
      <defs>
       <path id="m22b1740375" d="M 0 0 
L -3.5 0 
" style="stroke: #000000; stroke-width: 0.8"/>
      </defs>
      <g>
       <use xlink:href="#m22b1740375" x="57.6" y="268.496151" style="stroke: #000000; stroke-width: 0.8"/>
      </g>
     </g>
     <g id="text_7">
      <!-- −0.0006 -->
      <g transform="translate(-10.118438 273.815057) scale(0.14 -0.14)">
       <defs>
        <path id="DejaVuSans-2212" d="M 678 2272 
L 4684 2272 
L 4684 1741 
L 678 1741 
L 678 2272 
z
" transform="scale(0.015625)"/>
       </defs>
       <use xlink:href="#DejaVuSans-2212"/>
       <use xlink:href="#DejaVuSans-30" transform="translate(83.789062 0)"/>
       <use xlink:href="#DejaVuSans-2e" transform="translate(147.412109 0)"/>
       <use xlink:href="#DejaVuSans-30" transform="translate(179.199219 0)"/>
       <use xlink:href="#DejaVuSans-30" transform="translate(242.822266 0)"/>
       <use xlink:href="#DejaVuSans-30" transform="translate(306.445312 0)"/>
       <use xlink:href="#DejaVuSans-36" transform="translate(370.068359 0)"/>
      </g>
     </g>
    </g>
    <g id="ytick_2">
     <g id="line2d_7">
      <g>
       <use xlink:href="#m22b1740375" x="57.6" y="224.367666" style="stroke: #000000; stroke-width: 0.8"/>
      </g>
     </g>
     <g id="text_8">
      <!-- −0.0004 -->
      <g transform="translate(-10.118438 229.686572) scale(0.14 -0.14)">
       <use xlink:href="#DejaVuSans-2212"/>
       <use xlink:href="#DejaVuSans-30" transform="translate(83.789062 0)"/>
       <use xlink:href="#DejaVuSans-2e" transform="translate(147.412109 0)"/>
       <use xlink:href="#DejaVuSans-30" transform="translate(179.199219 0)"/>
       <use xlink:href="#DejaVuSans-30" transform="translate(242.822266 0)"/>
       <use xlink:href="#DejaVuSans-30" transform="translate(306.445312 0)"/>
       <use xlink:href="#DejaVuSans-34" transform="translate(370.068359 0)"/>
      </g>
     </g>
    </g>
    <g id="ytick_3">
     <g id="line2d_8">
      <g>
       <use xlink:href="#m22b1740375" x="57.6" y="180.239181" style="stroke: #000000; stroke-width: 0.8"/>
      </g>
     </g>
     <g id="text_9">
      <!-- −0.0002 -->
      <g transform="translate(-10.118438 185.558088) scale(0.14 -0.14)">
       <use xlink:href="#DejaVuSans-2212"/>
       <use xlink:href="#DejaVuSans-30" transform="translate(83.789062 0)"/>
       <use xlink:href="#DejaVuSans-2e" transform="translate(147.412109 0)"/>
       <use xlink:href="#DejaVuSans-30" transform="translate(179.199219 0)"/>
       <use xlink:href="#DejaVuSans-30" transform="translate(242.822266 0)"/>
       <use xlink:href="#DejaVuSans-30" transform="translate(306.445312 0)"/>
       <use xlink:href="#DejaVuSans-32" transform="translate(370.068359 0)"/>
      </g>
     </g>
    </g>
    <g id="ytick_4">
     <g id="line2d_9">
      <g>
       <use xlink:href="#m22b1740375" x="57.6" y="136.110696" style="stroke: #000000; stroke-width: 0.8"/>
      </g>
     </g>
     <g id="text_10">
      <!-- 0.0000 -->
      <g transform="translate(1.613125 141.429603) scale(0.14 -0.14)">
       <use xlink:href="#DejaVuSans-30"/>
       <use xlink:href="#DejaVuSans-2e" transform="translate(63.623047 0)"/>
       <use xlink:href="#DejaVuSans-30" transform="translate(95.410156 0)"/>
       <use xlink:href="#DejaVuSans-30" transform="translate(159.033203 0)"/>
       <use xlink:href="#DejaVuSans-30" transform="translate(222.65625 0)"/>
       <use xlink:href="#DejaVuSans-30" transform="translate(286.279297 0)"/>
      </g>
     </g>
    </g>
    <g id="ytick_5">
     <g id="line2d_10">
      <g>
       <use xlink:href="#m22b1740375" x="57.6" y="91.982212" style="stroke: #000000; stroke-width: 0.8"/>
      </g>
     </g>
     <g id="text_11">
      <!-- 0.0002 -->
      <g transform="translate(1.613125 97.301118) scale(0.14 -0.14)">
       <use xlink:href="#DejaVuSans-30"/>
       <use xlink:href="#DejaVuSans-2e" transform="translate(63.623047 0)"/>
       <use xlink:href="#DejaVuSans-30" transform="translate(95.410156 0)"/>
       <use xlink:href="#DejaVuSans-30" transform="translate(159.033203 0)"/>
       <use xlink:href="#DejaVuSans-30" transform="translate(222.65625 0)"/>
       <use xlink:href="#DejaVuSans-32" transform="translate(286.279297 0)"/>
      </g>
     </g>
    </g>
    <g id="ytick_6">
     <g id="line2d_11">
      <g>
       <use xlink:href="#m22b1740375" x="57.6" y="47.853727" style="stroke: #000000; stroke-width: 0.8"/>
      </g>
     </g>
     <g id="text_12">
      <!-- 0.0004 -->
      <g transform="translate(1.613125 53.172633) scale(0.14 -0.14)">
       <use xlink:href="#DejaVuSans-30"/>
       <use xlink:href="#DejaVuSans-2e" transform="translate(63.623047 0)"/>
       <use xlink:href="#DejaVuSans-30" transform="translate(95.410156 0)"/>
       <use xlink:href="#DejaVuSans-30" transform="translate(159.033203 0)"/>
       <use xlink:href="#DejaVuSans-30" transform="translate(222.65625 0)"/>
       <use xlink:href="#DejaVuSans-34" transform="translate(286.279297 0)"/>
      </g>
     </g>
    </g>
    <g id="text_13">
     <!-- $(F_p + F_{\bigstar})/F_{\bigstar}$ -->
     <g transform="translate(-18.458438 215.548) rotate(-90) scale(0.14 -0.14)">
      <defs>
       <path id="DejaVuSans-28" d="M 1984 4856 
Q 1566 4138 1362 3434 
Q 1159 2731 1159 2009 
Q 1159 1288 1364 580 
Q 1569 -128 1984 -844 
L 1484 -844 
Q 1016 -109 783 600 
Q 550 1309 550 2009 
Q 550 2706 781 3412 
Q 1013 4119 1484 4856 
L 1984 4856 
z
" transform="scale(0.015625)"/>
       <path id="DejaVuSans-Oblique-46" d="M 1081 4666 
L 3756 4666 
L 3653 4134 
L 1606 4134 
L 1338 2759 
L 3188 2759 
L 3084 2228 
L 1234 2228 
L 800 0 
L 172 0 
L 1081 4666 
z
" transform="scale(0.015625)"/>
       <path id="DejaVuSans-Oblique-70" d="M 3175 2156 
Q 3175 2616 2975 2859 
Q 2775 3103 2400 3103 
Q 2144 3103 1911 2972 
Q 1678 2841 1497 2591 
Q 1319 2344 1212 1994 
Q 1106 1644 1106 1300 
Q 1106 863 1306 627 
Q 1506 391 1875 391 
Q 2147 391 2380 519 
Q 2613 647 2778 891 
Q 2956 1147 3065 1494 
Q 3175 1841 3175 2156 
z
M 1394 2969 
Q 1625 3272 1939 3428 
Q 2253 3584 2638 3584 
Q 3175 3584 3472 3232 
Q 3769 2881 3769 2247 
Q 3769 1728 3584 1258 
Q 3400 788 3053 416 
Q 2822 169 2531 39 
Q 2241 -91 1919 -91 
Q 1547 -91 1294 64 
Q 1041 219 916 525 
L 556 -1331 
L -19 -1331 
L 922 3500 
L 1497 3500 
L 1394 2969 
z
" transform="scale(0.015625)"/>
       <path id="DejaVuSans-2b" d="M 2944 4013 
L 2944 2272 
L 4684 2272 
L 4684 1741 
L 2944 1741 
L 2944 0 
L 2419 0 
L 2419 1741 
L 678 1741 
L 678 2272 
L 2419 2272 
L 2419 4013 
L 2944 4013 
z
" transform="scale(0.015625)"/>
       <path id="DejaVuSans-2605" d="M 416 2850 
L 2288 2850 
L 2869 4628 
L 3453 2850 
L 5322 2850 
L 3809 1747 
L 4391 -28 
L 2869 1072 
L 1350 -28 
L 1928 1747 
L 416 2850 
z
" transform="scale(0.015625)"/>
       <path id="DejaVuSans-29" d="M 513 4856 
L 1013 4856 
Q 1481 4119 1714 3412 
Q 1947 2706 1947 2009 
Q 1947 1309 1714 600 
Q 1481 -109 1013 -844 
L 513 -844 
Q 928 -128 1133 580 
Q 1338 1288 1338 2009 
Q 1338 2731 1133 3434 
Q 928 4138 513 4856 
z
" transform="scale(0.015625)"/>
       <path id="DejaVuSans-2f" d="M 1625 4666 
L 2156 4666 
L 531 -594 
L 0 -594 
L 1625 4666 
z
" transform="scale(0.015625)"/>
      </defs>
      <use xlink:href="#DejaVuSans-28" transform="translate(0 0.125)"/>
      <use xlink:href="#DejaVuSans-Oblique-46" transform="translate(39.013672 0.125)"/>
      <use xlink:href="#DejaVuSans-Oblique-70" transform="translate(96.533203 -16.28125) scale(0.7)"/>
      <use xlink:href="#DejaVuSans-2b" transform="translate(163.183594 0.125)"/>
      <use xlink:href="#DejaVuSans-Oblique-46" transform="translate(266.455078 0.125)"/>
      <use xlink:href="#DejaVuSans-2605" transform="translate(323.974609 -16.28125) scale(0.7)"/>
      <use xlink:href="#DejaVuSans-29" transform="translate(389.462891 0.125)"/>
      <use xlink:href="#DejaVuSans-2f" transform="translate(428.476562 0.125)"/>
      <use xlink:href="#DejaVuSans-Oblique-46" transform="translate(462.167969 0.125)"/>
      <use xlink:href="#DejaVuSans-2605" transform="translate(519.6875 -16.28125) scale(0.7)"/>
     </g>
    </g>
    <g id="text_14">
     <!-- +1 -->
     <g transform="translate(57.6 38.472) scale(0.14 -0.14)">
      <use xlink:href="#DejaVuSans-2b"/>
      <use xlink:href="#DejaVuSans-31" transform="translate(83.789062 0)"/>
     </g>
    </g>
   </g>
   <g id="patch_3">
    <path d="M 57.6 307.584 
L 57.6 41.472 
" style="fill: none; stroke: #000000; stroke-width: 0.8; stroke-linejoin: miter; stroke-linecap: square"/>
   </g>
   <g id="patch_4">
    <path d="M 414.72 307.584 
L 414.72 41.472 
" style="fill: none; stroke: #000000; stroke-width: 0.8; stroke-linejoin: miter; stroke-linecap: square"/>
   </g>
   <g id="patch_5">
    <path d="M 57.6 307.584 
L 414.72 307.584 
" style="fill: none; stroke: #000000; stroke-width: 0.8; stroke-linejoin: miter; stroke-linecap: square"/>
   </g>
   <g id="patch_6">
    <path d="M 57.6 41.472 
L 414.72 41.472 
" style="fill: none; stroke: #000000; stroke-width: 0.8; stroke-linejoin: miter; stroke-linecap: square"/>
   </g>
   <g id="LineCollection_1">
    <path d="M 75.55013 160.866001 
L 75.55013 105.95025 
" clip-path="url(#pb0ead8ecda)" style="fill: none; stroke: #ff8000; stroke-width: 1.5"/>
    <path d="M 78.986342 198.541689 
L 78.986342 143.625938 
" clip-path="url(#pb0ead8ecda)" style="fill: none; stroke: #ff8000; stroke-width: 1.5"/>
    <path d="M 82.422554 192.461042 
L 82.422554 137.545291 
" clip-path="url(#pb0ead8ecda)" style="fill: none; stroke: #ff8000; stroke-width: 1.5"/>
    <path d="M 85.858766 170.858494 
L 85.858766 115.942743 
" clip-path="url(#pb0ead8ecda)" style="fill: none; stroke: #ff8000; stroke-width: 1.5"/>
    <path d="M 89.294978 193.060657 
L 89.294978 138.144906 
" clip-path="url(#pb0ead8ecda)" style="fill: none; stroke: #ff8000; stroke-width: 1.5"/>
    <path d="M 92.73119 168.873455 
L 92.73119 113.957704 
" clip-path="url(#pb0ead8ecda)" style="fill: none; stroke: #ff8000; stroke-width: 1.5"/>
    <path d="M 96.167402 148.079368 
L 96.167402 93.163617 
" clip-path="url(#pb0ead8ecda)" style="fill: none; stroke: #ff8000; stroke-width: 1.5"/>
    <path d="M 99.603614 202.401397 
L 99.603614 147.485646 
" clip-path="url(#pb0ead8ecda)" style="fill: none; stroke: #ff8000; stroke-width: 1.5"/>
    <path d="M 103.039826 188.658726 
L 103.039826 133.742975 
" clip-path="url(#pb0ead8ecda)" style="fill: none; stroke: #ff8000; stroke-width: 1.5"/>
    <path d="M 106.476038 189.86922 
L 106.476038 134.953469 
" clip-path="url(#pb0ead8ecda)" style="fill: none; stroke: #ff8000; stroke-width: 1.5"/>
    <path d="M 109.91225 170.534903 
L 109.91225 115.619152 
" clip-path="url(#pb0ead8ecda)" style="fill: none; stroke: #ff8000; stroke-width: 1.5"/>
    <path d="M 113.348462 193.11926 
L 113.348462 138.203509 
" clip-path="url(#pb0ead8ecda)" style="fill: none; stroke: #ff8000; stroke-width: 1.5"/>
    <path d="M 116.784674 134.035728 
L 116.784674 79.119977 
" clip-path="url(#pb0ead8ecda)" style="fill: none; stroke: #ff8000; stroke-width: 1.5"/>
    <path d="M 120.220886 131.488903 
L 120.220886 76.573152 
" clip-path="url(#pb0ead8ecda)" style="fill: none; stroke: #ff8000; stroke-width: 1.5"/>
    <path d="M 123.656395 136.367752 
L 123.656395 81.440763 
" clip-path="url(#pb0ead8ecda)" style="fill: none; stroke: #ff8000; stroke-width: 1.5"/>
    <path d="M 127.091904 157.295035 
L 127.091904 102.379284 
" clip-path="url(#pb0ead8ecda)" style="fill: none; stroke: #ff8000; stroke-width: 1.5"/>
    <path d="M 130.528116 175.985154 
L 130.528116 121.069403 
" clip-path="url(#pb0ead8ecda)" style="fill: none; stroke: #ff8000; stroke-width: 1.5"/>
    <path d="M 133.964328 108.483751 
L 133.964328 53.568 
" clip-path="url(#pb0ead8ecda)" style="fill: none; stroke: #ff8000; stroke-width: 1.5"/>
    <path d="M 137.40054 216.616824 
L 137.40054 161.701073 
" clip-path="url(#pb0ead8ecda)" style="fill: none; stroke: #ff8000; stroke-width: 1.5"/>
    <path d="M 140.836752 201.130997 
L 140.836752 146.215246 
" clip-path="url(#pb0ead8ecda)" style="fill: none; stroke: #ff8000; stroke-width: 1.5"/>
    <path d="M 144.272964 137.972205 
L 144.272964 83.056454 
" clip-path="url(#pb0ead8ecda)" style="fill: none; stroke: #ff8000; stroke-width: 1.5"/>
    <path d="M 147.709176 156.514336 
L 147.709176 101.598585 
" clip-path="url(#pb0ead8ecda)" style="fill: none; stroke: #ff8000; stroke-width: 1.5"/>
    <path d="M 151.145388 149.417696 
L 151.145388 94.501945 
" clip-path="url(#pb0ead8ecda)" style="fill: none; stroke: #ff8000; stroke-width: 1.5"/>
    <path d="M 154.5816 137.35027 
L 154.5816 82.434519 
" clip-path="url(#pb0ead8ecda)" style="fill: none; stroke: #ff8000; stroke-width: 1.5"/>
    <path d="M 158.017812 137.241034 
L 158.017812 82.325283 
" clip-path="url(#pb0ead8ecda)" style="fill: none; stroke: #ff8000; stroke-width: 1.5"/>
    <path d="M 161.454024 175.491219 
L 161.454024 120.575468 
" clip-path="url(#pb0ead8ecda)" style="fill: none; stroke: #ff8000; stroke-width: 1.5"/>
    <path d="M 164.890236 186.84957 
L 164.890236 131.933819 
" clip-path="url(#pb0ead8ecda)" style="fill: none; stroke: #ff8000; stroke-width: 1.5"/>
    <path d="M 168.326448 208.451518 
L 168.326448 153.535767 
" clip-path="url(#pb0ead8ecda)" style="fill: none; stroke: #ff8000; stroke-width: 1.5"/>
    <path d="M 171.76266 177.549022 
L 171.76266 122.633271 
" clip-path="url(#pb0ead8ecda)" style="fill: none; stroke: #ff8000; stroke-width: 1.5"/>
    <path d="M 175.198169 175.936747 
L 175.198169 121.009757 
" clip-path="url(#pb0ead8ecda)" style="fill: none; stroke: #ff8000; stroke-width: 1.5"/>
    <path d="M 178.633678 153.784626 
L 178.633678 98.868875 
" clip-path="url(#pb0ead8ecda)" style="fill: none; stroke: #ff8000; stroke-width: 1.5"/>
    <path d="M 182.06989 178.903649 
L 182.06989 123.987898 
" clip-path="url(#pb0ead8ecda)" style="fill: none; stroke: #ff8000; stroke-width: 1.5"/>
    <path d="M 185.506102 137.636153 
L 185.506102 82.720402 
" clip-path="url(#pb0ead8ecda)" style="fill: none; stroke: #ff8000; stroke-width: 1.5"/>
    <path d="M 188.942314 147.410304 
L 188.942314 92.494553 
" clip-path="url(#pb0ead8ecda)" style="fill: none; stroke: #ff8000; stroke-width: 1.5"/>
    <path d="M 192.378526 161.646817 
L 192.378526 106.731066 
" clip-path="url(#pb0ead8ecda)" style="fill: none; stroke: #ff8000; stroke-width: 1.5"/>
    <path d="M 195.814738 186.599613 
L 195.814738 131.683862 
" clip-path="url(#pb0ead8ecda)" style="fill: none; stroke: #ff8000; stroke-width: 1.5"/>
    <path d="M 199.25095 197.399315 
L 199.25095 142.483564 
" clip-path="url(#pb0ead8ecda)" style="fill: none; stroke: #ff8000; stroke-width: 1.5"/>
    <path d="M 202.687162 146.909286 
L 202.687162 91.993535 
" clip-path="url(#pb0ead8ecda)" style="fill: none; stroke: #ff8000; stroke-width: 1.5"/>
    <path d="M 206.123374 181.509425 
L 206.123374 126.593674 
" clip-path="url(#pb0ead8ecda)" style="fill: none; stroke: #ff8000; stroke-width: 1.5"/>
    <path d="M 209.559586 199.516494 
L 209.559586 144.600743 
" clip-path="url(#pb0ead8ecda)" style="fill: none; stroke: #ff8000; stroke-width: 1.5"/>
    <path d="M 212.995798 115.344717 
L 212.995798 60.428966 
" clip-path="url(#pb0ead8ecda)" style="fill: none; stroke: #ff8000; stroke-width: 1.5"/>
    <path d="M 216.43201 211.767754 
L 216.43201 156.852003 
" clip-path="url(#pb0ead8ecda)" style="fill: none; stroke: #ff8000; stroke-width: 1.5"/>
    <path d="M 219.868222 169.748918 
L 219.868222 114.833167 
" clip-path="url(#pb0ead8ecda)" style="fill: none; stroke: #ff8000; stroke-width: 1.5"/>
    <path d="M 223.304434 191.227495 
L 223.304434 136.311744 
" clip-path="url(#pb0ead8ecda)" style="fill: none; stroke: #ff8000; stroke-width: 1.5"/>
    <path d="M 226.739943 262.706925 
L 226.739943 207.779935 
" clip-path="url(#pb0ead8ecda)" style="fill: none; stroke: #ff8000; stroke-width: 1.5"/>
    <path d="M 230.175452 242.319805 
L 230.175452 187.404054 
" clip-path="url(#pb0ead8ecda)" style="fill: none; stroke: #ff8000; stroke-width: 1.5"/>
    <path d="M 233.611664 268.508359 
L 233.611664 213.592608 
" clip-path="url(#pb0ead8ecda)" style="fill: none; stroke: #ff8000; stroke-width: 1.5"/>
    <path d="M 237.047876 236.356496 
L 237.047876 181.440745 
" clip-path="url(#pb0ead8ecda)" style="fill: none; stroke: #ff8000; stroke-width: 1.5"/>
    <path d="M 240.484088 295.488 
L 240.484088 240.572249 
" clip-path="url(#pb0ead8ecda)" style="fill: none; stroke: #ff8000; stroke-width: 1.5"/>
    <path d="M 243.9203 255.469754 
L 243.9203 200.554003 
" clip-path="url(#pb0ead8ecda)" style="fill: none; stroke: #ff8000; stroke-width: 1.5"/>
    <path d="M 247.356512 233.63394 
L 247.356512 178.718189 
" clip-path="url(#pb0ead8ecda)" style="fill: none; stroke: #ff8000; stroke-width: 1.5"/>
    <path d="M 250.792723 155.644119 
L 250.792723 100.728368 
" clip-path="url(#pb0ead8ecda)" style="fill: none; stroke: #ff8000; stroke-width: 1.5"/>
    <path d="M 254.228935 145.274744 
L 254.228935 90.358993 
" clip-path="url(#pb0ead8ecda)" style="fill: none; stroke: #ff8000; stroke-width: 1.5"/>
    <path d="M 257.665147 158.460948 
L 257.665147 103.545197 
" clip-path="url(#pb0ead8ecda)" style="fill: none; stroke: #ff8000; stroke-width: 1.5"/>
    <path d="M 261.101359 163.193235 
L 261.101359 108.277484 
" clip-path="url(#pb0ead8ecda)" style="fill: none; stroke: #ff8000; stroke-width: 1.5"/>
    <path d="M 264.537571 169.87324 
L 264.537571 114.957489 
" clip-path="url(#pb0ead8ecda)" style="fill: none; stroke: #ff8000; stroke-width: 1.5"/>
    <path d="M 267.973783 130.624832 
L 267.973783 75.709081 
" clip-path="url(#pb0ead8ecda)" style="fill: none; stroke: #ff8000; stroke-width: 1.5"/>
    <path d="M 271.409995 147.042031 
L 271.409995 92.12628 
" clip-path="url(#pb0ead8ecda)" style="fill: none; stroke: #ff8000; stroke-width: 1.5"/>
    <path d="M 274.846207 148.895832 
L 274.846207 93.980081 
" clip-path="url(#pb0ead8ecda)" style="fill: none; stroke: #ff8000; stroke-width: 1.5"/>
    <path d="M 278.281716 155.036994 
L 278.281716 100.110004 
" clip-path="url(#pb0ead8ecda)" style="fill: none; stroke: #ff8000; stroke-width: 1.5"/>
    <path d="M 281.717225 220.488438 
L 281.717225 165.572687 
" clip-path="url(#pb0ead8ecda)" style="fill: none; stroke: #ff8000; stroke-width: 1.5"/>
    <path d="M 285.153437 184.233982 
L 285.153437 129.318231 
" clip-path="url(#pb0ead8ecda)" style="fill: none; stroke: #ff8000; stroke-width: 1.5"/>
    <path d="M 288.589649 158.621887 
L 288.589649 103.706136 
" clip-path="url(#pb0ead8ecda)" style="fill: none; stroke: #ff8000; stroke-width: 1.5"/>
    <path d="M 292.025861 108.891845 
L 292.025861 53.976094 
" clip-path="url(#pb0ead8ecda)" style="fill: none; stroke: #ff8000; stroke-width: 1.5"/>
    <path d="M 295.462073 171.226851 
L 295.462073 116.3111 
" clip-path="url(#pb0ead8ecda)" style="fill: none; stroke: #ff8000; stroke-width: 1.5"/>
    <path d="M 298.898285 139.043954 
L 298.898285 84.128203 
" clip-path="url(#pb0ead8ecda)" style="fill: none; stroke: #ff8000; stroke-width: 1.5"/>
    <path d="M 302.334497 195.413609 
L 302.334497 140.497859 
" clip-path="url(#pb0ead8ecda)" style="fill: none; stroke: #ff8000; stroke-width: 1.5"/>
    <path d="M 305.770709 135.528983 
L 305.770709 80.613232 
" clip-path="url(#pb0ead8ecda)" style="fill: none; stroke: #ff8000; stroke-width: 1.5"/>
    <path d="M 309.206921 152.853518 
L 309.206921 97.937767 
" clip-path="url(#pb0ead8ecda)" style="fill: none; stroke: #ff8000; stroke-width: 1.5"/>
    <path d="M 312.643133 167.519196 
L 312.643133 112.603446 
" clip-path="url(#pb0ead8ecda)" style="fill: none; stroke: #ff8000; stroke-width: 1.5"/>
    <path d="M 316.079345 166.924298 
L 316.079345 112.008547 
" clip-path="url(#pb0ead8ecda)" style="fill: none; stroke: #ff8000; stroke-width: 1.5"/>
    <path d="M 319.515557 130.139164 
L 319.515557 75.223413 
" clip-path="url(#pb0ead8ecda)" style="fill: none; stroke: #ff8000; stroke-width: 1.5"/>
    <path d="M 322.951769 160.503061 
L 322.951769 105.587311 
" clip-path="url(#pb0ead8ecda)" style="fill: none; stroke: #ff8000; stroke-width: 1.5"/>
    <path d="M 326.387981 172.737438 
L 326.387981 117.821687 
" clip-path="url(#pb0ead8ecda)" style="fill: none; stroke: #ff8000; stroke-width: 1.5"/>
    <path d="M 329.82349 116.358708 
L 329.82349 61.431719 
" clip-path="url(#pb0ead8ecda)" style="fill: none; stroke: #ff8000; stroke-width: 1.5"/>
    <path d="M 333.258999 158.213828 
L 333.258999 103.298077 
" clip-path="url(#pb0ead8ecda)" style="fill: none; stroke: #ff8000; stroke-width: 1.5"/>
    <path d="M 336.695211 143.703352 
L 336.695211 88.787601 
" clip-path="url(#pb0ead8ecda)" style="fill: none; stroke: #ff8000; stroke-width: 1.5"/>
    <path d="M 340.131423 164.442914 
L 340.131423 109.527163 
" clip-path="url(#pb0ead8ecda)" style="fill: none; stroke: #ff8000; stroke-width: 1.5"/>
    <path d="M 343.567635 147.776295 
L 343.567635 92.860544 
" clip-path="url(#pb0ead8ecda)" style="fill: none; stroke: #ff8000; stroke-width: 1.5"/>
    <path d="M 347.003847 195.496338 
L 347.003847 140.580587 
" clip-path="url(#pb0ead8ecda)" style="fill: none; stroke: #ff8000; stroke-width: 1.5"/>
    <path d="M 350.440059 126.473864 
L 350.440059 71.558113 
" clip-path="url(#pb0ead8ecda)" style="fill: none; stroke: #ff8000; stroke-width: 1.5"/>
    <path d="M 353.876271 129.478347 
L 353.876271 74.562596 
" clip-path="url(#pb0ead8ecda)" style="fill: none; stroke: #ff8000; stroke-width: 1.5"/>
    <path d="M 357.312483 169.850787 
L 357.312483 114.935036 
" clip-path="url(#pb0ead8ecda)" style="fill: none; stroke: #ff8000; stroke-width: 1.5"/>
    <path d="M 360.748695 166.382701 
L 360.748695 111.46695 
" clip-path="url(#pb0ead8ecda)" style="fill: none; stroke: #ff8000; stroke-width: 1.5"/>
    <path d="M 364.184907 173.942544 
L 364.184907 119.026793 
" clip-path="url(#pb0ead8ecda)" style="fill: none; stroke: #ff8000; stroke-width: 1.5"/>
    <path d="M 367.621119 201.749711 
L 367.621119 146.83396 
" clip-path="url(#pb0ead8ecda)" style="fill: none; stroke: #ff8000; stroke-width: 1.5"/>
    <path d="M 371.057331 173.582766 
L 371.057331 118.667015 
" clip-path="url(#pb0ead8ecda)" style="fill: none; stroke: #ff8000; stroke-width: 1.5"/>
    <path d="M 374.493543 200.708449 
L 374.493543 145.792699 
" clip-path="url(#pb0ead8ecda)" style="fill: none; stroke: #ff8000; stroke-width: 1.5"/>
    <path d="M 377.929755 188.23262 
L 377.929755 133.316869 
" clip-path="url(#pb0ead8ecda)" style="fill: none; stroke: #ff8000; stroke-width: 1.5"/>
    <path d="M 381.365264 179.299343 
L 381.365264 124.372354 
" clip-path="url(#pb0ead8ecda)" style="fill: none; stroke: #ff8000; stroke-width: 1.5"/>
    <path d="M 384.800773 231.748696 
L 384.800773 176.832945 
" clip-path="url(#pb0ead8ecda)" style="fill: none; stroke: #ff8000; stroke-width: 1.5"/>
    <path d="M 388.236985 114.160138 
L 388.236985 59.244387 
" clip-path="url(#pb0ead8ecda)" style="fill: none; stroke: #ff8000; stroke-width: 1.5"/>
    <path d="M 391.673197 171.723664 
L 391.673197 116.807913 
" clip-path="url(#pb0ead8ecda)" style="fill: none; stroke: #ff8000; stroke-width: 1.5"/>
    <path d="M 395.109409 140.510622 
L 395.109409 85.594871 
" clip-path="url(#pb0ead8ecda)" style="fill: none; stroke: #ff8000; stroke-width: 1.5"/>
    <path d="M 397.657745 274.388812 
L 397.657745 195.389633 
" clip-path="url(#pb0ead8ecda)" style="fill: none; stroke: #ff8000; stroke-width: 1.5"/>
   </g>
   <g id="text_15">
    <!-- Phase curve at $\lambda$ = 0.95 $\mu$m with S -->
    <g transform="translate(97.28 35.472) scale(0.16 -0.16)">
     <defs>
      <path id="DejaVuSans-50" d="M 1259 4147 
L 1259 2394 
L 2053 2394 
Q 2494 2394 2734 2622 
Q 2975 2850 2975 3272 
Q 2975 3691 2734 3919 
Q 2494 4147 2053 4147 
L 1259 4147 
z
M 628 4666 
L 2053 4666 
Q 2838 4666 3239 4311 
Q 3641 3956 3641 3272 
Q 3641 2581 3239 2228 
Q 2838 1875 2053 1875 
L 1259 1875 
L 1259 0 
L 628 0 
L 628 4666 
z
" transform="scale(0.015625)"/>
      <path id="DejaVuSans-68" d="M 3513 2113 
L 3513 0 
L 2938 0 
L 2938 2094 
Q 2938 2591 2744 2837 
Q 2550 3084 2163 3084 
Q 1697 3084 1428 2787 
Q 1159 2491 1159 1978 
L 1159 0 
L 581 0 
L 581 4863 
L 1159 4863 
L 1159 2956 
Q 1366 3272 1645 3428 
Q 1925 3584 2291 3584 
Q 2894 3584 3203 3211 
Q 3513 2838 3513 2113 
z
" transform="scale(0.015625)"/>
      <path id="DejaVuSans-61" d="M 2194 1759 
Q 1497 1759 1228 1600 
Q 959 1441 959 1056 
Q 959 750 1161 570 
Q 1363 391 1709 391 
Q 2188 391 2477 730 
Q 2766 1069 2766 1631 
L 2766 1759 
L 2194 1759 
z
M 3341 1997 
L 3341 0 
L 2766 0 
L 2766 531 
Q 2569 213 2275 61 
Q 1981 -91 1556 -91 
Q 1019 -91 701 211 
Q 384 513 384 1019 
Q 384 1609 779 1909 
Q 1175 2209 1959 2209 
L 2766 2209 
L 2766 2266 
Q 2766 2663 2505 2880 
Q 2244 3097 1772 3097 
Q 1472 3097 1187 3025 
Q 903 2953 641 2809 
L 641 3341 
Q 956 3463 1253 3523 
Q 1550 3584 1831 3584 
Q 2591 3584 2966 3190 
Q 3341 2797 3341 1997 
z
" transform="scale(0.015625)"/>
      <path id="DejaVuSans-73" d="M 2834 3397 
L 2834 2853 
Q 2591 2978 2328 3040 
Q 2066 3103 1784 3103 
Q 1356 3103 1142 2972 
Q 928 2841 928 2578 
Q 928 2378 1081 2264 
Q 1234 2150 1697 2047 
L 1894 2003 
Q 2506 1872 2764 1633 
Q 3022 1394 3022 966 
Q 3022 478 2636 193 
Q 2250 -91 1575 -91 
Q 1294 -91 989 -36 
Q 684 19 347 128 
L 347 722 
Q 666 556 975 473 
Q 1284 391 1588 391 
Q 1994 391 2212 530 
Q 2431 669 2431 922 
Q 2431 1156 2273 1281 
Q 2116 1406 1581 1522 
L 1381 1569 
Q 847 1681 609 1914 
Q 372 2147 372 2553 
Q 372 3047 722 3315 
Q 1072 3584 1716 3584 
Q 2034 3584 2315 3537 
Q 2597 3491 2834 3397 
z
" transform="scale(0.015625)"/>
      <path id="DejaVuSans-65" d="M 3597 1894 
L 3597 1613 
L 953 1613 
Q 991 1019 1311 708 
Q 1631 397 2203 397 
Q 2534 397 2845 478 
Q 3156 559 3463 722 
L 3463 178 
Q 3153 47 2828 -22 
Q 2503 -91 2169 -91 
Q 1331 -91 842 396 
Q 353 884 353 1716 
Q 353 2575 817 3079 
Q 1281 3584 2069 3584 
Q 2775 3584 3186 3129 
Q 3597 2675 3597 1894 
z
M 3022 2063 
Q 3016 2534 2758 2815 
Q 2500 3097 2075 3097 
Q 1594 3097 1305 2825 
Q 1016 2553 972 2059 
L 3022 2063 
z
" transform="scale(0.015625)"/>
      <path id="DejaVuSans-63" d="M 3122 3366 
L 3122 2828 
Q 2878 2963 2633 3030 
Q 2388 3097 2138 3097 
Q 1578 3097 1268 2742 
Q 959 2388 959 1747 
Q 959 1106 1268 751 
Q 1578 397 2138 397 
Q 2388 397 2633 464 
Q 2878 531 3122 666 
L 3122 134 
Q 2881 22 2623 -34 
Q 2366 -91 2075 -91 
Q 1284 -91 818 406 
Q 353 903 353 1747 
Q 353 2603 823 3093 
Q 1294 3584 2113 3584 
Q 2378 3584 2631 3529 
Q 2884 3475 3122 3366 
z
" transform="scale(0.015625)"/>
      <path id="DejaVuSans-75" d="M 544 1381 
L 544 3500 
L 1119 3500 
L 1119 1403 
Q 1119 906 1312 657 
Q 1506 409 1894 409 
Q 2359 409 2629 706 
Q 2900 1003 2900 1516 
L 2900 3500 
L 3475 3500 
L 3475 0 
L 2900 0 
L 2900 538 
Q 2691 219 2414 64 
Q 2138 -91 1772 -91 
Q 1169 -91 856 284 
Q 544 659 544 1381 
z
M 1991 3584 
L 1991 3584 
z
" transform="scale(0.015625)"/>
      <path id="DejaVuSans-72" d="M 2631 2963 
Q 2534 3019 2420 3045 
Q 2306 3072 2169 3072 
Q 1681 3072 1420 2755 
Q 1159 2438 1159 1844 
L 1159 0 
L 581 0 
L 581 3500 
L 1159 3500 
L 1159 2956 
Q 1341 3275 1631 3429 
Q 1922 3584 2338 3584 
Q 2397 3584 2469 3576 
Q 2541 3569 2628 3553 
L 2631 2963 
z
" transform="scale(0.015625)"/>
      <path id="DejaVuSans-76" d="M 191 3500 
L 800 3500 
L 1894 563 
L 2988 3500 
L 3597 3500 
L 2284 0 
L 1503 0 
L 191 3500 
z
" transform="scale(0.015625)"/>
      <path id="DejaVuSans-74" d="M 1172 4494 
L 1172 3500 
L 2356 3500 
L 2356 3053 
L 1172 3053 
L 1172 1153 
Q 1172 725 1289 603 
Q 1406 481 1766 481 
L 2356 481 
L 2356 0 
L 1766 0 
Q 1100 0 847 248 
Q 594 497 594 1153 
L 594 3053 
L 172 3053 
L 172 3500 
L 594 3500 
L 594 4494 
L 1172 4494 
z
" transform="scale(0.015625)"/>
      <path id="DejaVuSans-Oblique-3bb" d="M 2350 4316 
L 3125 0 
L 2516 0 
L 2038 2588 
L 328 0 
L -281 0 
L 1903 3356 
L 1794 3975 
Q 1725 4369 1391 4369 
L 1091 4369 
L 1184 4863 
L 1550 4856 
Q 2253 4847 2350 4316 
z
" transform="scale(0.015625)"/>
      <path id="DejaVuSans-3d" d="M 678 2906 
L 4684 2906 
L 4684 2381 
L 678 2381 
L 678 2906 
z
M 678 1631 
L 4684 1631 
L 4684 1100 
L 678 1100 
L 678 1631 
z
" transform="scale(0.015625)"/>
      <path id="DejaVuSans-Oblique-3bc" d="M -84 -1331 
L 856 3500 
L 1434 3500 
L 1009 1322 
Q 997 1256 987 1175 
Q 978 1094 978 1013 
Q 978 722 1161 565 
Q 1344 409 1684 409 
Q 2147 409 2431 671 
Q 2716 934 2816 1459 
L 3213 3500 
L 3788 3500 
L 3266 809 
Q 3253 750 3248 706 
Q 3244 663 3244 628 
Q 3244 531 3283 486 
Q 3322 441 3406 441 
Q 3438 441 3492 456 
Q 3547 472 3647 513 
L 3559 50 
Q 3422 -19 3297 -55 
Q 3172 -91 3053 -91 
Q 2847 -91 2730 40 
Q 2613 172 2613 403 
Q 2438 153 2195 31 
Q 1953 -91 1625 -91 
Q 1334 -91 1117 43 
Q 900 178 831 397 
L 494 -1331 
L -84 -1331 
z
" transform="scale(0.015625)"/>
      <path id="DejaVuSans-6d" d="M 3328 2828 
Q 3544 3216 3844 3400 
Q 4144 3584 4550 3584 
Q 5097 3584 5394 3201 
Q 5691 2819 5691 2113 
L 5691 0 
L 5113 0 
L 5113 2094 
Q 5113 2597 4934 2840 
Q 4756 3084 4391 3084 
Q 3944 3084 3684 2787 
Q 3425 2491 3425 1978 
L 3425 0 
L 2847 0 
L 2847 2094 
Q 2847 2600 2669 2842 
Q 2491 3084 2119 3084 
Q 1678 3084 1418 2786 
Q 1159 2488 1159 1978 
L 1159 0 
L 581 0 
L 581 3500 
L 1159 3500 
L 1159 2956 
Q 1356 3278 1631 3431 
Q 1906 3584 2284 3584 
Q 2666 3584 2933 3390 
Q 3200 3197 3328 2828 
z
" transform="scale(0.015625)"/>
      <path id="DejaVuSans-77" d="M 269 3500 
L 844 3500 
L 1563 769 
L 2278 3500 
L 2956 3500 
L 3675 769 
L 4391 3500 
L 4966 3500 
L 4050 0 
L 3372 0 
L 2619 2869 
L 1863 0 
L 1184 0 
L 269 3500 
z
" transform="scale(0.015625)"/>
      <path id="DejaVuSans-69" d="M 603 3500 
L 1178 3500 
L 1178 0 
L 603 0 
L 603 3500 
z
M 603 4863 
L 1178 4863 
L 1178 4134 
L 603 4134 
L 603 4863 
z
" transform="scale(0.015625)"/>
      <path id="DejaVuSans-53" d="M 3425 4513 
L 3425 3897 
Q 3066 4069 2747 4153 
Q 2428 4238 2131 4238 
Q 1616 4238 1336 4038 
Q 1056 3838 1056 3469 
Q 1056 3159 1242 3001 
Q 1428 2844 1947 2747 
L 2328 2669 
Q 3034 2534 3370 2195 
Q 3706 1856 3706 1288 
Q 3706 609 3251 259 
Q 2797 -91 1919 -91 
Q 1588 -91 1214 -16 
Q 841 59 441 206 
L 441 856 
Q 825 641 1194 531 
Q 1563 422 1919 422 
Q 2459 422 2753 634 
Q 3047 847 3047 1241 
Q 3047 1584 2836 1778 
Q 2625 1972 2144 2069 
L 1759 2144 
Q 1053 2284 737 2584 
Q 422 2884 422 3419 
Q 422 4038 858 4394 
Q 1294 4750 2059 4750 
Q 2388 4750 2728 4690 
Q 3069 4631 3425 4513 
z
" transform="scale(0.015625)"/>
     </defs>
     <use xlink:href="#DejaVuSans-50" transform="translate(0 0.015625)"/>
     <use xlink:href="#DejaVuSans-68" transform="translate(60.302734 0.015625)"/>
     <use xlink:href="#DejaVuSans-61" transform="translate(123.681641 0.015625)"/>
     <use xlink:href="#DejaVuSans-73" transform="translate(184.960938 0.015625)"/>
     <use xlink:href="#DejaVuSans-65" transform="translate(237.060547 0.015625)"/>
     <use xlink:href="#DejaVuSans-20" transform="translate(298.583984 0.015625)"/>
     <use xlink:href="#DejaVuSans-63" transform="translate(330.371094 0.015625)"/>
     <use xlink:href="#DejaVuSans-75" transform="translate(385.351562 0.015625)"/>
     <use xlink:href="#DejaVuSans-72" transform="translate(448.730469 0.015625)"/>
     <use xlink:href="#DejaVuSans-76" transform="translate(489.84375 0.015625)"/>
     <use xlink:href="#DejaVuSans-65" transform="translate(549.023438 0.015625)"/>
     <use xlink:href="#DejaVuSans-20" transform="translate(610.546875 0.015625)"/>
     <use xlink:href="#DejaVuSans-61" transform="translate(642.333984 0.015625)"/>
     <use xlink:href="#DejaVuSans-74" transform="translate(703.613281 0.015625)"/>
     <use xlink:href="#DejaVuSans-20" transform="translate(742.822266 0.015625)"/>
     <use xlink:href="#DejaVuSans-Oblique-3bb" transform="translate(774.609375 0.015625)"/>
     <use xlink:href="#DejaVuSans-20" transform="translate(833.789062 0.015625)"/>
     <use xlink:href="#DejaVuSans-3d" transform="translate(865.576172 0.015625)"/>
     <use xlink:href="#DejaVuSans-20" transform="translate(949.365234 0.015625)"/>
     <use xlink:href="#DejaVuSans-30" transform="translate(981.152344 0.015625)"/>
     <use xlink:href="#DejaVuSans-2e" transform="translate(1044.775391 0.015625)"/>
     <use xlink:href="#DejaVuSans-39" transform="translate(1076.5625 0.015625)"/>
     <use xlink:href="#DejaVuSans-35" transform="translate(1140.185547 0.015625)"/>
     <use xlink:href="#DejaVuSans-20" transform="translate(1203.808594 0.015625)"/>
     <use xlink:href="#DejaVuSans-Oblique-3bc" transform="translate(1235.595703 0.015625)"/>
     <use xlink:href="#DejaVuSans-6d" transform="translate(1299.21875 0.015625)"/>
     <use xlink:href="#DejaVuSans-20" transform="translate(1396.630859 0.015625)"/>
     <use xlink:href="#DejaVuSans-77" transform="translate(1428.417969 0.015625)"/>
     <use xlink:href="#DejaVuSans-69" transform="translate(1510.205078 0.015625)"/>
     <use xlink:href="#DejaVuSans-74" transform="translate(1537.988281 0.015625)"/>
     <use xlink:href="#DejaVuSans-68" transform="translate(1577.197266 0.015625)"/>
     <use xlink:href="#DejaVuSans-20" transform="translate(1640.576172 0.015625)"/>
     <use xlink:href="#DejaVuSans-53" transform="translate(1672.363281 0.015625)"/>
    </g>
   </g>
   <g id="line2d_12">
    <defs>
     <path id="m85f3a364bd" d="M 0 3 
C 0.795609 3 1.55874 2.683901 2.12132 2.12132 
C 2.683901 1.55874 3 0.795609 3 0 
C 3 -0.795609 2.683901 -1.55874 2.12132 -2.12132 
C 1.55874 -2.683901 0.795609 -3 0 -3 
C -0.795609 -3 -1.55874 -2.683901 -2.12132 -2.12132 
C -2.683901 -1.55874 -3 -0.795609 -3 0 
C -3 0.795609 -2.683901 1.55874 -2.12132 2.12132 
C -1.55874 2.683901 -0.795609 3 0 3 
z
" style="stroke: #ff8000"/>
    </defs>
    <g clip-path="url(#pb0ead8ecda)">
     <use xlink:href="#m85f3a364bd" x="75.55013" y="133.408126" style="fill: #ff8000; stroke: #ff8000"/>
     <use xlink:href="#m85f3a364bd" x="78.986342" y="171.083813" style="fill: #ff8000; stroke: #ff8000"/>
     <use xlink:href="#m85f3a364bd" x="82.422554" y="165.003166" style="fill: #ff8000; stroke: #ff8000"/>
     <use xlink:href="#m85f3a364bd" x="85.858766" y="143.400619" style="fill: #ff8000; stroke: #ff8000"/>
     <use xlink:href="#m85f3a364bd" x="89.294978" y="165.602782" style="fill: #ff8000; stroke: #ff8000"/>
     <use xlink:href="#m85f3a364bd" x="92.73119" y="141.41558" style="fill: #ff8000; stroke: #ff8000"/>
     <use xlink:href="#m85f3a364bd" x="96.167402" y="120.621493" style="fill: #ff8000; stroke: #ff8000"/>
     <use xlink:href="#m85f3a364bd" x="99.603614" y="174.943522" style="fill: #ff8000; stroke: #ff8000"/>
     <use xlink:href="#m85f3a364bd" x="103.039826" y="161.200851" style="fill: #ff8000; stroke: #ff8000"/>
     <use xlink:href="#m85f3a364bd" x="106.476038" y="162.411345" style="fill: #ff8000; stroke: #ff8000"/>
     <use xlink:href="#m85f3a364bd" x="109.91225" y="143.077028" style="fill: #ff8000; stroke: #ff8000"/>
     <use xlink:href="#m85f3a364bd" x="113.348462" y="165.661384" style="fill: #ff8000; stroke: #ff8000"/>
     <use xlink:href="#m85f3a364bd" x="116.784674" y="106.577853" style="fill: #ff8000; stroke: #ff8000"/>
     <use xlink:href="#m85f3a364bd" x="120.220886" y="104.031028" style="fill: #ff8000; stroke: #ff8000"/>
     <use xlink:href="#m85f3a364bd" x="123.656395" y="108.904258" style="fill: #ff8000; stroke: #ff8000"/>
     <use xlink:href="#m85f3a364bd" x="127.091904" y="129.837159" style="fill: #ff8000; stroke: #ff8000"/>
     <use xlink:href="#m85f3a364bd" x="130.528116" y="148.527278" style="fill: #ff8000; stroke: #ff8000"/>
     <use xlink:href="#m85f3a364bd" x="133.964328" y="81.025875" style="fill: #ff8000; stroke: #ff8000"/>
     <use xlink:href="#m85f3a364bd" x="137.40054" y="189.158948" style="fill: #ff8000; stroke: #ff8000"/>
     <use xlink:href="#m85f3a364bd" x="140.836752" y="173.673121" style="fill: #ff8000; stroke: #ff8000"/>
     <use xlink:href="#m85f3a364bd" x="144.272964" y="110.51433" style="fill: #ff8000; stroke: #ff8000"/>
     <use xlink:href="#m85f3a364bd" x="147.709176" y="129.056461" style="fill: #ff8000; stroke: #ff8000"/>
     <use xlink:href="#m85f3a364bd" x="151.145388" y="121.95982" style="fill: #ff8000; stroke: #ff8000"/>
     <use xlink:href="#m85f3a364bd" x="154.5816" y="109.892395" style="fill: #ff8000; stroke: #ff8000"/>
     <use xlink:href="#m85f3a364bd" x="158.017812" y="109.783158" style="fill: #ff8000; stroke: #ff8000"/>
     <use xlink:href="#m85f3a364bd" x="161.454024" y="148.033343" style="fill: #ff8000; stroke: #ff8000"/>
     <use xlink:href="#m85f3a364bd" x="164.890236" y="159.391694" style="fill: #ff8000; stroke: #ff8000"/>
     <use xlink:href="#m85f3a364bd" x="168.326448" y="180.993642" style="fill: #ff8000; stroke: #ff8000"/>
     <use xlink:href="#m85f3a364bd" x="171.76266" y="150.091146" style="fill: #ff8000; stroke: #ff8000"/>
     <use xlink:href="#m85f3a364bd" x="175.198169" y="148.473252" style="fill: #ff8000; stroke: #ff8000"/>
     <use xlink:href="#m85f3a364bd" x="178.633678" y="126.326751" style="fill: #ff8000; stroke: #ff8000"/>
     <use xlink:href="#m85f3a364bd" x="182.06989" y="151.445773" style="fill: #ff8000; stroke: #ff8000"/>
     <use xlink:href="#m85f3a364bd" x="185.506102" y="110.178278" style="fill: #ff8000; stroke: #ff8000"/>
     <use xlink:href="#m85f3a364bd" x="188.942314" y="119.952429" style="fill: #ff8000; stroke: #ff8000"/>
     <use xlink:href="#m85f3a364bd" x="192.378526" y="134.188942" style="fill: #ff8000; stroke: #ff8000"/>
     <use xlink:href="#m85f3a364bd" x="195.814738" y="159.141737" style="fill: #ff8000; stroke: #ff8000"/>
     <use xlink:href="#m85f3a364bd" x="199.25095" y="169.941439" style="fill: #ff8000; stroke: #ff8000"/>
     <use xlink:href="#m85f3a364bd" x="202.687162" y="119.451411" style="fill: #ff8000; stroke: #ff8000"/>
     <use xlink:href="#m85f3a364bd" x="206.123374" y="154.05155" style="fill: #ff8000; stroke: #ff8000"/>
     <use xlink:href="#m85f3a364bd" x="209.559586" y="172.058619" style="fill: #ff8000; stroke: #ff8000"/>
     <use xlink:href="#m85f3a364bd" x="212.995798" y="87.886841" style="fill: #ff8000; stroke: #ff8000"/>
     <use xlink:href="#m85f3a364bd" x="216.43201" y="184.309878" style="fill: #ff8000; stroke: #ff8000"/>
     <use xlink:href="#m85f3a364bd" x="219.868222" y="142.291042" style="fill: #ff8000; stroke: #ff8000"/>
     <use xlink:href="#m85f3a364bd" x="223.304434" y="163.769619" style="fill: #ff8000; stroke: #ff8000"/>
     <use xlink:href="#m85f3a364bd" x="226.739943" y="235.24343" style="fill: #ff8000; stroke: #ff8000"/>
     <use xlink:href="#m85f3a364bd" x="230.175452" y="214.861929" style="fill: #ff8000; stroke: #ff8000"/>
     <use xlink:href="#m85f3a364bd" x="233.611664" y="241.050484" style="fill: #ff8000; stroke: #ff8000"/>
     <use xlink:href="#m85f3a364bd" x="237.047876" y="208.89862" style="fill: #ff8000; stroke: #ff8000"/>
     <use xlink:href="#m85f3a364bd" x="240.484088" y="268.030125" style="fill: #ff8000; stroke: #ff8000"/>
     <use xlink:href="#m85f3a364bd" x="243.9203" y="228.011878" style="fill: #ff8000; stroke: #ff8000"/>
     <use xlink:href="#m85f3a364bd" x="247.356512" y="206.176064" style="fill: #ff8000; stroke: #ff8000"/>
     <use xlink:href="#m85f3a364bd" x="250.792723" y="128.186243" style="fill: #ff8000; stroke: #ff8000"/>
     <use xlink:href="#m85f3a364bd" x="254.228935" y="117.816868" style="fill: #ff8000; stroke: #ff8000"/>
     <use xlink:href="#m85f3a364bd" x="257.665147" y="131.003073" style="fill: #ff8000; stroke: #ff8000"/>
     <use xlink:href="#m85f3a364bd" x="261.101359" y="135.73536" style="fill: #ff8000; stroke: #ff8000"/>
     <use xlink:href="#m85f3a364bd" x="264.537571" y="142.415365" style="fill: #ff8000; stroke: #ff8000"/>
     <use xlink:href="#m85f3a364bd" x="267.973783" y="103.166957" style="fill: #ff8000; stroke: #ff8000"/>
     <use xlink:href="#m85f3a364bd" x="271.409995" y="119.584155" style="fill: #ff8000; stroke: #ff8000"/>
     <use xlink:href="#m85f3a364bd" x="274.846207" y="121.437957" style="fill: #ff8000; stroke: #ff8000"/>
     <use xlink:href="#m85f3a364bd" x="278.281716" y="127.573499" style="fill: #ff8000; stroke: #ff8000"/>
     <use xlink:href="#m85f3a364bd" x="281.717225" y="193.030563" style="fill: #ff8000; stroke: #ff8000"/>
     <use xlink:href="#m85f3a364bd" x="285.153437" y="156.776106" style="fill: #ff8000; stroke: #ff8000"/>
     <use xlink:href="#m85f3a364bd" x="288.589649" y="131.164011" style="fill: #ff8000; stroke: #ff8000"/>
     <use xlink:href="#m85f3a364bd" x="292.025861" y="81.433969" style="fill: #ff8000; stroke: #ff8000"/>
     <use xlink:href="#m85f3a364bd" x="295.462073" y="143.768975" style="fill: #ff8000; stroke: #ff8000"/>
     <use xlink:href="#m85f3a364bd" x="298.898285" y="111.586079" style="fill: #ff8000; stroke: #ff8000"/>
     <use xlink:href="#m85f3a364bd" x="302.334497" y="167.955734" style="fill: #ff8000; stroke: #ff8000"/>
     <use xlink:href="#m85f3a364bd" x="305.770709" y="108.071108" style="fill: #ff8000; stroke: #ff8000"/>
     <use xlink:href="#m85f3a364bd" x="309.206921" y="125.395643" style="fill: #ff8000; stroke: #ff8000"/>
     <use xlink:href="#m85f3a364bd" x="312.643133" y="140.061321" style="fill: #ff8000; stroke: #ff8000"/>
     <use xlink:href="#m85f3a364bd" x="316.079345" y="139.466423" style="fill: #ff8000; stroke: #ff8000"/>
     <use xlink:href="#m85f3a364bd" x="319.515557" y="102.681288" style="fill: #ff8000; stroke: #ff8000"/>
     <use xlink:href="#m85f3a364bd" x="322.951769" y="133.045186" style="fill: #ff8000; stroke: #ff8000"/>
     <use xlink:href="#m85f3a364bd" x="326.387981" y="145.279562" style="fill: #ff8000; stroke: #ff8000"/>
     <use xlink:href="#m85f3a364bd" x="329.82349" y="88.895214" style="fill: #ff8000; stroke: #ff8000"/>
     <use xlink:href="#m85f3a364bd" x="333.258999" y="130.755953" style="fill: #ff8000; stroke: #ff8000"/>
     <use xlink:href="#m85f3a364bd" x="336.695211" y="116.245476" style="fill: #ff8000; stroke: #ff8000"/>
     <use xlink:href="#m85f3a364bd" x="340.131423" y="136.985038" style="fill: #ff8000; stroke: #ff8000"/>
     <use xlink:href="#m85f3a364bd" x="343.567635" y="120.318419" style="fill: #ff8000; stroke: #ff8000"/>
     <use xlink:href="#m85f3a364bd" x="347.003847" y="168.038463" style="fill: #ff8000; stroke: #ff8000"/>
     <use xlink:href="#m85f3a364bd" x="350.440059" y="99.015989" style="fill: #ff8000; stroke: #ff8000"/>
     <use xlink:href="#m85f3a364bd" x="353.876271" y="102.020471" style="fill: #ff8000; stroke: #ff8000"/>
     <use xlink:href="#m85f3a364bd" x="357.312483" y="142.392911" style="fill: #ff8000; stroke: #ff8000"/>
     <use xlink:href="#m85f3a364bd" x="360.748695" y="138.924826" style="fill: #ff8000; stroke: #ff8000"/>
     <use xlink:href="#m85f3a364bd" x="364.184907" y="146.484669" style="fill: #ff8000; stroke: #ff8000"/>
     <use xlink:href="#m85f3a364bd" x="367.621119" y="174.291836" style="fill: #ff8000; stroke: #ff8000"/>
     <use xlink:href="#m85f3a364bd" x="371.057331" y="146.12489" style="fill: #ff8000; stroke: #ff8000"/>
     <use xlink:href="#m85f3a364bd" x="374.493543" y="173.250574" style="fill: #ff8000; stroke: #ff8000"/>
     <use xlink:href="#m85f3a364bd" x="377.929755" y="160.774744" style="fill: #ff8000; stroke: #ff8000"/>
     <use xlink:href="#m85f3a364bd" x="381.365264" y="151.835849" style="fill: #ff8000; stroke: #ff8000"/>
     <use xlink:href="#m85f3a364bd" x="384.800773" y="204.29082" style="fill: #ff8000; stroke: #ff8000"/>
     <use xlink:href="#m85f3a364bd" x="388.236985" y="86.702263" style="fill: #ff8000; stroke: #ff8000"/>
     <use xlink:href="#m85f3a364bd" x="391.673197" y="144.265789" style="fill: #ff8000; stroke: #ff8000"/>
     <use xlink:href="#m85f3a364bd" x="395.109409" y="113.052747" style="fill: #ff8000; stroke: #ff8000"/>
     <use xlink:href="#m85f3a364bd" x="397.657745" y="234.889223" style="fill: #ff8000; stroke: #ff8000"/>
    </g>
   </g>
   <g id="line2d_13">
    <path d="M 73.832727 133.09915 
L 90.232063 132.626648 
L 97.959322 132.572881 
L 98.118198 133.750747 
L 98.48797 136.110637 
L 120.864121 136.000429 
L 121.045493 134.568848 
L 121.377304 132.494722 
L 136.002294 132.798728 
L 152.726411 133.376941 
L 179.499058 134.565059 
L 203.177145 135.52503 
L 219.10829 135.947491 
L 224.481941 136.159637 
L 224.556458 141.580762 
L 224.829218 181.511556 
L 225.068234 201.275741 
L 225.467532 208.649424 
L 226.042577 215.241963 
L 226.762438 220.995524 
L 227.600402 225.947615 
L 228.525536 230.120144 
L 229.508315 233.557329 
L 230.517807 236.307878 
L 231.528706 238.44176 
L 232.517109 240.030313 
L 233.466145 241.152671 
L 234.365971 241.886682 
L 235.216588 242.303801 
L 236.029244 242.460356 
L 236.823622 242.388131 
L 237.622218 242.089615 
L 238.446121 241.5378 
L 239.305174 240.6854 
L 240.200783 239.471949 
L 241.127323 237.828314 
L 242.070735 235.686145 
L 243.01274 232.977598 
L 243.930844 229.640535 
L 244.799739 225.620852 
L 245.591305 220.882021 
L 246.280235 215.377217 
L 246.838408 209.087199 
L 247.239112 202.012522 
L 247.405018 195.408836 
L 247.669342 156.061495 
L 247.913982 136.032728 
L 262.538973 135.728814 
L 279.261684 135.150735 
L 306.02027 133.963292 
L 329.711012 133.002642 
L 345.643563 132.580021 
L 351.048145 132.585556 
L 351.216862 133.867621 
L 351.571169 136.110637 
L 373.950132 136.000058 
L 374.131503 134.568127 
L 374.463314 132.494723 
L 389.088305 132.79873 
L 398.487273 133.098539 
L 398.487273 133.098539 
" clip-path="url(#pb0ead8ecda)" style="fill: none; stroke: #000000; stroke-width: 1.5; stroke-linecap: square"/>
   </g>
   <g id="legend_1">
    <g id="patch_7">
     <path d="M 66 301.584 
L 176.4075 301.584 
Q 178.8075 301.584 178.8075 299.184 
L 178.8075 247.54275 
Q 178.8075 245.14275 176.4075 245.14275 
L 66 245.14275 
Q 63.6 245.14275 63.6 247.54275 
L 63.6 299.184 
Q 63.6 301.584 66 301.584 
z
" style="fill: #ffffff; opacity: 0.8; stroke: #cccccc; stroke-linejoin: miter"/>
    </g>
    <g id="line2d_14">
     <path d="M 68.4 254.860875 
L 80.4 254.860875 
L 92.4 254.860875 
" style="fill: none; stroke: #1f77b4; stroke-width: 1.5; stroke-linecap: square"/>
    </g>
    <g id="text_16">
     <!-- our model -->
     <g transform="translate(102 259.060875) scale(0.12 -0.12)">
      <defs>
       <path id="DejaVuSans-6f" d="M 1959 3097 
Q 1497 3097 1228 2736 
Q 959 2375 959 1747 
Q 959 1119 1226 758 
Q 1494 397 1959 397 
Q 2419 397 2687 759 
Q 2956 1122 2956 1747 
Q 2956 2369 2687 2733 
Q 2419 3097 1959 3097 
z
M 1959 3584 
Q 2709 3584 3137 3096 
Q 3566 2609 3566 1747 
Q 3566 888 3137 398 
Q 2709 -91 1959 -91 
Q 1206 -91 779 398 
Q 353 888 353 1747 
Q 353 2609 779 3096 
Q 1206 3584 1959 3584 
z
" transform="scale(0.015625)"/>
       <path id="DejaVuSans-6c" d="M 603 4863 
L 1178 4863 
L 1178 0 
L 603 0 
L 603 4863 
z
" transform="scale(0.015625)"/>
      </defs>
      <use xlink:href="#DejaVuSans-6f"/>
      <use xlink:href="#DejaVuSans-75" transform="translate(61.181641 0)"/>
      <use xlink:href="#DejaVuSans-72" transform="translate(124.560547 0)"/>
      <use xlink:href="#DejaVuSans-20" transform="translate(165.673828 0)"/>
      <use xlink:href="#DejaVuSans-6d" transform="translate(197.460938 0)"/>
      <use xlink:href="#DejaVuSans-6f" transform="translate(294.873047 0)"/>
      <use xlink:href="#DejaVuSans-64" transform="translate(356.054688 0)"/>
      <use xlink:href="#DejaVuSans-65" transform="translate(419.53125 0)"/>
      <use xlink:href="#DejaVuSans-6c" transform="translate(481.054688 0)"/>
     </g>
    </g>
    <g id="line2d_15">
     <path d="M 68.4 272.474625 
L 80.4 272.474625 
L 92.4 272.474625 
" style="fill: none; stroke: #000000; stroke-width: 1.5; stroke-linecap: square"/>
    </g>
    <g id="text_17">
     <!-- origin data -->
     <g transform="translate(102 276.674625) scale(0.12 -0.12)">
      <defs>
       <path id="DejaVuSans-67" d="M 2906 1791 
Q 2906 2416 2648 2759 
Q 2391 3103 1925 3103 
Q 1463 3103 1205 2759 
Q 947 2416 947 1791 
Q 947 1169 1205 825 
Q 1463 481 1925 481 
Q 2391 481 2648 825 
Q 2906 1169 2906 1791 
z
M 3481 434 
Q 3481 -459 3084 -895 
Q 2688 -1331 1869 -1331 
Q 1566 -1331 1297 -1286 
Q 1028 -1241 775 -1147 
L 775 -588 
Q 1028 -725 1275 -790 
Q 1522 -856 1778 -856 
Q 2344 -856 2625 -561 
Q 2906 -266 2906 331 
L 2906 616 
Q 2728 306 2450 153 
Q 2172 0 1784 0 
Q 1141 0 747 490 
Q 353 981 353 1791 
Q 353 2603 747 3093 
Q 1141 3584 1784 3584 
Q 2172 3584 2450 3431 
Q 2728 3278 2906 2969 
L 2906 3500 
L 3481 3500 
L 3481 434 
z
" transform="scale(0.015625)"/>
       <path id="DejaVuSans-6e" d="M 3513 2113 
L 3513 0 
L 2938 0 
L 2938 2094 
Q 2938 2591 2744 2837 
Q 2550 3084 2163 3084 
Q 1697 3084 1428 2787 
Q 1159 2491 1159 1978 
L 1159 0 
L 581 0 
L 581 3500 
L 1159 3500 
L 1159 2956 
Q 1366 3272 1645 3428 
Q 1925 3584 2291 3584 
Q 2894 3584 3203 3211 
Q 3513 2838 3513 2113 
z
" transform="scale(0.015625)"/>
      </defs>
      <use xlink:href="#DejaVuSans-6f"/>
      <use xlink:href="#DejaVuSans-72" transform="translate(61.181641 0)"/>
      <use xlink:href="#DejaVuSans-69" transform="translate(102.294922 0)"/>
      <use xlink:href="#DejaVuSans-67" transform="translate(130.078125 0)"/>
      <use xlink:href="#DejaVuSans-69" transform="translate(193.554688 0)"/>
      <use xlink:href="#DejaVuSans-6e" transform="translate(221.337891 0)"/>
      <use xlink:href="#DejaVuSans-20" transform="translate(284.716797 0)"/>
      <use xlink:href="#DejaVuSans-64" transform="translate(316.503906 0)"/>
      <use xlink:href="#DejaVuSans-61" transform="translate(379.980469 0)"/>
      <use xlink:href="#DejaVuSans-74" transform="translate(441.259766 0)"/>
      <use xlink:href="#DejaVuSans-61" transform="translate(480.46875 0)"/>
     </g>
    </g>
    <g id="LineCollection_2">
     <path d="M 80.4 296.088375 
L 80.4 284.088375 
" style="fill: none; stroke: #ff8000; stroke-width: 1.5"/>
    </g>
    <g id="line2d_16"/>
    <g id="line2d_17">
     <g>
      <use xlink:href="#m85f3a364bd" x="80.4" y="290.088375" style="fill: #ff8000; stroke: #ff8000"/>
     </g>
    </g>
    <g id="text_18">
     <!-- data binned -->
     <g transform="translate(102 294.288375) scale(0.12 -0.12)">
      <defs>
       <path id="DejaVuSans-62" d="M 3116 1747 
Q 3116 2381 2855 2742 
Q 2594 3103 2138 3103 
Q 1681 3103 1420 2742 
Q 1159 2381 1159 1747 
Q 1159 1113 1420 752 
Q 1681 391 2138 391 
Q 2594 391 2855 752 
Q 3116 1113 3116 1747 
z
M 1159 2969 
Q 1341 3281 1617 3432 
Q 1894 3584 2278 3584 
Q 2916 3584 3314 3078 
Q 3713 2572 3713 1747 
Q 3713 922 3314 415 
Q 2916 -91 2278 -91 
Q 1894 -91 1617 61 
Q 1341 213 1159 525 
L 1159 0 
L 581 0 
L 581 4863 
L 1159 4863 
L 1159 2969 
z
" transform="scale(0.015625)"/>
      </defs>
      <use xlink:href="#DejaVuSans-64"/>
      <use xlink:href="#DejaVuSans-61" transform="translate(63.476562 0)"/>
      <use xlink:href="#DejaVuSans-74" transform="translate(124.755859 0)"/>
      <use xlink:href="#DejaVuSans-61" transform="translate(163.964844 0)"/>
      <use xlink:href="#DejaVuSans-20" transform="translate(225.244141 0)"/>
      <use xlink:href="#DejaVuSans-62" transform="translate(257.03125 0)"/>
      <use xlink:href="#DejaVuSans-69" transform="translate(320.507812 0)"/>
      <use xlink:href="#DejaVuSans-6e" transform="translate(348.291016 0)"/>
      <use xlink:href="#DejaVuSans-6e" transform="translate(411.669922 0)"/>
      <use xlink:href="#DejaVuSans-65" transform="translate(475.048828 0)"/>
      <use xlink:href="#DejaVuSans-64" transform="translate(536.572266 0)"/>
     </g>
    </g>
   </g>
   <g id="line2d_18">
    <path d="M 73.832727 133.026492 
L 90.04788 132.546613 
L 98.264419 132.402292 
L 98.376898 136.110696 
L 120.985035 136.110696 
L 120.986441 132.402288 
L 121.097514 132.403746 
L 135.521449 132.705177 
L 151.925003 133.278154 
L 176.900809 134.40683 
L 202.131097 135.474584 
L 218.046776 135.922469 
L 224.331501 136.134689 
L 224.403206 141.885876 
L 224.701273 188.21714 
L 224.909358 202.953494 
L 225.353648 209.799188 
L 225.986338 216.188054 
L 226.769468 221.887831 
L 227.667889 226.833549 
L 228.647856 231.018456 
L 229.67422 234.457182 
L 230.714644 237.194024 
L 231.742415 239.29649 
L 232.73363 240.839435 
L 233.672824 241.908552 
L 234.554372 242.589841 
L 235.382494 242.959084 
L 236.172654 243.07323 
L 236.948754 242.960798 
L 237.734696 242.618369 
L 238.55157 242.012709 
L 239.410623 241.089083 
L 240.314667 239.778074 
L 241.256673 238.005577 
L 242.22258 235.697798 
L 243.192706 232.785756 
L 244.141741 229.213896 
L 245.041568 224.94018 
L 245.861253 219.945209 
L 246.569866 214.227111 
L 247.133664 207.840986 
L 247.513278 201.001366 
L 247.573735 196.658424 
L 247.909764 144.797005 
L 248.089729 136.028457 
L 262.550221 135.719279 
L 279.060629 135.135845 
L 304.951727 133.961097 
L 329.110659 132.948397 
L 344.956039 132.508364 
L 351.35043 132.402291 
L 351.462909 136.110696 
L 374.071046 136.110696 
L 374.072452 132.402289 
L 374.183525 132.403747 
L 388.60746 132.705179 
L 398.487273 133.025867 
L 398.487273 133.025867 
" clip-path="url(#pb0ead8ecda)" style="fill: none; stroke: #1f77b4; stroke-width: 1.5; stroke-linecap: square"/>
   </g>
  </g>
 </g>
 <defs>
  <clipPath id="pb0ead8ecda">
   <rect x="57.6" y="41.472" width="357.12" height="266.112"/>
  </clipPath>
 </defs>
</svg>
