<?xml version="1.0" encoding="utf-8" standalone="no"?>
<!DOCTYPE svg PUBLIC "-//W3C//DTD SVG 1.1//EN"
  "http://www.w3.org/Graphics/SVG/1.1/DTD/svg11.dtd">
<svg xmlns:xlink="http://www.w3.org/1999/xlink" width="460.8pt" height="345.6pt" viewBox="0 0 460.8 345.6" xmlns="http://www.w3.org/2000/svg" version="1.1">
 <metadata>
  <rdf:RDF xmlns:dc="http://purl.org/dc/elements/1.1/" xmlns:cc="http://creativecommons.org/ns#" xmlns:rdf="http://www.w3.org/1999/02/22-rdf-syntax-ns#">
   <cc:Work>
    <dc:type rdf:resource="http://purl.org/dc/dcmitype/StillImage"/>
    <dc:date>2025-12-03T17:15:35.708476</dc:date>
    <dc:format>image/svg+xml</dc:format>
    <dc:creator>
     <cc:Agent>
      <dc:title>Matplotlib v3.10.7, https://matplotlib.org/</dc:title>
     </cc:Agent>
    </dc:creator>
   </cc:Work>
  </rdf:RDF>
 </metadata>
 <defs>
  <style type="text/css">*{stroke-linejoin: round; stroke-linecap: butt}</style>
 </defs>
 <g id="figure_1">
  <g id="patch_1">
   <path d="M 0 345.6 
L 460.8 345.6 
L 460.8 0 
L 0 0 
z
" style="fill: #ffffff"/>
  </g>
  <g id="axes_1">
   <g id="patch_2">
    <path d="M 57.6 307.584 
L 414.72 307.584 
L 414.72 41.472 
L 57.6 41.472 
z
" style="fill: #ffffff"/>
   </g>
   <g id="matplotlib.axis_1">
    <g id="xtick_1">
     <g id="line2d_1">
      <defs>
       <path id="m27646afb7c" d="M 0 0 
L 0 3.5 
" style="stroke: #000000; stroke-width: 0.8"/>
      </defs>
      <g>
       <use xlink:href="#m27646afb7c" x="120.526054" y="307.584" style="stroke: #000000; stroke-width: 0.8"/>
      </g>
     </g>
     <g id="text_1">
      <!-- 0.4 -->
      <g transform="translate(109.393867 325.221812) scale(0.14 -0.14)">
       <defs>
        <path id="DejaVuSans-30" d="M 2034 4250 
Q 1547 4250 1301 3770 
Q 1056 3291 1056 2328 
Q 1056 1369 1301 889 
Q 1547 409 2034 409 
Q 2525 409 2770 889 
Q 3016 1369 3016 2328 
Q 3016 3291 2770 3770 
Q 2525 4250 2034 4250 
z
M 2034 4750 
Q 2819 4750 3233 4129 
Q 3647 3509 3647 2328 
Q 3647 1150 3233 529 
Q 2819 -91 2034 -91 
Q 1250 -91 836 529 
Q 422 1150 422 2328 
Q 422 3509 836 4129 
Q 1250 4750 2034 4750 
z
" transform="scale(0.015625)"/>
        <path id="DejaVuSans-2e" d="M 684 794 
L 1344 794 
L 1344 0 
L 684 0 
L 684 794 
z
" transform="scale(0.015625)"/>
        <path id="DejaVuSans-34" d="M 2419 4116 
L 825 1625 
L 2419 1625 
L 2419 4116 
z
M 2253 4666 
L 3047 4666 
L 3047 1625 
L 3713 1625 
L 3713 1100 
L 3047 1100 
L 3047 0 
L 2419 0 
L 2419 1100 
L 313 1100 
L 313 1709 
L 2253 4666 
z
" transform="scale(0.015625)"/>
       </defs>
       <use xlink:href="#DejaVuSans-30"/>
       <use xlink:href="#DejaVuSans-2e" transform="translate(63.623047 0)"/>
       <use xlink:href="#DejaVuSans-34" transform="translate(95.410156 0)"/>
      </g>
     </g>
    </g>
    <g id="xtick_2">
     <g id="line2d_2">
      <g>
       <use xlink:href="#m27646afb7c" x="189.246505" y="307.584" style="stroke: #000000; stroke-width: 0.8"/>
      </g>
     </g>
     <g id="text_2">
      <!-- 0.6 -->
      <g transform="translate(178.114317 325.221812) scale(0.14 -0.14)">
       <defs>
        <path id="DejaVuSans-36" d="M 2113 2584 
Q 1688 2584 1439 2293 
Q 1191 2003 1191 1497 
Q 1191 994 1439 701 
Q 1688 409 2113 409 
Q 2538 409 2786 701 
Q 3034 994 3034 1497 
Q 3034 2003 2786 2293 
Q 2538 2584 2113 2584 
z
M 3366 4563 
L 3366 3988 
Q 3128 4100 2886 4159 
Q 2644 4219 2406 4219 
Q 1781 4219 1451 3797 
Q 1122 3375 1075 2522 
Q 1259 2794 1537 2939 
Q 1816 3084 2150 3084 
Q 2853 3084 3261 2657 
Q 3669 2231 3669 1497 
Q 3669 778 3244 343 
Q 2819 -91 2113 -91 
Q 1303 -91 875 529 
Q 447 1150 447 2328 
Q 447 3434 972 4092 
Q 1497 4750 2381 4750 
Q 2619 4750 2861 4703 
Q 3103 4656 3366 4563 
z
" transform="scale(0.015625)"/>
       </defs>
       <use xlink:href="#DejaVuSans-30"/>
       <use xlink:href="#DejaVuSans-2e" transform="translate(63.623047 0)"/>
       <use xlink:href="#DejaVuSans-36" transform="translate(95.410156 0)"/>
      </g>
     </g>
    </g>
    <g id="xtick_3">
     <g id="line2d_3">
      <g>
       <use xlink:href="#m27646afb7c" x="257.966955" y="307.584" style="stroke: #000000; stroke-width: 0.8"/>
      </g>
     </g>
     <g id="text_3">
      <!-- 0.8 -->
      <g transform="translate(246.834768 325.221812) scale(0.14 -0.14)">
       <defs>
        <path id="DejaVuSans-38" d="M 2034 2216 
Q 1584 2216 1326 1975 
Q 1069 1734 1069 1313 
Q 1069 891 1326 650 
Q 1584 409 2034 409 
Q 2484 409 2743 651 
Q 3003 894 3003 1313 
Q 3003 1734 2745 1975 
Q 2488 2216 2034 2216 
z
M 1403 2484 
Q 997 2584 770 2862 
Q 544 3141 544 3541 
Q 544 4100 942 4425 
Q 1341 4750 2034 4750 
Q 2731 4750 3128 4425 
Q 3525 4100 3525 3541 
Q 3525 3141 3298 2862 
Q 3072 2584 2669 2484 
Q 3125 2378 3379 2068 
Q 3634 1759 3634 1313 
Q 3634 634 3220 271 
Q 2806 -91 2034 -91 
Q 1263 -91 848 271 
Q 434 634 434 1313 
Q 434 1759 690 2068 
Q 947 2378 1403 2484 
z
M 1172 3481 
Q 1172 3119 1398 2916 
Q 1625 2713 2034 2713 
Q 2441 2713 2670 2916 
Q 2900 3119 2900 3481 
Q 2900 3844 2670 4047 
Q 2441 4250 2034 4250 
Q 1625 4250 1398 4047 
Q 1172 3844 1172 3481 
z
" transform="scale(0.015625)"/>
       </defs>
       <use xlink:href="#DejaVuSans-30"/>
       <use xlink:href="#DejaVuSans-2e" transform="translate(63.623047 0)"/>
       <use xlink:href="#DejaVuSans-38" transform="translate(95.410156 0)"/>
      </g>
     </g>
    </g>
    <g id="xtick_4">
     <g id="line2d_4">
      <g>
       <use xlink:href="#m27646afb7c" x="326.687406" y="307.584" style="stroke: #000000; stroke-width: 0.8"/>
      </g>
     </g>
     <g id="text_4">
      <!-- 1.0 -->
      <g transform="translate(315.555218 325.221812) scale(0.14 -0.14)">
       <defs>
        <path id="DejaVuSans-31" d="M 794 531 
L 1825 531 
L 1825 4091 
L 703 3866 
L 703 4441 
L 1819 4666 
L 2450 4666 
L 2450 531 
L 3481 531 
L 3481 0 
L 794 0 
L 794 531 
z
" transform="scale(0.015625)"/>
       </defs>
       <use xlink:href="#DejaVuSans-31"/>
       <use xlink:href="#DejaVuSans-2e" transform="translate(63.623047 0)"/>
       <use xlink:href="#DejaVuSans-30" transform="translate(95.410156 0)"/>
      </g>
     </g>
    </g>
    <g id="xtick_5">
     <g id="line2d_5">
      <g>
       <use xlink:href="#m27646afb7c" x="395.407856" y="307.584" style="stroke: #000000; stroke-width: 0.8"/>
      </g>
     </g>
     <g id="text_5">
      <!-- 1.2 -->
      <g transform="translate(384.275669 325.221812) scale(0.14 -0.14)">
       <defs>
        <path id="DejaVuSans-32" d="M 1228 531 
L 3431 531 
L 3431 0 
L 469 0 
L 469 531 
Q 828 903 1448 1529 
Q 2069 2156 2228 2338 
Q 2531 2678 2651 2914 
Q 2772 3150 2772 3378 
Q 2772 3750 2511 3984 
Q 2250 4219 1831 4219 
Q 1534 4219 1204 4116 
Q 875 4013 500 3803 
L 500 4441 
Q 881 4594 1212 4672 
Q 1544 4750 1819 4750 
Q 2544 4750 2975 4387 
Q 3406 4025 3406 3419 
Q 3406 3131 3298 2873 
Q 3191 2616 2906 2266 
Q 2828 2175 2409 1742 
Q 1991 1309 1228 531 
z
" transform="scale(0.015625)"/>
       </defs>
       <use xlink:href="#DejaVuSans-31"/>
       <use xlink:href="#DejaVuSans-2e" transform="translate(63.623047 0)"/>
       <use xlink:href="#DejaVuSans-32" transform="translate(95.410156 0)"/>
      </g>
     </g>
    </g>
    <g id="text_6">
     <!-- BJD - 2459370.807543 [d] -->
     <g transform="translate(144.673281 342.771187) scale(0.14 -0.14)">
      <defs>
       <path id="DejaVuSans-42" d="M 1259 2228 
L 1259 519 
L 2272 519 
Q 2781 519 3026 730 
Q 3272 941 3272 1375 
Q 3272 1813 3026 2020 
Q 2781 2228 2272 2228 
L 1259 2228 
z
M 1259 4147 
L 1259 2741 
L 2194 2741 
Q 2656 2741 2882 2914 
Q 3109 3088 3109 3444 
Q 3109 3797 2882 3972 
Q 2656 4147 2194 4147 
L 1259 4147 
z
M 628 4666 
L 2241 4666 
Q 2963 4666 3353 4366 
Q 3744 4066 3744 3513 
Q 3744 3084 3544 2831 
Q 3344 2578 2956 2516 
Q 3422 2416 3680 2098 
Q 3938 1781 3938 1306 
Q 3938 681 3513 340 
Q 3088 0 2303 0 
L 628 0 
L 628 4666 
z
" transform="scale(0.015625)"/>
       <path id="DejaVuSans-4a" d="M 628 4666 
L 1259 4666 
L 1259 325 
Q 1259 -519 939 -900 
Q 619 -1281 -91 -1281 
L -331 -1281 
L -331 -750 
L -134 -750 
Q 284 -750 456 -515 
Q 628 -281 628 325 
L 628 4666 
z
" transform="scale(0.015625)"/>
       <path id="DejaVuSans-44" d="M 1259 4147 
L 1259 519 
L 2022 519 
Q 2988 519 3436 956 
Q 3884 1394 3884 2338 
Q 3884 3275 3436 3711 
Q 2988 4147 2022 4147 
L 1259 4147 
z
M 628 4666 
L 1925 4666 
Q 3281 4666 3915 4102 
Q 4550 3538 4550 2338 
Q 4550 1131 3912 565 
Q 3275 0 1925 0 
L 628 0 
L 628 4666 
z
" transform="scale(0.015625)"/>
       <path id="DejaVuSans-20" transform="scale(0.015625)"/>
       <path id="DejaVuSans-2d" d="M 313 2009 
L 1997 2009 
L 1997 1497 
L 313 1497 
L 313 2009 
z
" transform="scale(0.015625)"/>
       <path id="DejaVuSans-35" d="M 691 4666 
L 3169 4666 
L 3169 4134 
L 1269 4134 
L 1269 2991 
Q 1406 3038 1543 3061 
Q 1681 3084 1819 3084 
Q 2600 3084 3056 2656 
Q 3513 2228 3513 1497 
Q 3513 744 3044 326 
Q 2575 -91 1722 -91 
Q 1428 -91 1123 -41 
Q 819 9 494 109 
L 494 744 
Q 775 591 1075 516 
Q 1375 441 1709 441 
Q 2250 441 2565 725 
Q 2881 1009 2881 1497 
Q 2881 1984 2565 2268 
Q 2250 2553 1709 2553 
Q 1456 2553 1204 2497 
Q 953 2441 691 2322 
L 691 4666 
z
" transform="scale(0.015625)"/>
       <path id="DejaVuSans-39" d="M 703 97 
L 703 672 
Q 941 559 1184 500 
Q 1428 441 1663 441 
Q 2288 441 2617 861 
Q 2947 1281 2994 2138 
Q 2813 1869 2534 1725 
Q 2256 1581 1919 1581 
Q 1219 1581 811 2004 
Q 403 2428 403 3163 
Q 403 3881 828 4315 
Q 1253 4750 1959 4750 
Q 2769 4750 3195 4129 
Q 3622 3509 3622 2328 
Q 3622 1225 3098 567 
Q 2575 -91 1691 -91 
Q 1453 -91 1209 -44 
Q 966 3 703 97 
z
M 1959 2075 
Q 2384 2075 2632 2365 
Q 2881 2656 2881 3163 
Q 2881 3666 2632 3958 
Q 2384 4250 1959 4250 
Q 1534 4250 1286 3958 
Q 1038 3666 1038 3163 
Q 1038 2656 1286 2365 
Q 1534 2075 1959 2075 
z
" transform="scale(0.015625)"/>
       <path id="DejaVuSans-33" d="M 2597 2516 
Q 3050 2419 3304 2112 
Q 3559 1806 3559 1356 
Q 3559 666 3084 287 
Q 2609 -91 1734 -91 
Q 1441 -91 1130 -33 
Q 819 25 488 141 
L 488 750 
Q 750 597 1062 519 
Q 1375 441 1716 441 
Q 2309 441 2620 675 
Q 2931 909 2931 1356 
Q 2931 1769 2642 2001 
Q 2353 2234 1838 2234 
L 1294 2234 
L 1294 2753 
L 1863 2753 
Q 2328 2753 2575 2939 
Q 2822 3125 2822 3475 
Q 2822 3834 2567 4026 
Q 2313 4219 1838 4219 
Q 1578 4219 1281 4162 
Q 984 4106 628 3988 
L 628 4550 
Q 988 4650 1302 4700 
Q 1616 4750 1894 4750 
Q 2613 4750 3031 4423 
Q 3450 4097 3450 3541 
Q 3450 3153 3228 2886 
Q 3006 2619 2597 2516 
z
" transform="scale(0.015625)"/>
       <path id="DejaVuSans-37" d="M 525 4666 
L 3525 4666 
L 3525 4397 
L 1831 0 
L 1172 0 
L 2766 4134 
L 525 4134 
L 525 4666 
z
" transform="scale(0.015625)"/>
       <path id="DejaVuSans-5b" d="M 550 4863 
L 1875 4863 
L 1875 4416 
L 1125 4416 
L 1125 -397 
L 1875 -397 
L 1875 -844 
L 550 -844 
L 550 4863 
z
" transform="scale(0.015625)"/>
       <path id="DejaVuSans-64" d="M 2906 2969 
L 2906 4863 
L 3481 4863 
L 3481 0 
L 2906 0 
L 2906 525 
Q 2725 213 2448 61 
Q 2172 -91 1784 -91 
Q 1150 -91 751 415 
Q 353 922 353 1747 
Q 353 2572 751 3078 
Q 1150 3584 1784 3584 
Q 2172 3584 2448 3432 
Q 2725 3281 2906 2969 
z
M 947 1747 
Q 947 1113 1208 752 
Q 1469 391 1925 391 
Q 2381 391 2643 752 
Q 2906 1113 2906 1747 
Q 2906 2381 2643 2742 
Q 2381 3103 1925 3103 
Q 1469 3103 1208 2742 
Q 947 2381 947 1747 
z
" transform="scale(0.015625)"/>
       <path id="DejaVuSans-5d" d="M 1947 4863 
L 1947 -844 
L 622 -844 
L 622 -397 
L 1369 -397 
L 1369 4416 
L 622 4416 
L 622 4863 
L 1947 4863 
z
" transform="scale(0.015625)"/>
      </defs>
      <use xlink:href="#DejaVuSans-42"/>
      <use xlink:href="#DejaVuSans-4a" transform="translate(68.603516 0)"/>
      <use xlink:href="#DejaVuSans-44" transform="translate(98.095703 0)"/>
      <use xlink:href="#DejaVuSans-20" transform="translate(175.097656 0)"/>
      <use xlink:href="#DejaVuSans-2d" transform="translate(206.884766 0)"/>
      <use xlink:href="#DejaVuSans-20" transform="translate(242.96875 0)"/>
      <use xlink:href="#DejaVuSans-32" transform="translate(274.755859 0)"/>
      <use xlink:href="#DejaVuSans-34" transform="translate(338.378906 0)"/>
      <use xlink:href="#DejaVuSans-35" transform="translate(402.001953 0)"/>
      <use xlink:href="#DejaVuSans-39" transform="translate(465.625 0)"/>
      <use xlink:href="#DejaVuSans-33" transform="translate(529.248047 0)"/>
      <use xlink:href="#DejaVuSans-37" transform="translate(592.871094 0)"/>
      <use xlink:href="#DejaVuSans-30" transform="translate(656.494141 0)"/>
      <use xlink:href="#DejaVuSans-2e" transform="translate(720.117188 0)"/>
      <use xlink:href="#DejaVuSans-38" transform="translate(751.904297 0)"/>
      <use xlink:href="#DejaVuSans-30" transform="translate(815.527344 0)"/>
      <use xlink:href="#DejaVuSans-37" transform="translate(879.150391 0)"/>
      <use xlink:href="#DejaVuSans-35" transform="translate(942.773438 0)"/>
      <use xlink:href="#DejaVuSans-34" transform="translate(1006.396484 0)"/>
      <use xlink:href="#DejaVuSans-33" transform="translate(1070.019531 0)"/>
      <use xlink:href="#DejaVuSans-20" transform="translate(1133.642578 0)"/>
      <use xlink:href="#DejaVuSans-5b" transform="translate(1165.429688 0)"/>
      <use xlink:href="#DejaVuSans-64" transform="translate(1204.443359 0)"/>
      <use xlink:href="#DejaVuSans-5d" transform="translate(1267.919922 0)"/>
     </g>
    </g>
   </g>
   <g id="matplotlib.axis_2">
    <g id="ytick_1">
     <g id="line2d_6">
      <defs>
       <path id="mf602111e48" d="M 0 0 
L -3.5 0 
" style="stroke: #000000; stroke-width: 0.8"/>
      </defs>
      <g>
       <use xlink:href="#mf602111e48" x="57.6" y="281.252456" style="stroke: #000000; stroke-width: 0.8"/>
      </g>
     </g>
     <g id="text_7">
      <!-- −0.0008 -->
      <g transform="translate(-10.118438 286.571362) scale(0.14 -0.14)">
       <defs>
        <path id="DejaVuSans-2212" d="M 678 2272 
L 4684 2272 
L 4684 1741 
L 678 1741 
L 678 2272 
z
" transform="scale(0.015625)"/>
       </defs>
       <use xlink:href="#DejaVuSans-2212"/>
       <use xlink:href="#DejaVuSans-30" transform="translate(83.789062 0)"/>
       <use xlink:href="#DejaVuSans-2e" transform="translate(147.412109 0)"/>
       <use xlink:href="#DejaVuSans-30" transform="translate(179.199219 0)"/>
       <use xlink:href="#DejaVuSans-30" transform="translate(242.822266 0)"/>
       <use xlink:href="#DejaVuSans-30" transform="translate(306.445312 0)"/>
       <use xlink:href="#DejaVuSans-38" transform="translate(370.068359 0)"/>
      </g>
     </g>
    </g>
    <g id="ytick_2">
     <g id="line2d_7">
      <g>
       <use xlink:href="#mf602111e48" x="57.6" y="241.961885" style="stroke: #000000; stroke-width: 0.8"/>
      </g>
     </g>
     <g id="text_8">
      <!-- −0.0006 -->
      <g transform="translate(-10.118438 247.280792) scale(0.14 -0.14)">
       <use xlink:href="#DejaVuSans-2212"/>
       <use xlink:href="#DejaVuSans-30" transform="translate(83.789062 0)"/>
       <use xlink:href="#DejaVuSans-2e" transform="translate(147.412109 0)"/>
       <use xlink:href="#DejaVuSans-30" transform="translate(179.199219 0)"/>
       <use xlink:href="#DejaVuSans-30" transform="translate(242.822266 0)"/>
       <use xlink:href="#DejaVuSans-30" transform="translate(306.445312 0)"/>
       <use xlink:href="#DejaVuSans-36" transform="translate(370.068359 0)"/>
      </g>
     </g>
    </g>
    <g id="ytick_3">
     <g id="line2d_8">
      <g>
       <use xlink:href="#mf602111e48" x="57.6" y="202.671314" style="stroke: #000000; stroke-width: 0.8"/>
      </g>
     </g>
     <g id="text_9">
      <!-- −0.0004 -->
      <g transform="translate(-10.118438 207.990221) scale(0.14 -0.14)">
       <use xlink:href="#DejaVuSans-2212"/>
       <use xlink:href="#DejaVuSans-30" transform="translate(83.789062 0)"/>
       <use xlink:href="#DejaVuSans-2e" transform="translate(147.412109 0)"/>
       <use xlink:href="#DejaVuSans-30" transform="translate(179.199219 0)"/>
       <use xlink:href="#DejaVuSans-30" transform="translate(242.822266 0)"/>
       <use xlink:href="#DejaVuSans-30" transform="translate(306.445312 0)"/>
       <use xlink:href="#DejaVuSans-34" transform="translate(370.068359 0)"/>
      </g>
     </g>
    </g>
    <g id="ytick_4">
     <g id="line2d_9">
      <g>
       <use xlink:href="#mf602111e48" x="57.6" y="163.380744" style="stroke: #000000; stroke-width: 0.8"/>
      </g>
     </g>
     <g id="text_10">
      <!-- −0.0002 -->
      <g transform="translate(-10.118438 168.69965) scale(0.14 -0.14)">
       <use xlink:href="#DejaVuSans-2212"/>
       <use xlink:href="#DejaVuSans-30" transform="translate(83.789062 0)"/>
       <use xlink:href="#DejaVuSans-2e" transform="translate(147.412109 0)"/>
       <use xlink:href="#DejaVuSans-30" transform="translate(179.199219 0)"/>
       <use xlink:href="#DejaVuSans-30" transform="translate(242.822266 0)"/>
       <use xlink:href="#DejaVuSans-30" transform="translate(306.445312 0)"/>
       <use xlink:href="#DejaVuSans-32" transform="translate(370.068359 0)"/>
      </g>
     </g>
    </g>
    <g id="ytick_5">
     <g id="line2d_10">
      <g>
       <use xlink:href="#mf602111e48" x="57.6" y="124.090173" style="stroke: #000000; stroke-width: 0.8"/>
      </g>
     </g>
     <g id="text_11">
      <!-- 0.0000 -->
      <g transform="translate(1.613125 129.409079) scale(0.14 -0.14)">
       <use xlink:href="#DejaVuSans-30"/>
       <use xlink:href="#DejaVuSans-2e" transform="translate(63.623047 0)"/>
       <use xlink:href="#DejaVuSans-30" transform="translate(95.410156 0)"/>
       <use xlink:href="#DejaVuSans-30" transform="translate(159.033203 0)"/>
       <use xlink:href="#DejaVuSans-30" transform="translate(222.65625 0)"/>
       <use xlink:href="#DejaVuSans-30" transform="translate(286.279297 0)"/>
      </g>
     </g>
    </g>
    <g id="ytick_6">
     <g id="line2d_11">
      <g>
       <use xlink:href="#mf602111e48" x="57.6" y="84.799602" style="stroke: #000000; stroke-width: 0.8"/>
      </g>
     </g>
     <g id="text_12">
      <!-- 0.0002 -->
      <g transform="translate(1.613125 90.118508) scale(0.14 -0.14)">
       <use xlink:href="#DejaVuSans-30"/>
       <use xlink:href="#DejaVuSans-2e" transform="translate(63.623047 0)"/>
       <use xlink:href="#DejaVuSans-30" transform="translate(95.410156 0)"/>
       <use xlink:href="#DejaVuSans-30" transform="translate(159.033203 0)"/>
       <use xlink:href="#DejaVuSans-30" transform="translate(222.65625 0)"/>
       <use xlink:href="#DejaVuSans-32" transform="translate(286.279297 0)"/>
      </g>
     </g>
    </g>
    <g id="ytick_7">
     <g id="line2d_12">
      <g>
       <use xlink:href="#mf602111e48" x="57.6" y="45.509031" style="stroke: #000000; stroke-width: 0.8"/>
      </g>
     </g>
     <g id="text_13">
      <!-- 0.0004 -->
      <g transform="translate(1.613125 50.827937) scale(0.14 -0.14)">
       <use xlink:href="#DejaVuSans-30"/>
       <use xlink:href="#DejaVuSans-2e" transform="translate(63.623047 0)"/>
       <use xlink:href="#DejaVuSans-30" transform="translate(95.410156 0)"/>
       <use xlink:href="#DejaVuSans-30" transform="translate(159.033203 0)"/>
       <use xlink:href="#DejaVuSans-30" transform="translate(222.65625 0)"/>
       <use xlink:href="#DejaVuSans-34" transform="translate(286.279297 0)"/>
      </g>
     </g>
    </g>
    <g id="text_14">
     <!-- $(F_p + F_{\bigstar})/F_{\bigstar}$ -->
     <g transform="translate(-18.458438 215.548) rotate(-90) scale(0.14 -0.14)">
      <defs>
       <path id="DejaVuSans-28" d="M 1984 4856 
Q 1566 4138 1362 3434 
Q 1159 2731 1159 2009 
Q 1159 1288 1364 580 
Q 1569 -128 1984 -844 
L 1484 -844 
Q 1016 -109 783 600 
Q 550 1309 550 2009 
Q 550 2706 781 3412 
Q 1013 4119 1484 4856 
L 1984 4856 
z
" transform="scale(0.015625)"/>
       <path id="DejaVuSans-Oblique-46" d="M 1081 4666 
L 3756 4666 
L 3653 4134 
L 1606 4134 
L 1338 2759 
L 3188 2759 
L 3084 2228 
L 1234 2228 
L 800 0 
L 172 0 
L 1081 4666 
z
" transform="scale(0.015625)"/>
       <path id="DejaVuSans-Oblique-70" d="M 3175 2156 
Q 3175 2616 2975 2859 
Q 2775 3103 2400 3103 
Q 2144 3103 1911 2972 
Q 1678 2841 1497 2591 
Q 1319 2344 1212 1994 
Q 1106 1644 1106 1300 
Q 1106 863 1306 627 
Q 1506 391 1875 391 
Q 2147 391 2380 519 
Q 2613 647 2778 891 
Q 2956 1147 3065 1494 
Q 3175 1841 3175 2156 
z
M 1394 2969 
Q 1625 3272 1939 3428 
Q 2253 3584 2638 3584 
Q 3175 3584 3472 3232 
Q 3769 2881 3769 2247 
Q 3769 1728 3584 1258 
Q 3400 788 3053 416 
Q 2822 169 2531 39 
Q 2241 -91 1919 -91 
Q 1547 -91 1294 64 
Q 1041 219 916 525 
L 556 -1331 
L -19 -1331 
L 922 3500 
L 1497 3500 
L 1394 2969 
z
" transform="scale(0.015625)"/>
       <path id="DejaVuSans-2b" d="M 2944 4013 
L 2944 2272 
L 4684 2272 
L 4684 1741 
L 2944 1741 
L 2944 0 
L 2419 0 
L 2419 1741 
L 678 1741 
L 678 2272 
L 2419 2272 
L 2419 4013 
L 2944 4013 
z
" transform="scale(0.015625)"/>
       <path id="DejaVuSans-2605" d="M 416 2850 
L 2288 2850 
L 2869 4628 
L 3453 2850 
L 5322 2850 
L 3809 1747 
L 4391 -28 
L 2869 1072 
L 1350 -28 
L 1928 1747 
L 416 2850 
z
" transform="scale(0.015625)"/>
       <path id="DejaVuSans-29" d="M 513 4856 
L 1013 4856 
Q 1481 4119 1714 3412 
Q 1947 2706 1947 2009 
Q 1947 1309 1714 600 
Q 1481 -109 1013 -844 
L 513 -844 
Q 928 -128 1133 580 
Q 1338 1288 1338 2009 
Q 1338 2731 1133 3434 
Q 928 4138 513 4856 
z
" transform="scale(0.015625)"/>
       <path id="DejaVuSans-2f" d="M 1625 4666 
L 2156 4666 
L 531 -594 
L 0 -594 
L 1625 4666 
z
" transform="scale(0.015625)"/>
      </defs>
      <use xlink:href="#DejaVuSans-28" transform="translate(0 0.125)"/>
      <use xlink:href="#DejaVuSans-Oblique-46" transform="translate(39.013672 0.125)"/>
      <use xlink:href="#DejaVuSans-Oblique-70" transform="translate(96.533203 -16.28125) scale(0.7)"/>
      <use xlink:href="#DejaVuSans-2b" transform="translate(163.183594 0.125)"/>
      <use xlink:href="#DejaVuSans-Oblique-46" transform="translate(266.455078 0.125)"/>
      <use xlink:href="#DejaVuSans-2605" transform="translate(323.974609 -16.28125) scale(0.7)"/>
      <use xlink:href="#DejaVuSans-29" transform="translate(389.462891 0.125)"/>
      <use xlink:href="#DejaVuSans-2f" transform="translate(428.476562 0.125)"/>
      <use xlink:href="#DejaVuSans-Oblique-46" transform="translate(462.167969 0.125)"/>
      <use xlink:href="#DejaVuSans-2605" transform="translate(519.6875 -16.28125) scale(0.7)"/>
     </g>
    </g>
    <g id="text_15">
     <!-- +1 -->
     <g transform="translate(57.6 38.472) scale(0.14 -0.14)">
      <use xlink:href="#DejaVuSans-2b"/>
      <use xlink:href="#DejaVuSans-31" transform="translate(83.789062 0)"/>
     </g>
    </g>
   </g>
   <g id="patch_3">
    <path d="M 57.6 307.584 
L 57.6 41.472 
" style="fill: none; stroke: #000000; stroke-width: 0.8; stroke-linejoin: miter; stroke-linecap: square"/>
   </g>
   <g id="patch_4">
    <path d="M 414.72 307.584 
L 414.72 41.472 
" style="fill: none; stroke: #000000; stroke-width: 0.8; stroke-linejoin: miter; stroke-linecap: square"/>
   </g>
   <g id="patch_5">
    <path d="M 57.6 307.584 
L 414.72 307.584 
" style="fill: none; stroke: #000000; stroke-width: 0.8; stroke-linejoin: miter; stroke-linecap: square"/>
   </g>
   <g id="patch_6">
    <path d="M 57.6 41.472 
L 414.72 41.472 
" style="fill: none; stroke: #000000; stroke-width: 0.8; stroke-linejoin: miter; stroke-linecap: square"/>
   </g>
   <g id="LineCollection_1">
    <path d="M 75.550728 155.939415 
L 75.550728 106.219912 
" clip-path="url(#p5b5276ad2f)" style="fill: none; stroke: #ff8000; stroke-width: 1.5"/>
    <path d="M 78.987418 159.598803 
L 78.987418 109.869329 
" clip-path="url(#p5b5276ad2f)" style="fill: none; stroke: #ff8000; stroke-width: 1.5"/>
    <path d="M 82.423419 165.69444 
L 82.423419 115.964966 
" clip-path="url(#p5b5276ad2f)" style="fill: none; stroke: #ff8000; stroke-width: 1.5"/>
    <path d="M 85.85942 126.498098 
L 85.85942 76.768624 
" clip-path="url(#p5b5276ad2f)" style="fill: none; stroke: #ff8000; stroke-width: 1.5"/>
    <path d="M 89.295421 178.717001 
L 89.295421 128.987527 
" clip-path="url(#p5b5276ad2f)" style="fill: none; stroke: #ff8000; stroke-width: 1.5"/>
    <path d="M 92.731422 147.784774 
L 92.731422 98.055299 
" clip-path="url(#p5b5276ad2f)" style="fill: none; stroke: #ff8000; stroke-width: 1.5"/>
    <path d="M 96.167423 158.196261 
L 96.167423 108.466786 
" clip-path="url(#p5b5276ad2f)" style="fill: none; stroke: #ff8000; stroke-width: 1.5"/>
    <path d="M 99.603424 179.785962 
L 99.603424 130.056488 
" clip-path="url(#p5b5276ad2f)" style="fill: none; stroke: #ff8000; stroke-width: 1.5"/>
    <path d="M 103.039425 202.667496 
L 103.039425 152.938022 
" clip-path="url(#p5b5276ad2f)" style="fill: none; stroke: #ff8000; stroke-width: 1.5"/>
    <path d="M 106.475426 140.003774 
L 106.475426 90.2743 
" clip-path="url(#p5b5276ad2f)" style="fill: none; stroke: #ff8000; stroke-width: 1.5"/>
    <path d="M 109.911427 152.77164 
L 109.911427 103.042165 
" clip-path="url(#p5b5276ad2f)" style="fill: none; stroke: #ff8000; stroke-width: 1.5"/>
    <path d="M 113.347428 167.551812 
L 113.347428 117.822337 
" clip-path="url(#p5b5276ad2f)" style="fill: none; stroke: #ff8000; stroke-width: 1.5"/>
    <path d="M 116.783429 123.539373 
L 116.783429 73.809899 
" clip-path="url(#p5b5276ad2f)" style="fill: none; stroke: #ff8000; stroke-width: 1.5"/>
    <path d="M 120.21943 126.541796 
L 120.21943 76.812322 
" clip-path="url(#p5b5276ad2f)" style="fill: none; stroke: #ff8000; stroke-width: 1.5"/>
    <path d="M 123.655431 194.162556 
L 123.655431 144.433082 
" clip-path="url(#p5b5276ad2f)" style="fill: none; stroke: #ff8000; stroke-width: 1.5"/>
    <path d="M 127.091432 108.731113 
L 127.091432 59.001639 
" clip-path="url(#p5b5276ad2f)" style="fill: none; stroke: #ff8000; stroke-width: 1.5"/>
    <path d="M 130.527433 143.509801 
L 130.527433 93.780327 
" clip-path="url(#p5b5276ad2f)" style="fill: none; stroke: #ff8000; stroke-width: 1.5"/>
    <path d="M 133.963434 177.837429 
L 133.963434 128.107955 
" clip-path="url(#p5b5276ad2f)" style="fill: none; stroke: #ff8000; stroke-width: 1.5"/>
    <path d="M 137.399435 154.011075 
L 137.399435 104.281601 
" clip-path="url(#p5b5276ad2f)" style="fill: none; stroke: #ff8000; stroke-width: 1.5"/>
    <path d="M 140.835436 128.010497 
L 140.835436 78.281023 
" clip-path="url(#p5b5276ad2f)" style="fill: none; stroke: #ff8000; stroke-width: 1.5"/>
    <path d="M 144.271437 118.411536 
L 144.271437 68.682062 
" clip-path="url(#p5b5276ad2f)" style="fill: none; stroke: #ff8000; stroke-width: 1.5"/>
    <path d="M 147.707438 146.503899 
L 147.707438 96.774425 
" clip-path="url(#p5b5276ad2f)" style="fill: none; stroke: #ff8000; stroke-width: 1.5"/>
    <path d="M 151.143439 147.661348 
L 151.143439 97.931874 
" clip-path="url(#p5b5276ad2f)" style="fill: none; stroke: #ff8000; stroke-width: 1.5"/>
    <path d="M 154.57944 161.994625 
L 154.57944 112.265151 
" clip-path="url(#p5b5276ad2f)" style="fill: none; stroke: #ff8000; stroke-width: 1.5"/>
    <path d="M 158.015441 164.456637 
L 158.015441 114.727163 
" clip-path="url(#p5b5276ad2f)" style="fill: none; stroke: #ff8000; stroke-width: 1.5"/>
    <path d="M 161.451442 154.315672 
L 161.451442 104.586198 
" clip-path="url(#p5b5276ad2f)" style="fill: none; stroke: #ff8000; stroke-width: 1.5"/>
    <path d="M 164.887443 170.0691 
L 164.887443 120.339626 
" clip-path="url(#p5b5276ad2f)" style="fill: none; stroke: #ff8000; stroke-width: 1.5"/>
    <path d="M 168.323444 144.675268 
L 168.323444 94.945793 
" clip-path="url(#p5b5276ad2f)" style="fill: none; stroke: #ff8000; stroke-width: 1.5"/>
    <path d="M 171.759445 140.082646 
L 171.759445 90.353172 
" clip-path="url(#p5b5276ad2f)" style="fill: none; stroke: #ff8000; stroke-width: 1.5"/>
    <path d="M 175.195446 157.157378 
L 175.195446 107.427904 
" clip-path="url(#p5b5276ad2f)" style="fill: none; stroke: #ff8000; stroke-width: 1.5"/>
    <path d="M 178.631447 158.939749 
L 178.631447 109.210275 
" clip-path="url(#p5b5276ad2f)" style="fill: none; stroke: #ff8000; stroke-width: 1.5"/>
    <path d="M 182.067448 150.214618 
L 182.067448 100.485143 
" clip-path="url(#p5b5276ad2f)" style="fill: none; stroke: #ff8000; stroke-width: 1.5"/>
    <path d="M 185.503449 129.756064 
L 185.503449 80.02659 
" clip-path="url(#p5b5276ad2f)" style="fill: none; stroke: #ff8000; stroke-width: 1.5"/>
    <path d="M 188.93945 160.201772 
L 188.93945 110.472298 
" clip-path="url(#p5b5276ad2f)" style="fill: none; stroke: #ff8000; stroke-width: 1.5"/>
    <path d="M 192.375451 183.753381 
L 192.375451 134.023907 
" clip-path="url(#p5b5276ad2f)" style="fill: none; stroke: #ff8000; stroke-width: 1.5"/>
    <path d="M 195.811452 136.68352 
L 195.811452 86.954046 
" clip-path="url(#p5b5276ad2f)" style="fill: none; stroke: #ff8000; stroke-width: 1.5"/>
    <path d="M 199.247453 161.397419 
L 199.247453 111.667945 
" clip-path="url(#p5b5276ad2f)" style="fill: none; stroke: #ff8000; stroke-width: 1.5"/>
    <path d="M 202.683454 158.522043 
L 202.683454 108.792569 
" clip-path="url(#p5b5276ad2f)" style="fill: none; stroke: #ff8000; stroke-width: 1.5"/>
    <path d="M 206.119455 146.880036 
L 206.119455 97.150562 
" clip-path="url(#p5b5276ad2f)" style="fill: none; stroke: #ff8000; stroke-width: 1.5"/>
    <path d="M 209.555456 169.611267 
L 209.555456 119.881793 
" clip-path="url(#p5b5276ad2f)" style="fill: none; stroke: #ff8000; stroke-width: 1.5"/>
    <path d="M 212.991457 139.617378 
L 212.991457 89.887904 
" clip-path="url(#p5b5276ad2f)" style="fill: none; stroke: #ff8000; stroke-width: 1.5"/>
    <path d="M 216.427458 144.667662 
L 216.427458 94.938188 
" clip-path="url(#p5b5276ad2f)" style="fill: none; stroke: #ff8000; stroke-width: 1.5"/>
    <path d="M 219.863459 146.819017 
L 219.863459 97.089543 
" clip-path="url(#p5b5276ad2f)" style="fill: none; stroke: #ff8000; stroke-width: 1.5"/>
    <path d="M 223.29946 174.240162 
L 223.29946 124.510687 
" clip-path="url(#p5b5276ad2f)" style="fill: none; stroke: #ff8000; stroke-width: 1.5"/>
    <path d="M 226.735461 208.756574 
L 226.735461 159.0271 
" clip-path="url(#p5b5276ad2f)" style="fill: none; stroke: #ff8000; stroke-width: 1.5"/>
    <path d="M 230.171462 228.66248 
L 230.171462 178.933005 
" clip-path="url(#p5b5276ad2f)" style="fill: none; stroke: #ff8000; stroke-width: 1.5"/>
    <path d="M 233.607463 295.488 
L 233.607463 245.758526 
" clip-path="url(#p5b5276ad2f)" style="fill: none; stroke: #ff8000; stroke-width: 1.5"/>
    <path d="M 237.043464 223.034987 
L 237.043464 173.305513 
" clip-path="url(#p5b5276ad2f)" style="fill: none; stroke: #ff8000; stroke-width: 1.5"/>
    <path d="M 240.479465 277.116277 
L 240.479465 227.386802 
" clip-path="url(#p5b5276ad2f)" style="fill: none; stroke: #ff8000; stroke-width: 1.5"/>
    <path d="M 243.915466 244.426941 
L 243.915466 194.697467 
" clip-path="url(#p5b5276ad2f)" style="fill: none; stroke: #ff8000; stroke-width: 1.5"/>
    <path d="M 247.351467 202.458918 
L 247.351467 152.729444 
" clip-path="url(#p5b5276ad2f)" style="fill: none; stroke: #ff8000; stroke-width: 1.5"/>
    <path d="M 250.787468 132.623094 
L 250.787468 82.89362 
" clip-path="url(#p5b5276ad2f)" style="fill: none; stroke: #ff8000; stroke-width: 1.5"/>
    <path d="M 254.223469 208.846335 
L 254.223469 159.116861 
" clip-path="url(#p5b5276ad2f)" style="fill: none; stroke: #ff8000; stroke-width: 1.5"/>
    <path d="M 257.65947 141.810302 
L 257.65947 92.080828 
" clip-path="url(#p5b5276ad2f)" style="fill: none; stroke: #ff8000; stroke-width: 1.5"/>
    <path d="M 261.095471 196.818816 
L 261.095471 147.089342 
" clip-path="url(#p5b5276ad2f)" style="fill: none; stroke: #ff8000; stroke-width: 1.5"/>
    <path d="M 264.531472 155.19799 
L 264.531472 105.468515 
" clip-path="url(#p5b5276ad2f)" style="fill: none; stroke: #ff8000; stroke-width: 1.5"/>
    <path d="M 267.967473 167.322736 
L 267.967473 117.593261 
" clip-path="url(#p5b5276ad2f)" style="fill: none; stroke: #ff8000; stroke-width: 1.5"/>
    <path d="M 271.403474 154.474795 
L 271.403474 104.745321 
" clip-path="url(#p5b5276ad2f)" style="fill: none; stroke: #ff8000; stroke-width: 1.5"/>
    <path d="M 274.839475 156.256331 
L 274.839475 106.526856 
" clip-path="url(#p5b5276ad2f)" style="fill: none; stroke: #ff8000; stroke-width: 1.5"/>
    <path d="M 278.275476 152.631058 
L 278.275476 102.901583 
" clip-path="url(#p5b5276ad2f)" style="fill: none; stroke: #ff8000; stroke-width: 1.5"/>
    <path d="M 281.711477 195.554114 
L 281.711477 145.824639 
" clip-path="url(#p5b5276ad2f)" style="fill: none; stroke: #ff8000; stroke-width: 1.5"/>
    <path d="M 285.147478 155.178391 
L 285.147478 105.448916 
" clip-path="url(#p5b5276ad2f)" style="fill: none; stroke: #ff8000; stroke-width: 1.5"/>
    <path d="M 288.58348 151.832644 
L 288.58348 102.10317 
" clip-path="url(#p5b5276ad2f)" style="fill: none; stroke: #ff8000; stroke-width: 1.5"/>
    <path d="M 292.019481 166.161178 
L 292.019481 116.431704 
" clip-path="url(#p5b5276ad2f)" style="fill: none; stroke: #ff8000; stroke-width: 1.5"/>
    <path d="M 295.456171 170.074315 
L 295.456171 120.354811 
" clip-path="url(#p5b5276ad2f)" style="fill: none; stroke: #ff8000; stroke-width: 1.5"/>
    <path d="M 298.892861 159.045762 
L 298.892861 109.316288 
" clip-path="url(#p5b5276ad2f)" style="fill: none; stroke: #ff8000; stroke-width: 1.5"/>
    <path d="M 302.328862 193.095815 
L 302.328862 143.366341 
" clip-path="url(#p5b5276ad2f)" style="fill: none; stroke: #ff8000; stroke-width: 1.5"/>
    <path d="M 305.764863 183.569319 
L 305.764863 133.839845 
" clip-path="url(#p5b5276ad2f)" style="fill: none; stroke: #ff8000; stroke-width: 1.5"/>
    <path d="M 309.200864 123.373748 
L 309.200864 73.644274 
" clip-path="url(#p5b5276ad2f)" style="fill: none; stroke: #ff8000; stroke-width: 1.5"/>
    <path d="M 312.636865 142.946773 
L 312.636865 93.217299 
" clip-path="url(#p5b5276ad2f)" style="fill: none; stroke: #ff8000; stroke-width: 1.5"/>
    <path d="M 316.072866 168.353897 
L 316.072866 118.624422 
" clip-path="url(#p5b5276ad2f)" style="fill: none; stroke: #ff8000; stroke-width: 1.5"/>
    <path d="M 319.508867 204.057743 
L 319.508867 154.328269 
" clip-path="url(#p5b5276ad2f)" style="fill: none; stroke: #ff8000; stroke-width: 1.5"/>
    <path d="M 322.944868 104.60531 
L 322.944868 54.875836 
" clip-path="url(#p5b5276ad2f)" style="fill: none; stroke: #ff8000; stroke-width: 1.5"/>
    <path d="M 326.380869 189.870182 
L 326.380869 140.140707 
" clip-path="url(#p5b5276ad2f)" style="fill: none; stroke: #ff8000; stroke-width: 1.5"/>
    <path d="M 329.81687 140.095093 
L 329.81687 90.365619 
" clip-path="url(#p5b5276ad2f)" style="fill: none; stroke: #ff8000; stroke-width: 1.5"/>
    <path d="M 333.252871 153.351382 
L 333.252871 103.621908 
" clip-path="url(#p5b5276ad2f)" style="fill: none; stroke: #ff8000; stroke-width: 1.5"/>
    <path d="M 336.688872 185.68697 
L 336.688872 135.957496 
" clip-path="url(#p5b5276ad2f)" style="fill: none; stroke: #ff8000; stroke-width: 1.5"/>
    <path d="M 340.124873 182.449244 
L 340.124873 132.719769 
" clip-path="url(#p5b5276ad2f)" style="fill: none; stroke: #ff8000; stroke-width: 1.5"/>
    <path d="M 343.560874 165.310123 
L 343.560874 115.580648 
" clip-path="url(#p5b5276ad2f)" style="fill: none; stroke: #ff8000; stroke-width: 1.5"/>
    <path d="M 346.996875 164.164752 
L 346.996875 114.435278 
" clip-path="url(#p5b5276ad2f)" style="fill: none; stroke: #ff8000; stroke-width: 1.5"/>
    <path d="M 350.432876 173.916825 
L 350.432876 124.187351 
" clip-path="url(#p5b5276ad2f)" style="fill: none; stroke: #ff8000; stroke-width: 1.5"/>
    <path d="M 353.868877 187.480814 
L 353.868877 137.75134 
" clip-path="url(#p5b5276ad2f)" style="fill: none; stroke: #ff8000; stroke-width: 1.5"/>
    <path d="M 357.304878 162.356545 
L 357.304878 112.627071 
" clip-path="url(#p5b5276ad2f)" style="fill: none; stroke: #ff8000; stroke-width: 1.5"/>
    <path d="M 360.740879 138.83549 
L 360.740879 89.106016 
" clip-path="url(#p5b5276ad2f)" style="fill: none; stroke: #ff8000; stroke-width: 1.5"/>
    <path d="M 364.17688 134.566663 
L 364.17688 84.837189 
" clip-path="url(#p5b5276ad2f)" style="fill: none; stroke: #ff8000; stroke-width: 1.5"/>
    <path d="M 367.612881 162.160519 
L 367.612881 112.431044 
" clip-path="url(#p5b5276ad2f)" style="fill: none; stroke: #ff8000; stroke-width: 1.5"/>
    <path d="M 371.048882 140.042197 
L 371.048882 90.312723 
" clip-path="url(#p5b5276ad2f)" style="fill: none; stroke: #ff8000; stroke-width: 1.5"/>
    <path d="M 374.484883 169.509669 
L 374.484883 119.780195 
" clip-path="url(#p5b5276ad2f)" style="fill: none; stroke: #ff8000; stroke-width: 1.5"/>
    <path d="M 377.920884 103.297474 
L 377.920884 53.568 
" clip-path="url(#p5b5276ad2f)" style="fill: none; stroke: #ff8000; stroke-width: 1.5"/>
    <path d="M 381.356885 171.641065 
L 381.356885 121.911591 
" clip-path="url(#p5b5276ad2f)" style="fill: none; stroke: #ff8000; stroke-width: 1.5"/>
    <path d="M 384.792886 147.907894 
L 384.792886 98.17842 
" clip-path="url(#p5b5276ad2f)" style="fill: none; stroke: #ff8000; stroke-width: 1.5"/>
    <path d="M 388.228887 132.504551 
L 388.228887 82.775077 
" clip-path="url(#p5b5276ad2f)" style="fill: none; stroke: #ff8000; stroke-width: 1.5"/>
    <path d="M 391.664888 153.819766 
L 391.664888 104.090292 
" clip-path="url(#p5b5276ad2f)" style="fill: none; stroke: #ff8000; stroke-width: 1.5"/>
    <path d="M 395.100889 193.428705 
L 395.100889 143.69923 
" clip-path="url(#p5b5276ad2f)" style="fill: none; stroke: #ff8000; stroke-width: 1.5"/>
    <path d="M 397.653426 167.712531 
L 397.653426 96.36106 
" clip-path="url(#p5b5276ad2f)" style="fill: none; stroke: #ff8000; stroke-width: 1.5"/>
   </g>
   <g id="text_16">
    <!-- Phase curve at $\lambda$ = 0.7 $\mu$m with FGS1 -->
    <g transform="translate(87.04 35.472) scale(0.16 -0.16)">
     <defs>
      <path id="DejaVuSans-50" d="M 1259 4147 
L 1259 2394 
L 2053 2394 
Q 2494 2394 2734 2622 
Q 2975 2850 2975 3272 
Q 2975 3691 2734 3919 
Q 2494 4147 2053 4147 
L 1259 4147 
z
M 628 4666 
L 2053 4666 
Q 2838 4666 3239 4311 
Q 3641 3956 3641 3272 
Q 3641 2581 3239 2228 
Q 2838 1875 2053 1875 
L 1259 1875 
L 1259 0 
L 628 0 
L 628 4666 
z
" transform="scale(0.015625)"/>
      <path id="DejaVuSans-68" d="M 3513 2113 
L 3513 0 
L 2938 0 
L 2938 2094 
Q 2938 2591 2744 2837 
Q 2550 3084 2163 3084 
Q 1697 3084 1428 2787 
Q 1159 2491 1159 1978 
L 1159 0 
L 581 0 
L 581 4863 
L 1159 4863 
L 1159 2956 
Q 1366 3272 1645 3428 
Q 1925 3584 2291 3584 
Q 2894 3584 3203 3211 
Q 3513 2838 3513 2113 
z
" transform="scale(0.015625)"/>
      <path id="DejaVuSans-61" d="M 2194 1759 
Q 1497 1759 1228 1600 
Q 959 1441 959 1056 
Q 959 750 1161 570 
Q 1363 391 1709 391 
Q 2188 391 2477 730 
Q 2766 1069 2766 1631 
L 2766 1759 
L 2194 1759 
z
M 3341 1997 
L 3341 0 
L 2766 0 
L 2766 531 
Q 2569 213 2275 61 
Q 1981 -91 1556 -91 
Q 1019 -91 701 211 
Q 384 513 384 1019 
Q 384 1609 779 1909 
Q 1175 2209 1959 2209 
L 2766 2209 
L 2766 2266 
Q 2766 2663 2505 2880 
Q 2244 3097 1772 3097 
Q 1472 3097 1187 3025 
Q 903 2953 641 2809 
L 641 3341 
Q 956 3463 1253 3523 
Q 1550 3584 1831 3584 
Q 2591 3584 2966 3190 
Q 3341 2797 3341 1997 
z
" transform="scale(0.015625)"/>
      <path id="DejaVuSans-73" d="M 2834 3397 
L 2834 2853 
Q 2591 2978 2328 3040 
Q 2066 3103 1784 3103 
Q 1356 3103 1142 2972 
Q 928 2841 928 2578 
Q 928 2378 1081 2264 
Q 1234 2150 1697 2047 
L 1894 2003 
Q 2506 1872 2764 1633 
Q 3022 1394 3022 966 
Q 3022 478 2636 193 
Q 2250 -91 1575 -91 
Q 1294 -91 989 -36 
Q 684 19 347 128 
L 347 722 
Q 666 556 975 473 
Q 1284 391 1588 391 
Q 1994 391 2212 530 
Q 2431 669 2431 922 
Q 2431 1156 2273 1281 
Q 2116 1406 1581 1522 
L 1381 1569 
Q 847 1681 609 1914 
Q 372 2147 372 2553 
Q 372 3047 722 3315 
Q 1072 3584 1716 3584 
Q 2034 3584 2315 3537 
Q 2597 3491 2834 3397 
z
" transform="scale(0.015625)"/>
      <path id="DejaVuSans-65" d="M 3597 1894 
L 3597 1613 
L 953 1613 
Q 991 1019 1311 708 
Q 1631 397 2203 397 
Q 2534 397 2845 478 
Q 3156 559 3463 722 
L 3463 178 
Q 3153 47 2828 -22 
Q 2503 -91 2169 -91 
Q 1331 -91 842 396 
Q 353 884 353 1716 
Q 353 2575 817 3079 
Q 1281 3584 2069 3584 
Q 2775 3584 3186 3129 
Q 3597 2675 3597 1894 
z
M 3022 2063 
Q 3016 2534 2758 2815 
Q 2500 3097 2075 3097 
Q 1594 3097 1305 2825 
Q 1016 2553 972 2059 
L 3022 2063 
z
" transform="scale(0.015625)"/>
      <path id="DejaVuSans-63" d="M 3122 3366 
L 3122 2828 
Q 2878 2963 2633 3030 
Q 2388 3097 2138 3097 
Q 1578 3097 1268 2742 
Q 959 2388 959 1747 
Q 959 1106 1268 751 
Q 1578 397 2138 397 
Q 2388 397 2633 464 
Q 2878 531 3122 666 
L 3122 134 
Q 2881 22 2623 -34 
Q 2366 -91 2075 -91 
Q 1284 -91 818 406 
Q 353 903 353 1747 
Q 353 2603 823 3093 
Q 1294 3584 2113 3584 
Q 2378 3584 2631 3529 
Q 2884 3475 3122 3366 
z
" transform="scale(0.015625)"/>
      <path id="DejaVuSans-75" d="M 544 1381 
L 544 3500 
L 1119 3500 
L 1119 1403 
Q 1119 906 1312 657 
Q 1506 409 1894 409 
Q 2359 409 2629 706 
Q 2900 1003 2900 1516 
L 2900 3500 
L 3475 3500 
L 3475 0 
L 2900 0 
L 2900 538 
Q 2691 219 2414 64 
Q 2138 -91 1772 -91 
Q 1169 -91 856 284 
Q 544 659 544 1381 
z
M 1991 3584 
L 1991 3584 
z
" transform="scale(0.015625)"/>
      <path id="DejaVuSans-72" d="M 2631 2963 
Q 2534 3019 2420 3045 
Q 2306 3072 2169 3072 
Q 1681 3072 1420 2755 
Q 1159 2438 1159 1844 
L 1159 0 
L 581 0 
L 581 3500 
L 1159 3500 
L 1159 2956 
Q 1341 3275 1631 3429 
Q 1922 3584 2338 3584 
Q 2397 3584 2469 3576 
Q 2541 3569 2628 3553 
L 2631 2963 
z
" transform="scale(0.015625)"/>
      <path id="DejaVuSans-76" d="M 191 3500 
L 800 3500 
L 1894 563 
L 2988 3500 
L 3597 3500 
L 2284 0 
L 1503 0 
L 191 3500 
z
" transform="scale(0.015625)"/>
      <path id="DejaVuSans-74" d="M 1172 4494 
L 1172 3500 
L 2356 3500 
L 2356 3053 
L 1172 3053 
L 1172 1153 
Q 1172 725 1289 603 
Q 1406 481 1766 481 
L 2356 481 
L 2356 0 
L 1766 0 
Q 1100 0 847 248 
Q 594 497 594 1153 
L 594 3053 
L 172 3053 
L 172 3500 
L 594 3500 
L 594 4494 
L 1172 4494 
z
" transform="scale(0.015625)"/>
      <path id="DejaVuSans-Oblique-3bb" d="M 2350 4316 
L 3125 0 
L 2516 0 
L 2038 2588 
L 328 0 
L -281 0 
L 1903 3356 
L 1794 3975 
Q 1725 4369 1391 4369 
L 1091 4369 
L 1184 4863 
L 1550 4856 
Q 2253 4847 2350 4316 
z
" transform="scale(0.015625)"/>
      <path id="DejaVuSans-3d" d="M 678 2906 
L 4684 2906 
L 4684 2381 
L 678 2381 
L 678 2906 
z
M 678 1631 
L 4684 1631 
L 4684 1100 
L 678 1100 
L 678 1631 
z
" transform="scale(0.015625)"/>
      <path id="DejaVuSans-Oblique-3bc" d="M -84 -1331 
L 856 3500 
L 1434 3500 
L 1009 1322 
Q 997 1256 987 1175 
Q 978 1094 978 1013 
Q 978 722 1161 565 
Q 1344 409 1684 409 
Q 2147 409 2431 671 
Q 2716 934 2816 1459 
L 3213 3500 
L 3788 3500 
L 3266 809 
Q 3253 750 3248 706 
Q 3244 663 3244 628 
Q 3244 531 3283 486 
Q 3322 441 3406 441 
Q 3438 441 3492 456 
Q 3547 472 3647 513 
L 3559 50 
Q 3422 -19 3297 -55 
Q 3172 -91 3053 -91 
Q 2847 -91 2730 40 
Q 2613 172 2613 403 
Q 2438 153 2195 31 
Q 1953 -91 1625 -91 
Q 1334 -91 1117 43 
Q 900 178 831 397 
L 494 -1331 
L -84 -1331 
z
" transform="scale(0.015625)"/>
      <path id="DejaVuSans-6d" d="M 3328 2828 
Q 3544 3216 3844 3400 
Q 4144 3584 4550 3584 
Q 5097 3584 5394 3201 
Q 5691 2819 5691 2113 
L 5691 0 
L 5113 0 
L 5113 2094 
Q 5113 2597 4934 2840 
Q 4756 3084 4391 3084 
Q 3944 3084 3684 2787 
Q 3425 2491 3425 1978 
L 3425 0 
L 2847 0 
L 2847 2094 
Q 2847 2600 2669 2842 
Q 2491 3084 2119 3084 
Q 1678 3084 1418 2786 
Q 1159 2488 1159 1978 
L 1159 0 
L 581 0 
L 581 3500 
L 1159 3500 
L 1159 2956 
Q 1356 3278 1631 3431 
Q 1906 3584 2284 3584 
Q 2666 3584 2933 3390 
Q 3200 3197 3328 2828 
z
" transform="scale(0.015625)"/>
      <path id="DejaVuSans-77" d="M 269 3500 
L 844 3500 
L 1563 769 
L 2278 3500 
L 2956 3500 
L 3675 769 
L 4391 3500 
L 4966 3500 
L 4050 0 
L 3372 0 
L 2619 2869 
L 1863 0 
L 1184 0 
L 269 3500 
z
" transform="scale(0.015625)"/>
      <path id="DejaVuSans-69" d="M 603 3500 
L 1178 3500 
L 1178 0 
L 603 0 
L 603 3500 
z
M 603 4863 
L 1178 4863 
L 1178 4134 
L 603 4134 
L 603 4863 
z
" transform="scale(0.015625)"/>
      <path id="DejaVuSans-46" d="M 628 4666 
L 3309 4666 
L 3309 4134 
L 1259 4134 
L 1259 2759 
L 3109 2759 
L 3109 2228 
L 1259 2228 
L 1259 0 
L 628 0 
L 628 4666 
z
" transform="scale(0.015625)"/>
      <path id="DejaVuSans-47" d="M 3809 666 
L 3809 1919 
L 2778 1919 
L 2778 2438 
L 4434 2438 
L 4434 434 
Q 4069 175 3628 42 
Q 3188 -91 2688 -91 
Q 1594 -91 976 548 
Q 359 1188 359 2328 
Q 359 3472 976 4111 
Q 1594 4750 2688 4750 
Q 3144 4750 3555 4637 
Q 3966 4525 4313 4306 
L 4313 3634 
Q 3963 3931 3569 4081 
Q 3175 4231 2741 4231 
Q 1884 4231 1454 3753 
Q 1025 3275 1025 2328 
Q 1025 1384 1454 906 
Q 1884 428 2741 428 
Q 3075 428 3337 486 
Q 3600 544 3809 666 
z
" transform="scale(0.015625)"/>
      <path id="DejaVuSans-53" d="M 3425 4513 
L 3425 3897 
Q 3066 4069 2747 4153 
Q 2428 4238 2131 4238 
Q 1616 4238 1336 4038 
Q 1056 3838 1056 3469 
Q 1056 3159 1242 3001 
Q 1428 2844 1947 2747 
L 2328 2669 
Q 3034 2534 3370 2195 
Q 3706 1856 3706 1288 
Q 3706 609 3251 259 
Q 2797 -91 1919 -91 
Q 1588 -91 1214 -16 
Q 841 59 441 206 
L 441 856 
Q 825 641 1194 531 
Q 1563 422 1919 422 
Q 2459 422 2753 634 
Q 3047 847 3047 1241 
Q 3047 1584 2836 1778 
Q 2625 1972 2144 2069 
L 1759 2144 
Q 1053 2284 737 2584 
Q 422 2884 422 3419 
Q 422 4038 858 4394 
Q 1294 4750 2059 4750 
Q 2388 4750 2728 4690 
Q 3069 4631 3425 4513 
z
" transform="scale(0.015625)"/>
     </defs>
     <use xlink:href="#DejaVuSans-50" transform="translate(0 0.015625)"/>
     <use xlink:href="#DejaVuSans-68" transform="translate(60.302734 0.015625)"/>
     <use xlink:href="#DejaVuSans-61" transform="translate(123.681641 0.015625)"/>
     <use xlink:href="#DejaVuSans-73" transform="translate(184.960938 0.015625)"/>
     <use xlink:href="#DejaVuSans-65" transform="translate(237.060547 0.015625)"/>
     <use xlink:href="#DejaVuSans-20" transform="translate(298.583984 0.015625)"/>
     <use xlink:href="#DejaVuSans-63" transform="translate(330.371094 0.015625)"/>
     <use xlink:href="#DejaVuSans-75" transform="translate(385.351562 0.015625)"/>
     <use xlink:href="#DejaVuSans-72" transform="translate(448.730469 0.015625)"/>
     <use xlink:href="#DejaVuSans-76" transform="translate(489.84375 0.015625)"/>
     <use xlink:href="#DejaVuSans-65" transform="translate(549.023438 0.015625)"/>
     <use xlink:href="#DejaVuSans-20" transform="translate(610.546875 0.015625)"/>
     <use xlink:href="#DejaVuSans-61" transform="translate(642.333984 0.015625)"/>
     <use xlink:href="#DejaVuSans-74" transform="translate(703.613281 0.015625)"/>
     <use xlink:href="#DejaVuSans-20" transform="translate(742.822266 0.015625)"/>
     <use xlink:href="#DejaVuSans-Oblique-3bb" transform="translate(774.609375 0.015625)"/>
     <use xlink:href="#DejaVuSans-20" transform="translate(833.789062 0.015625)"/>
     <use xlink:href="#DejaVuSans-3d" transform="translate(865.576172 0.015625)"/>
     <use xlink:href="#DejaVuSans-20" transform="translate(949.365234 0.015625)"/>
     <use xlink:href="#DejaVuSans-30" transform="translate(981.152344 0.015625)"/>
     <use xlink:href="#DejaVuSans-2e" transform="translate(1044.775391 0.015625)"/>
     <use xlink:href="#DejaVuSans-37" transform="translate(1068.8125 0.015625)"/>
     <use xlink:href="#DejaVuSans-20" transform="translate(1132.435547 0.015625)"/>
     <use xlink:href="#DejaVuSans-Oblique-3bc" transform="translate(1164.222656 0.015625)"/>
     <use xlink:href="#DejaVuSans-6d" transform="translate(1227.845703 0.015625)"/>
     <use xlink:href="#DejaVuSans-20" transform="translate(1325.257812 0.015625)"/>
     <use xlink:href="#DejaVuSans-77" transform="translate(1357.044922 0.015625)"/>
     <use xlink:href="#DejaVuSans-69" transform="translate(1438.832031 0.015625)"/>
     <use xlink:href="#DejaVuSans-74" transform="translate(1466.615234 0.015625)"/>
     <use xlink:href="#DejaVuSans-68" transform="translate(1505.824219 0.015625)"/>
     <use xlink:href="#DejaVuSans-20" transform="translate(1569.203125 0.015625)"/>
     <use xlink:href="#DejaVuSans-46" transform="translate(1600.990234 0.015625)"/>
     <use xlink:href="#DejaVuSans-47" transform="translate(1658.509766 0.015625)"/>
     <use xlink:href="#DejaVuSans-53" transform="translate(1736 0.015625)"/>
     <use xlink:href="#DejaVuSans-31" transform="translate(1799.476562 0.015625)"/>
    </g>
   </g>
   <g id="line2d_13">
    <defs>
     <path id="m663cb4b3d2" d="M 0 3 
C 0.795609 3 1.55874 2.683901 2.12132 2.12132 
C 2.683901 1.55874 3 0.795609 3 0 
C 3 -0.795609 2.683901 -1.55874 2.12132 -2.12132 
C 1.55874 -2.683901 0.795609 -3 0 -3 
C -0.795609 -3 -1.55874 -2.683901 -2.12132 -2.12132 
C -2.683901 -1.55874 -3 -0.795609 -3 0 
C -3 0.795609 -2.683901 1.55874 -2.12132 2.12132 
C -1.55874 2.683901 -0.795609 3 0 3 
z
" style="stroke: #ff8000"/>
    </defs>
    <g clip-path="url(#p5b5276ad2f)">
     <use xlink:href="#m663cb4b3d2" x="75.550728" y="131.079664" style="fill: #ff8000; stroke: #ff8000"/>
     <use xlink:href="#m663cb4b3d2" x="78.987418" y="134.734066" style="fill: #ff8000; stroke: #ff8000"/>
     <use xlink:href="#m663cb4b3d2" x="82.423419" y="140.829703" style="fill: #ff8000; stroke: #ff8000"/>
     <use xlink:href="#m663cb4b3d2" x="85.85942" y="101.633361" style="fill: #ff8000; stroke: #ff8000"/>
     <use xlink:href="#m663cb4b3d2" x="89.295421" y="153.852264" style="fill: #ff8000; stroke: #ff8000"/>
     <use xlink:href="#m663cb4b3d2" x="92.731422" y="122.920036" style="fill: #ff8000; stroke: #ff8000"/>
     <use xlink:href="#m663cb4b3d2" x="96.167423" y="133.331524" style="fill: #ff8000; stroke: #ff8000"/>
     <use xlink:href="#m663cb4b3d2" x="99.603424" y="154.921225" style="fill: #ff8000; stroke: #ff8000"/>
     <use xlink:href="#m663cb4b3d2" x="103.039425" y="177.802759" style="fill: #ff8000; stroke: #ff8000"/>
     <use xlink:href="#m663cb4b3d2" x="106.475426" y="115.139037" style="fill: #ff8000; stroke: #ff8000"/>
     <use xlink:href="#m663cb4b3d2" x="109.911427" y="127.906902" style="fill: #ff8000; stroke: #ff8000"/>
     <use xlink:href="#m663cb4b3d2" x="113.347428" y="142.687074" style="fill: #ff8000; stroke: #ff8000"/>
     <use xlink:href="#m663cb4b3d2" x="116.783429" y="98.674636" style="fill: #ff8000; stroke: #ff8000"/>
     <use xlink:href="#m663cb4b3d2" x="120.21943" y="101.677059" style="fill: #ff8000; stroke: #ff8000"/>
     <use xlink:href="#m663cb4b3d2" x="123.655431" y="169.297819" style="fill: #ff8000; stroke: #ff8000"/>
     <use xlink:href="#m663cb4b3d2" x="127.091432" y="83.866376" style="fill: #ff8000; stroke: #ff8000"/>
     <use xlink:href="#m663cb4b3d2" x="130.527433" y="118.645064" style="fill: #ff8000; stroke: #ff8000"/>
     <use xlink:href="#m663cb4b3d2" x="133.963434" y="152.972692" style="fill: #ff8000; stroke: #ff8000"/>
     <use xlink:href="#m663cb4b3d2" x="137.399435" y="129.146338" style="fill: #ff8000; stroke: #ff8000"/>
     <use xlink:href="#m663cb4b3d2" x="140.835436" y="103.14576" style="fill: #ff8000; stroke: #ff8000"/>
     <use xlink:href="#m663cb4b3d2" x="144.271437" y="93.546799" style="fill: #ff8000; stroke: #ff8000"/>
     <use xlink:href="#m663cb4b3d2" x="147.707438" y="121.639162" style="fill: #ff8000; stroke: #ff8000"/>
     <use xlink:href="#m663cb4b3d2" x="151.143439" y="122.796611" style="fill: #ff8000; stroke: #ff8000"/>
     <use xlink:href="#m663cb4b3d2" x="154.57944" y="137.129888" style="fill: #ff8000; stroke: #ff8000"/>
     <use xlink:href="#m663cb4b3d2" x="158.015441" y="139.5919" style="fill: #ff8000; stroke: #ff8000"/>
     <use xlink:href="#m663cb4b3d2" x="161.451442" y="129.450935" style="fill: #ff8000; stroke: #ff8000"/>
     <use xlink:href="#m663cb4b3d2" x="164.887443" y="145.204363" style="fill: #ff8000; stroke: #ff8000"/>
     <use xlink:href="#m663cb4b3d2" x="168.323444" y="119.810531" style="fill: #ff8000; stroke: #ff8000"/>
     <use xlink:href="#m663cb4b3d2" x="171.759445" y="115.217909" style="fill: #ff8000; stroke: #ff8000"/>
     <use xlink:href="#m663cb4b3d2" x="175.195446" y="132.292641" style="fill: #ff8000; stroke: #ff8000"/>
     <use xlink:href="#m663cb4b3d2" x="178.631447" y="134.075012" style="fill: #ff8000; stroke: #ff8000"/>
     <use xlink:href="#m663cb4b3d2" x="182.067448" y="125.349881" style="fill: #ff8000; stroke: #ff8000"/>
     <use xlink:href="#m663cb4b3d2" x="185.503449" y="104.891327" style="fill: #ff8000; stroke: #ff8000"/>
     <use xlink:href="#m663cb4b3d2" x="188.93945" y="135.337035" style="fill: #ff8000; stroke: #ff8000"/>
     <use xlink:href="#m663cb4b3d2" x="192.375451" y="158.888644" style="fill: #ff8000; stroke: #ff8000"/>
     <use xlink:href="#m663cb4b3d2" x="195.811452" y="111.818783" style="fill: #ff8000; stroke: #ff8000"/>
     <use xlink:href="#m663cb4b3d2" x="199.247453" y="136.532682" style="fill: #ff8000; stroke: #ff8000"/>
     <use xlink:href="#m663cb4b3d2" x="202.683454" y="133.657306" style="fill: #ff8000; stroke: #ff8000"/>
     <use xlink:href="#m663cb4b3d2" x="206.119455" y="122.015299" style="fill: #ff8000; stroke: #ff8000"/>
     <use xlink:href="#m663cb4b3d2" x="209.555456" y="144.74653" style="fill: #ff8000; stroke: #ff8000"/>
     <use xlink:href="#m663cb4b3d2" x="212.991457" y="114.752641" style="fill: #ff8000; stroke: #ff8000"/>
     <use xlink:href="#m663cb4b3d2" x="216.427458" y="119.802925" style="fill: #ff8000; stroke: #ff8000"/>
     <use xlink:href="#m663cb4b3d2" x="219.863459" y="121.95428" style="fill: #ff8000; stroke: #ff8000"/>
     <use xlink:href="#m663cb4b3d2" x="223.29946" y="149.375425" style="fill: #ff8000; stroke: #ff8000"/>
     <use xlink:href="#m663cb4b3d2" x="226.735461" y="183.891837" style="fill: #ff8000; stroke: #ff8000"/>
     <use xlink:href="#m663cb4b3d2" x="230.171462" y="203.797742" style="fill: #ff8000; stroke: #ff8000"/>
     <use xlink:href="#m663cb4b3d2" x="233.607463" y="270.623263" style="fill: #ff8000; stroke: #ff8000"/>
     <use xlink:href="#m663cb4b3d2" x="237.043464" y="198.17025" style="fill: #ff8000; stroke: #ff8000"/>
     <use xlink:href="#m663cb4b3d2" x="240.479465" y="252.251539" style="fill: #ff8000; stroke: #ff8000"/>
     <use xlink:href="#m663cb4b3d2" x="243.915466" y="219.562204" style="fill: #ff8000; stroke: #ff8000"/>
     <use xlink:href="#m663cb4b3d2" x="247.351467" y="177.594181" style="fill: #ff8000; stroke: #ff8000"/>
     <use xlink:href="#m663cb4b3d2" x="250.787468" y="107.758357" style="fill: #ff8000; stroke: #ff8000"/>
     <use xlink:href="#m663cb4b3d2" x="254.223469" y="183.981598" style="fill: #ff8000; stroke: #ff8000"/>
     <use xlink:href="#m663cb4b3d2" x="257.65947" y="116.945565" style="fill: #ff8000; stroke: #ff8000"/>
     <use xlink:href="#m663cb4b3d2" x="261.095471" y="171.954079" style="fill: #ff8000; stroke: #ff8000"/>
     <use xlink:href="#m663cb4b3d2" x="264.531472" y="130.333253" style="fill: #ff8000; stroke: #ff8000"/>
     <use xlink:href="#m663cb4b3d2" x="267.967473" y="142.457999" style="fill: #ff8000; stroke: #ff8000"/>
     <use xlink:href="#m663cb4b3d2" x="271.403474" y="129.610058" style="fill: #ff8000; stroke: #ff8000"/>
     <use xlink:href="#m663cb4b3d2" x="274.839475" y="131.391593" style="fill: #ff8000; stroke: #ff8000"/>
     <use xlink:href="#m663cb4b3d2" x="278.275476" y="127.76632" style="fill: #ff8000; stroke: #ff8000"/>
     <use xlink:href="#m663cb4b3d2" x="281.711477" y="170.689377" style="fill: #ff8000; stroke: #ff8000"/>
     <use xlink:href="#m663cb4b3d2" x="285.147478" y="130.313654" style="fill: #ff8000; stroke: #ff8000"/>
     <use xlink:href="#m663cb4b3d2" x="288.58348" y="126.967907" style="fill: #ff8000; stroke: #ff8000"/>
     <use xlink:href="#m663cb4b3d2" x="292.019481" y="141.296441" style="fill: #ff8000; stroke: #ff8000"/>
     <use xlink:href="#m663cb4b3d2" x="295.456171" y="145.214563" style="fill: #ff8000; stroke: #ff8000"/>
     <use xlink:href="#m663cb4b3d2" x="298.892861" y="134.181025" style="fill: #ff8000; stroke: #ff8000"/>
     <use xlink:href="#m663cb4b3d2" x="302.328862" y="168.231078" style="fill: #ff8000; stroke: #ff8000"/>
     <use xlink:href="#m663cb4b3d2" x="305.764863" y="158.704582" style="fill: #ff8000; stroke: #ff8000"/>
     <use xlink:href="#m663cb4b3d2" x="309.200864" y="98.509011" style="fill: #ff8000; stroke: #ff8000"/>
     <use xlink:href="#m663cb4b3d2" x="312.636865" y="118.082036" style="fill: #ff8000; stroke: #ff8000"/>
     <use xlink:href="#m663cb4b3d2" x="316.072866" y="143.48916" style="fill: #ff8000; stroke: #ff8000"/>
     <use xlink:href="#m663cb4b3d2" x="319.508867" y="179.193006" style="fill: #ff8000; stroke: #ff8000"/>
     <use xlink:href="#m663cb4b3d2" x="322.944868" y="79.740573" style="fill: #ff8000; stroke: #ff8000"/>
     <use xlink:href="#m663cb4b3d2" x="326.380869" y="165.005444" style="fill: #ff8000; stroke: #ff8000"/>
     <use xlink:href="#m663cb4b3d2" x="329.81687" y="115.230356" style="fill: #ff8000; stroke: #ff8000"/>
     <use xlink:href="#m663cb4b3d2" x="333.252871" y="128.486645" style="fill: #ff8000; stroke: #ff8000"/>
     <use xlink:href="#m663cb4b3d2" x="336.688872" y="160.822233" style="fill: #ff8000; stroke: #ff8000"/>
     <use xlink:href="#m663cb4b3d2" x="340.124873" y="157.584506" style="fill: #ff8000; stroke: #ff8000"/>
     <use xlink:href="#m663cb4b3d2" x="343.560874" y="140.445386" style="fill: #ff8000; stroke: #ff8000"/>
     <use xlink:href="#m663cb4b3d2" x="346.996875" y="139.300015" style="fill: #ff8000; stroke: #ff8000"/>
     <use xlink:href="#m663cb4b3d2" x="350.432876" y="149.052088" style="fill: #ff8000; stroke: #ff8000"/>
     <use xlink:href="#m663cb4b3d2" x="353.868877" y="162.616077" style="fill: #ff8000; stroke: #ff8000"/>
     <use xlink:href="#m663cb4b3d2" x="357.304878" y="137.491808" style="fill: #ff8000; stroke: #ff8000"/>
     <use xlink:href="#m663cb4b3d2" x="360.740879" y="113.970753" style="fill: #ff8000; stroke: #ff8000"/>
     <use xlink:href="#m663cb4b3d2" x="364.17688" y="109.701926" style="fill: #ff8000; stroke: #ff8000"/>
     <use xlink:href="#m663cb4b3d2" x="367.612881" y="137.295782" style="fill: #ff8000; stroke: #ff8000"/>
     <use xlink:href="#m663cb4b3d2" x="371.048882" y="115.17746" style="fill: #ff8000; stroke: #ff8000"/>
     <use xlink:href="#m663cb4b3d2" x="374.484883" y="144.644932" style="fill: #ff8000; stroke: #ff8000"/>
     <use xlink:href="#m663cb4b3d2" x="377.920884" y="78.432737" style="fill: #ff8000; stroke: #ff8000"/>
     <use xlink:href="#m663cb4b3d2" x="381.356885" y="146.776328" style="fill: #ff8000; stroke: #ff8000"/>
     <use xlink:href="#m663cb4b3d2" x="384.792886" y="123.043157" style="fill: #ff8000; stroke: #ff8000"/>
     <use xlink:href="#m663cb4b3d2" x="388.228887" y="107.639814" style="fill: #ff8000; stroke: #ff8000"/>
     <use xlink:href="#m663cb4b3d2" x="391.664888" y="128.955029" style="fill: #ff8000; stroke: #ff8000"/>
     <use xlink:href="#m663cb4b3d2" x="395.100889" y="168.563968" style="fill: #ff8000; stroke: #ff8000"/>
     <use xlink:href="#m663cb4b3d2" x="397.653426" y="132.036796" style="fill: #ff8000; stroke: #ff8000"/>
    </g>
   </g>
   <g id="line2d_14">
    <path d="M 73.832727 123.126411 
L 97.961917 122.962586 
L 98.150738 123.433312 
L 98.487034 124.090166 
L 120.901668 123.981829 
L 121.506724 122.933536 
L 148.142968 123.158296 
L 224.47925 124.180215 
L 224.556433 128.356741 
L 224.814168 157.098999 
L 225.076037 175.599907 
L 225.500541 183.979992 
L 226.112488 191.74761 
L 226.874666 198.653763 
L 227.752617 204.633637 
L 228.709129 209.664132 
L 229.711124 213.783874 
L 230.726901 217.054762 
L 231.728896 219.562199 
L 232.692299 221.401397 
L 233.60195 222.68176 
L 234.446823 223.505966 
L 235.229675 223.972586 
L 235.962909 224.158435 
L 236.669956 224.110429 
L 237.382516 223.835653 
L 238.125398 223.302722 
L 238.913763 222.452082 
L 239.753123 221.205169 
L 240.639343 219.474204 
L 241.562777 217.163524 
L 242.505507 214.18376 
L 243.44548 210.452093 
L 244.357888 205.893073 
L 245.212409 200.462362 
L 245.978721 194.130333 
L 246.622368 186.927732 
L 247.110272 178.932421 
L 247.383167 170.947742 
L 247.591285 147.533599 
L 247.891745 124.065295 
L 274.496289 123.842107 
L 351.082036 123.037221 
L 351.699496 124.090166 
L 373.981818 123.979228 
L 374.581361 122.933517 
L 398.487273 123.126318 
L 398.487273 123.126318 
" clip-path="url(#p5b5276ad2f)" style="fill: none; stroke: #000000; stroke-width: 1.5; stroke-linecap: square"/>
   </g>
   <g id="legend_1">
    <g id="patch_7">
     <path d="M 66 301.584 
L 176.4075 301.584 
Q 178.8075 301.584 178.8075 299.184 
L 178.8075 247.54275 
Q 178.8075 245.14275 176.4075 245.14275 
L 66 245.14275 
Q 63.6 245.14275 63.6 247.54275 
L 63.6 299.184 
Q 63.6 301.584 66 301.584 
z
" style="fill: #ffffff; opacity: 0.8; stroke: #cccccc; stroke-linejoin: miter"/>
    </g>
    <g id="line2d_15">
     <path d="M 68.4 254.860875 
L 80.4 254.860875 
L 92.4 254.860875 
" style="fill: none; stroke: #1f77b4; stroke-width: 1.5; stroke-linecap: square"/>
    </g>
    <g id="text_17">
     <!-- our model -->
     <g transform="translate(102 259.060875) scale(0.12 -0.12)">
      <defs>
       <path id="DejaVuSans-6f" d="M 1959 3097 
Q 1497 3097 1228 2736 
Q 959 2375 959 1747 
Q 959 1119 1226 758 
Q 1494 397 1959 397 
Q 2419 397 2687 759 
Q 2956 1122 2956 1747 
Q 2956 2369 2687 2733 
Q 2419 3097 1959 3097 
z
M 1959 3584 
Q 2709 3584 3137 3096 
Q 3566 2609 3566 1747 
Q 3566 888 3137 398 
Q 2709 -91 1959 -91 
Q 1206 -91 779 398 
Q 353 888 353 1747 
Q 353 2609 779 3096 
Q 1206 3584 1959 3584 
z
" transform="scale(0.015625)"/>
       <path id="DejaVuSans-6c" d="M 603 4863 
L 1178 4863 
L 1178 0 
L 603 0 
L 603 4863 
z
" transform="scale(0.015625)"/>
      </defs>
      <use xlink:href="#DejaVuSans-6f"/>
      <use xlink:href="#DejaVuSans-75" transform="translate(61.181641 0)"/>
      <use xlink:href="#DejaVuSans-72" transform="translate(124.560547 0)"/>
      <use xlink:href="#DejaVuSans-20" transform="translate(165.673828 0)"/>
      <use xlink:href="#DejaVuSans-6d" transform="translate(197.460938 0)"/>
      <use xlink:href="#DejaVuSans-6f" transform="translate(294.873047 0)"/>
      <use xlink:href="#DejaVuSans-64" transform="translate(356.054688 0)"/>
      <use xlink:href="#DejaVuSans-65" transform="translate(419.53125 0)"/>
      <use xlink:href="#DejaVuSans-6c" transform="translate(481.054688 0)"/>
     </g>
    </g>
    <g id="line2d_16">
     <path d="M 68.4 272.474625 
L 80.4 272.474625 
L 92.4 272.474625 
" style="fill: none; stroke: #000000; stroke-width: 1.5; stroke-linecap: square"/>
    </g>
    <g id="text_18">
     <!-- origin data -->
     <g transform="translate(102 276.674625) scale(0.12 -0.12)">
      <defs>
       <path id="DejaVuSans-67" d="M 2906 1791 
Q 2906 2416 2648 2759 
Q 2391 3103 1925 3103 
Q 1463 3103 1205 2759 
Q 947 2416 947 1791 
Q 947 1169 1205 825 
Q 1463 481 1925 481 
Q 2391 481 2648 825 
Q 2906 1169 2906 1791 
z
M 3481 434 
Q 3481 -459 3084 -895 
Q 2688 -1331 1869 -1331 
Q 1566 -1331 1297 -1286 
Q 1028 -1241 775 -1147 
L 775 -588 
Q 1028 -725 1275 -790 
Q 1522 -856 1778 -856 
Q 2344 -856 2625 -561 
Q 2906 -266 2906 331 
L 2906 616 
Q 2728 306 2450 153 
Q 2172 0 1784 0 
Q 1141 0 747 490 
Q 353 981 353 1791 
Q 353 2603 747 3093 
Q 1141 3584 1784 3584 
Q 2172 3584 2450 3431 
Q 2728 3278 2906 2969 
L 2906 3500 
L 3481 3500 
L 3481 434 
z
" transform="scale(0.015625)"/>
       <path id="DejaVuSans-6e" d="M 3513 2113 
L 3513 0 
L 2938 0 
L 2938 2094 
Q 2938 2591 2744 2837 
Q 2550 3084 2163 3084 
Q 1697 3084 1428 2787 
Q 1159 2491 1159 1978 
L 1159 0 
L 581 0 
L 581 3500 
L 1159 3500 
L 1159 2956 
Q 1366 3272 1645 3428 
Q 1925 3584 2291 3584 
Q 2894 3584 3203 3211 
Q 3513 2838 3513 2113 
z
" transform="scale(0.015625)"/>
      </defs>
      <use xlink:href="#DejaVuSans-6f"/>
      <use xlink:href="#DejaVuSans-72" transform="translate(61.181641 0)"/>
      <use xlink:href="#DejaVuSans-69" transform="translate(102.294922 0)"/>
      <use xlink:href="#DejaVuSans-67" transform="translate(130.078125 0)"/>
      <use xlink:href="#DejaVuSans-69" transform="translate(193.554688 0)"/>
      <use xlink:href="#DejaVuSans-6e" transform="translate(221.337891 0)"/>
      <use xlink:href="#DejaVuSans-20" transform="translate(284.716797 0)"/>
      <use xlink:href="#DejaVuSans-64" transform="translate(316.503906 0)"/>
      <use xlink:href="#DejaVuSans-61" transform="translate(379.980469 0)"/>
      <use xlink:href="#DejaVuSans-74" transform="translate(441.259766 0)"/>
      <use xlink:href="#DejaVuSans-61" transform="translate(480.46875 0)"/>
     </g>
    </g>
    <g id="LineCollection_2">
     <path d="M 80.4 296.088375 
L 80.4 284.088375 
" style="fill: none; stroke: #ff8000; stroke-width: 1.5"/>
    </g>
    <g id="line2d_17"/>
    <g id="line2d_18">
     <g>
      <use xlink:href="#m663cb4b3d2" x="80.4" y="290.088375" style="fill: #ff8000; stroke: #ff8000"/>
     </g>
    </g>
    <g id="text_19">
     <!-- data binned -->
     <g transform="translate(102 294.288375) scale(0.12 -0.12)">
      <defs>
       <path id="DejaVuSans-62" d="M 3116 1747 
Q 3116 2381 2855 2742 
Q 2594 3103 2138 3103 
Q 1681 3103 1420 2742 
Q 1159 2381 1159 1747 
Q 1159 1113 1420 752 
Q 1681 391 2138 391 
Q 2594 391 2855 752 
Q 3116 1113 3116 1747 
z
M 1159 2969 
Q 1341 3281 1617 3432 
Q 1894 3584 2278 3584 
Q 2916 3584 3314 3078 
Q 3713 2572 3713 1747 
Q 3713 922 3314 415 
Q 2916 -91 2278 -91 
Q 1894 -91 1617 61 
Q 1341 213 1159 525 
L 1159 0 
L 581 0 
L 581 4863 
L 1159 4863 
L 1159 2969 
z
" transform="scale(0.015625)"/>
      </defs>
      <use xlink:href="#DejaVuSans-64"/>
      <use xlink:href="#DejaVuSans-61" transform="translate(63.476562 0)"/>
      <use xlink:href="#DejaVuSans-74" transform="translate(124.755859 0)"/>
      <use xlink:href="#DejaVuSans-61" transform="translate(163.964844 0)"/>
      <use xlink:href="#DejaVuSans-20" transform="translate(225.244141 0)"/>
      <use xlink:href="#DejaVuSans-62" transform="translate(257.03125 0)"/>
      <use xlink:href="#DejaVuSans-69" transform="translate(320.507812 0)"/>
      <use xlink:href="#DejaVuSans-6e" transform="translate(348.291016 0)"/>
      <use xlink:href="#DejaVuSans-6e" transform="translate(411.669922 0)"/>
      <use xlink:href="#DejaVuSans-65" transform="translate(475.048828 0)"/>
      <use xlink:href="#DejaVuSans-64" transform="translate(536.572266 0)"/>
     </g>
    </g>
   </g>
   <g id="line2d_19">
    <path d="M 73.832727 123.155408 
L 98.263756 122.966225 
L 98.375395 124.090173 
L 120.984364 124.090173 
L 120.985742 122.966226 
L 121.096003 122.966665 
L 148.091973 123.185741 
L 224.327642 124.167068 
L 224.40069 129.444586 
L 224.70942 172.160332 
L 224.909267 183.722238 
L 225.357202 189.823912 
L 225.992579 195.50244 
L 226.778187 200.565723 
L 227.679569 204.959761 
L 228.662268 208.674805 
L 229.693206 211.730293 
L 230.740684 214.164013 
L 231.778513 216.034019 
L 232.783264 217.404827 
L 233.742533 218.352619 
L 234.650806 218.948898 
L 235.512218 219.25642 
L 236.343309 219.320879 
L 237.166129 219.161201 
L 238.001355 218.76879 
L 238.866902 218.109507 
L 239.769662 217.133092 
L 240.709635 215.77743 
L 241.677173 213.978598 
L 242.657115 211.672188 
L 243.62741 208.802881 
L 244.56187 205.326614 
L 245.430174 201.220858 
L 246.203377 196.468223 
L 246.848403 191.095424 
L 247.332172 185.181443 
L 247.54718 180.072006 
L 247.736002 155.26362 
L 248.053001 124.06538 
L 275.134423 123.842133 
L 351.342527 122.966226 
L 351.454166 124.090173 
L 374.063136 124.090173 
L 374.064514 122.966225 
L 374.174775 122.966664 
L 398.487273 123.155318 
L 398.487273 123.155318 
" clip-path="url(#p5b5276ad2f)" style="fill: none; stroke: #1f77b4; stroke-width: 1.5; stroke-linecap: square"/>
   </g>
  </g>
 </g>
 <defs>
  <clipPath id="p5b5276ad2f">
   <rect x="57.6" y="41.472" width="357.12" height="266.112"/>
  </clipPath>
 </defs>
</svg>
