<?xml version="1.0" encoding="utf-8" standalone="no"?>
<!DOCTYPE svg PUBLIC "-//W3C//DTD SVG 1.1//EN"
  "http://www.w3.org/Graphics/SVG/1.1/DTD/svg11.dtd">
<svg xmlns:xlink="http://www.w3.org/1999/xlink" width="720pt" height="720pt" viewBox="0 0 720 720" xmlns="http://www.w3.org/2000/svg" version="1.1">
 <metadata>
  <rdf:RDF xmlns:dc="http://purl.org/dc/elements/1.1/" xmlns:cc="http://creativecommons.org/ns#" xmlns:rdf="http://www.w3.org/1999/02/22-rdf-syntax-ns#">
   <cc:Work>
    <dc:type rdf:resource="http://purl.org/dc/dcmitype/StillImage"/>
    <dc:date>2025-12-10T16:34:50.700595</dc:date>
    <dc:format>image/svg+xml</dc:format>
    <dc:creator>
     <cc:Agent>
      <dc:title>Matplotlib v3.10.7, https://matplotlib.org/</dc:title>
     </cc:Agent>
    </dc:creator>
   </cc:Work>
  </rdf:RDF>
 </metadata>
 <defs>
  <style type="text/css">*{stroke-linejoin: round; stroke-linecap: butt}</style>
 </defs>
 <g id="figure_1">
  <g id="patch_1">
   <path d="M 0 720 
L 720 720 
L 720 0 
L 0 0 
z
" style="fill: #ffffff"/>
  </g>
  <g id="axes_1">
   <g id="patch_2">
    <path d="M 90 640.8 
L 648 640.8 
L 648 86.4 
L 90 86.4 
z
" style="fill: #ffffff"/>
   </g>
   <g id="FillBetweenPolyCollection_1">
    <path d="M 124.82768 586.165151 
L 124.82768 606.521384 
L 148.487788 577.656154 
L 204.325645 477.023672 
L 281.930801 377.623936 
L 374.678426 326.490739 
L 622.636364 200.032818 
L 622.636364 152.9138 
L 622.636364 152.9138 
L 374.678426 255.97345 
L 281.930801 332.557858 
L 204.325645 416.129173 
L 148.487788 528.065314 
L 124.82768 586.165151 
z
" clip-path="url(#pc035ab1613)" style="fill: #1f77b4; fill-opacity: 0.2"/>
   </g>
   <g id="matplotlib.axis_1">
    <g id="xtick_1">
     <g id="line2d_1">
      <defs>
       <path id="mba887099cd" d="M 0 0 
L 0 3.5 
" style="stroke: #000000; stroke-width: 0.8"/>
      </defs>
      <g>
       <use xlink:href="#mba887099cd" x="153.21981" y="640.8" style="stroke: #000000; stroke-width: 0.8"/>
      </g>
     </g>
     <g id="text_1">
      <!-- 1 -->
      <g transform="translate(148.76606 658.437813) scale(0.14 -0.14)">
       <defs>
        <path id="DejaVuSans-31" d="M 794 531 
L 1825 531 
L 1825 4091 
L 703 3866 
L 703 4441 
L 1819 4666 
L 2450 4666 
L 2450 531 
L 3481 531 
L 3481 0 
L 794 0 
L 794 531 
z
" transform="scale(0.015625)"/>
       </defs>
       <use xlink:href="#DejaVuSans-31"/>
      </g>
     </g>
    </g>
    <g id="xtick_2">
     <g id="line2d_2">
      <g>
       <use xlink:href="#mba887099cd" x="247.860244" y="640.8" style="stroke: #000000; stroke-width: 0.8"/>
      </g>
     </g>
     <g id="text_2">
      <!-- 2 -->
      <g transform="translate(243.406494 658.437813) scale(0.14 -0.14)">
       <defs>
        <path id="DejaVuSans-32" d="M 1228 531 
L 3431 531 
L 3431 0 
L 469 0 
L 469 531 
Q 828 903 1448 1529 
Q 2069 2156 2228 2338 
Q 2531 2678 2651 2914 
Q 2772 3150 2772 3378 
Q 2772 3750 2511 3984 
Q 2250 4219 1831 4219 
Q 1534 4219 1204 4116 
Q 875 4013 500 3803 
L 500 4441 
Q 881 4594 1212 4672 
Q 1544 4750 1819 4750 
Q 2544 4750 2975 4387 
Q 3406 4025 3406 3419 
Q 3406 3131 3298 2873 
Q 3191 2616 2906 2266 
Q 2828 2175 2409 1742 
Q 1991 1309 1228 531 
z
" transform="scale(0.015625)"/>
       </defs>
       <use xlink:href="#DejaVuSans-32"/>
      </g>
     </g>
    </g>
    <g id="xtick_3">
     <g id="line2d_3">
      <g>
       <use xlink:href="#mba887099cd" x="342.500678" y="640.8" style="stroke: #000000; stroke-width: 0.8"/>
      </g>
     </g>
     <g id="text_3">
      <!-- 3 -->
      <g transform="translate(338.046928 658.437813) scale(0.14 -0.14)">
       <defs>
        <path id="DejaVuSans-33" d="M 2597 2516 
Q 3050 2419 3304 2112 
Q 3559 1806 3559 1356 
Q 3559 666 3084 287 
Q 2609 -91 1734 -91 
Q 1441 -91 1130 -33 
Q 819 25 488 141 
L 488 750 
Q 750 597 1062 519 
Q 1375 441 1716 441 
Q 2309 441 2620 675 
Q 2931 909 2931 1356 
Q 2931 1769 2642 2001 
Q 2353 2234 1838 2234 
L 1294 2234 
L 1294 2753 
L 1863 2753 
Q 2328 2753 2575 2939 
Q 2822 3125 2822 3475 
Q 2822 3834 2567 4026 
Q 2313 4219 1838 4219 
Q 1578 4219 1281 4162 
Q 984 4106 628 3988 
L 628 4550 
Q 988 4650 1302 4700 
Q 1616 4750 1894 4750 
Q 2613 4750 3031 4423 
Q 3450 4097 3450 3541 
Q 3450 3153 3228 2886 
Q 3006 2619 2597 2516 
z
" transform="scale(0.015625)"/>
       </defs>
       <use xlink:href="#DejaVuSans-33"/>
      </g>
     </g>
    </g>
    <g id="xtick_4">
     <g id="line2d_4">
      <g>
       <use xlink:href="#mba887099cd" x="437.141113" y="640.8" style="stroke: #000000; stroke-width: 0.8"/>
      </g>
     </g>
     <g id="text_4">
      <!-- 4 -->
      <g transform="translate(432.687363 658.437813) scale(0.14 -0.14)">
       <defs>
        <path id="DejaVuSans-34" d="M 2419 4116 
L 825 1625 
L 2419 1625 
L 2419 4116 
z
M 2253 4666 
L 3047 4666 
L 3047 1625 
L 3713 1625 
L 3713 1100 
L 3047 1100 
L 3047 0 
L 2419 0 
L 2419 1100 
L 313 1100 
L 313 1709 
L 2253 4666 
z
" transform="scale(0.015625)"/>
       </defs>
       <use xlink:href="#DejaVuSans-34"/>
      </g>
     </g>
    </g>
    <g id="xtick_5">
     <g id="line2d_5">
      <g>
       <use xlink:href="#mba887099cd" x="531.781547" y="640.8" style="stroke: #000000; stroke-width: 0.8"/>
      </g>
     </g>
     <g id="text_5">
      <!-- 5 -->
      <g transform="translate(527.327797 658.437813) scale(0.14 -0.14)">
       <defs>
        <path id="DejaVuSans-35" d="M 691 4666 
L 3169 4666 
L 3169 4134 
L 1269 4134 
L 1269 2991 
Q 1406 3038 1543 3061 
Q 1681 3084 1819 3084 
Q 2600 3084 3056 2656 
Q 3513 2228 3513 1497 
Q 3513 744 3044 326 
Q 2575 -91 1722 -91 
Q 1428 -91 1123 -41 
Q 819 9 494 109 
L 494 744 
Q 775 591 1075 516 
Q 1375 441 1709 441 
Q 2250 441 2565 725 
Q 2881 1009 2881 1497 
Q 2881 1984 2565 2268 
Q 2250 2553 1709 2553 
Q 1456 2553 1204 2497 
Q 953 2441 691 2322 
L 691 4666 
z
" transform="scale(0.015625)"/>
       </defs>
       <use xlink:href="#DejaVuSans-35"/>
      </g>
     </g>
    </g>
    <g id="xtick_6">
     <g id="line2d_6">
      <g>
       <use xlink:href="#mba887099cd" x="626.421981" y="640.8" style="stroke: #000000; stroke-width: 0.8"/>
      </g>
     </g>
     <g id="text_6">
      <!-- 6 -->
      <g transform="translate(621.968231 658.437813) scale(0.14 -0.14)">
       <defs>
        <path id="DejaVuSans-36" d="M 2113 2584 
Q 1688 2584 1439 2293 
Q 1191 2003 1191 1497 
Q 1191 994 1439 701 
Q 1688 409 2113 409 
Q 2538 409 2786 701 
Q 3034 994 3034 1497 
Q 3034 2003 2786 2293 
Q 2538 2584 2113 2584 
z
M 3366 4563 
L 3366 3988 
Q 3128 4100 2886 4159 
Q 2644 4219 2406 4219 
Q 1781 4219 1451 3797 
Q 1122 3375 1075 2522 
Q 1259 2794 1537 2939 
Q 1816 3084 2150 3084 
Q 2853 3084 3261 2657 
Q 3669 2231 3669 1497 
Q 3669 778 3244 343 
Q 2819 -91 2113 -91 
Q 1303 -91 875 529 
Q 447 1150 447 2328 
Q 447 3434 972 4092 
Q 1497 4750 2381 4750 
Q 2619 4750 2861 4703 
Q 3103 4656 3366 4563 
z
" transform="scale(0.015625)"/>
       </defs>
       <use xlink:href="#DejaVuSans-36"/>
      </g>
     </g>
    </g>
    <g id="text_7">
     <!-- $\lambda$ ($\mu$m) -->
     <g transform="translate(345.83 675.989375) scale(0.14 -0.14)">
      <defs>
       <path id="DejaVuSans-Oblique-3bb" d="M 2350 4316 
L 3125 0 
L 2516 0 
L 2038 2588 
L 328 0 
L -281 0 
L 1903 3356 
L 1794 3975 
Q 1725 4369 1391 4369 
L 1091 4369 
L 1184 4863 
L 1550 4856 
Q 2253 4847 2350 4316 
z
" transform="scale(0.015625)"/>
       <path id="DejaVuSans-20" transform="scale(0.015625)"/>
       <path id="DejaVuSans-28" d="M 1984 4856 
Q 1566 4138 1362 3434 
Q 1159 2731 1159 2009 
Q 1159 1288 1364 580 
Q 1569 -128 1984 -844 
L 1484 -844 
Q 1016 -109 783 600 
Q 550 1309 550 2009 
Q 550 2706 781 3412 
Q 1013 4119 1484 4856 
L 1984 4856 
z
" transform="scale(0.015625)"/>
       <path id="DejaVuSans-Oblique-3bc" d="M -84 -1331 
L 856 3500 
L 1434 3500 
L 1009 1322 
Q 997 1256 987 1175 
Q 978 1094 978 1013 
Q 978 722 1161 565 
Q 1344 409 1684 409 
Q 2147 409 2431 671 
Q 2716 934 2816 1459 
L 3213 3500 
L 3788 3500 
L 3266 809 
Q 3253 750 3248 706 
Q 3244 663 3244 628 
Q 3244 531 3283 486 
Q 3322 441 3406 441 
Q 3438 441 3492 456 
Q 3547 472 3647 513 
L 3559 50 
Q 3422 -19 3297 -55 
Q 3172 -91 3053 -91 
Q 2847 -91 2730 40 
Q 2613 172 2613 403 
Q 2438 153 2195 31 
Q 1953 -91 1625 -91 
Q 1334 -91 1117 43 
Q 900 178 831 397 
L 494 -1331 
L -84 -1331 
z
" transform="scale(0.015625)"/>
       <path id="DejaVuSans-6d" d="M 3328 2828 
Q 3544 3216 3844 3400 
Q 4144 3584 4550 3584 
Q 5097 3584 5394 3201 
Q 5691 2819 5691 2113 
L 5691 0 
L 5113 0 
L 5113 2094 
Q 5113 2597 4934 2840 
Q 4756 3084 4391 3084 
Q 3944 3084 3684 2787 
Q 3425 2491 3425 1978 
L 3425 0 
L 2847 0 
L 2847 2094 
Q 2847 2600 2669 2842 
Q 2491 3084 2119 3084 
Q 1678 3084 1418 2786 
Q 1159 2488 1159 1978 
L 1159 0 
L 581 0 
L 581 3500 
L 1159 3500 
L 1159 2956 
Q 1356 3278 1631 3431 
Q 1906 3584 2284 3584 
Q 2666 3584 2933 3390 
Q 3200 3197 3328 2828 
z
" transform="scale(0.015625)"/>
       <path id="DejaVuSans-29" d="M 513 4856 
L 1013 4856 
Q 1481 4119 1714 3412 
Q 1947 2706 1947 2009 
Q 1947 1309 1714 600 
Q 1481 -109 1013 -844 
L 513 -844 
Q 928 -128 1133 580 
Q 1338 1288 1338 2009 
Q 1338 2731 1133 3434 
Q 928 4138 513 4856 
z
" transform="scale(0.015625)"/>
      </defs>
      <use xlink:href="#DejaVuSans-Oblique-3bb" transform="translate(0 0.015625)"/>
      <use xlink:href="#DejaVuSans-20" transform="translate(59.179688 0.015625)"/>
      <use xlink:href="#DejaVuSans-28" transform="translate(90.966797 0.015625)"/>
      <use xlink:href="#DejaVuSans-Oblique-3bc" transform="translate(129.980469 0.015625)"/>
      <use xlink:href="#DejaVuSans-6d" transform="translate(193.603516 0.015625)"/>
      <use xlink:href="#DejaVuSans-29" transform="translate(291.015625 0.015625)"/>
     </g>
    </g>
   </g>
   <g id="matplotlib.axis_2">
    <g id="ytick_1">
     <g id="line2d_7">
      <defs>
       <path id="ma5381a0a7c" d="M 0 0 
L -3.5 0 
" style="stroke: #000000; stroke-width: 0.8"/>
      </defs>
      <g>
       <use xlink:href="#ma5381a0a7c" x="90" y="615.6" style="stroke: #000000; stroke-width: 0.8"/>
      </g>
     </g>
     <g id="text_8">
      <!-- 0 -->
      <g transform="translate(74.0925 620.918906) scale(0.14 -0.14)">
       <defs>
        <path id="DejaVuSans-30" d="M 2034 4250 
Q 1547 4250 1301 3770 
Q 1056 3291 1056 2328 
Q 1056 1369 1301 889 
Q 1547 409 2034 409 
Q 2525 409 2770 889 
Q 3016 1369 3016 2328 
Q 3016 3291 2770 3770 
Q 2525 4250 2034 4250 
z
M 2034 4750 
Q 2819 4750 3233 4129 
Q 3647 3509 3647 2328 
Q 3647 1150 3233 529 
Q 2819 -91 2034 -91 
Q 1250 -91 836 529 
Q 422 1150 422 2328 
Q 422 3509 836 4129 
Q 1250 4750 2034 4750 
z
" transform="scale(0.015625)"/>
       </defs>
       <use xlink:href="#DejaVuSans-30"/>
      </g>
     </g>
    </g>
    <g id="ytick_2">
     <g id="line2d_8">
      <g>
       <use xlink:href="#ma5381a0a7c" x="90" y="547.019482" style="stroke: #000000; stroke-width: 0.8"/>
      </g>
     </g>
     <g id="text_9">
      <!-- 10 -->
      <g transform="translate(65.185 552.338388) scale(0.14 -0.14)">
       <use xlink:href="#DejaVuSans-31"/>
       <use xlink:href="#DejaVuSans-30" transform="translate(63.623047 0)"/>
      </g>
     </g>
    </g>
    <g id="ytick_3">
     <g id="line2d_9">
      <g>
       <use xlink:href="#ma5381a0a7c" x="90" y="478.438964" style="stroke: #000000; stroke-width: 0.8"/>
      </g>
     </g>
     <g id="text_10">
      <!-- 20 -->
      <g transform="translate(65.185 483.75787) scale(0.14 -0.14)">
       <use xlink:href="#DejaVuSans-32"/>
       <use xlink:href="#DejaVuSans-30" transform="translate(63.623047 0)"/>
      </g>
     </g>
    </g>
    <g id="ytick_4">
     <g id="line2d_10">
      <g>
       <use xlink:href="#ma5381a0a7c" x="90" y="409.858446" style="stroke: #000000; stroke-width: 0.8"/>
      </g>
     </g>
     <g id="text_11">
      <!-- 30 -->
      <g transform="translate(65.185 415.177353) scale(0.14 -0.14)">
       <use xlink:href="#DejaVuSans-33"/>
       <use xlink:href="#DejaVuSans-30" transform="translate(63.623047 0)"/>
      </g>
     </g>
    </g>
    <g id="ytick_5">
     <g id="line2d_11">
      <g>
       <use xlink:href="#ma5381a0a7c" x="90" y="341.277928" style="stroke: #000000; stroke-width: 0.8"/>
      </g>
     </g>
     <g id="text_12">
      <!-- 40 -->
      <g transform="translate(65.185 346.596835) scale(0.14 -0.14)">
       <use xlink:href="#DejaVuSans-34"/>
       <use xlink:href="#DejaVuSans-30" transform="translate(63.623047 0)"/>
      </g>
     </g>
    </g>
    <g id="ytick_6">
     <g id="line2d_12">
      <g>
       <use xlink:href="#ma5381a0a7c" x="90" y="272.697411" style="stroke: #000000; stroke-width: 0.8"/>
      </g>
     </g>
     <g id="text_13">
      <!-- 50 -->
      <g transform="translate(65.185 278.016317) scale(0.14 -0.14)">
       <use xlink:href="#DejaVuSans-35"/>
       <use xlink:href="#DejaVuSans-30" transform="translate(63.623047 0)"/>
      </g>
     </g>
    </g>
    <g id="ytick_7">
     <g id="line2d_13">
      <g>
       <use xlink:href="#ma5381a0a7c" x="90" y="204.116893" style="stroke: #000000; stroke-width: 0.8"/>
      </g>
     </g>
     <g id="text_14">
      <!-- 60 -->
      <g transform="translate(65.185 209.435799) scale(0.14 -0.14)">
       <use xlink:href="#DejaVuSans-36"/>
       <use xlink:href="#DejaVuSans-30" transform="translate(63.623047 0)"/>
      </g>
     </g>
    </g>
    <g id="ytick_8">
     <g id="line2d_14">
      <g>
       <use xlink:href="#ma5381a0a7c" x="90" y="135.536375" style="stroke: #000000; stroke-width: 0.8"/>
      </g>
     </g>
     <g id="text_15">
      <!-- 70 -->
      <g transform="translate(65.185 140.855281) scale(0.14 -0.14)">
       <defs>
        <path id="DejaVuSans-37" d="M 525 4666 
L 3525 4666 
L 3525 4397 
L 1831 0 
L 1172 0 
L 2766 4134 
L 525 4134 
L 525 4666 
z
" transform="scale(0.015625)"/>
       </defs>
       <use xlink:href="#DejaVuSans-37"/>
       <use xlink:href="#DejaVuSans-30" transform="translate(63.623047 0)"/>
      </g>
     </g>
    </g>
    <g id="text_16">
     <!-- Eclipse depth (ppm) -->
     <g transform="translate(58.273438 434.152344) rotate(-90) scale(0.14 -0.14)">
      <defs>
       <path id="DejaVuSans-45" d="M 628 4666 
L 3578 4666 
L 3578 4134 
L 1259 4134 
L 1259 2753 
L 3481 2753 
L 3481 2222 
L 1259 2222 
L 1259 531 
L 3634 531 
L 3634 0 
L 628 0 
L 628 4666 
z
" transform="scale(0.015625)"/>
       <path id="DejaVuSans-63" d="M 3122 3366 
L 3122 2828 
Q 2878 2963 2633 3030 
Q 2388 3097 2138 3097 
Q 1578 3097 1268 2742 
Q 959 2388 959 1747 
Q 959 1106 1268 751 
Q 1578 397 2138 397 
Q 2388 397 2633 464 
Q 2878 531 3122 666 
L 3122 134 
Q 2881 22 2623 -34 
Q 2366 -91 2075 -91 
Q 1284 -91 818 406 
Q 353 903 353 1747 
Q 353 2603 823 3093 
Q 1294 3584 2113 3584 
Q 2378 3584 2631 3529 
Q 2884 3475 3122 3366 
z
" transform="scale(0.015625)"/>
       <path id="DejaVuSans-6c" d="M 603 4863 
L 1178 4863 
L 1178 0 
L 603 0 
L 603 4863 
z
" transform="scale(0.015625)"/>
       <path id="DejaVuSans-69" d="M 603 3500 
L 1178 3500 
L 1178 0 
L 603 0 
L 603 3500 
z
M 603 4863 
L 1178 4863 
L 1178 4134 
L 603 4134 
L 603 4863 
z
" transform="scale(0.015625)"/>
       <path id="DejaVuSans-70" d="M 1159 525 
L 1159 -1331 
L 581 -1331 
L 581 3500 
L 1159 3500 
L 1159 2969 
Q 1341 3281 1617 3432 
Q 1894 3584 2278 3584 
Q 2916 3584 3314 3078 
Q 3713 2572 3713 1747 
Q 3713 922 3314 415 
Q 2916 -91 2278 -91 
Q 1894 -91 1617 61 
Q 1341 213 1159 525 
z
M 3116 1747 
Q 3116 2381 2855 2742 
Q 2594 3103 2138 3103 
Q 1681 3103 1420 2742 
Q 1159 2381 1159 1747 
Q 1159 1113 1420 752 
Q 1681 391 2138 391 
Q 2594 391 2855 752 
Q 3116 1113 3116 1747 
z
" transform="scale(0.015625)"/>
       <path id="DejaVuSans-73" d="M 2834 3397 
L 2834 2853 
Q 2591 2978 2328 3040 
Q 2066 3103 1784 3103 
Q 1356 3103 1142 2972 
Q 928 2841 928 2578 
Q 928 2378 1081 2264 
Q 1234 2150 1697 2047 
L 1894 2003 
Q 2506 1872 2764 1633 
Q 3022 1394 3022 966 
Q 3022 478 2636 193 
Q 2250 -91 1575 -91 
Q 1294 -91 989 -36 
Q 684 19 347 128 
L 347 722 
Q 666 556 975 473 
Q 1284 391 1588 391 
Q 1994 391 2212 530 
Q 2431 669 2431 922 
Q 2431 1156 2273 1281 
Q 2116 1406 1581 1522 
L 1381 1569 
Q 847 1681 609 1914 
Q 372 2147 372 2553 
Q 372 3047 722 3315 
Q 1072 3584 1716 3584 
Q 2034 3584 2315 3537 
Q 2597 3491 2834 3397 
z
" transform="scale(0.015625)"/>
       <path id="DejaVuSans-65" d="M 3597 1894 
L 3597 1613 
L 953 1613 
Q 991 1019 1311 708 
Q 1631 397 2203 397 
Q 2534 397 2845 478 
Q 3156 559 3463 722 
L 3463 178 
Q 3153 47 2828 -22 
Q 2503 -91 2169 -91 
Q 1331 -91 842 396 
Q 353 884 353 1716 
Q 353 2575 817 3079 
Q 1281 3584 2069 3584 
Q 2775 3584 3186 3129 
Q 3597 2675 3597 1894 
z
M 3022 2063 
Q 3016 2534 2758 2815 
Q 2500 3097 2075 3097 
Q 1594 3097 1305 2825 
Q 1016 2553 972 2059 
L 3022 2063 
z
" transform="scale(0.015625)"/>
       <path id="DejaVuSans-64" d="M 2906 2969 
L 2906 4863 
L 3481 4863 
L 3481 0 
L 2906 0 
L 2906 525 
Q 2725 213 2448 61 
Q 2172 -91 1784 -91 
Q 1150 -91 751 415 
Q 353 922 353 1747 
Q 353 2572 751 3078 
Q 1150 3584 1784 3584 
Q 2172 3584 2448 3432 
Q 2725 3281 2906 2969 
z
M 947 1747 
Q 947 1113 1208 752 
Q 1469 391 1925 391 
Q 2381 391 2643 752 
Q 2906 1113 2906 1747 
Q 2906 2381 2643 2742 
Q 2381 3103 1925 3103 
Q 1469 3103 1208 2742 
Q 947 2381 947 1747 
z
" transform="scale(0.015625)"/>
       <path id="DejaVuSans-74" d="M 1172 4494 
L 1172 3500 
L 2356 3500 
L 2356 3053 
L 1172 3053 
L 1172 1153 
Q 1172 725 1289 603 
Q 1406 481 1766 481 
L 2356 481 
L 2356 0 
L 1766 0 
Q 1100 0 847 248 
Q 594 497 594 1153 
L 594 3053 
L 172 3053 
L 172 3500 
L 594 3500 
L 594 4494 
L 1172 4494 
z
" transform="scale(0.015625)"/>
       <path id="DejaVuSans-68" d="M 3513 2113 
L 3513 0 
L 2938 0 
L 2938 2094 
Q 2938 2591 2744 2837 
Q 2550 3084 2163 3084 
Q 1697 3084 1428 2787 
Q 1159 2491 1159 1978 
L 1159 0 
L 581 0 
L 581 4863 
L 1159 4863 
L 1159 2956 
Q 1366 3272 1645 3428 
Q 1925 3584 2291 3584 
Q 2894 3584 3203 3211 
Q 3513 2838 3513 2113 
z
" transform="scale(0.015625)"/>
      </defs>
      <use xlink:href="#DejaVuSans-45"/>
      <use xlink:href="#DejaVuSans-63" transform="translate(63.183594 0)"/>
      <use xlink:href="#DejaVuSans-6c" transform="translate(118.164062 0)"/>
      <use xlink:href="#DejaVuSans-69" transform="translate(145.947266 0)"/>
      <use xlink:href="#DejaVuSans-70" transform="translate(173.730469 0)"/>
      <use xlink:href="#DejaVuSans-73" transform="translate(237.207031 0)"/>
      <use xlink:href="#DejaVuSans-65" transform="translate(289.306641 0)"/>
      <use xlink:href="#DejaVuSans-20" transform="translate(350.830078 0)"/>
      <use xlink:href="#DejaVuSans-64" transform="translate(382.617188 0)"/>
      <use xlink:href="#DejaVuSans-65" transform="translate(446.09375 0)"/>
      <use xlink:href="#DejaVuSans-70" transform="translate(507.617188 0)"/>
      <use xlink:href="#DejaVuSans-74" transform="translate(571.09375 0)"/>
      <use xlink:href="#DejaVuSans-68" transform="translate(610.302734 0)"/>
      <use xlink:href="#DejaVuSans-20" transform="translate(673.681641 0)"/>
      <use xlink:href="#DejaVuSans-28" transform="translate(705.46875 0)"/>
      <use xlink:href="#DejaVuSans-70" transform="translate(744.482422 0)"/>
      <use xlink:href="#DejaVuSans-70" transform="translate(807.958984 0)"/>
      <use xlink:href="#DejaVuSans-6d" transform="translate(871.435547 0)"/>
      <use xlink:href="#DejaVuSans-29" transform="translate(968.847656 0)"/>
     </g>
    </g>
   </g>
   <g id="line2d_15">
    <path d="M 124.82768 598.843674 
L 148.487788 556.207875 
L 204.325645 447.172146 
L 281.930801 340.700775 
L 374.678426 301.303331 
L 622.636364 178.855497 
" clip-path="url(#pc035ab1613)" style="fill: none; stroke: #1f77b4; stroke-width: 1.5; stroke-linecap: square"/>
    <defs>
     <path id="m65bce001b3" d="M 0 3 
C 0.795609 3 1.55874 2.683901 2.12132 2.12132 
C 2.683901 1.55874 3 0.795609 3 0 
C 3 -0.795609 2.683901 -1.55874 2.12132 -2.12132 
C 1.55874 -2.683901 0.795609 -3 0 -3 
C -0.795609 -3 -1.55874 -2.683901 -2.12132 -2.12132 
C -2.683901 -1.55874 -3 -0.795609 -3 0 
C -3 0.795609 -2.683901 1.55874 -2.12132 2.12132 
C -1.55874 2.683901 -0.795609 3 0 3 
z
" style="stroke: #1f77b4"/>
    </defs>
    <g clip-path="url(#pc035ab1613)">
     <use xlink:href="#m65bce001b3" x="124.82768" y="598.843674" style="fill: #1f77b4; stroke: #1f77b4"/>
     <use xlink:href="#m65bce001b3" x="148.487788" y="556.207875" style="fill: #1f77b4; stroke: #1f77b4"/>
     <use xlink:href="#m65bce001b3" x="204.325645" y="447.172146" style="fill: #1f77b4; stroke: #1f77b4"/>
     <use xlink:href="#m65bce001b3" x="281.930801" y="340.700775" style="fill: #1f77b4; stroke: #1f77b4"/>
     <use xlink:href="#m65bce001b3" x="374.678426" y="301.303331" style="fill: #1f77b4; stroke: #1f77b4"/>
     <use xlink:href="#m65bce001b3" x="622.636364" y="178.855497" style="fill: #1f77b4; stroke: #1f77b4"/>
    </g>
   </g>
   <g id="line2d_16">
    <path d="M 115.363636 603.760151 
L 124.82768 592.461097 
L 134.291723 577.607249 
L 143.755767 560.062171 
L 153.21981 540.742934 
L 162.683853 520.455294 
L 172.147897 499.836441 
L 181.61194 479.355469 
L 191.075984 459.337992 
L 200.540027 439.996832 
L 210.004071 421.460586 
L 219.468114 403.79722 
L 228.932157 387.032358 
L 238.396201 371.162906 
L 247.860244 356.166938 
L 257.324288 342.010744 
L 266.788331 328.65375 
L 276.252374 316.051917 
L 285.716418 304.160045 
L 295.180461 292.933287 
L 304.644505 282.328132 
L 314.108548 272.303001 
L 323.572592 262.81858 
L 333.036635 253.83798 
L 342.500678 245.326775 
L 351.964722 237.252963 
L 361.428765 229.586876 
L 370.892809 222.301063 
L 380.356852 215.370153 
L 389.820896 208.770719 
L 399.284939 202.481135 
L 408.748982 196.481438 
L 418.213026 190.753196 
L 427.677069 185.279388 
L 437.141113 180.044284 
L 446.605156 175.033341 
L 456.069199 170.233101 
L 465.533243 165.631104 
L 474.997286 161.215802 
L 484.46133 156.976481 
L 493.925373 152.903198 
L 503.389417 148.986712 
L 512.85346 145.218426 
L 522.317503 141.590341 
L 531.781547 138.094998 
L 541.24559 134.725445 
L 550.709634 131.475188 
L 560.173677 128.338161 
L 569.63772 125.308691 
L 579.101764 122.381466 
L 588.565807 119.551509 
L 598.029851 116.814155 
L 607.493894 114.165023 
L 616.957938 111.6 
" clip-path="url(#pc035ab1613)" style="fill: none; stroke: #ff7f0e; stroke-width: 1.5; stroke-linecap: square"/>
   </g>
   <g id="line2d_17">
    <path d="M 115.363636 615.6 
L 124.82768 615.6 
L 134.291723 615.6 
L 143.755767 615.6 
L 153.21981 615.6 
L 162.683853 615.6 
L 172.147897 615.6 
L 181.61194 615.6 
L 191.075984 615.6 
L 200.540027 615.6 
L 210.004071 615.6 
L 219.468114 615.6 
L 228.932157 615.6 
L 238.396201 615.6 
L 247.860244 615.6 
L 257.324288 615.6 
L 266.788331 615.6 
L 276.252374 615.6 
L 285.716418 615.6 
L 295.180461 615.6 
L 304.644505 615.6 
L 314.108548 615.6 
L 323.572592 615.6 
L 333.036635 615.6 
L 342.500678 615.6 
L 351.964722 615.6 
L 361.428765 615.6 
L 370.892809 615.6 
L 380.356852 615.6 
L 389.820896 615.6 
L 399.284939 615.6 
L 408.748982 615.6 
L 418.213026 615.6 
L 427.677069 615.6 
L 437.141113 615.6 
L 446.605156 615.6 
L 456.069199 615.6 
L 465.533243 615.6 
L 474.997286 615.6 
L 484.46133 615.6 
L 493.925373 615.6 
L 503.389417 615.6 
L 512.85346 615.6 
L 522.317503 615.6 
L 531.781547 615.6 
L 541.24559 615.6 
L 550.709634 615.6 
L 560.173677 615.6 
L 569.63772 615.6 
L 579.101764 615.6 
L 588.565807 615.6 
L 598.029851 615.6 
L 607.493894 615.6 
L 616.957938 615.6 
" clip-path="url(#pc035ab1613)" style="fill: none; stroke-dasharray: 5.55,2.4; stroke-dashoffset: 0; stroke: #000000; stroke-width: 1.5"/>
   </g>
   <g id="patch_3">
    <path d="M 90 640.8 
L 90 86.4 
" style="fill: none; stroke: #000000; stroke-width: 0.8; stroke-linejoin: miter; stroke-linecap: square"/>
   </g>
   <g id="patch_4">
    <path d="M 648 640.8 
L 648 86.4 
" style="fill: none; stroke: #000000; stroke-width: 0.8; stroke-linejoin: miter; stroke-linecap: square"/>
   </g>
   <g id="patch_5">
    <path d="M 90 640.8 
L 648 640.8 
" style="fill: none; stroke: #000000; stroke-width: 0.8; stroke-linejoin: miter; stroke-linecap: square"/>
   </g>
   <g id="patch_6">
    <path d="M 90 86.4 
L 648 86.4 
" style="fill: none; stroke: #000000; stroke-width: 0.8; stroke-linejoin: miter; stroke-linecap: square"/>
   </g>
   <g id="text_17">
    <!-- FGS1 -->
    <g transform="translate(111.722211 588.843674) scale(0.1 -0.1)">
     <defs>
      <path id="DejaVuSans-46" d="M 628 4666 
L 3309 4666 
L 3309 4134 
L 1259 4134 
L 1259 2759 
L 3109 2759 
L 3109 2228 
L 1259 2228 
L 1259 0 
L 628 0 
L 628 4666 
z
" transform="scale(0.015625)"/>
      <path id="DejaVuSans-47" d="M 3809 666 
L 3809 1919 
L 2778 1919 
L 2778 2438 
L 4434 2438 
L 4434 434 
Q 4069 175 3628 42 
Q 3188 -91 2688 -91 
Q 1594 -91 976 548 
Q 359 1188 359 2328 
Q 359 3472 976 4111 
Q 1594 4750 2688 4750 
Q 3144 4750 3555 4637 
Q 3966 4525 4313 4306 
L 4313 3634 
Q 3963 3931 3569 4081 
Q 3175 4231 2741 4231 
Q 1884 4231 1454 3753 
Q 1025 3275 1025 2328 
Q 1025 1384 1454 906 
Q 1884 428 2741 428 
Q 3075 428 3337 486 
Q 3600 544 3809 666 
z
" transform="scale(0.015625)"/>
      <path id="DejaVuSans-53" d="M 3425 4513 
L 3425 3897 
Q 3066 4069 2747 4153 
Q 2428 4238 2131 4238 
Q 1616 4238 1336 4038 
Q 1056 3838 1056 3469 
Q 1056 3159 1242 3001 
Q 1428 2844 1947 2747 
L 2328 2669 
Q 3034 2534 3370 2195 
Q 3706 1856 3706 1288 
Q 3706 609 3251 259 
Q 2797 -91 1919 -91 
Q 1588 -91 1214 -16 
Q 841 59 441 206 
L 441 856 
Q 825 641 1194 531 
Q 1563 422 1919 422 
Q 2459 422 2753 634 
Q 3047 847 3047 1241 
Q 3047 1584 2836 1778 
Q 2625 1972 2144 2069 
L 1759 2144 
Q 1053 2284 737 2584 
Q 422 2884 422 3419 
Q 422 4038 858 4394 
Q 1294 4750 2059 4750 
Q 2388 4750 2728 4690 
Q 3069 4631 3425 4513 
z
" transform="scale(0.015625)"/>
     </defs>
     <use xlink:href="#DejaVuSans-46"/>
     <use xlink:href="#DejaVuSans-47" transform="translate(57.519531 0)"/>
     <use xlink:href="#DejaVuSans-53" transform="translate(135.009766 0)"/>
     <use xlink:href="#DejaVuSans-31" transform="translate(198.486328 0)"/>
    </g>
   </g>
   <g id="text_18">
    <!-- FGS2 -->
    <g transform="translate(135.38232 546.207875) scale(0.1 -0.1)">
     <use xlink:href="#DejaVuSans-46"/>
     <use xlink:href="#DejaVuSans-47" transform="translate(57.519531 0)"/>
     <use xlink:href="#DejaVuSans-53" transform="translate(135.009766 0)"/>
     <use xlink:href="#DejaVuSans-32" transform="translate(198.486328 0)"/>
    </g>
   </g>
   <g id="text_19">
    <!-- NIRSpec -->
    <g transform="translate(183.461582 437.172146) scale(0.1 -0.1)">
     <defs>
      <path id="DejaVuSans-4e" d="M 628 4666 
L 1478 4666 
L 3547 763 
L 3547 4666 
L 4159 4666 
L 4159 0 
L 3309 0 
L 1241 3903 
L 1241 0 
L 628 0 
L 628 4666 
z
" transform="scale(0.015625)"/>
      <path id="DejaVuSans-49" d="M 628 4666 
L 1259 4666 
L 1259 0 
L 628 0 
L 628 4666 
z
" transform="scale(0.015625)"/>
      <path id="DejaVuSans-52" d="M 2841 2188 
Q 3044 2119 3236 1894 
Q 3428 1669 3622 1275 
L 4263 0 
L 3584 0 
L 2988 1197 
Q 2756 1666 2539 1819 
Q 2322 1972 1947 1972 
L 1259 1972 
L 1259 0 
L 628 0 
L 628 4666 
L 2053 4666 
Q 2853 4666 3247 4331 
Q 3641 3997 3641 3322 
Q 3641 2881 3436 2590 
Q 3231 2300 2841 2188 
z
M 1259 4147 
L 1259 2491 
L 2053 2491 
Q 2509 2491 2742 2702 
Q 2975 2913 2975 3322 
Q 2975 3731 2742 3939 
Q 2509 4147 2053 4147 
L 1259 4147 
z
" transform="scale(0.015625)"/>
     </defs>
     <use xlink:href="#DejaVuSans-4e"/>
     <use xlink:href="#DejaVuSans-49" transform="translate(74.804688 0)"/>
     <use xlink:href="#DejaVuSans-52" transform="translate(104.296875 0)"/>
     <use xlink:href="#DejaVuSans-53" transform="translate(173.779297 0)"/>
     <use xlink:href="#DejaVuSans-70" transform="translate(237.255859 0)"/>
     <use xlink:href="#DejaVuSans-65" transform="translate(300.732422 0)"/>
     <use xlink:href="#DejaVuSans-63" transform="translate(362.255859 0)"/>
    </g>
   </g>
   <g id="text_20">
    <!-- AIRS-CH0-bin1 -->
    <g transform="translate(245.433144 330.700775) scale(0.1 -0.1)">
     <defs>
      <path id="DejaVuSans-41" d="M 2188 4044 
L 1331 1722 
L 3047 1722 
L 2188 4044 
z
M 1831 4666 
L 2547 4666 
L 4325 0 
L 3669 0 
L 3244 1197 
L 1141 1197 
L 716 0 
L 50 0 
L 1831 4666 
z
" transform="scale(0.015625)"/>
      <path id="DejaVuSans-2d" d="M 313 2009 
L 1997 2009 
L 1997 1497 
L 313 1497 
L 313 2009 
z
" transform="scale(0.015625)"/>
      <path id="DejaVuSans-43" d="M 4122 4306 
L 4122 3641 
Q 3803 3938 3442 4084 
Q 3081 4231 2675 4231 
Q 1875 4231 1450 3742 
Q 1025 3253 1025 2328 
Q 1025 1406 1450 917 
Q 1875 428 2675 428 
Q 3081 428 3442 575 
Q 3803 722 4122 1019 
L 4122 359 
Q 3791 134 3420 21 
Q 3050 -91 2638 -91 
Q 1578 -91 968 557 
Q 359 1206 359 2328 
Q 359 3453 968 4101 
Q 1578 4750 2638 4750 
Q 3056 4750 3426 4639 
Q 3797 4528 4122 4306 
z
" transform="scale(0.015625)"/>
      <path id="DejaVuSans-48" d="M 628 4666 
L 1259 4666 
L 1259 2753 
L 3553 2753 
L 3553 4666 
L 4184 4666 
L 4184 0 
L 3553 0 
L 3553 2222 
L 1259 2222 
L 1259 0 
L 628 0 
L 628 4666 
z
" transform="scale(0.015625)"/>
      <path id="DejaVuSans-62" d="M 3116 1747 
Q 3116 2381 2855 2742 
Q 2594 3103 2138 3103 
Q 1681 3103 1420 2742 
Q 1159 2381 1159 1747 
Q 1159 1113 1420 752 
Q 1681 391 2138 391 
Q 2594 391 2855 752 
Q 3116 1113 3116 1747 
z
M 1159 2969 
Q 1341 3281 1617 3432 
Q 1894 3584 2278 3584 
Q 2916 3584 3314 3078 
Q 3713 2572 3713 1747 
Q 3713 922 3314 415 
Q 2916 -91 2278 -91 
Q 1894 -91 1617 61 
Q 1341 213 1159 525 
L 1159 0 
L 581 0 
L 581 4863 
L 1159 4863 
L 1159 2969 
z
" transform="scale(0.015625)"/>
      <path id="DejaVuSans-6e" d="M 3513 2113 
L 3513 0 
L 2938 0 
L 2938 2094 
Q 2938 2591 2744 2837 
Q 2550 3084 2163 3084 
Q 1697 3084 1428 2787 
Q 1159 2491 1159 1978 
L 1159 0 
L 581 0 
L 581 3500 
L 1159 3500 
L 1159 2956 
Q 1366 3272 1645 3428 
Q 1925 3584 2291 3584 
Q 2894 3584 3203 3211 
Q 3513 2838 3513 2113 
z
" transform="scale(0.015625)"/>
     </defs>
     <use xlink:href="#DejaVuSans-41"/>
     <use xlink:href="#DejaVuSans-49" transform="translate(68.408203 0)"/>
     <use xlink:href="#DejaVuSans-52" transform="translate(97.900391 0)"/>
     <use xlink:href="#DejaVuSans-53" transform="translate(167.382812 0)"/>
     <use xlink:href="#DejaVuSans-2d" transform="translate(230.859375 0)"/>
     <use xlink:href="#DejaVuSans-43" transform="translate(266.943359 0)"/>
     <use xlink:href="#DejaVuSans-48" transform="translate(336.767578 0)"/>
     <use xlink:href="#DejaVuSans-30" transform="translate(411.962891 0)"/>
     <use xlink:href="#DejaVuSans-2d" transform="translate(475.585938 0)"/>
     <use xlink:href="#DejaVuSans-62" transform="translate(511.669922 0)"/>
     <use xlink:href="#DejaVuSans-69" transform="translate(575.146484 0)"/>
     <use xlink:href="#DejaVuSans-6e" transform="translate(602.929688 0)"/>
     <use xlink:href="#DejaVuSans-31" transform="translate(666.308594 0)"/>
    </g>
   </g>
   <g id="text_21">
    <!-- AIRS-CH0-bin2 -->
    <g transform="translate(338.18077 291.303331) scale(0.1 -0.1)">
     <use xlink:href="#DejaVuSans-41"/>
     <use xlink:href="#DejaVuSans-49" transform="translate(68.408203 0)"/>
     <use xlink:href="#DejaVuSans-52" transform="translate(97.900391 0)"/>
     <use xlink:href="#DejaVuSans-53" transform="translate(167.382812 0)"/>
     <use xlink:href="#DejaVuSans-2d" transform="translate(230.859375 0)"/>
     <use xlink:href="#DejaVuSans-43" transform="translate(266.943359 0)"/>
     <use xlink:href="#DejaVuSans-48" transform="translate(336.767578 0)"/>
     <use xlink:href="#DejaVuSans-30" transform="translate(411.962891 0)"/>
     <use xlink:href="#DejaVuSans-2d" transform="translate(475.585938 0)"/>
     <use xlink:href="#DejaVuSans-62" transform="translate(511.669922 0)"/>
     <use xlink:href="#DejaVuSans-69" transform="translate(575.146484 0)"/>
     <use xlink:href="#DejaVuSans-6e" transform="translate(602.929688 0)"/>
     <use xlink:href="#DejaVuSans-32" transform="translate(666.308594 0)"/>
    </g>
   </g>
   <g id="text_22">
    <!-- AIRS-CH1 -->
    <g transform="translate(598.855895 168.855497) scale(0.1 -0.1)">
     <use xlink:href="#DejaVuSans-41"/>
     <use xlink:href="#DejaVuSans-49" transform="translate(68.408203 0)"/>
     <use xlink:href="#DejaVuSans-52" transform="translate(97.900391 0)"/>
     <use xlink:href="#DejaVuSans-53" transform="translate(167.382812 0)"/>
     <use xlink:href="#DejaVuSans-2d" transform="translate(230.859375 0)"/>
     <use xlink:href="#DejaVuSans-43" transform="translate(266.943359 0)"/>
     <use xlink:href="#DejaVuSans-48" transform="translate(336.767578 0)"/>
     <use xlink:href="#DejaVuSans-31" transform="translate(411.962891 0)"/>
    </g>
   </g>
   <g id="text_23">
    <!-- Eclipse depth for HD213885b -->
    <g transform="translate(265.945781 80.4) scale(0.14 -0.14)">
     <defs>
      <path id="DejaVuSans-66" d="M 2375 4863 
L 2375 4384 
L 1825 4384 
Q 1516 4384 1395 4259 
Q 1275 4134 1275 3809 
L 1275 3500 
L 2222 3500 
L 2222 3053 
L 1275 3053 
L 1275 0 
L 697 0 
L 697 3053 
L 147 3053 
L 147 3500 
L 697 3500 
L 697 3744 
Q 697 4328 969 4595 
Q 1241 4863 1831 4863 
L 2375 4863 
z
" transform="scale(0.015625)"/>
      <path id="DejaVuSans-6f" d="M 1959 3097 
Q 1497 3097 1228 2736 
Q 959 2375 959 1747 
Q 959 1119 1226 758 
Q 1494 397 1959 397 
Q 2419 397 2687 759 
Q 2956 1122 2956 1747 
Q 2956 2369 2687 2733 
Q 2419 3097 1959 3097 
z
M 1959 3584 
Q 2709 3584 3137 3096 
Q 3566 2609 3566 1747 
Q 3566 888 3137 398 
Q 2709 -91 1959 -91 
Q 1206 -91 779 398 
Q 353 888 353 1747 
Q 353 2609 779 3096 
Q 1206 3584 1959 3584 
z
" transform="scale(0.015625)"/>
      <path id="DejaVuSans-72" d="M 2631 2963 
Q 2534 3019 2420 3045 
Q 2306 3072 2169 3072 
Q 1681 3072 1420 2755 
Q 1159 2438 1159 1844 
L 1159 0 
L 581 0 
L 581 3500 
L 1159 3500 
L 1159 2956 
Q 1341 3275 1631 3429 
Q 1922 3584 2338 3584 
Q 2397 3584 2469 3576 
Q 2541 3569 2628 3553 
L 2631 2963 
z
" transform="scale(0.015625)"/>
      <path id="DejaVuSans-44" d="M 1259 4147 
L 1259 519 
L 2022 519 
Q 2988 519 3436 956 
Q 3884 1394 3884 2338 
Q 3884 3275 3436 3711 
Q 2988 4147 2022 4147 
L 1259 4147 
z
M 628 4666 
L 1925 4666 
Q 3281 4666 3915 4102 
Q 4550 3538 4550 2338 
Q 4550 1131 3912 565 
Q 3275 0 1925 0 
L 628 0 
L 628 4666 
z
" transform="scale(0.015625)"/>
      <path id="DejaVuSans-38" d="M 2034 2216 
Q 1584 2216 1326 1975 
Q 1069 1734 1069 1313 
Q 1069 891 1326 650 
Q 1584 409 2034 409 
Q 2484 409 2743 651 
Q 3003 894 3003 1313 
Q 3003 1734 2745 1975 
Q 2488 2216 2034 2216 
z
M 1403 2484 
Q 997 2584 770 2862 
Q 544 3141 544 3541 
Q 544 4100 942 4425 
Q 1341 4750 2034 4750 
Q 2731 4750 3128 4425 
Q 3525 4100 3525 3541 
Q 3525 3141 3298 2862 
Q 3072 2584 2669 2484 
Q 3125 2378 3379 2068 
Q 3634 1759 3634 1313 
Q 3634 634 3220 271 
Q 2806 -91 2034 -91 
Q 1263 -91 848 271 
Q 434 634 434 1313 
Q 434 1759 690 2068 
Q 947 2378 1403 2484 
z
M 1172 3481 
Q 1172 3119 1398 2916 
Q 1625 2713 2034 2713 
Q 2441 2713 2670 2916 
Q 2900 3119 2900 3481 
Q 2900 3844 2670 4047 
Q 2441 4250 2034 4250 
Q 1625 4250 1398 4047 
Q 1172 3844 1172 3481 
z
" transform="scale(0.015625)"/>
     </defs>
     <use xlink:href="#DejaVuSans-45"/>
     <use xlink:href="#DejaVuSans-63" transform="translate(63.183594 0)"/>
     <use xlink:href="#DejaVuSans-6c" transform="translate(118.164062 0)"/>
     <use xlink:href="#DejaVuSans-69" transform="translate(145.947266 0)"/>
     <use xlink:href="#DejaVuSans-70" transform="translate(173.730469 0)"/>
     <use xlink:href="#DejaVuSans-73" transform="translate(237.207031 0)"/>
     <use xlink:href="#DejaVuSans-65" transform="translate(289.306641 0)"/>
     <use xlink:href="#DejaVuSans-20" transform="translate(350.830078 0)"/>
     <use xlink:href="#DejaVuSans-64" transform="translate(382.617188 0)"/>
     <use xlink:href="#DejaVuSans-65" transform="translate(446.09375 0)"/>
     <use xlink:href="#DejaVuSans-70" transform="translate(507.617188 0)"/>
     <use xlink:href="#DejaVuSans-74" transform="translate(571.09375 0)"/>
     <use xlink:href="#DejaVuSans-68" transform="translate(610.302734 0)"/>
     <use xlink:href="#DejaVuSans-20" transform="translate(673.681641 0)"/>
     <use xlink:href="#DejaVuSans-66" transform="translate(705.46875 0)"/>
     <use xlink:href="#DejaVuSans-6f" transform="translate(740.673828 0)"/>
     <use xlink:href="#DejaVuSans-72" transform="translate(801.855469 0)"/>
     <use xlink:href="#DejaVuSans-20" transform="translate(842.96875 0)"/>
     <use xlink:href="#DejaVuSans-48" transform="translate(874.755859 0)"/>
     <use xlink:href="#DejaVuSans-44" transform="translate(949.951172 0)"/>
     <use xlink:href="#DejaVuSans-32" transform="translate(1026.953125 0)"/>
     <use xlink:href="#DejaVuSans-31" transform="translate(1090.576172 0)"/>
     <use xlink:href="#DejaVuSans-33" transform="translate(1154.199219 0)"/>
     <use xlink:href="#DejaVuSans-38" transform="translate(1217.822266 0)"/>
     <use xlink:href="#DejaVuSans-38" transform="translate(1281.445312 0)"/>
     <use xlink:href="#DejaVuSans-35" transform="translate(1345.068359 0)"/>
     <use xlink:href="#DejaVuSans-62" transform="translate(1408.691406 0)"/>
    </g>
   </g>
   <g id="legend_1">
    <g id="patch_7">
     <path d="M 98.4 272.1375 
L 240.6975 272.1375 
Q 243.0975 272.1375 243.0975 269.7375 
L 243.0975 94.8 
Q 243.0975 92.4 240.6975 92.4 
L 98.4 92.4 
Q 96 92.4 96 94.8 
L 96 269.7375 
Q 96 272.1375 98.4 272.1375 
z
" style="fill: #ffffff; opacity: 0.8; stroke: #cccccc; stroke-linejoin: miter"/>
    </g>
    <g id="patch_8">
     <path d="M 100.8 106.318125 
L 124.8 106.318125 
L 124.8 97.918125 
L 100.8 97.918125 
z
" style="fill: #1f77b4; fill-opacity: 0.2"/>
    </g>
    <g id="text_24">
     <!-- asymmetric error -->
     <g transform="translate(134.4 106.318125) scale(0.12 -0.12)">
      <defs>
       <path id="DejaVuSans-61" d="M 2194 1759 
Q 1497 1759 1228 1600 
Q 959 1441 959 1056 
Q 959 750 1161 570 
Q 1363 391 1709 391 
Q 2188 391 2477 730 
Q 2766 1069 2766 1631 
L 2766 1759 
L 2194 1759 
z
M 3341 1997 
L 3341 0 
L 2766 0 
L 2766 531 
Q 2569 213 2275 61 
Q 1981 -91 1556 -91 
Q 1019 -91 701 211 
Q 384 513 384 1019 
Q 384 1609 779 1909 
Q 1175 2209 1959 2209 
L 2766 2209 
L 2766 2266 
Q 2766 2663 2505 2880 
Q 2244 3097 1772 3097 
Q 1472 3097 1187 3025 
Q 903 2953 641 2809 
L 641 3341 
Q 956 3463 1253 3523 
Q 1550 3584 1831 3584 
Q 2591 3584 2966 3190 
Q 3341 2797 3341 1997 
z
" transform="scale(0.015625)"/>
       <path id="DejaVuSans-79" d="M 2059 -325 
Q 1816 -950 1584 -1140 
Q 1353 -1331 966 -1331 
L 506 -1331 
L 506 -850 
L 844 -850 
Q 1081 -850 1212 -737 
Q 1344 -625 1503 -206 
L 1606 56 
L 191 3500 
L 800 3500 
L 1894 763 
L 2988 3500 
L 3597 3500 
L 2059 -325 
z
" transform="scale(0.015625)"/>
      </defs>
      <use xlink:href="#DejaVuSans-61"/>
      <use xlink:href="#DejaVuSans-73" transform="translate(61.279297 0)"/>
      <use xlink:href="#DejaVuSans-79" transform="translate(113.378906 0)"/>
      <use xlink:href="#DejaVuSans-6d" transform="translate(172.558594 0)"/>
      <use xlink:href="#DejaVuSans-6d" transform="translate(269.970703 0)"/>
      <use xlink:href="#DejaVuSans-65" transform="translate(367.382812 0)"/>
      <use xlink:href="#DejaVuSans-74" transform="translate(428.90625 0)"/>
      <use xlink:href="#DejaVuSans-72" transform="translate(468.115234 0)"/>
      <use xlink:href="#DejaVuSans-69" transform="translate(509.228516 0)"/>
      <use xlink:href="#DejaVuSans-63" transform="translate(537.011719 0)"/>
      <use xlink:href="#DejaVuSans-20" transform="translate(591.992188 0)"/>
      <use xlink:href="#DejaVuSans-65" transform="translate(623.779297 0)"/>
      <use xlink:href="#DejaVuSans-72" transform="translate(685.302734 0)"/>
      <use xlink:href="#DejaVuSans-72" transform="translate(724.666016 0)"/>
      <use xlink:href="#DejaVuSans-6f" transform="translate(763.529297 0)"/>
      <use xlink:href="#DejaVuSans-72" transform="translate(824.710938 0)"/>
     </g>
    </g>
    <g id="line2d_18">
     <path d="M 100.8 119.731875 
L 112.8 119.731875 
L 124.8 119.731875 
" style="fill: none; stroke: #ff7f0e; stroke-width: 1.5; stroke-linecap: square"/>
    </g>
    <g id="text_25">
     <!-- B(T = 2725.1 K) -->
     <g transform="translate(134.4 123.931875) scale(0.12 -0.12)">
      <defs>
       <path id="DejaVuSans-42" d="M 1259 2228 
L 1259 519 
L 2272 519 
Q 2781 519 3026 730 
Q 3272 941 3272 1375 
Q 3272 1813 3026 2020 
Q 2781 2228 2272 2228 
L 1259 2228 
z
M 1259 4147 
L 1259 2741 
L 2194 2741 
Q 2656 2741 2882 2914 
Q 3109 3088 3109 3444 
Q 3109 3797 2882 3972 
Q 2656 4147 2194 4147 
L 1259 4147 
z
M 628 4666 
L 2241 4666 
Q 2963 4666 3353 4366 
Q 3744 4066 3744 3513 
Q 3744 3084 3544 2831 
Q 3344 2578 2956 2516 
Q 3422 2416 3680 2098 
Q 3938 1781 3938 1306 
Q 3938 681 3513 340 
Q 3088 0 2303 0 
L 628 0 
L 628 4666 
z
" transform="scale(0.015625)"/>
       <path id="DejaVuSans-54" d="M -19 4666 
L 3928 4666 
L 3928 4134 
L 2272 4134 
L 2272 0 
L 1638 0 
L 1638 4134 
L -19 4134 
L -19 4666 
z
" transform="scale(0.015625)"/>
       <path id="DejaVuSans-3d" d="M 678 2906 
L 4684 2906 
L 4684 2381 
L 678 2381 
L 678 2906 
z
M 678 1631 
L 4684 1631 
L 4684 1100 
L 678 1100 
L 678 1631 
z
" transform="scale(0.015625)"/>
       <path id="DejaVuSans-2e" d="M 684 794 
L 1344 794 
L 1344 0 
L 684 0 
L 684 794 
z
" transform="scale(0.015625)"/>
       <path id="DejaVuSans-4b" d="M 628 4666 
L 1259 4666 
L 1259 2694 
L 3353 4666 
L 4166 4666 
L 1850 2491 
L 4331 0 
L 3500 0 
L 1259 2247 
L 1259 0 
L 628 0 
L 628 4666 
z
" transform="scale(0.015625)"/>
      </defs>
      <use xlink:href="#DejaVuSans-42"/>
      <use xlink:href="#DejaVuSans-28" transform="translate(68.603516 0)"/>
      <use xlink:href="#DejaVuSans-54" transform="translate(107.617188 0)"/>
      <use xlink:href="#DejaVuSans-20" transform="translate(168.701172 0)"/>
      <use xlink:href="#DejaVuSans-3d" transform="translate(200.488281 0)"/>
      <use xlink:href="#DejaVuSans-20" transform="translate(284.277344 0)"/>
      <use xlink:href="#DejaVuSans-32" transform="translate(316.064453 0)"/>
      <use xlink:href="#DejaVuSans-37" transform="translate(379.6875 0)"/>
      <use xlink:href="#DejaVuSans-32" transform="translate(443.310547 0)"/>
      <use xlink:href="#DejaVuSans-35" transform="translate(506.933594 0)"/>
      <use xlink:href="#DejaVuSans-2e" transform="translate(570.556641 0)"/>
      <use xlink:href="#DejaVuSans-31" transform="translate(602.34375 0)"/>
      <use xlink:href="#DejaVuSans-20" transform="translate(665.966797 0)"/>
      <use xlink:href="#DejaVuSans-4b" transform="translate(697.753906 0)"/>
      <use xlink:href="#DejaVuSans-29" transform="translate(763.330078 0)"/>
     </g>
    </g>
    <g id="line2d_19">
     <path d="M 100.8 137.345625 
L 112.8 137.345625 
L 124.8 137.345625 
" style="fill: none; stroke-dasharray: 5.55,2.4; stroke-dashoffset: 0; stroke: #000000; stroke-width: 1.5"/>
    </g>
    <g id="text_26">
     <!-- Metal-rich -->
     <g transform="translate(134.4 141.545625) scale(0.12 -0.12)">
      <defs>
       <path id="DejaVuSans-4d" d="M 628 4666 
L 1569 4666 
L 2759 1491 
L 3956 4666 
L 4897 4666 
L 4897 0 
L 4281 0 
L 4281 4097 
L 3078 897 
L 2444 897 
L 1241 4097 
L 1241 0 
L 628 0 
L 628 4666 
z
" transform="scale(0.015625)"/>
      </defs>
      <use xlink:href="#DejaVuSans-4d"/>
      <use xlink:href="#DejaVuSans-65" transform="translate(86.279297 0)"/>
      <use xlink:href="#DejaVuSans-74" transform="translate(147.802734 0)"/>
      <use xlink:href="#DejaVuSans-61" transform="translate(187.011719 0)"/>
      <use xlink:href="#DejaVuSans-6c" transform="translate(248.291016 0)"/>
      <use xlink:href="#DejaVuSans-2d" transform="translate(276.074219 0)"/>
      <use xlink:href="#DejaVuSans-72" transform="translate(312.158203 0)"/>
      <use xlink:href="#DejaVuSans-69" transform="translate(353.271484 0)"/>
      <use xlink:href="#DejaVuSans-63" transform="translate(381.054688 0)"/>
      <use xlink:href="#DejaVuSans-68" transform="translate(436.035156 0)"/>
     </g>
    </g>
    <g id="line2d_20">
     <path d="M 100.8 154.959375 
L 112.8 154.959375 
L 124.8 154.959375 
" style="fill: none; stroke-dasharray: 5.55,2.4; stroke-dashoffset: 0; stroke: #00ff00; stroke-width: 1.5"/>
    </g>
    <g id="text_27">
     <!-- Ultramafic -->
     <g transform="translate(134.4 159.159375) scale(0.12 -0.12)">
      <defs>
       <path id="DejaVuSans-55" d="M 556 4666 
L 1191 4666 
L 1191 1831 
Q 1191 1081 1462 751 
Q 1734 422 2344 422 
Q 2950 422 3222 751 
Q 3494 1081 3494 1831 
L 3494 4666 
L 4128 4666 
L 4128 1753 
Q 4128 841 3676 375 
Q 3225 -91 2344 -91 
Q 1459 -91 1007 375 
Q 556 841 556 1753 
L 556 4666 
z
" transform="scale(0.015625)"/>
      </defs>
      <use xlink:href="#DejaVuSans-55"/>
      <use xlink:href="#DejaVuSans-6c" transform="translate(73.193359 0)"/>
      <use xlink:href="#DejaVuSans-74" transform="translate(100.976562 0)"/>
      <use xlink:href="#DejaVuSans-72" transform="translate(140.185547 0)"/>
      <use xlink:href="#DejaVuSans-61" transform="translate(181.298828 0)"/>
      <use xlink:href="#DejaVuSans-6d" transform="translate(242.578125 0)"/>
      <use xlink:href="#DejaVuSans-61" transform="translate(339.990234 0)"/>
      <use xlink:href="#DejaVuSans-66" transform="translate(401.269531 0)"/>
      <use xlink:href="#DejaVuSans-69" transform="translate(436.474609 0)"/>
      <use xlink:href="#DejaVuSans-63" transform="translate(464.257812 0)"/>
     </g>
    </g>
    <g id="line2d_21">
     <path d="M 100.8 172.573125 
L 112.8 172.573125 
L 124.8 172.573125 
" style="fill: none; stroke-dasharray: 5.55,2.4; stroke-dashoffset: 0; stroke: #ffff00; stroke-width: 1.5"/>
    </g>
    <g id="text_28">
     <!-- Feldspathic -->
     <g transform="translate(134.4 176.773125) scale(0.12 -0.12)">
      <use xlink:href="#DejaVuSans-46"/>
      <use xlink:href="#DejaVuSans-65" transform="translate(52.019531 0)"/>
      <use xlink:href="#DejaVuSans-6c" transform="translate(113.542969 0)"/>
      <use xlink:href="#DejaVuSans-64" transform="translate(141.326172 0)"/>
      <use xlink:href="#DejaVuSans-73" transform="translate(204.802734 0)"/>
      <use xlink:href="#DejaVuSans-70" transform="translate(256.902344 0)"/>
      <use xlink:href="#DejaVuSans-61" transform="translate(320.378906 0)"/>
      <use xlink:href="#DejaVuSans-74" transform="translate(381.658203 0)"/>
      <use xlink:href="#DejaVuSans-68" transform="translate(420.867188 0)"/>
      <use xlink:href="#DejaVuSans-69" transform="translate(484.246094 0)"/>
      <use xlink:href="#DejaVuSans-63" transform="translate(512.029297 0)"/>
     </g>
    </g>
    <g id="line2d_22">
     <path d="M 100.8 190.186875 
L 112.8 190.186875 
L 124.8 190.186875 
" style="fill: none; stroke-dasharray: 5.55,2.4; stroke-dashoffset: 0; stroke: #800000; stroke-width: 1.5"/>
    </g>
    <g id="text_29">
     <!-- Basaltic -->
     <g transform="translate(134.4 194.386875) scale(0.12 -0.12)">
      <use xlink:href="#DejaVuSans-42"/>
      <use xlink:href="#DejaVuSans-61" transform="translate(68.603516 0)"/>
      <use xlink:href="#DejaVuSans-73" transform="translate(129.882812 0)"/>
      <use xlink:href="#DejaVuSans-61" transform="translate(181.982422 0)"/>
      <use xlink:href="#DejaVuSans-6c" transform="translate(243.261719 0)"/>
      <use xlink:href="#DejaVuSans-74" transform="translate(271.044922 0)"/>
      <use xlink:href="#DejaVuSans-69" transform="translate(310.253906 0)"/>
      <use xlink:href="#DejaVuSans-63" transform="translate(338.037109 0)"/>
     </g>
    </g>
    <g id="line2d_23">
     <path d="M 100.8 207.800625 
L 112.8 207.800625 
L 124.8 207.800625 
" style="fill: none; stroke-dasharray: 5.55,2.4; stroke-dashoffset: 0; stroke: #80ff00; stroke-width: 1.5"/>
    </g>
    <g id="text_30">
     <!-- Granitoid -->
     <g transform="translate(134.4 212.000625) scale(0.12 -0.12)">
      <use xlink:href="#DejaVuSans-47"/>
      <use xlink:href="#DejaVuSans-72" transform="translate(77.490234 0)"/>
      <use xlink:href="#DejaVuSans-61" transform="translate(118.603516 0)"/>
      <use xlink:href="#DejaVuSans-6e" transform="translate(179.882812 0)"/>
      <use xlink:href="#DejaVuSans-69" transform="translate(243.261719 0)"/>
      <use xlink:href="#DejaVuSans-74" transform="translate(271.044922 0)"/>
      <use xlink:href="#DejaVuSans-6f" transform="translate(310.253906 0)"/>
      <use xlink:href="#DejaVuSans-69" transform="translate(371.435547 0)"/>
      <use xlink:href="#DejaVuSans-64" transform="translate(399.21875 0)"/>
     </g>
    </g>
    <g id="line2d_24">
     <path d="M 100.8 225.414375 
L 112.8 225.414375 
L 124.8 225.414375 
" style="fill: none; stroke-dasharray: 5.55,2.4; stroke-dashoffset: 0; stroke: #0000ff; stroke-width: 1.5"/>
    </g>
    <g id="text_31">
     <!-- Clay -->
     <g transform="translate(134.4 229.614375) scale(0.12 -0.12)">
      <use xlink:href="#DejaVuSans-43"/>
      <use xlink:href="#DejaVuSans-6c" transform="translate(69.824219 0)"/>
      <use xlink:href="#DejaVuSans-61" transform="translate(97.607422 0)"/>
      <use xlink:href="#DejaVuSans-79" transform="translate(158.886719 0)"/>
     </g>
    </g>
    <g id="line2d_25">
     <path d="M 100.8 243.028125 
L 112.8 243.028125 
L 124.8 243.028125 
" style="fill: none; stroke-dasharray: 5.55,2.4; stroke-dashoffset: 0; stroke: #00ffff; stroke-width: 1.5"/>
    </g>
    <g id="text_32">
     <!-- Ice-rich silicate -->
     <g transform="translate(134.4 247.228125) scale(0.12 -0.12)">
      <use xlink:href="#DejaVuSans-49"/>
      <use xlink:href="#DejaVuSans-63" transform="translate(29.492188 0)"/>
      <use xlink:href="#DejaVuSans-65" transform="translate(84.472656 0)"/>
      <use xlink:href="#DejaVuSans-2d" transform="translate(145.996094 0)"/>
      <use xlink:href="#DejaVuSans-72" transform="translate(182.080078 0)"/>
      <use xlink:href="#DejaVuSans-69" transform="translate(223.193359 0)"/>
      <use xlink:href="#DejaVuSans-63" transform="translate(250.976562 0)"/>
      <use xlink:href="#DejaVuSans-68" transform="translate(305.957031 0)"/>
      <use xlink:href="#DejaVuSans-20" transform="translate(369.335938 0)"/>
      <use xlink:href="#DejaVuSans-73" transform="translate(401.123047 0)"/>
      <use xlink:href="#DejaVuSans-69" transform="translate(453.222656 0)"/>
      <use xlink:href="#DejaVuSans-6c" transform="translate(481.005859 0)"/>
      <use xlink:href="#DejaVuSans-69" transform="translate(508.789062 0)"/>
      <use xlink:href="#DejaVuSans-63" transform="translate(536.572266 0)"/>
      <use xlink:href="#DejaVuSans-61" transform="translate(591.552734 0)"/>
      <use xlink:href="#DejaVuSans-74" transform="translate(652.832031 0)"/>
      <use xlink:href="#DejaVuSans-65" transform="translate(692.041016 0)"/>
     </g>
    </g>
    <g id="line2d_26">
     <path d="M 100.8 260.641875 
L 112.8 260.641875 
L 124.8 260.641875 
" style="fill: none; stroke-dasharray: 5.55,2.4; stroke-dashoffset: 0; stroke: #ff00ff; stroke-width: 1.5"/>
    </g>
    <g id="text_33">
     <!-- Fe-oxidized -->
     <g transform="translate(134.4 264.841875) scale(0.12 -0.12)">
      <defs>
       <path id="DejaVuSans-78" d="M 3513 3500 
L 2247 1797 
L 3578 0 
L 2900 0 
L 1881 1375 
L 863 0 
L 184 0 
L 1544 1831 
L 300 3500 
L 978 3500 
L 1906 2253 
L 2834 3500 
L 3513 3500 
z
" transform="scale(0.015625)"/>
       <path id="DejaVuSans-7a" d="M 353 3500 
L 3084 3500 
L 3084 2975 
L 922 459 
L 3084 459 
L 3084 0 
L 275 0 
L 275 525 
L 2438 3041 
L 353 3041 
L 353 3500 
z
" transform="scale(0.015625)"/>
      </defs>
      <use xlink:href="#DejaVuSans-46"/>
      <use xlink:href="#DejaVuSans-65" transform="translate(52.019531 0)"/>
      <use xlink:href="#DejaVuSans-2d" transform="translate(113.542969 0)"/>
      <use xlink:href="#DejaVuSans-6f" transform="translate(151.501953 0)"/>
      <use xlink:href="#DejaVuSans-78" transform="translate(209.558594 0)"/>
      <use xlink:href="#DejaVuSans-69" transform="translate(268.738281 0)"/>
      <use xlink:href="#DejaVuSans-64" transform="translate(296.521484 0)"/>
      <use xlink:href="#DejaVuSans-69" transform="translate(359.998047 0)"/>
      <use xlink:href="#DejaVuSans-7a" transform="translate(387.78125 0)"/>
      <use xlink:href="#DejaVuSans-65" transform="translate(440.271484 0)"/>
      <use xlink:href="#DejaVuSans-64" transform="translate(501.794922 0)"/>
     </g>
    </g>
   </g>
   <g id="line2d_27">
    <path d="M 119.972626 599.724982 
L 129.455597 587.619835 
L 138.929104 572.459425 
L 148.402612 555.197709 
L 157.876119 536.929916 
L 167.349627 518.852778 
L 176.823134 501.874985 
L 186.287178 486.165245 
L 195.760685 471.861407 
L 205.224729 458.047919 
L 214.688772 444.076696 
L 224.152815 430.378423 
L 233.616859 416.821426 
L 243.080902 403.841877 
L 252.55441 391.923269 
L 262.018453 381.122523 
L 271.482497 370.382129 
L 280.94654 356.716089 
L 290.420047 344.239921 
L 299.874627 332.951568 
L 309.33867 323.11575 
L 318.812178 310.868641 
L 328.276221 288.96128 
L 337.740265 268.755402 
L 347.204308 258.147368 
L 356.668351 251.390129 
L 366.132395 246.204756 
L 375.605902 242.042605 
L 385.069946 238.501793 
L 394.533989 234.691459 
L 403.998033 230.608861 
L 413.462076 226.483743 
L 422.926119 222.23998 
L 432.390163 219.192262 
L 441.854206 215.990238 
L 451.31825 212.03177 
L 460.791757 207.859331 
L 470.246336 203.64163 
L 479.71038 199.682476 
L 489.174423 195.490149 
L 498.638467 192.413627 
L 508.111974 189.697153 
L 517.576018 186.741333 
L 527.030597 184.40548 
L 536.49464 182.747889 
L 545.958684 180.893472 
L 555.413263 178.20443 
L 564.886771 174.597094 
L 574.350814 170.426713 
L 583.824322 165.617161 
L 593.297829 160.510656 
L 602.752408 155.363688 
L 612.206988 151.208395 
L 621.661567 146.88645 
" clip-path="url(#pc035ab1613)" style="fill: none; stroke-dasharray: 5.55,2.4; stroke-dashoffset: 0; stroke: #000000; stroke-width: 1.5"/>
   </g>
   <g id="line2d_28">
    <path d="M 119.972626 607.584995 
L 129.455597 599.700979 
L 138.929104 584.427411 
L 148.402612 566.950352 
L 157.876119 550.98275 
L 167.349627 538.860458 
L 176.823134 528.183157 
L 186.287178 522.56847 
L 195.760685 526.521451 
L 205.224729 534.378721 
L 214.688772 533.231369 
L 224.152815 521.606285 
L 233.616859 508.647997 
L 243.080902 501.098653 
L 252.55441 502.608796 
L 262.018453 511.278059 
L 271.482497 519.295808 
L 280.94654 520.936254 
L 290.420047 518.374771 
L 299.874627 512.342429 
L 309.33867 504.421379 
L 318.812178 475.756094 
L 328.276221 457.041157 
L 337.740265 444.134989 
L 347.204308 442.067287 
L 356.668351 438.881036 
L 366.132395 436.202281 
L 375.605902 434.715455 
L 385.069946 430.346876 
L 394.533989 427.685266 
L 403.998033 422.39908 
L 413.462076 415.176865 
L 422.926119 407.864125 
L 432.390163 400.954638 
L 441.854206 393.242073 
L 451.31825 385.988997 
L 460.791757 375.644998 
L 470.246336 368.925478 
L 479.71038 361.212913 
L 489.174423 352.342023 
L 498.638467 339.63131 
L 508.111974 325.39468 
L 517.576018 303.872057 
L 527.030597 276.196389 
L 536.49464 270.338926 
L 545.958684 253.514068 
L 555.413263 246.749286 
L 564.886771 248.402076 
L 574.350814 239.702638 
L 583.824322 234.281348 
L 593.297829 223.165817 
L 602.752408 226.212164 
L 612.206988 222.132995 
L 621.661567 210.803493 
" clip-path="url(#pc035ab1613)" style="fill: none; stroke-dasharray: 5.55,2.4; stroke-dashoffset: 0; stroke: #00ff00; stroke-width: 1.5"/>
   </g>
   <g id="line2d_29">
    <path d="M 119.972626 608.85442 
L 129.455597 604.73616 
L 138.929104 599.772988 
L 148.402612 592.429386 
L 157.876119 582.933728 
L 167.349627 573.568372 
L 176.823134 563.74627 
L 186.287178 556.132461 
L 195.760685 551.963452 
L 205.224729 549.279896 
L 214.688772 545.491508 
L 224.152815 540.959022 
L 233.616859 536.411448 
L 243.080902 531.453762 
L 252.55441 526.976826 
L 262.018453 522.799586 
L 271.482497 519.795074 
L 280.94654 516.614995 
L 290.420047 514.954661 
L 299.874627 513.049494 
L 309.33867 509.60881 
L 318.812178 497.942578 
L 328.276221 480.708294 
L 337.740265 469.84171 
L 347.204308 468.334311 
L 356.668351 470.998664 
L 366.132395 473.16718 
L 375.605902 468.291791 
L 385.069946 458.383963 
L 394.533989 466.186369 
L 403.998033 466.51967 
L 413.462076 464.633706 
L 422.926119 461.053117 
L 432.390163 455.337617 
L 441.854206 448.656503 
L 451.31825 440.629153 
L 460.791757 424.594342 
L 470.246336 390.175838 
L 479.71038 376.640101 
L 489.174423 360.341941 
L 498.638467 323.195303 
L 508.111974 298.098263 
L 517.576018 279.482767 
L 527.030597 258.199489 
L 536.49464 237.465541 
L 545.958684 221.443075 
L 555.413263 206.661916 
L 564.886771 193.957375 
L 574.350814 184.978813 
L 583.824322 184.740153 
L 593.297829 181.121159 
L 602.752408 172.797542 
L 612.206988 162.895201 
L 621.661567 153.501041 
" clip-path="url(#pc035ab1613)" style="fill: none; stroke-dasharray: 5.55,2.4; stroke-dashoffset: 0; stroke: #ffff00; stroke-width: 1.5"/>
   </g>
   <g id="line2d_30">
    <path d="M 119.972626 602.266576 
L 129.455597 592.170838 
L 138.929104 579.111735 
L 148.402612 563.314899 
L 157.876119 547.798557 
L 167.349627 533.230683 
L 176.823134 517.680737 
L 186.287178 502.08004 
L 195.760685 486.898371 
L 205.224729 472.148759 
L 214.688772 457.770168 
L 224.152815 443.80786 
L 233.616859 430.36265 
L 243.080902 417.602558 
L 252.55441 405.731957 
L 262.018453 394.676777 
L 271.482497 384.072857 
L 280.94654 372.043835 
L 290.420047 360.664955 
L 299.874627 350.204369 
L 309.33867 340.115489 
L 318.812178 327.581713 
L 328.276221 317.230856 
L 337.740265 308.97239 
L 347.204308 301.795438 
L 356.668351 295.023112 
L 366.132395 288.929733 
L 375.605902 282.973515 
L 385.069946 277.345798 
L 394.533989 271.971829 
L 403.998033 266.693186 
L 413.462076 261.591481 
L 422.926119 256.565215 
L 432.390163 251.681597 
L 441.854206 246.946112 
L 451.31825 242.316241 
L 460.791757 237.523834 
L 470.246336 232.487281 
L 479.71038 227.466502 
L 489.174423 222.050698 
L 498.638467 215.877766 
L 508.111974 209.828964 
L 517.576018 204.335664 
L 527.030597 198.76967 
L 536.49464 192.699608 
L 545.958684 186.373055 
L 555.413263 180.097252 
L 564.886771 174.651273 
L 574.350814 169.653811 
L 583.824322 165.363414 
L 593.297829 160.985233 
L 602.752408 156.899206 
L 612.206988 152.161664 
L 621.661567 147.198492 
" clip-path="url(#pc035ab1613)" style="fill: none; stroke-dasharray: 5.55,2.4; stroke-dashoffset: 0; stroke: #800000; stroke-width: 1.5"/>
   </g>
   <g id="line2d_31">
    <path d="M 119.972626 608.953176 
L 129.455597 603.964629 
L 138.929104 598.111282 
L 148.402612 591.225798 
L 157.876119 583.917172 
L 167.349627 576.159344 
L 176.823134 569.13327 
L 186.287178 563.504867 
L 195.760685 559.319398 
L 205.224729 556.266193 
L 214.688772 553.828156 
L 224.152815 552.347503 
L 233.616859 550.810613 
L 243.080902 549.711267 
L 252.55441 550.043883 
L 262.018453 550.26677 
L 271.482497 547.550295 
L 280.94654 540.50159 
L 290.420047 533.004367 
L 299.874627 524.782249 
L 309.33867 513.993162 
L 318.812178 471.833975 
L 328.276221 449.08033 
L 337.740265 436.127528 
L 347.204308 435.419777 
L 356.668351 440.810891 
L 366.132395 448.556375 
L 375.605902 450.117954 
L 385.069946 448.197699 
L 394.533989 453.098463 
L 403.998033 449.532962 
L 413.462076 441.317016 
L 422.926119 438.164369 
L 432.390163 433.243031 
L 441.854206 426.347946 
L 451.31825 413.713357 
L 460.791757 399.20652 
L 470.246336 381.581327 
L 479.71038 357.210554 
L 489.174423 351.59381 
L 498.638467 331.561441 
L 508.111974 318.364492 
L 517.576018 302.490845 
L 527.030597 291.153799 
L 536.49464 279.129577 
L 545.958684 259.04783 
L 555.413263 238.643069 
L 564.886771 223.902372 
L 574.350814 211.594226 
L 583.824322 200.729015 
L 593.297829 192.397168 
L 602.752408 187.483374 
L 612.206988 182.022993 
L 621.661567 175.624431 
" clip-path="url(#pc035ab1613)" style="fill: none; stroke-dasharray: 5.55,2.4; stroke-dashoffset: 0; stroke: #80ff00; stroke-width: 1.5"/>
   </g>
   <g id="line2d_32">
    <path d="M 119.972626 610.658774 
L 129.455597 608.056143 
L 138.929104 604.591455 
L 148.402612 598.771027 
L 157.876119 592.804522 
L 167.349627 587.204237 
L 176.823134 584.258018 
L 186.287178 573.364002 
L 195.760685 564.20576 
L 205.224729 575.503714 
L 214.688772 576.059902 
L 224.152815 567.597752 
L 233.616859 539.780123 
L 243.080902 492.541862 
L 252.55441 517.341263 
L 262.018453 513.227804 
L 271.482497 480.537528 
L 280.94654 438.6122 
L 290.420047 425.488632 
L 299.874627 405.744987 
L 309.33867 377.849175 
L 318.812178 293.993719 
L 328.276221 288.674614 
L 337.740265 283.500214 
L 347.204308 288.350228 
L 356.668351 293.471821 
L 366.132395 300.934067 
L 375.605902 303.948181 
L 385.069946 308.078785 
L 394.533989 318.276023 
L 403.998033 321.334714 
L 413.462076 320.227138 
L 422.926119 318.808208 
L 432.390163 317.413966 
L 441.854206 313.840921 
L 451.31825 308.319503 
L 460.791757 301.554035 
L 470.246336 294.691183 
L 479.71038 286.569192 
L 489.174423 276.519403 
L 498.638467 264.483522 
L 508.111974 250.475265 
L 517.576018 238.84058 
L 527.030597 229.340807 
L 536.49464 221.631671 
L 545.958684 215.705629 
L 555.413263 204.557865 
L 564.886771 191.895844 
L 574.350814 183.857522 
L 583.824322 175.265755 
L 593.297829 165.783126 
L 602.752408 155.853353 
L 612.206988 148.353388 
L 621.661567 139.274699 
" clip-path="url(#pc035ab1613)" style="fill: none; stroke-dasharray: 5.55,2.4; stroke-dashoffset: 0; stroke: #0000ff; stroke-width: 1.5"/>
   </g>
   <g id="line2d_33">
    <path d="M 119.972626 604.464581 
L 129.455597 596.049066 
L 138.929104 585.076183 
L 148.402612 571.628229 
L 157.876119 558.523178 
L 167.349627 546.422146 
L 176.823134 531.909137 
L 186.287178 518.649093 
L 195.760685 489.760236 
L 205.224729 460.942017 
L 214.688772 452.355736 
L 224.152815 448.799836 
L 233.616859 436.259888 
L 243.080902 397.483092 
L 252.55441 381.607388 
L 262.018453 387.719284 
L 271.482497 390.856842 
L 280.94654 365.394953 
L 290.420047 346.702647 
L 299.874627 335.754453 
L 309.33867 315.822212 
L 318.812178 298.416476 
L 328.276221 283.47964 
L 337.740265 273.816645 
L 347.204308 269.477555 
L 356.668351 262.527606 
L 366.132395 254.536604 
L 375.605902 247.585282 
L 385.069946 241.911616 
L 394.533989 239.295955 
L 403.998033 238.774057 
L 413.462076 235.4335 
L 422.926119 228.113902 
L 432.390163 219.629806 
L 441.854206 212.024226 
L 451.31825 205.404835 
L 460.791757 199.559031 
L 470.246336 194.323595 
L 479.71038 189.385797 
L 489.174423 184.982242 
L 498.638467 181.134875 
L 508.111974 178.620028 
L 517.576018 176.033856 
L 527.030597 173.009455 
L 536.49464 168.747176 
L 545.958684 163.775089 
L 555.413263 158.471757 
L 564.886771 153.540132 
L 574.350814 148.787502 
L 583.824322 144.353086 
L 593.297829 139.943359 
L 602.752408 136.165258 
L 612.206988 132.528433 
L 621.661567 128.92247 
" clip-path="url(#pc035ab1613)" style="fill: none; stroke-dasharray: 5.55,2.4; stroke-dashoffset: 0; stroke: #00ffff; stroke-width: 1.5"/>
   </g>
   <g id="line2d_34">
    <path d="M 119.972626 601.128825 
L 129.455597 590.189547 
L 138.929104 576.176489 
L 148.402612 560.089557 
L 157.876119 544.192593 
L 167.349627 528.761291 
L 176.823134 512.435699 
L 186.287178 495.571749 
L 195.760685 479.256444 
L 205.224729 463.614599 
L 214.688772 448.718911 
L 224.152815 434.546061 
L 233.616859 421.035013 
L 243.080902 408.356533 
L 252.55441 396.972853 
L 262.018453 386.101469 
L 271.482497 375.996816 
L 280.94654 365.318143 
L 290.420047 355.363681 
L 299.874627 346.090223 
L 309.33867 336.865458 
L 318.812178 320.341668 
L 328.276221 307.663873 
L 337.740265 299.082393 
L 347.204308 292.918376 
L 356.668351 287.817357 
L 366.132395 283.789623 
L 375.605902 279.708397 
L 385.069946 275.744443 
L 394.533989 272.464237 
L 403.998033 268.866503 
L 413.462076 265.237222 
L 422.926119 261.24515 
L 432.390163 256.931435 
L 441.854206 252.897529 
L 451.31825 248.753894 
L 460.791757 244.220036 
L 470.246336 239.228746 
L 479.71038 232.710168 
L 489.174423 224.248018 
L 498.638467 217.049807 
L 508.111974 212.085949 
L 517.576018 208.215264 
L 527.030597 204.12718 
L 536.49464 200.77565 
L 545.958684 197.800627 
L 555.413263 194.397662 
L 564.886771 191.407551 
L 574.350814 188.758286 
L 583.824322 185.72977 
L 593.297829 182.359037 
L 602.752408 178.152994 
L 612.206988 172.394974 
L 621.661567 165.739235 
" clip-path="url(#pc035ab1613)" style="fill: none; stroke-dasharray: 5.55,2.4; stroke-dashoffset: 0; stroke: #ff00ff; stroke-width: 1.5"/>
   </g>
  </g>
 </g>
 <defs>
  <clipPath id="pc035ab1613">
   <rect x="90" y="86.4" width="558" height="554.4"/>
  </clipPath>
 </defs>
</svg>
