<?xml version="1.0" encoding="utf-8" standalone="no"?>
<!DOCTYPE svg PUBLIC "-//W3C//DTD SVG 1.1//EN"
  "http://www.w3.org/Graphics/SVG/1.1/DTD/svg11.dtd">
<svg xmlns:xlink="http://www.w3.org/1999/xlink" width="720pt" height="720pt" viewBox="0 0 720 720" xmlns="http://www.w3.org/2000/svg" version="1.1">
 <metadata>
  <rdf:RDF xmlns:dc="http://purl.org/dc/elements/1.1/" xmlns:cc="http://creativecommons.org/ns#" xmlns:rdf="http://www.w3.org/1999/02/22-rdf-syntax-ns#">
   <cc:Work>
    <dc:type rdf:resource="http://purl.org/dc/dcmitype/StillImage"/>
    <dc:date>2025-12-10T16:38:09.137461</dc:date>
    <dc:format>image/svg+xml</dc:format>
    <dc:creator>
     <cc:Agent>
      <dc:title>Matplotlib v3.10.7, https://matplotlib.org/</dc:title>
     </cc:Agent>
    </dc:creator>
   </cc:Work>
  </rdf:RDF>
 </metadata>
 <defs>
  <style type="text/css">*{stroke-linejoin: round; stroke-linecap: butt}</style>
 </defs>
 <g id="figure_1">
  <g id="patch_1">
   <path d="M 0 720 
L 720 720 
L 720 0 
L 0 0 
z
" style="fill: #ffffff"/>
  </g>
  <g id="axes_1">
   <g id="patch_2">
    <path d="M 90 640.8 
L 648 640.8 
L 648 86.4 
L 90 86.4 
z
" style="fill: #ffffff"/>
   </g>
   <g id="FillBetweenPolyCollection_1">
    <path d="M 124.82768 586.165151 
L 124.82768 606.521384 
L 148.487788 577.656154 
L 204.325645 477.023672 
L 281.930801 377.623936 
L 374.678426 326.490739 
L 622.636364 200.032818 
L 622.636364 152.9138 
L 622.636364 152.9138 
L 374.678426 255.97345 
L 281.930801 332.557858 
L 204.325645 416.129173 
L 148.487788 528.065314 
L 124.82768 586.165151 
z
" clip-path="url(#pb0118e5a33)" style="fill: #1f77b4; fill-opacity: 0.2"/>
   </g>
   <g id="matplotlib.axis_1">
    <g id="xtick_1">
     <g id="line2d_1">
      <defs>
       <path id="m423e5880c3" d="M 0 0 
L 0 3.5 
" style="stroke: #000000; stroke-width: 0.8"/>
      </defs>
      <g>
       <use xlink:href="#m423e5880c3" x="153.21981" y="640.8" style="stroke: #000000; stroke-width: 0.8"/>
      </g>
     </g>
     <g id="text_1">
      <!-- 1 -->
      <g transform="translate(148.76606 658.437813) scale(0.14 -0.14)">
       <defs>
        <path id="DejaVuSans-31" d="M 794 531 
L 1825 531 
L 1825 4091 
L 703 3866 
L 703 4441 
L 1819 4666 
L 2450 4666 
L 2450 531 
L 3481 531 
L 3481 0 
L 794 0 
L 794 531 
z
" transform="scale(0.015625)"/>
       </defs>
       <use xlink:href="#DejaVuSans-31"/>
      </g>
     </g>
    </g>
    <g id="xtick_2">
     <g id="line2d_2">
      <g>
       <use xlink:href="#m423e5880c3" x="247.860244" y="640.8" style="stroke: #000000; stroke-width: 0.8"/>
      </g>
     </g>
     <g id="text_2">
      <!-- 2 -->
      <g transform="translate(243.406494 658.437813) scale(0.14 -0.14)">
       <defs>
        <path id="DejaVuSans-32" d="M 1228 531 
L 3431 531 
L 3431 0 
L 469 0 
L 469 531 
Q 828 903 1448 1529 
Q 2069 2156 2228 2338 
Q 2531 2678 2651 2914 
Q 2772 3150 2772 3378 
Q 2772 3750 2511 3984 
Q 2250 4219 1831 4219 
Q 1534 4219 1204 4116 
Q 875 4013 500 3803 
L 500 4441 
Q 881 4594 1212 4672 
Q 1544 4750 1819 4750 
Q 2544 4750 2975 4387 
Q 3406 4025 3406 3419 
Q 3406 3131 3298 2873 
Q 3191 2616 2906 2266 
Q 2828 2175 2409 1742 
Q 1991 1309 1228 531 
z
" transform="scale(0.015625)"/>
       </defs>
       <use xlink:href="#DejaVuSans-32"/>
      </g>
     </g>
    </g>
    <g id="xtick_3">
     <g id="line2d_3">
      <g>
       <use xlink:href="#m423e5880c3" x="342.500678" y="640.8" style="stroke: #000000; stroke-width: 0.8"/>
      </g>
     </g>
     <g id="text_3">
      <!-- 3 -->
      <g transform="translate(338.046928 658.437813) scale(0.14 -0.14)">
       <defs>
        <path id="DejaVuSans-33" d="M 2597 2516 
Q 3050 2419 3304 2112 
Q 3559 1806 3559 1356 
Q 3559 666 3084 287 
Q 2609 -91 1734 -91 
Q 1441 -91 1130 -33 
Q 819 25 488 141 
L 488 750 
Q 750 597 1062 519 
Q 1375 441 1716 441 
Q 2309 441 2620 675 
Q 2931 909 2931 1356 
Q 2931 1769 2642 2001 
Q 2353 2234 1838 2234 
L 1294 2234 
L 1294 2753 
L 1863 2753 
Q 2328 2753 2575 2939 
Q 2822 3125 2822 3475 
Q 2822 3834 2567 4026 
Q 2313 4219 1838 4219 
Q 1578 4219 1281 4162 
Q 984 4106 628 3988 
L 628 4550 
Q 988 4650 1302 4700 
Q 1616 4750 1894 4750 
Q 2613 4750 3031 4423 
Q 3450 4097 3450 3541 
Q 3450 3153 3228 2886 
Q 3006 2619 2597 2516 
z
" transform="scale(0.015625)"/>
       </defs>
       <use xlink:href="#DejaVuSans-33"/>
      </g>
     </g>
    </g>
    <g id="xtick_4">
     <g id="line2d_4">
      <g>
       <use xlink:href="#m423e5880c3" x="437.141113" y="640.8" style="stroke: #000000; stroke-width: 0.8"/>
      </g>
     </g>
     <g id="text_4">
      <!-- 4 -->
      <g transform="translate(432.687363 658.437813) scale(0.14 -0.14)">
       <defs>
        <path id="DejaVuSans-34" d="M 2419 4116 
L 825 1625 
L 2419 1625 
L 2419 4116 
z
M 2253 4666 
L 3047 4666 
L 3047 1625 
L 3713 1625 
L 3713 1100 
L 3047 1100 
L 3047 0 
L 2419 0 
L 2419 1100 
L 313 1100 
L 313 1709 
L 2253 4666 
z
" transform="scale(0.015625)"/>
       </defs>
       <use xlink:href="#DejaVuSans-34"/>
      </g>
     </g>
    </g>
    <g id="xtick_5">
     <g id="line2d_5">
      <g>
       <use xlink:href="#m423e5880c3" x="531.781547" y="640.8" style="stroke: #000000; stroke-width: 0.8"/>
      </g>
     </g>
     <g id="text_5">
      <!-- 5 -->
      <g transform="translate(527.327797 658.437813) scale(0.14 -0.14)">
       <defs>
        <path id="DejaVuSans-35" d="M 691 4666 
L 3169 4666 
L 3169 4134 
L 1269 4134 
L 1269 2991 
Q 1406 3038 1543 3061 
Q 1681 3084 1819 3084 
Q 2600 3084 3056 2656 
Q 3513 2228 3513 1497 
Q 3513 744 3044 326 
Q 2575 -91 1722 -91 
Q 1428 -91 1123 -41 
Q 819 9 494 109 
L 494 744 
Q 775 591 1075 516 
Q 1375 441 1709 441 
Q 2250 441 2565 725 
Q 2881 1009 2881 1497 
Q 2881 1984 2565 2268 
Q 2250 2553 1709 2553 
Q 1456 2553 1204 2497 
Q 953 2441 691 2322 
L 691 4666 
z
" transform="scale(0.015625)"/>
       </defs>
       <use xlink:href="#DejaVuSans-35"/>
      </g>
     </g>
    </g>
    <g id="xtick_6">
     <g id="line2d_6">
      <g>
       <use xlink:href="#m423e5880c3" x="626.421981" y="640.8" style="stroke: #000000; stroke-width: 0.8"/>
      </g>
     </g>
     <g id="text_6">
      <!-- 6 -->
      <g transform="translate(621.968231 658.437813) scale(0.14 -0.14)">
       <defs>
        <path id="DejaVuSans-36" d="M 2113 2584 
Q 1688 2584 1439 2293 
Q 1191 2003 1191 1497 
Q 1191 994 1439 701 
Q 1688 409 2113 409 
Q 2538 409 2786 701 
Q 3034 994 3034 1497 
Q 3034 2003 2786 2293 
Q 2538 2584 2113 2584 
z
M 3366 4563 
L 3366 3988 
Q 3128 4100 2886 4159 
Q 2644 4219 2406 4219 
Q 1781 4219 1451 3797 
Q 1122 3375 1075 2522 
Q 1259 2794 1537 2939 
Q 1816 3084 2150 3084 
Q 2853 3084 3261 2657 
Q 3669 2231 3669 1497 
Q 3669 778 3244 343 
Q 2819 -91 2113 -91 
Q 1303 -91 875 529 
Q 447 1150 447 2328 
Q 447 3434 972 4092 
Q 1497 4750 2381 4750 
Q 2619 4750 2861 4703 
Q 3103 4656 3366 4563 
z
" transform="scale(0.015625)"/>
       </defs>
       <use xlink:href="#DejaVuSans-36"/>
      </g>
     </g>
    </g>
    <g id="text_7">
     <!-- $\lambda$ ($\mu$m) -->
     <g transform="translate(345.83 675.989375) scale(0.14 -0.14)">
      <defs>
       <path id="DejaVuSans-Oblique-3bb" d="M 2350 4316 
L 3125 0 
L 2516 0 
L 2038 2588 
L 328 0 
L -281 0 
L 1903 3356 
L 1794 3975 
Q 1725 4369 1391 4369 
L 1091 4369 
L 1184 4863 
L 1550 4856 
Q 2253 4847 2350 4316 
z
" transform="scale(0.015625)"/>
       <path id="DejaVuSans-20" transform="scale(0.015625)"/>
       <path id="DejaVuSans-28" d="M 1984 4856 
Q 1566 4138 1362 3434 
Q 1159 2731 1159 2009 
Q 1159 1288 1364 580 
Q 1569 -128 1984 -844 
L 1484 -844 
Q 1016 -109 783 600 
Q 550 1309 550 2009 
Q 550 2706 781 3412 
Q 1013 4119 1484 4856 
L 1984 4856 
z
" transform="scale(0.015625)"/>
       <path id="DejaVuSans-Oblique-3bc" d="M -84 -1331 
L 856 3500 
L 1434 3500 
L 1009 1322 
Q 997 1256 987 1175 
Q 978 1094 978 1013 
Q 978 722 1161 565 
Q 1344 409 1684 409 
Q 2147 409 2431 671 
Q 2716 934 2816 1459 
L 3213 3500 
L 3788 3500 
L 3266 809 
Q 3253 750 3248 706 
Q 3244 663 3244 628 
Q 3244 531 3283 486 
Q 3322 441 3406 441 
Q 3438 441 3492 456 
Q 3547 472 3647 513 
L 3559 50 
Q 3422 -19 3297 -55 
Q 3172 -91 3053 -91 
Q 2847 -91 2730 40 
Q 2613 172 2613 403 
Q 2438 153 2195 31 
Q 1953 -91 1625 -91 
Q 1334 -91 1117 43 
Q 900 178 831 397 
L 494 -1331 
L -84 -1331 
z
" transform="scale(0.015625)"/>
       <path id="DejaVuSans-6d" d="M 3328 2828 
Q 3544 3216 3844 3400 
Q 4144 3584 4550 3584 
Q 5097 3584 5394 3201 
Q 5691 2819 5691 2113 
L 5691 0 
L 5113 0 
L 5113 2094 
Q 5113 2597 4934 2840 
Q 4756 3084 4391 3084 
Q 3944 3084 3684 2787 
Q 3425 2491 3425 1978 
L 3425 0 
L 2847 0 
L 2847 2094 
Q 2847 2600 2669 2842 
Q 2491 3084 2119 3084 
Q 1678 3084 1418 2786 
Q 1159 2488 1159 1978 
L 1159 0 
L 581 0 
L 581 3500 
L 1159 3500 
L 1159 2956 
Q 1356 3278 1631 3431 
Q 1906 3584 2284 3584 
Q 2666 3584 2933 3390 
Q 3200 3197 3328 2828 
z
" transform="scale(0.015625)"/>
       <path id="DejaVuSans-29" d="M 513 4856 
L 1013 4856 
Q 1481 4119 1714 3412 
Q 1947 2706 1947 2009 
Q 1947 1309 1714 600 
Q 1481 -109 1013 -844 
L 513 -844 
Q 928 -128 1133 580 
Q 1338 1288 1338 2009 
Q 1338 2731 1133 3434 
Q 928 4138 513 4856 
z
" transform="scale(0.015625)"/>
      </defs>
      <use xlink:href="#DejaVuSans-Oblique-3bb" transform="translate(0 0.015625)"/>
      <use xlink:href="#DejaVuSans-20" transform="translate(59.179688 0.015625)"/>
      <use xlink:href="#DejaVuSans-28" transform="translate(90.966797 0.015625)"/>
      <use xlink:href="#DejaVuSans-Oblique-3bc" transform="translate(129.980469 0.015625)"/>
      <use xlink:href="#DejaVuSans-6d" transform="translate(193.603516 0.015625)"/>
      <use xlink:href="#DejaVuSans-29" transform="translate(291.015625 0.015625)"/>
     </g>
    </g>
   </g>
   <g id="matplotlib.axis_2">
    <g id="ytick_1">
     <g id="line2d_7">
      <defs>
       <path id="me071530e9a" d="M 0 0 
L -3.5 0 
" style="stroke: #000000; stroke-width: 0.8"/>
      </defs>
      <g>
       <use xlink:href="#me071530e9a" x="90" y="615.6" style="stroke: #000000; stroke-width: 0.8"/>
      </g>
     </g>
     <g id="text_8">
      <!-- 0 -->
      <g transform="translate(74.0925 620.918906) scale(0.14 -0.14)">
       <defs>
        <path id="DejaVuSans-30" d="M 2034 4250 
Q 1547 4250 1301 3770 
Q 1056 3291 1056 2328 
Q 1056 1369 1301 889 
Q 1547 409 2034 409 
Q 2525 409 2770 889 
Q 3016 1369 3016 2328 
Q 3016 3291 2770 3770 
Q 2525 4250 2034 4250 
z
M 2034 4750 
Q 2819 4750 3233 4129 
Q 3647 3509 3647 2328 
Q 3647 1150 3233 529 
Q 2819 -91 2034 -91 
Q 1250 -91 836 529 
Q 422 1150 422 2328 
Q 422 3509 836 4129 
Q 1250 4750 2034 4750 
z
" transform="scale(0.015625)"/>
       </defs>
       <use xlink:href="#DejaVuSans-30"/>
      </g>
     </g>
    </g>
    <g id="ytick_2">
     <g id="line2d_8">
      <g>
       <use xlink:href="#me071530e9a" x="90" y="547.019482" style="stroke: #000000; stroke-width: 0.8"/>
      </g>
     </g>
     <g id="text_9">
      <!-- 10 -->
      <g transform="translate(65.185 552.338388) scale(0.14 -0.14)">
       <use xlink:href="#DejaVuSans-31"/>
       <use xlink:href="#DejaVuSans-30" transform="translate(63.623047 0)"/>
      </g>
     </g>
    </g>
    <g id="ytick_3">
     <g id="line2d_9">
      <g>
       <use xlink:href="#me071530e9a" x="90" y="478.438964" style="stroke: #000000; stroke-width: 0.8"/>
      </g>
     </g>
     <g id="text_10">
      <!-- 20 -->
      <g transform="translate(65.185 483.75787) scale(0.14 -0.14)">
       <use xlink:href="#DejaVuSans-32"/>
       <use xlink:href="#DejaVuSans-30" transform="translate(63.623047 0)"/>
      </g>
     </g>
    </g>
    <g id="ytick_4">
     <g id="line2d_10">
      <g>
       <use xlink:href="#me071530e9a" x="90" y="409.858446" style="stroke: #000000; stroke-width: 0.8"/>
      </g>
     </g>
     <g id="text_11">
      <!-- 30 -->
      <g transform="translate(65.185 415.177353) scale(0.14 -0.14)">
       <use xlink:href="#DejaVuSans-33"/>
       <use xlink:href="#DejaVuSans-30" transform="translate(63.623047 0)"/>
      </g>
     </g>
    </g>
    <g id="ytick_5">
     <g id="line2d_11">
      <g>
       <use xlink:href="#me071530e9a" x="90" y="341.277928" style="stroke: #000000; stroke-width: 0.8"/>
      </g>
     </g>
     <g id="text_12">
      <!-- 40 -->
      <g transform="translate(65.185 346.596835) scale(0.14 -0.14)">
       <use xlink:href="#DejaVuSans-34"/>
       <use xlink:href="#DejaVuSans-30" transform="translate(63.623047 0)"/>
      </g>
     </g>
    </g>
    <g id="ytick_6">
     <g id="line2d_12">
      <g>
       <use xlink:href="#me071530e9a" x="90" y="272.697411" style="stroke: #000000; stroke-width: 0.8"/>
      </g>
     </g>
     <g id="text_13">
      <!-- 50 -->
      <g transform="translate(65.185 278.016317) scale(0.14 -0.14)">
       <use xlink:href="#DejaVuSans-35"/>
       <use xlink:href="#DejaVuSans-30" transform="translate(63.623047 0)"/>
      </g>
     </g>
    </g>
    <g id="ytick_7">
     <g id="line2d_13">
      <g>
       <use xlink:href="#me071530e9a" x="90" y="204.116893" style="stroke: #000000; stroke-width: 0.8"/>
      </g>
     </g>
     <g id="text_14">
      <!-- 60 -->
      <g transform="translate(65.185 209.435799) scale(0.14 -0.14)">
       <use xlink:href="#DejaVuSans-36"/>
       <use xlink:href="#DejaVuSans-30" transform="translate(63.623047 0)"/>
      </g>
     </g>
    </g>
    <g id="ytick_8">
     <g id="line2d_14">
      <g>
       <use xlink:href="#me071530e9a" x="90" y="135.536375" style="stroke: #000000; stroke-width: 0.8"/>
      </g>
     </g>
     <g id="text_15">
      <!-- 70 -->
      <g transform="translate(65.185 140.855281) scale(0.14 -0.14)">
       <defs>
        <path id="DejaVuSans-37" d="M 525 4666 
L 3525 4666 
L 3525 4397 
L 1831 0 
L 1172 0 
L 2766 4134 
L 525 4134 
L 525 4666 
z
" transform="scale(0.015625)"/>
       </defs>
       <use xlink:href="#DejaVuSans-37"/>
       <use xlink:href="#DejaVuSans-30" transform="translate(63.623047 0)"/>
      </g>
     </g>
    </g>
    <g id="text_16">
     <!-- Eclipse depth (ppm) -->
     <g transform="translate(58.273438 434.152344) rotate(-90) scale(0.14 -0.14)">
      <defs>
       <path id="DejaVuSans-45" d="M 628 4666 
L 3578 4666 
L 3578 4134 
L 1259 4134 
L 1259 2753 
L 3481 2753 
L 3481 2222 
L 1259 2222 
L 1259 531 
L 3634 531 
L 3634 0 
L 628 0 
L 628 4666 
z
" transform="scale(0.015625)"/>
       <path id="DejaVuSans-63" d="M 3122 3366 
L 3122 2828 
Q 2878 2963 2633 3030 
Q 2388 3097 2138 3097 
Q 1578 3097 1268 2742 
Q 959 2388 959 1747 
Q 959 1106 1268 751 
Q 1578 397 2138 397 
Q 2388 397 2633 464 
Q 2878 531 3122 666 
L 3122 134 
Q 2881 22 2623 -34 
Q 2366 -91 2075 -91 
Q 1284 -91 818 406 
Q 353 903 353 1747 
Q 353 2603 823 3093 
Q 1294 3584 2113 3584 
Q 2378 3584 2631 3529 
Q 2884 3475 3122 3366 
z
" transform="scale(0.015625)"/>
       <path id="DejaVuSans-6c" d="M 603 4863 
L 1178 4863 
L 1178 0 
L 603 0 
L 603 4863 
z
" transform="scale(0.015625)"/>
       <path id="DejaVuSans-69" d="M 603 3500 
L 1178 3500 
L 1178 0 
L 603 0 
L 603 3500 
z
M 603 4863 
L 1178 4863 
L 1178 4134 
L 603 4134 
L 603 4863 
z
" transform="scale(0.015625)"/>
       <path id="DejaVuSans-70" d="M 1159 525 
L 1159 -1331 
L 581 -1331 
L 581 3500 
L 1159 3500 
L 1159 2969 
Q 1341 3281 1617 3432 
Q 1894 3584 2278 3584 
Q 2916 3584 3314 3078 
Q 3713 2572 3713 1747 
Q 3713 922 3314 415 
Q 2916 -91 2278 -91 
Q 1894 -91 1617 61 
Q 1341 213 1159 525 
z
M 3116 1747 
Q 3116 2381 2855 2742 
Q 2594 3103 2138 3103 
Q 1681 3103 1420 2742 
Q 1159 2381 1159 1747 
Q 1159 1113 1420 752 
Q 1681 391 2138 391 
Q 2594 391 2855 752 
Q 3116 1113 3116 1747 
z
" transform="scale(0.015625)"/>
       <path id="DejaVuSans-73" d="M 2834 3397 
L 2834 2853 
Q 2591 2978 2328 3040 
Q 2066 3103 1784 3103 
Q 1356 3103 1142 2972 
Q 928 2841 928 2578 
Q 928 2378 1081 2264 
Q 1234 2150 1697 2047 
L 1894 2003 
Q 2506 1872 2764 1633 
Q 3022 1394 3022 966 
Q 3022 478 2636 193 
Q 2250 -91 1575 -91 
Q 1294 -91 989 -36 
Q 684 19 347 128 
L 347 722 
Q 666 556 975 473 
Q 1284 391 1588 391 
Q 1994 391 2212 530 
Q 2431 669 2431 922 
Q 2431 1156 2273 1281 
Q 2116 1406 1581 1522 
L 1381 1569 
Q 847 1681 609 1914 
Q 372 2147 372 2553 
Q 372 3047 722 3315 
Q 1072 3584 1716 3584 
Q 2034 3584 2315 3537 
Q 2597 3491 2834 3397 
z
" transform="scale(0.015625)"/>
       <path id="DejaVuSans-65" d="M 3597 1894 
L 3597 1613 
L 953 1613 
Q 991 1019 1311 708 
Q 1631 397 2203 397 
Q 2534 397 2845 478 
Q 3156 559 3463 722 
L 3463 178 
Q 3153 47 2828 -22 
Q 2503 -91 2169 -91 
Q 1331 -91 842 396 
Q 353 884 353 1716 
Q 353 2575 817 3079 
Q 1281 3584 2069 3584 
Q 2775 3584 3186 3129 
Q 3597 2675 3597 1894 
z
M 3022 2063 
Q 3016 2534 2758 2815 
Q 2500 3097 2075 3097 
Q 1594 3097 1305 2825 
Q 1016 2553 972 2059 
L 3022 2063 
z
" transform="scale(0.015625)"/>
       <path id="DejaVuSans-64" d="M 2906 2969 
L 2906 4863 
L 3481 4863 
L 3481 0 
L 2906 0 
L 2906 525 
Q 2725 213 2448 61 
Q 2172 -91 1784 -91 
Q 1150 -91 751 415 
Q 353 922 353 1747 
Q 353 2572 751 3078 
Q 1150 3584 1784 3584 
Q 2172 3584 2448 3432 
Q 2725 3281 2906 2969 
z
M 947 1747 
Q 947 1113 1208 752 
Q 1469 391 1925 391 
Q 2381 391 2643 752 
Q 2906 1113 2906 1747 
Q 2906 2381 2643 2742 
Q 2381 3103 1925 3103 
Q 1469 3103 1208 2742 
Q 947 2381 947 1747 
z
" transform="scale(0.015625)"/>
       <path id="DejaVuSans-74" d="M 1172 4494 
L 1172 3500 
L 2356 3500 
L 2356 3053 
L 1172 3053 
L 1172 1153 
Q 1172 725 1289 603 
Q 1406 481 1766 481 
L 2356 481 
L 2356 0 
L 1766 0 
Q 1100 0 847 248 
Q 594 497 594 1153 
L 594 3053 
L 172 3053 
L 172 3500 
L 594 3500 
L 594 4494 
L 1172 4494 
z
" transform="scale(0.015625)"/>
       <path id="DejaVuSans-68" d="M 3513 2113 
L 3513 0 
L 2938 0 
L 2938 2094 
Q 2938 2591 2744 2837 
Q 2550 3084 2163 3084 
Q 1697 3084 1428 2787 
Q 1159 2491 1159 1978 
L 1159 0 
L 581 0 
L 581 4863 
L 1159 4863 
L 1159 2956 
Q 1366 3272 1645 3428 
Q 1925 3584 2291 3584 
Q 2894 3584 3203 3211 
Q 3513 2838 3513 2113 
z
" transform="scale(0.015625)"/>
      </defs>
      <use xlink:href="#DejaVuSans-45"/>
      <use xlink:href="#DejaVuSans-63" transform="translate(63.183594 0)"/>
      <use xlink:href="#DejaVuSans-6c" transform="translate(118.164062 0)"/>
      <use xlink:href="#DejaVuSans-69" transform="translate(145.947266 0)"/>
      <use xlink:href="#DejaVuSans-70" transform="translate(173.730469 0)"/>
      <use xlink:href="#DejaVuSans-73" transform="translate(237.207031 0)"/>
      <use xlink:href="#DejaVuSans-65" transform="translate(289.306641 0)"/>
      <use xlink:href="#DejaVuSans-20" transform="translate(350.830078 0)"/>
      <use xlink:href="#DejaVuSans-64" transform="translate(382.617188 0)"/>
      <use xlink:href="#DejaVuSans-65" transform="translate(446.09375 0)"/>
      <use xlink:href="#DejaVuSans-70" transform="translate(507.617188 0)"/>
      <use xlink:href="#DejaVuSans-74" transform="translate(571.09375 0)"/>
      <use xlink:href="#DejaVuSans-68" transform="translate(610.302734 0)"/>
      <use xlink:href="#DejaVuSans-20" transform="translate(673.681641 0)"/>
      <use xlink:href="#DejaVuSans-28" transform="translate(705.46875 0)"/>
      <use xlink:href="#DejaVuSans-70" transform="translate(744.482422 0)"/>
      <use xlink:href="#DejaVuSans-70" transform="translate(807.958984 0)"/>
      <use xlink:href="#DejaVuSans-6d" transform="translate(871.435547 0)"/>
      <use xlink:href="#DejaVuSans-29" transform="translate(968.847656 0)"/>
     </g>
    </g>
   </g>
   <g id="line2d_15">
    <path d="M 124.82768 598.843674 
L 148.487788 556.207875 
L 204.325645 447.172146 
L 281.930801 340.700775 
L 374.678426 301.303331 
L 622.636364 178.855497 
" clip-path="url(#pb0118e5a33)" style="fill: none; stroke: #1f77b4; stroke-width: 1.5; stroke-linecap: square"/>
    <defs>
     <path id="m438aa3a530" d="M 0 3 
C 0.795609 3 1.55874 2.683901 2.12132 2.12132 
C 2.683901 1.55874 3 0.795609 3 0 
C 3 -0.795609 2.683901 -1.55874 2.12132 -2.12132 
C 1.55874 -2.683901 0.795609 -3 0 -3 
C -0.795609 -3 -1.55874 -2.683901 -2.12132 -2.12132 
C -2.683901 -1.55874 -3 -0.795609 -3 0 
C -3 0.795609 -2.683901 1.55874 -2.12132 2.12132 
C -1.55874 2.683901 -0.795609 3 0 3 
z
" style="stroke: #1f77b4"/>
    </defs>
    <g clip-path="url(#pb0118e5a33)">
     <use xlink:href="#m438aa3a530" x="124.82768" y="598.843674" style="fill: #1f77b4; stroke: #1f77b4"/>
     <use xlink:href="#m438aa3a530" x="148.487788" y="556.207875" style="fill: #1f77b4; stroke: #1f77b4"/>
     <use xlink:href="#m438aa3a530" x="204.325645" y="447.172146" style="fill: #1f77b4; stroke: #1f77b4"/>
     <use xlink:href="#m438aa3a530" x="281.930801" y="340.700775" style="fill: #1f77b4; stroke: #1f77b4"/>
     <use xlink:href="#m438aa3a530" x="374.678426" y="301.303331" style="fill: #1f77b4; stroke: #1f77b4"/>
     <use xlink:href="#m438aa3a530" x="622.636364" y="178.855497" style="fill: #1f77b4; stroke: #1f77b4"/>
    </g>
   </g>
   <g id="line2d_16">
    <path d="M 115.363636 603.760151 
L 124.82768 592.461097 
L 134.291723 577.607249 
L 143.755767 560.062171 
L 153.21981 540.742934 
L 162.683853 520.455294 
L 172.147897 499.836441 
L 181.61194 479.355469 
L 191.075984 459.337992 
L 200.540027 439.996832 
L 210.004071 421.460586 
L 219.468114 403.79722 
L 228.932157 387.032358 
L 238.396201 371.162906 
L 247.860244 356.166938 
L 257.324288 342.010744 
L 266.788331 328.65375 
L 276.252374 316.051917 
L 285.716418 304.160045 
L 295.180461 292.933287 
L 304.644505 282.328132 
L 314.108548 272.303001 
L 323.572592 262.81858 
L 333.036635 253.83798 
L 342.500678 245.326775 
L 351.964722 237.252963 
L 361.428765 229.586876 
L 370.892809 222.301063 
L 380.356852 215.370153 
L 389.820896 208.770719 
L 399.284939 202.481135 
L 408.748982 196.481438 
L 418.213026 190.753196 
L 427.677069 185.279388 
L 437.141113 180.044284 
L 446.605156 175.033341 
L 456.069199 170.233101 
L 465.533243 165.631104 
L 474.997286 161.215802 
L 484.46133 156.976481 
L 493.925373 152.903198 
L 503.389417 148.986712 
L 512.85346 145.218426 
L 522.317503 141.590341 
L 531.781547 138.094998 
L 541.24559 134.725445 
L 550.709634 131.475188 
L 560.173677 128.338161 
L 569.63772 125.308691 
L 579.101764 122.381466 
L 588.565807 119.551509 
L 598.029851 116.814155 
L 607.493894 114.165023 
L 616.957938 111.6 
" clip-path="url(#pb0118e5a33)" style="fill: none; stroke: #ff7f0e; stroke-width: 1.5; stroke-linecap: square"/>
   </g>
   <g id="line2d_17">
    <path d="M 115.363636 615.6 
L 124.82768 615.6 
L 134.291723 615.6 
L 143.755767 615.6 
L 153.21981 615.6 
L 162.683853 615.6 
L 172.147897 615.6 
L 181.61194 615.6 
L 191.075984 615.6 
L 200.540027 615.6 
L 210.004071 615.6 
L 219.468114 615.6 
L 228.932157 615.6 
L 238.396201 615.6 
L 247.860244 615.6 
L 257.324288 615.6 
L 266.788331 615.6 
L 276.252374 615.6 
L 285.716418 615.6 
L 295.180461 615.6 
L 304.644505 615.6 
L 314.108548 615.6 
L 323.572592 615.6 
L 333.036635 615.6 
L 342.500678 615.6 
L 351.964722 615.6 
L 361.428765 615.6 
L 370.892809 615.6 
L 380.356852 615.6 
L 389.820896 615.6 
L 399.284939 615.6 
L 408.748982 615.6 
L 418.213026 615.6 
L 427.677069 615.6 
L 437.141113 615.6 
L 446.605156 615.6 
L 456.069199 615.6 
L 465.533243 615.6 
L 474.997286 615.6 
L 484.46133 615.6 
L 493.925373 615.6 
L 503.389417 615.6 
L 512.85346 615.6 
L 522.317503 615.6 
L 531.781547 615.6 
L 541.24559 615.6 
L 550.709634 615.6 
L 560.173677 615.6 
L 569.63772 615.6 
L 579.101764 615.6 
L 588.565807 615.6 
L 598.029851 615.6 
L 607.493894 615.6 
L 616.957938 615.6 
" clip-path="url(#pb0118e5a33)" style="fill: none; stroke-dasharray: 5.55,2.4; stroke-dashoffset: 0; stroke: #000000; stroke-width: 1.5"/>
   </g>
   <g id="patch_3">
    <path d="M 90 640.8 
L 90 86.4 
" style="fill: none; stroke: #000000; stroke-width: 0.8; stroke-linejoin: miter; stroke-linecap: square"/>
   </g>
   <g id="patch_4">
    <path d="M 648 640.8 
L 648 86.4 
" style="fill: none; stroke: #000000; stroke-width: 0.8; stroke-linejoin: miter; stroke-linecap: square"/>
   </g>
   <g id="patch_5">
    <path d="M 90 640.8 
L 648 640.8 
" style="fill: none; stroke: #000000; stroke-width: 0.8; stroke-linejoin: miter; stroke-linecap: square"/>
   </g>
   <g id="patch_6">
    <path d="M 90 86.4 
L 648 86.4 
" style="fill: none; stroke: #000000; stroke-width: 0.8; stroke-linejoin: miter; stroke-linecap: square"/>
   </g>
   <g id="text_17">
    <!-- FGS1 -->
    <g transform="translate(111.722211 588.843674) scale(0.1 -0.1)">
     <defs>
      <path id="DejaVuSans-46" d="M 628 4666 
L 3309 4666 
L 3309 4134 
L 1259 4134 
L 1259 2759 
L 3109 2759 
L 3109 2228 
L 1259 2228 
L 1259 0 
L 628 0 
L 628 4666 
z
" transform="scale(0.015625)"/>
      <path id="DejaVuSans-47" d="M 3809 666 
L 3809 1919 
L 2778 1919 
L 2778 2438 
L 4434 2438 
L 4434 434 
Q 4069 175 3628 42 
Q 3188 -91 2688 -91 
Q 1594 -91 976 548 
Q 359 1188 359 2328 
Q 359 3472 976 4111 
Q 1594 4750 2688 4750 
Q 3144 4750 3555 4637 
Q 3966 4525 4313 4306 
L 4313 3634 
Q 3963 3931 3569 4081 
Q 3175 4231 2741 4231 
Q 1884 4231 1454 3753 
Q 1025 3275 1025 2328 
Q 1025 1384 1454 906 
Q 1884 428 2741 428 
Q 3075 428 3337 486 
Q 3600 544 3809 666 
z
" transform="scale(0.015625)"/>
      <path id="DejaVuSans-53" d="M 3425 4513 
L 3425 3897 
Q 3066 4069 2747 4153 
Q 2428 4238 2131 4238 
Q 1616 4238 1336 4038 
Q 1056 3838 1056 3469 
Q 1056 3159 1242 3001 
Q 1428 2844 1947 2747 
L 2328 2669 
Q 3034 2534 3370 2195 
Q 3706 1856 3706 1288 
Q 3706 609 3251 259 
Q 2797 -91 1919 -91 
Q 1588 -91 1214 -16 
Q 841 59 441 206 
L 441 856 
Q 825 641 1194 531 
Q 1563 422 1919 422 
Q 2459 422 2753 634 
Q 3047 847 3047 1241 
Q 3047 1584 2836 1778 
Q 2625 1972 2144 2069 
L 1759 2144 
Q 1053 2284 737 2584 
Q 422 2884 422 3419 
Q 422 4038 858 4394 
Q 1294 4750 2059 4750 
Q 2388 4750 2728 4690 
Q 3069 4631 3425 4513 
z
" transform="scale(0.015625)"/>
     </defs>
     <use xlink:href="#DejaVuSans-46"/>
     <use xlink:href="#DejaVuSans-47" transform="translate(57.519531 0)"/>
     <use xlink:href="#DejaVuSans-53" transform="translate(135.009766 0)"/>
     <use xlink:href="#DejaVuSans-31" transform="translate(198.486328 0)"/>
    </g>
   </g>
   <g id="text_18">
    <!-- FGS2 -->
    <g transform="translate(135.38232 546.207875) scale(0.1 -0.1)">
     <use xlink:href="#DejaVuSans-46"/>
     <use xlink:href="#DejaVuSans-47" transform="translate(57.519531 0)"/>
     <use xlink:href="#DejaVuSans-53" transform="translate(135.009766 0)"/>
     <use xlink:href="#DejaVuSans-32" transform="translate(198.486328 0)"/>
    </g>
   </g>
   <g id="text_19">
    <!-- NIRSpec -->
    <g transform="translate(183.461582 437.172146) scale(0.1 -0.1)">
     <defs>
      <path id="DejaVuSans-4e" d="M 628 4666 
L 1478 4666 
L 3547 763 
L 3547 4666 
L 4159 4666 
L 4159 0 
L 3309 0 
L 1241 3903 
L 1241 0 
L 628 0 
L 628 4666 
z
" transform="scale(0.015625)"/>
      <path id="DejaVuSans-49" d="M 628 4666 
L 1259 4666 
L 1259 0 
L 628 0 
L 628 4666 
z
" transform="scale(0.015625)"/>
      <path id="DejaVuSans-52" d="M 2841 2188 
Q 3044 2119 3236 1894 
Q 3428 1669 3622 1275 
L 4263 0 
L 3584 0 
L 2988 1197 
Q 2756 1666 2539 1819 
Q 2322 1972 1947 1972 
L 1259 1972 
L 1259 0 
L 628 0 
L 628 4666 
L 2053 4666 
Q 2853 4666 3247 4331 
Q 3641 3997 3641 3322 
Q 3641 2881 3436 2590 
Q 3231 2300 2841 2188 
z
M 1259 4147 
L 1259 2491 
L 2053 2491 
Q 2509 2491 2742 2702 
Q 2975 2913 2975 3322 
Q 2975 3731 2742 3939 
Q 2509 4147 2053 4147 
L 1259 4147 
z
" transform="scale(0.015625)"/>
     </defs>
     <use xlink:href="#DejaVuSans-4e"/>
     <use xlink:href="#DejaVuSans-49" transform="translate(74.804688 0)"/>
     <use xlink:href="#DejaVuSans-52" transform="translate(104.296875 0)"/>
     <use xlink:href="#DejaVuSans-53" transform="translate(173.779297 0)"/>
     <use xlink:href="#DejaVuSans-70" transform="translate(237.255859 0)"/>
     <use xlink:href="#DejaVuSans-65" transform="translate(300.732422 0)"/>
     <use xlink:href="#DejaVuSans-63" transform="translate(362.255859 0)"/>
    </g>
   </g>
   <g id="text_20">
    <!-- AIRS-CH0-bin1 -->
    <g transform="translate(245.433144 330.700775) scale(0.1 -0.1)">
     <defs>
      <path id="DejaVuSans-41" d="M 2188 4044 
L 1331 1722 
L 3047 1722 
L 2188 4044 
z
M 1831 4666 
L 2547 4666 
L 4325 0 
L 3669 0 
L 3244 1197 
L 1141 1197 
L 716 0 
L 50 0 
L 1831 4666 
z
" transform="scale(0.015625)"/>
      <path id="DejaVuSans-2d" d="M 313 2009 
L 1997 2009 
L 1997 1497 
L 313 1497 
L 313 2009 
z
" transform="scale(0.015625)"/>
      <path id="DejaVuSans-43" d="M 4122 4306 
L 4122 3641 
Q 3803 3938 3442 4084 
Q 3081 4231 2675 4231 
Q 1875 4231 1450 3742 
Q 1025 3253 1025 2328 
Q 1025 1406 1450 917 
Q 1875 428 2675 428 
Q 3081 428 3442 575 
Q 3803 722 4122 1019 
L 4122 359 
Q 3791 134 3420 21 
Q 3050 -91 2638 -91 
Q 1578 -91 968 557 
Q 359 1206 359 2328 
Q 359 3453 968 4101 
Q 1578 4750 2638 4750 
Q 3056 4750 3426 4639 
Q 3797 4528 4122 4306 
z
" transform="scale(0.015625)"/>
      <path id="DejaVuSans-48" d="M 628 4666 
L 1259 4666 
L 1259 2753 
L 3553 2753 
L 3553 4666 
L 4184 4666 
L 4184 0 
L 3553 0 
L 3553 2222 
L 1259 2222 
L 1259 0 
L 628 0 
L 628 4666 
z
" transform="scale(0.015625)"/>
      <path id="DejaVuSans-62" d="M 3116 1747 
Q 3116 2381 2855 2742 
Q 2594 3103 2138 3103 
Q 1681 3103 1420 2742 
Q 1159 2381 1159 1747 
Q 1159 1113 1420 752 
Q 1681 391 2138 391 
Q 2594 391 2855 752 
Q 3116 1113 3116 1747 
z
M 1159 2969 
Q 1341 3281 1617 3432 
Q 1894 3584 2278 3584 
Q 2916 3584 3314 3078 
Q 3713 2572 3713 1747 
Q 3713 922 3314 415 
Q 2916 -91 2278 -91 
Q 1894 -91 1617 61 
Q 1341 213 1159 525 
L 1159 0 
L 581 0 
L 581 4863 
L 1159 4863 
L 1159 2969 
z
" transform="scale(0.015625)"/>
      <path id="DejaVuSans-6e" d="M 3513 2113 
L 3513 0 
L 2938 0 
L 2938 2094 
Q 2938 2591 2744 2837 
Q 2550 3084 2163 3084 
Q 1697 3084 1428 2787 
Q 1159 2491 1159 1978 
L 1159 0 
L 581 0 
L 581 3500 
L 1159 3500 
L 1159 2956 
Q 1366 3272 1645 3428 
Q 1925 3584 2291 3584 
Q 2894 3584 3203 3211 
Q 3513 2838 3513 2113 
z
" transform="scale(0.015625)"/>
     </defs>
     <use xlink:href="#DejaVuSans-41"/>
     <use xlink:href="#DejaVuSans-49" transform="translate(68.408203 0)"/>
     <use xlink:href="#DejaVuSans-52" transform="translate(97.900391 0)"/>
     <use xlink:href="#DejaVuSans-53" transform="translate(167.382812 0)"/>
     <use xlink:href="#DejaVuSans-2d" transform="translate(230.859375 0)"/>
     <use xlink:href="#DejaVuSans-43" transform="translate(266.943359 0)"/>
     <use xlink:href="#DejaVuSans-48" transform="translate(336.767578 0)"/>
     <use xlink:href="#DejaVuSans-30" transform="translate(411.962891 0)"/>
     <use xlink:href="#DejaVuSans-2d" transform="translate(475.585938 0)"/>
     <use xlink:href="#DejaVuSans-62" transform="translate(511.669922 0)"/>
     <use xlink:href="#DejaVuSans-69" transform="translate(575.146484 0)"/>
     <use xlink:href="#DejaVuSans-6e" transform="translate(602.929688 0)"/>
     <use xlink:href="#DejaVuSans-31" transform="translate(666.308594 0)"/>
    </g>
   </g>
   <g id="text_21">
    <!-- AIRS-CH0-bin2 -->
    <g transform="translate(338.18077 291.303331) scale(0.1 -0.1)">
     <use xlink:href="#DejaVuSans-41"/>
     <use xlink:href="#DejaVuSans-49" transform="translate(68.408203 0)"/>
     <use xlink:href="#DejaVuSans-52" transform="translate(97.900391 0)"/>
     <use xlink:href="#DejaVuSans-53" transform="translate(167.382812 0)"/>
     <use xlink:href="#DejaVuSans-2d" transform="translate(230.859375 0)"/>
     <use xlink:href="#DejaVuSans-43" transform="translate(266.943359 0)"/>
     <use xlink:href="#DejaVuSans-48" transform="translate(336.767578 0)"/>
     <use xlink:href="#DejaVuSans-30" transform="translate(411.962891 0)"/>
     <use xlink:href="#DejaVuSans-2d" transform="translate(475.585938 0)"/>
     <use xlink:href="#DejaVuSans-62" transform="translate(511.669922 0)"/>
     <use xlink:href="#DejaVuSans-69" transform="translate(575.146484 0)"/>
     <use xlink:href="#DejaVuSans-6e" transform="translate(602.929688 0)"/>
     <use xlink:href="#DejaVuSans-32" transform="translate(666.308594 0)"/>
    </g>
   </g>
   <g id="text_22">
    <!-- AIRS-CH1 -->
    <g transform="translate(598.855895 168.855497) scale(0.1 -0.1)">
     <use xlink:href="#DejaVuSans-41"/>
     <use xlink:href="#DejaVuSans-49" transform="translate(68.408203 0)"/>
     <use xlink:href="#DejaVuSans-52" transform="translate(97.900391 0)"/>
     <use xlink:href="#DejaVuSans-53" transform="translate(167.382812 0)"/>
     <use xlink:href="#DejaVuSans-2d" transform="translate(230.859375 0)"/>
     <use xlink:href="#DejaVuSans-43" transform="translate(266.943359 0)"/>
     <use xlink:href="#DejaVuSans-48" transform="translate(336.767578 0)"/>
     <use xlink:href="#DejaVuSans-31" transform="translate(411.962891 0)"/>
    </g>
   </g>
   <g id="text_23">
    <!-- Eclipse depth for HD213885b -->
    <g transform="translate(265.945781 80.4) scale(0.14 -0.14)">
     <defs>
      <path id="DejaVuSans-66" d="M 2375 4863 
L 2375 4384 
L 1825 4384 
Q 1516 4384 1395 4259 
Q 1275 4134 1275 3809 
L 1275 3500 
L 2222 3500 
L 2222 3053 
L 1275 3053 
L 1275 0 
L 697 0 
L 697 3053 
L 147 3053 
L 147 3500 
L 697 3500 
L 697 3744 
Q 697 4328 969 4595 
Q 1241 4863 1831 4863 
L 2375 4863 
z
" transform="scale(0.015625)"/>
      <path id="DejaVuSans-6f" d="M 1959 3097 
Q 1497 3097 1228 2736 
Q 959 2375 959 1747 
Q 959 1119 1226 758 
Q 1494 397 1959 397 
Q 2419 397 2687 759 
Q 2956 1122 2956 1747 
Q 2956 2369 2687 2733 
Q 2419 3097 1959 3097 
z
M 1959 3584 
Q 2709 3584 3137 3096 
Q 3566 2609 3566 1747 
Q 3566 888 3137 398 
Q 2709 -91 1959 -91 
Q 1206 -91 779 398 
Q 353 888 353 1747 
Q 353 2609 779 3096 
Q 1206 3584 1959 3584 
z
" transform="scale(0.015625)"/>
      <path id="DejaVuSans-72" d="M 2631 2963 
Q 2534 3019 2420 3045 
Q 2306 3072 2169 3072 
Q 1681 3072 1420 2755 
Q 1159 2438 1159 1844 
L 1159 0 
L 581 0 
L 581 3500 
L 1159 3500 
L 1159 2956 
Q 1341 3275 1631 3429 
Q 1922 3584 2338 3584 
Q 2397 3584 2469 3576 
Q 2541 3569 2628 3553 
L 2631 2963 
z
" transform="scale(0.015625)"/>
      <path id="DejaVuSans-44" d="M 1259 4147 
L 1259 519 
L 2022 519 
Q 2988 519 3436 956 
Q 3884 1394 3884 2338 
Q 3884 3275 3436 3711 
Q 2988 4147 2022 4147 
L 1259 4147 
z
M 628 4666 
L 1925 4666 
Q 3281 4666 3915 4102 
Q 4550 3538 4550 2338 
Q 4550 1131 3912 565 
Q 3275 0 1925 0 
L 628 0 
L 628 4666 
z
" transform="scale(0.015625)"/>
      <path id="DejaVuSans-38" d="M 2034 2216 
Q 1584 2216 1326 1975 
Q 1069 1734 1069 1313 
Q 1069 891 1326 650 
Q 1584 409 2034 409 
Q 2484 409 2743 651 
Q 3003 894 3003 1313 
Q 3003 1734 2745 1975 
Q 2488 2216 2034 2216 
z
M 1403 2484 
Q 997 2584 770 2862 
Q 544 3141 544 3541 
Q 544 4100 942 4425 
Q 1341 4750 2034 4750 
Q 2731 4750 3128 4425 
Q 3525 4100 3525 3541 
Q 3525 3141 3298 2862 
Q 3072 2584 2669 2484 
Q 3125 2378 3379 2068 
Q 3634 1759 3634 1313 
Q 3634 634 3220 271 
Q 2806 -91 2034 -91 
Q 1263 -91 848 271 
Q 434 634 434 1313 
Q 434 1759 690 2068 
Q 947 2378 1403 2484 
z
M 1172 3481 
Q 1172 3119 1398 2916 
Q 1625 2713 2034 2713 
Q 2441 2713 2670 2916 
Q 2900 3119 2900 3481 
Q 2900 3844 2670 4047 
Q 2441 4250 2034 4250 
Q 1625 4250 1398 4047 
Q 1172 3844 1172 3481 
z
" transform="scale(0.015625)"/>
     </defs>
     <use xlink:href="#DejaVuSans-45"/>
     <use xlink:href="#DejaVuSans-63" transform="translate(63.183594 0)"/>
     <use xlink:href="#DejaVuSans-6c" transform="translate(118.164062 0)"/>
     <use xlink:href="#DejaVuSans-69" transform="translate(145.947266 0)"/>
     <use xlink:href="#DejaVuSans-70" transform="translate(173.730469 0)"/>
     <use xlink:href="#DejaVuSans-73" transform="translate(237.207031 0)"/>
     <use xlink:href="#DejaVuSans-65" transform="translate(289.306641 0)"/>
     <use xlink:href="#DejaVuSans-20" transform="translate(350.830078 0)"/>
     <use xlink:href="#DejaVuSans-64" transform="translate(382.617188 0)"/>
     <use xlink:href="#DejaVuSans-65" transform="translate(446.09375 0)"/>
     <use xlink:href="#DejaVuSans-70" transform="translate(507.617188 0)"/>
     <use xlink:href="#DejaVuSans-74" transform="translate(571.09375 0)"/>
     <use xlink:href="#DejaVuSans-68" transform="translate(610.302734 0)"/>
     <use xlink:href="#DejaVuSans-20" transform="translate(673.681641 0)"/>
     <use xlink:href="#DejaVuSans-66" transform="translate(705.46875 0)"/>
     <use xlink:href="#DejaVuSans-6f" transform="translate(740.673828 0)"/>
     <use xlink:href="#DejaVuSans-72" transform="translate(801.855469 0)"/>
     <use xlink:href="#DejaVuSans-20" transform="translate(842.96875 0)"/>
     <use xlink:href="#DejaVuSans-48" transform="translate(874.755859 0)"/>
     <use xlink:href="#DejaVuSans-44" transform="translate(949.951172 0)"/>
     <use xlink:href="#DejaVuSans-32" transform="translate(1026.953125 0)"/>
     <use xlink:href="#DejaVuSans-31" transform="translate(1090.576172 0)"/>
     <use xlink:href="#DejaVuSans-33" transform="translate(1154.199219 0)"/>
     <use xlink:href="#DejaVuSans-38" transform="translate(1217.822266 0)"/>
     <use xlink:href="#DejaVuSans-38" transform="translate(1281.445312 0)"/>
     <use xlink:href="#DejaVuSans-35" transform="translate(1345.068359 0)"/>
     <use xlink:href="#DejaVuSans-62" transform="translate(1408.691406 0)"/>
    </g>
   </g>
   <g id="legend_1">
    <g id="patch_7">
     <path d="M 368.085 634.8 
L 639.6 634.8 
Q 642 634.8 642 632.4 
L 642 400.95 
Q 642 398.55 639.6 398.55 
L 368.085 398.55 
Q 365.685 398.55 365.685 400.95 
L 365.685 632.4 
Q 365.685 634.8 368.085 634.8 
z
" style="fill: #ffffff; opacity: 0.8; stroke: #cccccc; stroke-linejoin: miter"/>
    </g>
    <g id="patch_8">
     <path d="M 370.485 412.468125 
L 394.485 412.468125 
L 394.485 404.068125 
L 370.485 404.068125 
z
" style="fill: #1f77b4; fill-opacity: 0.2"/>
    </g>
    <g id="text_24">
     <!-- asymmetric error -->
     <g transform="translate(404.085 412.468125) scale(0.12 -0.12)">
      <defs>
       <path id="DejaVuSans-61" d="M 2194 1759 
Q 1497 1759 1228 1600 
Q 959 1441 959 1056 
Q 959 750 1161 570 
Q 1363 391 1709 391 
Q 2188 391 2477 730 
Q 2766 1069 2766 1631 
L 2766 1759 
L 2194 1759 
z
M 3341 1997 
L 3341 0 
L 2766 0 
L 2766 531 
Q 2569 213 2275 61 
Q 1981 -91 1556 -91 
Q 1019 -91 701 211 
Q 384 513 384 1019 
Q 384 1609 779 1909 
Q 1175 2209 1959 2209 
L 2766 2209 
L 2766 2266 
Q 2766 2663 2505 2880 
Q 2244 3097 1772 3097 
Q 1472 3097 1187 3025 
Q 903 2953 641 2809 
L 641 3341 
Q 956 3463 1253 3523 
Q 1550 3584 1831 3584 
Q 2591 3584 2966 3190 
Q 3341 2797 3341 1997 
z
" transform="scale(0.015625)"/>
       <path id="DejaVuSans-79" d="M 2059 -325 
Q 1816 -950 1584 -1140 
Q 1353 -1331 966 -1331 
L 506 -1331 
L 506 -850 
L 844 -850 
Q 1081 -850 1212 -737 
Q 1344 -625 1503 -206 
L 1606 56 
L 191 3500 
L 800 3500 
L 1894 763 
L 2988 3500 
L 3597 3500 
L 2059 -325 
z
" transform="scale(0.015625)"/>
      </defs>
      <use xlink:href="#DejaVuSans-61"/>
      <use xlink:href="#DejaVuSans-73" transform="translate(61.279297 0)"/>
      <use xlink:href="#DejaVuSans-79" transform="translate(113.378906 0)"/>
      <use xlink:href="#DejaVuSans-6d" transform="translate(172.558594 0)"/>
      <use xlink:href="#DejaVuSans-6d" transform="translate(269.970703 0)"/>
      <use xlink:href="#DejaVuSans-65" transform="translate(367.382812 0)"/>
      <use xlink:href="#DejaVuSans-74" transform="translate(428.90625 0)"/>
      <use xlink:href="#DejaVuSans-72" transform="translate(468.115234 0)"/>
      <use xlink:href="#DejaVuSans-69" transform="translate(509.228516 0)"/>
      <use xlink:href="#DejaVuSans-63" transform="translate(537.011719 0)"/>
      <use xlink:href="#DejaVuSans-20" transform="translate(591.992188 0)"/>
      <use xlink:href="#DejaVuSans-65" transform="translate(623.779297 0)"/>
      <use xlink:href="#DejaVuSans-72" transform="translate(685.302734 0)"/>
      <use xlink:href="#DejaVuSans-72" transform="translate(724.666016 0)"/>
      <use xlink:href="#DejaVuSans-6f" transform="translate(763.529297 0)"/>
      <use xlink:href="#DejaVuSans-72" transform="translate(824.710938 0)"/>
     </g>
    </g>
    <g id="line2d_18">
     <path d="M 370.485 425.881875 
L 382.485 425.881875 
L 394.485 425.881875 
" style="fill: none; stroke: #ff7f0e; stroke-width: 1.5; stroke-linecap: square"/>
    </g>
    <g id="text_25">
     <!-- B(T = 2725.1 K) -->
     <g transform="translate(404.085 430.081875) scale(0.12 -0.12)">
      <defs>
       <path id="DejaVuSans-42" d="M 1259 2228 
L 1259 519 
L 2272 519 
Q 2781 519 3026 730 
Q 3272 941 3272 1375 
Q 3272 1813 3026 2020 
Q 2781 2228 2272 2228 
L 1259 2228 
z
M 1259 4147 
L 1259 2741 
L 2194 2741 
Q 2656 2741 2882 2914 
Q 3109 3088 3109 3444 
Q 3109 3797 2882 3972 
Q 2656 4147 2194 4147 
L 1259 4147 
z
M 628 4666 
L 2241 4666 
Q 2963 4666 3353 4366 
Q 3744 4066 3744 3513 
Q 3744 3084 3544 2831 
Q 3344 2578 2956 2516 
Q 3422 2416 3680 2098 
Q 3938 1781 3938 1306 
Q 3938 681 3513 340 
Q 3088 0 2303 0 
L 628 0 
L 628 4666 
z
" transform="scale(0.015625)"/>
       <path id="DejaVuSans-54" d="M -19 4666 
L 3928 4666 
L 3928 4134 
L 2272 4134 
L 2272 0 
L 1638 0 
L 1638 4134 
L -19 4134 
L -19 4666 
z
" transform="scale(0.015625)"/>
       <path id="DejaVuSans-3d" d="M 678 2906 
L 4684 2906 
L 4684 2381 
L 678 2381 
L 678 2906 
z
M 678 1631 
L 4684 1631 
L 4684 1100 
L 678 1100 
L 678 1631 
z
" transform="scale(0.015625)"/>
       <path id="DejaVuSans-2e" d="M 684 794 
L 1344 794 
L 1344 0 
L 684 0 
L 684 794 
z
" transform="scale(0.015625)"/>
       <path id="DejaVuSans-4b" d="M 628 4666 
L 1259 4666 
L 1259 2694 
L 3353 4666 
L 4166 4666 
L 1850 2491 
L 4331 0 
L 3500 0 
L 1259 2247 
L 1259 0 
L 628 0 
L 628 4666 
z
" transform="scale(0.015625)"/>
      </defs>
      <use xlink:href="#DejaVuSans-42"/>
      <use xlink:href="#DejaVuSans-28" transform="translate(68.603516 0)"/>
      <use xlink:href="#DejaVuSans-54" transform="translate(107.617188 0)"/>
      <use xlink:href="#DejaVuSans-20" transform="translate(168.701172 0)"/>
      <use xlink:href="#DejaVuSans-3d" transform="translate(200.488281 0)"/>
      <use xlink:href="#DejaVuSans-20" transform="translate(284.277344 0)"/>
      <use xlink:href="#DejaVuSans-32" transform="translate(316.064453 0)"/>
      <use xlink:href="#DejaVuSans-37" transform="translate(379.6875 0)"/>
      <use xlink:href="#DejaVuSans-32" transform="translate(443.310547 0)"/>
      <use xlink:href="#DejaVuSans-35" transform="translate(506.933594 0)"/>
      <use xlink:href="#DejaVuSans-2e" transform="translate(570.556641 0)"/>
      <use xlink:href="#DejaVuSans-31" transform="translate(602.34375 0)"/>
      <use xlink:href="#DejaVuSans-20" transform="translate(665.966797 0)"/>
      <use xlink:href="#DejaVuSans-4b" transform="translate(697.753906 0)"/>
      <use xlink:href="#DejaVuSans-29" transform="translate(763.330078 0)"/>
     </g>
    </g>
    <g id="line2d_19">
     <path d="M 370.485 443.495625 
L 382.485 443.495625 
L 394.485 443.495625 
" style="fill: none; stroke-dasharray: 5.55,2.4; stroke-dashoffset: 0; stroke: #000000; stroke-width: 1.5"/>
    </g>
    <g id="text_26">
     <!-- orlando_gold_granite_slab -->
     <g transform="translate(404.085 447.695625) scale(0.12 -0.12)">
      <defs>
       <path id="DejaVuSans-5f" d="M 3263 -1063 
L 3263 -1509 
L -63 -1509 
L -63 -1063 
L 3263 -1063 
z
" transform="scale(0.015625)"/>
       <path id="DejaVuSans-67" d="M 2906 1791 
Q 2906 2416 2648 2759 
Q 2391 3103 1925 3103 
Q 1463 3103 1205 2759 
Q 947 2416 947 1791 
Q 947 1169 1205 825 
Q 1463 481 1925 481 
Q 2391 481 2648 825 
Q 2906 1169 2906 1791 
z
M 3481 434 
Q 3481 -459 3084 -895 
Q 2688 -1331 1869 -1331 
Q 1566 -1331 1297 -1286 
Q 1028 -1241 775 -1147 
L 775 -588 
Q 1028 -725 1275 -790 
Q 1522 -856 1778 -856 
Q 2344 -856 2625 -561 
Q 2906 -266 2906 331 
L 2906 616 
Q 2728 306 2450 153 
Q 2172 0 1784 0 
Q 1141 0 747 490 
Q 353 981 353 1791 
Q 353 2603 747 3093 
Q 1141 3584 1784 3584 
Q 2172 3584 2450 3431 
Q 2728 3278 2906 2969 
L 2906 3500 
L 3481 3500 
L 3481 434 
z
" transform="scale(0.015625)"/>
      </defs>
      <use xlink:href="#DejaVuSans-6f"/>
      <use xlink:href="#DejaVuSans-72" transform="translate(61.181641 0)"/>
      <use xlink:href="#DejaVuSans-6c" transform="translate(102.294922 0)"/>
      <use xlink:href="#DejaVuSans-61" transform="translate(130.078125 0)"/>
      <use xlink:href="#DejaVuSans-6e" transform="translate(191.357422 0)"/>
      <use xlink:href="#DejaVuSans-64" transform="translate(254.736328 0)"/>
      <use xlink:href="#DejaVuSans-6f" transform="translate(318.212891 0)"/>
      <use xlink:href="#DejaVuSans-5f" transform="translate(379.394531 0)"/>
      <use xlink:href="#DejaVuSans-67" transform="translate(429.394531 0)"/>
      <use xlink:href="#DejaVuSans-6f" transform="translate(492.871094 0)"/>
      <use xlink:href="#DejaVuSans-6c" transform="translate(554.052734 0)"/>
      <use xlink:href="#DejaVuSans-64" transform="translate(581.835938 0)"/>
      <use xlink:href="#DejaVuSans-5f" transform="translate(645.3125 0)"/>
      <use xlink:href="#DejaVuSans-67" transform="translate(695.3125 0)"/>
      <use xlink:href="#DejaVuSans-72" transform="translate(758.789062 0)"/>
      <use xlink:href="#DejaVuSans-61" transform="translate(799.902344 0)"/>
      <use xlink:href="#DejaVuSans-6e" transform="translate(861.181641 0)"/>
      <use xlink:href="#DejaVuSans-69" transform="translate(924.560547 0)"/>
      <use xlink:href="#DejaVuSans-74" transform="translate(952.34375 0)"/>
      <use xlink:href="#DejaVuSans-65" transform="translate(991.552734 0)"/>
      <use xlink:href="#DejaVuSans-5f" transform="translate(1053.076172 0)"/>
      <use xlink:href="#DejaVuSans-73" transform="translate(1103.076172 0)"/>
      <use xlink:href="#DejaVuSans-6c" transform="translate(1155.175781 0)"/>
      <use xlink:href="#DejaVuSans-61" transform="translate(1182.958984 0)"/>
      <use xlink:href="#DejaVuSans-62" transform="translate(1244.238281 0)"/>
     </g>
    </g>
    <g id="line2d_20">
     <path d="M 370.485 461.443125 
L 382.485 461.443125 
L 394.485 461.443125 
" style="fill: none; stroke-dasharray: 5.55,2.4; stroke-dashoffset: 0; stroke: #00ff00; stroke-width: 1.5"/>
    </g>
    <g id="text_27">
     <!-- basaltic_andesite_slab -->
     <g transform="translate(404.085 465.643125) scale(0.12 -0.12)">
      <use xlink:href="#DejaVuSans-62"/>
      <use xlink:href="#DejaVuSans-61" transform="translate(63.476562 0)"/>
      <use xlink:href="#DejaVuSans-73" transform="translate(124.755859 0)"/>
      <use xlink:href="#DejaVuSans-61" transform="translate(176.855469 0)"/>
      <use xlink:href="#DejaVuSans-6c" transform="translate(238.134766 0)"/>
      <use xlink:href="#DejaVuSans-74" transform="translate(265.917969 0)"/>
      <use xlink:href="#DejaVuSans-69" transform="translate(305.126953 0)"/>
      <use xlink:href="#DejaVuSans-63" transform="translate(332.910156 0)"/>
      <use xlink:href="#DejaVuSans-5f" transform="translate(387.890625 0)"/>
      <use xlink:href="#DejaVuSans-61" transform="translate(437.890625 0)"/>
      <use xlink:href="#DejaVuSans-6e" transform="translate(499.169922 0)"/>
      <use xlink:href="#DejaVuSans-64" transform="translate(562.548828 0)"/>
      <use xlink:href="#DejaVuSans-65" transform="translate(626.025391 0)"/>
      <use xlink:href="#DejaVuSans-73" transform="translate(687.548828 0)"/>
      <use xlink:href="#DejaVuSans-69" transform="translate(739.648438 0)"/>
      <use xlink:href="#DejaVuSans-74" transform="translate(767.431641 0)"/>
      <use xlink:href="#DejaVuSans-65" transform="translate(806.640625 0)"/>
      <use xlink:href="#DejaVuSans-5f" transform="translate(868.164062 0)"/>
      <use xlink:href="#DejaVuSans-73" transform="translate(918.164062 0)"/>
      <use xlink:href="#DejaVuSans-6c" transform="translate(970.263672 0)"/>
      <use xlink:href="#DejaVuSans-61" transform="translate(998.046875 0)"/>
      <use xlink:href="#DejaVuSans-62" transform="translate(1059.326172 0)"/>
     </g>
    </g>
    <g id="line2d_21">
     <path d="M 370.485 479.390625 
L 382.485 479.390625 
L 394.485 479.390625 
" style="fill: none; stroke-dasharray: 5.55,2.4; stroke-dashoffset: 0; stroke: #ffff00; stroke-width: 1.5"/>
    </g>
    <g id="text_28">
     <!-- dalmatian_granite_slab -->
     <g transform="translate(404.085 483.590625) scale(0.12 -0.12)">
      <use xlink:href="#DejaVuSans-64"/>
      <use xlink:href="#DejaVuSans-61" transform="translate(63.476562 0)"/>
      <use xlink:href="#DejaVuSans-6c" transform="translate(124.755859 0)"/>
      <use xlink:href="#DejaVuSans-6d" transform="translate(152.539062 0)"/>
      <use xlink:href="#DejaVuSans-61" transform="translate(249.951172 0)"/>
      <use xlink:href="#DejaVuSans-74" transform="translate(311.230469 0)"/>
      <use xlink:href="#DejaVuSans-69" transform="translate(350.439453 0)"/>
      <use xlink:href="#DejaVuSans-61" transform="translate(378.222656 0)"/>
      <use xlink:href="#DejaVuSans-6e" transform="translate(439.501953 0)"/>
      <use xlink:href="#DejaVuSans-5f" transform="translate(502.880859 0)"/>
      <use xlink:href="#DejaVuSans-67" transform="translate(552.880859 0)"/>
      <use xlink:href="#DejaVuSans-72" transform="translate(616.357422 0)"/>
      <use xlink:href="#DejaVuSans-61" transform="translate(657.470703 0)"/>
      <use xlink:href="#DejaVuSans-6e" transform="translate(718.75 0)"/>
      <use xlink:href="#DejaVuSans-69" transform="translate(782.128906 0)"/>
      <use xlink:href="#DejaVuSans-74" transform="translate(809.912109 0)"/>
      <use xlink:href="#DejaVuSans-65" transform="translate(849.121094 0)"/>
      <use xlink:href="#DejaVuSans-5f" transform="translate(910.644531 0)"/>
      <use xlink:href="#DejaVuSans-73" transform="translate(960.644531 0)"/>
      <use xlink:href="#DejaVuSans-6c" transform="translate(1012.744141 0)"/>
      <use xlink:href="#DejaVuSans-61" transform="translate(1040.527344 0)"/>
      <use xlink:href="#DejaVuSans-62" transform="translate(1101.806641 0)"/>
     </g>
    </g>
    <g id="line2d_22">
     <path d="M 370.485 497.338125 
L 382.485 497.338125 
L 394.485 497.338125 
" style="fill: none; stroke-dasharray: 5.55,2.4; stroke-dashoffset: 0; stroke: #800000; stroke-width: 1.5"/>
    </g>
    <g id="text_29">
     <!-- STM_101_andesite_slab -->
     <g transform="translate(404.085 501.538125) scale(0.12 -0.12)">
      <defs>
       <path id="DejaVuSans-4d" d="M 628 4666 
L 1569 4666 
L 2759 1491 
L 3956 4666 
L 4897 4666 
L 4897 0 
L 4281 0 
L 4281 4097 
L 3078 897 
L 2444 897 
L 1241 4097 
L 1241 0 
L 628 0 
L 628 4666 
z
" transform="scale(0.015625)"/>
      </defs>
      <use xlink:href="#DejaVuSans-53"/>
      <use xlink:href="#DejaVuSans-54" transform="translate(63.476562 0)"/>
      <use xlink:href="#DejaVuSans-4d" transform="translate(124.560547 0)"/>
      <use xlink:href="#DejaVuSans-5f" transform="translate(210.839844 0)"/>
      <use xlink:href="#DejaVuSans-31" transform="translate(260.839844 0)"/>
      <use xlink:href="#DejaVuSans-30" transform="translate(324.462891 0)"/>
      <use xlink:href="#DejaVuSans-31" transform="translate(388.085938 0)"/>
      <use xlink:href="#DejaVuSans-5f" transform="translate(451.708984 0)"/>
      <use xlink:href="#DejaVuSans-61" transform="translate(501.708984 0)"/>
      <use xlink:href="#DejaVuSans-6e" transform="translate(562.988281 0)"/>
      <use xlink:href="#DejaVuSans-64" transform="translate(626.367188 0)"/>
      <use xlink:href="#DejaVuSans-65" transform="translate(689.84375 0)"/>
      <use xlink:href="#DejaVuSans-73" transform="translate(751.367188 0)"/>
      <use xlink:href="#DejaVuSans-69" transform="translate(803.466797 0)"/>
      <use xlink:href="#DejaVuSans-74" transform="translate(831.25 0)"/>
      <use xlink:href="#DejaVuSans-65" transform="translate(870.458984 0)"/>
      <use xlink:href="#DejaVuSans-5f" transform="translate(931.982422 0)"/>
      <use xlink:href="#DejaVuSans-73" transform="translate(981.982422 0)"/>
      <use xlink:href="#DejaVuSans-6c" transform="translate(1034.082031 0)"/>
      <use xlink:href="#DejaVuSans-61" transform="translate(1061.865234 0)"/>
      <use xlink:href="#DejaVuSans-62" transform="translate(1123.144531 0)"/>
     </g>
    </g>
    <g id="line2d_23">
     <path d="M 370.485 515.285625 
L 382.485 515.285625 
L 394.485 515.285625 
" style="fill: none; stroke-dasharray: 5.55,2.4; stroke-dashoffset: 0; stroke: #80ff00; stroke-width: 1.5"/>
    </g>
    <g id="text_30">
     <!-- new_basalt_slab -->
     <g transform="translate(404.085 519.485625) scale(0.12 -0.12)">
      <defs>
       <path id="DejaVuSans-77" d="M 269 3500 
L 844 3500 
L 1563 769 
L 2278 3500 
L 2956 3500 
L 3675 769 
L 4391 3500 
L 4966 3500 
L 4050 0 
L 3372 0 
L 2619 2869 
L 1863 0 
L 1184 0 
L 269 3500 
z
" transform="scale(0.015625)"/>
      </defs>
      <use xlink:href="#DejaVuSans-6e"/>
      <use xlink:href="#DejaVuSans-65" transform="translate(63.378906 0)"/>
      <use xlink:href="#DejaVuSans-77" transform="translate(124.902344 0)"/>
      <use xlink:href="#DejaVuSans-5f" transform="translate(206.689453 0)"/>
      <use xlink:href="#DejaVuSans-62" transform="translate(256.689453 0)"/>
      <use xlink:href="#DejaVuSans-61" transform="translate(320.166016 0)"/>
      <use xlink:href="#DejaVuSans-73" transform="translate(381.445312 0)"/>
      <use xlink:href="#DejaVuSans-61" transform="translate(433.544922 0)"/>
      <use xlink:href="#DejaVuSans-6c" transform="translate(494.824219 0)"/>
      <use xlink:href="#DejaVuSans-74" transform="translate(522.607422 0)"/>
      <use xlink:href="#DejaVuSans-5f" transform="translate(561.816406 0)"/>
      <use xlink:href="#DejaVuSans-73" transform="translate(611.816406 0)"/>
      <use xlink:href="#DejaVuSans-6c" transform="translate(663.916016 0)"/>
      <use xlink:href="#DejaVuSans-61" transform="translate(691.699219 0)"/>
      <use xlink:href="#DejaVuSans-62" transform="translate(752.978516 0)"/>
     </g>
    </g>
    <g id="line2d_24">
     <path d="M 370.485 533.233125 
L 382.485 533.233125 
L 394.485 533.233125 
" style="fill: none; stroke-dasharray: 5.55,2.4; stroke-dashoffset: 0; stroke: #0000ff; stroke-width: 1.5"/>
    </g>
    <g id="text_31">
     <!-- EG_19_70_olivine_pyroxenite_slab -->
     <g transform="translate(404.085 537.433125) scale(0.12 -0.12)">
      <defs>
       <path id="DejaVuSans-39" d="M 703 97 
L 703 672 
Q 941 559 1184 500 
Q 1428 441 1663 441 
Q 2288 441 2617 861 
Q 2947 1281 2994 2138 
Q 2813 1869 2534 1725 
Q 2256 1581 1919 1581 
Q 1219 1581 811 2004 
Q 403 2428 403 3163 
Q 403 3881 828 4315 
Q 1253 4750 1959 4750 
Q 2769 4750 3195 4129 
Q 3622 3509 3622 2328 
Q 3622 1225 3098 567 
Q 2575 -91 1691 -91 
Q 1453 -91 1209 -44 
Q 966 3 703 97 
z
M 1959 2075 
Q 2384 2075 2632 2365 
Q 2881 2656 2881 3163 
Q 2881 3666 2632 3958 
Q 2384 4250 1959 4250 
Q 1534 4250 1286 3958 
Q 1038 3666 1038 3163 
Q 1038 2656 1286 2365 
Q 1534 2075 1959 2075 
z
" transform="scale(0.015625)"/>
       <path id="DejaVuSans-76" d="M 191 3500 
L 800 3500 
L 1894 563 
L 2988 3500 
L 3597 3500 
L 2284 0 
L 1503 0 
L 191 3500 
z
" transform="scale(0.015625)"/>
       <path id="DejaVuSans-78" d="M 3513 3500 
L 2247 1797 
L 3578 0 
L 2900 0 
L 1881 1375 
L 863 0 
L 184 0 
L 1544 1831 
L 300 3500 
L 978 3500 
L 1906 2253 
L 2834 3500 
L 3513 3500 
z
" transform="scale(0.015625)"/>
      </defs>
      <use xlink:href="#DejaVuSans-45"/>
      <use xlink:href="#DejaVuSans-47" transform="translate(63.183594 0)"/>
      <use xlink:href="#DejaVuSans-5f" transform="translate(140.673828 0)"/>
      <use xlink:href="#DejaVuSans-31" transform="translate(190.673828 0)"/>
      <use xlink:href="#DejaVuSans-39" transform="translate(254.296875 0)"/>
      <use xlink:href="#DejaVuSans-5f" transform="translate(317.919922 0)"/>
      <use xlink:href="#DejaVuSans-37" transform="translate(367.919922 0)"/>
      <use xlink:href="#DejaVuSans-30" transform="translate(431.542969 0)"/>
      <use xlink:href="#DejaVuSans-5f" transform="translate(495.166016 0)"/>
      <use xlink:href="#DejaVuSans-6f" transform="translate(545.166016 0)"/>
      <use xlink:href="#DejaVuSans-6c" transform="translate(606.347656 0)"/>
      <use xlink:href="#DejaVuSans-69" transform="translate(634.130859 0)"/>
      <use xlink:href="#DejaVuSans-76" transform="translate(661.914062 0)"/>
      <use xlink:href="#DejaVuSans-69" transform="translate(721.09375 0)"/>
      <use xlink:href="#DejaVuSans-6e" transform="translate(748.876953 0)"/>
      <use xlink:href="#DejaVuSans-65" transform="translate(812.255859 0)"/>
      <use xlink:href="#DejaVuSans-5f" transform="translate(873.779297 0)"/>
      <use xlink:href="#DejaVuSans-70" transform="translate(923.779297 0)"/>
      <use xlink:href="#DejaVuSans-79" transform="translate(987.255859 0)"/>
      <use xlink:href="#DejaVuSans-72" transform="translate(1046.435547 0)"/>
      <use xlink:href="#DejaVuSans-6f" transform="translate(1085.298828 0)"/>
      <use xlink:href="#DejaVuSans-78" transform="translate(1143.355469 0)"/>
      <use xlink:href="#DejaVuSans-65" transform="translate(1199.410156 0)"/>
      <use xlink:href="#DejaVuSans-6e" transform="translate(1260.933594 0)"/>
      <use xlink:href="#DejaVuSans-69" transform="translate(1324.3125 0)"/>
      <use xlink:href="#DejaVuSans-74" transform="translate(1352.095703 0)"/>
      <use xlink:href="#DejaVuSans-65" transform="translate(1391.304688 0)"/>
      <use xlink:href="#DejaVuSans-5f" transform="translate(1452.828125 0)"/>
      <use xlink:href="#DejaVuSans-73" transform="translate(1502.828125 0)"/>
      <use xlink:href="#DejaVuSans-6c" transform="translate(1554.927734 0)"/>
      <use xlink:href="#DejaVuSans-61" transform="translate(1582.710938 0)"/>
      <use xlink:href="#DejaVuSans-62" transform="translate(1643.990234 0)"/>
     </g>
    </g>
    <g id="line2d_25">
     <path d="M 370.485 551.180625 
L 382.485 551.180625 
L 394.485 551.180625 
" style="fill: none; stroke-dasharray: 5.55,2.4; stroke-dashoffset: 0; stroke: #00ffff; stroke-width: 1.5"/>
    </g>
    <g id="text_32">
     <!-- EG_19_63_olivine_clinopyroxenite_slab -->
     <g transform="translate(404.085 555.380625) scale(0.12 -0.12)">
      <use xlink:href="#DejaVuSans-45"/>
      <use xlink:href="#DejaVuSans-47" transform="translate(63.183594 0)"/>
      <use xlink:href="#DejaVuSans-5f" transform="translate(140.673828 0)"/>
      <use xlink:href="#DejaVuSans-31" transform="translate(190.673828 0)"/>
      <use xlink:href="#DejaVuSans-39" transform="translate(254.296875 0)"/>
      <use xlink:href="#DejaVuSans-5f" transform="translate(317.919922 0)"/>
      <use xlink:href="#DejaVuSans-36" transform="translate(367.919922 0)"/>
      <use xlink:href="#DejaVuSans-33" transform="translate(431.542969 0)"/>
      <use xlink:href="#DejaVuSans-5f" transform="translate(495.166016 0)"/>
      <use xlink:href="#DejaVuSans-6f" transform="translate(545.166016 0)"/>
      <use xlink:href="#DejaVuSans-6c" transform="translate(606.347656 0)"/>
      <use xlink:href="#DejaVuSans-69" transform="translate(634.130859 0)"/>
      <use xlink:href="#DejaVuSans-76" transform="translate(661.914062 0)"/>
      <use xlink:href="#DejaVuSans-69" transform="translate(721.09375 0)"/>
      <use xlink:href="#DejaVuSans-6e" transform="translate(748.876953 0)"/>
      <use xlink:href="#DejaVuSans-65" transform="translate(812.255859 0)"/>
      <use xlink:href="#DejaVuSans-5f" transform="translate(873.779297 0)"/>
      <use xlink:href="#DejaVuSans-63" transform="translate(923.779297 0)"/>
      <use xlink:href="#DejaVuSans-6c" transform="translate(978.759766 0)"/>
      <use xlink:href="#DejaVuSans-69" transform="translate(1006.542969 0)"/>
      <use xlink:href="#DejaVuSans-6e" transform="translate(1034.326172 0)"/>
      <use xlink:href="#DejaVuSans-6f" transform="translate(1097.705078 0)"/>
      <use xlink:href="#DejaVuSans-70" transform="translate(1158.886719 0)"/>
      <use xlink:href="#DejaVuSans-79" transform="translate(1222.363281 0)"/>
      <use xlink:href="#DejaVuSans-72" transform="translate(1281.542969 0)"/>
      <use xlink:href="#DejaVuSans-6f" transform="translate(1320.40625 0)"/>
      <use xlink:href="#DejaVuSans-78" transform="translate(1378.462891 0)"/>
      <use xlink:href="#DejaVuSans-65" transform="translate(1434.517578 0)"/>
      <use xlink:href="#DejaVuSans-6e" transform="translate(1496.041016 0)"/>
      <use xlink:href="#DejaVuSans-69" transform="translate(1559.419922 0)"/>
      <use xlink:href="#DejaVuSans-74" transform="translate(1587.203125 0)"/>
      <use xlink:href="#DejaVuSans-65" transform="translate(1626.412109 0)"/>
      <use xlink:href="#DejaVuSans-5f" transform="translate(1687.935547 0)"/>
      <use xlink:href="#DejaVuSans-73" transform="translate(1737.935547 0)"/>
      <use xlink:href="#DejaVuSans-6c" transform="translate(1790.035156 0)"/>
      <use xlink:href="#DejaVuSans-61" transform="translate(1817.818359 0)"/>
      <use xlink:href="#DejaVuSans-62" transform="translate(1879.097656 0)"/>
     </g>
    </g>
    <g id="line2d_26">
     <path d="M 370.485 569.128125 
L 382.485 569.128125 
L 394.485 569.128125 
" style="fill: none; stroke-dasharray: 5.55,2.4; stroke-dashoffset: 0; stroke: #ff00ff; stroke-width: 1.5"/>
    </g>
    <g id="text_33">
     <!-- EG_19_68_olivine_gabbronorite_slab -->
     <g transform="translate(404.085 573.328125) scale(0.12 -0.12)">
      <use xlink:href="#DejaVuSans-45"/>
      <use xlink:href="#DejaVuSans-47" transform="translate(63.183594 0)"/>
      <use xlink:href="#DejaVuSans-5f" transform="translate(140.673828 0)"/>
      <use xlink:href="#DejaVuSans-31" transform="translate(190.673828 0)"/>
      <use xlink:href="#DejaVuSans-39" transform="translate(254.296875 0)"/>
      <use xlink:href="#DejaVuSans-5f" transform="translate(317.919922 0)"/>
      <use xlink:href="#DejaVuSans-36" transform="translate(367.919922 0)"/>
      <use xlink:href="#DejaVuSans-38" transform="translate(431.542969 0)"/>
      <use xlink:href="#DejaVuSans-5f" transform="translate(495.166016 0)"/>
      <use xlink:href="#DejaVuSans-6f" transform="translate(545.166016 0)"/>
      <use xlink:href="#DejaVuSans-6c" transform="translate(606.347656 0)"/>
      <use xlink:href="#DejaVuSans-69" transform="translate(634.130859 0)"/>
      <use xlink:href="#DejaVuSans-76" transform="translate(661.914062 0)"/>
      <use xlink:href="#DejaVuSans-69" transform="translate(721.09375 0)"/>
      <use xlink:href="#DejaVuSans-6e" transform="translate(748.876953 0)"/>
      <use xlink:href="#DejaVuSans-65" transform="translate(812.255859 0)"/>
      <use xlink:href="#DejaVuSans-5f" transform="translate(873.779297 0)"/>
      <use xlink:href="#DejaVuSans-67" transform="translate(923.779297 0)"/>
      <use xlink:href="#DejaVuSans-61" transform="translate(987.255859 0)"/>
      <use xlink:href="#DejaVuSans-62" transform="translate(1048.535156 0)"/>
      <use xlink:href="#DejaVuSans-62" transform="translate(1112.011719 0)"/>
      <use xlink:href="#DejaVuSans-72" transform="translate(1175.488281 0)"/>
      <use xlink:href="#DejaVuSans-6f" transform="translate(1214.351562 0)"/>
      <use xlink:href="#DejaVuSans-6e" transform="translate(1275.533203 0)"/>
      <use xlink:href="#DejaVuSans-6f" transform="translate(1338.912109 0)"/>
      <use xlink:href="#DejaVuSans-72" transform="translate(1400.09375 0)"/>
      <use xlink:href="#DejaVuSans-69" transform="translate(1441.207031 0)"/>
      <use xlink:href="#DejaVuSans-74" transform="translate(1468.990234 0)"/>
      <use xlink:href="#DejaVuSans-65" transform="translate(1508.199219 0)"/>
      <use xlink:href="#DejaVuSans-5f" transform="translate(1569.722656 0)"/>
      <use xlink:href="#DejaVuSans-73" transform="translate(1619.722656 0)"/>
      <use xlink:href="#DejaVuSans-6c" transform="translate(1671.822266 0)"/>
      <use xlink:href="#DejaVuSans-61" transform="translate(1699.605469 0)"/>
      <use xlink:href="#DejaVuSans-62" transform="translate(1760.884766 0)"/>
     </g>
    </g>
    <g id="line2d_27">
     <path d="M 370.485 587.075625 
L 382.485 587.075625 
L 394.485 587.075625 
" style="fill: none; stroke-dasharray: 5.55,2.4; stroke-dashoffset: 0; stroke: #ff00b2; stroke-width: 1.5"/>
    </g>
    <g id="text_34">
     <!-- hematite_crushed -->
     <g transform="translate(404.085 591.275625) scale(0.12 -0.12)">
      <defs>
       <path id="DejaVuSans-75" d="M 544 1381 
L 544 3500 
L 1119 3500 
L 1119 1403 
Q 1119 906 1312 657 
Q 1506 409 1894 409 
Q 2359 409 2629 706 
Q 2900 1003 2900 1516 
L 2900 3500 
L 3475 3500 
L 3475 0 
L 2900 0 
L 2900 538 
Q 2691 219 2414 64 
Q 2138 -91 1772 -91 
Q 1169 -91 856 284 
Q 544 659 544 1381 
z
M 1991 3584 
L 1991 3584 
z
" transform="scale(0.015625)"/>
      </defs>
      <use xlink:href="#DejaVuSans-68"/>
      <use xlink:href="#DejaVuSans-65" transform="translate(63.378906 0)"/>
      <use xlink:href="#DejaVuSans-6d" transform="translate(124.902344 0)"/>
      <use xlink:href="#DejaVuSans-61" transform="translate(222.314453 0)"/>
      <use xlink:href="#DejaVuSans-74" transform="translate(283.59375 0)"/>
      <use xlink:href="#DejaVuSans-69" transform="translate(322.802734 0)"/>
      <use xlink:href="#DejaVuSans-74" transform="translate(350.585938 0)"/>
      <use xlink:href="#DejaVuSans-65" transform="translate(389.794922 0)"/>
      <use xlink:href="#DejaVuSans-5f" transform="translate(451.318359 0)"/>
      <use xlink:href="#DejaVuSans-63" transform="translate(501.318359 0)"/>
      <use xlink:href="#DejaVuSans-72" transform="translate(556.298828 0)"/>
      <use xlink:href="#DejaVuSans-75" transform="translate(597.412109 0)"/>
      <use xlink:href="#DejaVuSans-73" transform="translate(660.791016 0)"/>
      <use xlink:href="#DejaVuSans-68" transform="translate(712.890625 0)"/>
      <use xlink:href="#DejaVuSans-65" transform="translate(776.269531 0)"/>
      <use xlink:href="#DejaVuSans-64" transform="translate(837.792969 0)"/>
     </g>
    </g>
    <g id="line2d_28">
     <path d="M 370.485 605.023125 
L 382.485 605.023125 
L 394.485 605.023125 
" style="fill: none; stroke-dasharray: 5.55,2.4; stroke-dashoffset: 0; stroke: #ff0000; stroke-width: 1.5"/>
    </g>
    <g id="text_35">
     <!-- dunite_xenolith_crushed -->
     <g transform="translate(404.085 609.223125) scale(0.12 -0.12)">
      <use xlink:href="#DejaVuSans-64"/>
      <use xlink:href="#DejaVuSans-75" transform="translate(63.476562 0)"/>
      <use xlink:href="#DejaVuSans-6e" transform="translate(126.855469 0)"/>
      <use xlink:href="#DejaVuSans-69" transform="translate(190.234375 0)"/>
      <use xlink:href="#DejaVuSans-74" transform="translate(218.017578 0)"/>
      <use xlink:href="#DejaVuSans-65" transform="translate(257.226562 0)"/>
      <use xlink:href="#DejaVuSans-5f" transform="translate(318.75 0)"/>
      <use xlink:href="#DejaVuSans-78" transform="translate(368.75 0)"/>
      <use xlink:href="#DejaVuSans-65" transform="translate(424.804688 0)"/>
      <use xlink:href="#DejaVuSans-6e" transform="translate(486.328125 0)"/>
      <use xlink:href="#DejaVuSans-6f" transform="translate(549.707031 0)"/>
      <use xlink:href="#DejaVuSans-6c" transform="translate(610.888672 0)"/>
      <use xlink:href="#DejaVuSans-69" transform="translate(638.671875 0)"/>
      <use xlink:href="#DejaVuSans-74" transform="translate(666.455078 0)"/>
      <use xlink:href="#DejaVuSans-68" transform="translate(705.664062 0)"/>
      <use xlink:href="#DejaVuSans-5f" transform="translate(769.042969 0)"/>
      <use xlink:href="#DejaVuSans-63" transform="translate(819.042969 0)"/>
      <use xlink:href="#DejaVuSans-72" transform="translate(874.023438 0)"/>
      <use xlink:href="#DejaVuSans-75" transform="translate(915.136719 0)"/>
      <use xlink:href="#DejaVuSans-73" transform="translate(978.515625 0)"/>
      <use xlink:href="#DejaVuSans-68" transform="translate(1030.615234 0)"/>
      <use xlink:href="#DejaVuSans-65" transform="translate(1093.994141 0)"/>
      <use xlink:href="#DejaVuSans-64" transform="translate(1155.517578 0)"/>
     </g>
    </g>
    <g id="line2d_29">
     <path d="M 370.485 622.970625 
L 382.485 622.970625 
L 394.485 622.970625 
" style="fill: none; stroke-dasharray: 5.55,2.4; stroke-dashoffset: 0; stroke: #0080ff; stroke-width: 1.5"/>
    </g>
    <g id="text_36">
     <!-- K1919_basalt_slab -->
     <g transform="translate(404.085 627.170625) scale(0.12 -0.12)">
      <use xlink:href="#DejaVuSans-4b"/>
      <use xlink:href="#DejaVuSans-31" transform="translate(65.576172 0)"/>
      <use xlink:href="#DejaVuSans-39" transform="translate(129.199219 0)"/>
      <use xlink:href="#DejaVuSans-31" transform="translate(192.822266 0)"/>
      <use xlink:href="#DejaVuSans-39" transform="translate(256.445312 0)"/>
      <use xlink:href="#DejaVuSans-5f" transform="translate(320.068359 0)"/>
      <use xlink:href="#DejaVuSans-62" transform="translate(370.068359 0)"/>
      <use xlink:href="#DejaVuSans-61" transform="translate(433.544922 0)"/>
      <use xlink:href="#DejaVuSans-73" transform="translate(494.824219 0)"/>
      <use xlink:href="#DejaVuSans-61" transform="translate(546.923828 0)"/>
      <use xlink:href="#DejaVuSans-6c" transform="translate(608.203125 0)"/>
      <use xlink:href="#DejaVuSans-74" transform="translate(635.986328 0)"/>
      <use xlink:href="#DejaVuSans-5f" transform="translate(675.195312 0)"/>
      <use xlink:href="#DejaVuSans-73" transform="translate(725.195312 0)"/>
      <use xlink:href="#DejaVuSans-6c" transform="translate(777.294922 0)"/>
      <use xlink:href="#DejaVuSans-61" transform="translate(805.078125 0)"/>
      <use xlink:href="#DejaVuSans-62" transform="translate(866.357422 0)"/>
     </g>
    </g>
   </g>
   <g id="line2d_30">
    <path d="M 119.972626 604.856176 
L 129.455597 597.643563 
L 138.929104 588.800105 
L 148.402612 578.382725 
L 157.876119 566.942123 
L 167.349627 554.672382 
L 176.823134 542.572036 
L 186.287178 530.368132 
L 195.760685 518.544165 
L 205.224729 506.877933 
L 214.688772 494.776901 
L 224.152815 482.488644 
L 233.616859 469.857484 
L 243.080902 454.666899 
L 252.55441 446.354255 
L 262.018453 435.368342 
L 271.482497 424.994167 
L 280.94654 413.336164 
L 290.420047 399.926616 
L 299.874627 386.30241 
L 309.33867 365.83044 
L 318.812178 309.710316 
L 328.276221 292.421853 
L 337.740265 280.39283 
L 347.204308 272.803025 
L 356.668351 268.424844 
L 366.132395 266.075276 
L 375.605902 266.272102 
L 385.069946 267.199996 
L 394.533989 265.223506 
L 403.998033 258.850318 
L 413.462076 246.39541 
L 422.926119 238.671187 
L 432.390163 230.549882 
L 441.854206 221.471193 
L 451.31825 210.927624 
L 460.791757 200.366224 
L 470.246336 190.646307 
L 479.71038 181.29261 
L 489.174423 176.975467 
L 498.638467 171.299057 
L 508.111974 166.227528 
L 517.576018 161.160114 
L 527.030597 155.958967 
L 536.49464 151.846879 
L 545.958684 148.058491 
L 555.413263 144.394234 
L 564.886771 140.683343 
L 574.350814 137.402451 
L 583.824322 133.891128 
L 593.297829 130.469646 
L 602.752408 127.369807 
L 612.206988 124.500398 
L 621.661567 121.480798 
" clip-path="url(#pb0118e5a33)" style="fill: none; stroke-dasharray: 5.55,2.4; stroke-dashoffset: 0; stroke: #000000; stroke-width: 1.5"/>
   </g>
   <g id="line2d_31">
    <path d="M 119.972626 599.925237 
L 129.455597 587.959308 
L 138.929104 572.963492 
L 148.402612 555.445285 
L 157.876119 536.853792 
L 167.349627 518.094277 
L 176.823134 499.005576 
L 186.287178 480.232345 
L 195.760685 462.039991 
L 205.224729 444.528641 
L 214.688772 427.244293 
L 224.152815 410.797999 
L 233.616859 395.073172 
L 243.080902 380.110275 
L 252.55441 365.979945 
L 262.018453 352.523076 
L 271.482497 339.909061 
L 280.94654 327.89444 
L 290.420047 316.621861 
L 299.874627 305.980907 
L 309.33867 295.867338 
L 318.812178 285.24353 
L 328.276221 275.723869 
L 337.740265 266.881783 
L 347.204308 258.632232 
L 356.668351 251.098662 
L 366.132395 244.162429 
L 375.605902 237.46074 
L 385.069946 231.088239 
L 394.533989 224.553887 
L 403.998033 218.209503 
L 413.462076 212.421308 
L 422.926119 206.591963 
L 432.390163 201.124725 
L 441.854206 195.702749 
L 451.31825 190.448795 
L 460.791757 185.373837 
L 470.246336 180.437411 
L 479.71038 175.448865 
L 489.174423 170.756585 
L 498.638467 165.962121 
L 508.111974 161.239667 
L 517.576018 157.122093 
L 527.030597 152.989431 
L 536.49464 149.025477 
L 545.958684 145.237775 
L 555.413263 141.648956 
L 564.886771 138.310457 
L 574.350814 134.916407 
L 583.824322 131.706839 
L 593.297829 128.555564 
L 602.752408 125.623061 
L 612.206988 122.785885 
L 621.661567 120.102329 
" clip-path="url(#pb0118e5a33)" style="fill: none; stroke-dasharray: 5.55,2.4; stroke-dashoffset: 0; stroke: #00ff00; stroke-width: 1.5"/>
   </g>
   <g id="line2d_32">
    <path d="M 119.972626 600.853131 
L 129.455597 589.339148 
L 138.929104 574.956442 
L 148.402612 558.371615 
L 157.876119 540.563312 
L 167.349627 522.16796 
L 176.823134 504.062703 
L 186.287178 486.552039 
L 195.760685 469.325985 
L 205.224729 453.282259 
L 214.688772 437.33043 
L 224.152815 422.565045 
L 233.616859 408.335273 
L 243.080902 393.482104 
L 252.55441 382.232842 
L 262.018453 370.397902 
L 271.482497 357.559629 
L 280.94654 343.579491 
L 290.420047 332.478362 
L 299.874627 321.866213 
L 309.33867 308.927812 
L 318.812178 285.234615 
L 328.276221 274.499021 
L 337.740265 265.42719 
L 347.204308 257.057623 
L 356.668351 250.307929 
L 366.132395 244.963449 
L 375.605902 241.245013 
L 385.069946 238.143117 
L 394.533989 233.96862 
L 403.998033 228.615225 
L 413.462076 221.630985 
L 422.926119 215.523204 
L 432.390163 208.892154 
L 441.854206 202.292651 
L 451.31825 195.339272 
L 460.791757 188.590949 
L 470.246336 181.757586 
L 479.71038 175.287014 
L 489.174423 170.362248 
L 498.638467 165.129554 
L 508.111974 160.551804 
L 517.576018 156.183225 
L 527.030597 151.935348 
L 536.49464 148.111984 
L 545.958684 144.519051 
L 555.413263 140.937776 
L 564.886771 137.420282 
L 574.350814 134.193568 
L 583.824322 130.914734 
L 593.297829 127.769631 
L 602.752408 124.920111 
L 612.206988 122.054131 
L 621.661567 119.425439 
" clip-path="url(#pb0118e5a33)" style="fill: none; stroke-dasharray: 5.55,2.4; stroke-dashoffset: 0; stroke: #ffff00; stroke-width: 1.5"/>
   </g>
   <g id="line2d_33">
    <path d="M 119.972626 600.225619 
L 129.455597 588.26312 
L 138.929104 573.248787 
L 148.402612 555.852653 
L 157.876119 537.274876 
L 167.349627 518.248583 
L 176.823134 498.880759 
L 186.287178 479.75091 
L 195.760685 461.165589 
L 205.224729 443.094623 
L 214.688772 425.6738 
L 224.152815 409.139037 
L 233.616859 393.5548 
L 243.080902 378.696831 
L 252.55441 364.700233 
L 262.018453 351.329775 
L 271.482497 338.770625 
L 280.94654 326.852016 
L 290.420047 315.489596 
L 299.874627 304.607925 
L 309.33867 294.246781 
L 318.812178 283.23275 
L 328.276221 273.815273 
L 337.740265 264.926552 
L 347.204308 256.494577 
L 356.668351 248.966494 
L 366.132395 241.971281 
L 375.605902 235.436929 
L 385.069946 229.148782 
L 394.533989 222.602085 
L 403.998033 216.390748 
L 413.462076 210.423557 
L 422.926119 204.699827 
L 432.390163 199.111886 
L 441.854206 193.803069 
L 451.31825 188.669131 
L 460.791757 183.693614 
L 470.246336 179.065115 
L 479.71038 174.339918 
L 489.174423 170.104385 
L 498.638467 165.698772 
L 508.111974 161.566796 
L 517.576018 157.641933 
L 527.030597 153.701982 
L 536.49464 150.032239 
L 545.958684 146.399529 
L 555.413263 142.877919 
L 564.886771 139.363853 
L 574.350814 136.296247 
L 583.824322 133.030443 
L 593.297829 129.969008 
L 602.752408 127.201784 
L 612.206988 124.274082 
L 621.661567 121.55075 
" clip-path="url(#pb0118e5a33)" style="fill: none; stroke-dasharray: 5.55,2.4; stroke-dashoffset: 0; stroke: #800000; stroke-width: 1.5"/>
   </g>
   <g id="line2d_34">
    <path d="M 119.972626 600.582924 
L 129.455597 588.862513 
L 138.929104 574.023061 
L 148.402612 556.758601 
L 157.876119 538.214429 
L 167.349627 519.496749 
L 176.823134 500.56784 
L 186.287178 482.044242 
L 195.760685 464.562382 
L 205.224729 447.553042 
L 214.688772 430.751501 
L 224.152815 414.744808 
L 233.616859 399.566568 
L 243.080902 384.814899 
L 252.55441 371.139943 
L 262.018453 358.030777 
L 271.482497 345.581356 
L 280.94654 333.87329 
L 290.420047 322.75776 
L 299.874627 312.158641 
L 309.33867 301.774178 
L 318.812178 288.54774 
L 328.276221 278.870343 
L 337.740265 270.292292 
L 347.204308 262.299918 
L 356.668351 255.437752 
L 366.132395 248.986382 
L 375.605902 242.854598 
L 385.069946 237.314664 
L 394.533989 230.974395 
L 403.998033 224.897475 
L 413.462076 219.076361 
L 422.926119 213.447958 
L 432.390163 207.881277 
L 441.854206 202.62801 
L 451.31825 197.463211 
L 460.791757 192.542559 
L 470.246336 187.483374 
L 479.71038 182.877506 
L 489.174423 178.370395 
L 498.638467 173.464144 
L 508.111974 168.86925 
L 517.576018 164.639889 
L 527.030597 160.089572 
L 536.49464 156.147564 
L 545.958684 152.176752 
L 555.413263 148.498093 
L 564.886771 144.937392 
L 574.350814 141.663358 
L 583.824322 138.447618 
L 593.297829 135.350522 
L 602.752408 132.322006 
L 612.206988 129.198849 
L 621.661567 126.074321 
" clip-path="url(#pb0118e5a33)" style="fill: none; stroke-dasharray: 5.55,2.4; stroke-dashoffset: 0; stroke: #80ff00; stroke-width: 1.5"/>
   </g>
   <g id="line2d_35">
    <path d="M 119.972626 600.488969 
L 129.455597 588.662944 
L 138.929104 573.818691 
L 148.402612 556.615954 
L 157.876119 538.09167 
L 167.349627 519.132586 
L 176.823134 499.963646 
L 186.287178 481.012791 
L 195.760685 462.601665 
L 205.224729 445.429789 
L 214.688772 428.345697 
L 224.152815 412.0928 
L 233.616859 396.570971 
L 243.080902 381.893369 
L 252.55441 367.87894 
L 262.018453 354.594208 
L 271.482497 341.936301 
L 280.94654 329.905221 
L 290.420047 318.658702 
L 299.874627 307.92928 
L 309.33867 297.713526 
L 318.812178 286.282525 
L 328.276221 277.231954 
L 337.740265 268.456391 
L 347.204308 260.27885 
L 356.668351 252.833749 
L 366.132395 245.737037 
L 375.605902 239.042207 
L 385.069946 232.662162 
L 394.533989 226.137411 
L 403.998033 219.886297 
L 413.462076 213.842296 
L 422.926119 208.019124 
L 432.390163 202.370833 
L 441.854206 197.094248 
L 451.31825 192.004202 
L 460.791757 187.017712 
L 470.246336 182.179357 
L 479.71038 177.616695 
L 489.174423 173.080779 
L 498.638467 168.496172 
L 508.111974 164.228406 
L 517.576018 159.996988 
L 527.030597 155.910275 
L 536.49464 152.108171 
L 545.958684 148.587247 
L 555.413263 145.371507 
L 564.886771 141.90339 
L 574.350814 138.871445 
L 583.824322 135.907395 
L 593.297829 132.812357 
L 602.752408 129.856536 
L 612.206988 126.791673 
L 621.661567 124.023763 
" clip-path="url(#pb0118e5a33)" style="fill: none; stroke-dasharray: 5.55,2.4; stroke-dashoffset: 0; stroke: #0000ff; stroke-width: 1.5"/>
   </g>
   <g id="line2d_36">
    <path d="M 119.972626 600.216704 
L 129.455597 588.231573 
L 138.929104 573.218612 
L 148.402612 555.806704 
L 157.876119 537.11234 
L 167.349627 518.13474 
L 176.823134 498.84304 
L 186.287178 479.85378 
L 195.760685 461.465286 
L 205.224729 444.023889 
L 214.688772 426.761487 
L 224.152815 410.363199 
L 233.616859 394.585565 
L 243.080902 379.752971 
L 252.55441 365.698079 
L 262.018453 352.305676 
L 271.482497 339.707435 
L 280.94654 327.646865 
L 290.420047 316.232323 
L 299.874627 305.444608 
L 309.33867 295.225425 
L 318.812178 283.786194 
L 328.276221 274.780201 
L 337.740265 265.959375 
L 347.204308 257.523971 
L 356.668351 249.989029 
L 366.132395 242.794933 
L 375.605902 235.967743 
L 385.069946 229.610329 
L 394.533989 222.994366 
L 403.998033 216.757654 
L 413.462076 210.743142 
L 422.926119 204.923399 
L 432.390163 199.304598 
L 441.854206 194.052702 
L 451.31825 188.784346 
L 460.791757 183.903471 
L 470.246336 179.122037 
L 479.71038 174.566919 
L 489.174423 170.052949 
L 498.638467 165.608246 
L 508.111974 161.363112 
L 517.576018 157.38407 
L 527.030597 153.383769 
L 536.49464 149.870389 
L 545.958684 146.237679 
L 555.413263 142.884091 
L 564.886771 139.609372 
L 574.350814 136.386773 
L 583.824322 133.191607 
L 593.297829 130.201496 
L 602.752408 127.391067 
L 612.206988 124.446219 
L 621.661567 121.792153 
" clip-path="url(#pb0118e5a33)" style="fill: none; stroke-dasharray: 5.55,2.4; stroke-dashoffset: 0; stroke: #00ffff; stroke-width: 1.5"/>
   </g>
   <g id="line2d_37">
    <path d="M 119.972626 601.629463 
L 129.455597 590.655894 
L 138.929104 576.167574 
L 148.402612 559.492221 
L 157.876119 542.565863 
L 167.349627 525.798612 
L 176.823134 507.826402 
L 186.287178 489.595643 
L 195.760685 471.508903 
L 205.224729 454.184092 
L 214.688772 436.591132 
L 224.152815 420.339607 
L 233.616859 404.859612 
L 243.080902 390.295854 
L 252.55441 376.98849 
L 262.018453 364.586389 
L 271.482497 353.306951 
L 280.94654 342.347099 
L 290.420047 331.710946 
L 299.874627 321.469132 
L 309.33867 310.931049 
L 318.812178 293.340146 
L 328.276221 281.85771 
L 337.740265 272.746103 
L 347.204308 264.445117 
L 356.668351 257.205757 
L 366.132395 251.186445 
L 375.605902 245.498377 
L 385.069946 240.231393 
L 394.533989 233.987137 
L 403.998033 227.731908 
L 413.462076 221.613154 
L 422.926119 215.381243 
L 432.390163 209.426396 
L 441.854206 203.581279 
L 451.31825 197.941217 
L 460.791757 192.371107 
L 470.246336 186.579483 
L 479.71038 181.313185 
L 489.174423 176.179247 
L 498.638467 170.943124 
L 508.111974 166.22067 
L 517.576018 161.85552 
L 527.030597 157.728344 
L 536.49464 153.700611 
L 545.958684 149.897821 
L 555.413263 146.354266 
L 564.886771 142.936213 
L 574.350814 139.634746 
L 583.824322 136.308591 
L 593.297829 132.976264 
L 602.752408 130.211783 
L 612.206988 127.06188 
L 621.661567 124.490796 
" clip-path="url(#pb0118e5a33)" style="fill: none; stroke-dasharray: 5.55,2.4; stroke-dashoffset: 0; stroke: #ff00ff; stroke-width: 1.5"/>
   </g>
   <g id="line2d_38">
    <path d="M 119.972626 599.861457 
L 129.455597 587.861924 
L 138.929104 572.838675 
L 148.402612 555.913004 
L 157.876119 538.815881 
L 167.349627 521.619316 
L 176.823134 503.857647 
L 186.287178 485.750333 
L 195.760685 468.15463 
L 205.224729 450.879883 
L 214.688772 434.498055 
L 224.152815 418.909017 
L 233.616859 404.283536 
L 243.080902 390.487193 
L 252.55441 377.146225 
L 262.018453 364.825049 
L 271.482497 353.066919 
L 280.94654 341.76485 
L 290.420047 330.950388 
L 299.874627 320.806644 
L 309.33867 310.624494 
L 318.812178 297.498869 
L 328.276221 284.382159 
L 337.740265 274.204124 
L 347.204308 265.271512 
L 356.668351 257.317544 
L 366.132395 251.435393 
L 375.605902 246.402268 
L 385.069946 241.736736 
L 394.533989 236.496498 
L 403.998033 231.341301 
L 413.462076 227.033073 
L 422.926119 222.554079 
L 432.390163 217.911178 
L 441.854206 213.332057 
L 451.31825 209.067034 
L 460.791757 204.626446 
L 470.246336 200.34565 
L 479.71038 195.291266 
L 489.174423 189.885064 
L 498.638467 185.206501 
L 508.111974 181.405082 
L 517.576018 177.954111 
L 527.030597 174.363921 
L 536.49464 171.000046 
L 545.958684 167.924896 
L 555.413263 164.972505 
L 564.886771 162.032458 
L 574.350814 159.001885 
L 583.824322 156.000801 
L 593.297829 153.206831 
L 602.752408 150.863435 
L 612.206988 148.171649 
L 621.661567 145.101985 
" clip-path="url(#pb0118e5a33)" style="fill: none; stroke-dasharray: 5.55,2.4; stroke-dashoffset: 0; stroke: #ff00b2; stroke-width: 1.5"/>
   </g>
   <g id="line2d_39">
    <path d="M 119.972626 602.325555 
L 129.455597 589.833614 
L 138.929104 573.134943 
L 148.402612 554.838347 
L 157.876119 535.347078 
L 167.349627 516.488121 
L 176.823134 498.310855 
L 186.287178 482.832232 
L 195.760685 475.727291 
L 205.224729 474.060098 
L 214.688772 474.368025 
L 224.152815 471.360083 
L 233.616859 464.785269 
L 243.080902 456.867648 
L 252.55441 448.803265 
L 262.018453 440.771115 
L 271.482497 432.998885 
L 280.94654 425.396734 
L 290.420047 418.07645 
L 299.874627 410.599802 
L 309.33867 401.56569 
L 318.812178 385.580257 
L 328.276221 370.170901 
L 337.740265 359.288544 
L 347.204308 350.434799 
L 356.668351 342.42048 
L 366.132395 333.837628 
L 375.605902 320.637936 
L 385.069946 309.33861 
L 394.533989 295.399619 
L 403.998033 280.60543 
L 413.462076 266.368115 
L 422.926119 254.024307 
L 432.390163 243.845587 
L 441.854206 233.461125 
L 451.31825 224.749341 
L 460.791757 211.880893 
L 470.246336 204.05037 
L 479.71038 197.404917 
L 489.174423 189.786993 
L 498.638467 182.376183 
L 508.111974 175.925499 
L 517.576018 167.562105 
L 527.030597 158.890784 
L 536.49464 154.880196 
L 545.958684 150.141968 
L 555.413263 145.786419 
L 564.886771 142.100902 
L 574.350814 138.259707 
L 583.824322 134.909549 
L 593.297829 131.577907 
L 602.752408 128.973905 
L 612.206988 125.998882 
L 621.661567 123.628739 
" clip-path="url(#pb0118e5a33)" style="fill: none; stroke-dasharray: 5.55,2.4; stroke-dashoffset: 0; stroke: #ff0000; stroke-width: 1.5"/>
   </g>
   <g id="line2d_40">
    <path d="M 119.972626 600.505428 
L 129.455597 589.00036 
L 138.929104 574.466777 
L 148.402612 557.493099 
L 157.876119 539.491399 
L 167.349627 521.21812 
L 176.823134 502.391396 
L 186.287178 483.711434 
L 195.760685 465.503993 
L 205.224729 448.345147 
L 214.688772 431.918741 
L 224.152815 415.467647 
L 233.616859 400.438912 
L 243.080902 385.927275 
L 252.55441 372.22763 
L 262.018453 359.278943 
L 271.482497 346.907017 
L 280.94654 335.355315 
L 290.420047 324.3598 
L 299.874627 313.946535 
L 309.33867 303.933779 
L 318.812178 293.032906 
L 328.276221 283.589368 
L 337.740265 274.895416 
L 347.204308 266.826232 
L 356.668351 260.118372 
L 366.132395 253.57922 
L 375.605902 247.555107 
L 385.069946 241.632493 
L 394.533989 235.500709 
L 403.998033 229.829786 
L 413.462076 224.662244 
L 422.926119 219.476871 
L 432.390163 214.65909 
L 441.854206 210.051851 
L 451.31825 205.795058 
L 460.791757 201.405219 
L 470.246336 197.263641 
L 479.71038 193.118635 
L 489.174423 188.811778 
L 498.638467 184.11127 
L 508.111974 179.318177 
L 517.576018 174.609439 
L 527.030597 169.742965 
L 536.49464 164.949187 
L 545.958684 160.542203 
L 555.413263 156.57482 
L 564.886771 152.69042 
L 574.350814 149.295684 
L 583.824322 145.969529 
L 593.297829 142.493182 
L 602.752408 139.280185 
L 612.206988 135.755147 
L 621.661567 132.543521 
" clip-path="url(#pb0118e5a33)" style="fill: none; stroke-dasharray: 5.55,2.4; stroke-dashoffset: 0; stroke: #0080ff; stroke-width: 1.5"/>
   </g>
  </g>
 </g>
 <defs>
  <clipPath id="pb0118e5a33">
   <rect x="90" y="86.4" width="558" height="554.4"/>
  </clipPath>
 </defs>
</svg>
