<?xml version="1.0" encoding="utf-8" standalone="no"?>
<!DOCTYPE svg PUBLIC "-//W3C//DTD SVG 1.1//EN"
  "http://www.w3.org/Graphics/SVG/1.1/DTD/svg11.dtd">
<svg xmlns:xlink="http://www.w3.org/1999/xlink" width="460.8pt" height="345.6pt" viewBox="0 0 460.8 345.6" xmlns="http://www.w3.org/2000/svg" version="1.1">
 <metadata>
  <rdf:RDF xmlns:dc="http://purl.org/dc/elements/1.1/" xmlns:cc="http://creativecommons.org/ns#" xmlns:rdf="http://www.w3.org/1999/02/22-rdf-syntax-ns#">
   <cc:Work>
    <dc:type rdf:resource="http://purl.org/dc/dcmitype/StillImage"/>
    <dc:date>2025-12-01T15:17:04.546206</dc:date>
    <dc:format>image/svg+xml</dc:format>
    <dc:creator>
     <cc:Agent>
      <dc:title>Matplotlib v3.10.7, https://matplotlib.org/</dc:title>
     </cc:Agent>
    </dc:creator>
   </cc:Work>
  </rdf:RDF>
 </metadata>
 <defs>
  <style type="text/css">*{stroke-linejoin: round; stroke-linecap: butt}</style>
 </defs>
 <g id="figure_1">
  <g id="patch_1">
   <path d="M 0 345.6 
L 460.8 345.6 
L 460.8 0 
L 0 0 
z
" style="fill: #ffffff"/>
  </g>
  <g id="axes_1">
   <g id="patch_2">
    <path d="M 57.6 307.584 
L 414.72 307.584 
L 414.72 41.472 
L 57.6 41.472 
z
" style="fill: #ffffff"/>
   </g>
   <g id="matplotlib.axis_1">
    <g id="xtick_1">
     <g id="line2d_1">
      <defs>
       <path id="m4fdfa8aa1c" d="M 0 0 
L 0 3.5 
" style="stroke: #000000; stroke-width: 0.8"/>
      </defs>
      <g>
       <use xlink:href="#m4fdfa8aa1c" x="73.872541" y="307.584" style="stroke: #000000; stroke-width: 0.8"/>
      </g>
     </g>
     <g id="text_1">
      <!-- 0.4 -->
      <g transform="translate(62.740354 325.221812) scale(0.14 -0.14)">
       <defs>
        <path id="DejaVuSans-30" d="M 2034 4250 
Q 1547 4250 1301 3770 
Q 1056 3291 1056 2328 
Q 1056 1369 1301 889 
Q 1547 409 2034 409 
Q 2525 409 2770 889 
Q 3016 1369 3016 2328 
Q 3016 3291 2770 3770 
Q 2525 4250 2034 4250 
z
M 2034 4750 
Q 2819 4750 3233 4129 
Q 3647 3509 3647 2328 
Q 3647 1150 3233 529 
Q 2819 -91 2034 -91 
Q 1250 -91 836 529 
Q 422 1150 422 2328 
Q 422 3509 836 4129 
Q 1250 4750 2034 4750 
z
" transform="scale(0.015625)"/>
        <path id="DejaVuSans-2e" d="M 684 794 
L 1344 794 
L 1344 0 
L 684 0 
L 684 794 
z
" transform="scale(0.015625)"/>
        <path id="DejaVuSans-34" d="M 2419 4116 
L 825 1625 
L 2419 1625 
L 2419 4116 
z
M 2253 4666 
L 3047 4666 
L 3047 1625 
L 3713 1625 
L 3713 1100 
L 3047 1100 
L 3047 0 
L 2419 0 
L 2419 1100 
L 313 1100 
L 313 1709 
L 2253 4666 
z
" transform="scale(0.015625)"/>
       </defs>
       <use xlink:href="#DejaVuSans-30"/>
       <use xlink:href="#DejaVuSans-2e" transform="translate(63.623047 0)"/>
       <use xlink:href="#DejaVuSans-34" transform="translate(95.410156 0)"/>
      </g>
     </g>
    </g>
    <g id="xtick_2">
     <g id="line2d_2">
      <g>
       <use xlink:href="#m4fdfa8aa1c" x="127.254488" y="307.584" style="stroke: #000000; stroke-width: 0.8"/>
      </g>
     </g>
     <g id="text_2">
      <!-- 0.6 -->
      <g transform="translate(116.1223 325.221812) scale(0.14 -0.14)">
       <defs>
        <path id="DejaVuSans-36" d="M 2113 2584 
Q 1688 2584 1439 2293 
Q 1191 2003 1191 1497 
Q 1191 994 1439 701 
Q 1688 409 2113 409 
Q 2538 409 2786 701 
Q 3034 994 3034 1497 
Q 3034 2003 2786 2293 
Q 2538 2584 2113 2584 
z
M 3366 4563 
L 3366 3988 
Q 3128 4100 2886 4159 
Q 2644 4219 2406 4219 
Q 1781 4219 1451 3797 
Q 1122 3375 1075 2522 
Q 1259 2794 1537 2939 
Q 1816 3084 2150 3084 
Q 2853 3084 3261 2657 
Q 3669 2231 3669 1497 
Q 3669 778 3244 343 
Q 2819 -91 2113 -91 
Q 1303 -91 875 529 
Q 447 1150 447 2328 
Q 447 3434 972 4092 
Q 1497 4750 2381 4750 
Q 2619 4750 2861 4703 
Q 3103 4656 3366 4563 
z
" transform="scale(0.015625)"/>
       </defs>
       <use xlink:href="#DejaVuSans-30"/>
       <use xlink:href="#DejaVuSans-2e" transform="translate(63.623047 0)"/>
       <use xlink:href="#DejaVuSans-36" transform="translate(95.410156 0)"/>
      </g>
     </g>
    </g>
    <g id="xtick_3">
     <g id="line2d_3">
      <g>
       <use xlink:href="#m4fdfa8aa1c" x="180.636435" y="307.584" style="stroke: #000000; stroke-width: 0.8"/>
      </g>
     </g>
     <g id="text_3">
      <!-- 0.8 -->
      <g transform="translate(169.504247 325.221812) scale(0.14 -0.14)">
       <defs>
        <path id="DejaVuSans-38" d="M 2034 2216 
Q 1584 2216 1326 1975 
Q 1069 1734 1069 1313 
Q 1069 891 1326 650 
Q 1584 409 2034 409 
Q 2484 409 2743 651 
Q 3003 894 3003 1313 
Q 3003 1734 2745 1975 
Q 2488 2216 2034 2216 
z
M 1403 2484 
Q 997 2584 770 2862 
Q 544 3141 544 3541 
Q 544 4100 942 4425 
Q 1341 4750 2034 4750 
Q 2731 4750 3128 4425 
Q 3525 4100 3525 3541 
Q 3525 3141 3298 2862 
Q 3072 2584 2669 2484 
Q 3125 2378 3379 2068 
Q 3634 1759 3634 1313 
Q 3634 634 3220 271 
Q 2806 -91 2034 -91 
Q 1263 -91 848 271 
Q 434 634 434 1313 
Q 434 1759 690 2068 
Q 947 2378 1403 2484 
z
M 1172 3481 
Q 1172 3119 1398 2916 
Q 1625 2713 2034 2713 
Q 2441 2713 2670 2916 
Q 2900 3119 2900 3481 
Q 2900 3844 2670 4047 
Q 2441 4250 2034 4250 
Q 1625 4250 1398 4047 
Q 1172 3844 1172 3481 
z
" transform="scale(0.015625)"/>
       </defs>
       <use xlink:href="#DejaVuSans-30"/>
       <use xlink:href="#DejaVuSans-2e" transform="translate(63.623047 0)"/>
       <use xlink:href="#DejaVuSans-38" transform="translate(95.410156 0)"/>
      </g>
     </g>
    </g>
    <g id="xtick_4">
     <g id="line2d_4">
      <g>
       <use xlink:href="#m4fdfa8aa1c" x="234.018381" y="307.584" style="stroke: #000000; stroke-width: 0.8"/>
      </g>
     </g>
     <g id="text_4">
      <!-- 1.0 -->
      <g transform="translate(222.886194 325.221812) scale(0.14 -0.14)">
       <defs>
        <path id="DejaVuSans-31" d="M 794 531 
L 1825 531 
L 1825 4091 
L 703 3866 
L 703 4441 
L 1819 4666 
L 2450 4666 
L 2450 531 
L 3481 531 
L 3481 0 
L 794 0 
L 794 531 
z
" transform="scale(0.015625)"/>
       </defs>
       <use xlink:href="#DejaVuSans-31"/>
       <use xlink:href="#DejaVuSans-2e" transform="translate(63.623047 0)"/>
       <use xlink:href="#DejaVuSans-30" transform="translate(95.410156 0)"/>
      </g>
     </g>
    </g>
    <g id="xtick_5">
     <g id="line2d_5">
      <g>
       <use xlink:href="#m4fdfa8aa1c" x="287.400328" y="307.584" style="stroke: #000000; stroke-width: 0.8"/>
      </g>
     </g>
     <g id="text_5">
      <!-- 1.2 -->
      <g transform="translate(276.26814 325.221812) scale(0.14 -0.14)">
       <defs>
        <path id="DejaVuSans-32" d="M 1228 531 
L 3431 531 
L 3431 0 
L 469 0 
L 469 531 
Q 828 903 1448 1529 
Q 2069 2156 2228 2338 
Q 2531 2678 2651 2914 
Q 2772 3150 2772 3378 
Q 2772 3750 2511 3984 
Q 2250 4219 1831 4219 
Q 1534 4219 1204 4116 
Q 875 4013 500 3803 
L 500 4441 
Q 881 4594 1212 4672 
Q 1544 4750 1819 4750 
Q 2544 4750 2975 4387 
Q 3406 4025 3406 3419 
Q 3406 3131 3298 2873 
Q 3191 2616 2906 2266 
Q 2828 2175 2409 1742 
Q 1991 1309 1228 531 
z
" transform="scale(0.015625)"/>
       </defs>
       <use xlink:href="#DejaVuSans-31"/>
       <use xlink:href="#DejaVuSans-2e" transform="translate(63.623047 0)"/>
       <use xlink:href="#DejaVuSans-32" transform="translate(95.410156 0)"/>
      </g>
     </g>
    </g>
    <g id="xtick_6">
     <g id="line2d_6">
      <g>
       <use xlink:href="#m4fdfa8aa1c" x="340.782274" y="307.584" style="stroke: #000000; stroke-width: 0.8"/>
      </g>
     </g>
     <g id="text_6">
      <!-- 1.4 -->
      <g transform="translate(329.650087 325.221812) scale(0.14 -0.14)">
       <use xlink:href="#DejaVuSans-31"/>
       <use xlink:href="#DejaVuSans-2e" transform="translate(63.623047 0)"/>
       <use xlink:href="#DejaVuSans-34" transform="translate(95.410156 0)"/>
      </g>
     </g>
    </g>
    <g id="xtick_7">
     <g id="line2d_7">
      <g>
       <use xlink:href="#m4fdfa8aa1c" x="394.164221" y="307.584" style="stroke: #000000; stroke-width: 0.8"/>
      </g>
     </g>
     <g id="text_7">
      <!-- 1.6 -->
      <g transform="translate(383.032034 325.221812) scale(0.14 -0.14)">
       <use xlink:href="#DejaVuSans-31"/>
       <use xlink:href="#DejaVuSans-2e" transform="translate(63.623047 0)"/>
       <use xlink:href="#DejaVuSans-36" transform="translate(95.410156 0)"/>
      </g>
     </g>
    </g>
    <g id="text_8">
     <!-- BJD - 2460000.0 [d] -->
     <g transform="translate(166.942031 342.771187) scale(0.14 -0.14)">
      <defs>
       <path id="DejaVuSans-42" d="M 1259 2228 
L 1259 519 
L 2272 519 
Q 2781 519 3026 730 
Q 3272 941 3272 1375 
Q 3272 1813 3026 2020 
Q 2781 2228 2272 2228 
L 1259 2228 
z
M 1259 4147 
L 1259 2741 
L 2194 2741 
Q 2656 2741 2882 2914 
Q 3109 3088 3109 3444 
Q 3109 3797 2882 3972 
Q 2656 4147 2194 4147 
L 1259 4147 
z
M 628 4666 
L 2241 4666 
Q 2963 4666 3353 4366 
Q 3744 4066 3744 3513 
Q 3744 3084 3544 2831 
Q 3344 2578 2956 2516 
Q 3422 2416 3680 2098 
Q 3938 1781 3938 1306 
Q 3938 681 3513 340 
Q 3088 0 2303 0 
L 628 0 
L 628 4666 
z
" transform="scale(0.015625)"/>
       <path id="DejaVuSans-4a" d="M 628 4666 
L 1259 4666 
L 1259 325 
Q 1259 -519 939 -900 
Q 619 -1281 -91 -1281 
L -331 -1281 
L -331 -750 
L -134 -750 
Q 284 -750 456 -515 
Q 628 -281 628 325 
L 628 4666 
z
" transform="scale(0.015625)"/>
       <path id="DejaVuSans-44" d="M 1259 4147 
L 1259 519 
L 2022 519 
Q 2988 519 3436 956 
Q 3884 1394 3884 2338 
Q 3884 3275 3436 3711 
Q 2988 4147 2022 4147 
L 1259 4147 
z
M 628 4666 
L 1925 4666 
Q 3281 4666 3915 4102 
Q 4550 3538 4550 2338 
Q 4550 1131 3912 565 
Q 3275 0 1925 0 
L 628 0 
L 628 4666 
z
" transform="scale(0.015625)"/>
       <path id="DejaVuSans-20" transform="scale(0.015625)"/>
       <path id="DejaVuSans-2d" d="M 313 2009 
L 1997 2009 
L 1997 1497 
L 313 1497 
L 313 2009 
z
" transform="scale(0.015625)"/>
       <path id="DejaVuSans-5b" d="M 550 4863 
L 1875 4863 
L 1875 4416 
L 1125 4416 
L 1125 -397 
L 1875 -397 
L 1875 -844 
L 550 -844 
L 550 4863 
z
" transform="scale(0.015625)"/>
       <path id="DejaVuSans-64" d="M 2906 2969 
L 2906 4863 
L 3481 4863 
L 3481 0 
L 2906 0 
L 2906 525 
Q 2725 213 2448 61 
Q 2172 -91 1784 -91 
Q 1150 -91 751 415 
Q 353 922 353 1747 
Q 353 2572 751 3078 
Q 1150 3584 1784 3584 
Q 2172 3584 2448 3432 
Q 2725 3281 2906 2969 
z
M 947 1747 
Q 947 1113 1208 752 
Q 1469 391 1925 391 
Q 2381 391 2643 752 
Q 2906 1113 2906 1747 
Q 2906 2381 2643 2742 
Q 2381 3103 1925 3103 
Q 1469 3103 1208 2742 
Q 947 2381 947 1747 
z
" transform="scale(0.015625)"/>
       <path id="DejaVuSans-5d" d="M 1947 4863 
L 1947 -844 
L 622 -844 
L 622 -397 
L 1369 -397 
L 1369 4416 
L 622 4416 
L 622 4863 
L 1947 4863 
z
" transform="scale(0.015625)"/>
      </defs>
      <use xlink:href="#DejaVuSans-42"/>
      <use xlink:href="#DejaVuSans-4a" transform="translate(68.603516 0)"/>
      <use xlink:href="#DejaVuSans-44" transform="translate(98.095703 0)"/>
      <use xlink:href="#DejaVuSans-20" transform="translate(175.097656 0)"/>
      <use xlink:href="#DejaVuSans-2d" transform="translate(206.884766 0)"/>
      <use xlink:href="#DejaVuSans-20" transform="translate(242.96875 0)"/>
      <use xlink:href="#DejaVuSans-32" transform="translate(274.755859 0)"/>
      <use xlink:href="#DejaVuSans-34" transform="translate(338.378906 0)"/>
      <use xlink:href="#DejaVuSans-36" transform="translate(402.001953 0)"/>
      <use xlink:href="#DejaVuSans-30" transform="translate(465.625 0)"/>
      <use xlink:href="#DejaVuSans-30" transform="translate(529.248047 0)"/>
      <use xlink:href="#DejaVuSans-30" transform="translate(592.871094 0)"/>
      <use xlink:href="#DejaVuSans-30" transform="translate(656.494141 0)"/>
      <use xlink:href="#DejaVuSans-2e" transform="translate(720.117188 0)"/>
      <use xlink:href="#DejaVuSans-30" transform="translate(751.904297 0)"/>
      <use xlink:href="#DejaVuSans-20" transform="translate(815.527344 0)"/>
      <use xlink:href="#DejaVuSans-5b" transform="translate(847.314453 0)"/>
      <use xlink:href="#DejaVuSans-64" transform="translate(886.328125 0)"/>
      <use xlink:href="#DejaVuSans-5d" transform="translate(949.804688 0)"/>
     </g>
    </g>
   </g>
   <g id="matplotlib.axis_2">
    <g id="ytick_1">
     <g id="line2d_8">
      <defs>
       <path id="m957b8ced3d" d="M 0 0 
L -3.5 0 
" style="stroke: #000000; stroke-width: 0.8"/>
      </defs>
      <g>
       <use xlink:href="#m957b8ced3d" x="57.6" y="277.968305" style="stroke: #000000; stroke-width: 0.8"/>
      </g>
     </g>
     <g id="text_9">
      <!-- −0.0004 -->
      <g transform="translate(-10.118438 283.287211) scale(0.14 -0.14)">
       <defs>
        <path id="DejaVuSans-2212" d="M 678 2272 
L 4684 2272 
L 4684 1741 
L 678 1741 
L 678 2272 
z
" transform="scale(0.015625)"/>
       </defs>
       <use xlink:href="#DejaVuSans-2212"/>
       <use xlink:href="#DejaVuSans-30" transform="translate(83.789062 0)"/>
       <use xlink:href="#DejaVuSans-2e" transform="translate(147.412109 0)"/>
       <use xlink:href="#DejaVuSans-30" transform="translate(179.199219 0)"/>
       <use xlink:href="#DejaVuSans-30" transform="translate(242.822266 0)"/>
       <use xlink:href="#DejaVuSans-30" transform="translate(306.445312 0)"/>
       <use xlink:href="#DejaVuSans-34" transform="translate(370.068359 0)"/>
      </g>
     </g>
    </g>
    <g id="ytick_2">
     <g id="line2d_9">
      <g>
       <use xlink:href="#m957b8ced3d" x="57.6" y="245.804538" style="stroke: #000000; stroke-width: 0.8"/>
      </g>
     </g>
     <g id="text_10">
      <!-- −0.0003 -->
      <g transform="translate(-10.118438 251.123445) scale(0.14 -0.14)">
       <defs>
        <path id="DejaVuSans-33" d="M 2597 2516 
Q 3050 2419 3304 2112 
Q 3559 1806 3559 1356 
Q 3559 666 3084 287 
Q 2609 -91 1734 -91 
Q 1441 -91 1130 -33 
Q 819 25 488 141 
L 488 750 
Q 750 597 1062 519 
Q 1375 441 1716 441 
Q 2309 441 2620 675 
Q 2931 909 2931 1356 
Q 2931 1769 2642 2001 
Q 2353 2234 1838 2234 
L 1294 2234 
L 1294 2753 
L 1863 2753 
Q 2328 2753 2575 2939 
Q 2822 3125 2822 3475 
Q 2822 3834 2567 4026 
Q 2313 4219 1838 4219 
Q 1578 4219 1281 4162 
Q 984 4106 628 3988 
L 628 4550 
Q 988 4650 1302 4700 
Q 1616 4750 1894 4750 
Q 2613 4750 3031 4423 
Q 3450 4097 3450 3541 
Q 3450 3153 3228 2886 
Q 3006 2619 2597 2516 
z
" transform="scale(0.015625)"/>
       </defs>
       <use xlink:href="#DejaVuSans-2212"/>
       <use xlink:href="#DejaVuSans-30" transform="translate(83.789062 0)"/>
       <use xlink:href="#DejaVuSans-2e" transform="translate(147.412109 0)"/>
       <use xlink:href="#DejaVuSans-30" transform="translate(179.199219 0)"/>
       <use xlink:href="#DejaVuSans-30" transform="translate(242.822266 0)"/>
       <use xlink:href="#DejaVuSans-30" transform="translate(306.445312 0)"/>
       <use xlink:href="#DejaVuSans-33" transform="translate(370.068359 0)"/>
      </g>
     </g>
    </g>
    <g id="ytick_3">
     <g id="line2d_10">
      <g>
       <use xlink:href="#m957b8ced3d" x="57.6" y="213.640772" style="stroke: #000000; stroke-width: 0.8"/>
      </g>
     </g>
     <g id="text_11">
      <!-- −0.0002 -->
      <g transform="translate(-10.118438 218.959678) scale(0.14 -0.14)">
       <use xlink:href="#DejaVuSans-2212"/>
       <use xlink:href="#DejaVuSans-30" transform="translate(83.789062 0)"/>
       <use xlink:href="#DejaVuSans-2e" transform="translate(147.412109 0)"/>
       <use xlink:href="#DejaVuSans-30" transform="translate(179.199219 0)"/>
       <use xlink:href="#DejaVuSans-30" transform="translate(242.822266 0)"/>
       <use xlink:href="#DejaVuSans-30" transform="translate(306.445312 0)"/>
       <use xlink:href="#DejaVuSans-32" transform="translate(370.068359 0)"/>
      </g>
     </g>
    </g>
    <g id="ytick_4">
     <g id="line2d_11">
      <g>
       <use xlink:href="#m957b8ced3d" x="57.6" y="181.477006" style="stroke: #000000; stroke-width: 0.8"/>
      </g>
     </g>
     <g id="text_12">
      <!-- −0.0001 -->
      <g transform="translate(-10.118438 186.795912) scale(0.14 -0.14)">
       <use xlink:href="#DejaVuSans-2212"/>
       <use xlink:href="#DejaVuSans-30" transform="translate(83.789062 0)"/>
       <use xlink:href="#DejaVuSans-2e" transform="translate(147.412109 0)"/>
       <use xlink:href="#DejaVuSans-30" transform="translate(179.199219 0)"/>
       <use xlink:href="#DejaVuSans-30" transform="translate(242.822266 0)"/>
       <use xlink:href="#DejaVuSans-30" transform="translate(306.445312 0)"/>
       <use xlink:href="#DejaVuSans-31" transform="translate(370.068359 0)"/>
      </g>
     </g>
    </g>
    <g id="ytick_5">
     <g id="line2d_12">
      <g>
       <use xlink:href="#m957b8ced3d" x="57.6" y="149.31324" style="stroke: #000000; stroke-width: 0.8"/>
      </g>
     </g>
     <g id="text_13">
      <!-- 0.0000 -->
      <g transform="translate(1.613125 154.632146) scale(0.14 -0.14)">
       <use xlink:href="#DejaVuSans-30"/>
       <use xlink:href="#DejaVuSans-2e" transform="translate(63.623047 0)"/>
       <use xlink:href="#DejaVuSans-30" transform="translate(95.410156 0)"/>
       <use xlink:href="#DejaVuSans-30" transform="translate(159.033203 0)"/>
       <use xlink:href="#DejaVuSans-30" transform="translate(222.65625 0)"/>
       <use xlink:href="#DejaVuSans-30" transform="translate(286.279297 0)"/>
      </g>
     </g>
    </g>
    <g id="ytick_6">
     <g id="line2d_13">
      <g>
       <use xlink:href="#m957b8ced3d" x="57.6" y="117.149474" style="stroke: #000000; stroke-width: 0.8"/>
      </g>
     </g>
     <g id="text_14">
      <!-- 0.0001 -->
      <g transform="translate(1.613125 122.46838) scale(0.14 -0.14)">
       <use xlink:href="#DejaVuSans-30"/>
       <use xlink:href="#DejaVuSans-2e" transform="translate(63.623047 0)"/>
       <use xlink:href="#DejaVuSans-30" transform="translate(95.410156 0)"/>
       <use xlink:href="#DejaVuSans-30" transform="translate(159.033203 0)"/>
       <use xlink:href="#DejaVuSans-30" transform="translate(222.65625 0)"/>
       <use xlink:href="#DejaVuSans-31" transform="translate(286.279297 0)"/>
      </g>
     </g>
    </g>
    <g id="ytick_7">
     <g id="line2d_14">
      <g>
       <use xlink:href="#m957b8ced3d" x="57.6" y="84.985708" style="stroke: #000000; stroke-width: 0.8"/>
      </g>
     </g>
     <g id="text_15">
      <!-- 0.0002 -->
      <g transform="translate(1.613125 90.304614) scale(0.14 -0.14)">
       <use xlink:href="#DejaVuSans-30"/>
       <use xlink:href="#DejaVuSans-2e" transform="translate(63.623047 0)"/>
       <use xlink:href="#DejaVuSans-30" transform="translate(95.410156 0)"/>
       <use xlink:href="#DejaVuSans-30" transform="translate(159.033203 0)"/>
       <use xlink:href="#DejaVuSans-30" transform="translate(222.65625 0)"/>
       <use xlink:href="#DejaVuSans-32" transform="translate(286.279297 0)"/>
      </g>
     </g>
    </g>
    <g id="ytick_8">
     <g id="line2d_15">
      <g>
       <use xlink:href="#m957b8ced3d" x="57.6" y="52.821941" style="stroke: #000000; stroke-width: 0.8"/>
      </g>
     </g>
     <g id="text_16">
      <!-- 0.0003 -->
      <g transform="translate(1.613125 58.140848) scale(0.14 -0.14)">
       <use xlink:href="#DejaVuSans-30"/>
       <use xlink:href="#DejaVuSans-2e" transform="translate(63.623047 0)"/>
       <use xlink:href="#DejaVuSans-30" transform="translate(95.410156 0)"/>
       <use xlink:href="#DejaVuSans-30" transform="translate(159.033203 0)"/>
       <use xlink:href="#DejaVuSans-30" transform="translate(222.65625 0)"/>
       <use xlink:href="#DejaVuSans-33" transform="translate(286.279297 0)"/>
      </g>
     </g>
    </g>
    <g id="text_17">
     <!-- $(F_p + F_{\bigstar})/F_{\bigstar}$ -->
     <g transform="translate(-18.458438 215.548) rotate(-90) scale(0.14 -0.14)">
      <defs>
       <path id="DejaVuSans-28" d="M 1984 4856 
Q 1566 4138 1362 3434 
Q 1159 2731 1159 2009 
Q 1159 1288 1364 580 
Q 1569 -128 1984 -844 
L 1484 -844 
Q 1016 -109 783 600 
Q 550 1309 550 2009 
Q 550 2706 781 3412 
Q 1013 4119 1484 4856 
L 1984 4856 
z
" transform="scale(0.015625)"/>
       <path id="DejaVuSans-Oblique-46" d="M 1081 4666 
L 3756 4666 
L 3653 4134 
L 1606 4134 
L 1338 2759 
L 3188 2759 
L 3084 2228 
L 1234 2228 
L 800 0 
L 172 0 
L 1081 4666 
z
" transform="scale(0.015625)"/>
       <path id="DejaVuSans-Oblique-70" d="M 3175 2156 
Q 3175 2616 2975 2859 
Q 2775 3103 2400 3103 
Q 2144 3103 1911 2972 
Q 1678 2841 1497 2591 
Q 1319 2344 1212 1994 
Q 1106 1644 1106 1300 
Q 1106 863 1306 627 
Q 1506 391 1875 391 
Q 2147 391 2380 519 
Q 2613 647 2778 891 
Q 2956 1147 3065 1494 
Q 3175 1841 3175 2156 
z
M 1394 2969 
Q 1625 3272 1939 3428 
Q 2253 3584 2638 3584 
Q 3175 3584 3472 3232 
Q 3769 2881 3769 2247 
Q 3769 1728 3584 1258 
Q 3400 788 3053 416 
Q 2822 169 2531 39 
Q 2241 -91 1919 -91 
Q 1547 -91 1294 64 
Q 1041 219 916 525 
L 556 -1331 
L -19 -1331 
L 922 3500 
L 1497 3500 
L 1394 2969 
z
" transform="scale(0.015625)"/>
       <path id="DejaVuSans-2b" d="M 2944 4013 
L 2944 2272 
L 4684 2272 
L 4684 1741 
L 2944 1741 
L 2944 0 
L 2419 0 
L 2419 1741 
L 678 1741 
L 678 2272 
L 2419 2272 
L 2419 4013 
L 2944 4013 
z
" transform="scale(0.015625)"/>
       <path id="DejaVuSans-2605" d="M 416 2850 
L 2288 2850 
L 2869 4628 
L 3453 2850 
L 5322 2850 
L 3809 1747 
L 4391 -28 
L 2869 1072 
L 1350 -28 
L 1928 1747 
L 416 2850 
z
" transform="scale(0.015625)"/>
       <path id="DejaVuSans-29" d="M 513 4856 
L 1013 4856 
Q 1481 4119 1714 3412 
Q 1947 2706 1947 2009 
Q 1947 1309 1714 600 
Q 1481 -109 1013 -844 
L 513 -844 
Q 928 -128 1133 580 
Q 1338 1288 1338 2009 
Q 1338 2731 1133 3434 
Q 928 4138 513 4856 
z
" transform="scale(0.015625)"/>
       <path id="DejaVuSans-2f" d="M 1625 4666 
L 2156 4666 
L 531 -594 
L 0 -594 
L 1625 4666 
z
" transform="scale(0.015625)"/>
      </defs>
      <use xlink:href="#DejaVuSans-28" transform="translate(0 0.125)"/>
      <use xlink:href="#DejaVuSans-Oblique-46" transform="translate(39.013672 0.125)"/>
      <use xlink:href="#DejaVuSans-Oblique-70" transform="translate(96.533203 -16.28125) scale(0.7)"/>
      <use xlink:href="#DejaVuSans-2b" transform="translate(163.183594 0.125)"/>
      <use xlink:href="#DejaVuSans-Oblique-46" transform="translate(266.455078 0.125)"/>
      <use xlink:href="#DejaVuSans-2605" transform="translate(323.974609 -16.28125) scale(0.7)"/>
      <use xlink:href="#DejaVuSans-29" transform="translate(389.462891 0.125)"/>
      <use xlink:href="#DejaVuSans-2f" transform="translate(428.476562 0.125)"/>
      <use xlink:href="#DejaVuSans-Oblique-46" transform="translate(462.167969 0.125)"/>
      <use xlink:href="#DejaVuSans-2605" transform="translate(519.6875 -16.28125) scale(0.7)"/>
     </g>
    </g>
    <g id="text_18">
     <!-- +1 -->
     <g transform="translate(57.6 38.472) scale(0.14 -0.14)">
      <use xlink:href="#DejaVuSans-2b"/>
      <use xlink:href="#DejaVuSans-31" transform="translate(83.789062 0)"/>
     </g>
    </g>
   </g>
   <g id="patch_3">
    <path d="M 57.6 307.584 
L 57.6 41.472 
" style="fill: none; stroke: #000000; stroke-width: 0.8; stroke-linejoin: miter; stroke-linecap: square"/>
   </g>
   <g id="patch_4">
    <path d="M 414.72 307.584 
L 414.72 41.472 
" style="fill: none; stroke: #000000; stroke-width: 0.8; stroke-linejoin: miter; stroke-linecap: square"/>
   </g>
   <g id="patch_5">
    <path d="M 57.6 307.584 
L 414.72 307.584 
" style="fill: none; stroke: #000000; stroke-width: 0.8; stroke-linejoin: miter; stroke-linecap: square"/>
   </g>
   <g id="patch_6">
    <path d="M 57.6 41.472 
L 414.72 41.472 
" style="fill: none; stroke: #000000; stroke-width: 0.8; stroke-linejoin: miter; stroke-linecap: square"/>
   </g>
   <g id="LineCollection_1">
    <path d="M 75.167143 191.506584 
L 75.167143 132.540479 
" clip-path="url(#pc92ab9f0bc)" style="fill: none; stroke: #ff8000; stroke-width: 1.5"/>
    <path d="M 77.837922 166.060998 
L 77.837922 107.051868 
" clip-path="url(#pc92ab9f0bc)" style="fill: none; stroke: #ff8000; stroke-width: 1.5"/>
    <path d="M 80.506753 151.327081 
L 80.506753 92.317951 
" clip-path="url(#pc92ab9f0bc)" style="fill: none; stroke: #ff8000; stroke-width: 1.5"/>
    <path d="M 83.175584 182.4193 
L 83.175584 123.41017 
" clip-path="url(#pc92ab9f0bc)" style="fill: none; stroke: #ff8000; stroke-width: 1.5"/>
    <path d="M 85.844416 141.297556 
L 85.844416 82.288426 
" clip-path="url(#pc92ab9f0bc)" style="fill: none; stroke: #ff8000; stroke-width: 1.5"/>
    <path d="M 88.513247 131.110569 
L 88.513247 72.101439 
" clip-path="url(#pc92ab9f0bc)" style="fill: none; stroke: #ff8000; stroke-width: 1.5"/>
    <path d="M 91.182078 207.573784 
L 91.182078 148.564653 
" clip-path="url(#pc92ab9f0bc)" style="fill: none; stroke: #ff8000; stroke-width: 1.5"/>
    <path d="M 93.850909 231.716889 
L 93.850909 172.707759 
" clip-path="url(#pc92ab9f0bc)" style="fill: none; stroke: #ff8000; stroke-width: 1.5"/>
    <path d="M 96.51974 169.887776 
L 96.51974 110.878646 
" clip-path="url(#pc92ab9f0bc)" style="fill: none; stroke: #ff8000; stroke-width: 1.5"/>
    <path d="M 99.188571 157.717908 
L 99.188571 98.708777 
" clip-path="url(#pc92ab9f0bc)" style="fill: none; stroke: #ff8000; stroke-width: 1.5"/>
    <path d="M 101.857403 212.083252 
L 101.857403 153.074122 
" clip-path="url(#pc92ab9f0bc)" style="fill: none; stroke: #ff8000; stroke-width: 1.5"/>
    <path d="M 104.526234 192.901386 
L 104.526234 133.892256 
" clip-path="url(#pc92ab9f0bc)" style="fill: none; stroke: #ff8000; stroke-width: 1.5"/>
    <path d="M 107.195065 162.318743 
L 107.195065 103.309612 
" clip-path="url(#pc92ab9f0bc)" style="fill: none; stroke: #ff8000; stroke-width: 1.5"/>
    <path d="M 109.863896 230.071356 
L 109.863896 171.062226 
" clip-path="url(#pc92ab9f0bc)" style="fill: none; stroke: #ff8000; stroke-width: 1.5"/>
    <path d="M 112.534675 186.779967 
L 112.534675 127.813862 
" clip-path="url(#pc92ab9f0bc)" style="fill: none; stroke: #ff8000; stroke-width: 1.5"/>
    <path d="M 115.205455 182.658659 
L 115.205455 123.649529 
" clip-path="url(#pc92ab9f0bc)" style="fill: none; stroke: #ff8000; stroke-width: 1.5"/>
    <path d="M 117.874286 112.57713 
L 117.874286 53.568 
" clip-path="url(#pc92ab9f0bc)" style="fill: none; stroke: #ff8000; stroke-width: 1.5"/>
    <path d="M 120.543117 180.408288 
L 120.543117 121.399158 
" clip-path="url(#pc92ab9f0bc)" style="fill: none; stroke: #ff8000; stroke-width: 1.5"/>
    <path d="M 123.211948 116.553705 
L 123.211948 57.544574 
" clip-path="url(#pc92ab9f0bc)" style="fill: none; stroke: #ff8000; stroke-width: 1.5"/>
    <path d="M 125.880779 156.457255 
L 125.880779 97.448125 
" clip-path="url(#pc92ab9f0bc)" style="fill: none; stroke: #ff8000; stroke-width: 1.5"/>
    <path d="M 128.54961 151.883064 
L 128.54961 92.873933 
" clip-path="url(#pc92ab9f0bc)" style="fill: none; stroke: #ff8000; stroke-width: 1.5"/>
    <path d="M 131.218442 181.340764 
L 131.218442 122.331634 
" clip-path="url(#pc92ab9f0bc)" style="fill: none; stroke: #ff8000; stroke-width: 1.5"/>
    <path d="M 133.887273 165.667197 
L 133.887273 106.658067 
" clip-path="url(#pc92ab9f0bc)" style="fill: none; stroke: #ff8000; stroke-width: 1.5"/>
    <path d="M 136.556104 157.675964 
L 136.556104 98.666834 
" clip-path="url(#pc92ab9f0bc)" style="fill: none; stroke: #ff8000; stroke-width: 1.5"/>
    <path d="M 139.224935 198.716762 
L 139.224935 139.707632 
" clip-path="url(#pc92ab9f0bc)" style="fill: none; stroke: #ff8000; stroke-width: 1.5"/>
    <path d="M 141.893766 145.103525 
L 141.893766 86.094394 
" clip-path="url(#pc92ab9f0bc)" style="fill: none; stroke: #ff8000; stroke-width: 1.5"/>
    <path d="M 144.562597 225.775609 
L 144.562597 166.766479 
" clip-path="url(#pc92ab9f0bc)" style="fill: none; stroke: #ff8000; stroke-width: 1.5"/>
    <path d="M 147.231429 203.816996 
L 147.231429 144.807866 
" clip-path="url(#pc92ab9f0bc)" style="fill: none; stroke: #ff8000; stroke-width: 1.5"/>
    <path d="M 149.90026 152.924132 
L 149.90026 93.915002 
" clip-path="url(#pc92ab9f0bc)" style="fill: none; stroke: #ff8000; stroke-width: 1.5"/>
    <path d="M 152.571039 248.187157 
L 152.571039 189.221052 
" clip-path="url(#pc92ab9f0bc)" style="fill: none; stroke: #ff8000; stroke-width: 1.5"/>
    <path d="M 155.241818 152.388324 
L 155.241818 93.379194 
" clip-path="url(#pc92ab9f0bc)" style="fill: none; stroke: #ff8000; stroke-width: 1.5"/>
    <path d="M 157.910649 198.250198 
L 157.910649 139.241068 
" clip-path="url(#pc92ab9f0bc)" style="fill: none; stroke: #ff8000; stroke-width: 1.5"/>
    <path d="M 160.579481 187.862874 
L 160.579481 128.853743 
" clip-path="url(#pc92ab9f0bc)" style="fill: none; stroke: #ff8000; stroke-width: 1.5"/>
    <path d="M 163.248312 169.143064 
L 163.248312 110.133933 
" clip-path="url(#pc92ab9f0bc)" style="fill: none; stroke: #ff8000; stroke-width: 1.5"/>
    <path d="M 165.917143 221.366651 
L 165.917143 162.35752 
" clip-path="url(#pc92ab9f0bc)" style="fill: none; stroke: #ff8000; stroke-width: 1.5"/>
    <path d="M 168.585974 199.479662 
L 168.585974 140.470532 
" clip-path="url(#pc92ab9f0bc)" style="fill: none; stroke: #ff8000; stroke-width: 1.5"/>
    <path d="M 171.254805 185.519614 
L 171.254805 126.510484 
" clip-path="url(#pc92ab9f0bc)" style="fill: none; stroke: #ff8000; stroke-width: 1.5"/>
    <path d="M 173.923636 116.953887 
L 173.923636 57.944757 
" clip-path="url(#pc92ab9f0bc)" style="fill: none; stroke: #ff8000; stroke-width: 1.5"/>
    <path d="M 176.592468 216.795626 
L 176.592468 157.786495 
" clip-path="url(#pc92ab9f0bc)" style="fill: none; stroke: #ff8000; stroke-width: 1.5"/>
    <path d="M 179.261299 215.131269 
L 179.261299 156.122139 
" clip-path="url(#pc92ab9f0bc)" style="fill: none; stroke: #ff8000; stroke-width: 1.5"/>
    <path d="M 181.93013 154.324812 
L 181.93013 95.315682 
" clip-path="url(#pc92ab9f0bc)" style="fill: none; stroke: #ff8000; stroke-width: 1.5"/>
    <path d="M 184.598961 169.022706 
L 184.598961 110.013576 
" clip-path="url(#pc92ab9f0bc)" style="fill: none; stroke: #ff8000; stroke-width: 1.5"/>
    <path d="M 187.267792 145.080577 
L 187.267792 86.071446 
" clip-path="url(#pc92ab9f0bc)" style="fill: none; stroke: #ff8000; stroke-width: 1.5"/>
    <path d="M 189.938571 153.830114 
L 189.938571 94.864009 
" clip-path="url(#pc92ab9f0bc)" style="fill: none; stroke: #ff8000; stroke-width: 1.5"/>
    <path d="M 192.609351 154.96926 
L 192.609351 95.96013 
" clip-path="url(#pc92ab9f0bc)" style="fill: none; stroke: #ff8000; stroke-width: 1.5"/>
    <path d="M 195.278182 118.179446 
L 195.278182 59.170316 
" clip-path="url(#pc92ab9f0bc)" style="fill: none; stroke: #ff8000; stroke-width: 1.5"/>
    <path d="M 197.947013 167.699179 
L 197.947013 108.690048 
" clip-path="url(#pc92ab9f0bc)" style="fill: none; stroke: #ff8000; stroke-width: 1.5"/>
    <path d="M 200.615844 134.018355 
L 200.615844 75.009225 
" clip-path="url(#pc92ab9f0bc)" style="fill: none; stroke: #ff8000; stroke-width: 1.5"/>
    <path d="M 203.284675 161.885752 
L 203.284675 102.876622 
" clip-path="url(#pc92ab9f0bc)" style="fill: none; stroke: #ff8000; stroke-width: 1.5"/>
    <path d="M 205.953506 173.820412 
L 205.953506 114.811282 
" clip-path="url(#pc92ab9f0bc)" style="fill: none; stroke: #ff8000; stroke-width: 1.5"/>
    <path d="M 208.622338 204.851619 
L 208.622338 145.842489 
" clip-path="url(#pc92ab9f0bc)" style="fill: none; stroke: #ff8000; stroke-width: 1.5"/>
    <path d="M 211.291169 179.284128 
L 211.291169 120.274998 
" clip-path="url(#pc92ab9f0bc)" style="fill: none; stroke: #ff8000; stroke-width: 1.5"/>
    <path d="M 213.96 171.513635 
L 213.96 112.504505 
" clip-path="url(#pc92ab9f0bc)" style="fill: none; stroke: #ff8000; stroke-width: 1.5"/>
    <path d="M 216.628831 231.812514 
L 216.628831 172.803384 
" clip-path="url(#pc92ab9f0bc)" style="fill: none; stroke: #ff8000; stroke-width: 1.5"/>
    <path d="M 219.297662 163.075617 
L 219.297662 104.066487 
" clip-path="url(#pc92ab9f0bc)" style="fill: none; stroke: #ff8000; stroke-width: 1.5"/>
    <path d="M 221.966494 188.670711 
L 221.966494 129.66158 
" clip-path="url(#pc92ab9f0bc)" style="fill: none; stroke: #ff8000; stroke-width: 1.5"/>
    <path d="M 224.635325 205.930775 
L 224.635325 146.921645 
" clip-path="url(#pc92ab9f0bc)" style="fill: none; stroke: #ff8000; stroke-width: 1.5"/>
    <path d="M 227.304156 172.079026 
L 227.304156 113.069895 
" clip-path="url(#pc92ab9f0bc)" style="fill: none; stroke: #ff8000; stroke-width: 1.5"/>
    <path d="M 229.974935 224.123877 
L 229.974935 165.157772 
" clip-path="url(#pc92ab9f0bc)" style="fill: none; stroke: #ff8000; stroke-width: 1.5"/>
    <path d="M 232.645714 247.598254 
L 232.645714 188.589124 
" clip-path="url(#pc92ab9f0bc)" style="fill: none; stroke: #ff8000; stroke-width: 1.5"/>
    <path d="M 235.314545 204.970221 
L 235.314545 145.961091 
" clip-path="url(#pc92ab9f0bc)" style="fill: none; stroke: #ff8000; stroke-width: 1.5"/>
    <path d="M 237.983377 295.488 
L 237.983377 236.47887 
" clip-path="url(#pc92ab9f0bc)" style="fill: none; stroke: #ff8000; stroke-width: 1.5"/>
    <path d="M 240.652208 258.620577 
L 240.652208 199.611447 
" clip-path="url(#pc92ab9f0bc)" style="fill: none; stroke: #ff8000; stroke-width: 1.5"/>
    <path d="M 243.321039 234.381241 
L 243.321039 175.372111 
" clip-path="url(#pc92ab9f0bc)" style="fill: none; stroke: #ff8000; stroke-width: 1.5"/>
    <path d="M 245.98987 191.382753 
L 245.98987 132.373623 
" clip-path="url(#pc92ab9f0bc)" style="fill: none; stroke: #ff8000; stroke-width: 1.5"/>
    <path d="M 248.658701 224.082264 
L 248.658701 165.073133 
" clip-path="url(#pc92ab9f0bc)" style="fill: none; stroke: #ff8000; stroke-width: 1.5"/>
    <path d="M 251.327532 162.418544 
L 251.327532 103.409414 
" clip-path="url(#pc92ab9f0bc)" style="fill: none; stroke: #ff8000; stroke-width: 1.5"/>
    <path d="M 253.996364 176.855116 
L 253.996364 117.845986 
" clip-path="url(#pc92ab9f0bc)" style="fill: none; stroke: #ff8000; stroke-width: 1.5"/>
    <path d="M 256.665195 172.973773 
L 256.665195 113.964643 
" clip-path="url(#pc92ab9f0bc)" style="fill: none; stroke: #ff8000; stroke-width: 1.5"/>
    <path d="M 259.334026 155.428711 
L 259.334026 96.41958 
" clip-path="url(#pc92ab9f0bc)" style="fill: none; stroke: #ff8000; stroke-width: 1.5"/>
    <path d="M 262.002857 195.63924 
L 262.002857 136.630109 
" clip-path="url(#pc92ab9f0bc)" style="fill: none; stroke: #ff8000; stroke-width: 1.5"/>
    <path d="M 264.671688 155.665617 
L 264.671688 96.656487 
" clip-path="url(#pc92ab9f0bc)" style="fill: none; stroke: #ff8000; stroke-width: 1.5"/>
    <path d="M 267.340519 171.404928 
L 267.340519 112.395797 
" clip-path="url(#pc92ab9f0bc)" style="fill: none; stroke: #ff8000; stroke-width: 1.5"/>
    <path d="M 270.011299 160.741929 
L 270.011299 101.775824 
" clip-path="url(#pc92ab9f0bc)" style="fill: none; stroke: #ff8000; stroke-width: 1.5"/>
    <path d="M 272.682078 162.814619 
L 272.682078 103.805489 
" clip-path="url(#pc92ab9f0bc)" style="fill: none; stroke: #ff8000; stroke-width: 1.5"/>
    <path d="M 275.350909 178.525713 
L 275.350909 119.516583 
" clip-path="url(#pc92ab9f0bc)" style="fill: none; stroke: #ff8000; stroke-width: 1.5"/>
    <path d="M 278.01974 193.682971 
L 278.01974 134.673841 
" clip-path="url(#pc92ab9f0bc)" style="fill: none; stroke: #ff8000; stroke-width: 1.5"/>
    <path d="M 280.688571 152.510947 
L 280.688571 93.501817 
" clip-path="url(#pc92ab9f0bc)" style="fill: none; stroke: #ff8000; stroke-width: 1.5"/>
    <path d="M 283.357403 162.373485 
L 283.357403 103.364354 
" clip-path="url(#pc92ab9f0bc)" style="fill: none; stroke: #ff8000; stroke-width: 1.5"/>
    <path d="M 286.026234 115.107013 
L 286.026234 56.097883 
" clip-path="url(#pc92ab9f0bc)" style="fill: none; stroke: #ff8000; stroke-width: 1.5"/>
    <path d="M 288.695065 196.479832 
L 288.695065 137.470702 
" clip-path="url(#pc92ab9f0bc)" style="fill: none; stroke: #ff8000; stroke-width: 1.5"/>
    <path d="M 291.363896 198.472352 
L 291.363896 139.463222 
" clip-path="url(#pc92ab9f0bc)" style="fill: none; stroke: #ff8000; stroke-width: 1.5"/>
    <path d="M 294.032727 189.492609 
L 294.032727 130.483479 
" clip-path="url(#pc92ab9f0bc)" style="fill: none; stroke: #ff8000; stroke-width: 1.5"/>
    <path d="M 296.701558 198.983196 
L 296.701558 139.974066 
" clip-path="url(#pc92ab9f0bc)" style="fill: none; stroke: #ff8000; stroke-width: 1.5"/>
    <path d="M 299.37039 144.276604 
L 299.37039 85.267473 
" clip-path="url(#pc92ab9f0bc)" style="fill: none; stroke: #ff8000; stroke-width: 1.5"/>
    <path d="M 302.039221 142.278356 
L 302.039221 83.269225 
" clip-path="url(#pc92ab9f0bc)" style="fill: none; stroke: #ff8000; stroke-width: 1.5"/>
    <path d="M 304.708052 188.651445 
L 304.708052 129.642315 
" clip-path="url(#pc92ab9f0bc)" style="fill: none; stroke: #ff8000; stroke-width: 1.5"/>
    <path d="M 307.378831 195.945514 
L 307.378831 136.979409 
" clip-path="url(#pc92ab9f0bc)" style="fill: none; stroke: #ff8000; stroke-width: 1.5"/>
    <path d="M 310.04961 169.189117 
L 310.04961 110.179987 
" clip-path="url(#pc92ab9f0bc)" style="fill: none; stroke: #ff8000; stroke-width: 1.5"/>
    <path d="M 312.718442 143.313018 
L 312.718442 84.303887 
" clip-path="url(#pc92ab9f0bc)" style="fill: none; stroke: #ff8000; stroke-width: 1.5"/>
    <path d="M 315.387273 166.461293 
L 315.387273 107.452163 
" clip-path="url(#pc92ab9f0bc)" style="fill: none; stroke: #ff8000; stroke-width: 1.5"/>
    <path d="M 318.056104 188.61057 
L 318.056104 129.60144 
" clip-path="url(#pc92ab9f0bc)" style="fill: none; stroke: #ff8000; stroke-width: 1.5"/>
    <path d="M 320.724935 169.519692 
L 320.724935 110.510562 
" clip-path="url(#pc92ab9f0bc)" style="fill: none; stroke: #ff8000; stroke-width: 1.5"/>
    <path d="M 323.393766 212.542865 
L 323.393766 153.533734 
" clip-path="url(#pc92ab9f0bc)" style="fill: none; stroke: #ff8000; stroke-width: 1.5"/>
    <path d="M 326.062597 271.020958 
L 326.062597 212.011828 
" clip-path="url(#pc92ab9f0bc)" style="fill: none; stroke: #ff8000; stroke-width: 1.5"/>
    <path d="M 328.731429 205.729012 
L 328.731429 146.719882 
" clip-path="url(#pc92ab9f0bc)" style="fill: none; stroke: #ff8000; stroke-width: 1.5"/>
    <path d="M 331.40026 187.032407 
L 331.40026 128.023276 
" clip-path="url(#pc92ab9f0bc)" style="fill: none; stroke: #ff8000; stroke-width: 1.5"/>
    <path d="M 334.069091 173.001494 
L 334.069091 113.992364 
" clip-path="url(#pc92ab9f0bc)" style="fill: none; stroke: #ff8000; stroke-width: 1.5"/>
    <path d="M 336.737922 186.623058 
L 336.737922 127.613927 
" clip-path="url(#pc92ab9f0bc)" style="fill: none; stroke: #ff8000; stroke-width: 1.5"/>
    <path d="M 339.406753 199.840348 
L 339.406753 140.831217 
" clip-path="url(#pc92ab9f0bc)" style="fill: none; stroke: #ff8000; stroke-width: 1.5"/>
    <path d="M 342.075584 134.466525 
L 342.075584 75.457395 
" clip-path="url(#pc92ab9f0bc)" style="fill: none; stroke: #ff8000; stroke-width: 1.5"/>
    <path d="M 344.744416 224.587611 
L 344.744416 165.578481 
" clip-path="url(#pc92ab9f0bc)" style="fill: none; stroke: #ff8000; stroke-width: 1.5"/>
    <path d="M 347.415195 204.176898 
L 347.415195 145.210793 
" clip-path="url(#pc92ab9f0bc)" style="fill: none; stroke: #ff8000; stroke-width: 1.5"/>
    <path d="M 350.085974 138.852927 
L 350.085974 79.843796 
" clip-path="url(#pc92ab9f0bc)" style="fill: none; stroke: #ff8000; stroke-width: 1.5"/>
    <path d="M 352.754805 136.764099 
L 352.754805 77.754969 
" clip-path="url(#pc92ab9f0bc)" style="fill: none; stroke: #ff8000; stroke-width: 1.5"/>
    <path d="M 355.423636 171.734929 
L 355.423636 112.725798 
" clip-path="url(#pc92ab9f0bc)" style="fill: none; stroke: #ff8000; stroke-width: 1.5"/>
    <path d="M 358.092468 161.257427 
L 358.092468 102.248296 
" clip-path="url(#pc92ab9f0bc)" style="fill: none; stroke: #ff8000; stroke-width: 1.5"/>
    <path d="M 360.761299 199.055515 
L 360.761299 140.046385 
" clip-path="url(#pc92ab9f0bc)" style="fill: none; stroke: #ff8000; stroke-width: 1.5"/>
    <path d="M 363.43013 183.641721 
L 363.43013 124.63259 
" clip-path="url(#pc92ab9f0bc)" style="fill: none; stroke: #ff8000; stroke-width: 1.5"/>
    <path d="M 366.098961 166.881451 
L 366.098961 107.872321 
" clip-path="url(#pc92ab9f0bc)" style="fill: none; stroke: #ff8000; stroke-width: 1.5"/>
    <path d="M 368.767792 150.304864 
L 368.767792 91.295734 
" clip-path="url(#pc92ab9f0bc)" style="fill: none; stroke: #ff8000; stroke-width: 1.5"/>
    <path d="M 371.436623 167.736513 
L 371.436623 108.727382 
" clip-path="url(#pc92ab9f0bc)" style="fill: none; stroke: #ff8000; stroke-width: 1.5"/>
    <path d="M 374.105455 141.099901 
L 374.105455 82.09077 
" clip-path="url(#pc92ab9f0bc)" style="fill: none; stroke: #ff8000; stroke-width: 1.5"/>
    <path d="M 376.774286 209.212658 
L 376.774286 150.203528 
" clip-path="url(#pc92ab9f0bc)" style="fill: none; stroke: #ff8000; stroke-width: 1.5"/>
    <path d="M 379.443117 171.344175 
L 379.443117 112.335044 
" clip-path="url(#pc92ab9f0bc)" style="fill: none; stroke: #ff8000; stroke-width: 1.5"/>
    <path d="M 382.111948 216.428155 
L 382.111948 157.419025 
" clip-path="url(#pc92ab9f0bc)" style="fill: none; stroke: #ff8000; stroke-width: 1.5"/>
    <path d="M 384.780779 177.049402 
L 384.780779 118.040272 
" clip-path="url(#pc92ab9f0bc)" style="fill: none; stroke: #ff8000; stroke-width: 1.5"/>
    <path d="M 387.451558 195.414646 
L 387.451558 136.448541 
" clip-path="url(#pc92ab9f0bc)" style="fill: none; stroke: #ff8000; stroke-width: 1.5"/>
    <path d="M 390.122338 170.732469 
L 390.122338 111.723339 
" clip-path="url(#pc92ab9f0bc)" style="fill: none; stroke: #ff8000; stroke-width: 1.5"/>
    <path d="M 392.791169 168.964409 
L 392.791169 109.955279 
" clip-path="url(#pc92ab9f0bc)" style="fill: none; stroke: #ff8000; stroke-width: 1.5"/>
    <path d="M 395.46 162.408178 
L 395.46 103.399047 
" clip-path="url(#pc92ab9f0bc)" style="fill: none; stroke: #ff8000; stroke-width: 1.5"/>
    <path d="M 397.641818 170.712222 
L 397.641818 96.663107 
" clip-path="url(#pc92ab9f0bc)" style="fill: none; stroke: #ff8000; stroke-width: 1.5"/>
   </g>
   <g id="text_19">
    <!-- Phase curve at $\lambda$ = 0.95 $\mu$m with FGS2 -->
    <g transform="translate(81.36 35.472) scale(0.16 -0.16)">
     <defs>
      <path id="DejaVuSans-50" d="M 1259 4147 
L 1259 2394 
L 2053 2394 
Q 2494 2394 2734 2622 
Q 2975 2850 2975 3272 
Q 2975 3691 2734 3919 
Q 2494 4147 2053 4147 
L 1259 4147 
z
M 628 4666 
L 2053 4666 
Q 2838 4666 3239 4311 
Q 3641 3956 3641 3272 
Q 3641 2581 3239 2228 
Q 2838 1875 2053 1875 
L 1259 1875 
L 1259 0 
L 628 0 
L 628 4666 
z
" transform="scale(0.015625)"/>
      <path id="DejaVuSans-68" d="M 3513 2113 
L 3513 0 
L 2938 0 
L 2938 2094 
Q 2938 2591 2744 2837 
Q 2550 3084 2163 3084 
Q 1697 3084 1428 2787 
Q 1159 2491 1159 1978 
L 1159 0 
L 581 0 
L 581 4863 
L 1159 4863 
L 1159 2956 
Q 1366 3272 1645 3428 
Q 1925 3584 2291 3584 
Q 2894 3584 3203 3211 
Q 3513 2838 3513 2113 
z
" transform="scale(0.015625)"/>
      <path id="DejaVuSans-61" d="M 2194 1759 
Q 1497 1759 1228 1600 
Q 959 1441 959 1056 
Q 959 750 1161 570 
Q 1363 391 1709 391 
Q 2188 391 2477 730 
Q 2766 1069 2766 1631 
L 2766 1759 
L 2194 1759 
z
M 3341 1997 
L 3341 0 
L 2766 0 
L 2766 531 
Q 2569 213 2275 61 
Q 1981 -91 1556 -91 
Q 1019 -91 701 211 
Q 384 513 384 1019 
Q 384 1609 779 1909 
Q 1175 2209 1959 2209 
L 2766 2209 
L 2766 2266 
Q 2766 2663 2505 2880 
Q 2244 3097 1772 3097 
Q 1472 3097 1187 3025 
Q 903 2953 641 2809 
L 641 3341 
Q 956 3463 1253 3523 
Q 1550 3584 1831 3584 
Q 2591 3584 2966 3190 
Q 3341 2797 3341 1997 
z
" transform="scale(0.015625)"/>
      <path id="DejaVuSans-73" d="M 2834 3397 
L 2834 2853 
Q 2591 2978 2328 3040 
Q 2066 3103 1784 3103 
Q 1356 3103 1142 2972 
Q 928 2841 928 2578 
Q 928 2378 1081 2264 
Q 1234 2150 1697 2047 
L 1894 2003 
Q 2506 1872 2764 1633 
Q 3022 1394 3022 966 
Q 3022 478 2636 193 
Q 2250 -91 1575 -91 
Q 1294 -91 989 -36 
Q 684 19 347 128 
L 347 722 
Q 666 556 975 473 
Q 1284 391 1588 391 
Q 1994 391 2212 530 
Q 2431 669 2431 922 
Q 2431 1156 2273 1281 
Q 2116 1406 1581 1522 
L 1381 1569 
Q 847 1681 609 1914 
Q 372 2147 372 2553 
Q 372 3047 722 3315 
Q 1072 3584 1716 3584 
Q 2034 3584 2315 3537 
Q 2597 3491 2834 3397 
z
" transform="scale(0.015625)"/>
      <path id="DejaVuSans-65" d="M 3597 1894 
L 3597 1613 
L 953 1613 
Q 991 1019 1311 708 
Q 1631 397 2203 397 
Q 2534 397 2845 478 
Q 3156 559 3463 722 
L 3463 178 
Q 3153 47 2828 -22 
Q 2503 -91 2169 -91 
Q 1331 -91 842 396 
Q 353 884 353 1716 
Q 353 2575 817 3079 
Q 1281 3584 2069 3584 
Q 2775 3584 3186 3129 
Q 3597 2675 3597 1894 
z
M 3022 2063 
Q 3016 2534 2758 2815 
Q 2500 3097 2075 3097 
Q 1594 3097 1305 2825 
Q 1016 2553 972 2059 
L 3022 2063 
z
" transform="scale(0.015625)"/>
      <path id="DejaVuSans-63" d="M 3122 3366 
L 3122 2828 
Q 2878 2963 2633 3030 
Q 2388 3097 2138 3097 
Q 1578 3097 1268 2742 
Q 959 2388 959 1747 
Q 959 1106 1268 751 
Q 1578 397 2138 397 
Q 2388 397 2633 464 
Q 2878 531 3122 666 
L 3122 134 
Q 2881 22 2623 -34 
Q 2366 -91 2075 -91 
Q 1284 -91 818 406 
Q 353 903 353 1747 
Q 353 2603 823 3093 
Q 1294 3584 2113 3584 
Q 2378 3584 2631 3529 
Q 2884 3475 3122 3366 
z
" transform="scale(0.015625)"/>
      <path id="DejaVuSans-75" d="M 544 1381 
L 544 3500 
L 1119 3500 
L 1119 1403 
Q 1119 906 1312 657 
Q 1506 409 1894 409 
Q 2359 409 2629 706 
Q 2900 1003 2900 1516 
L 2900 3500 
L 3475 3500 
L 3475 0 
L 2900 0 
L 2900 538 
Q 2691 219 2414 64 
Q 2138 -91 1772 -91 
Q 1169 -91 856 284 
Q 544 659 544 1381 
z
M 1991 3584 
L 1991 3584 
z
" transform="scale(0.015625)"/>
      <path id="DejaVuSans-72" d="M 2631 2963 
Q 2534 3019 2420 3045 
Q 2306 3072 2169 3072 
Q 1681 3072 1420 2755 
Q 1159 2438 1159 1844 
L 1159 0 
L 581 0 
L 581 3500 
L 1159 3500 
L 1159 2956 
Q 1341 3275 1631 3429 
Q 1922 3584 2338 3584 
Q 2397 3584 2469 3576 
Q 2541 3569 2628 3553 
L 2631 2963 
z
" transform="scale(0.015625)"/>
      <path id="DejaVuSans-76" d="M 191 3500 
L 800 3500 
L 1894 563 
L 2988 3500 
L 3597 3500 
L 2284 0 
L 1503 0 
L 191 3500 
z
" transform="scale(0.015625)"/>
      <path id="DejaVuSans-74" d="M 1172 4494 
L 1172 3500 
L 2356 3500 
L 2356 3053 
L 1172 3053 
L 1172 1153 
Q 1172 725 1289 603 
Q 1406 481 1766 481 
L 2356 481 
L 2356 0 
L 1766 0 
Q 1100 0 847 248 
Q 594 497 594 1153 
L 594 3053 
L 172 3053 
L 172 3500 
L 594 3500 
L 594 4494 
L 1172 4494 
z
" transform="scale(0.015625)"/>
      <path id="DejaVuSans-Oblique-3bb" d="M 2350 4316 
L 3125 0 
L 2516 0 
L 2038 2588 
L 328 0 
L -281 0 
L 1903 3356 
L 1794 3975 
Q 1725 4369 1391 4369 
L 1091 4369 
L 1184 4863 
L 1550 4856 
Q 2253 4847 2350 4316 
z
" transform="scale(0.015625)"/>
      <path id="DejaVuSans-3d" d="M 678 2906 
L 4684 2906 
L 4684 2381 
L 678 2381 
L 678 2906 
z
M 678 1631 
L 4684 1631 
L 4684 1100 
L 678 1100 
L 678 1631 
z
" transform="scale(0.015625)"/>
      <path id="DejaVuSans-39" d="M 703 97 
L 703 672 
Q 941 559 1184 500 
Q 1428 441 1663 441 
Q 2288 441 2617 861 
Q 2947 1281 2994 2138 
Q 2813 1869 2534 1725 
Q 2256 1581 1919 1581 
Q 1219 1581 811 2004 
Q 403 2428 403 3163 
Q 403 3881 828 4315 
Q 1253 4750 1959 4750 
Q 2769 4750 3195 4129 
Q 3622 3509 3622 2328 
Q 3622 1225 3098 567 
Q 2575 -91 1691 -91 
Q 1453 -91 1209 -44 
Q 966 3 703 97 
z
M 1959 2075 
Q 2384 2075 2632 2365 
Q 2881 2656 2881 3163 
Q 2881 3666 2632 3958 
Q 2384 4250 1959 4250 
Q 1534 4250 1286 3958 
Q 1038 3666 1038 3163 
Q 1038 2656 1286 2365 
Q 1534 2075 1959 2075 
z
" transform="scale(0.015625)"/>
      <path id="DejaVuSans-35" d="M 691 4666 
L 3169 4666 
L 3169 4134 
L 1269 4134 
L 1269 2991 
Q 1406 3038 1543 3061 
Q 1681 3084 1819 3084 
Q 2600 3084 3056 2656 
Q 3513 2228 3513 1497 
Q 3513 744 3044 326 
Q 2575 -91 1722 -91 
Q 1428 -91 1123 -41 
Q 819 9 494 109 
L 494 744 
Q 775 591 1075 516 
Q 1375 441 1709 441 
Q 2250 441 2565 725 
Q 2881 1009 2881 1497 
Q 2881 1984 2565 2268 
Q 2250 2553 1709 2553 
Q 1456 2553 1204 2497 
Q 953 2441 691 2322 
L 691 4666 
z
" transform="scale(0.015625)"/>
      <path id="DejaVuSans-Oblique-3bc" d="M -84 -1331 
L 856 3500 
L 1434 3500 
L 1009 1322 
Q 997 1256 987 1175 
Q 978 1094 978 1013 
Q 978 722 1161 565 
Q 1344 409 1684 409 
Q 2147 409 2431 671 
Q 2716 934 2816 1459 
L 3213 3500 
L 3788 3500 
L 3266 809 
Q 3253 750 3248 706 
Q 3244 663 3244 628 
Q 3244 531 3283 486 
Q 3322 441 3406 441 
Q 3438 441 3492 456 
Q 3547 472 3647 513 
L 3559 50 
Q 3422 -19 3297 -55 
Q 3172 -91 3053 -91 
Q 2847 -91 2730 40 
Q 2613 172 2613 403 
Q 2438 153 2195 31 
Q 1953 -91 1625 -91 
Q 1334 -91 1117 43 
Q 900 178 831 397 
L 494 -1331 
L -84 -1331 
z
" transform="scale(0.015625)"/>
      <path id="DejaVuSans-6d" d="M 3328 2828 
Q 3544 3216 3844 3400 
Q 4144 3584 4550 3584 
Q 5097 3584 5394 3201 
Q 5691 2819 5691 2113 
L 5691 0 
L 5113 0 
L 5113 2094 
Q 5113 2597 4934 2840 
Q 4756 3084 4391 3084 
Q 3944 3084 3684 2787 
Q 3425 2491 3425 1978 
L 3425 0 
L 2847 0 
L 2847 2094 
Q 2847 2600 2669 2842 
Q 2491 3084 2119 3084 
Q 1678 3084 1418 2786 
Q 1159 2488 1159 1978 
L 1159 0 
L 581 0 
L 581 3500 
L 1159 3500 
L 1159 2956 
Q 1356 3278 1631 3431 
Q 1906 3584 2284 3584 
Q 2666 3584 2933 3390 
Q 3200 3197 3328 2828 
z
" transform="scale(0.015625)"/>
      <path id="DejaVuSans-77" d="M 269 3500 
L 844 3500 
L 1563 769 
L 2278 3500 
L 2956 3500 
L 3675 769 
L 4391 3500 
L 4966 3500 
L 4050 0 
L 3372 0 
L 2619 2869 
L 1863 0 
L 1184 0 
L 269 3500 
z
" transform="scale(0.015625)"/>
      <path id="DejaVuSans-69" d="M 603 3500 
L 1178 3500 
L 1178 0 
L 603 0 
L 603 3500 
z
M 603 4863 
L 1178 4863 
L 1178 4134 
L 603 4134 
L 603 4863 
z
" transform="scale(0.015625)"/>
      <path id="DejaVuSans-46" d="M 628 4666 
L 3309 4666 
L 3309 4134 
L 1259 4134 
L 1259 2759 
L 3109 2759 
L 3109 2228 
L 1259 2228 
L 1259 0 
L 628 0 
L 628 4666 
z
" transform="scale(0.015625)"/>
      <path id="DejaVuSans-47" d="M 3809 666 
L 3809 1919 
L 2778 1919 
L 2778 2438 
L 4434 2438 
L 4434 434 
Q 4069 175 3628 42 
Q 3188 -91 2688 -91 
Q 1594 -91 976 548 
Q 359 1188 359 2328 
Q 359 3472 976 4111 
Q 1594 4750 2688 4750 
Q 3144 4750 3555 4637 
Q 3966 4525 4313 4306 
L 4313 3634 
Q 3963 3931 3569 4081 
Q 3175 4231 2741 4231 
Q 1884 4231 1454 3753 
Q 1025 3275 1025 2328 
Q 1025 1384 1454 906 
Q 1884 428 2741 428 
Q 3075 428 3337 486 
Q 3600 544 3809 666 
z
" transform="scale(0.015625)"/>
      <path id="DejaVuSans-53" d="M 3425 4513 
L 3425 3897 
Q 3066 4069 2747 4153 
Q 2428 4238 2131 4238 
Q 1616 4238 1336 4038 
Q 1056 3838 1056 3469 
Q 1056 3159 1242 3001 
Q 1428 2844 1947 2747 
L 2328 2669 
Q 3034 2534 3370 2195 
Q 3706 1856 3706 1288 
Q 3706 609 3251 259 
Q 2797 -91 1919 -91 
Q 1588 -91 1214 -16 
Q 841 59 441 206 
L 441 856 
Q 825 641 1194 531 
Q 1563 422 1919 422 
Q 2459 422 2753 634 
Q 3047 847 3047 1241 
Q 3047 1584 2836 1778 
Q 2625 1972 2144 2069 
L 1759 2144 
Q 1053 2284 737 2584 
Q 422 2884 422 3419 
Q 422 4038 858 4394 
Q 1294 4750 2059 4750 
Q 2388 4750 2728 4690 
Q 3069 4631 3425 4513 
z
" transform="scale(0.015625)"/>
     </defs>
     <use xlink:href="#DejaVuSans-50" transform="translate(0 0.015625)"/>
     <use xlink:href="#DejaVuSans-68" transform="translate(60.302734 0.015625)"/>
     <use xlink:href="#DejaVuSans-61" transform="translate(123.681641 0.015625)"/>
     <use xlink:href="#DejaVuSans-73" transform="translate(184.960938 0.015625)"/>
     <use xlink:href="#DejaVuSans-65" transform="translate(237.060547 0.015625)"/>
     <use xlink:href="#DejaVuSans-20" transform="translate(298.583984 0.015625)"/>
     <use xlink:href="#DejaVuSans-63" transform="translate(330.371094 0.015625)"/>
     <use xlink:href="#DejaVuSans-75" transform="translate(385.351562 0.015625)"/>
     <use xlink:href="#DejaVuSans-72" transform="translate(448.730469 0.015625)"/>
     <use xlink:href="#DejaVuSans-76" transform="translate(489.84375 0.015625)"/>
     <use xlink:href="#DejaVuSans-65" transform="translate(549.023438 0.015625)"/>
     <use xlink:href="#DejaVuSans-20" transform="translate(610.546875 0.015625)"/>
     <use xlink:href="#DejaVuSans-61" transform="translate(642.333984 0.015625)"/>
     <use xlink:href="#DejaVuSans-74" transform="translate(703.613281 0.015625)"/>
     <use xlink:href="#DejaVuSans-20" transform="translate(742.822266 0.015625)"/>
     <use xlink:href="#DejaVuSans-Oblique-3bb" transform="translate(774.609375 0.015625)"/>
     <use xlink:href="#DejaVuSans-20" transform="translate(833.789062 0.015625)"/>
     <use xlink:href="#DejaVuSans-3d" transform="translate(865.576172 0.015625)"/>
     <use xlink:href="#DejaVuSans-20" transform="translate(949.365234 0.015625)"/>
     <use xlink:href="#DejaVuSans-30" transform="translate(981.152344 0.015625)"/>
     <use xlink:href="#DejaVuSans-2e" transform="translate(1044.775391 0.015625)"/>
     <use xlink:href="#DejaVuSans-39" transform="translate(1076.5625 0.015625)"/>
     <use xlink:href="#DejaVuSans-35" transform="translate(1140.185547 0.015625)"/>
     <use xlink:href="#DejaVuSans-20" transform="translate(1203.808594 0.015625)"/>
     <use xlink:href="#DejaVuSans-Oblique-3bc" transform="translate(1235.595703 0.015625)"/>
     <use xlink:href="#DejaVuSans-6d" transform="translate(1299.21875 0.015625)"/>
     <use xlink:href="#DejaVuSans-20" transform="translate(1396.630859 0.015625)"/>
     <use xlink:href="#DejaVuSans-77" transform="translate(1428.417969 0.015625)"/>
     <use xlink:href="#DejaVuSans-69" transform="translate(1510.205078 0.015625)"/>
     <use xlink:href="#DejaVuSans-74" transform="translate(1537.988281 0.015625)"/>
     <use xlink:href="#DejaVuSans-68" transform="translate(1577.197266 0.015625)"/>
     <use xlink:href="#DejaVuSans-20" transform="translate(1640.576172 0.015625)"/>
     <use xlink:href="#DejaVuSans-46" transform="translate(1672.363281 0.015625)"/>
     <use xlink:href="#DejaVuSans-47" transform="translate(1729.882812 0.015625)"/>
     <use xlink:href="#DejaVuSans-53" transform="translate(1807.373047 0.015625)"/>
     <use xlink:href="#DejaVuSans-32" transform="translate(1870.849609 0.015625)"/>
    </g>
   </g>
   <g id="line2d_16">
    <defs>
     <path id="m53436c6275" d="M 0 3 
C 0.795609 3 1.55874 2.683901 2.12132 2.12132 
C 2.683901 1.55874 3 0.795609 3 0 
C 3 -0.795609 2.683901 -1.55874 2.12132 -2.12132 
C 1.55874 -2.683901 0.795609 -3 0 -3 
C -0.795609 -3 -1.55874 -2.683901 -2.12132 -2.12132 
C -2.683901 -1.55874 -3 -0.795609 -3 0 
C -3 0.795609 -2.683901 1.55874 -2.12132 2.12132 
C -1.55874 2.683901 -0.795609 3 0 3 
z
" style="stroke: #ff8000"/>
    </defs>
    <g clip-path="url(#pc92ab9f0bc)">
     <use xlink:href="#m53436c6275" x="75.167143" y="162.023531" style="fill: #ff8000; stroke: #ff8000"/>
     <use xlink:href="#m53436c6275" x="77.837922" y="136.556433" style="fill: #ff8000; stroke: #ff8000"/>
     <use xlink:href="#m53436c6275" x="80.506753" y="121.822516" style="fill: #ff8000; stroke: #ff8000"/>
     <use xlink:href="#m53436c6275" x="83.175584" y="152.914735" style="fill: #ff8000; stroke: #ff8000"/>
     <use xlink:href="#m53436c6275" x="85.844416" y="111.792991" style="fill: #ff8000; stroke: #ff8000"/>
     <use xlink:href="#m53436c6275" x="88.513247" y="101.606004" style="fill: #ff8000; stroke: #ff8000"/>
     <use xlink:href="#m53436c6275" x="91.182078" y="178.069218" style="fill: #ff8000; stroke: #ff8000"/>
     <use xlink:href="#m53436c6275" x="93.850909" y="202.212324" style="fill: #ff8000; stroke: #ff8000"/>
     <use xlink:href="#m53436c6275" x="96.51974" y="140.383211" style="fill: #ff8000; stroke: #ff8000"/>
     <use xlink:href="#m53436c6275" x="99.188571" y="128.213343" style="fill: #ff8000; stroke: #ff8000"/>
     <use xlink:href="#m53436c6275" x="101.857403" y="182.578687" style="fill: #ff8000; stroke: #ff8000"/>
     <use xlink:href="#m53436c6275" x="104.526234" y="163.396821" style="fill: #ff8000; stroke: #ff8000"/>
     <use xlink:href="#m53436c6275" x="107.195065" y="132.814177" style="fill: #ff8000; stroke: #ff8000"/>
     <use xlink:href="#m53436c6275" x="109.863896" y="200.566791" style="fill: #ff8000; stroke: #ff8000"/>
     <use xlink:href="#m53436c6275" x="112.534675" y="157.296914" style="fill: #ff8000; stroke: #ff8000"/>
     <use xlink:href="#m53436c6275" x="115.205455" y="153.154094" style="fill: #ff8000; stroke: #ff8000"/>
     <use xlink:href="#m53436c6275" x="117.874286" y="83.072565" style="fill: #ff8000; stroke: #ff8000"/>
     <use xlink:href="#m53436c6275" x="120.543117" y="150.903723" style="fill: #ff8000; stroke: #ff8000"/>
     <use xlink:href="#m53436c6275" x="123.211948" y="87.04914" style="fill: #ff8000; stroke: #ff8000"/>
     <use xlink:href="#m53436c6275" x="125.880779" y="126.95269" style="fill: #ff8000; stroke: #ff8000"/>
     <use xlink:href="#m53436c6275" x="128.54961" y="122.378498" style="fill: #ff8000; stroke: #ff8000"/>
     <use xlink:href="#m53436c6275" x="131.218442" y="151.836199" style="fill: #ff8000; stroke: #ff8000"/>
     <use xlink:href="#m53436c6275" x="133.887273" y="136.162632" style="fill: #ff8000; stroke: #ff8000"/>
     <use xlink:href="#m53436c6275" x="136.556104" y="128.171399" style="fill: #ff8000; stroke: #ff8000"/>
     <use xlink:href="#m53436c6275" x="139.224935" y="169.212197" style="fill: #ff8000; stroke: #ff8000"/>
     <use xlink:href="#m53436c6275" x="141.893766" y="115.598959" style="fill: #ff8000; stroke: #ff8000"/>
     <use xlink:href="#m53436c6275" x="144.562597" y="196.271044" style="fill: #ff8000; stroke: #ff8000"/>
     <use xlink:href="#m53436c6275" x="147.231429" y="174.312431" style="fill: #ff8000; stroke: #ff8000"/>
     <use xlink:href="#m53436c6275" x="149.90026" y="123.419567" style="fill: #ff8000; stroke: #ff8000"/>
     <use xlink:href="#m53436c6275" x="152.571039" y="218.704104" style="fill: #ff8000; stroke: #ff8000"/>
     <use xlink:href="#m53436c6275" x="155.241818" y="122.883759" style="fill: #ff8000; stroke: #ff8000"/>
     <use xlink:href="#m53436c6275" x="157.910649" y="168.745633" style="fill: #ff8000; stroke: #ff8000"/>
     <use xlink:href="#m53436c6275" x="160.579481" y="158.358308" style="fill: #ff8000; stroke: #ff8000"/>
     <use xlink:href="#m53436c6275" x="163.248312" y="139.638498" style="fill: #ff8000; stroke: #ff8000"/>
     <use xlink:href="#m53436c6275" x="165.917143" y="191.862085" style="fill: #ff8000; stroke: #ff8000"/>
     <use xlink:href="#m53436c6275" x="168.585974" y="169.975097" style="fill: #ff8000; stroke: #ff8000"/>
     <use xlink:href="#m53436c6275" x="171.254805" y="156.015049" style="fill: #ff8000; stroke: #ff8000"/>
     <use xlink:href="#m53436c6275" x="173.923636" y="87.449322" style="fill: #ff8000; stroke: #ff8000"/>
     <use xlink:href="#m53436c6275" x="176.592468" y="187.291061" style="fill: #ff8000; stroke: #ff8000"/>
     <use xlink:href="#m53436c6275" x="179.261299" y="185.626704" style="fill: #ff8000; stroke: #ff8000"/>
     <use xlink:href="#m53436c6275" x="181.93013" y="124.820247" style="fill: #ff8000; stroke: #ff8000"/>
     <use xlink:href="#m53436c6275" x="184.598961" y="139.518141" style="fill: #ff8000; stroke: #ff8000"/>
     <use xlink:href="#m53436c6275" x="187.267792" y="115.576011" style="fill: #ff8000; stroke: #ff8000"/>
     <use xlink:href="#m53436c6275" x="189.938571" y="124.347061" style="fill: #ff8000; stroke: #ff8000"/>
     <use xlink:href="#m53436c6275" x="192.609351" y="125.464695" style="fill: #ff8000; stroke: #ff8000"/>
     <use xlink:href="#m53436c6275" x="195.278182" y="88.674881" style="fill: #ff8000; stroke: #ff8000"/>
     <use xlink:href="#m53436c6275" x="197.947013" y="138.194614" style="fill: #ff8000; stroke: #ff8000"/>
     <use xlink:href="#m53436c6275" x="200.615844" y="104.51379" style="fill: #ff8000; stroke: #ff8000"/>
     <use xlink:href="#m53436c6275" x="203.284675" y="132.381187" style="fill: #ff8000; stroke: #ff8000"/>
     <use xlink:href="#m53436c6275" x="205.953506" y="144.315847" style="fill: #ff8000; stroke: #ff8000"/>
     <use xlink:href="#m53436c6275" x="208.622338" y="175.347054" style="fill: #ff8000; stroke: #ff8000"/>
     <use xlink:href="#m53436c6275" x="211.291169" y="149.779563" style="fill: #ff8000; stroke: #ff8000"/>
     <use xlink:href="#m53436c6275" x="213.96" y="142.00907" style="fill: #ff8000; stroke: #ff8000"/>
     <use xlink:href="#m53436c6275" x="216.628831" y="202.307949" style="fill: #ff8000; stroke: #ff8000"/>
     <use xlink:href="#m53436c6275" x="219.297662" y="133.571052" style="fill: #ff8000; stroke: #ff8000"/>
     <use xlink:href="#m53436c6275" x="221.966494" y="159.166145" style="fill: #ff8000; stroke: #ff8000"/>
     <use xlink:href="#m53436c6275" x="224.635325" y="176.42621" style="fill: #ff8000; stroke: #ff8000"/>
     <use xlink:href="#m53436c6275" x="227.304156" y="142.57446" style="fill: #ff8000; stroke: #ff8000"/>
     <use xlink:href="#m53436c6275" x="229.974935" y="194.640825" style="fill: #ff8000; stroke: #ff8000"/>
     <use xlink:href="#m53436c6275" x="232.645714" y="218.093689" style="fill: #ff8000; stroke: #ff8000"/>
     <use xlink:href="#m53436c6275" x="235.314545" y="175.465656" style="fill: #ff8000; stroke: #ff8000"/>
     <use xlink:href="#m53436c6275" x="237.983377" y="265.983435" style="fill: #ff8000; stroke: #ff8000"/>
     <use xlink:href="#m53436c6275" x="240.652208" y="229.116012" style="fill: #ff8000; stroke: #ff8000"/>
     <use xlink:href="#m53436c6275" x="243.321039" y="204.876676" style="fill: #ff8000; stroke: #ff8000"/>
     <use xlink:href="#m53436c6275" x="245.98987" y="161.878188" style="fill: #ff8000; stroke: #ff8000"/>
     <use xlink:href="#m53436c6275" x="248.658701" y="194.577698" style="fill: #ff8000; stroke: #ff8000"/>
     <use xlink:href="#m53436c6275" x="251.327532" y="132.913979" style="fill: #ff8000; stroke: #ff8000"/>
     <use xlink:href="#m53436c6275" x="253.996364" y="147.350551" style="fill: #ff8000; stroke: #ff8000"/>
     <use xlink:href="#m53436c6275" x="256.665195" y="143.469208" style="fill: #ff8000; stroke: #ff8000"/>
     <use xlink:href="#m53436c6275" x="259.334026" y="125.924145" style="fill: #ff8000; stroke: #ff8000"/>
     <use xlink:href="#m53436c6275" x="262.002857" y="166.134675" style="fill: #ff8000; stroke: #ff8000"/>
     <use xlink:href="#m53436c6275" x="264.671688" y="126.161052" style="fill: #ff8000; stroke: #ff8000"/>
     <use xlink:href="#m53436c6275" x="267.340519" y="141.900362" style="fill: #ff8000; stroke: #ff8000"/>
     <use xlink:href="#m53436c6275" x="270.011299" y="131.258876" style="fill: #ff8000; stroke: #ff8000"/>
     <use xlink:href="#m53436c6275" x="272.682078" y="133.310054" style="fill: #ff8000; stroke: #ff8000"/>
     <use xlink:href="#m53436c6275" x="275.350909" y="149.021148" style="fill: #ff8000; stroke: #ff8000"/>
     <use xlink:href="#m53436c6275" x="278.01974" y="164.178406" style="fill: #ff8000; stroke: #ff8000"/>
     <use xlink:href="#m53436c6275" x="280.688571" y="123.006382" style="fill: #ff8000; stroke: #ff8000"/>
     <use xlink:href="#m53436c6275" x="283.357403" y="132.86892" style="fill: #ff8000; stroke: #ff8000"/>
     <use xlink:href="#m53436c6275" x="286.026234" y="85.602448" style="fill: #ff8000; stroke: #ff8000"/>
     <use xlink:href="#m53436c6275" x="288.695065" y="166.975267" style="fill: #ff8000; stroke: #ff8000"/>
     <use xlink:href="#m53436c6275" x="291.363896" y="168.967787" style="fill: #ff8000; stroke: #ff8000"/>
     <use xlink:href="#m53436c6275" x="294.032727" y="159.988044" style="fill: #ff8000; stroke: #ff8000"/>
     <use xlink:href="#m53436c6275" x="296.701558" y="169.478631" style="fill: #ff8000; stroke: #ff8000"/>
     <use xlink:href="#m53436c6275" x="299.37039" y="114.772038" style="fill: #ff8000; stroke: #ff8000"/>
     <use xlink:href="#m53436c6275" x="302.039221" y="112.773791" style="fill: #ff8000; stroke: #ff8000"/>
     <use xlink:href="#m53436c6275" x="304.708052" y="159.14688" style="fill: #ff8000; stroke: #ff8000"/>
     <use xlink:href="#m53436c6275" x="307.378831" y="166.462461" style="fill: #ff8000; stroke: #ff8000"/>
     <use xlink:href="#m53436c6275" x="310.04961" y="139.684552" style="fill: #ff8000; stroke: #ff8000"/>
     <use xlink:href="#m53436c6275" x="312.718442" y="113.808452" style="fill: #ff8000; stroke: #ff8000"/>
     <use xlink:href="#m53436c6275" x="315.387273" y="136.956728" style="fill: #ff8000; stroke: #ff8000"/>
     <use xlink:href="#m53436c6275" x="318.056104" y="159.106005" style="fill: #ff8000; stroke: #ff8000"/>
     <use xlink:href="#m53436c6275" x="320.724935" y="140.015127" style="fill: #ff8000; stroke: #ff8000"/>
     <use xlink:href="#m53436c6275" x="323.393766" y="183.038299" style="fill: #ff8000; stroke: #ff8000"/>
     <use xlink:href="#m53436c6275" x="326.062597" y="241.516393" style="fill: #ff8000; stroke: #ff8000"/>
     <use xlink:href="#m53436c6275" x="328.731429" y="176.224447" style="fill: #ff8000; stroke: #ff8000"/>
     <use xlink:href="#m53436c6275" x="331.40026" y="157.527842" style="fill: #ff8000; stroke: #ff8000"/>
     <use xlink:href="#m53436c6275" x="334.069091" y="143.496929" style="fill: #ff8000; stroke: #ff8000"/>
     <use xlink:href="#m53436c6275" x="336.737922" y="157.118492" style="fill: #ff8000; stroke: #ff8000"/>
     <use xlink:href="#m53436c6275" x="339.406753" y="170.335782" style="fill: #ff8000; stroke: #ff8000"/>
     <use xlink:href="#m53436c6275" x="342.075584" y="104.96196" style="fill: #ff8000; stroke: #ff8000"/>
     <use xlink:href="#m53436c6275" x="344.744416" y="195.083046" style="fill: #ff8000; stroke: #ff8000"/>
     <use xlink:href="#m53436c6275" x="347.415195" y="174.693846" style="fill: #ff8000; stroke: #ff8000"/>
     <use xlink:href="#m53436c6275" x="350.085974" y="109.348362" style="fill: #ff8000; stroke: #ff8000"/>
     <use xlink:href="#m53436c6275" x="352.754805" y="107.259534" style="fill: #ff8000; stroke: #ff8000"/>
     <use xlink:href="#m53436c6275" x="355.423636" y="142.230363" style="fill: #ff8000; stroke: #ff8000"/>
     <use xlink:href="#m53436c6275" x="358.092468" y="131.752862" style="fill: #ff8000; stroke: #ff8000"/>
     <use xlink:href="#m53436c6275" x="360.761299" y="169.55095" style="fill: #ff8000; stroke: #ff8000"/>
     <use xlink:href="#m53436c6275" x="363.43013" y="154.137155" style="fill: #ff8000; stroke: #ff8000"/>
     <use xlink:href="#m53436c6275" x="366.098961" y="137.376886" style="fill: #ff8000; stroke: #ff8000"/>
     <use xlink:href="#m53436c6275" x="368.767792" y="120.800299" style="fill: #ff8000; stroke: #ff8000"/>
     <use xlink:href="#m53436c6275" x="371.436623" y="138.231948" style="fill: #ff8000; stroke: #ff8000"/>
     <use xlink:href="#m53436c6275" x="374.105455" y="111.595336" style="fill: #ff8000; stroke: #ff8000"/>
     <use xlink:href="#m53436c6275" x="376.774286" y="179.708093" style="fill: #ff8000; stroke: #ff8000"/>
     <use xlink:href="#m53436c6275" x="379.443117" y="141.839609" style="fill: #ff8000; stroke: #ff8000"/>
     <use xlink:href="#m53436c6275" x="382.111948" y="186.92359" style="fill: #ff8000; stroke: #ff8000"/>
     <use xlink:href="#m53436c6275" x="384.780779" y="147.544837" style="fill: #ff8000; stroke: #ff8000"/>
     <use xlink:href="#m53436c6275" x="387.451558" y="165.931593" style="fill: #ff8000; stroke: #ff8000"/>
     <use xlink:href="#m53436c6275" x="390.122338" y="141.227904" style="fill: #ff8000; stroke: #ff8000"/>
     <use xlink:href="#m53436c6275" x="392.791169" y="139.459844" style="fill: #ff8000; stroke: #ff8000"/>
     <use xlink:href="#m53436c6275" x="395.46" y="132.903613" style="fill: #ff8000; stroke: #ff8000"/>
     <use xlink:href="#m53436c6275" x="397.641818" y="133.687665" style="fill: #ff8000; stroke: #ff8000"/>
    </g>
   </g>
   <g id="line2d_17">
    <path d="M 73.832727 146.661781 
L 91.665195 146.401293 
L 93.243117 146.499089 
L 93.441818 147.955012 
L 93.714545 149.313213 
L 109.653506 149.210108 
L 109.844416 147.832985 
L 110.124935 146.390372 
L 127.252208 146.617765 
L 146.732727 147.107019 
L 179.674286 148.204815 
L 205.03013 148.940053 
L 223.275584 149.246903 
L 227.740519 149.361556 
L 227.814545 153.909762 
L 228.434026 199.079176 
L 228.901558 203.869565 
L 229.517143 207.953124 
L 230.253506 211.388469 
L 231.071688 214.179527 
L 231.936623 216.369631 
L 232.813247 218.010349 
L 233.674286 219.171961 
L 234.50026 219.929766 
L 235.283377 220.358018 
L 236.027532 220.518352 
L 236.752208 220.448702 
L 237.480779 220.151962 
L 238.228831 219.60086 
L 239.008052 218.7402 
L 239.810649 217.509295 
L 240.621039 215.845333 
L 241.41974 213.680434 
L 242.175584 210.97093 
L 242.861299 207.660016 
L 243.441818 203.727844 
L 243.885974 199.159661 
L 244.150909 194.19809 
L 244.279481 181.322194 
L 244.645714 149.284376 
L 261.772987 149.057064 
L 281.253506 148.567878 
L 314.175584 147.470754 
L 339.543117 146.734977 
L 357.792468 146.427907 
L 362.292468 146.477038 
L 362.471688 147.750157 
L 362.767792 149.313213 
L 378.706753 149.214975 
L 378.893766 147.87486 
L 379.182078 146.390391 
L 396.309351 146.617819 
L 398.487273 146.661656 
L 398.487273 146.661656 
" clip-path="url(#pc92ab9f0bc)" style="fill: none; stroke: #000000; stroke-width: 1.5; stroke-linecap: square"/>
   </g>
   <g id="legend_1">
    <g id="patch_7">
     <path d="M 295.9125 103.91325 
L 406.32 103.91325 
Q 408.72 103.91325 408.72 101.51325 
L 408.72 49.872 
Q 408.72 47.472 406.32 47.472 
L 295.9125 47.472 
Q 293.5125 47.472 293.5125 49.872 
L 293.5125 101.51325 
Q 293.5125 103.91325 295.9125 103.91325 
z
" style="fill: #ffffff; opacity: 0.8; stroke: #cccccc; stroke-linejoin: miter"/>
    </g>
    <g id="line2d_18">
     <path d="M 298.3125 57.190125 
L 310.3125 57.190125 
L 322.3125 57.190125 
" style="fill: none; stroke: #1f77b4; stroke-width: 1.5; stroke-linecap: square"/>
    </g>
    <g id="text_20">
     <!-- our model -->
     <g transform="translate(331.9125 61.390125) scale(0.12 -0.12)">
      <defs>
       <path id="DejaVuSans-6f" d="M 1959 3097 
Q 1497 3097 1228 2736 
Q 959 2375 959 1747 
Q 959 1119 1226 758 
Q 1494 397 1959 397 
Q 2419 397 2687 759 
Q 2956 1122 2956 1747 
Q 2956 2369 2687 2733 
Q 2419 3097 1959 3097 
z
M 1959 3584 
Q 2709 3584 3137 3096 
Q 3566 2609 3566 1747 
Q 3566 888 3137 398 
Q 2709 -91 1959 -91 
Q 1206 -91 779 398 
Q 353 888 353 1747 
Q 353 2609 779 3096 
Q 1206 3584 1959 3584 
z
" transform="scale(0.015625)"/>
       <path id="DejaVuSans-6c" d="M 603 4863 
L 1178 4863 
L 1178 0 
L 603 0 
L 603 4863 
z
" transform="scale(0.015625)"/>
      </defs>
      <use xlink:href="#DejaVuSans-6f"/>
      <use xlink:href="#DejaVuSans-75" transform="translate(61.181641 0)"/>
      <use xlink:href="#DejaVuSans-72" transform="translate(124.560547 0)"/>
      <use xlink:href="#DejaVuSans-20" transform="translate(165.673828 0)"/>
      <use xlink:href="#DejaVuSans-6d" transform="translate(197.460938 0)"/>
      <use xlink:href="#DejaVuSans-6f" transform="translate(294.873047 0)"/>
      <use xlink:href="#DejaVuSans-64" transform="translate(356.054688 0)"/>
      <use xlink:href="#DejaVuSans-65" transform="translate(419.53125 0)"/>
      <use xlink:href="#DejaVuSans-6c" transform="translate(481.054688 0)"/>
     </g>
    </g>
    <g id="line2d_19">
     <path d="M 298.3125 74.803875 
L 310.3125 74.803875 
L 322.3125 74.803875 
" style="fill: none; stroke: #000000; stroke-width: 1.5; stroke-linecap: square"/>
    </g>
    <g id="text_21">
     <!-- origin data -->
     <g transform="translate(331.9125 79.003875) scale(0.12 -0.12)">
      <defs>
       <path id="DejaVuSans-67" d="M 2906 1791 
Q 2906 2416 2648 2759 
Q 2391 3103 1925 3103 
Q 1463 3103 1205 2759 
Q 947 2416 947 1791 
Q 947 1169 1205 825 
Q 1463 481 1925 481 
Q 2391 481 2648 825 
Q 2906 1169 2906 1791 
z
M 3481 434 
Q 3481 -459 3084 -895 
Q 2688 -1331 1869 -1331 
Q 1566 -1331 1297 -1286 
Q 1028 -1241 775 -1147 
L 775 -588 
Q 1028 -725 1275 -790 
Q 1522 -856 1778 -856 
Q 2344 -856 2625 -561 
Q 2906 -266 2906 331 
L 2906 616 
Q 2728 306 2450 153 
Q 2172 0 1784 0 
Q 1141 0 747 490 
Q 353 981 353 1791 
Q 353 2603 747 3093 
Q 1141 3584 1784 3584 
Q 2172 3584 2450 3431 
Q 2728 3278 2906 2969 
L 2906 3500 
L 3481 3500 
L 3481 434 
z
" transform="scale(0.015625)"/>
       <path id="DejaVuSans-6e" d="M 3513 2113 
L 3513 0 
L 2938 0 
L 2938 2094 
Q 2938 2591 2744 2837 
Q 2550 3084 2163 3084 
Q 1697 3084 1428 2787 
Q 1159 2491 1159 1978 
L 1159 0 
L 581 0 
L 581 3500 
L 1159 3500 
L 1159 2956 
Q 1366 3272 1645 3428 
Q 1925 3584 2291 3584 
Q 2894 3584 3203 3211 
Q 3513 2838 3513 2113 
z
" transform="scale(0.015625)"/>
      </defs>
      <use xlink:href="#DejaVuSans-6f"/>
      <use xlink:href="#DejaVuSans-72" transform="translate(61.181641 0)"/>
      <use xlink:href="#DejaVuSans-69" transform="translate(102.294922 0)"/>
      <use xlink:href="#DejaVuSans-67" transform="translate(130.078125 0)"/>
      <use xlink:href="#DejaVuSans-69" transform="translate(193.554688 0)"/>
      <use xlink:href="#DejaVuSans-6e" transform="translate(221.337891 0)"/>
      <use xlink:href="#DejaVuSans-20" transform="translate(284.716797 0)"/>
      <use xlink:href="#DejaVuSans-64" transform="translate(316.503906 0)"/>
      <use xlink:href="#DejaVuSans-61" transform="translate(379.980469 0)"/>
      <use xlink:href="#DejaVuSans-74" transform="translate(441.259766 0)"/>
      <use xlink:href="#DejaVuSans-61" transform="translate(480.46875 0)"/>
     </g>
    </g>
    <g id="LineCollection_2">
     <path d="M 310.3125 98.417625 
L 310.3125 86.417625 
" style="fill: none; stroke: #ff8000; stroke-width: 1.5"/>
    </g>
    <g id="line2d_20"/>
    <g id="line2d_21">
     <g>
      <use xlink:href="#m53436c6275" x="310.3125" y="92.417625" style="fill: #ff8000; stroke: #ff8000"/>
     </g>
    </g>
    <g id="text_22">
     <!-- data binned -->
     <g transform="translate(331.9125 96.617625) scale(0.12 -0.12)">
      <defs>
       <path id="DejaVuSans-62" d="M 3116 1747 
Q 3116 2381 2855 2742 
Q 2594 3103 2138 3103 
Q 1681 3103 1420 2742 
Q 1159 2381 1159 1747 
Q 1159 1113 1420 752 
Q 1681 391 2138 391 
Q 2594 391 2855 752 
Q 3116 1113 3116 1747 
z
M 1159 2969 
Q 1341 3281 1617 3432 
Q 1894 3584 2278 3584 
Q 2916 3584 3314 3078 
Q 3713 2572 3713 1747 
Q 3713 922 3314 415 
Q 2916 -91 2278 -91 
Q 1894 -91 1617 61 
Q 1341 213 1159 525 
L 1159 0 
L 581 0 
L 581 4863 
L 1159 4863 
L 1159 2969 
z
" transform="scale(0.015625)"/>
      </defs>
      <use xlink:href="#DejaVuSans-64"/>
      <use xlink:href="#DejaVuSans-61" transform="translate(63.476562 0)"/>
      <use xlink:href="#DejaVuSans-74" transform="translate(124.755859 0)"/>
      <use xlink:href="#DejaVuSans-61" transform="translate(163.964844 0)"/>
      <use xlink:href="#DejaVuSans-20" transform="translate(225.244141 0)"/>
      <use xlink:href="#DejaVuSans-62" transform="translate(257.03125 0)"/>
      <use xlink:href="#DejaVuSans-69" transform="translate(320.507812 0)"/>
      <use xlink:href="#DejaVuSans-6e" transform="translate(348.291016 0)"/>
      <use xlink:href="#DejaVuSans-6e" transform="translate(411.669922 0)"/>
      <use xlink:href="#DejaVuSans-65" transform="translate(475.048828 0)"/>
      <use xlink:href="#DejaVuSans-64" transform="translate(536.572266 0)"/>
     </g>
    </g>
   </g>
   <g id="line2d_22">
    <path d="M 73.832727 146.573688 
L 90.772987 146.312198 
L 90.885974 149.31324 
L 112.493766 149.31324 
L 112.497662 146.312189 
L 112.606753 146.313168 
L 129.636623 146.577957 
L 149.354805 147.116223 
L 216.734026 149.158951 
L 224.978182 149.348128 
L 225.048312 157.848919 
L 225.437922 205.467027 
L 225.87039 209.076872 
L 226.482078 212.356718 
L 227.241818 215.245698 
L 228.122338 217.738446 
L 229.092468 219.833615 
L 230.128831 221.555613 
L 231.204156 222.922812 
L 232.302857 223.96855 
L 233.405455 224.717504 
L 234.50026 225.197725 
L 235.587273 225.434516 
L 236.662597 225.44243 
L 237.73013 225.227947 
L 238.793766 224.786063 
L 239.853506 224.102297 
L 240.905455 223.154697 
L 241.937922 221.920319 
L 242.939221 220.369622 
L 243.88987 218.477964 
L 244.766494 216.227326 
L 245.545714 213.601096 
L 246.20026 210.601064 
L 246.706753 207.217831 
L 247.022338 203.637967 
L 247.069091 198.487879 
L 247.48987 149.260202 
L 264.550909 148.990242 
L 284.374286 148.444629 
L 350.522338 146.429419 
L 359.826234 146.312207 
L 359.939221 149.31324 
L 381.547013 149.31324 
L 381.550909 146.312179 
L 381.66 146.313158 
L 398.487273 146.573558 
L 398.487273 146.573558 
" clip-path="url(#pc92ab9f0bc)" style="fill: none; stroke: #1f77b4; stroke-width: 1.5; stroke-linecap: square"/>
   </g>
  </g>
 </g>
 <defs>
  <clipPath id="pc92ab9f0bc">
   <rect x="57.6" y="41.472" width="357.12" height="266.112"/>
  </clipPath>
 </defs>
</svg>
