<?xml version="1.0" encoding="utf-8" standalone="no"?>
<!DOCTYPE svg PUBLIC "-//W3C//DTD SVG 1.1//EN"
  "http://www.w3.org/Graphics/SVG/1.1/DTD/svg11.dtd">
<svg xmlns:xlink="http://www.w3.org/1999/xlink" width="460.8pt" height="345.6pt" viewBox="0 0 460.8 345.6" xmlns="http://www.w3.org/2000/svg" version="1.1">
 <metadata>
  <rdf:RDF xmlns:dc="http://purl.org/dc/elements/1.1/" xmlns:cc="http://creativecommons.org/ns#" xmlns:rdf="http://www.w3.org/1999/02/22-rdf-syntax-ns#">
   <cc:Work>
    <dc:type rdf:resource="http://purl.org/dc/dcmitype/StillImage"/>
    <dc:date>2025-12-01T15:17:04.949270</dc:date>
    <dc:format>image/svg+xml</dc:format>
    <dc:creator>
     <cc:Agent>
      <dc:title>Matplotlib v3.10.7, https://matplotlib.org/</dc:title>
     </cc:Agent>
    </dc:creator>
   </cc:Work>
  </rdf:RDF>
 </metadata>
 <defs>
  <style type="text/css">*{stroke-linejoin: round; stroke-linecap: butt}</style>
 </defs>
 <g id="figure_1">
  <g id="patch_1">
   <path d="M 0 345.6 
L 460.8 345.6 
L 460.8 0 
L 0 0 
z
" style="fill: #ffffff"/>
  </g>
  <g id="axes_1">
   <g id="patch_2">
    <path d="M 57.6 307.584 
L 414.72 307.584 
L 414.72 41.472 
L 57.6 41.472 
z
" style="fill: #ffffff"/>
   </g>
   <g id="matplotlib.axis_1">
    <g id="xtick_1">
     <g id="line2d_1">
      <defs>
       <path id="m03e0a3b564" d="M 0 0 
L 0 3.5 
" style="stroke: #000000; stroke-width: 0.8"/>
      </defs>
      <g>
       <use xlink:href="#m03e0a3b564" x="73.872541" y="307.584" style="stroke: #000000; stroke-width: 0.8"/>
      </g>
     </g>
     <g id="text_1">
      <!-- 0.4 -->
      <g transform="translate(62.740354 325.221812) scale(0.14 -0.14)">
       <defs>
        <path id="DejaVuSans-30" d="M 2034 4250 
Q 1547 4250 1301 3770 
Q 1056 3291 1056 2328 
Q 1056 1369 1301 889 
Q 1547 409 2034 409 
Q 2525 409 2770 889 
Q 3016 1369 3016 2328 
Q 3016 3291 2770 3770 
Q 2525 4250 2034 4250 
z
M 2034 4750 
Q 2819 4750 3233 4129 
Q 3647 3509 3647 2328 
Q 3647 1150 3233 529 
Q 2819 -91 2034 -91 
Q 1250 -91 836 529 
Q 422 1150 422 2328 
Q 422 3509 836 4129 
Q 1250 4750 2034 4750 
z
" transform="scale(0.015625)"/>
        <path id="DejaVuSans-2e" d="M 684 794 
L 1344 794 
L 1344 0 
L 684 0 
L 684 794 
z
" transform="scale(0.015625)"/>
        <path id="DejaVuSans-34" d="M 2419 4116 
L 825 1625 
L 2419 1625 
L 2419 4116 
z
M 2253 4666 
L 3047 4666 
L 3047 1625 
L 3713 1625 
L 3713 1100 
L 3047 1100 
L 3047 0 
L 2419 0 
L 2419 1100 
L 313 1100 
L 313 1709 
L 2253 4666 
z
" transform="scale(0.015625)"/>
       </defs>
       <use xlink:href="#DejaVuSans-30"/>
       <use xlink:href="#DejaVuSans-2e" transform="translate(63.623047 0)"/>
       <use xlink:href="#DejaVuSans-34" transform="translate(95.410156 0)"/>
      </g>
     </g>
    </g>
    <g id="xtick_2">
     <g id="line2d_2">
      <g>
       <use xlink:href="#m03e0a3b564" x="127.254488" y="307.584" style="stroke: #000000; stroke-width: 0.8"/>
      </g>
     </g>
     <g id="text_2">
      <!-- 0.6 -->
      <g transform="translate(116.1223 325.221812) scale(0.14 -0.14)">
       <defs>
        <path id="DejaVuSans-36" d="M 2113 2584 
Q 1688 2584 1439 2293 
Q 1191 2003 1191 1497 
Q 1191 994 1439 701 
Q 1688 409 2113 409 
Q 2538 409 2786 701 
Q 3034 994 3034 1497 
Q 3034 2003 2786 2293 
Q 2538 2584 2113 2584 
z
M 3366 4563 
L 3366 3988 
Q 3128 4100 2886 4159 
Q 2644 4219 2406 4219 
Q 1781 4219 1451 3797 
Q 1122 3375 1075 2522 
Q 1259 2794 1537 2939 
Q 1816 3084 2150 3084 
Q 2853 3084 3261 2657 
Q 3669 2231 3669 1497 
Q 3669 778 3244 343 
Q 2819 -91 2113 -91 
Q 1303 -91 875 529 
Q 447 1150 447 2328 
Q 447 3434 972 4092 
Q 1497 4750 2381 4750 
Q 2619 4750 2861 4703 
Q 3103 4656 3366 4563 
z
" transform="scale(0.015625)"/>
       </defs>
       <use xlink:href="#DejaVuSans-30"/>
       <use xlink:href="#DejaVuSans-2e" transform="translate(63.623047 0)"/>
       <use xlink:href="#DejaVuSans-36" transform="translate(95.410156 0)"/>
      </g>
     </g>
    </g>
    <g id="xtick_3">
     <g id="line2d_3">
      <g>
       <use xlink:href="#m03e0a3b564" x="180.636435" y="307.584" style="stroke: #000000; stroke-width: 0.8"/>
      </g>
     </g>
     <g id="text_3">
      <!-- 0.8 -->
      <g transform="translate(169.504247 325.221812) scale(0.14 -0.14)">
       <defs>
        <path id="DejaVuSans-38" d="M 2034 2216 
Q 1584 2216 1326 1975 
Q 1069 1734 1069 1313 
Q 1069 891 1326 650 
Q 1584 409 2034 409 
Q 2484 409 2743 651 
Q 3003 894 3003 1313 
Q 3003 1734 2745 1975 
Q 2488 2216 2034 2216 
z
M 1403 2484 
Q 997 2584 770 2862 
Q 544 3141 544 3541 
Q 544 4100 942 4425 
Q 1341 4750 2034 4750 
Q 2731 4750 3128 4425 
Q 3525 4100 3525 3541 
Q 3525 3141 3298 2862 
Q 3072 2584 2669 2484 
Q 3125 2378 3379 2068 
Q 3634 1759 3634 1313 
Q 3634 634 3220 271 
Q 2806 -91 2034 -91 
Q 1263 -91 848 271 
Q 434 634 434 1313 
Q 434 1759 690 2068 
Q 947 2378 1403 2484 
z
M 1172 3481 
Q 1172 3119 1398 2916 
Q 1625 2713 2034 2713 
Q 2441 2713 2670 2916 
Q 2900 3119 2900 3481 
Q 2900 3844 2670 4047 
Q 2441 4250 2034 4250 
Q 1625 4250 1398 4047 
Q 1172 3844 1172 3481 
z
" transform="scale(0.015625)"/>
       </defs>
       <use xlink:href="#DejaVuSans-30"/>
       <use xlink:href="#DejaVuSans-2e" transform="translate(63.623047 0)"/>
       <use xlink:href="#DejaVuSans-38" transform="translate(95.410156 0)"/>
      </g>
     </g>
    </g>
    <g id="xtick_4">
     <g id="line2d_4">
      <g>
       <use xlink:href="#m03e0a3b564" x="234.018381" y="307.584" style="stroke: #000000; stroke-width: 0.8"/>
      </g>
     </g>
     <g id="text_4">
      <!-- 1.0 -->
      <g transform="translate(222.886194 325.221812) scale(0.14 -0.14)">
       <defs>
        <path id="DejaVuSans-31" d="M 794 531 
L 1825 531 
L 1825 4091 
L 703 3866 
L 703 4441 
L 1819 4666 
L 2450 4666 
L 2450 531 
L 3481 531 
L 3481 0 
L 794 0 
L 794 531 
z
" transform="scale(0.015625)"/>
       </defs>
       <use xlink:href="#DejaVuSans-31"/>
       <use xlink:href="#DejaVuSans-2e" transform="translate(63.623047 0)"/>
       <use xlink:href="#DejaVuSans-30" transform="translate(95.410156 0)"/>
      </g>
     </g>
    </g>
    <g id="xtick_5">
     <g id="line2d_5">
      <g>
       <use xlink:href="#m03e0a3b564" x="287.400328" y="307.584" style="stroke: #000000; stroke-width: 0.8"/>
      </g>
     </g>
     <g id="text_5">
      <!-- 1.2 -->
      <g transform="translate(276.26814 325.221812) scale(0.14 -0.14)">
       <defs>
        <path id="DejaVuSans-32" d="M 1228 531 
L 3431 531 
L 3431 0 
L 469 0 
L 469 531 
Q 828 903 1448 1529 
Q 2069 2156 2228 2338 
Q 2531 2678 2651 2914 
Q 2772 3150 2772 3378 
Q 2772 3750 2511 3984 
Q 2250 4219 1831 4219 
Q 1534 4219 1204 4116 
Q 875 4013 500 3803 
L 500 4441 
Q 881 4594 1212 4672 
Q 1544 4750 1819 4750 
Q 2544 4750 2975 4387 
Q 3406 4025 3406 3419 
Q 3406 3131 3298 2873 
Q 3191 2616 2906 2266 
Q 2828 2175 2409 1742 
Q 1991 1309 1228 531 
z
" transform="scale(0.015625)"/>
       </defs>
       <use xlink:href="#DejaVuSans-31"/>
       <use xlink:href="#DejaVuSans-2e" transform="translate(63.623047 0)"/>
       <use xlink:href="#DejaVuSans-32" transform="translate(95.410156 0)"/>
      </g>
     </g>
    </g>
    <g id="xtick_6">
     <g id="line2d_6">
      <g>
       <use xlink:href="#m03e0a3b564" x="340.782274" y="307.584" style="stroke: #000000; stroke-width: 0.8"/>
      </g>
     </g>
     <g id="text_6">
      <!-- 1.4 -->
      <g transform="translate(329.650087 325.221812) scale(0.14 -0.14)">
       <use xlink:href="#DejaVuSans-31"/>
       <use xlink:href="#DejaVuSans-2e" transform="translate(63.623047 0)"/>
       <use xlink:href="#DejaVuSans-34" transform="translate(95.410156 0)"/>
      </g>
     </g>
    </g>
    <g id="xtick_7">
     <g id="line2d_7">
      <g>
       <use xlink:href="#m03e0a3b564" x="394.164221" y="307.584" style="stroke: #000000; stroke-width: 0.8"/>
      </g>
     </g>
     <g id="text_7">
      <!-- 1.6 -->
      <g transform="translate(383.032034 325.221812) scale(0.14 -0.14)">
       <use xlink:href="#DejaVuSans-31"/>
       <use xlink:href="#DejaVuSans-2e" transform="translate(63.623047 0)"/>
       <use xlink:href="#DejaVuSans-36" transform="translate(95.410156 0)"/>
      </g>
     </g>
    </g>
    <g id="text_8">
     <!-- BJD - 2460000.0 [d] -->
     <g transform="translate(166.942031 342.771187) scale(0.14 -0.14)">
      <defs>
       <path id="DejaVuSans-42" d="M 1259 2228 
L 1259 519 
L 2272 519 
Q 2781 519 3026 730 
Q 3272 941 3272 1375 
Q 3272 1813 3026 2020 
Q 2781 2228 2272 2228 
L 1259 2228 
z
M 1259 4147 
L 1259 2741 
L 2194 2741 
Q 2656 2741 2882 2914 
Q 3109 3088 3109 3444 
Q 3109 3797 2882 3972 
Q 2656 4147 2194 4147 
L 1259 4147 
z
M 628 4666 
L 2241 4666 
Q 2963 4666 3353 4366 
Q 3744 4066 3744 3513 
Q 3744 3084 3544 2831 
Q 3344 2578 2956 2516 
Q 3422 2416 3680 2098 
Q 3938 1781 3938 1306 
Q 3938 681 3513 340 
Q 3088 0 2303 0 
L 628 0 
L 628 4666 
z
" transform="scale(0.015625)"/>
       <path id="DejaVuSans-4a" d="M 628 4666 
L 1259 4666 
L 1259 325 
Q 1259 -519 939 -900 
Q 619 -1281 -91 -1281 
L -331 -1281 
L -331 -750 
L -134 -750 
Q 284 -750 456 -515 
Q 628 -281 628 325 
L 628 4666 
z
" transform="scale(0.015625)"/>
       <path id="DejaVuSans-44" d="M 1259 4147 
L 1259 519 
L 2022 519 
Q 2988 519 3436 956 
Q 3884 1394 3884 2338 
Q 3884 3275 3436 3711 
Q 2988 4147 2022 4147 
L 1259 4147 
z
M 628 4666 
L 1925 4666 
Q 3281 4666 3915 4102 
Q 4550 3538 4550 2338 
Q 4550 1131 3912 565 
Q 3275 0 1925 0 
L 628 0 
L 628 4666 
z
" transform="scale(0.015625)"/>
       <path id="DejaVuSans-20" transform="scale(0.015625)"/>
       <path id="DejaVuSans-2d" d="M 313 2009 
L 1997 2009 
L 1997 1497 
L 313 1497 
L 313 2009 
z
" transform="scale(0.015625)"/>
       <path id="DejaVuSans-5b" d="M 550 4863 
L 1875 4863 
L 1875 4416 
L 1125 4416 
L 1125 -397 
L 1875 -397 
L 1875 -844 
L 550 -844 
L 550 4863 
z
" transform="scale(0.015625)"/>
       <path id="DejaVuSans-64" d="M 2906 2969 
L 2906 4863 
L 3481 4863 
L 3481 0 
L 2906 0 
L 2906 525 
Q 2725 213 2448 61 
Q 2172 -91 1784 -91 
Q 1150 -91 751 415 
Q 353 922 353 1747 
Q 353 2572 751 3078 
Q 1150 3584 1784 3584 
Q 2172 3584 2448 3432 
Q 2725 3281 2906 2969 
z
M 947 1747 
Q 947 1113 1208 752 
Q 1469 391 1925 391 
Q 2381 391 2643 752 
Q 2906 1113 2906 1747 
Q 2906 2381 2643 2742 
Q 2381 3103 1925 3103 
Q 1469 3103 1208 2742 
Q 947 2381 947 1747 
z
" transform="scale(0.015625)"/>
       <path id="DejaVuSans-5d" d="M 1947 4863 
L 1947 -844 
L 622 -844 
L 622 -397 
L 1369 -397 
L 1369 4416 
L 622 4416 
L 622 4863 
L 1947 4863 
z
" transform="scale(0.015625)"/>
      </defs>
      <use xlink:href="#DejaVuSans-42"/>
      <use xlink:href="#DejaVuSans-4a" transform="translate(68.603516 0)"/>
      <use xlink:href="#DejaVuSans-44" transform="translate(98.095703 0)"/>
      <use xlink:href="#DejaVuSans-20" transform="translate(175.097656 0)"/>
      <use xlink:href="#DejaVuSans-2d" transform="translate(206.884766 0)"/>
      <use xlink:href="#DejaVuSans-20" transform="translate(242.96875 0)"/>
      <use xlink:href="#DejaVuSans-32" transform="translate(274.755859 0)"/>
      <use xlink:href="#DejaVuSans-34" transform="translate(338.378906 0)"/>
      <use xlink:href="#DejaVuSans-36" transform="translate(402.001953 0)"/>
      <use xlink:href="#DejaVuSans-30" transform="translate(465.625 0)"/>
      <use xlink:href="#DejaVuSans-30" transform="translate(529.248047 0)"/>
      <use xlink:href="#DejaVuSans-30" transform="translate(592.871094 0)"/>
      <use xlink:href="#DejaVuSans-30" transform="translate(656.494141 0)"/>
      <use xlink:href="#DejaVuSans-2e" transform="translate(720.117188 0)"/>
      <use xlink:href="#DejaVuSans-30" transform="translate(751.904297 0)"/>
      <use xlink:href="#DejaVuSans-20" transform="translate(815.527344 0)"/>
      <use xlink:href="#DejaVuSans-5b" transform="translate(847.314453 0)"/>
      <use xlink:href="#DejaVuSans-64" transform="translate(886.328125 0)"/>
      <use xlink:href="#DejaVuSans-5d" transform="translate(949.804688 0)"/>
     </g>
    </g>
   </g>
   <g id="matplotlib.axis_2">
    <g id="ytick_1">
     <g id="line2d_8">
      <defs>
       <path id="m447210b29e" d="M 0 0 
L -3.5 0 
" style="stroke: #000000; stroke-width: 0.8"/>
      </defs>
      <g>
       <use xlink:href="#m447210b29e" x="57.6" y="285.766746" style="stroke: #000000; stroke-width: 0.8"/>
      </g>
     </g>
     <g id="text_9">
      <!-- −0.00025 -->
      <g transform="translate(-19.025938 291.085652) scale(0.14 -0.14)">
       <defs>
        <path id="DejaVuSans-2212" d="M 678 2272 
L 4684 2272 
L 4684 1741 
L 678 1741 
L 678 2272 
z
" transform="scale(0.015625)"/>
        <path id="DejaVuSans-35" d="M 691 4666 
L 3169 4666 
L 3169 4134 
L 1269 4134 
L 1269 2991 
Q 1406 3038 1543 3061 
Q 1681 3084 1819 3084 
Q 2600 3084 3056 2656 
Q 3513 2228 3513 1497 
Q 3513 744 3044 326 
Q 2575 -91 1722 -91 
Q 1428 -91 1123 -41 
Q 819 9 494 109 
L 494 744 
Q 775 591 1075 516 
Q 1375 441 1709 441 
Q 2250 441 2565 725 
Q 2881 1009 2881 1497 
Q 2881 1984 2565 2268 
Q 2250 2553 1709 2553 
Q 1456 2553 1204 2497 
Q 953 2441 691 2322 
L 691 4666 
z
" transform="scale(0.015625)"/>
       </defs>
       <use xlink:href="#DejaVuSans-2212"/>
       <use xlink:href="#DejaVuSans-30" transform="translate(83.789062 0)"/>
       <use xlink:href="#DejaVuSans-2e" transform="translate(147.412109 0)"/>
       <use xlink:href="#DejaVuSans-30" transform="translate(179.199219 0)"/>
       <use xlink:href="#DejaVuSans-30" transform="translate(242.822266 0)"/>
       <use xlink:href="#DejaVuSans-30" transform="translate(306.445312 0)"/>
       <use xlink:href="#DejaVuSans-32" transform="translate(370.068359 0)"/>
       <use xlink:href="#DejaVuSans-35" transform="translate(433.691406 0)"/>
      </g>
     </g>
    </g>
    <g id="ytick_2">
     <g id="line2d_9">
      <g>
       <use xlink:href="#m447210b29e" x="57.6" y="254.124262" style="stroke: #000000; stroke-width: 0.8"/>
      </g>
     </g>
     <g id="text_10">
      <!-- −0.00020 -->
      <g transform="translate(-19.025938 259.443169) scale(0.14 -0.14)">
       <use xlink:href="#DejaVuSans-2212"/>
       <use xlink:href="#DejaVuSans-30" transform="translate(83.789062 0)"/>
       <use xlink:href="#DejaVuSans-2e" transform="translate(147.412109 0)"/>
       <use xlink:href="#DejaVuSans-30" transform="translate(179.199219 0)"/>
       <use xlink:href="#DejaVuSans-30" transform="translate(242.822266 0)"/>
       <use xlink:href="#DejaVuSans-30" transform="translate(306.445312 0)"/>
       <use xlink:href="#DejaVuSans-32" transform="translate(370.068359 0)"/>
       <use xlink:href="#DejaVuSans-30" transform="translate(433.691406 0)"/>
      </g>
     </g>
    </g>
    <g id="ytick_3">
     <g id="line2d_10">
      <g>
       <use xlink:href="#m447210b29e" x="57.6" y="222.481779" style="stroke: #000000; stroke-width: 0.8"/>
      </g>
     </g>
     <g id="text_11">
      <!-- −0.00015 -->
      <g transform="translate(-19.025938 227.800686) scale(0.14 -0.14)">
       <use xlink:href="#DejaVuSans-2212"/>
       <use xlink:href="#DejaVuSans-30" transform="translate(83.789062 0)"/>
       <use xlink:href="#DejaVuSans-2e" transform="translate(147.412109 0)"/>
       <use xlink:href="#DejaVuSans-30" transform="translate(179.199219 0)"/>
       <use xlink:href="#DejaVuSans-30" transform="translate(242.822266 0)"/>
       <use xlink:href="#DejaVuSans-30" transform="translate(306.445312 0)"/>
       <use xlink:href="#DejaVuSans-31" transform="translate(370.068359 0)"/>
       <use xlink:href="#DejaVuSans-35" transform="translate(433.691406 0)"/>
      </g>
     </g>
    </g>
    <g id="ytick_4">
     <g id="line2d_11">
      <g>
       <use xlink:href="#m447210b29e" x="57.6" y="190.839296" style="stroke: #000000; stroke-width: 0.8"/>
      </g>
     </g>
     <g id="text_12">
      <!-- −0.00010 -->
      <g transform="translate(-19.025938 196.158203) scale(0.14 -0.14)">
       <use xlink:href="#DejaVuSans-2212"/>
       <use xlink:href="#DejaVuSans-30" transform="translate(83.789062 0)"/>
       <use xlink:href="#DejaVuSans-2e" transform="translate(147.412109 0)"/>
       <use xlink:href="#DejaVuSans-30" transform="translate(179.199219 0)"/>
       <use xlink:href="#DejaVuSans-30" transform="translate(242.822266 0)"/>
       <use xlink:href="#DejaVuSans-30" transform="translate(306.445312 0)"/>
       <use xlink:href="#DejaVuSans-31" transform="translate(370.068359 0)"/>
       <use xlink:href="#DejaVuSans-30" transform="translate(433.691406 0)"/>
      </g>
     </g>
    </g>
    <g id="ytick_5">
     <g id="line2d_12">
      <g>
       <use xlink:href="#m447210b29e" x="57.6" y="159.196813" style="stroke: #000000; stroke-width: 0.8"/>
      </g>
     </g>
     <g id="text_13">
      <!-- −0.00005 -->
      <g transform="translate(-19.025938 164.515719) scale(0.14 -0.14)">
       <use xlink:href="#DejaVuSans-2212"/>
       <use xlink:href="#DejaVuSans-30" transform="translate(83.789062 0)"/>
       <use xlink:href="#DejaVuSans-2e" transform="translate(147.412109 0)"/>
       <use xlink:href="#DejaVuSans-30" transform="translate(179.199219 0)"/>
       <use xlink:href="#DejaVuSans-30" transform="translate(242.822266 0)"/>
       <use xlink:href="#DejaVuSans-30" transform="translate(306.445312 0)"/>
       <use xlink:href="#DejaVuSans-30" transform="translate(370.068359 0)"/>
       <use xlink:href="#DejaVuSans-35" transform="translate(433.691406 0)"/>
      </g>
     </g>
    </g>
    <g id="ytick_6">
     <g id="line2d_13">
      <g>
       <use xlink:href="#m447210b29e" x="57.6" y="127.55433" style="stroke: #000000; stroke-width: 0.8"/>
      </g>
     </g>
     <g id="text_14">
      <!-- 0.00000 -->
      <g transform="translate(-7.294375 132.873236) scale(0.14 -0.14)">
       <use xlink:href="#DejaVuSans-30"/>
       <use xlink:href="#DejaVuSans-2e" transform="translate(63.623047 0)"/>
       <use xlink:href="#DejaVuSans-30" transform="translate(95.410156 0)"/>
       <use xlink:href="#DejaVuSans-30" transform="translate(159.033203 0)"/>
       <use xlink:href="#DejaVuSans-30" transform="translate(222.65625 0)"/>
       <use xlink:href="#DejaVuSans-30" transform="translate(286.279297 0)"/>
       <use xlink:href="#DejaVuSans-30" transform="translate(349.902344 0)"/>
      </g>
     </g>
    </g>
    <g id="ytick_7">
     <g id="line2d_14">
      <g>
       <use xlink:href="#m447210b29e" x="57.6" y="95.911847" style="stroke: #000000; stroke-width: 0.8"/>
      </g>
     </g>
     <g id="text_15">
      <!-- 0.00005 -->
      <g transform="translate(-7.294375 101.230753) scale(0.14 -0.14)">
       <use xlink:href="#DejaVuSans-30"/>
       <use xlink:href="#DejaVuSans-2e" transform="translate(63.623047 0)"/>
       <use xlink:href="#DejaVuSans-30" transform="translate(95.410156 0)"/>
       <use xlink:href="#DejaVuSans-30" transform="translate(159.033203 0)"/>
       <use xlink:href="#DejaVuSans-30" transform="translate(222.65625 0)"/>
       <use xlink:href="#DejaVuSans-30" transform="translate(286.279297 0)"/>
       <use xlink:href="#DejaVuSans-35" transform="translate(349.902344 0)"/>
      </g>
     </g>
    </g>
    <g id="ytick_8">
     <g id="line2d_15">
      <g>
       <use xlink:href="#m447210b29e" x="57.6" y="64.269364" style="stroke: #000000; stroke-width: 0.8"/>
      </g>
     </g>
     <g id="text_16">
      <!-- 0.00010 -->
      <g transform="translate(-7.294375 69.58827) scale(0.14 -0.14)">
       <use xlink:href="#DejaVuSans-30"/>
       <use xlink:href="#DejaVuSans-2e" transform="translate(63.623047 0)"/>
       <use xlink:href="#DejaVuSans-30" transform="translate(95.410156 0)"/>
       <use xlink:href="#DejaVuSans-30" transform="translate(159.033203 0)"/>
       <use xlink:href="#DejaVuSans-30" transform="translate(222.65625 0)"/>
       <use xlink:href="#DejaVuSans-31" transform="translate(286.279297 0)"/>
       <use xlink:href="#DejaVuSans-30" transform="translate(349.902344 0)"/>
      </g>
     </g>
    </g>
    <g id="text_17">
     <!-- $(F_p + F_{\bigstar})/F_{\bigstar}$ -->
     <g transform="translate(-27.365938 215.548) rotate(-90) scale(0.14 -0.14)">
      <defs>
       <path id="DejaVuSans-28" d="M 1984 4856 
Q 1566 4138 1362 3434 
Q 1159 2731 1159 2009 
Q 1159 1288 1364 580 
Q 1569 -128 1984 -844 
L 1484 -844 
Q 1016 -109 783 600 
Q 550 1309 550 2009 
Q 550 2706 781 3412 
Q 1013 4119 1484 4856 
L 1984 4856 
z
" transform="scale(0.015625)"/>
       <path id="DejaVuSans-Oblique-46" d="M 1081 4666 
L 3756 4666 
L 3653 4134 
L 1606 4134 
L 1338 2759 
L 3188 2759 
L 3084 2228 
L 1234 2228 
L 800 0 
L 172 0 
L 1081 4666 
z
" transform="scale(0.015625)"/>
       <path id="DejaVuSans-Oblique-70" d="M 3175 2156 
Q 3175 2616 2975 2859 
Q 2775 3103 2400 3103 
Q 2144 3103 1911 2972 
Q 1678 2841 1497 2591 
Q 1319 2344 1212 1994 
Q 1106 1644 1106 1300 
Q 1106 863 1306 627 
Q 1506 391 1875 391 
Q 2147 391 2380 519 
Q 2613 647 2778 891 
Q 2956 1147 3065 1494 
Q 3175 1841 3175 2156 
z
M 1394 2969 
Q 1625 3272 1939 3428 
Q 2253 3584 2638 3584 
Q 3175 3584 3472 3232 
Q 3769 2881 3769 2247 
Q 3769 1728 3584 1258 
Q 3400 788 3053 416 
Q 2822 169 2531 39 
Q 2241 -91 1919 -91 
Q 1547 -91 1294 64 
Q 1041 219 916 525 
L 556 -1331 
L -19 -1331 
L 922 3500 
L 1497 3500 
L 1394 2969 
z
" transform="scale(0.015625)"/>
       <path id="DejaVuSans-2b" d="M 2944 4013 
L 2944 2272 
L 4684 2272 
L 4684 1741 
L 2944 1741 
L 2944 0 
L 2419 0 
L 2419 1741 
L 678 1741 
L 678 2272 
L 2419 2272 
L 2419 4013 
L 2944 4013 
z
" transform="scale(0.015625)"/>
       <path id="DejaVuSans-2605" d="M 416 2850 
L 2288 2850 
L 2869 4628 
L 3453 2850 
L 5322 2850 
L 3809 1747 
L 4391 -28 
L 2869 1072 
L 1350 -28 
L 1928 1747 
L 416 2850 
z
" transform="scale(0.015625)"/>
       <path id="DejaVuSans-29" d="M 513 4856 
L 1013 4856 
Q 1481 4119 1714 3412 
Q 1947 2706 1947 2009 
Q 1947 1309 1714 600 
Q 1481 -109 1013 -844 
L 513 -844 
Q 928 -128 1133 580 
Q 1338 1288 1338 2009 
Q 1338 2731 1133 3434 
Q 928 4138 513 4856 
z
" transform="scale(0.015625)"/>
       <path id="DejaVuSans-2f" d="M 1625 4666 
L 2156 4666 
L 531 -594 
L 0 -594 
L 1625 4666 
z
" transform="scale(0.015625)"/>
      </defs>
      <use xlink:href="#DejaVuSans-28" transform="translate(0 0.125)"/>
      <use xlink:href="#DejaVuSans-Oblique-46" transform="translate(39.013672 0.125)"/>
      <use xlink:href="#DejaVuSans-Oblique-70" transform="translate(96.533203 -16.28125) scale(0.7)"/>
      <use xlink:href="#DejaVuSans-2b" transform="translate(163.183594 0.125)"/>
      <use xlink:href="#DejaVuSans-Oblique-46" transform="translate(266.455078 0.125)"/>
      <use xlink:href="#DejaVuSans-2605" transform="translate(323.974609 -16.28125) scale(0.7)"/>
      <use xlink:href="#DejaVuSans-29" transform="translate(389.462891 0.125)"/>
      <use xlink:href="#DejaVuSans-2f" transform="translate(428.476562 0.125)"/>
      <use xlink:href="#DejaVuSans-Oblique-46" transform="translate(462.167969 0.125)"/>
      <use xlink:href="#DejaVuSans-2605" transform="translate(519.6875 -16.28125) scale(0.7)"/>
     </g>
    </g>
    <g id="text_18">
     <!-- +1 -->
     <g transform="translate(57.6 38.472) scale(0.14 -0.14)">
      <use xlink:href="#DejaVuSans-2b"/>
      <use xlink:href="#DejaVuSans-31" transform="translate(83.789062 0)"/>
     </g>
    </g>
   </g>
   <g id="patch_3">
    <path d="M 57.6 307.584 
L 57.6 41.472 
" style="fill: none; stroke: #000000; stroke-width: 0.8; stroke-linejoin: miter; stroke-linecap: square"/>
   </g>
   <g id="patch_4">
    <path d="M 414.72 307.584 
L 414.72 41.472 
" style="fill: none; stroke: #000000; stroke-width: 0.8; stroke-linejoin: miter; stroke-linecap: square"/>
   </g>
   <g id="patch_5">
    <path d="M 57.6 307.584 
L 414.72 307.584 
" style="fill: none; stroke: #000000; stroke-width: 0.8; stroke-linejoin: miter; stroke-linecap: square"/>
   </g>
   <g id="patch_6">
    <path d="M 57.6 41.472 
L 414.72 41.472 
" style="fill: none; stroke: #000000; stroke-width: 0.8; stroke-linejoin: miter; stroke-linecap: square"/>
   </g>
   <g id="LineCollection_1">
    <path d="M 75.167143 111.696622 
L 75.167143 71.944894 
" clip-path="url(#p0f311a74df)" style="fill: none; stroke: #ff8000; stroke-width: 1.5"/>
    <path d="M 77.837922 123.630175 
L 77.837922 83.849442 
" clip-path="url(#p0f311a74df)" style="fill: none; stroke: #ff8000; stroke-width: 1.5"/>
    <path d="M 80.506753 123.627856 
L 80.506753 83.847122 
" clip-path="url(#p0f311a74df)" style="fill: none; stroke: #ff8000; stroke-width: 1.5"/>
    <path d="M 83.175584 167.945742 
L 83.175584 128.165009 
" clip-path="url(#p0f311a74df)" style="fill: none; stroke: #ff8000; stroke-width: 1.5"/>
    <path d="M 85.844416 163.965658 
L 85.844416 124.184924 
" clip-path="url(#p0f311a74df)" style="fill: none; stroke: #ff8000; stroke-width: 1.5"/>
    <path d="M 88.513247 147.858947 
L 88.513247 108.078213 
" clip-path="url(#p0f311a74df)" style="fill: none; stroke: #ff8000; stroke-width: 1.5"/>
    <path d="M 91.182078 135.31402 
L 91.182078 95.533287 
" clip-path="url(#p0f311a74df)" style="fill: none; stroke: #ff8000; stroke-width: 1.5"/>
    <path d="M 93.850909 143.401555 
L 93.850909 103.620821 
" clip-path="url(#p0f311a74df)" style="fill: none; stroke: #ff8000; stroke-width: 1.5"/>
    <path d="M 96.51974 148.433179 
L 96.51974 108.652446 
" clip-path="url(#p0f311a74df)" style="fill: none; stroke: #ff8000; stroke-width: 1.5"/>
    <path d="M 99.188571 167.73731 
L 99.188571 127.956577 
" clip-path="url(#p0f311a74df)" style="fill: none; stroke: #ff8000; stroke-width: 1.5"/>
    <path d="M 101.857403 169.605434 
L 101.857403 129.824701 
" clip-path="url(#p0f311a74df)" style="fill: none; stroke: #ff8000; stroke-width: 1.5"/>
    <path d="M 104.526234 156.52861 
L 104.526234 116.747876 
" clip-path="url(#p0f311a74df)" style="fill: none; stroke: #ff8000; stroke-width: 1.5"/>
    <path d="M 107.195065 165.384106 
L 107.195065 125.603373 
" clip-path="url(#p0f311a74df)" style="fill: none; stroke: #ff8000; stroke-width: 1.5"/>
    <path d="M 109.863896 100.219015 
L 109.863896 60.438282 
" clip-path="url(#p0f311a74df)" style="fill: none; stroke: #ff8000; stroke-width: 1.5"/>
    <path d="M 112.534675 112.20811 
L 112.534675 72.456382 
" clip-path="url(#p0f311a74df)" style="fill: none; stroke: #ff8000; stroke-width: 1.5"/>
    <path d="M 115.205455 113.704028 
L 115.205455 73.923295 
" clip-path="url(#p0f311a74df)" style="fill: none; stroke: #ff8000; stroke-width: 1.5"/>
    <path d="M 117.874286 147.218844 
L 117.874286 107.438111 
" clip-path="url(#p0f311a74df)" style="fill: none; stroke: #ff8000; stroke-width: 1.5"/>
    <path d="M 120.543117 93.666904 
L 120.543117 53.886171 
" clip-path="url(#p0f311a74df)" style="fill: none; stroke: #ff8000; stroke-width: 1.5"/>
    <path d="M 123.211948 152.366132 
L 123.211948 112.585398 
" clip-path="url(#p0f311a74df)" style="fill: none; stroke: #ff8000; stroke-width: 1.5"/>
    <path d="M 125.880779 141.991269 
L 125.880779 102.210536 
" clip-path="url(#p0f311a74df)" style="fill: none; stroke: #ff8000; stroke-width: 1.5"/>
    <path d="M 128.54961 131.487039 
L 128.54961 91.706306 
" clip-path="url(#p0f311a74df)" style="fill: none; stroke: #ff8000; stroke-width: 1.5"/>
    <path d="M 131.218442 143.381679 
L 131.218442 103.600946 
" clip-path="url(#p0f311a74df)" style="fill: none; stroke: #ff8000; stroke-width: 1.5"/>
    <path d="M 133.887273 139.51291 
L 133.887273 99.732177 
" clip-path="url(#p0f311a74df)" style="fill: none; stroke: #ff8000; stroke-width: 1.5"/>
    <path d="M 136.556104 122.865581 
L 136.556104 83.084848 
" clip-path="url(#p0f311a74df)" style="fill: none; stroke: #ff8000; stroke-width: 1.5"/>
    <path d="M 139.224935 107.939604 
L 139.224935 68.158871 
" clip-path="url(#p0f311a74df)" style="fill: none; stroke: #ff8000; stroke-width: 1.5"/>
    <path d="M 141.893766 128.683055 
L 141.893766 88.902321 
" clip-path="url(#p0f311a74df)" style="fill: none; stroke: #ff8000; stroke-width: 1.5"/>
    <path d="M 144.562597 115.124086 
L 144.562597 75.343352 
" clip-path="url(#p0f311a74df)" style="fill: none; stroke: #ff8000; stroke-width: 1.5"/>
    <path d="M 147.231429 146.716054 
L 147.231429 106.93532 
" clip-path="url(#p0f311a74df)" style="fill: none; stroke: #ff8000; stroke-width: 1.5"/>
    <path d="M 149.90026 105.442536 
L 149.90026 65.661803 
" clip-path="url(#p0f311a74df)" style="fill: none; stroke: #ff8000; stroke-width: 1.5"/>
    <path d="M 152.571039 133.698886 
L 152.571039 93.947158 
" clip-path="url(#p0f311a74df)" style="fill: none; stroke: #ff8000; stroke-width: 1.5"/>
    <path d="M 155.241818 148.946245 
L 155.241818 109.165512 
" clip-path="url(#p0f311a74df)" style="fill: none; stroke: #ff8000; stroke-width: 1.5"/>
    <path d="M 157.910649 171.331154 
L 157.910649 131.550421 
" clip-path="url(#p0f311a74df)" style="fill: none; stroke: #ff8000; stroke-width: 1.5"/>
    <path d="M 160.579481 133.35522 
L 160.579481 93.574487 
" clip-path="url(#p0f311a74df)" style="fill: none; stroke: #ff8000; stroke-width: 1.5"/>
    <path d="M 163.248312 160.632311 
L 163.248312 120.851578 
" clip-path="url(#p0f311a74df)" style="fill: none; stroke: #ff8000; stroke-width: 1.5"/>
    <path d="M 165.917143 115.295364 
L 165.917143 75.514631 
" clip-path="url(#p0f311a74df)" style="fill: none; stroke: #ff8000; stroke-width: 1.5"/>
    <path d="M 168.585974 144.496314 
L 168.585974 104.71558 
" clip-path="url(#p0f311a74df)" style="fill: none; stroke: #ff8000; stroke-width: 1.5"/>
    <path d="M 171.254805 142.912651 
L 171.254805 103.131918 
" clip-path="url(#p0f311a74df)" style="fill: none; stroke: #ff8000; stroke-width: 1.5"/>
    <path d="M 173.923636 157.564592 
L 173.923636 117.783859 
" clip-path="url(#p0f311a74df)" style="fill: none; stroke: #ff8000; stroke-width: 1.5"/>
    <path d="M 176.592468 152.936293 
L 176.592468 113.15556 
" clip-path="url(#p0f311a74df)" style="fill: none; stroke: #ff8000; stroke-width: 1.5"/>
    <path d="M 179.261299 148.040247 
L 179.261299 108.259513 
" clip-path="url(#p0f311a74df)" style="fill: none; stroke: #ff8000; stroke-width: 1.5"/>
    <path d="M 181.93013 178.677624 
L 181.93013 138.896891 
" clip-path="url(#p0f311a74df)" style="fill: none; stroke: #ff8000; stroke-width: 1.5"/>
    <path d="M 184.598961 161.94039 
L 184.598961 122.159657 
" clip-path="url(#p0f311a74df)" style="fill: none; stroke: #ff8000; stroke-width: 1.5"/>
    <path d="M 187.267792 153.710844 
L 187.267792 113.930111 
" clip-path="url(#p0f311a74df)" style="fill: none; stroke: #ff8000; stroke-width: 1.5"/>
    <path d="M 189.938571 147.275518 
L 189.938571 107.523789 
" clip-path="url(#p0f311a74df)" style="fill: none; stroke: #ff8000; stroke-width: 1.5"/>
    <path d="M 192.609351 161.800065 
L 192.609351 122.019331 
" clip-path="url(#p0f311a74df)" style="fill: none; stroke: #ff8000; stroke-width: 1.5"/>
    <path d="M 195.278182 153.316605 
L 195.278182 113.535871 
" clip-path="url(#p0f311a74df)" style="fill: none; stroke: #ff8000; stroke-width: 1.5"/>
    <path d="M 197.947013 154.308512 
L 197.947013 114.527779 
" clip-path="url(#p0f311a74df)" style="fill: none; stroke: #ff8000; stroke-width: 1.5"/>
    <path d="M 200.615844 158.05105 
L 200.615844 118.270317 
" clip-path="url(#p0f311a74df)" style="fill: none; stroke: #ff8000; stroke-width: 1.5"/>
    <path d="M 203.284675 200.777169 
L 203.284675 160.996436 
" clip-path="url(#p0f311a74df)" style="fill: none; stroke: #ff8000; stroke-width: 1.5"/>
    <path d="M 205.953506 108.038099 
L 205.953506 68.257366 
" clip-path="url(#p0f311a74df)" style="fill: none; stroke: #ff8000; stroke-width: 1.5"/>
    <path d="M 208.622338 137.562919 
L 208.622338 97.782185 
" clip-path="url(#p0f311a74df)" style="fill: none; stroke: #ff8000; stroke-width: 1.5"/>
    <path d="M 211.291169 204.514383 
L 211.291169 164.73365 
" clip-path="url(#p0f311a74df)" style="fill: none; stroke: #ff8000; stroke-width: 1.5"/>
    <path d="M 213.96 129.905844 
L 213.96 90.125111 
" clip-path="url(#p0f311a74df)" style="fill: none; stroke: #ff8000; stroke-width: 1.5"/>
    <path d="M 216.628831 153.766227 
L 216.628831 113.985493 
" clip-path="url(#p0f311a74df)" style="fill: none; stroke: #ff8000; stroke-width: 1.5"/>
    <path d="M 219.297662 163.425028 
L 219.297662 123.644295 
" clip-path="url(#p0f311a74df)" style="fill: none; stroke: #ff8000; stroke-width: 1.5"/>
    <path d="M 221.966494 143.572936 
L 221.966494 103.792202 
" clip-path="url(#p0f311a74df)" style="fill: none; stroke: #ff8000; stroke-width: 1.5"/>
    <path d="M 224.635325 166.087629 
L 224.635325 126.306896 
" clip-path="url(#p0f311a74df)" style="fill: none; stroke: #ff8000; stroke-width: 1.5"/>
    <path d="M 227.304156 190.841904 
L 227.304156 151.06117 
" clip-path="url(#p0f311a74df)" style="fill: none; stroke: #ff8000; stroke-width: 1.5"/>
    <path d="M 229.974935 272.16157 
L 229.974935 232.409841 
" clip-path="url(#p0f311a74df)" style="fill: none; stroke: #ff8000; stroke-width: 1.5"/>
    <path d="M 232.645714 263.23179 
L 232.645714 223.451056 
" clip-path="url(#p0f311a74df)" style="fill: none; stroke: #ff8000; stroke-width: 1.5"/>
    <path d="M 235.314545 295.488 
L 235.314545 255.707267 
" clip-path="url(#p0f311a74df)" style="fill: none; stroke: #ff8000; stroke-width: 1.5"/>
    <path d="M 237.983377 285.496687 
L 237.983377 245.715954 
" clip-path="url(#p0f311a74df)" style="fill: none; stroke: #ff8000; stroke-width: 1.5"/>
    <path d="M 240.652208 287.044357 
L 240.652208 247.263624 
" clip-path="url(#p0f311a74df)" style="fill: none; stroke: #ff8000; stroke-width: 1.5"/>
    <path d="M 243.321039 225.75599 
L 243.321039 185.975257 
" clip-path="url(#p0f311a74df)" style="fill: none; stroke: #ff8000; stroke-width: 1.5"/>
    <path d="M 245.98987 130.27428 
L 245.98987 90.493547 
" clip-path="url(#p0f311a74df)" style="fill: none; stroke: #ff8000; stroke-width: 1.5"/>
    <path d="M 248.658701 152.983839 
L 248.658701 113.203105 
" clip-path="url(#p0f311a74df)" style="fill: none; stroke: #ff8000; stroke-width: 1.5"/>
    <path d="M 251.327532 174.471781 
L 251.327532 134.691048 
" clip-path="url(#p0f311a74df)" style="fill: none; stroke: #ff8000; stroke-width: 1.5"/>
    <path d="M 253.996364 134.714894 
L 253.996364 94.934161 
" clip-path="url(#p0f311a74df)" style="fill: none; stroke: #ff8000; stroke-width: 1.5"/>
    <path d="M 256.665195 126.283233 
L 256.665195 86.5025 
" clip-path="url(#p0f311a74df)" style="fill: none; stroke: #ff8000; stroke-width: 1.5"/>
    <path d="M 259.334026 128.994086 
L 259.334026 89.213353 
" clip-path="url(#p0f311a74df)" style="fill: none; stroke: #ff8000; stroke-width: 1.5"/>
    <path d="M 262.002857 138.599272 
L 262.002857 98.818538 
" clip-path="url(#p0f311a74df)" style="fill: none; stroke: #ff8000; stroke-width: 1.5"/>
    <path d="M 264.671688 160.571584 
L 264.671688 120.790851 
" clip-path="url(#p0f311a74df)" style="fill: none; stroke: #ff8000; stroke-width: 1.5"/>
    <path d="M 267.340519 132.480766 
L 267.340519 92.700033 
" clip-path="url(#p0f311a74df)" style="fill: none; stroke: #ff8000; stroke-width: 1.5"/>
    <path d="M 270.011299 147.177735 
L 270.011299 107.426007 
" clip-path="url(#p0f311a74df)" style="fill: none; stroke: #ff8000; stroke-width: 1.5"/>
    <path d="M 272.682078 139.224606 
L 272.682078 99.443873 
" clip-path="url(#p0f311a74df)" style="fill: none; stroke: #ff8000; stroke-width: 1.5"/>
    <path d="M 275.350909 162.06285 
L 275.350909 122.282117 
" clip-path="url(#p0f311a74df)" style="fill: none; stroke: #ff8000; stroke-width: 1.5"/>
    <path d="M 278.01974 133.438991 
L 278.01974 93.658258 
" clip-path="url(#p0f311a74df)" style="fill: none; stroke: #ff8000; stroke-width: 1.5"/>
    <path d="M 280.688571 143.75072 
L 280.688571 103.969987 
" clip-path="url(#p0f311a74df)" style="fill: none; stroke: #ff8000; stroke-width: 1.5"/>
    <path d="M 283.357403 98.81253 
L 283.357403 59.031797 
" clip-path="url(#p0f311a74df)" style="fill: none; stroke: #ff8000; stroke-width: 1.5"/>
    <path d="M 286.026234 150.059514 
L 286.026234 110.278781 
" clip-path="url(#p0f311a74df)" style="fill: none; stroke: #ff8000; stroke-width: 1.5"/>
    <path d="M 288.695065 133.758615 
L 288.695065 93.977882 
" clip-path="url(#p0f311a74df)" style="fill: none; stroke: #ff8000; stroke-width: 1.5"/>
    <path d="M 291.363896 138.767081 
L 291.363896 98.986348 
" clip-path="url(#p0f311a74df)" style="fill: none; stroke: #ff8000; stroke-width: 1.5"/>
    <path d="M 294.032727 96.311736 
L 294.032727 56.531003 
" clip-path="url(#p0f311a74df)" style="fill: none; stroke: #ff8000; stroke-width: 1.5"/>
    <path d="M 296.701558 134.210694 
L 296.701558 94.429961 
" clip-path="url(#p0f311a74df)" style="fill: none; stroke: #ff8000; stroke-width: 1.5"/>
    <path d="M 299.37039 144.015476 
L 299.37039 104.234742 
" clip-path="url(#p0f311a74df)" style="fill: none; stroke: #ff8000; stroke-width: 1.5"/>
    <path d="M 302.039221 118.4786 
L 302.039221 78.697867 
" clip-path="url(#p0f311a74df)" style="fill: none; stroke: #ff8000; stroke-width: 1.5"/>
    <path d="M 304.708052 155.520197 
L 304.708052 115.739463 
" clip-path="url(#p0f311a74df)" style="fill: none; stroke: #ff8000; stroke-width: 1.5"/>
    <path d="M 307.378831 117.593749 
L 307.378831 77.842021 
" clip-path="url(#p0f311a74df)" style="fill: none; stroke: #ff8000; stroke-width: 1.5"/>
    <path d="M 310.04961 149.145238 
L 310.04961 109.364505 
" clip-path="url(#p0f311a74df)" style="fill: none; stroke: #ff8000; stroke-width: 1.5"/>
    <path d="M 312.718442 167.562701 
L 312.718442 127.781967 
" clip-path="url(#p0f311a74df)" style="fill: none; stroke: #ff8000; stroke-width: 1.5"/>
    <path d="M 315.387273 139.261826 
L 315.387273 99.481092 
" clip-path="url(#p0f311a74df)" style="fill: none; stroke: #ff8000; stroke-width: 1.5"/>
    <path d="M 318.056104 159.121025 
L 318.056104 119.340291 
" clip-path="url(#p0f311a74df)" style="fill: none; stroke: #ff8000; stroke-width: 1.5"/>
    <path d="M 320.724935 118.460379 
L 320.724935 78.679645 
" clip-path="url(#p0f311a74df)" style="fill: none; stroke: #ff8000; stroke-width: 1.5"/>
    <path d="M 323.393766 157.409392 
L 323.393766 117.628658 
" clip-path="url(#p0f311a74df)" style="fill: none; stroke: #ff8000; stroke-width: 1.5"/>
    <path d="M 326.062597 138.974984 
L 326.062597 99.19425 
" clip-path="url(#p0f311a74df)" style="fill: none; stroke: #ff8000; stroke-width: 1.5"/>
    <path d="M 328.731429 130.893422 
L 328.731429 91.112688 
" clip-path="url(#p0f311a74df)" style="fill: none; stroke: #ff8000; stroke-width: 1.5"/>
    <path d="M 331.40026 127.523911 
L 331.40026 87.743178 
" clip-path="url(#p0f311a74df)" style="fill: none; stroke: #ff8000; stroke-width: 1.5"/>
    <path d="M 334.069091 138.058771 
L 334.069091 98.278037 
" clip-path="url(#p0f311a74df)" style="fill: none; stroke: #ff8000; stroke-width: 1.5"/>
    <path d="M 336.737922 136.922123 
L 336.737922 97.141389 
" clip-path="url(#p0f311a74df)" style="fill: none; stroke: #ff8000; stroke-width: 1.5"/>
    <path d="M 339.406753 111.888213 
L 339.406753 72.107479 
" clip-path="url(#p0f311a74df)" style="fill: none; stroke: #ff8000; stroke-width: 1.5"/>
    <path d="M 342.075584 136.625573 
L 342.075584 96.844839 
" clip-path="url(#p0f311a74df)" style="fill: none; stroke: #ff8000; stroke-width: 1.5"/>
    <path d="M 344.744416 110.701169 
L 344.744416 70.920435 
" clip-path="url(#p0f311a74df)" style="fill: none; stroke: #ff8000; stroke-width: 1.5"/>
    <path d="M 347.415195 119.750511 
L 347.415195 79.998783 
" clip-path="url(#p0f311a74df)" style="fill: none; stroke: #ff8000; stroke-width: 1.5"/>
    <path d="M 350.085974 132.212761 
L 350.085974 92.432028 
" clip-path="url(#p0f311a74df)" style="fill: none; stroke: #ff8000; stroke-width: 1.5"/>
    <path d="M 352.754805 106.596428 
L 352.754805 66.815694 
" clip-path="url(#p0f311a74df)" style="fill: none; stroke: #ff8000; stroke-width: 1.5"/>
    <path d="M 355.423636 141.614519 
L 355.423636 101.833786 
" clip-path="url(#p0f311a74df)" style="fill: none; stroke: #ff8000; stroke-width: 1.5"/>
    <path d="M 358.092468 111.611106 
L 358.092468 71.830373 
" clip-path="url(#p0f311a74df)" style="fill: none; stroke: #ff8000; stroke-width: 1.5"/>
    <path d="M 360.761299 93.348733 
L 360.761299 53.568 
" clip-path="url(#p0f311a74df)" style="fill: none; stroke: #ff8000; stroke-width: 1.5"/>
    <path d="M 363.43013 170.777884 
L 363.43013 130.997151 
" clip-path="url(#p0f311a74df)" style="fill: none; stroke: #ff8000; stroke-width: 1.5"/>
    <path d="M 366.098961 137.416095 
L 366.098961 97.635362 
" clip-path="url(#p0f311a74df)" style="fill: none; stroke: #ff8000; stroke-width: 1.5"/>
    <path d="M 368.767792 138.685314 
L 368.767792 98.904581 
" clip-path="url(#p0f311a74df)" style="fill: none; stroke: #ff8000; stroke-width: 1.5"/>
    <path d="M 371.436623 153.10363 
L 371.436623 113.322897 
" clip-path="url(#p0f311a74df)" style="fill: none; stroke: #ff8000; stroke-width: 1.5"/>
    <path d="M 374.105455 170.704727 
L 374.105455 130.923994 
" clip-path="url(#p0f311a74df)" style="fill: none; stroke: #ff8000; stroke-width: 1.5"/>
    <path d="M 376.774286 133.924486 
L 376.774286 94.143752 
" clip-path="url(#p0f311a74df)" style="fill: none; stroke: #ff8000; stroke-width: 1.5"/>
    <path d="M 379.443117 144.690716 
L 379.443117 104.909983 
" clip-path="url(#p0f311a74df)" style="fill: none; stroke: #ff8000; stroke-width: 1.5"/>
    <path d="M 382.111948 162.825999 
L 382.111948 123.045266 
" clip-path="url(#p0f311a74df)" style="fill: none; stroke: #ff8000; stroke-width: 1.5"/>
    <path d="M 384.780779 189.893504 
L 384.780779 150.112771 
" clip-path="url(#p0f311a74df)" style="fill: none; stroke: #ff8000; stroke-width: 1.5"/>
    <path d="M 387.451558 110.185491 
L 387.451558 70.433763 
" clip-path="url(#p0f311a74df)" style="fill: none; stroke: #ff8000; stroke-width: 1.5"/>
    <path d="M 390.122338 115.294849 
L 390.122338 75.514116 
" clip-path="url(#p0f311a74df)" style="fill: none; stroke: #ff8000; stroke-width: 1.5"/>
    <path d="M 392.791169 106.52277 
L 392.791169 66.742036 
" clip-path="url(#p0f311a74df)" style="fill: none; stroke: #ff8000; stroke-width: 1.5"/>
    <path d="M 395.46 121.474246 
L 395.46 81.693512 
" clip-path="url(#p0f311a74df)" style="fill: none; stroke: #ff8000; stroke-width: 1.5"/>
    <path d="M 397.641818 163.570398 
L 397.641818 113.650529 
" clip-path="url(#p0f311a74df)" style="fill: none; stroke: #ff8000; stroke-width: 1.5"/>
   </g>
   <g id="text_19">
    <!-- Phase curve at $\lambda$ = 1.54 $\mu$m with NIRSpec -->
    <g transform="translate(68.96 21.834187) scale(0.16 -0.16)">
     <defs>
      <path id="DejaVuSans-50" d="M 1259 4147 
L 1259 2394 
L 2053 2394 
Q 2494 2394 2734 2622 
Q 2975 2850 2975 3272 
Q 2975 3691 2734 3919 
Q 2494 4147 2053 4147 
L 1259 4147 
z
M 628 4666 
L 2053 4666 
Q 2838 4666 3239 4311 
Q 3641 3956 3641 3272 
Q 3641 2581 3239 2228 
Q 2838 1875 2053 1875 
L 1259 1875 
L 1259 0 
L 628 0 
L 628 4666 
z
" transform="scale(0.015625)"/>
      <path id="DejaVuSans-68" d="M 3513 2113 
L 3513 0 
L 2938 0 
L 2938 2094 
Q 2938 2591 2744 2837 
Q 2550 3084 2163 3084 
Q 1697 3084 1428 2787 
Q 1159 2491 1159 1978 
L 1159 0 
L 581 0 
L 581 4863 
L 1159 4863 
L 1159 2956 
Q 1366 3272 1645 3428 
Q 1925 3584 2291 3584 
Q 2894 3584 3203 3211 
Q 3513 2838 3513 2113 
z
" transform="scale(0.015625)"/>
      <path id="DejaVuSans-61" d="M 2194 1759 
Q 1497 1759 1228 1600 
Q 959 1441 959 1056 
Q 959 750 1161 570 
Q 1363 391 1709 391 
Q 2188 391 2477 730 
Q 2766 1069 2766 1631 
L 2766 1759 
L 2194 1759 
z
M 3341 1997 
L 3341 0 
L 2766 0 
L 2766 531 
Q 2569 213 2275 61 
Q 1981 -91 1556 -91 
Q 1019 -91 701 211 
Q 384 513 384 1019 
Q 384 1609 779 1909 
Q 1175 2209 1959 2209 
L 2766 2209 
L 2766 2266 
Q 2766 2663 2505 2880 
Q 2244 3097 1772 3097 
Q 1472 3097 1187 3025 
Q 903 2953 641 2809 
L 641 3341 
Q 956 3463 1253 3523 
Q 1550 3584 1831 3584 
Q 2591 3584 2966 3190 
Q 3341 2797 3341 1997 
z
" transform="scale(0.015625)"/>
      <path id="DejaVuSans-73" d="M 2834 3397 
L 2834 2853 
Q 2591 2978 2328 3040 
Q 2066 3103 1784 3103 
Q 1356 3103 1142 2972 
Q 928 2841 928 2578 
Q 928 2378 1081 2264 
Q 1234 2150 1697 2047 
L 1894 2003 
Q 2506 1872 2764 1633 
Q 3022 1394 3022 966 
Q 3022 478 2636 193 
Q 2250 -91 1575 -91 
Q 1294 -91 989 -36 
Q 684 19 347 128 
L 347 722 
Q 666 556 975 473 
Q 1284 391 1588 391 
Q 1994 391 2212 530 
Q 2431 669 2431 922 
Q 2431 1156 2273 1281 
Q 2116 1406 1581 1522 
L 1381 1569 
Q 847 1681 609 1914 
Q 372 2147 372 2553 
Q 372 3047 722 3315 
Q 1072 3584 1716 3584 
Q 2034 3584 2315 3537 
Q 2597 3491 2834 3397 
z
" transform="scale(0.015625)"/>
      <path id="DejaVuSans-65" d="M 3597 1894 
L 3597 1613 
L 953 1613 
Q 991 1019 1311 708 
Q 1631 397 2203 397 
Q 2534 397 2845 478 
Q 3156 559 3463 722 
L 3463 178 
Q 3153 47 2828 -22 
Q 2503 -91 2169 -91 
Q 1331 -91 842 396 
Q 353 884 353 1716 
Q 353 2575 817 3079 
Q 1281 3584 2069 3584 
Q 2775 3584 3186 3129 
Q 3597 2675 3597 1894 
z
M 3022 2063 
Q 3016 2534 2758 2815 
Q 2500 3097 2075 3097 
Q 1594 3097 1305 2825 
Q 1016 2553 972 2059 
L 3022 2063 
z
" transform="scale(0.015625)"/>
      <path id="DejaVuSans-63" d="M 3122 3366 
L 3122 2828 
Q 2878 2963 2633 3030 
Q 2388 3097 2138 3097 
Q 1578 3097 1268 2742 
Q 959 2388 959 1747 
Q 959 1106 1268 751 
Q 1578 397 2138 397 
Q 2388 397 2633 464 
Q 2878 531 3122 666 
L 3122 134 
Q 2881 22 2623 -34 
Q 2366 -91 2075 -91 
Q 1284 -91 818 406 
Q 353 903 353 1747 
Q 353 2603 823 3093 
Q 1294 3584 2113 3584 
Q 2378 3584 2631 3529 
Q 2884 3475 3122 3366 
z
" transform="scale(0.015625)"/>
      <path id="DejaVuSans-75" d="M 544 1381 
L 544 3500 
L 1119 3500 
L 1119 1403 
Q 1119 906 1312 657 
Q 1506 409 1894 409 
Q 2359 409 2629 706 
Q 2900 1003 2900 1516 
L 2900 3500 
L 3475 3500 
L 3475 0 
L 2900 0 
L 2900 538 
Q 2691 219 2414 64 
Q 2138 -91 1772 -91 
Q 1169 -91 856 284 
Q 544 659 544 1381 
z
M 1991 3584 
L 1991 3584 
z
" transform="scale(0.015625)"/>
      <path id="DejaVuSans-72" d="M 2631 2963 
Q 2534 3019 2420 3045 
Q 2306 3072 2169 3072 
Q 1681 3072 1420 2755 
Q 1159 2438 1159 1844 
L 1159 0 
L 581 0 
L 581 3500 
L 1159 3500 
L 1159 2956 
Q 1341 3275 1631 3429 
Q 1922 3584 2338 3584 
Q 2397 3584 2469 3576 
Q 2541 3569 2628 3553 
L 2631 2963 
z
" transform="scale(0.015625)"/>
      <path id="DejaVuSans-76" d="M 191 3500 
L 800 3500 
L 1894 563 
L 2988 3500 
L 3597 3500 
L 2284 0 
L 1503 0 
L 191 3500 
z
" transform="scale(0.015625)"/>
      <path id="DejaVuSans-74" d="M 1172 4494 
L 1172 3500 
L 2356 3500 
L 2356 3053 
L 1172 3053 
L 1172 1153 
Q 1172 725 1289 603 
Q 1406 481 1766 481 
L 2356 481 
L 2356 0 
L 1766 0 
Q 1100 0 847 248 
Q 594 497 594 1153 
L 594 3053 
L 172 3053 
L 172 3500 
L 594 3500 
L 594 4494 
L 1172 4494 
z
" transform="scale(0.015625)"/>
      <path id="DejaVuSans-Oblique-3bb" d="M 2350 4316 
L 3125 0 
L 2516 0 
L 2038 2588 
L 328 0 
L -281 0 
L 1903 3356 
L 1794 3975 
Q 1725 4369 1391 4369 
L 1091 4369 
L 1184 4863 
L 1550 4856 
Q 2253 4847 2350 4316 
z
" transform="scale(0.015625)"/>
      <path id="DejaVuSans-3d" d="M 678 2906 
L 4684 2906 
L 4684 2381 
L 678 2381 
L 678 2906 
z
M 678 1631 
L 4684 1631 
L 4684 1100 
L 678 1100 
L 678 1631 
z
" transform="scale(0.015625)"/>
      <path id="DejaVuSans-Oblique-3bc" d="M -84 -1331 
L 856 3500 
L 1434 3500 
L 1009 1322 
Q 997 1256 987 1175 
Q 978 1094 978 1013 
Q 978 722 1161 565 
Q 1344 409 1684 409 
Q 2147 409 2431 671 
Q 2716 934 2816 1459 
L 3213 3500 
L 3788 3500 
L 3266 809 
Q 3253 750 3248 706 
Q 3244 663 3244 628 
Q 3244 531 3283 486 
Q 3322 441 3406 441 
Q 3438 441 3492 456 
Q 3547 472 3647 513 
L 3559 50 
Q 3422 -19 3297 -55 
Q 3172 -91 3053 -91 
Q 2847 -91 2730 40 
Q 2613 172 2613 403 
Q 2438 153 2195 31 
Q 1953 -91 1625 -91 
Q 1334 -91 1117 43 
Q 900 178 831 397 
L 494 -1331 
L -84 -1331 
z
" transform="scale(0.015625)"/>
      <path id="DejaVuSans-6d" d="M 3328 2828 
Q 3544 3216 3844 3400 
Q 4144 3584 4550 3584 
Q 5097 3584 5394 3201 
Q 5691 2819 5691 2113 
L 5691 0 
L 5113 0 
L 5113 2094 
Q 5113 2597 4934 2840 
Q 4756 3084 4391 3084 
Q 3944 3084 3684 2787 
Q 3425 2491 3425 1978 
L 3425 0 
L 2847 0 
L 2847 2094 
Q 2847 2600 2669 2842 
Q 2491 3084 2119 3084 
Q 1678 3084 1418 2786 
Q 1159 2488 1159 1978 
L 1159 0 
L 581 0 
L 581 3500 
L 1159 3500 
L 1159 2956 
Q 1356 3278 1631 3431 
Q 1906 3584 2284 3584 
Q 2666 3584 2933 3390 
Q 3200 3197 3328 2828 
z
" transform="scale(0.015625)"/>
      <path id="DejaVuSans-77" d="M 269 3500 
L 844 3500 
L 1563 769 
L 2278 3500 
L 2956 3500 
L 3675 769 
L 4391 3500 
L 4966 3500 
L 4050 0 
L 3372 0 
L 2619 2869 
L 1863 0 
L 1184 0 
L 269 3500 
z
" transform="scale(0.015625)"/>
      <path id="DejaVuSans-69" d="M 603 3500 
L 1178 3500 
L 1178 0 
L 603 0 
L 603 3500 
z
M 603 4863 
L 1178 4863 
L 1178 4134 
L 603 4134 
L 603 4863 
z
" transform="scale(0.015625)"/>
      <path id="DejaVuSans-4e" d="M 628 4666 
L 1478 4666 
L 3547 763 
L 3547 4666 
L 4159 4666 
L 4159 0 
L 3309 0 
L 1241 3903 
L 1241 0 
L 628 0 
L 628 4666 
z
" transform="scale(0.015625)"/>
      <path id="DejaVuSans-49" d="M 628 4666 
L 1259 4666 
L 1259 0 
L 628 0 
L 628 4666 
z
" transform="scale(0.015625)"/>
      <path id="DejaVuSans-52" d="M 2841 2188 
Q 3044 2119 3236 1894 
Q 3428 1669 3622 1275 
L 4263 0 
L 3584 0 
L 2988 1197 
Q 2756 1666 2539 1819 
Q 2322 1972 1947 1972 
L 1259 1972 
L 1259 0 
L 628 0 
L 628 4666 
L 2053 4666 
Q 2853 4666 3247 4331 
Q 3641 3997 3641 3322 
Q 3641 2881 3436 2590 
Q 3231 2300 2841 2188 
z
M 1259 4147 
L 1259 2491 
L 2053 2491 
Q 2509 2491 2742 2702 
Q 2975 2913 2975 3322 
Q 2975 3731 2742 3939 
Q 2509 4147 2053 4147 
L 1259 4147 
z
" transform="scale(0.015625)"/>
      <path id="DejaVuSans-53" d="M 3425 4513 
L 3425 3897 
Q 3066 4069 2747 4153 
Q 2428 4238 2131 4238 
Q 1616 4238 1336 4038 
Q 1056 3838 1056 3469 
Q 1056 3159 1242 3001 
Q 1428 2844 1947 2747 
L 2328 2669 
Q 3034 2534 3370 2195 
Q 3706 1856 3706 1288 
Q 3706 609 3251 259 
Q 2797 -91 1919 -91 
Q 1588 -91 1214 -16 
Q 841 59 441 206 
L 441 856 
Q 825 641 1194 531 
Q 1563 422 1919 422 
Q 2459 422 2753 634 
Q 3047 847 3047 1241 
Q 3047 1584 2836 1778 
Q 2625 1972 2144 2069 
L 1759 2144 
Q 1053 2284 737 2584 
Q 422 2884 422 3419 
Q 422 4038 858 4394 
Q 1294 4750 2059 4750 
Q 2388 4750 2728 4690 
Q 3069 4631 3425 4513 
z
" transform="scale(0.015625)"/>
      <path id="DejaVuSans-70" d="M 1159 525 
L 1159 -1331 
L 581 -1331 
L 581 3500 
L 1159 3500 
L 1159 2969 
Q 1341 3281 1617 3432 
Q 1894 3584 2278 3584 
Q 2916 3584 3314 3078 
Q 3713 2572 3713 1747 
Q 3713 922 3314 415 
Q 2916 -91 2278 -91 
Q 1894 -91 1617 61 
Q 1341 213 1159 525 
z
M 3116 1747 
Q 3116 2381 2855 2742 
Q 2594 3103 2138 3103 
Q 1681 3103 1420 2742 
Q 1159 2381 1159 1747 
Q 1159 1113 1420 752 
Q 1681 391 2138 391 
Q 2594 391 2855 752 
Q 3116 1113 3116 1747 
z
" transform="scale(0.015625)"/>
     </defs>
     <use xlink:href="#DejaVuSans-50" transform="translate(0 0.015625)"/>
     <use xlink:href="#DejaVuSans-68" transform="translate(60.302734 0.015625)"/>
     <use xlink:href="#DejaVuSans-61" transform="translate(123.681641 0.015625)"/>
     <use xlink:href="#DejaVuSans-73" transform="translate(184.960938 0.015625)"/>
     <use xlink:href="#DejaVuSans-65" transform="translate(237.060547 0.015625)"/>
     <use xlink:href="#DejaVuSans-20" transform="translate(298.583984 0.015625)"/>
     <use xlink:href="#DejaVuSans-63" transform="translate(330.371094 0.015625)"/>
     <use xlink:href="#DejaVuSans-75" transform="translate(385.351562 0.015625)"/>
     <use xlink:href="#DejaVuSans-72" transform="translate(448.730469 0.015625)"/>
     <use xlink:href="#DejaVuSans-76" transform="translate(489.84375 0.015625)"/>
     <use xlink:href="#DejaVuSans-65" transform="translate(549.023438 0.015625)"/>
     <use xlink:href="#DejaVuSans-20" transform="translate(610.546875 0.015625)"/>
     <use xlink:href="#DejaVuSans-61" transform="translate(642.333984 0.015625)"/>
     <use xlink:href="#DejaVuSans-74" transform="translate(703.613281 0.015625)"/>
     <use xlink:href="#DejaVuSans-20" transform="translate(742.822266 0.015625)"/>
     <use xlink:href="#DejaVuSans-Oblique-3bb" transform="translate(774.609375 0.015625)"/>
     <use xlink:href="#DejaVuSans-20" transform="translate(833.789062 0.015625)"/>
     <use xlink:href="#DejaVuSans-3d" transform="translate(865.576172 0.015625)"/>
     <use xlink:href="#DejaVuSans-20" transform="translate(949.365234 0.015625)"/>
     <use xlink:href="#DejaVuSans-31" transform="translate(981.152344 0.015625)"/>
     <use xlink:href="#DejaVuSans-2e" transform="translate(1044.775391 0.015625)"/>
     <use xlink:href="#DejaVuSans-35" transform="translate(1076.5625 0.015625)"/>
     <use xlink:href="#DejaVuSans-34" transform="translate(1140.185547 0.015625)"/>
     <use xlink:href="#DejaVuSans-20" transform="translate(1203.808594 0.015625)"/>
     <use xlink:href="#DejaVuSans-Oblique-3bc" transform="translate(1235.595703 0.015625)"/>
     <use xlink:href="#DejaVuSans-6d" transform="translate(1299.21875 0.015625)"/>
     <use xlink:href="#DejaVuSans-20" transform="translate(1396.630859 0.015625)"/>
     <use xlink:href="#DejaVuSans-77" transform="translate(1428.417969 0.015625)"/>
     <use xlink:href="#DejaVuSans-69" transform="translate(1510.205078 0.015625)"/>
     <use xlink:href="#DejaVuSans-74" transform="translate(1537.988281 0.015625)"/>
     <use xlink:href="#DejaVuSans-68" transform="translate(1577.197266 0.015625)"/>
     <use xlink:href="#DejaVuSans-20" transform="translate(1640.576172 0.015625)"/>
     <use xlink:href="#DejaVuSans-4e" transform="translate(1672.363281 0.015625)"/>
     <use xlink:href="#DejaVuSans-49" transform="translate(1747.167969 0.015625)"/>
     <use xlink:href="#DejaVuSans-52" transform="translate(1776.660156 0.015625)"/>
     <use xlink:href="#DejaVuSans-53" transform="translate(1846.142578 0.015625)"/>
     <use xlink:href="#DejaVuSans-70" transform="translate(1909.619141 0.015625)"/>
     <use xlink:href="#DejaVuSans-65" transform="translate(1973.095703 0.015625)"/>
     <use xlink:href="#DejaVuSans-63" transform="translate(2034.619141 0.015625)"/>
    </g>
   </g>
   <g id="line2d_16">
    <defs>
     <path id="m6e59a382d6" d="M 0 3 
C 0.795609 3 1.55874 2.683901 2.12132 2.12132 
C 2.683901 1.55874 3 0.795609 3 0 
C 3 -0.795609 2.683901 -1.55874 2.12132 -2.12132 
C 1.55874 -2.683901 0.795609 -3 0 -3 
C -0.795609 -3 -1.55874 -2.683901 -2.12132 -2.12132 
C -2.683901 -1.55874 -3 -0.795609 -3 0 
C -3 0.795609 -2.683901 1.55874 -2.12132 2.12132 
C -1.55874 2.683901 -0.795609 3 0 3 
z
" style="stroke: #ff8000"/>
    </defs>
    <g clip-path="url(#p0f311a74df)">
     <use xlink:href="#m6e59a382d6" x="75.167143" y="91.820758" style="fill: #ff8000; stroke: #ff8000"/>
     <use xlink:href="#m6e59a382d6" x="77.837922" y="103.739809" style="fill: #ff8000; stroke: #ff8000"/>
     <use xlink:href="#m6e59a382d6" x="80.506753" y="103.737489" style="fill: #ff8000; stroke: #ff8000"/>
     <use xlink:href="#m6e59a382d6" x="83.175584" y="148.055375" style="fill: #ff8000; stroke: #ff8000"/>
     <use xlink:href="#m6e59a382d6" x="85.844416" y="144.075291" style="fill: #ff8000; stroke: #ff8000"/>
     <use xlink:href="#m6e59a382d6" x="88.513247" y="127.96858" style="fill: #ff8000; stroke: #ff8000"/>
     <use xlink:href="#m6e59a382d6" x="91.182078" y="115.423653" style="fill: #ff8000; stroke: #ff8000"/>
     <use xlink:href="#m6e59a382d6" x="93.850909" y="123.511188" style="fill: #ff8000; stroke: #ff8000"/>
     <use xlink:href="#m6e59a382d6" x="96.51974" y="128.542813" style="fill: #ff8000; stroke: #ff8000"/>
     <use xlink:href="#m6e59a382d6" x="99.188571" y="147.846944" style="fill: #ff8000; stroke: #ff8000"/>
     <use xlink:href="#m6e59a382d6" x="101.857403" y="149.715068" style="fill: #ff8000; stroke: #ff8000"/>
     <use xlink:href="#m6e59a382d6" x="104.526234" y="136.638243" style="fill: #ff8000; stroke: #ff8000"/>
     <use xlink:href="#m6e59a382d6" x="107.195065" y="145.49374" style="fill: #ff8000; stroke: #ff8000"/>
     <use xlink:href="#m6e59a382d6" x="109.863896" y="80.328649" style="fill: #ff8000; stroke: #ff8000"/>
     <use xlink:href="#m6e59a382d6" x="112.534675" y="92.332246" style="fill: #ff8000; stroke: #ff8000"/>
     <use xlink:href="#m6e59a382d6" x="115.205455" y="93.813662" style="fill: #ff8000; stroke: #ff8000"/>
     <use xlink:href="#m6e59a382d6" x="117.874286" y="127.328478" style="fill: #ff8000; stroke: #ff8000"/>
     <use xlink:href="#m6e59a382d6" x="120.543117" y="73.776537" style="fill: #ff8000; stroke: #ff8000"/>
     <use xlink:href="#m6e59a382d6" x="123.211948" y="132.475765" style="fill: #ff8000; stroke: #ff8000"/>
     <use xlink:href="#m6e59a382d6" x="125.880779" y="122.100903" style="fill: #ff8000; stroke: #ff8000"/>
     <use xlink:href="#m6e59a382d6" x="128.54961" y="111.596673" style="fill: #ff8000; stroke: #ff8000"/>
     <use xlink:href="#m6e59a382d6" x="131.218442" y="123.491313" style="fill: #ff8000; stroke: #ff8000"/>
     <use xlink:href="#m6e59a382d6" x="133.887273" y="119.622543" style="fill: #ff8000; stroke: #ff8000"/>
     <use xlink:href="#m6e59a382d6" x="136.556104" y="102.975214" style="fill: #ff8000; stroke: #ff8000"/>
     <use xlink:href="#m6e59a382d6" x="139.224935" y="88.049237" style="fill: #ff8000; stroke: #ff8000"/>
     <use xlink:href="#m6e59a382d6" x="141.893766" y="108.792688" style="fill: #ff8000; stroke: #ff8000"/>
     <use xlink:href="#m6e59a382d6" x="144.562597" y="95.233719" style="fill: #ff8000; stroke: #ff8000"/>
     <use xlink:href="#m6e59a382d6" x="147.231429" y="126.825687" style="fill: #ff8000; stroke: #ff8000"/>
     <use xlink:href="#m6e59a382d6" x="149.90026" y="85.552169" style="fill: #ff8000; stroke: #ff8000"/>
     <use xlink:href="#m6e59a382d6" x="152.571039" y="113.823022" style="fill: #ff8000; stroke: #ff8000"/>
     <use xlink:href="#m6e59a382d6" x="155.241818" y="129.055879" style="fill: #ff8000; stroke: #ff8000"/>
     <use xlink:href="#m6e59a382d6" x="157.910649" y="151.440788" style="fill: #ff8000; stroke: #ff8000"/>
     <use xlink:href="#m6e59a382d6" x="160.579481" y="113.464853" style="fill: #ff8000; stroke: #ff8000"/>
     <use xlink:href="#m6e59a382d6" x="163.248312" y="140.741944" style="fill: #ff8000; stroke: #ff8000"/>
     <use xlink:href="#m6e59a382d6" x="165.917143" y="95.404998" style="fill: #ff8000; stroke: #ff8000"/>
     <use xlink:href="#m6e59a382d6" x="168.585974" y="124.605947" style="fill: #ff8000; stroke: #ff8000"/>
     <use xlink:href="#m6e59a382d6" x="171.254805" y="123.022284" style="fill: #ff8000; stroke: #ff8000"/>
     <use xlink:href="#m6e59a382d6" x="173.923636" y="137.674226" style="fill: #ff8000; stroke: #ff8000"/>
     <use xlink:href="#m6e59a382d6" x="176.592468" y="133.045927" style="fill: #ff8000; stroke: #ff8000"/>
     <use xlink:href="#m6e59a382d6" x="179.261299" y="128.14988" style="fill: #ff8000; stroke: #ff8000"/>
     <use xlink:href="#m6e59a382d6" x="181.93013" y="158.787258" style="fill: #ff8000; stroke: #ff8000"/>
     <use xlink:href="#m6e59a382d6" x="184.598961" y="142.050023" style="fill: #ff8000; stroke: #ff8000"/>
     <use xlink:href="#m6e59a382d6" x="187.267792" y="133.820478" style="fill: #ff8000; stroke: #ff8000"/>
     <use xlink:href="#m6e59a382d6" x="189.938571" y="127.399654" style="fill: #ff8000; stroke: #ff8000"/>
     <use xlink:href="#m6e59a382d6" x="192.609351" y="141.909698" style="fill: #ff8000; stroke: #ff8000"/>
     <use xlink:href="#m6e59a382d6" x="195.278182" y="133.426238" style="fill: #ff8000; stroke: #ff8000"/>
     <use xlink:href="#m6e59a382d6" x="197.947013" y="134.418146" style="fill: #ff8000; stroke: #ff8000"/>
     <use xlink:href="#m6e59a382d6" x="200.615844" y="138.160683" style="fill: #ff8000; stroke: #ff8000"/>
     <use xlink:href="#m6e59a382d6" x="203.284675" y="180.886803" style="fill: #ff8000; stroke: #ff8000"/>
     <use xlink:href="#m6e59a382d6" x="205.953506" y="88.147733" style="fill: #ff8000; stroke: #ff8000"/>
     <use xlink:href="#m6e59a382d6" x="208.622338" y="117.672552" style="fill: #ff8000; stroke: #ff8000"/>
     <use xlink:href="#m6e59a382d6" x="211.291169" y="184.624016" style="fill: #ff8000; stroke: #ff8000"/>
     <use xlink:href="#m6e59a382d6" x="213.96" y="110.015477" style="fill: #ff8000; stroke: #ff8000"/>
     <use xlink:href="#m6e59a382d6" x="216.628831" y="133.87586" style="fill: #ff8000; stroke: #ff8000"/>
     <use xlink:href="#m6e59a382d6" x="219.297662" y="143.534662" style="fill: #ff8000; stroke: #ff8000"/>
     <use xlink:href="#m6e59a382d6" x="221.966494" y="123.682569" style="fill: #ff8000; stroke: #ff8000"/>
     <use xlink:href="#m6e59a382d6" x="224.635325" y="146.197263" style="fill: #ff8000; stroke: #ff8000"/>
     <use xlink:href="#m6e59a382d6" x="227.304156" y="170.951537" style="fill: #ff8000; stroke: #ff8000"/>
     <use xlink:href="#m6e59a382d6" x="229.974935" y="252.285706" style="fill: #ff8000; stroke: #ff8000"/>
     <use xlink:href="#m6e59a382d6" x="232.645714" y="243.341423" style="fill: #ff8000; stroke: #ff8000"/>
     <use xlink:href="#m6e59a382d6" x="235.314545" y="275.597633" style="fill: #ff8000; stroke: #ff8000"/>
     <use xlink:href="#m6e59a382d6" x="237.983377" y="265.606321" style="fill: #ff8000; stroke: #ff8000"/>
     <use xlink:href="#m6e59a382d6" x="240.652208" y="267.153991" style="fill: #ff8000; stroke: #ff8000"/>
     <use xlink:href="#m6e59a382d6" x="243.321039" y="205.865623" style="fill: #ff8000; stroke: #ff8000"/>
     <use xlink:href="#m6e59a382d6" x="245.98987" y="110.383914" style="fill: #ff8000; stroke: #ff8000"/>
     <use xlink:href="#m6e59a382d6" x="248.658701" y="133.093472" style="fill: #ff8000; stroke: #ff8000"/>
     <use xlink:href="#m6e59a382d6" x="251.327532" y="154.581414" style="fill: #ff8000; stroke: #ff8000"/>
     <use xlink:href="#m6e59a382d6" x="253.996364" y="114.824527" style="fill: #ff8000; stroke: #ff8000"/>
     <use xlink:href="#m6e59a382d6" x="256.665195" y="106.392867" style="fill: #ff8000; stroke: #ff8000"/>
     <use xlink:href="#m6e59a382d6" x="259.334026" y="109.10372" style="fill: #ff8000; stroke: #ff8000"/>
     <use xlink:href="#m6e59a382d6" x="262.002857" y="118.708905" style="fill: #ff8000; stroke: #ff8000"/>
     <use xlink:href="#m6e59a382d6" x="264.671688" y="140.681217" style="fill: #ff8000; stroke: #ff8000"/>
     <use xlink:href="#m6e59a382d6" x="267.340519" y="112.5904" style="fill: #ff8000; stroke: #ff8000"/>
     <use xlink:href="#m6e59a382d6" x="270.011299" y="127.301871" style="fill: #ff8000; stroke: #ff8000"/>
     <use xlink:href="#m6e59a382d6" x="272.682078" y="119.334239" style="fill: #ff8000; stroke: #ff8000"/>
     <use xlink:href="#m6e59a382d6" x="275.350909" y="142.172483" style="fill: #ff8000; stroke: #ff8000"/>
     <use xlink:href="#m6e59a382d6" x="278.01974" y="113.548625" style="fill: #ff8000; stroke: #ff8000"/>
     <use xlink:href="#m6e59a382d6" x="280.688571" y="123.860354" style="fill: #ff8000; stroke: #ff8000"/>
     <use xlink:href="#m6e59a382d6" x="283.357403" y="78.922163" style="fill: #ff8000; stroke: #ff8000"/>
     <use xlink:href="#m6e59a382d6" x="286.026234" y="130.169148" style="fill: #ff8000; stroke: #ff8000"/>
     <use xlink:href="#m6e59a382d6" x="288.695065" y="113.868249" style="fill: #ff8000; stroke: #ff8000"/>
     <use xlink:href="#m6e59a382d6" x="291.363896" y="118.876714" style="fill: #ff8000; stroke: #ff8000"/>
     <use xlink:href="#m6e59a382d6" x="294.032727" y="76.421369" style="fill: #ff8000; stroke: #ff8000"/>
     <use xlink:href="#m6e59a382d6" x="296.701558" y="114.320327" style="fill: #ff8000; stroke: #ff8000"/>
     <use xlink:href="#m6e59a382d6" x="299.37039" y="124.125109" style="fill: #ff8000; stroke: #ff8000"/>
     <use xlink:href="#m6e59a382d6" x="302.039221" y="98.588233" style="fill: #ff8000; stroke: #ff8000"/>
     <use xlink:href="#m6e59a382d6" x="304.708052" y="135.62983" style="fill: #ff8000; stroke: #ff8000"/>
     <use xlink:href="#m6e59a382d6" x="307.378831" y="97.717885" style="fill: #ff8000; stroke: #ff8000"/>
     <use xlink:href="#m6e59a382d6" x="310.04961" y="129.254871" style="fill: #ff8000; stroke: #ff8000"/>
     <use xlink:href="#m6e59a382d6" x="312.718442" y="147.672334" style="fill: #ff8000; stroke: #ff8000"/>
     <use xlink:href="#m6e59a382d6" x="315.387273" y="119.371459" style="fill: #ff8000; stroke: #ff8000"/>
     <use xlink:href="#m6e59a382d6" x="318.056104" y="139.230658" style="fill: #ff8000; stroke: #ff8000"/>
     <use xlink:href="#m6e59a382d6" x="320.724935" y="98.570012" style="fill: #ff8000; stroke: #ff8000"/>
     <use xlink:href="#m6e59a382d6" x="323.393766" y="137.519025" style="fill: #ff8000; stroke: #ff8000"/>
     <use xlink:href="#m6e59a382d6" x="326.062597" y="119.084617" style="fill: #ff8000; stroke: #ff8000"/>
     <use xlink:href="#m6e59a382d6" x="328.731429" y="111.003055" style="fill: #ff8000; stroke: #ff8000"/>
     <use xlink:href="#m6e59a382d6" x="331.40026" y="107.633545" style="fill: #ff8000; stroke: #ff8000"/>
     <use xlink:href="#m6e59a382d6" x="334.069091" y="118.168404" style="fill: #ff8000; stroke: #ff8000"/>
     <use xlink:href="#m6e59a382d6" x="336.737922" y="117.031756" style="fill: #ff8000; stroke: #ff8000"/>
     <use xlink:href="#m6e59a382d6" x="339.406753" y="91.997846" style="fill: #ff8000; stroke: #ff8000"/>
     <use xlink:href="#m6e59a382d6" x="342.075584" y="116.735206" style="fill: #ff8000; stroke: #ff8000"/>
     <use xlink:href="#m6e59a382d6" x="344.744416" y="90.810802" style="fill: #ff8000; stroke: #ff8000"/>
     <use xlink:href="#m6e59a382d6" x="347.415195" y="99.874647" style="fill: #ff8000; stroke: #ff8000"/>
     <use xlink:href="#m6e59a382d6" x="350.085974" y="112.322395" style="fill: #ff8000; stroke: #ff8000"/>
     <use xlink:href="#m6e59a382d6" x="352.754805" y="86.706061" style="fill: #ff8000; stroke: #ff8000"/>
     <use xlink:href="#m6e59a382d6" x="355.423636" y="121.724152" style="fill: #ff8000; stroke: #ff8000"/>
     <use xlink:href="#m6e59a382d6" x="358.092468" y="91.720739" style="fill: #ff8000; stroke: #ff8000"/>
     <use xlink:href="#m6e59a382d6" x="360.761299" y="73.458367" style="fill: #ff8000; stroke: #ff8000"/>
     <use xlink:href="#m6e59a382d6" x="363.43013" y="150.887517" style="fill: #ff8000; stroke: #ff8000"/>
     <use xlink:href="#m6e59a382d6" x="366.098961" y="117.525728" style="fill: #ff8000; stroke: #ff8000"/>
     <use xlink:href="#m6e59a382d6" x="368.767792" y="118.794947" style="fill: #ff8000; stroke: #ff8000"/>
     <use xlink:href="#m6e59a382d6" x="371.436623" y="133.213264" style="fill: #ff8000; stroke: #ff8000"/>
     <use xlink:href="#m6e59a382d6" x="374.105455" y="150.814361" style="fill: #ff8000; stroke: #ff8000"/>
     <use xlink:href="#m6e59a382d6" x="376.774286" y="114.034119" style="fill: #ff8000; stroke: #ff8000"/>
     <use xlink:href="#m6e59a382d6" x="379.443117" y="124.80035" style="fill: #ff8000; stroke: #ff8000"/>
     <use xlink:href="#m6e59a382d6" x="382.111948" y="142.935632" style="fill: #ff8000; stroke: #ff8000"/>
     <use xlink:href="#m6e59a382d6" x="384.780779" y="170.003137" style="fill: #ff8000; stroke: #ff8000"/>
     <use xlink:href="#m6e59a382d6" x="387.451558" y="90.309627" style="fill: #ff8000; stroke: #ff8000"/>
     <use xlink:href="#m6e59a382d6" x="390.122338" y="95.404482" style="fill: #ff8000; stroke: #ff8000"/>
     <use xlink:href="#m6e59a382d6" x="392.791169" y="86.632403" style="fill: #ff8000; stroke: #ff8000"/>
     <use xlink:href="#m6e59a382d6" x="395.46" y="101.583879" style="fill: #ff8000; stroke: #ff8000"/>
     <use xlink:href="#m6e59a382d6" x="397.641818" y="138.610463" style="fill: #ff8000; stroke: #ff8000"/>
    </g>
   </g>
   <g id="line2d_17">
    <path d="M 73.832727 114.497098 
L 82.061299 113.764414 
L 89.872987 113.290675 
L 93.215844 113.217722 
L 93.309351 115.650468 
L 93.757403 127.554003 
L 109.63013 127.460918 
L 109.735325 124.579905 
L 110.066494 113.158586 
L 110.16 113.161707 
L 117.780779 113.528674 
L 125.662597 114.132566 
L 134.00026 114.997116 
L 143.136623 116.172591 
L 153.835325 117.781834 
L 169.704156 120.422836 
L 188.401558 123.483111 
L 198.936623 124.976557 
L 207.944416 126.032501 
L 216.196364 126.778447 
L 224.023636 127.264228 
L 227.736623 127.439367 
L 227.791169 133.295409 
L 228.013247 187.124507 
L 228.274286 228.017027 
L 228.632727 237.098249 
L 229.135325 244.38276 
L 229.750909 250.186175 
L 230.46 254.835373 
L 231.235325 258.499981 
L 232.04961 261.321618 
L 232.875584 263.420072 
L 233.685974 264.901882 
L 234.453506 265.868051 
L 235.17039 266.431452 
L 235.832727 266.68184 
L 236.463896 266.68711 
L 237.091169 266.46699 
L 237.741818 265.994226 
L 238.427532 265.20924 
L 239.152208 264.025443 
L 239.90026 262.359775 
L 240.656104 260.113353 
L 241.396364 257.191147 
L 242.097662 253.485396 
L 242.736623 248.86951 
L 243.28987 243.195835 
L 243.737922 236.241069 
L 244.061299 227.659619 
L 244.178182 219.354655 
L 244.447013 151.455606 
L 244.657403 127.411799 
L 252.278182 127.045693 
L 260.156104 126.442982 
L 268.493766 125.57931 
L 277.626234 124.405173 
L 288.317143 122.7979 
L 304.135325 120.165966 
L 322.922338 117.090373 
L 333.457403 115.596781 
L 342.469091 114.540268 
L 350.721039 113.794252 
L 358.548312 113.308399 
L 362.269091 113.205914 
L 362.358701 115.477994 
L 362.818442 127.554003 
L 378.683377 127.47458 
L 378.784675 124.758953 
L 379.11974 113.158549 
L 379.217143 113.161801 
L 386.837922 113.528849 
L 394.71974 114.132818 
L 398.487273 114.496482 
L 398.487273 114.496482 
" clip-path="url(#p0f311a74df)" style="fill: none; stroke: #000000; stroke-width: 1.5; stroke-linecap: square"/>
   </g>
   <g id="legend_1">
    <g id="patch_7">
     <path d="M 66 301.584 
L 176.4075 301.584 
Q 178.8075 301.584 178.8075 299.184 
L 178.8075 247.54275 
Q 178.8075 245.14275 176.4075 245.14275 
L 66 245.14275 
Q 63.6 245.14275 63.6 247.54275 
L 63.6 299.184 
Q 63.6 301.584 66 301.584 
z
" style="fill: #ffffff; opacity: 0.8; stroke: #cccccc; stroke-linejoin: miter"/>
    </g>
    <g id="line2d_18">
     <path d="M 68.4 254.860875 
L 80.4 254.860875 
L 92.4 254.860875 
" style="fill: none; stroke: #1f77b4; stroke-width: 1.5; stroke-linecap: square"/>
    </g>
    <g id="text_20">
     <!-- our model -->
     <g transform="translate(102 259.060875) scale(0.12 -0.12)">
      <defs>
       <path id="DejaVuSans-6f" d="M 1959 3097 
Q 1497 3097 1228 2736 
Q 959 2375 959 1747 
Q 959 1119 1226 758 
Q 1494 397 1959 397 
Q 2419 397 2687 759 
Q 2956 1122 2956 1747 
Q 2956 2369 2687 2733 
Q 2419 3097 1959 3097 
z
M 1959 3584 
Q 2709 3584 3137 3096 
Q 3566 2609 3566 1747 
Q 3566 888 3137 398 
Q 2709 -91 1959 -91 
Q 1206 -91 779 398 
Q 353 888 353 1747 
Q 353 2609 779 3096 
Q 1206 3584 1959 3584 
z
" transform="scale(0.015625)"/>
       <path id="DejaVuSans-6c" d="M 603 4863 
L 1178 4863 
L 1178 0 
L 603 0 
L 603 4863 
z
" transform="scale(0.015625)"/>
      </defs>
      <use xlink:href="#DejaVuSans-6f"/>
      <use xlink:href="#DejaVuSans-75" transform="translate(61.181641 0)"/>
      <use xlink:href="#DejaVuSans-72" transform="translate(124.560547 0)"/>
      <use xlink:href="#DejaVuSans-20" transform="translate(165.673828 0)"/>
      <use xlink:href="#DejaVuSans-6d" transform="translate(197.460938 0)"/>
      <use xlink:href="#DejaVuSans-6f" transform="translate(294.873047 0)"/>
      <use xlink:href="#DejaVuSans-64" transform="translate(356.054688 0)"/>
      <use xlink:href="#DejaVuSans-65" transform="translate(419.53125 0)"/>
      <use xlink:href="#DejaVuSans-6c" transform="translate(481.054688 0)"/>
     </g>
    </g>
    <g id="line2d_19">
     <path d="M 68.4 272.474625 
L 80.4 272.474625 
L 92.4 272.474625 
" style="fill: none; stroke: #000000; stroke-width: 1.5; stroke-linecap: square"/>
    </g>
    <g id="text_21">
     <!-- origin data -->
     <g transform="translate(102 276.674625) scale(0.12 -0.12)">
      <defs>
       <path id="DejaVuSans-67" d="M 2906 1791 
Q 2906 2416 2648 2759 
Q 2391 3103 1925 3103 
Q 1463 3103 1205 2759 
Q 947 2416 947 1791 
Q 947 1169 1205 825 
Q 1463 481 1925 481 
Q 2391 481 2648 825 
Q 2906 1169 2906 1791 
z
M 3481 434 
Q 3481 -459 3084 -895 
Q 2688 -1331 1869 -1331 
Q 1566 -1331 1297 -1286 
Q 1028 -1241 775 -1147 
L 775 -588 
Q 1028 -725 1275 -790 
Q 1522 -856 1778 -856 
Q 2344 -856 2625 -561 
Q 2906 -266 2906 331 
L 2906 616 
Q 2728 306 2450 153 
Q 2172 0 1784 0 
Q 1141 0 747 490 
Q 353 981 353 1791 
Q 353 2603 747 3093 
Q 1141 3584 1784 3584 
Q 2172 3584 2450 3431 
Q 2728 3278 2906 2969 
L 2906 3500 
L 3481 3500 
L 3481 434 
z
" transform="scale(0.015625)"/>
       <path id="DejaVuSans-6e" d="M 3513 2113 
L 3513 0 
L 2938 0 
L 2938 2094 
Q 2938 2591 2744 2837 
Q 2550 3084 2163 3084 
Q 1697 3084 1428 2787 
Q 1159 2491 1159 1978 
L 1159 0 
L 581 0 
L 581 3500 
L 1159 3500 
L 1159 2956 
Q 1366 3272 1645 3428 
Q 1925 3584 2291 3584 
Q 2894 3584 3203 3211 
Q 3513 2838 3513 2113 
z
" transform="scale(0.015625)"/>
      </defs>
      <use xlink:href="#DejaVuSans-6f"/>
      <use xlink:href="#DejaVuSans-72" transform="translate(61.181641 0)"/>
      <use xlink:href="#DejaVuSans-69" transform="translate(102.294922 0)"/>
      <use xlink:href="#DejaVuSans-67" transform="translate(130.078125 0)"/>
      <use xlink:href="#DejaVuSans-69" transform="translate(193.554688 0)"/>
      <use xlink:href="#DejaVuSans-6e" transform="translate(221.337891 0)"/>
      <use xlink:href="#DejaVuSans-20" transform="translate(284.716797 0)"/>
      <use xlink:href="#DejaVuSans-64" transform="translate(316.503906 0)"/>
      <use xlink:href="#DejaVuSans-61" transform="translate(379.980469 0)"/>
      <use xlink:href="#DejaVuSans-74" transform="translate(441.259766 0)"/>
      <use xlink:href="#DejaVuSans-61" transform="translate(480.46875 0)"/>
     </g>
    </g>
    <g id="LineCollection_2">
     <path d="M 80.4 296.088375 
L 80.4 284.088375 
" style="fill: none; stroke: #ff8000; stroke-width: 1.5"/>
    </g>
    <g id="line2d_20"/>
    <g id="line2d_21">
     <g>
      <use xlink:href="#m6e59a382d6" x="80.4" y="290.088375" style="fill: #ff8000; stroke: #ff8000"/>
     </g>
    </g>
    <g id="text_22">
     <!-- data binned -->
     <g transform="translate(102 294.288375) scale(0.12 -0.12)">
      <defs>
       <path id="DejaVuSans-62" d="M 3116 1747 
Q 3116 2381 2855 2742 
Q 2594 3103 2138 3103 
Q 1681 3103 1420 2742 
Q 1159 2381 1159 1747 
Q 1159 1113 1420 752 
Q 1681 391 2138 391 
Q 2594 391 2855 752 
Q 3116 1113 3116 1747 
z
M 1159 2969 
Q 1341 3281 1617 3432 
Q 1894 3584 2278 3584 
Q 2916 3584 3314 3078 
Q 3713 2572 3713 1747 
Q 3713 922 3314 415 
Q 2916 -91 2278 -91 
Q 1894 -91 1617 61 
Q 1341 213 1159 525 
L 1159 0 
L 581 0 
L 581 4863 
L 1159 4863 
L 1159 2969 
z
" transform="scale(0.015625)"/>
      </defs>
      <use xlink:href="#DejaVuSans-64"/>
      <use xlink:href="#DejaVuSans-61" transform="translate(63.476562 0)"/>
      <use xlink:href="#DejaVuSans-74" transform="translate(124.755859 0)"/>
      <use xlink:href="#DejaVuSans-61" transform="translate(163.964844 0)"/>
      <use xlink:href="#DejaVuSans-20" transform="translate(225.244141 0)"/>
      <use xlink:href="#DejaVuSans-62" transform="translate(257.03125 0)"/>
      <use xlink:href="#DejaVuSans-69" transform="translate(320.507812 0)"/>
      <use xlink:href="#DejaVuSans-6e" transform="translate(348.291016 0)"/>
      <use xlink:href="#DejaVuSans-6e" transform="translate(411.669922 0)"/>
      <use xlink:href="#DejaVuSans-65" transform="translate(475.048828 0)"/>
      <use xlink:href="#DejaVuSans-64" transform="translate(536.572266 0)"/>
     </g>
    </g>
   </g>
   <g id="line2d_22">
    <path d="M 73.832727 112.375603 
L 81.480779 111.575125 
L 88.754805 111.035775 
L 90.772987 110.926795 
L 90.885974 127.55433 
L 112.493766 127.55433 
L 112.497662 110.926746 
L 112.606753 110.932174 
L 119.732727 111.399735 
L 127.123636 112.10937 
L 134.954805 113.087556 
L 143.522338 114.386259 
L 153.492468 116.130621 
L 167.592468 118.847532 
L 187.536623 122.667622 
L 197.534026 124.343437 
L 206.07039 125.552507 
L 213.866494 126.434653 
L 221.23013 127.045779 
L 224.974286 127.267555 
L 225.013247 133.810779 
L 225.535325 239.845139 
L 226.022338 246.84252 
L 226.676883 253.10127 
L 227.463896 258.541882 
L 228.352208 263.17485 
L 229.310649 267.029034 
L 230.304156 270.136886 
L 231.305455 272.569325 
L 232.291169 274.404151 
L 233.237922 275.71713 
L 234.134026 276.595947 
L 234.975584 277.121602 
L 235.77039 277.362954 
L 236.537922 277.365555 
L 237.301558 277.143509 
L 238.084675 276.678768 
L 238.902857 275.926767 
L 239.763896 274.822443 
L 240.663896 273.292408 
L 241.591169 271.260219 
L 242.526234 268.656284 
L 243.445714 265.418744 
L 244.326234 261.483092 
L 245.140519 256.797456 
L 245.857403 251.339757 
L 246.445714 245.115373 
L 246.874286 238.172937 
L 247.034026 232.884893 
L 247.162597 189.062769 
L 247.423636 127.263878 
L 254.557403 126.786728 
L 261.96 126.066967 
L 269.810649 125.077472 
L 278.417143 123.764125 
L 288.469091 121.996939 
L 302.962597 119.196909 
L 321.979481 115.558194 
L 331.992468 113.877934 
L 340.536623 112.665995 
L 348.336623 111.781677 
L 355.704156 111.168534 
L 359.826234 110.92685 
L 359.939221 127.55433 
L 381.547013 127.55433 
L 381.550909 110.926691 
L 381.66 110.932119 
L 388.785974 111.399646 
L 396.176883 112.109248 
L 398.487273 112.374887 
L 398.487273 112.374887 
" clip-path="url(#p0f311a74df)" style="fill: none; stroke: #1f77b4; stroke-width: 1.5; stroke-linecap: square"/>
   </g>
  </g>
 </g>
 <defs>
  <clipPath id="p0f311a74df">
   <rect x="57.6" y="41.472" width="357.12" height="266.112"/>
  </clipPath>
 </defs>
</svg>
