<?xml version="1.0" encoding="utf-8" standalone="no"?>
<!DOCTYPE svg PUBLIC "-//W3C//DTD SVG 1.1//EN"
  "http://www.w3.org/Graphics/SVG/1.1/DTD/svg11.dtd">
<svg xmlns:xlink="http://www.w3.org/1999/xlink" width="460.8pt" height="345.6pt" viewBox="0 0 460.8 345.6" xmlns="http://www.w3.org/2000/svg" version="1.1">
 <metadata>
  <rdf:RDF xmlns:dc="http://purl.org/dc/elements/1.1/" xmlns:cc="http://creativecommons.org/ns#" xmlns:rdf="http://www.w3.org/1999/02/22-rdf-syntax-ns#">
   <cc:Work>
    <dc:type rdf:resource="http://purl.org/dc/dcmitype/StillImage"/>
    <dc:date>2025-12-01T15:17:07.012259</dc:date>
    <dc:format>image/svg+xml</dc:format>
    <dc:creator>
     <cc:Agent>
      <dc:title>Matplotlib v3.10.7, https://matplotlib.org/</dc:title>
     </cc:Agent>
    </dc:creator>
   </cc:Work>
  </rdf:RDF>
 </metadata>
 <defs>
  <style type="text/css">*{stroke-linejoin: round; stroke-linecap: butt}</style>
 </defs>
 <g id="figure_1">
  <g id="patch_1">
   <path d="M 0 345.6 
L 460.8 345.6 
L 460.8 0 
L 0 0 
z
" style="fill: #ffffff"/>
  </g>
  <g id="axes_1">
   <g id="patch_2">
    <path d="M 57.6 307.584 
L 414.72 307.584 
L 414.72 41.472 
L 57.6 41.472 
z
" style="fill: #ffffff"/>
   </g>
   <g id="matplotlib.axis_1">
    <g id="xtick_1">
     <g id="line2d_1">
      <defs>
       <path id="m56e3359d91" d="M 0 0 
L 0 3.5 
" style="stroke: #000000; stroke-width: 0.8"/>
      </defs>
      <g>
       <use xlink:href="#m56e3359d91" x="73.872543" y="307.584" style="stroke: #000000; stroke-width: 0.8"/>
      </g>
     </g>
     <g id="text_1">
      <!-- 0.4 -->
      <g transform="translate(62.740356 325.221812) scale(0.14 -0.14)">
       <defs>
        <path id="DejaVuSans-30" d="M 2034 4250 
Q 1547 4250 1301 3770 
Q 1056 3291 1056 2328 
Q 1056 1369 1301 889 
Q 1547 409 2034 409 
Q 2525 409 2770 889 
Q 3016 1369 3016 2328 
Q 3016 3291 2770 3770 
Q 2525 4250 2034 4250 
z
M 2034 4750 
Q 2819 4750 3233 4129 
Q 3647 3509 3647 2328 
Q 3647 1150 3233 529 
Q 2819 -91 2034 -91 
Q 1250 -91 836 529 
Q 422 1150 422 2328 
Q 422 3509 836 4129 
Q 1250 4750 2034 4750 
z
" transform="scale(0.015625)"/>
        <path id="DejaVuSans-2e" d="M 684 794 
L 1344 794 
L 1344 0 
L 684 0 
L 684 794 
z
" transform="scale(0.015625)"/>
        <path id="DejaVuSans-34" d="M 2419 4116 
L 825 1625 
L 2419 1625 
L 2419 4116 
z
M 2253 4666 
L 3047 4666 
L 3047 1625 
L 3713 1625 
L 3713 1100 
L 3047 1100 
L 3047 0 
L 2419 0 
L 2419 1100 
L 313 1100 
L 313 1709 
L 2253 4666 
z
" transform="scale(0.015625)"/>
       </defs>
       <use xlink:href="#DejaVuSans-30"/>
       <use xlink:href="#DejaVuSans-2e" transform="translate(63.623047 0)"/>
       <use xlink:href="#DejaVuSans-34" transform="translate(95.410156 0)"/>
      </g>
     </g>
    </g>
    <g id="xtick_2">
     <g id="line2d_2">
      <g>
       <use xlink:href="#m56e3359d91" x="127.256972" y="307.584" style="stroke: #000000; stroke-width: 0.8"/>
      </g>
     </g>
     <g id="text_2">
      <!-- 0.6 -->
      <g transform="translate(116.124784 325.221812) scale(0.14 -0.14)">
       <defs>
        <path id="DejaVuSans-36" d="M 2113 2584 
Q 1688 2584 1439 2293 
Q 1191 2003 1191 1497 
Q 1191 994 1439 701 
Q 1688 409 2113 409 
Q 2538 409 2786 701 
Q 3034 994 3034 1497 
Q 3034 2003 2786 2293 
Q 2538 2584 2113 2584 
z
M 3366 4563 
L 3366 3988 
Q 3128 4100 2886 4159 
Q 2644 4219 2406 4219 
Q 1781 4219 1451 3797 
Q 1122 3375 1075 2522 
Q 1259 2794 1537 2939 
Q 1816 3084 2150 3084 
Q 2853 3084 3261 2657 
Q 3669 2231 3669 1497 
Q 3669 778 3244 343 
Q 2819 -91 2113 -91 
Q 1303 -91 875 529 
Q 447 1150 447 2328 
Q 447 3434 972 4092 
Q 1497 4750 2381 4750 
Q 2619 4750 2861 4703 
Q 3103 4656 3366 4563 
z
" transform="scale(0.015625)"/>
       </defs>
       <use xlink:href="#DejaVuSans-30"/>
       <use xlink:href="#DejaVuSans-2e" transform="translate(63.623047 0)"/>
       <use xlink:href="#DejaVuSans-36" transform="translate(95.410156 0)"/>
      </g>
     </g>
    </g>
    <g id="xtick_3">
     <g id="line2d_3">
      <g>
       <use xlink:href="#m56e3359d91" x="180.641401" y="307.584" style="stroke: #000000; stroke-width: 0.8"/>
      </g>
     </g>
     <g id="text_3">
      <!-- 0.8 -->
      <g transform="translate(169.509213 325.221812) scale(0.14 -0.14)">
       <defs>
        <path id="DejaVuSans-38" d="M 2034 2216 
Q 1584 2216 1326 1975 
Q 1069 1734 1069 1313 
Q 1069 891 1326 650 
Q 1584 409 2034 409 
Q 2484 409 2743 651 
Q 3003 894 3003 1313 
Q 3003 1734 2745 1975 
Q 2488 2216 2034 2216 
z
M 1403 2484 
Q 997 2584 770 2862 
Q 544 3141 544 3541 
Q 544 4100 942 4425 
Q 1341 4750 2034 4750 
Q 2731 4750 3128 4425 
Q 3525 4100 3525 3541 
Q 3525 3141 3298 2862 
Q 3072 2584 2669 2484 
Q 3125 2378 3379 2068 
Q 3634 1759 3634 1313 
Q 3634 634 3220 271 
Q 2806 -91 2034 -91 
Q 1263 -91 848 271 
Q 434 634 434 1313 
Q 434 1759 690 2068 
Q 947 2378 1403 2484 
z
M 1172 3481 
Q 1172 3119 1398 2916 
Q 1625 2713 2034 2713 
Q 2441 2713 2670 2916 
Q 2900 3119 2900 3481 
Q 2900 3844 2670 4047 
Q 2441 4250 2034 4250 
Q 1625 4250 1398 4047 
Q 1172 3844 1172 3481 
z
" transform="scale(0.015625)"/>
       </defs>
       <use xlink:href="#DejaVuSans-30"/>
       <use xlink:href="#DejaVuSans-2e" transform="translate(63.623047 0)"/>
       <use xlink:href="#DejaVuSans-38" transform="translate(95.410156 0)"/>
      </g>
     </g>
    </g>
    <g id="xtick_4">
     <g id="line2d_4">
      <g>
       <use xlink:href="#m56e3359d91" x="234.02583" y="307.584" style="stroke: #000000; stroke-width: 0.8"/>
      </g>
     </g>
     <g id="text_4">
      <!-- 1.0 -->
      <g transform="translate(222.893642 325.221812) scale(0.14 -0.14)">
       <defs>
        <path id="DejaVuSans-31" d="M 794 531 
L 1825 531 
L 1825 4091 
L 703 3866 
L 703 4441 
L 1819 4666 
L 2450 4666 
L 2450 531 
L 3481 531 
L 3481 0 
L 794 0 
L 794 531 
z
" transform="scale(0.015625)"/>
       </defs>
       <use xlink:href="#DejaVuSans-31"/>
       <use xlink:href="#DejaVuSans-2e" transform="translate(63.623047 0)"/>
       <use xlink:href="#DejaVuSans-30" transform="translate(95.410156 0)"/>
      </g>
     </g>
    </g>
    <g id="xtick_5">
     <g id="line2d_5">
      <g>
       <use xlink:href="#m56e3359d91" x="287.410259" y="307.584" style="stroke: #000000; stroke-width: 0.8"/>
      </g>
     </g>
     <g id="text_5">
      <!-- 1.2 -->
      <g transform="translate(276.278071 325.221812) scale(0.14 -0.14)">
       <defs>
        <path id="DejaVuSans-32" d="M 1228 531 
L 3431 531 
L 3431 0 
L 469 0 
L 469 531 
Q 828 903 1448 1529 
Q 2069 2156 2228 2338 
Q 2531 2678 2651 2914 
Q 2772 3150 2772 3378 
Q 2772 3750 2511 3984 
Q 2250 4219 1831 4219 
Q 1534 4219 1204 4116 
Q 875 4013 500 3803 
L 500 4441 
Q 881 4594 1212 4672 
Q 1544 4750 1819 4750 
Q 2544 4750 2975 4387 
Q 3406 4025 3406 3419 
Q 3406 3131 3298 2873 
Q 3191 2616 2906 2266 
Q 2828 2175 2409 1742 
Q 1991 1309 1228 531 
z
" transform="scale(0.015625)"/>
       </defs>
       <use xlink:href="#DejaVuSans-31"/>
       <use xlink:href="#DejaVuSans-2e" transform="translate(63.623047 0)"/>
       <use xlink:href="#DejaVuSans-32" transform="translate(95.410156 0)"/>
      </g>
     </g>
    </g>
    <g id="xtick_6">
     <g id="line2d_6">
      <g>
       <use xlink:href="#m56e3359d91" x="340.794687" y="307.584" style="stroke: #000000; stroke-width: 0.8"/>
      </g>
     </g>
     <g id="text_6">
      <!-- 1.4 -->
      <g transform="translate(329.6625 325.221812) scale(0.14 -0.14)">
       <use xlink:href="#DejaVuSans-31"/>
       <use xlink:href="#DejaVuSans-2e" transform="translate(63.623047 0)"/>
       <use xlink:href="#DejaVuSans-34" transform="translate(95.410156 0)"/>
      </g>
     </g>
    </g>
    <g id="xtick_7">
     <g id="line2d_7">
      <g>
       <use xlink:href="#m56e3359d91" x="394.179116" y="307.584" style="stroke: #000000; stroke-width: 0.8"/>
      </g>
     </g>
     <g id="text_7">
      <!-- 1.6 -->
      <g transform="translate(383.046929 325.221812) scale(0.14 -0.14)">
       <use xlink:href="#DejaVuSans-31"/>
       <use xlink:href="#DejaVuSans-2e" transform="translate(63.623047 0)"/>
       <use xlink:href="#DejaVuSans-36" transform="translate(95.410156 0)"/>
      </g>
     </g>
    </g>
    <g id="text_8">
     <!-- BJD - 2460000.0 [d] -->
     <g transform="translate(166.942031 342.771187) scale(0.14 -0.14)">
      <defs>
       <path id="DejaVuSans-42" d="M 1259 2228 
L 1259 519 
L 2272 519 
Q 2781 519 3026 730 
Q 3272 941 3272 1375 
Q 3272 1813 3026 2020 
Q 2781 2228 2272 2228 
L 1259 2228 
z
M 1259 4147 
L 1259 2741 
L 2194 2741 
Q 2656 2741 2882 2914 
Q 3109 3088 3109 3444 
Q 3109 3797 2882 3972 
Q 2656 4147 2194 4147 
L 1259 4147 
z
M 628 4666 
L 2241 4666 
Q 2963 4666 3353 4366 
Q 3744 4066 3744 3513 
Q 3744 3084 3544 2831 
Q 3344 2578 2956 2516 
Q 3422 2416 3680 2098 
Q 3938 1781 3938 1306 
Q 3938 681 3513 340 
Q 3088 0 2303 0 
L 628 0 
L 628 4666 
z
" transform="scale(0.015625)"/>
       <path id="DejaVuSans-4a" d="M 628 4666 
L 1259 4666 
L 1259 325 
Q 1259 -519 939 -900 
Q 619 -1281 -91 -1281 
L -331 -1281 
L -331 -750 
L -134 -750 
Q 284 -750 456 -515 
Q 628 -281 628 325 
L 628 4666 
z
" transform="scale(0.015625)"/>
       <path id="DejaVuSans-44" d="M 1259 4147 
L 1259 519 
L 2022 519 
Q 2988 519 3436 956 
Q 3884 1394 3884 2338 
Q 3884 3275 3436 3711 
Q 2988 4147 2022 4147 
L 1259 4147 
z
M 628 4666 
L 1925 4666 
Q 3281 4666 3915 4102 
Q 4550 3538 4550 2338 
Q 4550 1131 3912 565 
Q 3275 0 1925 0 
L 628 0 
L 628 4666 
z
" transform="scale(0.015625)"/>
       <path id="DejaVuSans-20" transform="scale(0.015625)"/>
       <path id="DejaVuSans-2d" d="M 313 2009 
L 1997 2009 
L 1997 1497 
L 313 1497 
L 313 2009 
z
" transform="scale(0.015625)"/>
       <path id="DejaVuSans-5b" d="M 550 4863 
L 1875 4863 
L 1875 4416 
L 1125 4416 
L 1125 -397 
L 1875 -397 
L 1875 -844 
L 550 -844 
L 550 4863 
z
" transform="scale(0.015625)"/>
       <path id="DejaVuSans-64" d="M 2906 2969 
L 2906 4863 
L 3481 4863 
L 3481 0 
L 2906 0 
L 2906 525 
Q 2725 213 2448 61 
Q 2172 -91 1784 -91 
Q 1150 -91 751 415 
Q 353 922 353 1747 
Q 353 2572 751 3078 
Q 1150 3584 1784 3584 
Q 2172 3584 2448 3432 
Q 2725 3281 2906 2969 
z
M 947 1747 
Q 947 1113 1208 752 
Q 1469 391 1925 391 
Q 2381 391 2643 752 
Q 2906 1113 2906 1747 
Q 2906 2381 2643 2742 
Q 2381 3103 1925 3103 
Q 1469 3103 1208 2742 
Q 947 2381 947 1747 
z
" transform="scale(0.015625)"/>
       <path id="DejaVuSans-5d" d="M 1947 4863 
L 1947 -844 
L 622 -844 
L 622 -397 
L 1369 -397 
L 1369 4416 
L 622 4416 
L 622 4863 
L 1947 4863 
z
" transform="scale(0.015625)"/>
      </defs>
      <use xlink:href="#DejaVuSans-42"/>
      <use xlink:href="#DejaVuSans-4a" transform="translate(68.603516 0)"/>
      <use xlink:href="#DejaVuSans-44" transform="translate(98.095703 0)"/>
      <use xlink:href="#DejaVuSans-20" transform="translate(175.097656 0)"/>
      <use xlink:href="#DejaVuSans-2d" transform="translate(206.884766 0)"/>
      <use xlink:href="#DejaVuSans-20" transform="translate(242.96875 0)"/>
      <use xlink:href="#DejaVuSans-32" transform="translate(274.755859 0)"/>
      <use xlink:href="#DejaVuSans-34" transform="translate(338.378906 0)"/>
      <use xlink:href="#DejaVuSans-36" transform="translate(402.001953 0)"/>
      <use xlink:href="#DejaVuSans-30" transform="translate(465.625 0)"/>
      <use xlink:href="#DejaVuSans-30" transform="translate(529.248047 0)"/>
      <use xlink:href="#DejaVuSans-30" transform="translate(592.871094 0)"/>
      <use xlink:href="#DejaVuSans-30" transform="translate(656.494141 0)"/>
      <use xlink:href="#DejaVuSans-2e" transform="translate(720.117188 0)"/>
      <use xlink:href="#DejaVuSans-30" transform="translate(751.904297 0)"/>
      <use xlink:href="#DejaVuSans-20" transform="translate(815.527344 0)"/>
      <use xlink:href="#DejaVuSans-5b" transform="translate(847.314453 0)"/>
      <use xlink:href="#DejaVuSans-64" transform="translate(886.328125 0)"/>
      <use xlink:href="#DejaVuSans-5d" transform="translate(949.804688 0)"/>
     </g>
    </g>
   </g>
   <g id="matplotlib.axis_2">
    <g id="ytick_1">
     <g id="line2d_8">
      <defs>
       <path id="m9d1af151da" d="M 0 0 
L -3.5 0 
" style="stroke: #000000; stroke-width: 0.8"/>
      </defs>
      <g>
       <use xlink:href="#m9d1af151da" x="57.6" y="297.86753" style="stroke: #000000; stroke-width: 0.8"/>
      </g>
     </g>
     <g id="text_9">
      <!-- −0.0004 -->
      <g transform="translate(-10.118438 303.186436) scale(0.14 -0.14)">
       <defs>
        <path id="DejaVuSans-2212" d="M 678 2272 
L 4684 2272 
L 4684 1741 
L 678 1741 
L 678 2272 
z
" transform="scale(0.015625)"/>
       </defs>
       <use xlink:href="#DejaVuSans-2212"/>
       <use xlink:href="#DejaVuSans-30" transform="translate(83.789062 0)"/>
       <use xlink:href="#DejaVuSans-2e" transform="translate(147.412109 0)"/>
       <use xlink:href="#DejaVuSans-30" transform="translate(179.199219 0)"/>
       <use xlink:href="#DejaVuSans-30" transform="translate(242.822266 0)"/>
       <use xlink:href="#DejaVuSans-30" transform="translate(306.445312 0)"/>
       <use xlink:href="#DejaVuSans-34" transform="translate(370.068359 0)"/>
      </g>
     </g>
    </g>
    <g id="ytick_2">
     <g id="line2d_9">
      <g>
       <use xlink:href="#m9d1af151da" x="57.6" y="257.165401" style="stroke: #000000; stroke-width: 0.8"/>
      </g>
     </g>
     <g id="text_10">
      <!-- −0.0003 -->
      <g transform="translate(-10.118438 262.484308) scale(0.14 -0.14)">
       <defs>
        <path id="DejaVuSans-33" d="M 2597 2516 
Q 3050 2419 3304 2112 
Q 3559 1806 3559 1356 
Q 3559 666 3084 287 
Q 2609 -91 1734 -91 
Q 1441 -91 1130 -33 
Q 819 25 488 141 
L 488 750 
Q 750 597 1062 519 
Q 1375 441 1716 441 
Q 2309 441 2620 675 
Q 2931 909 2931 1356 
Q 2931 1769 2642 2001 
Q 2353 2234 1838 2234 
L 1294 2234 
L 1294 2753 
L 1863 2753 
Q 2328 2753 2575 2939 
Q 2822 3125 2822 3475 
Q 2822 3834 2567 4026 
Q 2313 4219 1838 4219 
Q 1578 4219 1281 4162 
Q 984 4106 628 3988 
L 628 4550 
Q 988 4650 1302 4700 
Q 1616 4750 1894 4750 
Q 2613 4750 3031 4423 
Q 3450 4097 3450 3541 
Q 3450 3153 3228 2886 
Q 3006 2619 2597 2516 
z
" transform="scale(0.015625)"/>
       </defs>
       <use xlink:href="#DejaVuSans-2212"/>
       <use xlink:href="#DejaVuSans-30" transform="translate(83.789062 0)"/>
       <use xlink:href="#DejaVuSans-2e" transform="translate(147.412109 0)"/>
       <use xlink:href="#DejaVuSans-30" transform="translate(179.199219 0)"/>
       <use xlink:href="#DejaVuSans-30" transform="translate(242.822266 0)"/>
       <use xlink:href="#DejaVuSans-30" transform="translate(306.445312 0)"/>
       <use xlink:href="#DejaVuSans-33" transform="translate(370.068359 0)"/>
      </g>
     </g>
    </g>
    <g id="ytick_3">
     <g id="line2d_10">
      <g>
       <use xlink:href="#m9d1af151da" x="57.6" y="216.463273" style="stroke: #000000; stroke-width: 0.8"/>
      </g>
     </g>
     <g id="text_11">
      <!-- −0.0002 -->
      <g transform="translate(-10.118438 221.782179) scale(0.14 -0.14)">
       <use xlink:href="#DejaVuSans-2212"/>
       <use xlink:href="#DejaVuSans-30" transform="translate(83.789062 0)"/>
       <use xlink:href="#DejaVuSans-2e" transform="translate(147.412109 0)"/>
       <use xlink:href="#DejaVuSans-30" transform="translate(179.199219 0)"/>
       <use xlink:href="#DejaVuSans-30" transform="translate(242.822266 0)"/>
       <use xlink:href="#DejaVuSans-30" transform="translate(306.445312 0)"/>
       <use xlink:href="#DejaVuSans-32" transform="translate(370.068359 0)"/>
      </g>
     </g>
    </g>
    <g id="ytick_4">
     <g id="line2d_11">
      <g>
       <use xlink:href="#m9d1af151da" x="57.6" y="175.761144" style="stroke: #000000; stroke-width: 0.8"/>
      </g>
     </g>
     <g id="text_12">
      <!-- −0.0001 -->
      <g transform="translate(-10.118438 181.08005) scale(0.14 -0.14)">
       <use xlink:href="#DejaVuSans-2212"/>
       <use xlink:href="#DejaVuSans-30" transform="translate(83.789062 0)"/>
       <use xlink:href="#DejaVuSans-2e" transform="translate(147.412109 0)"/>
       <use xlink:href="#DejaVuSans-30" transform="translate(179.199219 0)"/>
       <use xlink:href="#DejaVuSans-30" transform="translate(242.822266 0)"/>
       <use xlink:href="#DejaVuSans-30" transform="translate(306.445312 0)"/>
       <use xlink:href="#DejaVuSans-31" transform="translate(370.068359 0)"/>
      </g>
     </g>
    </g>
    <g id="ytick_5">
     <g id="line2d_12">
      <g>
       <use xlink:href="#m9d1af151da" x="57.6" y="135.059016" style="stroke: #000000; stroke-width: 0.8"/>
      </g>
     </g>
     <g id="text_13">
      <!-- 0.0000 -->
      <g transform="translate(1.613125 140.377922) scale(0.14 -0.14)">
       <use xlink:href="#DejaVuSans-30"/>
       <use xlink:href="#DejaVuSans-2e" transform="translate(63.623047 0)"/>
       <use xlink:href="#DejaVuSans-30" transform="translate(95.410156 0)"/>
       <use xlink:href="#DejaVuSans-30" transform="translate(159.033203 0)"/>
       <use xlink:href="#DejaVuSans-30" transform="translate(222.65625 0)"/>
       <use xlink:href="#DejaVuSans-30" transform="translate(286.279297 0)"/>
      </g>
     </g>
    </g>
    <g id="ytick_6">
     <g id="line2d_13">
      <g>
       <use xlink:href="#m9d1af151da" x="57.6" y="94.356887" style="stroke: #000000; stroke-width: 0.8"/>
      </g>
     </g>
     <g id="text_14">
      <!-- 0.0001 -->
      <g transform="translate(1.613125 99.675793) scale(0.14 -0.14)">
       <use xlink:href="#DejaVuSans-30"/>
       <use xlink:href="#DejaVuSans-2e" transform="translate(63.623047 0)"/>
       <use xlink:href="#DejaVuSans-30" transform="translate(95.410156 0)"/>
       <use xlink:href="#DejaVuSans-30" transform="translate(159.033203 0)"/>
       <use xlink:href="#DejaVuSans-30" transform="translate(222.65625 0)"/>
       <use xlink:href="#DejaVuSans-31" transform="translate(286.279297 0)"/>
      </g>
     </g>
    </g>
    <g id="ytick_7">
     <g id="line2d_14">
      <g>
       <use xlink:href="#m9d1af151da" x="57.6" y="53.654758" style="stroke: #000000; stroke-width: 0.8"/>
      </g>
     </g>
     <g id="text_15">
      <!-- 0.0002 -->
      <g transform="translate(1.613125 58.973665) scale(0.14 -0.14)">
       <use xlink:href="#DejaVuSans-30"/>
       <use xlink:href="#DejaVuSans-2e" transform="translate(63.623047 0)"/>
       <use xlink:href="#DejaVuSans-30" transform="translate(95.410156 0)"/>
       <use xlink:href="#DejaVuSans-30" transform="translate(159.033203 0)"/>
       <use xlink:href="#DejaVuSans-30" transform="translate(222.65625 0)"/>
       <use xlink:href="#DejaVuSans-32" transform="translate(286.279297 0)"/>
      </g>
     </g>
    </g>
    <g id="text_16">
     <!-- $(F_p + F_{\bigstar})/F_{\bigstar}$ -->
     <g transform="translate(-18.458438 215.548) rotate(-90) scale(0.14 -0.14)">
      <defs>
       <path id="DejaVuSans-28" d="M 1984 4856 
Q 1566 4138 1362 3434 
Q 1159 2731 1159 2009 
Q 1159 1288 1364 580 
Q 1569 -128 1984 -844 
L 1484 -844 
Q 1016 -109 783 600 
Q 550 1309 550 2009 
Q 550 2706 781 3412 
Q 1013 4119 1484 4856 
L 1984 4856 
z
" transform="scale(0.015625)"/>
       <path id="DejaVuSans-Oblique-46" d="M 1081 4666 
L 3756 4666 
L 3653 4134 
L 1606 4134 
L 1338 2759 
L 3188 2759 
L 3084 2228 
L 1234 2228 
L 800 0 
L 172 0 
L 1081 4666 
z
" transform="scale(0.015625)"/>
       <path id="DejaVuSans-Oblique-70" d="M 3175 2156 
Q 3175 2616 2975 2859 
Q 2775 3103 2400 3103 
Q 2144 3103 1911 2972 
Q 1678 2841 1497 2591 
Q 1319 2344 1212 1994 
Q 1106 1644 1106 1300 
Q 1106 863 1306 627 
Q 1506 391 1875 391 
Q 2147 391 2380 519 
Q 2613 647 2778 891 
Q 2956 1147 3065 1494 
Q 3175 1841 3175 2156 
z
M 1394 2969 
Q 1625 3272 1939 3428 
Q 2253 3584 2638 3584 
Q 3175 3584 3472 3232 
Q 3769 2881 3769 2247 
Q 3769 1728 3584 1258 
Q 3400 788 3053 416 
Q 2822 169 2531 39 
Q 2241 -91 1919 -91 
Q 1547 -91 1294 64 
Q 1041 219 916 525 
L 556 -1331 
L -19 -1331 
L 922 3500 
L 1497 3500 
L 1394 2969 
z
" transform="scale(0.015625)"/>
       <path id="DejaVuSans-2b" d="M 2944 4013 
L 2944 2272 
L 4684 2272 
L 4684 1741 
L 2944 1741 
L 2944 0 
L 2419 0 
L 2419 1741 
L 678 1741 
L 678 2272 
L 2419 2272 
L 2419 4013 
L 2944 4013 
z
" transform="scale(0.015625)"/>
       <path id="DejaVuSans-2605" d="M 416 2850 
L 2288 2850 
L 2869 4628 
L 3453 2850 
L 5322 2850 
L 3809 1747 
L 4391 -28 
L 2869 1072 
L 1350 -28 
L 1928 1747 
L 416 2850 
z
" transform="scale(0.015625)"/>
       <path id="DejaVuSans-29" d="M 513 4856 
L 1013 4856 
Q 1481 4119 1714 3412 
Q 1947 2706 1947 2009 
Q 1947 1309 1714 600 
Q 1481 -109 1013 -844 
L 513 -844 
Q 928 -128 1133 580 
Q 1338 1288 1338 2009 
Q 1338 2731 1133 3434 
Q 928 4138 513 4856 
z
" transform="scale(0.015625)"/>
       <path id="DejaVuSans-2f" d="M 1625 4666 
L 2156 4666 
L 531 -594 
L 0 -594 
L 1625 4666 
z
" transform="scale(0.015625)"/>
      </defs>
      <use xlink:href="#DejaVuSans-28" transform="translate(0 0.125)"/>
      <use xlink:href="#DejaVuSans-Oblique-46" transform="translate(39.013672 0.125)"/>
      <use xlink:href="#DejaVuSans-Oblique-70" transform="translate(96.533203 -16.28125) scale(0.7)"/>
      <use xlink:href="#DejaVuSans-2b" transform="translate(163.183594 0.125)"/>
      <use xlink:href="#DejaVuSans-Oblique-46" transform="translate(266.455078 0.125)"/>
      <use xlink:href="#DejaVuSans-2605" transform="translate(323.974609 -16.28125) scale(0.7)"/>
      <use xlink:href="#DejaVuSans-29" transform="translate(389.462891 0.125)"/>
      <use xlink:href="#DejaVuSans-2f" transform="translate(428.476562 0.125)"/>
      <use xlink:href="#DejaVuSans-Oblique-46" transform="translate(462.167969 0.125)"/>
      <use xlink:href="#DejaVuSans-2605" transform="translate(519.6875 -16.28125) scale(0.7)"/>
     </g>
    </g>
    <g id="text_17">
     <!-- +1 -->
     <g transform="translate(57.6 38.472) scale(0.14 -0.14)">
      <use xlink:href="#DejaVuSans-2b"/>
      <use xlink:href="#DejaVuSans-31" transform="translate(83.789062 0)"/>
     </g>
    </g>
   </g>
   <g id="patch_3">
    <path d="M 57.6 307.584 
L 57.6 41.472 
" style="fill: none; stroke: #000000; stroke-width: 0.8; stroke-linejoin: miter; stroke-linecap: square"/>
   </g>
   <g id="patch_4">
    <path d="M 414.72 307.584 
L 414.72 41.472 
" style="fill: none; stroke: #000000; stroke-width: 0.8; stroke-linejoin: miter; stroke-linecap: square"/>
   </g>
   <g id="patch_5">
    <path d="M 57.6 307.584 
L 414.72 307.584 
" style="fill: none; stroke: #000000; stroke-width: 0.8; stroke-linejoin: miter; stroke-linecap: square"/>
   </g>
   <g id="patch_6">
    <path d="M 57.6 41.472 
L 414.72 41.472 
" style="fill: none; stroke: #000000; stroke-width: 0.8; stroke-linejoin: miter; stroke-linecap: square"/>
   </g>
   <g id="LineCollection_1">
    <path d="M 75.164302 158.43278 
L 75.164302 121.380287 
" clip-path="url(#p4d178ebc4f)" style="fill: none; stroke: #ff8000; stroke-width: 1.5"/>
    <path d="M 77.848257 126.710609 
L 77.848257 89.369766 
" clip-path="url(#p4d178ebc4f)" style="fill: none; stroke: #ff8000; stroke-width: 1.5"/>
    <path d="M 80.511406 124.814537 
L 80.511406 87.473693 
" clip-path="url(#p4d178ebc4f)" style="fill: none; stroke: #ff8000; stroke-width: 1.5"/>
    <path d="M 83.174556 139.23912 
L 83.174556 101.898276 
" clip-path="url(#p4d178ebc4f)" style="fill: none; stroke: #ff8000; stroke-width: 1.5"/>
    <path d="M 85.837705 119.935055 
L 85.837705 82.594211 
" clip-path="url(#p4d178ebc4f)" style="fill: none; stroke: #ff8000; stroke-width: 1.5"/>
    <path d="M 88.500854 113.894894 
L 88.500854 76.554051 
" clip-path="url(#p4d178ebc4f)" style="fill: none; stroke: #ff8000; stroke-width: 1.5"/>
    <path d="M 91.184809 121.137995 
L 91.184809 84.085501 
" clip-path="url(#p4d178ebc4f)" style="fill: none; stroke: #ff8000; stroke-width: 1.5"/>
    <path d="M 93.868765 152.060337 
L 93.868765 114.719493 
" clip-path="url(#p4d178ebc4f)" style="fill: none; stroke: #ff8000; stroke-width: 1.5"/>
    <path d="M 96.531914 140.058031 
L 96.531914 102.717187 
" clip-path="url(#p4d178ebc4f)" style="fill: none; stroke: #ff8000; stroke-width: 1.5"/>
    <path d="M 99.195063 149.581865 
L 99.195063 112.241022 
" clip-path="url(#p4d178ebc4f)" style="fill: none; stroke: #ff8000; stroke-width: 1.5"/>
    <path d="M 101.858213 166.165778 
L 101.858213 128.824935 
" clip-path="url(#p4d178ebc4f)" style="fill: none; stroke: #ff8000; stroke-width: 1.5"/>
    <path d="M 104.521362 143.504169 
L 104.521362 106.163326 
" clip-path="url(#p4d178ebc4f)" style="fill: none; stroke: #ff8000; stroke-width: 1.5"/>
    <path d="M 107.184511 152.194506 
L 107.184511 114.853663 
" clip-path="url(#p4d178ebc4f)" style="fill: none; stroke: #ff8000; stroke-width: 1.5"/>
    <path d="M 109.868466 145.703155 
L 109.868466 108.650662 
" clip-path="url(#p4d178ebc4f)" style="fill: none; stroke: #ff8000; stroke-width: 1.5"/>
    <path d="M 112.552422 162.637991 
L 112.552422 125.297148 
" clip-path="url(#p4d178ebc4f)" style="fill: none; stroke: #ff8000; stroke-width: 1.5"/>
    <path d="M 115.215571 132.675696 
L 115.215571 95.334852 
" clip-path="url(#p4d178ebc4f)" style="fill: none; stroke: #ff8000; stroke-width: 1.5"/>
    <path d="M 117.87872 136.294893 
L 117.87872 98.954049 
" clip-path="url(#p4d178ebc4f)" style="fill: none; stroke: #ff8000; stroke-width: 1.5"/>
    <path d="M 120.541869 138.56926 
L 120.541869 101.228416 
" clip-path="url(#p4d178ebc4f)" style="fill: none; stroke: #ff8000; stroke-width: 1.5"/>
    <path d="M 123.205019 115.051185 
L 123.205019 77.710341 
" clip-path="url(#p4d178ebc4f)" style="fill: none; stroke: #ff8000; stroke-width: 1.5"/>
    <path d="M 125.868168 130.581076 
L 125.868168 93.240233 
" clip-path="url(#p4d178ebc4f)" style="fill: none; stroke: #ff8000; stroke-width: 1.5"/>
    <path d="M 128.552123 129.523248 
L 128.552123 92.470755 
" clip-path="url(#p4d178ebc4f)" style="fill: none; stroke: #ff8000; stroke-width: 1.5"/>
    <path d="M 131.236078 119.692082 
L 131.236078 82.351238 
" clip-path="url(#p4d178ebc4f)" style="fill: none; stroke: #ff8000; stroke-width: 1.5"/>
    <path d="M 133.899228 130.969673 
L 133.899228 93.628829 
" clip-path="url(#p4d178ebc4f)" style="fill: none; stroke: #ff8000; stroke-width: 1.5"/>
    <path d="M 136.562377 124.83865 
L 136.562377 87.497806 
" clip-path="url(#p4d178ebc4f)" style="fill: none; stroke: #ff8000; stroke-width: 1.5"/>
    <path d="M 139.225526 119.207483 
L 139.225526 81.86664 
" clip-path="url(#p4d178ebc4f)" style="fill: none; stroke: #ff8000; stroke-width: 1.5"/>
    <path d="M 141.888676 152.174224 
L 141.888676 114.833381 
" clip-path="url(#p4d178ebc4f)" style="fill: none; stroke: #ff8000; stroke-width: 1.5"/>
    <path d="M 144.551825 167.785107 
L 144.551825 130.444263 
" clip-path="url(#p4d178ebc4f)" style="fill: none; stroke: #ff8000; stroke-width: 1.5"/>
    <path d="M 147.23578 169.3886 
L 147.23578 132.336107 
" clip-path="url(#p4d178ebc4f)" style="fill: none; stroke: #ff8000; stroke-width: 1.5"/>
    <path d="M 149.919735 126.88555 
L 149.919735 89.544706 
" clip-path="url(#p4d178ebc4f)" style="fill: none; stroke: #ff8000; stroke-width: 1.5"/>
    <path d="M 152.582885 137.990718 
L 152.582885 100.649874 
" clip-path="url(#p4d178ebc4f)" style="fill: none; stroke: #ff8000; stroke-width: 1.5"/>
    <path d="M 155.246034 166.237167 
L 155.246034 128.896323 
" clip-path="url(#p4d178ebc4f)" style="fill: none; stroke: #ff8000; stroke-width: 1.5"/>
    <path d="M 157.909183 142.688644 
L 157.909183 105.3478 
" clip-path="url(#p4d178ebc4f)" style="fill: none; stroke: #ff8000; stroke-width: 1.5"/>
    <path d="M 160.572333 166.447013 
L 160.572333 129.10617 
" clip-path="url(#p4d178ebc4f)" style="fill: none; stroke: #ff8000; stroke-width: 1.5"/>
    <path d="M 163.235482 138.782834 
L 163.235482 101.44199 
" clip-path="url(#p4d178ebc4f)" style="fill: none; stroke: #ff8000; stroke-width: 1.5"/>
    <path d="M 165.919437 152.474556 
L 165.919437 115.422063 
" clip-path="url(#p4d178ebc4f)" style="fill: none; stroke: #ff8000; stroke-width: 1.5"/>
    <path d="M 168.603392 140.006122 
L 168.603392 102.665279 
" clip-path="url(#p4d178ebc4f)" style="fill: none; stroke: #ff8000; stroke-width: 1.5"/>
    <path d="M 171.266541 183.266301 
L 171.266541 145.925457 
" clip-path="url(#p4d178ebc4f)" style="fill: none; stroke: #ff8000; stroke-width: 1.5"/>
    <path d="M 173.929691 121.911152 
L 173.929691 84.570309 
" clip-path="url(#p4d178ebc4f)" style="fill: none; stroke: #ff8000; stroke-width: 1.5"/>
    <path d="M 176.59284 135.65453 
L 176.59284 98.313686 
" clip-path="url(#p4d178ebc4f)" style="fill: none; stroke: #ff8000; stroke-width: 1.5"/>
    <path d="M 179.255989 145.535208 
L 179.255989 108.194364 
" clip-path="url(#p4d178ebc4f)" style="fill: none; stroke: #ff8000; stroke-width: 1.5"/>
    <path d="M 181.919139 90.908844 
L 181.919139 53.568 
" clip-path="url(#p4d178ebc4f)" style="fill: none; stroke: #ff8000; stroke-width: 1.5"/>
    <path d="M 184.603094 134.230722 
L 184.603094 97.178229 
" clip-path="url(#p4d178ebc4f)" style="fill: none; stroke: #ff8000; stroke-width: 1.5"/>
    <path d="M 187.287049 137.058558 
L 187.287049 99.717715 
" clip-path="url(#p4d178ebc4f)" style="fill: none; stroke: #ff8000; stroke-width: 1.5"/>
    <path d="M 189.950198 100.699853 
L 189.950198 63.359009 
" clip-path="url(#p4d178ebc4f)" style="fill: none; stroke: #ff8000; stroke-width: 1.5"/>
    <path d="M 192.613348 124.884916 
L 192.613348 87.544072 
" clip-path="url(#p4d178ebc4f)" style="fill: none; stroke: #ff8000; stroke-width: 1.5"/>
    <path d="M 195.276497 161.120142 
L 195.276497 123.779298 
" clip-path="url(#p4d178ebc4f)" style="fill: none; stroke: #ff8000; stroke-width: 1.5"/>
    <path d="M 197.939646 141.19385 
L 197.939646 103.853006 
" clip-path="url(#p4d178ebc4f)" style="fill: none; stroke: #ff8000; stroke-width: 1.5"/>
    <path d="M 200.623601 141.116502 
L 200.623601 104.064009 
" clip-path="url(#p4d178ebc4f)" style="fill: none; stroke: #ff8000; stroke-width: 1.5"/>
    <path d="M 203.307557 171.349647 
L 203.307557 134.008803 
" clip-path="url(#p4d178ebc4f)" style="fill: none; stroke: #ff8000; stroke-width: 1.5"/>
    <path d="M 205.970706 163.610316 
L 205.970706 126.269472 
" clip-path="url(#p4d178ebc4f)" style="fill: none; stroke: #ff8000; stroke-width: 1.5"/>
    <path d="M 208.633855 159.899933 
L 208.633855 122.55909 
" clip-path="url(#p4d178ebc4f)" style="fill: none; stroke: #ff8000; stroke-width: 1.5"/>
    <path d="M 211.297004 133.155815 
L 211.297004 95.814971 
" clip-path="url(#p4d178ebc4f)" style="fill: none; stroke: #ff8000; stroke-width: 1.5"/>
    <path d="M 213.960154 188.575104 
L 213.960154 151.234261 
" clip-path="url(#p4d178ebc4f)" style="fill: none; stroke: #ff8000; stroke-width: 1.5"/>
    <path d="M 216.623303 177.794057 
L 216.623303 140.453213 
" clip-path="url(#p4d178ebc4f)" style="fill: none; stroke: #ff8000; stroke-width: 1.5"/>
    <path d="M 219.307258 155.317485 
L 219.307258 118.264992 
" clip-path="url(#p4d178ebc4f)" style="fill: none; stroke: #ff8000; stroke-width: 1.5"/>
    <path d="M 221.991213 143.987529 
L 221.991213 106.646685 
" clip-path="url(#p4d178ebc4f)" style="fill: none; stroke: #ff8000; stroke-width: 1.5"/>
    <path d="M 224.654363 150.228118 
L 224.654363 112.887274 
" clip-path="url(#p4d178ebc4f)" style="fill: none; stroke: #ff8000; stroke-width: 1.5"/>
    <path d="M 227.317512 183.147673 
L 227.317512 145.806829 
" clip-path="url(#p4d178ebc4f)" style="fill: none; stroke: #ff8000; stroke-width: 1.5"/>
    <path d="M 229.980661 201.323549 
L 229.980661 163.982706 
" clip-path="url(#p4d178ebc4f)" style="fill: none; stroke: #ff8000; stroke-width: 1.5"/>
    <path d="M 232.643811 236.676258 
L 232.643811 199.335414 
" clip-path="url(#p4d178ebc4f)" style="fill: none; stroke: #ff8000; stroke-width: 1.5"/>
    <path d="M 235.30696 295.488 
L 235.30696 258.147156 
" clip-path="url(#p4d178ebc4f)" style="fill: none; stroke: #ff8000; stroke-width: 1.5"/>
    <path d="M 237.990915 234.047778 
L 237.990915 196.995284 
" clip-path="url(#p4d178ebc4f)" style="fill: none; stroke: #ff8000; stroke-width: 1.5"/>
    <path d="M 240.67487 240.25161 
L 240.67487 202.910766 
" clip-path="url(#p4d178ebc4f)" style="fill: none; stroke: #ff8000; stroke-width: 1.5"/>
    <path d="M 243.33802 226.542267 
L 243.33802 189.201423 
" clip-path="url(#p4d178ebc4f)" style="fill: none; stroke: #ff8000; stroke-width: 1.5"/>
    <path d="M 246.001169 174.05837 
L 246.001169 136.717527 
" clip-path="url(#p4d178ebc4f)" style="fill: none; stroke: #ff8000; stroke-width: 1.5"/>
    <path d="M 248.664318 178.585002 
L 248.664318 141.244158 
" clip-path="url(#p4d178ebc4f)" style="fill: none; stroke: #ff8000; stroke-width: 1.5"/>
    <path d="M 251.327468 152.488114 
L 251.327468 115.14727 
" clip-path="url(#p4d178ebc4f)" style="fill: none; stroke: #ff8000; stroke-width: 1.5"/>
    <path d="M 253.990617 140.513365 
L 253.990617 103.172522 
" clip-path="url(#p4d178ebc4f)" style="fill: none; stroke: #ff8000; stroke-width: 1.5"/>
    <path d="M 256.674572 132.805401 
L 256.674572 95.752908 
" clip-path="url(#p4d178ebc4f)" style="fill: none; stroke: #ff8000; stroke-width: 1.5"/>
    <path d="M 259.358527 143.307356 
L 259.358527 105.966512 
" clip-path="url(#p4d178ebc4f)" style="fill: none; stroke: #ff8000; stroke-width: 1.5"/>
    <path d="M 262.021676 162.899014 
L 262.021676 125.55817 
" clip-path="url(#p4d178ebc4f)" style="fill: none; stroke: #ff8000; stroke-width: 1.5"/>
    <path d="M 264.684826 130.442922 
L 264.684826 93.102079 
" clip-path="url(#p4d178ebc4f)" style="fill: none; stroke: #ff8000; stroke-width: 1.5"/>
    <path d="M 267.347975 127.791752 
L 267.347975 90.450908 
" clip-path="url(#p4d178ebc4f)" style="fill: none; stroke: #ff8000; stroke-width: 1.5"/>
    <path d="M 270.011124 124.028164 
L 270.011124 86.68732 
" clip-path="url(#p4d178ebc4f)" style="fill: none; stroke: #ff8000; stroke-width: 1.5"/>
    <path d="M 272.674274 179.023278 
L 272.674274 141.682434 
" clip-path="url(#p4d178ebc4f)" style="fill: none; stroke: #ff8000; stroke-width: 1.5"/>
    <path d="M 275.358229 137.565456 
L 275.358229 100.512963 
" clip-path="url(#p4d178ebc4f)" style="fill: none; stroke: #ff8000; stroke-width: 1.5"/>
    <path d="M 278.042184 145.125637 
L 278.042184 107.784793 
" clip-path="url(#p4d178ebc4f)" style="fill: none; stroke: #ff8000; stroke-width: 1.5"/>
    <path d="M 280.705333 183.091113 
L 280.705333 145.750269 
" clip-path="url(#p4d178ebc4f)" style="fill: none; stroke: #ff8000; stroke-width: 1.5"/>
    <path d="M 283.368483 156.640024 
L 283.368483 119.29918 
" clip-path="url(#p4d178ebc4f)" style="fill: none; stroke: #ff8000; stroke-width: 1.5"/>
    <path d="M 286.031632 157.115832 
L 286.031632 119.774988 
" clip-path="url(#p4d178ebc4f)" style="fill: none; stroke: #ff8000; stroke-width: 1.5"/>
    <path d="M 288.694781 140.805331 
L 288.694781 103.464488 
" clip-path="url(#p4d178ebc4f)" style="fill: none; stroke: #ff8000; stroke-width: 1.5"/>
    <path d="M 291.357931 127.560403 
L 291.357931 90.21956 
" clip-path="url(#p4d178ebc4f)" style="fill: none; stroke: #ff8000; stroke-width: 1.5"/>
    <path d="M 294.041886 148.289973 
L 294.041886 111.23748 
" clip-path="url(#p4d178ebc4f)" style="fill: none; stroke: #ff8000; stroke-width: 1.5"/>
    <path d="M 296.725841 173.232819 
L 296.725841 135.891975 
" clip-path="url(#p4d178ebc4f)" style="fill: none; stroke: #ff8000; stroke-width: 1.5"/>
    <path d="M 299.38899 129.736243 
L 299.38899 92.395399 
" clip-path="url(#p4d178ebc4f)" style="fill: none; stroke: #ff8000; stroke-width: 1.5"/>
    <path d="M 302.05214 135.947631 
L 302.05214 98.606787 
" clip-path="url(#p4d178ebc4f)" style="fill: none; stroke: #ff8000; stroke-width: 1.5"/>
    <path d="M 304.715289 110.174373 
L 304.715289 72.833529 
" clip-path="url(#p4d178ebc4f)" style="fill: none; stroke: #ff8000; stroke-width: 1.5"/>
    <path d="M 307.378438 128.418439 
L 307.378438 91.077596 
" clip-path="url(#p4d178ebc4f)" style="fill: none; stroke: #ff8000; stroke-width: 1.5"/>
    <path d="M 310.041587 159.745164 
L 310.041587 122.40432 
" clip-path="url(#p4d178ebc4f)" style="fill: none; stroke: #ff8000; stroke-width: 1.5"/>
    <path d="M 312.725543 166.096308 
L 312.725543 129.043815 
" clip-path="url(#p4d178ebc4f)" style="fill: none; stroke: #ff8000; stroke-width: 1.5"/>
    <path d="M 315.409498 178.829699 
L 315.409498 141.488856 
" clip-path="url(#p4d178ebc4f)" style="fill: none; stroke: #ff8000; stroke-width: 1.5"/>
    <path d="M 318.072647 131.35758 
L 318.072647 94.016736 
" clip-path="url(#p4d178ebc4f)" style="fill: none; stroke: #ff8000; stroke-width: 1.5"/>
    <path d="M 320.735796 140.796817 
L 320.735796 103.455973 
" clip-path="url(#p4d178ebc4f)" style="fill: none; stroke: #ff8000; stroke-width: 1.5"/>
    <path d="M 323.398946 159.939169 
L 323.398946 122.598325 
" clip-path="url(#p4d178ebc4f)" style="fill: none; stroke: #ff8000; stroke-width: 1.5"/>
    <path d="M 326.062095 129.291046 
L 326.062095 91.950203 
" clip-path="url(#p4d178ebc4f)" style="fill: none; stroke: #ff8000; stroke-width: 1.5"/>
    <path d="M 328.74605 150.798647 
L 328.74605 113.746153 
" clip-path="url(#p4d178ebc4f)" style="fill: none; stroke: #ff8000; stroke-width: 1.5"/>
    <path d="M 331.430005 134.140798 
L 331.430005 96.799954 
" clip-path="url(#p4d178ebc4f)" style="fill: none; stroke: #ff8000; stroke-width: 1.5"/>
    <path d="M 334.093155 109.243953 
L 334.093155 71.90311 
" clip-path="url(#p4d178ebc4f)" style="fill: none; stroke: #ff8000; stroke-width: 1.5"/>
    <path d="M 336.756304 147.367764 
L 336.756304 110.02692 
" clip-path="url(#p4d178ebc4f)" style="fill: none; stroke: #ff8000; stroke-width: 1.5"/>
    <path d="M 339.419453 152.771129 
L 339.419453 115.430285 
" clip-path="url(#p4d178ebc4f)" style="fill: none; stroke: #ff8000; stroke-width: 1.5"/>
    <path d="M 342.082603 139.69063 
L 342.082603 102.349786 
" clip-path="url(#p4d178ebc4f)" style="fill: none; stroke: #ff8000; stroke-width: 1.5"/>
    <path d="M 344.745752 127.720068 
L 344.745752 90.379225 
" clip-path="url(#p4d178ebc4f)" style="fill: none; stroke: #ff8000; stroke-width: 1.5"/>
    <path d="M 347.429707 109.184352 
L 347.429707 72.131859 
" clip-path="url(#p4d178ebc4f)" style="fill: none; stroke: #ff8000; stroke-width: 1.5"/>
    <path d="M 350.113662 143.600379 
L 350.113662 106.259535 
" clip-path="url(#p4d178ebc4f)" style="fill: none; stroke: #ff8000; stroke-width: 1.5"/>
    <path d="M 352.776812 125.148168 
L 352.776812 87.807325 
" clip-path="url(#p4d178ebc4f)" style="fill: none; stroke: #ff8000; stroke-width: 1.5"/>
    <path d="M 355.439961 148.741159 
L 355.439961 111.400316 
" clip-path="url(#p4d178ebc4f)" style="fill: none; stroke: #ff8000; stroke-width: 1.5"/>
    <path d="M 358.10311 172.333297 
L 358.10311 134.992453 
" clip-path="url(#p4d178ebc4f)" style="fill: none; stroke: #ff8000; stroke-width: 1.5"/>
    <path d="M 360.766259 139.181162 
L 360.766259 101.840318 
" clip-path="url(#p4d178ebc4f)" style="fill: none; stroke: #ff8000; stroke-width: 1.5"/>
    <path d="M 363.429409 142.276073 
L 363.429409 104.93523 
" clip-path="url(#p4d178ebc4f)" style="fill: none; stroke: #ff8000; stroke-width: 1.5"/>
    <path d="M 366.113364 164.466281 
L 366.113364 127.413788 
" clip-path="url(#p4d178ebc4f)" style="fill: none; stroke: #ff8000; stroke-width: 1.5"/>
    <path d="M 368.797319 165.588994 
L 368.797319 128.248151 
" clip-path="url(#p4d178ebc4f)" style="fill: none; stroke: #ff8000; stroke-width: 1.5"/>
    <path d="M 371.460468 163.991847 
L 371.460468 126.651004 
" clip-path="url(#p4d178ebc4f)" style="fill: none; stroke: #ff8000; stroke-width: 1.5"/>
    <path d="M 374.123618 110.713376 
L 374.123618 73.372533 
" clip-path="url(#p4d178ebc4f)" style="fill: none; stroke: #ff8000; stroke-width: 1.5"/>
    <path d="M 376.786767 119.722101 
L 376.786767 82.381257 
" clip-path="url(#p4d178ebc4f)" style="fill: none; stroke: #ff8000; stroke-width: 1.5"/>
    <path d="M 379.449916 161.449287 
L 379.449916 124.108443 
" clip-path="url(#p4d178ebc4f)" style="fill: none; stroke: #ff8000; stroke-width: 1.5"/>
    <path d="M 382.113066 132.201846 
L 382.113066 94.861002 
" clip-path="url(#p4d178ebc4f)" style="fill: none; stroke: #ff8000; stroke-width: 1.5"/>
    <path d="M 384.797021 120.648775 
L 384.797021 83.596282 
" clip-path="url(#p4d178ebc4f)" style="fill: none; stroke: #ff8000; stroke-width: 1.5"/>
    <path d="M 387.480976 150.15149 
L 387.480976 112.810646 
" clip-path="url(#p4d178ebc4f)" style="fill: none; stroke: #ff8000; stroke-width: 1.5"/>
    <path d="M 390.144125 126.504163 
L 390.144125 89.16332 
" clip-path="url(#p4d178ebc4f)" style="fill: none; stroke: #ff8000; stroke-width: 1.5"/>
    <path d="M 392.807275 107.628271 
L 392.807275 70.287428 
" clip-path="url(#p4d178ebc4f)" style="fill: none; stroke: #ff8000; stroke-width: 1.5"/>
    <path d="M 395.470424 162.173311 
L 395.470424 124.832467 
" clip-path="url(#p4d178ebc4f)" style="fill: none; stroke: #ff8000; stroke-width: 1.5"/>
    <path d="M 397.655039 129.388899 
L 397.655039 82.735618 
" clip-path="url(#p4d178ebc4f)" style="fill: none; stroke: #ff8000; stroke-width: 1.5"/>
   </g>
   <g id="text_18">
    <!-- Phase curve at $\lambda$ = 3.34 $\mu$m with AIRS-CH0-bin2 -->
    <g transform="translate(43.92 21.834187) scale(0.16 -0.16)">
     <defs>
      <path id="DejaVuSans-50" d="M 1259 4147 
L 1259 2394 
L 2053 2394 
Q 2494 2394 2734 2622 
Q 2975 2850 2975 3272 
Q 2975 3691 2734 3919 
Q 2494 4147 2053 4147 
L 1259 4147 
z
M 628 4666 
L 2053 4666 
Q 2838 4666 3239 4311 
Q 3641 3956 3641 3272 
Q 3641 2581 3239 2228 
Q 2838 1875 2053 1875 
L 1259 1875 
L 1259 0 
L 628 0 
L 628 4666 
z
" transform="scale(0.015625)"/>
      <path id="DejaVuSans-68" d="M 3513 2113 
L 3513 0 
L 2938 0 
L 2938 2094 
Q 2938 2591 2744 2837 
Q 2550 3084 2163 3084 
Q 1697 3084 1428 2787 
Q 1159 2491 1159 1978 
L 1159 0 
L 581 0 
L 581 4863 
L 1159 4863 
L 1159 2956 
Q 1366 3272 1645 3428 
Q 1925 3584 2291 3584 
Q 2894 3584 3203 3211 
Q 3513 2838 3513 2113 
z
" transform="scale(0.015625)"/>
      <path id="DejaVuSans-61" d="M 2194 1759 
Q 1497 1759 1228 1600 
Q 959 1441 959 1056 
Q 959 750 1161 570 
Q 1363 391 1709 391 
Q 2188 391 2477 730 
Q 2766 1069 2766 1631 
L 2766 1759 
L 2194 1759 
z
M 3341 1997 
L 3341 0 
L 2766 0 
L 2766 531 
Q 2569 213 2275 61 
Q 1981 -91 1556 -91 
Q 1019 -91 701 211 
Q 384 513 384 1019 
Q 384 1609 779 1909 
Q 1175 2209 1959 2209 
L 2766 2209 
L 2766 2266 
Q 2766 2663 2505 2880 
Q 2244 3097 1772 3097 
Q 1472 3097 1187 3025 
Q 903 2953 641 2809 
L 641 3341 
Q 956 3463 1253 3523 
Q 1550 3584 1831 3584 
Q 2591 3584 2966 3190 
Q 3341 2797 3341 1997 
z
" transform="scale(0.015625)"/>
      <path id="DejaVuSans-73" d="M 2834 3397 
L 2834 2853 
Q 2591 2978 2328 3040 
Q 2066 3103 1784 3103 
Q 1356 3103 1142 2972 
Q 928 2841 928 2578 
Q 928 2378 1081 2264 
Q 1234 2150 1697 2047 
L 1894 2003 
Q 2506 1872 2764 1633 
Q 3022 1394 3022 966 
Q 3022 478 2636 193 
Q 2250 -91 1575 -91 
Q 1294 -91 989 -36 
Q 684 19 347 128 
L 347 722 
Q 666 556 975 473 
Q 1284 391 1588 391 
Q 1994 391 2212 530 
Q 2431 669 2431 922 
Q 2431 1156 2273 1281 
Q 2116 1406 1581 1522 
L 1381 1569 
Q 847 1681 609 1914 
Q 372 2147 372 2553 
Q 372 3047 722 3315 
Q 1072 3584 1716 3584 
Q 2034 3584 2315 3537 
Q 2597 3491 2834 3397 
z
" transform="scale(0.015625)"/>
      <path id="DejaVuSans-65" d="M 3597 1894 
L 3597 1613 
L 953 1613 
Q 991 1019 1311 708 
Q 1631 397 2203 397 
Q 2534 397 2845 478 
Q 3156 559 3463 722 
L 3463 178 
Q 3153 47 2828 -22 
Q 2503 -91 2169 -91 
Q 1331 -91 842 396 
Q 353 884 353 1716 
Q 353 2575 817 3079 
Q 1281 3584 2069 3584 
Q 2775 3584 3186 3129 
Q 3597 2675 3597 1894 
z
M 3022 2063 
Q 3016 2534 2758 2815 
Q 2500 3097 2075 3097 
Q 1594 3097 1305 2825 
Q 1016 2553 972 2059 
L 3022 2063 
z
" transform="scale(0.015625)"/>
      <path id="DejaVuSans-63" d="M 3122 3366 
L 3122 2828 
Q 2878 2963 2633 3030 
Q 2388 3097 2138 3097 
Q 1578 3097 1268 2742 
Q 959 2388 959 1747 
Q 959 1106 1268 751 
Q 1578 397 2138 397 
Q 2388 397 2633 464 
Q 2878 531 3122 666 
L 3122 134 
Q 2881 22 2623 -34 
Q 2366 -91 2075 -91 
Q 1284 -91 818 406 
Q 353 903 353 1747 
Q 353 2603 823 3093 
Q 1294 3584 2113 3584 
Q 2378 3584 2631 3529 
Q 2884 3475 3122 3366 
z
" transform="scale(0.015625)"/>
      <path id="DejaVuSans-75" d="M 544 1381 
L 544 3500 
L 1119 3500 
L 1119 1403 
Q 1119 906 1312 657 
Q 1506 409 1894 409 
Q 2359 409 2629 706 
Q 2900 1003 2900 1516 
L 2900 3500 
L 3475 3500 
L 3475 0 
L 2900 0 
L 2900 538 
Q 2691 219 2414 64 
Q 2138 -91 1772 -91 
Q 1169 -91 856 284 
Q 544 659 544 1381 
z
M 1991 3584 
L 1991 3584 
z
" transform="scale(0.015625)"/>
      <path id="DejaVuSans-72" d="M 2631 2963 
Q 2534 3019 2420 3045 
Q 2306 3072 2169 3072 
Q 1681 3072 1420 2755 
Q 1159 2438 1159 1844 
L 1159 0 
L 581 0 
L 581 3500 
L 1159 3500 
L 1159 2956 
Q 1341 3275 1631 3429 
Q 1922 3584 2338 3584 
Q 2397 3584 2469 3576 
Q 2541 3569 2628 3553 
L 2631 2963 
z
" transform="scale(0.015625)"/>
      <path id="DejaVuSans-76" d="M 191 3500 
L 800 3500 
L 1894 563 
L 2988 3500 
L 3597 3500 
L 2284 0 
L 1503 0 
L 191 3500 
z
" transform="scale(0.015625)"/>
      <path id="DejaVuSans-74" d="M 1172 4494 
L 1172 3500 
L 2356 3500 
L 2356 3053 
L 1172 3053 
L 1172 1153 
Q 1172 725 1289 603 
Q 1406 481 1766 481 
L 2356 481 
L 2356 0 
L 1766 0 
Q 1100 0 847 248 
Q 594 497 594 1153 
L 594 3053 
L 172 3053 
L 172 3500 
L 594 3500 
L 594 4494 
L 1172 4494 
z
" transform="scale(0.015625)"/>
      <path id="DejaVuSans-Oblique-3bb" d="M 2350 4316 
L 3125 0 
L 2516 0 
L 2038 2588 
L 328 0 
L -281 0 
L 1903 3356 
L 1794 3975 
Q 1725 4369 1391 4369 
L 1091 4369 
L 1184 4863 
L 1550 4856 
Q 2253 4847 2350 4316 
z
" transform="scale(0.015625)"/>
      <path id="DejaVuSans-3d" d="M 678 2906 
L 4684 2906 
L 4684 2381 
L 678 2381 
L 678 2906 
z
M 678 1631 
L 4684 1631 
L 4684 1100 
L 678 1100 
L 678 1631 
z
" transform="scale(0.015625)"/>
      <path id="DejaVuSans-Oblique-3bc" d="M -84 -1331 
L 856 3500 
L 1434 3500 
L 1009 1322 
Q 997 1256 987 1175 
Q 978 1094 978 1013 
Q 978 722 1161 565 
Q 1344 409 1684 409 
Q 2147 409 2431 671 
Q 2716 934 2816 1459 
L 3213 3500 
L 3788 3500 
L 3266 809 
Q 3253 750 3248 706 
Q 3244 663 3244 628 
Q 3244 531 3283 486 
Q 3322 441 3406 441 
Q 3438 441 3492 456 
Q 3547 472 3647 513 
L 3559 50 
Q 3422 -19 3297 -55 
Q 3172 -91 3053 -91 
Q 2847 -91 2730 40 
Q 2613 172 2613 403 
Q 2438 153 2195 31 
Q 1953 -91 1625 -91 
Q 1334 -91 1117 43 
Q 900 178 831 397 
L 494 -1331 
L -84 -1331 
z
" transform="scale(0.015625)"/>
      <path id="DejaVuSans-6d" d="M 3328 2828 
Q 3544 3216 3844 3400 
Q 4144 3584 4550 3584 
Q 5097 3584 5394 3201 
Q 5691 2819 5691 2113 
L 5691 0 
L 5113 0 
L 5113 2094 
Q 5113 2597 4934 2840 
Q 4756 3084 4391 3084 
Q 3944 3084 3684 2787 
Q 3425 2491 3425 1978 
L 3425 0 
L 2847 0 
L 2847 2094 
Q 2847 2600 2669 2842 
Q 2491 3084 2119 3084 
Q 1678 3084 1418 2786 
Q 1159 2488 1159 1978 
L 1159 0 
L 581 0 
L 581 3500 
L 1159 3500 
L 1159 2956 
Q 1356 3278 1631 3431 
Q 1906 3584 2284 3584 
Q 2666 3584 2933 3390 
Q 3200 3197 3328 2828 
z
" transform="scale(0.015625)"/>
      <path id="DejaVuSans-77" d="M 269 3500 
L 844 3500 
L 1563 769 
L 2278 3500 
L 2956 3500 
L 3675 769 
L 4391 3500 
L 4966 3500 
L 4050 0 
L 3372 0 
L 2619 2869 
L 1863 0 
L 1184 0 
L 269 3500 
z
" transform="scale(0.015625)"/>
      <path id="DejaVuSans-69" d="M 603 3500 
L 1178 3500 
L 1178 0 
L 603 0 
L 603 3500 
z
M 603 4863 
L 1178 4863 
L 1178 4134 
L 603 4134 
L 603 4863 
z
" transform="scale(0.015625)"/>
      <path id="DejaVuSans-41" d="M 2188 4044 
L 1331 1722 
L 3047 1722 
L 2188 4044 
z
M 1831 4666 
L 2547 4666 
L 4325 0 
L 3669 0 
L 3244 1197 
L 1141 1197 
L 716 0 
L 50 0 
L 1831 4666 
z
" transform="scale(0.015625)"/>
      <path id="DejaVuSans-49" d="M 628 4666 
L 1259 4666 
L 1259 0 
L 628 0 
L 628 4666 
z
" transform="scale(0.015625)"/>
      <path id="DejaVuSans-52" d="M 2841 2188 
Q 3044 2119 3236 1894 
Q 3428 1669 3622 1275 
L 4263 0 
L 3584 0 
L 2988 1197 
Q 2756 1666 2539 1819 
Q 2322 1972 1947 1972 
L 1259 1972 
L 1259 0 
L 628 0 
L 628 4666 
L 2053 4666 
Q 2853 4666 3247 4331 
Q 3641 3997 3641 3322 
Q 3641 2881 3436 2590 
Q 3231 2300 2841 2188 
z
M 1259 4147 
L 1259 2491 
L 2053 2491 
Q 2509 2491 2742 2702 
Q 2975 2913 2975 3322 
Q 2975 3731 2742 3939 
Q 2509 4147 2053 4147 
L 1259 4147 
z
" transform="scale(0.015625)"/>
      <path id="DejaVuSans-53" d="M 3425 4513 
L 3425 3897 
Q 3066 4069 2747 4153 
Q 2428 4238 2131 4238 
Q 1616 4238 1336 4038 
Q 1056 3838 1056 3469 
Q 1056 3159 1242 3001 
Q 1428 2844 1947 2747 
L 2328 2669 
Q 3034 2534 3370 2195 
Q 3706 1856 3706 1288 
Q 3706 609 3251 259 
Q 2797 -91 1919 -91 
Q 1588 -91 1214 -16 
Q 841 59 441 206 
L 441 856 
Q 825 641 1194 531 
Q 1563 422 1919 422 
Q 2459 422 2753 634 
Q 3047 847 3047 1241 
Q 3047 1584 2836 1778 
Q 2625 1972 2144 2069 
L 1759 2144 
Q 1053 2284 737 2584 
Q 422 2884 422 3419 
Q 422 4038 858 4394 
Q 1294 4750 2059 4750 
Q 2388 4750 2728 4690 
Q 3069 4631 3425 4513 
z
" transform="scale(0.015625)"/>
      <path id="DejaVuSans-43" d="M 4122 4306 
L 4122 3641 
Q 3803 3938 3442 4084 
Q 3081 4231 2675 4231 
Q 1875 4231 1450 3742 
Q 1025 3253 1025 2328 
Q 1025 1406 1450 917 
Q 1875 428 2675 428 
Q 3081 428 3442 575 
Q 3803 722 4122 1019 
L 4122 359 
Q 3791 134 3420 21 
Q 3050 -91 2638 -91 
Q 1578 -91 968 557 
Q 359 1206 359 2328 
Q 359 3453 968 4101 
Q 1578 4750 2638 4750 
Q 3056 4750 3426 4639 
Q 3797 4528 4122 4306 
z
" transform="scale(0.015625)"/>
      <path id="DejaVuSans-48" d="M 628 4666 
L 1259 4666 
L 1259 2753 
L 3553 2753 
L 3553 4666 
L 4184 4666 
L 4184 0 
L 3553 0 
L 3553 2222 
L 1259 2222 
L 1259 0 
L 628 0 
L 628 4666 
z
" transform="scale(0.015625)"/>
      <path id="DejaVuSans-62" d="M 3116 1747 
Q 3116 2381 2855 2742 
Q 2594 3103 2138 3103 
Q 1681 3103 1420 2742 
Q 1159 2381 1159 1747 
Q 1159 1113 1420 752 
Q 1681 391 2138 391 
Q 2594 391 2855 752 
Q 3116 1113 3116 1747 
z
M 1159 2969 
Q 1341 3281 1617 3432 
Q 1894 3584 2278 3584 
Q 2916 3584 3314 3078 
Q 3713 2572 3713 1747 
Q 3713 922 3314 415 
Q 2916 -91 2278 -91 
Q 1894 -91 1617 61 
Q 1341 213 1159 525 
L 1159 0 
L 581 0 
L 581 4863 
L 1159 4863 
L 1159 2969 
z
" transform="scale(0.015625)"/>
      <path id="DejaVuSans-6e" d="M 3513 2113 
L 3513 0 
L 2938 0 
L 2938 2094 
Q 2938 2591 2744 2837 
Q 2550 3084 2163 3084 
Q 1697 3084 1428 2787 
Q 1159 2491 1159 1978 
L 1159 0 
L 581 0 
L 581 3500 
L 1159 3500 
L 1159 2956 
Q 1366 3272 1645 3428 
Q 1925 3584 2291 3584 
Q 2894 3584 3203 3211 
Q 3513 2838 3513 2113 
z
" transform="scale(0.015625)"/>
     </defs>
     <use xlink:href="#DejaVuSans-50" transform="translate(0 0.015625)"/>
     <use xlink:href="#DejaVuSans-68" transform="translate(60.302734 0.015625)"/>
     <use xlink:href="#DejaVuSans-61" transform="translate(123.681641 0.015625)"/>
     <use xlink:href="#DejaVuSans-73" transform="translate(184.960938 0.015625)"/>
     <use xlink:href="#DejaVuSans-65" transform="translate(237.060547 0.015625)"/>
     <use xlink:href="#DejaVuSans-20" transform="translate(298.583984 0.015625)"/>
     <use xlink:href="#DejaVuSans-63" transform="translate(330.371094 0.015625)"/>
     <use xlink:href="#DejaVuSans-75" transform="translate(385.351562 0.015625)"/>
     <use xlink:href="#DejaVuSans-72" transform="translate(448.730469 0.015625)"/>
     <use xlink:href="#DejaVuSans-76" transform="translate(489.84375 0.015625)"/>
     <use xlink:href="#DejaVuSans-65" transform="translate(549.023438 0.015625)"/>
     <use xlink:href="#DejaVuSans-20" transform="translate(610.546875 0.015625)"/>
     <use xlink:href="#DejaVuSans-61" transform="translate(642.333984 0.015625)"/>
     <use xlink:href="#DejaVuSans-74" transform="translate(703.613281 0.015625)"/>
     <use xlink:href="#DejaVuSans-20" transform="translate(742.822266 0.015625)"/>
     <use xlink:href="#DejaVuSans-Oblique-3bb" transform="translate(774.609375 0.015625)"/>
     <use xlink:href="#DejaVuSans-20" transform="translate(833.789062 0.015625)"/>
     <use xlink:href="#DejaVuSans-3d" transform="translate(865.576172 0.015625)"/>
     <use xlink:href="#DejaVuSans-20" transform="translate(949.365234 0.015625)"/>
     <use xlink:href="#DejaVuSans-33" transform="translate(981.152344 0.015625)"/>
     <use xlink:href="#DejaVuSans-2e" transform="translate(1044.775391 0.015625)"/>
     <use xlink:href="#DejaVuSans-33" transform="translate(1076.5625 0.015625)"/>
     <use xlink:href="#DejaVuSans-34" transform="translate(1140.185547 0.015625)"/>
     <use xlink:href="#DejaVuSans-20" transform="translate(1203.808594 0.015625)"/>
     <use xlink:href="#DejaVuSans-Oblique-3bc" transform="translate(1235.595703 0.015625)"/>
     <use xlink:href="#DejaVuSans-6d" transform="translate(1299.21875 0.015625)"/>
     <use xlink:href="#DejaVuSans-20" transform="translate(1396.630859 0.015625)"/>
     <use xlink:href="#DejaVuSans-77" transform="translate(1428.417969 0.015625)"/>
     <use xlink:href="#DejaVuSans-69" transform="translate(1510.205078 0.015625)"/>
     <use xlink:href="#DejaVuSans-74" transform="translate(1537.988281 0.015625)"/>
     <use xlink:href="#DejaVuSans-68" transform="translate(1577.197266 0.015625)"/>
     <use xlink:href="#DejaVuSans-20" transform="translate(1640.576172 0.015625)"/>
     <use xlink:href="#DejaVuSans-41" transform="translate(1672.363281 0.015625)"/>
     <use xlink:href="#DejaVuSans-49" transform="translate(1740.771484 0.015625)"/>
     <use xlink:href="#DejaVuSans-52" transform="translate(1770.263672 0.015625)"/>
     <use xlink:href="#DejaVuSans-53" transform="translate(1839.746094 0.015625)"/>
     <use xlink:href="#DejaVuSans-2d" transform="translate(1903.222656 0.015625)"/>
     <use xlink:href="#DejaVuSans-43" transform="translate(1939.306641 0.015625)"/>
     <use xlink:href="#DejaVuSans-48" transform="translate(2009.130859 0.015625)"/>
     <use xlink:href="#DejaVuSans-30" transform="translate(2084.326172 0.015625)"/>
     <use xlink:href="#DejaVuSans-2d" transform="translate(2147.949219 0.015625)"/>
     <use xlink:href="#DejaVuSans-62" transform="translate(2184.033203 0.015625)"/>
     <use xlink:href="#DejaVuSans-69" transform="translate(2247.509766 0.015625)"/>
     <use xlink:href="#DejaVuSans-6e" transform="translate(2275.292969 0.015625)"/>
     <use xlink:href="#DejaVuSans-32" transform="translate(2338.671875 0.015625)"/>
    </g>
   </g>
   <g id="line2d_15">
    <defs>
     <path id="m2849febc37" d="M 0 3 
C 0.795609 3 1.55874 2.683901 2.12132 2.12132 
C 2.683901 1.55874 3 0.795609 3 0 
C 3 -0.795609 2.683901 -1.55874 2.12132 -2.12132 
C 1.55874 -2.683901 0.795609 -3 0 -3 
C -0.795609 -3 -1.55874 -2.683901 -2.12132 -2.12132 
C -2.683901 -1.55874 -3 -0.795609 -3 0 
C -3 0.795609 -2.683901 1.55874 -2.12132 2.12132 
C -1.55874 2.683901 -0.795609 3 0 3 
z
" style="stroke: #ff8000"/>
    </defs>
    <g clip-path="url(#p4d178ebc4f)">
     <use xlink:href="#m2849febc37" x="75.164302" y="139.906533" style="fill: #ff8000; stroke: #ff8000"/>
     <use xlink:href="#m2849febc37" x="77.848257" y="108.040188" style="fill: #ff8000; stroke: #ff8000"/>
     <use xlink:href="#m2849febc37" x="80.511406" y="106.144115" style="fill: #ff8000; stroke: #ff8000"/>
     <use xlink:href="#m2849febc37" x="83.174556" y="120.568698" style="fill: #ff8000; stroke: #ff8000"/>
     <use xlink:href="#m2849febc37" x="85.837705" y="101.264633" style="fill: #ff8000; stroke: #ff8000"/>
     <use xlink:href="#m2849febc37" x="88.500854" y="95.224472" style="fill: #ff8000; stroke: #ff8000"/>
     <use xlink:href="#m2849febc37" x="91.184809" y="102.611748" style="fill: #ff8000; stroke: #ff8000"/>
     <use xlink:href="#m2849febc37" x="93.868765" y="133.389915" style="fill: #ff8000; stroke: #ff8000"/>
     <use xlink:href="#m2849febc37" x="96.531914" y="121.387609" style="fill: #ff8000; stroke: #ff8000"/>
     <use xlink:href="#m2849febc37" x="99.195063" y="130.911444" style="fill: #ff8000; stroke: #ff8000"/>
     <use xlink:href="#m2849febc37" x="101.858213" y="147.495357" style="fill: #ff8000; stroke: #ff8000"/>
     <use xlink:href="#m2849febc37" x="104.521362" y="124.833747" style="fill: #ff8000; stroke: #ff8000"/>
     <use xlink:href="#m2849febc37" x="107.184511" y="133.524084" style="fill: #ff8000; stroke: #ff8000"/>
     <use xlink:href="#m2849febc37" x="109.868466" y="127.176909" style="fill: #ff8000; stroke: #ff8000"/>
     <use xlink:href="#m2849febc37" x="112.552422" y="143.96757" style="fill: #ff8000; stroke: #ff8000"/>
     <use xlink:href="#m2849febc37" x="115.215571" y="114.005274" style="fill: #ff8000; stroke: #ff8000"/>
     <use xlink:href="#m2849febc37" x="117.87872" y="117.624471" style="fill: #ff8000; stroke: #ff8000"/>
     <use xlink:href="#m2849febc37" x="120.541869" y="119.898838" style="fill: #ff8000; stroke: #ff8000"/>
     <use xlink:href="#m2849febc37" x="123.205019" y="96.380763" style="fill: #ff8000; stroke: #ff8000"/>
     <use xlink:href="#m2849febc37" x="125.868168" y="111.910655" style="fill: #ff8000; stroke: #ff8000"/>
     <use xlink:href="#m2849febc37" x="128.552123" y="110.997002" style="fill: #ff8000; stroke: #ff8000"/>
     <use xlink:href="#m2849febc37" x="131.236078" y="101.02166" style="fill: #ff8000; stroke: #ff8000"/>
     <use xlink:href="#m2849febc37" x="133.899228" y="112.299251" style="fill: #ff8000; stroke: #ff8000"/>
     <use xlink:href="#m2849febc37" x="136.562377" y="106.168228" style="fill: #ff8000; stroke: #ff8000"/>
     <use xlink:href="#m2849febc37" x="139.225526" y="100.537061" style="fill: #ff8000; stroke: #ff8000"/>
     <use xlink:href="#m2849febc37" x="141.888676" y="133.503802" style="fill: #ff8000; stroke: #ff8000"/>
     <use xlink:href="#m2849febc37" x="144.551825" y="149.114685" style="fill: #ff8000; stroke: #ff8000"/>
     <use xlink:href="#m2849febc37" x="147.23578" y="150.862354" style="fill: #ff8000; stroke: #ff8000"/>
     <use xlink:href="#m2849febc37" x="149.919735" y="108.215128" style="fill: #ff8000; stroke: #ff8000"/>
     <use xlink:href="#m2849febc37" x="152.582885" y="119.320296" style="fill: #ff8000; stroke: #ff8000"/>
     <use xlink:href="#m2849febc37" x="155.246034" y="147.566745" style="fill: #ff8000; stroke: #ff8000"/>
     <use xlink:href="#m2849febc37" x="157.909183" y="124.018222" style="fill: #ff8000; stroke: #ff8000"/>
     <use xlink:href="#m2849febc37" x="160.572333" y="147.776592" style="fill: #ff8000; stroke: #ff8000"/>
     <use xlink:href="#m2849febc37" x="163.235482" y="120.112412" style="fill: #ff8000; stroke: #ff8000"/>
     <use xlink:href="#m2849febc37" x="165.919437" y="133.94831" style="fill: #ff8000; stroke: #ff8000"/>
     <use xlink:href="#m2849febc37" x="168.603392" y="121.3357" style="fill: #ff8000; stroke: #ff8000"/>
     <use xlink:href="#m2849febc37" x="171.266541" y="164.595879" style="fill: #ff8000; stroke: #ff8000"/>
     <use xlink:href="#m2849febc37" x="173.929691" y="103.24073" style="fill: #ff8000; stroke: #ff8000"/>
     <use xlink:href="#m2849febc37" x="176.59284" y="116.984108" style="fill: #ff8000; stroke: #ff8000"/>
     <use xlink:href="#m2849febc37" x="179.255989" y="126.864786" style="fill: #ff8000; stroke: #ff8000"/>
     <use xlink:href="#m2849febc37" x="181.919139" y="72.238422" style="fill: #ff8000; stroke: #ff8000"/>
     <use xlink:href="#m2849febc37" x="184.603094" y="115.704476" style="fill: #ff8000; stroke: #ff8000"/>
     <use xlink:href="#m2849febc37" x="187.287049" y="118.388137" style="fill: #ff8000; stroke: #ff8000"/>
     <use xlink:href="#m2849febc37" x="189.950198" y="82.029431" style="fill: #ff8000; stroke: #ff8000"/>
     <use xlink:href="#m2849febc37" x="192.613348" y="106.214494" style="fill: #ff8000; stroke: #ff8000"/>
     <use xlink:href="#m2849febc37" x="195.276497" y="142.44972" style="fill: #ff8000; stroke: #ff8000"/>
     <use xlink:href="#m2849febc37" x="197.939646" y="122.523428" style="fill: #ff8000; stroke: #ff8000"/>
     <use xlink:href="#m2849febc37" x="200.623601" y="122.590256" style="fill: #ff8000; stroke: #ff8000"/>
     <use xlink:href="#m2849febc37" x="203.307557" y="152.679225" style="fill: #ff8000; stroke: #ff8000"/>
     <use xlink:href="#m2849febc37" x="205.970706" y="144.939894" style="fill: #ff8000; stroke: #ff8000"/>
     <use xlink:href="#m2849febc37" x="208.633855" y="141.229512" style="fill: #ff8000; stroke: #ff8000"/>
     <use xlink:href="#m2849febc37" x="211.297004" y="114.485393" style="fill: #ff8000; stroke: #ff8000"/>
     <use xlink:href="#m2849febc37" x="213.960154" y="169.904682" style="fill: #ff8000; stroke: #ff8000"/>
     <use xlink:href="#m2849febc37" x="216.623303" y="159.123635" style="fill: #ff8000; stroke: #ff8000"/>
     <use xlink:href="#m2849febc37" x="219.307258" y="136.791239" style="fill: #ff8000; stroke: #ff8000"/>
     <use xlink:href="#m2849febc37" x="221.991213" y="125.317107" style="fill: #ff8000; stroke: #ff8000"/>
     <use xlink:href="#m2849febc37" x="224.654363" y="131.557696" style="fill: #ff8000; stroke: #ff8000"/>
     <use xlink:href="#m2849febc37" x="227.317512" y="164.477251" style="fill: #ff8000; stroke: #ff8000"/>
     <use xlink:href="#m2849febc37" x="229.980661" y="182.653127" style="fill: #ff8000; stroke: #ff8000"/>
     <use xlink:href="#m2849febc37" x="232.643811" y="218.005836" style="fill: #ff8000; stroke: #ff8000"/>
     <use xlink:href="#m2849febc37" x="235.30696" y="276.817578" style="fill: #ff8000; stroke: #ff8000"/>
     <use xlink:href="#m2849febc37" x="237.990915" y="215.521531" style="fill: #ff8000; stroke: #ff8000"/>
     <use xlink:href="#m2849febc37" x="240.67487" y="221.581188" style="fill: #ff8000; stroke: #ff8000"/>
     <use xlink:href="#m2849febc37" x="243.33802" y="207.871845" style="fill: #ff8000; stroke: #ff8000"/>
     <use xlink:href="#m2849febc37" x="246.001169" y="155.387949" style="fill: #ff8000; stroke: #ff8000"/>
     <use xlink:href="#m2849febc37" x="248.664318" y="159.91458" style="fill: #ff8000; stroke: #ff8000"/>
     <use xlink:href="#m2849febc37" x="251.327468" y="133.817692" style="fill: #ff8000; stroke: #ff8000"/>
     <use xlink:href="#m2849febc37" x="253.990617" y="121.842944" style="fill: #ff8000; stroke: #ff8000"/>
     <use xlink:href="#m2849febc37" x="256.674572" y="114.279154" style="fill: #ff8000; stroke: #ff8000"/>
     <use xlink:href="#m2849febc37" x="259.358527" y="124.636934" style="fill: #ff8000; stroke: #ff8000"/>
     <use xlink:href="#m2849febc37" x="262.021676" y="144.228592" style="fill: #ff8000; stroke: #ff8000"/>
     <use xlink:href="#m2849febc37" x="264.684826" y="111.772501" style="fill: #ff8000; stroke: #ff8000"/>
     <use xlink:href="#m2849febc37" x="267.347975" y="109.12133" style="fill: #ff8000; stroke: #ff8000"/>
     <use xlink:href="#m2849febc37" x="270.011124" y="105.357742" style="fill: #ff8000; stroke: #ff8000"/>
     <use xlink:href="#m2849febc37" x="272.674274" y="160.352856" style="fill: #ff8000; stroke: #ff8000"/>
     <use xlink:href="#m2849febc37" x="275.358229" y="119.03921" style="fill: #ff8000; stroke: #ff8000"/>
     <use xlink:href="#m2849febc37" x="278.042184" y="126.455215" style="fill: #ff8000; stroke: #ff8000"/>
     <use xlink:href="#m2849febc37" x="280.705333" y="164.420691" style="fill: #ff8000; stroke: #ff8000"/>
     <use xlink:href="#m2849febc37" x="283.368483" y="137.969602" style="fill: #ff8000; stroke: #ff8000"/>
     <use xlink:href="#m2849febc37" x="286.031632" y="138.44541" style="fill: #ff8000; stroke: #ff8000"/>
     <use xlink:href="#m2849febc37" x="288.694781" y="122.134909" style="fill: #ff8000; stroke: #ff8000"/>
     <use xlink:href="#m2849febc37" x="291.357931" y="108.889982" style="fill: #ff8000; stroke: #ff8000"/>
     <use xlink:href="#m2849febc37" x="294.041886" y="129.763726" style="fill: #ff8000; stroke: #ff8000"/>
     <use xlink:href="#m2849febc37" x="296.725841" y="154.562397" style="fill: #ff8000; stroke: #ff8000"/>
     <use xlink:href="#m2849febc37" x="299.38899" y="111.065821" style="fill: #ff8000; stroke: #ff8000"/>
     <use xlink:href="#m2849febc37" x="302.05214" y="117.277209" style="fill: #ff8000; stroke: #ff8000"/>
     <use xlink:href="#m2849febc37" x="304.715289" y="91.503951" style="fill: #ff8000; stroke: #ff8000"/>
     <use xlink:href="#m2849febc37" x="307.378438" y="109.748017" style="fill: #ff8000; stroke: #ff8000"/>
     <use xlink:href="#m2849febc37" x="310.041587" y="141.074742" style="fill: #ff8000; stroke: #ff8000"/>
     <use xlink:href="#m2849febc37" x="312.725543" y="147.570061" style="fill: #ff8000; stroke: #ff8000"/>
     <use xlink:href="#m2849febc37" x="315.409498" y="160.159277" style="fill: #ff8000; stroke: #ff8000"/>
     <use xlink:href="#m2849febc37" x="318.072647" y="112.687158" style="fill: #ff8000; stroke: #ff8000"/>
     <use xlink:href="#m2849febc37" x="320.735796" y="122.126395" style="fill: #ff8000; stroke: #ff8000"/>
     <use xlink:href="#m2849febc37" x="323.398946" y="141.268747" style="fill: #ff8000; stroke: #ff8000"/>
     <use xlink:href="#m2849febc37" x="326.062095" y="110.620625" style="fill: #ff8000; stroke: #ff8000"/>
     <use xlink:href="#m2849febc37" x="328.74605" y="132.2724" style="fill: #ff8000; stroke: #ff8000"/>
     <use xlink:href="#m2849febc37" x="331.430005" y="115.470376" style="fill: #ff8000; stroke: #ff8000"/>
     <use xlink:href="#m2849febc37" x="334.093155" y="90.573532" style="fill: #ff8000; stroke: #ff8000"/>
     <use xlink:href="#m2849febc37" x="336.756304" y="128.697342" style="fill: #ff8000; stroke: #ff8000"/>
     <use xlink:href="#m2849febc37" x="339.419453" y="134.100707" style="fill: #ff8000; stroke: #ff8000"/>
     <use xlink:href="#m2849febc37" x="342.082603" y="121.020208" style="fill: #ff8000; stroke: #ff8000"/>
     <use xlink:href="#m2849febc37" x="344.745752" y="109.049646" style="fill: #ff8000; stroke: #ff8000"/>
     <use xlink:href="#m2849febc37" x="347.429707" y="90.658106" style="fill: #ff8000; stroke: #ff8000"/>
     <use xlink:href="#m2849febc37" x="350.113662" y="124.929957" style="fill: #ff8000; stroke: #ff8000"/>
     <use xlink:href="#m2849febc37" x="352.776812" y="106.477746" style="fill: #ff8000; stroke: #ff8000"/>
     <use xlink:href="#m2849febc37" x="355.439961" y="130.070738" style="fill: #ff8000; stroke: #ff8000"/>
     <use xlink:href="#m2849febc37" x="358.10311" y="153.662875" style="fill: #ff8000; stroke: #ff8000"/>
     <use xlink:href="#m2849febc37" x="360.766259" y="120.51074" style="fill: #ff8000; stroke: #ff8000"/>
     <use xlink:href="#m2849febc37" x="363.429409" y="123.605651" style="fill: #ff8000; stroke: #ff8000"/>
     <use xlink:href="#m2849febc37" x="366.113364" y="145.940035" style="fill: #ff8000; stroke: #ff8000"/>
     <use xlink:href="#m2849febc37" x="368.797319" y="146.918572" style="fill: #ff8000; stroke: #ff8000"/>
     <use xlink:href="#m2849febc37" x="371.460468" y="145.321425" style="fill: #ff8000; stroke: #ff8000"/>
     <use xlink:href="#m2849febc37" x="374.123618" y="92.042955" style="fill: #ff8000; stroke: #ff8000"/>
     <use xlink:href="#m2849febc37" x="376.786767" y="101.051679" style="fill: #ff8000; stroke: #ff8000"/>
     <use xlink:href="#m2849febc37" x="379.449916" y="142.778865" style="fill: #ff8000; stroke: #ff8000"/>
     <use xlink:href="#m2849febc37" x="382.113066" y="113.531424" style="fill: #ff8000; stroke: #ff8000"/>
     <use xlink:href="#m2849febc37" x="384.797021" y="102.122528" style="fill: #ff8000; stroke: #ff8000"/>
     <use xlink:href="#m2849febc37" x="387.480976" y="131.481068" style="fill: #ff8000; stroke: #ff8000"/>
     <use xlink:href="#m2849febc37" x="390.144125" y="107.833742" style="fill: #ff8000; stroke: #ff8000"/>
     <use xlink:href="#m2849febc37" x="392.807275" y="88.95785" style="fill: #ff8000; stroke: #ff8000"/>
     <use xlink:href="#m2849febc37" x="395.470424" y="143.502889" style="fill: #ff8000; stroke: #ff8000"/>
     <use xlink:href="#m2849febc37" x="397.655039" y="106.062259" style="fill: #ff8000; stroke: #ff8000"/>
    </g>
   </g>
   <g id="line2d_16">
    <path d="M 73.832727 114.492453 
L 80.448989 113.535918 
L 86.773968 112.845642 
L 92.89089 112.400935 
L 93.182171 112.385401 
L 93.223783 112.664437 
L 93.39023 121.1303 
L 93.681512 135.057752 
L 109.618796 135.010118 
L 109.743631 129.985273 
L 110.076525 112.384587 
L 110.118137 112.386771 
L 116.193446 112.818018 
L 122.39359 113.481637 
L 128.843405 114.396673 
L 135.667725 115.591479 
L 143.074609 117.117167 
L 151.521786 119.090791 
L 162.299218 121.852376 
L 188.847488 128.751914 
L 197.336276 130.66562 
L 204.74316 132.112047 
L 211.567481 133.221044 
L 218.017295 134.045723 
L 224.21744 134.615938 
L 227.712823 134.836462 
L 227.754435 135.457369 
L 227.920882 160.534556 
L 228.253775 208.123127 
L 228.586669 211.671936 
L 229.08601 214.547753 
L 229.710185 216.804857 
L 230.417584 218.556023 
L 231.249818 220.018712 
L 232.123664 221.120218 
L 233.080734 221.974459 
L 234.079415 222.569116 
L 235.119707 222.924816 
L 236.16 223.041785 
L 237.200293 222.929496 
L 238.198974 222.597763 
L 239.156043 222.049543 
L 240.071501 221.271501 
L 240.945346 220.228844 
L 241.735969 218.930998 
L 242.443368 217.3313 
L 243.067544 215.329361 
L 243.566884 212.936566 
L 243.941389 210.005642 
L 244.149448 206.850886 
L 244.274283 189.804451 
L 244.648788 134.835385 
L 250.724098 134.404239 
L 256.924242 133.740719 
L 263.374057 132.825777 
L 270.198377 131.631061 
L 277.605261 130.105455 
L 286.052438 128.131901 
L 296.82987 125.370367 
L 323.419752 118.460822 
L 331.90854 116.548216 
L 339.315424 115.103014 
L 346.139744 113.995328 
L 352.589559 113.172021 
L 358.789703 112.603215 
L 362.243475 112.385693 
L 362.285087 112.563032 
L 362.451534 120.776065 
L 362.742816 135.057752 
L 378.6801 135.048955 
L 378.763323 132.50623 
L 379.137829 112.384296 
L 379.221052 112.388671 
L 385.296361 112.821235 
L 391.496506 113.486131 
L 397.946321 114.402395 
L 398.487273 114.489044 
L 398.487273 114.489044 
" clip-path="url(#p4d178ebc4f)" style="fill: none; stroke: #000000; stroke-width: 1.5; stroke-linecap: square"/>
   </g>
   <g id="legend_1">
    <g id="patch_7">
     <path d="M 66 301.584 
L 176.4075 301.584 
Q 178.8075 301.584 178.8075 299.184 
L 178.8075 247.54275 
Q 178.8075 245.14275 176.4075 245.14275 
L 66 245.14275 
Q 63.6 245.14275 63.6 247.54275 
L 63.6 299.184 
Q 63.6 301.584 66 301.584 
z
" style="fill: #ffffff; opacity: 0.8; stroke: #cccccc; stroke-linejoin: miter"/>
    </g>
    <g id="line2d_17">
     <path d="M 68.4 254.860875 
L 80.4 254.860875 
L 92.4 254.860875 
" style="fill: none; stroke: #1f77b4; stroke-width: 1.5; stroke-linecap: square"/>
    </g>
    <g id="text_19">
     <!-- our model -->
     <g transform="translate(102 259.060875) scale(0.12 -0.12)">
      <defs>
       <path id="DejaVuSans-6f" d="M 1959 3097 
Q 1497 3097 1228 2736 
Q 959 2375 959 1747 
Q 959 1119 1226 758 
Q 1494 397 1959 397 
Q 2419 397 2687 759 
Q 2956 1122 2956 1747 
Q 2956 2369 2687 2733 
Q 2419 3097 1959 3097 
z
M 1959 3584 
Q 2709 3584 3137 3096 
Q 3566 2609 3566 1747 
Q 3566 888 3137 398 
Q 2709 -91 1959 -91 
Q 1206 -91 779 398 
Q 353 888 353 1747 
Q 353 2609 779 3096 
Q 1206 3584 1959 3584 
z
" transform="scale(0.015625)"/>
       <path id="DejaVuSans-6c" d="M 603 4863 
L 1178 4863 
L 1178 0 
L 603 0 
L 603 4863 
z
" transform="scale(0.015625)"/>
      </defs>
      <use xlink:href="#DejaVuSans-6f"/>
      <use xlink:href="#DejaVuSans-75" transform="translate(61.181641 0)"/>
      <use xlink:href="#DejaVuSans-72" transform="translate(124.560547 0)"/>
      <use xlink:href="#DejaVuSans-20" transform="translate(165.673828 0)"/>
      <use xlink:href="#DejaVuSans-6d" transform="translate(197.460938 0)"/>
      <use xlink:href="#DejaVuSans-6f" transform="translate(294.873047 0)"/>
      <use xlink:href="#DejaVuSans-64" transform="translate(356.054688 0)"/>
      <use xlink:href="#DejaVuSans-65" transform="translate(419.53125 0)"/>
      <use xlink:href="#DejaVuSans-6c" transform="translate(481.054688 0)"/>
     </g>
    </g>
    <g id="line2d_18">
     <path d="M 68.4 272.474625 
L 80.4 272.474625 
L 92.4 272.474625 
" style="fill: none; stroke: #000000; stroke-width: 1.5; stroke-linecap: square"/>
    </g>
    <g id="text_20">
     <!-- origin data -->
     <g transform="translate(102 276.674625) scale(0.12 -0.12)">
      <defs>
       <path id="DejaVuSans-67" d="M 2906 1791 
Q 2906 2416 2648 2759 
Q 2391 3103 1925 3103 
Q 1463 3103 1205 2759 
Q 947 2416 947 1791 
Q 947 1169 1205 825 
Q 1463 481 1925 481 
Q 2391 481 2648 825 
Q 2906 1169 2906 1791 
z
M 3481 434 
Q 3481 -459 3084 -895 
Q 2688 -1331 1869 -1331 
Q 1566 -1331 1297 -1286 
Q 1028 -1241 775 -1147 
L 775 -588 
Q 1028 -725 1275 -790 
Q 1522 -856 1778 -856 
Q 2344 -856 2625 -561 
Q 2906 -266 2906 331 
L 2906 616 
Q 2728 306 2450 153 
Q 2172 0 1784 0 
Q 1141 0 747 490 
Q 353 981 353 1791 
Q 353 2603 747 3093 
Q 1141 3584 1784 3584 
Q 2172 3584 2450 3431 
Q 2728 3278 2906 2969 
L 2906 3500 
L 3481 3500 
L 3481 434 
z
" transform="scale(0.015625)"/>
      </defs>
      <use xlink:href="#DejaVuSans-6f"/>
      <use xlink:href="#DejaVuSans-72" transform="translate(61.181641 0)"/>
      <use xlink:href="#DejaVuSans-69" transform="translate(102.294922 0)"/>
      <use xlink:href="#DejaVuSans-67" transform="translate(130.078125 0)"/>
      <use xlink:href="#DejaVuSans-69" transform="translate(193.554688 0)"/>
      <use xlink:href="#DejaVuSans-6e" transform="translate(221.337891 0)"/>
      <use xlink:href="#DejaVuSans-20" transform="translate(284.716797 0)"/>
      <use xlink:href="#DejaVuSans-64" transform="translate(316.503906 0)"/>
      <use xlink:href="#DejaVuSans-61" transform="translate(379.980469 0)"/>
      <use xlink:href="#DejaVuSans-74" transform="translate(441.259766 0)"/>
      <use xlink:href="#DejaVuSans-61" transform="translate(480.46875 0)"/>
     </g>
    </g>
    <g id="LineCollection_2">
     <path d="M 80.4 296.088375 
L 80.4 284.088375 
" style="fill: none; stroke: #ff8000; stroke-width: 1.5"/>
    </g>
    <g id="line2d_19"/>
    <g id="line2d_20">
     <g>
      <use xlink:href="#m2849febc37" x="80.4" y="290.088375" style="fill: #ff8000; stroke: #ff8000"/>
     </g>
    </g>
    <g id="text_21">
     <!-- data binned -->
     <g transform="translate(102 294.288375) scale(0.12 -0.12)">
      <use xlink:href="#DejaVuSans-64"/>
      <use xlink:href="#DejaVuSans-61" transform="translate(63.476562 0)"/>
      <use xlink:href="#DejaVuSans-74" transform="translate(124.755859 0)"/>
      <use xlink:href="#DejaVuSans-61" transform="translate(163.964844 0)"/>
      <use xlink:href="#DejaVuSans-20" transform="translate(225.244141 0)"/>
      <use xlink:href="#DejaVuSans-62" transform="translate(257.03125 0)"/>
      <use xlink:href="#DejaVuSans-69" transform="translate(320.507812 0)"/>
      <use xlink:href="#DejaVuSans-6e" transform="translate(348.291016 0)"/>
      <use xlink:href="#DejaVuSans-6e" transform="translate(411.669922 0)"/>
      <use xlink:href="#DejaVuSans-65" transform="translate(475.048828 0)"/>
      <use xlink:href="#DejaVuSans-64" transform="translate(536.572266 0)"/>
     </g>
    </g>
   </g>
   <g id="line2d_21">
    <path d="M 73.832727 113.941801 
L 80.365765 112.970522 
L 86.607522 112.266522 
L 90.768692 111.926516 
L 90.893528 135.059016 
L 112.490004 135.059016 
L 112.531616 111.928315 
L 112.614839 111.934086 
L 118.648537 112.465301 
L 124.848681 113.234834 
L 131.340108 114.26599 
L 138.289263 115.598876 
L 145.904205 117.290518 
L 154.809111 119.505126 
L 167.334235 122.873754 
L 185.72661 127.804301 
L 194.673127 129.958645 
L 202.28807 131.567703 
L 209.195613 132.803078 
L 215.68704 133.739767 
L 221.887184 134.411209 
L 224.966451 134.658989 
L 225.049674 144.339646 
L 225.424179 205.509526 
L 225.840296 210.089773 
L 226.464472 214.446421 
L 227.213483 218.132749 
L 228.087329 221.341898 
L 229.044398 224.031106 
L 230.043079 226.205739 
L 231.083372 227.958309 
L 232.123664 229.29239 
L 233.163957 230.273007 
L 234.162638 230.919875 
L 235.119707 231.290147 
L 236.076777 231.427271 
L 237.033846 231.335167 
L 237.990915 231.01121 
L 238.947984 230.445915 
L 239.905054 229.621755 
L 240.903735 228.455344 
L 241.902416 226.927089 
L 242.859485 225.050982 
L 243.774943 222.774595 
L 244.648788 220.00081 
L 245.439411 216.734831 
L 246.105198 213.042883 
L 246.64615 208.74721 
L 246.979044 204.503691 
L 247.020656 203.704053 
L 247.103879 191.235798 
L 247.436773 134.654566 
L 253.470471 134.112805 
L 259.712227 133.327111 
L 266.245265 132.277426 
L 273.19442 130.932771 
L 280.850974 129.220709 
L 289.839103 126.974626 
L 302.780344 123.484804 
L 320.132427 118.837068 
L 329.120556 116.669817 
L 336.735498 115.058092 
L 343.643042 113.819835 
L 350.134468 112.880109 
L 356.334613 112.20553 
L 359.829996 111.926899 
L 359.954831 135.059016 
L 381.551308 135.059016 
L 381.592919 111.927931 
L 381.676143 111.933699 
L 387.70984 112.46471 
L 393.909985 113.234046 
L 398.487273 113.938301 
L 398.487273 113.938301 
" clip-path="url(#p4d178ebc4f)" style="fill: none; stroke: #1f77b4; stroke-width: 1.5; stroke-linecap: square"/>
   </g>
  </g>
 </g>
 <defs>
  <clipPath id="p4d178ebc4f">
   <rect x="57.6" y="41.472" width="357.12" height="266.112"/>
  </clipPath>
 </defs>
</svg>
