<?xml version="1.0" encoding="utf-8" standalone="no"?>
<!DOCTYPE svg PUBLIC "-//W3C//DTD SVG 1.1//EN"
  "http://www.w3.org/Graphics/SVG/1.1/DTD/svg11.dtd">
<svg xmlns:xlink="http://www.w3.org/1999/xlink" width="460.8pt" height="345.6pt" viewBox="0 0 460.8 345.6" xmlns="http://www.w3.org/2000/svg" version="1.1">
 <metadata>
  <rdf:RDF xmlns:dc="http://purl.org/dc/elements/1.1/" xmlns:cc="http://creativecommons.org/ns#" xmlns:rdf="http://www.w3.org/1999/02/22-rdf-syntax-ns#">
   <cc:Work>
    <dc:type rdf:resource="http://purl.org/dc/dcmitype/StillImage"/>
    <dc:date>2025-12-04T10:59:55.744515</dc:date>
    <dc:format>image/svg+xml</dc:format>
    <dc:creator>
     <cc:Agent>
      <dc:title>Matplotlib v3.10.7, https://matplotlib.org/</dc:title>
     </cc:Agent>
    </dc:creator>
   </cc:Work>
  </rdf:RDF>
 </metadata>
 <defs>
  <style type="text/css">*{stroke-linejoin: round; stroke-linecap: butt}</style>
 </defs>
 <g id="figure_1">
  <g id="patch_1">
   <path d="M 0 345.6 
L 460.8 345.6 
L 460.8 0 
L 0 0 
z
" style="fill: #ffffff"/>
  </g>
  <g id="axes_1">
   <g id="patch_2">
    <path d="M 57.6 307.584 
L 414.72 307.584 
L 414.72 41.472 
L 57.6 41.472 
z
" style="fill: #ffffff"/>
   </g>
   <g id="FillBetweenPolyCollection_1">
    <path d="M 79.889715 265.372272 
L 79.889715 287.232721 
L 95.032185 271.707807 
L 130.768412 202.275416 
L 180.435712 161.879986 
L 239.794193 133.366496 
L 398.487273 100.155064 
L 398.487273 62.610879 
L 398.487273 62.610879 
L 239.794193 89.835025 
L 180.435712 109.671533 
L 130.768412 185.02527 
L 95.032185 236.080712 
L 79.889715 265.372272 
z
" clip-path="url(#p30fee43001)" style="fill: #1f77b4; fill-opacity: 0.2"/>
   </g>
   <g id="matplotlib.axis_1">
    <g id="xtick_1">
     <g id="line2d_1">
      <defs>
       <path id="ma5dc08f888" d="M 0 0 
L 0 3.5 
" style="stroke: #000000; stroke-width: 0.8"/>
      </defs>
      <g>
       <use xlink:href="#ma5dc08f888" x="98.060678" y="307.584" style="stroke: #000000; stroke-width: 0.8"/>
      </g>
     </g>
     <g id="text_1">
      <!-- 1 -->
      <g transform="translate(93.606928 325.221812) scale(0.14 -0.14)">
       <defs>
        <path id="DejaVuSans-31" d="M 794 531 
L 1825 531 
L 1825 4091 
L 703 3866 
L 703 4441 
L 1819 4666 
L 2450 4666 
L 2450 531 
L 3481 531 
L 3481 0 
L 794 0 
L 794 531 
z
" transform="scale(0.015625)"/>
       </defs>
       <use xlink:href="#DejaVuSans-31"/>
      </g>
     </g>
    </g>
    <g id="xtick_2">
     <g id="line2d_2">
      <g>
       <use xlink:href="#ma5dc08f888" x="158.630556" y="307.584" style="stroke: #000000; stroke-width: 0.8"/>
      </g>
     </g>
     <g id="text_2">
      <!-- 2 -->
      <g transform="translate(154.176806 325.221812) scale(0.14 -0.14)">
       <defs>
        <path id="DejaVuSans-32" d="M 1228 531 
L 3431 531 
L 3431 0 
L 469 0 
L 469 531 
Q 828 903 1448 1529 
Q 2069 2156 2228 2338 
Q 2531 2678 2651 2914 
Q 2772 3150 2772 3378 
Q 2772 3750 2511 3984 
Q 2250 4219 1831 4219 
Q 1534 4219 1204 4116 
Q 875 4013 500 3803 
L 500 4441 
Q 881 4594 1212 4672 
Q 1544 4750 1819 4750 
Q 2544 4750 2975 4387 
Q 3406 4025 3406 3419 
Q 3406 3131 3298 2873 
Q 3191 2616 2906 2266 
Q 2828 2175 2409 1742 
Q 1991 1309 1228 531 
z
" transform="scale(0.015625)"/>
       </defs>
       <use xlink:href="#DejaVuSans-32"/>
      </g>
     </g>
    </g>
    <g id="xtick_3">
     <g id="line2d_3">
      <g>
       <use xlink:href="#ma5dc08f888" x="219.200434" y="307.584" style="stroke: #000000; stroke-width: 0.8"/>
      </g>
     </g>
     <g id="text_3">
      <!-- 3 -->
      <g transform="translate(214.746684 325.221812) scale(0.14 -0.14)">
       <defs>
        <path id="DejaVuSans-33" d="M 2597 2516 
Q 3050 2419 3304 2112 
Q 3559 1806 3559 1356 
Q 3559 666 3084 287 
Q 2609 -91 1734 -91 
Q 1441 -91 1130 -33 
Q 819 25 488 141 
L 488 750 
Q 750 597 1062 519 
Q 1375 441 1716 441 
Q 2309 441 2620 675 
Q 2931 909 2931 1356 
Q 2931 1769 2642 2001 
Q 2353 2234 1838 2234 
L 1294 2234 
L 1294 2753 
L 1863 2753 
Q 2328 2753 2575 2939 
Q 2822 3125 2822 3475 
Q 2822 3834 2567 4026 
Q 2313 4219 1838 4219 
Q 1578 4219 1281 4162 
Q 984 4106 628 3988 
L 628 4550 
Q 988 4650 1302 4700 
Q 1616 4750 1894 4750 
Q 2613 4750 3031 4423 
Q 3450 4097 3450 3541 
Q 3450 3153 3228 2886 
Q 3006 2619 2597 2516 
z
" transform="scale(0.015625)"/>
       </defs>
       <use xlink:href="#DejaVuSans-33"/>
      </g>
     </g>
    </g>
    <g id="xtick_4">
     <g id="line2d_4">
      <g>
       <use xlink:href="#ma5dc08f888" x="279.770312" y="307.584" style="stroke: #000000; stroke-width: 0.8"/>
      </g>
     </g>
     <g id="text_4">
      <!-- 4 -->
      <g transform="translate(275.316562 325.221812) scale(0.14 -0.14)">
       <defs>
        <path id="DejaVuSans-34" d="M 2419 4116 
L 825 1625 
L 2419 1625 
L 2419 4116 
z
M 2253 4666 
L 3047 4666 
L 3047 1625 
L 3713 1625 
L 3713 1100 
L 3047 1100 
L 3047 0 
L 2419 0 
L 2419 1100 
L 313 1100 
L 313 1709 
L 2253 4666 
z
" transform="scale(0.015625)"/>
       </defs>
       <use xlink:href="#DejaVuSans-34"/>
      </g>
     </g>
    </g>
    <g id="xtick_5">
     <g id="line2d_5">
      <g>
       <use xlink:href="#ma5dc08f888" x="340.34019" y="307.584" style="stroke: #000000; stroke-width: 0.8"/>
      </g>
     </g>
     <g id="text_5">
      <!-- 5 -->
      <g transform="translate(335.88644 325.221812) scale(0.14 -0.14)">
       <defs>
        <path id="DejaVuSans-35" d="M 691 4666 
L 3169 4666 
L 3169 4134 
L 1269 4134 
L 1269 2991 
Q 1406 3038 1543 3061 
Q 1681 3084 1819 3084 
Q 2600 3084 3056 2656 
Q 3513 2228 3513 1497 
Q 3513 744 3044 326 
Q 2575 -91 1722 -91 
Q 1428 -91 1123 -41 
Q 819 9 494 109 
L 494 744 
Q 775 591 1075 516 
Q 1375 441 1709 441 
Q 2250 441 2565 725 
Q 2881 1009 2881 1497 
Q 2881 1984 2565 2268 
Q 2250 2553 1709 2553 
Q 1456 2553 1204 2497 
Q 953 2441 691 2322 
L 691 4666 
z
" transform="scale(0.015625)"/>
       </defs>
       <use xlink:href="#DejaVuSans-35"/>
      </g>
     </g>
    </g>
    <g id="xtick_6">
     <g id="line2d_6">
      <g>
       <use xlink:href="#ma5dc08f888" x="400.910068" y="307.584" style="stroke: #000000; stroke-width: 0.8"/>
      </g>
     </g>
     <g id="text_6">
      <!-- 6 -->
      <g transform="translate(396.456318 325.221812) scale(0.14 -0.14)">
       <defs>
        <path id="DejaVuSans-36" d="M 2113 2584 
Q 1688 2584 1439 2293 
Q 1191 2003 1191 1497 
Q 1191 994 1439 701 
Q 1688 409 2113 409 
Q 2538 409 2786 701 
Q 3034 994 3034 1497 
Q 3034 2003 2786 2293 
Q 2538 2584 2113 2584 
z
M 3366 4563 
L 3366 3988 
Q 3128 4100 2886 4159 
Q 2644 4219 2406 4219 
Q 1781 4219 1451 3797 
Q 1122 3375 1075 2522 
Q 1259 2794 1537 2939 
Q 1816 3084 2150 3084 
Q 2853 3084 3261 2657 
Q 3669 2231 3669 1497 
Q 3669 778 3244 343 
Q 2819 -91 2113 -91 
Q 1303 -91 875 529 
Q 447 1150 447 2328 
Q 447 3434 972 4092 
Q 1497 4750 2381 4750 
Q 2619 4750 2861 4703 
Q 3103 4656 3366 4563 
z
" transform="scale(0.015625)"/>
       </defs>
       <use xlink:href="#DejaVuSans-36"/>
      </g>
     </g>
    </g>
    <g id="text_7">
     <!-- $\lambda$ ($\mu$m) -->
     <g transform="translate(212.99 342.773375) scale(0.14 -0.14)">
      <defs>
       <path id="DejaVuSans-Oblique-3bb" d="M 2350 4316 
L 3125 0 
L 2516 0 
L 2038 2588 
L 328 0 
L -281 0 
L 1903 3356 
L 1794 3975 
Q 1725 4369 1391 4369 
L 1091 4369 
L 1184 4863 
L 1550 4856 
Q 2253 4847 2350 4316 
z
" transform="scale(0.015625)"/>
       <path id="DejaVuSans-20" transform="scale(0.015625)"/>
       <path id="DejaVuSans-28" d="M 1984 4856 
Q 1566 4138 1362 3434 
Q 1159 2731 1159 2009 
Q 1159 1288 1364 580 
Q 1569 -128 1984 -844 
L 1484 -844 
Q 1016 -109 783 600 
Q 550 1309 550 2009 
Q 550 2706 781 3412 
Q 1013 4119 1484 4856 
L 1984 4856 
z
" transform="scale(0.015625)"/>
       <path id="DejaVuSans-Oblique-3bc" d="M -84 -1331 
L 856 3500 
L 1434 3500 
L 1009 1322 
Q 997 1256 987 1175 
Q 978 1094 978 1013 
Q 978 722 1161 565 
Q 1344 409 1684 409 
Q 2147 409 2431 671 
Q 2716 934 2816 1459 
L 3213 3500 
L 3788 3500 
L 3266 809 
Q 3253 750 3248 706 
Q 3244 663 3244 628 
Q 3244 531 3283 486 
Q 3322 441 3406 441 
Q 3438 441 3492 456 
Q 3547 472 3647 513 
L 3559 50 
Q 3422 -19 3297 -55 
Q 3172 -91 3053 -91 
Q 2847 -91 2730 40 
Q 2613 172 2613 403 
Q 2438 153 2195 31 
Q 1953 -91 1625 -91 
Q 1334 -91 1117 43 
Q 900 178 831 397 
L 494 -1331 
L -84 -1331 
z
" transform="scale(0.015625)"/>
       <path id="DejaVuSans-6d" d="M 3328 2828 
Q 3544 3216 3844 3400 
Q 4144 3584 4550 3584 
Q 5097 3584 5394 3201 
Q 5691 2819 5691 2113 
L 5691 0 
L 5113 0 
L 5113 2094 
Q 5113 2597 4934 2840 
Q 4756 3084 4391 3084 
Q 3944 3084 3684 2787 
Q 3425 2491 3425 1978 
L 3425 0 
L 2847 0 
L 2847 2094 
Q 2847 2600 2669 2842 
Q 2491 3084 2119 3084 
Q 1678 3084 1418 2786 
Q 1159 2488 1159 1978 
L 1159 0 
L 581 0 
L 581 3500 
L 1159 3500 
L 1159 2956 
Q 1356 3278 1631 3431 
Q 1906 3584 2284 3584 
Q 2666 3584 2933 3390 
Q 3200 3197 3328 2828 
z
" transform="scale(0.015625)"/>
       <path id="DejaVuSans-29" d="M 513 4856 
L 1013 4856 
Q 1481 4119 1714 3412 
Q 1947 2706 1947 2009 
Q 1947 1309 1714 600 
Q 1481 -109 1013 -844 
L 513 -844 
Q 928 -128 1133 580 
Q 1338 1288 1338 2009 
Q 1338 2731 1133 3434 
Q 928 4138 513 4856 
z
" transform="scale(0.015625)"/>
      </defs>
      <use xlink:href="#DejaVuSans-Oblique-3bb" transform="translate(0 0.015625)"/>
      <use xlink:href="#DejaVuSans-20" transform="translate(59.179688 0.015625)"/>
      <use xlink:href="#DejaVuSans-28" transform="translate(90.966797 0.015625)"/>
      <use xlink:href="#DejaVuSans-Oblique-3bc" transform="translate(129.980469 0.015625)"/>
      <use xlink:href="#DejaVuSans-6d" transform="translate(193.603516 0.015625)"/>
      <use xlink:href="#DejaVuSans-29" transform="translate(291.015625 0.015625)"/>
     </g>
    </g>
   </g>
   <g id="matplotlib.axis_2">
    <g id="ytick_1">
     <g id="line2d_7">
      <defs>
       <path id="m1f1bb46060" d="M 0 0 
L -3.5 0 
" style="stroke: #000000; stroke-width: 0.8"/>
      </defs>
      <g>
       <use xlink:href="#m1f1bb46060" x="57.6" y="295.488" style="stroke: #000000; stroke-width: 0.8"/>
      </g>
     </g>
     <g id="text_8">
      <!-- 0 -->
      <g transform="translate(41.6925 300.806906) scale(0.14 -0.14)">
       <defs>
        <path id="DejaVuSans-30" d="M 2034 4250 
Q 1547 4250 1301 3770 
Q 1056 3291 1056 2328 
Q 1056 1369 1301 889 
Q 1547 409 2034 409 
Q 2525 409 2770 889 
Q 3016 1369 3016 2328 
Q 3016 3291 2770 3770 
Q 2525 4250 2034 4250 
z
M 2034 4750 
Q 2819 4750 3233 4129 
Q 3647 3509 3647 2328 
Q 3647 1150 3233 529 
Q 2819 -91 2034 -91 
Q 1250 -91 836 529 
Q 422 1150 422 2328 
Q 422 3509 836 4129 
Q 1250 4750 2034 4750 
z
" transform="scale(0.015625)"/>
       </defs>
       <use xlink:href="#DejaVuSans-30"/>
      </g>
     </g>
    </g>
    <g id="ytick_2">
     <g id="line2d_8">
      <g>
       <use xlink:href="#m1f1bb46060" x="57.6" y="241.050587" style="stroke: #000000; stroke-width: 0.8"/>
      </g>
     </g>
     <g id="text_9">
      <!-- 50 -->
      <g transform="translate(32.785 246.369493) scale(0.14 -0.14)">
       <use xlink:href="#DejaVuSans-35"/>
       <use xlink:href="#DejaVuSans-30" transform="translate(63.623047 0)"/>
      </g>
     </g>
    </g>
    <g id="ytick_3">
     <g id="line2d_9">
      <g>
       <use xlink:href="#m1f1bb46060" x="57.6" y="186.613174" style="stroke: #000000; stroke-width: 0.8"/>
      </g>
     </g>
     <g id="text_10">
      <!-- 100 -->
      <g transform="translate(23.8775 191.93208) scale(0.14 -0.14)">
       <use xlink:href="#DejaVuSans-31"/>
       <use xlink:href="#DejaVuSans-30" transform="translate(63.623047 0)"/>
       <use xlink:href="#DejaVuSans-30" transform="translate(127.246094 0)"/>
      </g>
     </g>
    </g>
    <g id="ytick_4">
     <g id="line2d_10">
      <g>
       <use xlink:href="#m1f1bb46060" x="57.6" y="132.175761" style="stroke: #000000; stroke-width: 0.8"/>
      </g>
     </g>
     <g id="text_11">
      <!-- 150 -->
      <g transform="translate(23.8775 137.494667) scale(0.14 -0.14)">
       <use xlink:href="#DejaVuSans-31"/>
       <use xlink:href="#DejaVuSans-35" transform="translate(63.623047 0)"/>
       <use xlink:href="#DejaVuSans-30" transform="translate(127.246094 0)"/>
      </g>
     </g>
    </g>
    <g id="ytick_5">
     <g id="line2d_11">
      <g>
       <use xlink:href="#m1f1bb46060" x="57.6" y="77.738347" style="stroke: #000000; stroke-width: 0.8"/>
      </g>
     </g>
     <g id="text_12">
      <!-- 200 -->
      <g transform="translate(23.8775 83.057254) scale(0.14 -0.14)">
       <use xlink:href="#DejaVuSans-32"/>
       <use xlink:href="#DejaVuSans-30" transform="translate(63.623047 0)"/>
       <use xlink:href="#DejaVuSans-30" transform="translate(127.246094 0)"/>
      </g>
     </g>
    </g>
    <g id="text_13">
     <!-- Eclipse depth (ppm) -->
     <g transform="translate(16.965937 245.080344) rotate(-90) scale(0.14 -0.14)">
      <defs>
       <path id="DejaVuSans-45" d="M 628 4666 
L 3578 4666 
L 3578 4134 
L 1259 4134 
L 1259 2753 
L 3481 2753 
L 3481 2222 
L 1259 2222 
L 1259 531 
L 3634 531 
L 3634 0 
L 628 0 
L 628 4666 
z
" transform="scale(0.015625)"/>
       <path id="DejaVuSans-63" d="M 3122 3366 
L 3122 2828 
Q 2878 2963 2633 3030 
Q 2388 3097 2138 3097 
Q 1578 3097 1268 2742 
Q 959 2388 959 1747 
Q 959 1106 1268 751 
Q 1578 397 2138 397 
Q 2388 397 2633 464 
Q 2878 531 3122 666 
L 3122 134 
Q 2881 22 2623 -34 
Q 2366 -91 2075 -91 
Q 1284 -91 818 406 
Q 353 903 353 1747 
Q 353 2603 823 3093 
Q 1294 3584 2113 3584 
Q 2378 3584 2631 3529 
Q 2884 3475 3122 3366 
z
" transform="scale(0.015625)"/>
       <path id="DejaVuSans-6c" d="M 603 4863 
L 1178 4863 
L 1178 0 
L 603 0 
L 603 4863 
z
" transform="scale(0.015625)"/>
       <path id="DejaVuSans-69" d="M 603 3500 
L 1178 3500 
L 1178 0 
L 603 0 
L 603 3500 
z
M 603 4863 
L 1178 4863 
L 1178 4134 
L 603 4134 
L 603 4863 
z
" transform="scale(0.015625)"/>
       <path id="DejaVuSans-70" d="M 1159 525 
L 1159 -1331 
L 581 -1331 
L 581 3500 
L 1159 3500 
L 1159 2969 
Q 1341 3281 1617 3432 
Q 1894 3584 2278 3584 
Q 2916 3584 3314 3078 
Q 3713 2572 3713 1747 
Q 3713 922 3314 415 
Q 2916 -91 2278 -91 
Q 1894 -91 1617 61 
Q 1341 213 1159 525 
z
M 3116 1747 
Q 3116 2381 2855 2742 
Q 2594 3103 2138 3103 
Q 1681 3103 1420 2742 
Q 1159 2381 1159 1747 
Q 1159 1113 1420 752 
Q 1681 391 2138 391 
Q 2594 391 2855 752 
Q 3116 1113 3116 1747 
z
" transform="scale(0.015625)"/>
       <path id="DejaVuSans-73" d="M 2834 3397 
L 2834 2853 
Q 2591 2978 2328 3040 
Q 2066 3103 1784 3103 
Q 1356 3103 1142 2972 
Q 928 2841 928 2578 
Q 928 2378 1081 2264 
Q 1234 2150 1697 2047 
L 1894 2003 
Q 2506 1872 2764 1633 
Q 3022 1394 3022 966 
Q 3022 478 2636 193 
Q 2250 -91 1575 -91 
Q 1294 -91 989 -36 
Q 684 19 347 128 
L 347 722 
Q 666 556 975 473 
Q 1284 391 1588 391 
Q 1994 391 2212 530 
Q 2431 669 2431 922 
Q 2431 1156 2273 1281 
Q 2116 1406 1581 1522 
L 1381 1569 
Q 847 1681 609 1914 
Q 372 2147 372 2553 
Q 372 3047 722 3315 
Q 1072 3584 1716 3584 
Q 2034 3584 2315 3537 
Q 2597 3491 2834 3397 
z
" transform="scale(0.015625)"/>
       <path id="DejaVuSans-65" d="M 3597 1894 
L 3597 1613 
L 953 1613 
Q 991 1019 1311 708 
Q 1631 397 2203 397 
Q 2534 397 2845 478 
Q 3156 559 3463 722 
L 3463 178 
Q 3153 47 2828 -22 
Q 2503 -91 2169 -91 
Q 1331 -91 842 396 
Q 353 884 353 1716 
Q 353 2575 817 3079 
Q 1281 3584 2069 3584 
Q 2775 3584 3186 3129 
Q 3597 2675 3597 1894 
z
M 3022 2063 
Q 3016 2534 2758 2815 
Q 2500 3097 2075 3097 
Q 1594 3097 1305 2825 
Q 1016 2553 972 2059 
L 3022 2063 
z
" transform="scale(0.015625)"/>
       <path id="DejaVuSans-64" d="M 2906 2969 
L 2906 4863 
L 3481 4863 
L 3481 0 
L 2906 0 
L 2906 525 
Q 2725 213 2448 61 
Q 2172 -91 1784 -91 
Q 1150 -91 751 415 
Q 353 922 353 1747 
Q 353 2572 751 3078 
Q 1150 3584 1784 3584 
Q 2172 3584 2448 3432 
Q 2725 3281 2906 2969 
z
M 947 1747 
Q 947 1113 1208 752 
Q 1469 391 1925 391 
Q 2381 391 2643 752 
Q 2906 1113 2906 1747 
Q 2906 2381 2643 2742 
Q 2381 3103 1925 3103 
Q 1469 3103 1208 2742 
Q 947 2381 947 1747 
z
" transform="scale(0.015625)"/>
       <path id="DejaVuSans-74" d="M 1172 4494 
L 1172 3500 
L 2356 3500 
L 2356 3053 
L 1172 3053 
L 1172 1153 
Q 1172 725 1289 603 
Q 1406 481 1766 481 
L 2356 481 
L 2356 0 
L 1766 0 
Q 1100 0 847 248 
Q 594 497 594 1153 
L 594 3053 
L 172 3053 
L 172 3500 
L 594 3500 
L 594 4494 
L 1172 4494 
z
" transform="scale(0.015625)"/>
       <path id="DejaVuSans-68" d="M 3513 2113 
L 3513 0 
L 2938 0 
L 2938 2094 
Q 2938 2591 2744 2837 
Q 2550 3084 2163 3084 
Q 1697 3084 1428 2787 
Q 1159 2491 1159 1978 
L 1159 0 
L 581 0 
L 581 4863 
L 1159 4863 
L 1159 2956 
Q 1366 3272 1645 3428 
Q 1925 3584 2291 3584 
Q 2894 3584 3203 3211 
Q 3513 2838 3513 2113 
z
" transform="scale(0.015625)"/>
      </defs>
      <use xlink:href="#DejaVuSans-45"/>
      <use xlink:href="#DejaVuSans-63" transform="translate(63.183594 0)"/>
      <use xlink:href="#DejaVuSans-6c" transform="translate(118.164062 0)"/>
      <use xlink:href="#DejaVuSans-69" transform="translate(145.947266 0)"/>
      <use xlink:href="#DejaVuSans-70" transform="translate(173.730469 0)"/>
      <use xlink:href="#DejaVuSans-73" transform="translate(237.207031 0)"/>
      <use xlink:href="#DejaVuSans-65" transform="translate(289.306641 0)"/>
      <use xlink:href="#DejaVuSans-20" transform="translate(350.830078 0)"/>
      <use xlink:href="#DejaVuSans-64" transform="translate(382.617188 0)"/>
      <use xlink:href="#DejaVuSans-65" transform="translate(446.09375 0)"/>
      <use xlink:href="#DejaVuSans-70" transform="translate(507.617188 0)"/>
      <use xlink:href="#DejaVuSans-74" transform="translate(571.09375 0)"/>
      <use xlink:href="#DejaVuSans-68" transform="translate(610.302734 0)"/>
      <use xlink:href="#DejaVuSans-20" transform="translate(673.681641 0)"/>
      <use xlink:href="#DejaVuSans-28" transform="translate(705.46875 0)"/>
      <use xlink:href="#DejaVuSans-70" transform="translate(744.482422 0)"/>
      <use xlink:href="#DejaVuSans-70" transform="translate(807.958984 0)"/>
      <use xlink:href="#DejaVuSans-6d" transform="translate(871.435547 0)"/>
      <use xlink:href="#DejaVuSans-29" transform="translate(968.847656 0)"/>
     </g>
    </g>
   </g>
   <g id="line2d_12">
    <path d="M 79.889715 279.016778 
L 95.032185 254.979482 
L 130.768412 193.616865 
L 180.435712 135.435232 
L 239.794193 112.416718 
L 398.487273 75.364717 
" clip-path="url(#p30fee43001)" style="fill: none; stroke: #1f77b4; stroke-width: 1.5; stroke-linecap: square"/>
    <defs>
     <path id="mc467cdd322" d="M 0 3 
C 0.795609 3 1.55874 2.683901 2.12132 2.12132 
C 2.683901 1.55874 3 0.795609 3 0 
C 3 -0.795609 2.683901 -1.55874 2.12132 -2.12132 
C 1.55874 -2.683901 0.795609 -3 0 -3 
C -0.795609 -3 -1.55874 -2.683901 -2.12132 -2.12132 
C -2.683901 -1.55874 -3 -0.795609 -3 0 
C -3 0.795609 -2.683901 1.55874 -2.12132 2.12132 
C -1.55874 2.683901 -0.795609 3 0 3 
z
" style="stroke: #1f77b4"/>
    </defs>
    <g clip-path="url(#p30fee43001)">
     <use xlink:href="#mc467cdd322" x="79.889715" y="279.016778" style="fill: #1f77b4; stroke: #1f77b4"/>
     <use xlink:href="#mc467cdd322" x="95.032185" y="254.979482" style="fill: #1f77b4; stroke: #1f77b4"/>
     <use xlink:href="#mc467cdd322" x="130.768412" y="193.616865" style="fill: #1f77b4; stroke: #1f77b4"/>
     <use xlink:href="#mc467cdd322" x="180.435712" y="135.435232" style="fill: #1f77b4; stroke: #1f77b4"/>
     <use xlink:href="#mc467cdd322" x="239.794193" y="112.416718" style="fill: #1f77b4; stroke: #1f77b4"/>
     <use xlink:href="#mc467cdd322" x="398.487273" y="75.364717" style="fill: #1f77b4; stroke: #1f77b4"/>
    </g>
   </g>
   <g id="line2d_13">
    <path d="M 73.832727 283.664139 
L 79.889715 275.55557 
L 85.946703 266.093208 
L 92.003691 255.854042 
L 98.060678 245.305116 
L 104.117666 234.788267 
L 110.174654 224.5352 
L 116.231642 214.691418 
L 122.28863 205.339432 
L 128.345617 196.517893 
L 134.402605 188.236123 
L 140.459593 180.484622 
L 146.516581 173.242421 
L 152.573569 166.482085 
L 158.630556 160.173049 
L 164.687544 154.283785 
L 170.744532 148.783169 
L 176.80152 143.641301 
L 182.858507 138.829968 
L 188.915495 134.322875 
L 194.972483 130.095714 
L 201.029471 126.126145 
L 207.086459 122.393716 
L 213.143446 118.87975 
L 219.200434 115.567223 
L 225.257422 112.440626 
L 231.31441 109.485838 
L 237.371398 106.690002 
L 243.428385 104.041403 
L 249.485373 101.529364 
L 255.542361 99.144145 
L 261.599349 96.876851 
L 267.656336 94.719353 
L 273.713324 92.66421 
L 279.770312 90.704605 
L 285.8273 88.834287 
L 291.884288 87.047512 
L 297.941275 85.339001 
L 303.998263 83.70389 
L 310.055251 82.137699 
L 316.112239 80.63629 
L 322.169227 79.195839 
L 328.226214 77.812811 
L 334.283202 76.483927 
L 340.34019 75.206149 
L 346.397178 73.976655 
L 352.454166 72.792822 
L 358.511153 71.652208 
L 364.568141 70.55254 
L 370.625129 69.491696 
L 376.682117 68.467697 
L 382.739104 67.478692 
L 388.796092 66.52295 
L 394.85308 65.598851 
" clip-path="url(#p30fee43001)" style="fill: none; stroke: #ff7f0e; stroke-width: 1.5; stroke-linecap: square"/>
   </g>
   <g id="line2d_14">
    <path d="M 73.832727 295.488 
L 79.889715 295.488 
L 85.946703 295.488 
L 92.003691 295.488 
L 98.060678 295.488 
L 104.117666 295.488 
L 110.174654 295.488 
L 116.231642 295.488 
L 122.28863 295.488 
L 128.345617 295.488 
L 134.402605 295.488 
L 140.459593 295.488 
L 146.516581 295.488 
L 152.573569 295.488 
L 158.630556 295.488 
L 164.687544 295.488 
L 170.744532 295.488 
L 176.80152 295.488 
L 182.858507 295.488 
L 188.915495 295.488 
L 194.972483 295.488 
L 201.029471 295.488 
L 207.086459 295.488 
L 213.143446 295.488 
L 219.200434 295.488 
L 225.257422 295.488 
L 231.31441 295.488 
L 237.371398 295.488 
L 243.428385 295.488 
L 249.485373 295.488 
L 255.542361 295.488 
L 261.599349 295.488 
L 267.656336 295.488 
L 273.713324 295.488 
L 279.770312 295.488 
L 285.8273 295.488 
L 291.884288 295.488 
L 297.941275 295.488 
L 303.998263 295.488 
L 310.055251 295.488 
L 316.112239 295.488 
L 322.169227 295.488 
L 328.226214 295.488 
L 334.283202 295.488 
L 340.34019 295.488 
L 346.397178 295.488 
L 352.454166 295.488 
L 358.511153 295.488 
L 364.568141 295.488 
L 370.625129 295.488 
L 376.682117 295.488 
L 382.739104 295.488 
L 388.796092 295.488 
L 394.85308 295.488 
" clip-path="url(#p30fee43001)" style="fill: none; stroke-dasharray: 5.55,2.4; stroke-dashoffset: 0; stroke: #000000; stroke-width: 1.5"/>
   </g>
   <g id="patch_3">
    <path d="M 57.6 307.584 
L 57.6 41.472 
" style="fill: none; stroke: #000000; stroke-width: 0.8; stroke-linejoin: miter; stroke-linecap: square"/>
   </g>
   <g id="patch_4">
    <path d="M 414.72 307.584 
L 414.72 41.472 
" style="fill: none; stroke: #000000; stroke-width: 0.8; stroke-linejoin: miter; stroke-linecap: square"/>
   </g>
   <g id="patch_5">
    <path d="M 57.6 307.584 
L 414.72 307.584 
" style="fill: none; stroke: #000000; stroke-width: 0.8; stroke-linejoin: miter; stroke-linecap: square"/>
   </g>
   <g id="patch_6">
    <path d="M 57.6 41.472 
L 414.72 41.472 
" style="fill: none; stroke: #000000; stroke-width: 0.8; stroke-linejoin: miter; stroke-linecap: square"/>
   </g>
   <g id="text_14">
    <!-- FGS1 -->
    <g transform="translate(66.784246 269.016778) scale(0.1 -0.1)">
     <defs>
      <path id="DejaVuSans-46" d="M 628 4666 
L 3309 4666 
L 3309 4134 
L 1259 4134 
L 1259 2759 
L 3109 2759 
L 3109 2228 
L 1259 2228 
L 1259 0 
L 628 0 
L 628 4666 
z
" transform="scale(0.015625)"/>
      <path id="DejaVuSans-47" d="M 3809 666 
L 3809 1919 
L 2778 1919 
L 2778 2438 
L 4434 2438 
L 4434 434 
Q 4069 175 3628 42 
Q 3188 -91 2688 -91 
Q 1594 -91 976 548 
Q 359 1188 359 2328 
Q 359 3472 976 4111 
Q 1594 4750 2688 4750 
Q 3144 4750 3555 4637 
Q 3966 4525 4313 4306 
L 4313 3634 
Q 3963 3931 3569 4081 
Q 3175 4231 2741 4231 
Q 1884 4231 1454 3753 
Q 1025 3275 1025 2328 
Q 1025 1384 1454 906 
Q 1884 428 2741 428 
Q 3075 428 3337 486 
Q 3600 544 3809 666 
z
" transform="scale(0.015625)"/>
      <path id="DejaVuSans-53" d="M 3425 4513 
L 3425 3897 
Q 3066 4069 2747 4153 
Q 2428 4238 2131 4238 
Q 1616 4238 1336 4038 
Q 1056 3838 1056 3469 
Q 1056 3159 1242 3001 
Q 1428 2844 1947 2747 
L 2328 2669 
Q 3034 2534 3370 2195 
Q 3706 1856 3706 1288 
Q 3706 609 3251 259 
Q 2797 -91 1919 -91 
Q 1588 -91 1214 -16 
Q 841 59 441 206 
L 441 856 
Q 825 641 1194 531 
Q 1563 422 1919 422 
Q 2459 422 2753 634 
Q 3047 847 3047 1241 
Q 3047 1584 2836 1778 
Q 2625 1972 2144 2069 
L 1759 2144 
Q 1053 2284 737 2584 
Q 422 2884 422 3419 
Q 422 4038 858 4394 
Q 1294 4750 2059 4750 
Q 2388 4750 2728 4690 
Q 3069 4631 3425 4513 
z
" transform="scale(0.015625)"/>
     </defs>
     <use xlink:href="#DejaVuSans-46"/>
     <use xlink:href="#DejaVuSans-47" transform="translate(57.519531 0)"/>
     <use xlink:href="#DejaVuSans-53" transform="translate(135.009766 0)"/>
     <use xlink:href="#DejaVuSans-31" transform="translate(198.486328 0)"/>
    </g>
   </g>
   <g id="text_15">
    <!-- FGS2 -->
    <g transform="translate(81.926716 244.979482) scale(0.1 -0.1)">
     <use xlink:href="#DejaVuSans-46"/>
     <use xlink:href="#DejaVuSans-47" transform="translate(57.519531 0)"/>
     <use xlink:href="#DejaVuSans-53" transform="translate(135.009766 0)"/>
     <use xlink:href="#DejaVuSans-32" transform="translate(198.486328 0)"/>
    </g>
   </g>
   <g id="text_16">
    <!-- NIRSpec -->
    <g transform="translate(109.90435 183.616865) scale(0.1 -0.1)">
     <defs>
      <path id="DejaVuSans-4e" d="M 628 4666 
L 1478 4666 
L 3547 763 
L 3547 4666 
L 4159 4666 
L 4159 0 
L 3309 0 
L 1241 3903 
L 1241 0 
L 628 0 
L 628 4666 
z
" transform="scale(0.015625)"/>
      <path id="DejaVuSans-49" d="M 628 4666 
L 1259 4666 
L 1259 0 
L 628 0 
L 628 4666 
z
" transform="scale(0.015625)"/>
      <path id="DejaVuSans-52" d="M 2841 2188 
Q 3044 2119 3236 1894 
Q 3428 1669 3622 1275 
L 4263 0 
L 3584 0 
L 2988 1197 
Q 2756 1666 2539 1819 
Q 2322 1972 1947 1972 
L 1259 1972 
L 1259 0 
L 628 0 
L 628 4666 
L 2053 4666 
Q 2853 4666 3247 4331 
Q 3641 3997 3641 3322 
Q 3641 2881 3436 2590 
Q 3231 2300 2841 2188 
z
M 1259 4147 
L 1259 2491 
L 2053 2491 
Q 2509 2491 2742 2702 
Q 2975 2913 2975 3322 
Q 2975 3731 2742 3939 
Q 2509 4147 2053 4147 
L 1259 4147 
z
" transform="scale(0.015625)"/>
     </defs>
     <use xlink:href="#DejaVuSans-4e"/>
     <use xlink:href="#DejaVuSans-49" transform="translate(74.804688 0)"/>
     <use xlink:href="#DejaVuSans-52" transform="translate(104.296875 0)"/>
     <use xlink:href="#DejaVuSans-53" transform="translate(173.779297 0)"/>
     <use xlink:href="#DejaVuSans-70" transform="translate(237.255859 0)"/>
     <use xlink:href="#DejaVuSans-65" transform="translate(300.732422 0)"/>
     <use xlink:href="#DejaVuSans-63" transform="translate(362.255859 0)"/>
    </g>
   </g>
   <g id="text_17">
    <!-- AIRS-CH0-bin1 -->
    <g transform="translate(143.938056 125.435232) scale(0.1 -0.1)">
     <defs>
      <path id="DejaVuSans-41" d="M 2188 4044 
L 1331 1722 
L 3047 1722 
L 2188 4044 
z
M 1831 4666 
L 2547 4666 
L 4325 0 
L 3669 0 
L 3244 1197 
L 1141 1197 
L 716 0 
L 50 0 
L 1831 4666 
z
" transform="scale(0.015625)"/>
      <path id="DejaVuSans-2d" d="M 313 2009 
L 1997 2009 
L 1997 1497 
L 313 1497 
L 313 2009 
z
" transform="scale(0.015625)"/>
      <path id="DejaVuSans-43" d="M 4122 4306 
L 4122 3641 
Q 3803 3938 3442 4084 
Q 3081 4231 2675 4231 
Q 1875 4231 1450 3742 
Q 1025 3253 1025 2328 
Q 1025 1406 1450 917 
Q 1875 428 2675 428 
Q 3081 428 3442 575 
Q 3803 722 4122 1019 
L 4122 359 
Q 3791 134 3420 21 
Q 3050 -91 2638 -91 
Q 1578 -91 968 557 
Q 359 1206 359 2328 
Q 359 3453 968 4101 
Q 1578 4750 2638 4750 
Q 3056 4750 3426 4639 
Q 3797 4528 4122 4306 
z
" transform="scale(0.015625)"/>
      <path id="DejaVuSans-48" d="M 628 4666 
L 1259 4666 
L 1259 2753 
L 3553 2753 
L 3553 4666 
L 4184 4666 
L 4184 0 
L 3553 0 
L 3553 2222 
L 1259 2222 
L 1259 0 
L 628 0 
L 628 4666 
z
" transform="scale(0.015625)"/>
      <path id="DejaVuSans-62" d="M 3116 1747 
Q 3116 2381 2855 2742 
Q 2594 3103 2138 3103 
Q 1681 3103 1420 2742 
Q 1159 2381 1159 1747 
Q 1159 1113 1420 752 
Q 1681 391 2138 391 
Q 2594 391 2855 752 
Q 3116 1113 3116 1747 
z
M 1159 2969 
Q 1341 3281 1617 3432 
Q 1894 3584 2278 3584 
Q 2916 3584 3314 3078 
Q 3713 2572 3713 1747 
Q 3713 922 3314 415 
Q 2916 -91 2278 -91 
Q 1894 -91 1617 61 
Q 1341 213 1159 525 
L 1159 0 
L 581 0 
L 581 4863 
L 1159 4863 
L 1159 2969 
z
" transform="scale(0.015625)"/>
      <path id="DejaVuSans-6e" d="M 3513 2113 
L 3513 0 
L 2938 0 
L 2938 2094 
Q 2938 2591 2744 2837 
Q 2550 3084 2163 3084 
Q 1697 3084 1428 2787 
Q 1159 2491 1159 1978 
L 1159 0 
L 581 0 
L 581 3500 
L 1159 3500 
L 1159 2956 
Q 1366 3272 1645 3428 
Q 1925 3584 2291 3584 
Q 2894 3584 3203 3211 
Q 3513 2838 3513 2113 
z
" transform="scale(0.015625)"/>
     </defs>
     <use xlink:href="#DejaVuSans-41"/>
     <use xlink:href="#DejaVuSans-49" transform="translate(68.408203 0)"/>
     <use xlink:href="#DejaVuSans-52" transform="translate(97.900391 0)"/>
     <use xlink:href="#DejaVuSans-53" transform="translate(167.382812 0)"/>
     <use xlink:href="#DejaVuSans-2d" transform="translate(230.859375 0)"/>
     <use xlink:href="#DejaVuSans-43" transform="translate(266.943359 0)"/>
     <use xlink:href="#DejaVuSans-48" transform="translate(336.767578 0)"/>
     <use xlink:href="#DejaVuSans-30" transform="translate(411.962891 0)"/>
     <use xlink:href="#DejaVuSans-2d" transform="translate(475.585938 0)"/>
     <use xlink:href="#DejaVuSans-62" transform="translate(511.669922 0)"/>
     <use xlink:href="#DejaVuSans-69" transform="translate(575.146484 0)"/>
     <use xlink:href="#DejaVuSans-6e" transform="translate(602.929688 0)"/>
     <use xlink:href="#DejaVuSans-31" transform="translate(666.308594 0)"/>
    </g>
   </g>
   <g id="text_18">
    <!-- AIRS-CH0-bin2 -->
    <g transform="translate(203.296536 102.416718) scale(0.1 -0.1)">
     <use xlink:href="#DejaVuSans-41"/>
     <use xlink:href="#DejaVuSans-49" transform="translate(68.408203 0)"/>
     <use xlink:href="#DejaVuSans-52" transform="translate(97.900391 0)"/>
     <use xlink:href="#DejaVuSans-53" transform="translate(167.382812 0)"/>
     <use xlink:href="#DejaVuSans-2d" transform="translate(230.859375 0)"/>
     <use xlink:href="#DejaVuSans-43" transform="translate(266.943359 0)"/>
     <use xlink:href="#DejaVuSans-48" transform="translate(336.767578 0)"/>
     <use xlink:href="#DejaVuSans-30" transform="translate(411.962891 0)"/>
     <use xlink:href="#DejaVuSans-2d" transform="translate(475.585938 0)"/>
     <use xlink:href="#DejaVuSans-62" transform="translate(511.669922 0)"/>
     <use xlink:href="#DejaVuSans-69" transform="translate(575.146484 0)"/>
     <use xlink:href="#DejaVuSans-6e" transform="translate(602.929688 0)"/>
     <use xlink:href="#DejaVuSans-32" transform="translate(666.308594 0)"/>
    </g>
   </g>
   <g id="text_19">
    <!-- AIRS-CH1 -->
    <g transform="translate(374.706804 65.364717) scale(0.1 -0.1)">
     <use xlink:href="#DejaVuSans-41"/>
     <use xlink:href="#DejaVuSans-49" transform="translate(68.408203 0)"/>
     <use xlink:href="#DejaVuSans-52" transform="translate(97.900391 0)"/>
     <use xlink:href="#DejaVuSans-53" transform="translate(167.382812 0)"/>
     <use xlink:href="#DejaVuSans-2d" transform="translate(230.859375 0)"/>
     <use xlink:href="#DejaVuSans-43" transform="translate(266.943359 0)"/>
     <use xlink:href="#DejaVuSans-48" transform="translate(336.767578 0)"/>
     <use xlink:href="#DejaVuSans-31" transform="translate(411.962891 0)"/>
    </g>
   </g>
   <g id="text_20">
    <!-- Eclipse depth for K2-141 b -->
    <g transform="translate(143.326875 35.472) scale(0.14 -0.14)">
     <defs>
      <path id="DejaVuSans-66" d="M 2375 4863 
L 2375 4384 
L 1825 4384 
Q 1516 4384 1395 4259 
Q 1275 4134 1275 3809 
L 1275 3500 
L 2222 3500 
L 2222 3053 
L 1275 3053 
L 1275 0 
L 697 0 
L 697 3053 
L 147 3053 
L 147 3500 
L 697 3500 
L 697 3744 
Q 697 4328 969 4595 
Q 1241 4863 1831 4863 
L 2375 4863 
z
" transform="scale(0.015625)"/>
      <path id="DejaVuSans-6f" d="M 1959 3097 
Q 1497 3097 1228 2736 
Q 959 2375 959 1747 
Q 959 1119 1226 758 
Q 1494 397 1959 397 
Q 2419 397 2687 759 
Q 2956 1122 2956 1747 
Q 2956 2369 2687 2733 
Q 2419 3097 1959 3097 
z
M 1959 3584 
Q 2709 3584 3137 3096 
Q 3566 2609 3566 1747 
Q 3566 888 3137 398 
Q 2709 -91 1959 -91 
Q 1206 -91 779 398 
Q 353 888 353 1747 
Q 353 2609 779 3096 
Q 1206 3584 1959 3584 
z
" transform="scale(0.015625)"/>
      <path id="DejaVuSans-72" d="M 2631 2963 
Q 2534 3019 2420 3045 
Q 2306 3072 2169 3072 
Q 1681 3072 1420 2755 
Q 1159 2438 1159 1844 
L 1159 0 
L 581 0 
L 581 3500 
L 1159 3500 
L 1159 2956 
Q 1341 3275 1631 3429 
Q 1922 3584 2338 3584 
Q 2397 3584 2469 3576 
Q 2541 3569 2628 3553 
L 2631 2963 
z
" transform="scale(0.015625)"/>
      <path id="DejaVuSans-4b" d="M 628 4666 
L 1259 4666 
L 1259 2694 
L 3353 4666 
L 4166 4666 
L 1850 2491 
L 4331 0 
L 3500 0 
L 1259 2247 
L 1259 0 
L 628 0 
L 628 4666 
z
" transform="scale(0.015625)"/>
     </defs>
     <use xlink:href="#DejaVuSans-45"/>
     <use xlink:href="#DejaVuSans-63" transform="translate(63.183594 0)"/>
     <use xlink:href="#DejaVuSans-6c" transform="translate(118.164062 0)"/>
     <use xlink:href="#DejaVuSans-69" transform="translate(145.947266 0)"/>
     <use xlink:href="#DejaVuSans-70" transform="translate(173.730469 0)"/>
     <use xlink:href="#DejaVuSans-73" transform="translate(237.207031 0)"/>
     <use xlink:href="#DejaVuSans-65" transform="translate(289.306641 0)"/>
     <use xlink:href="#DejaVuSans-20" transform="translate(350.830078 0)"/>
     <use xlink:href="#DejaVuSans-64" transform="translate(382.617188 0)"/>
     <use xlink:href="#DejaVuSans-65" transform="translate(446.09375 0)"/>
     <use xlink:href="#DejaVuSans-70" transform="translate(507.617188 0)"/>
     <use xlink:href="#DejaVuSans-74" transform="translate(571.09375 0)"/>
     <use xlink:href="#DejaVuSans-68" transform="translate(610.302734 0)"/>
     <use xlink:href="#DejaVuSans-20" transform="translate(673.681641 0)"/>
     <use xlink:href="#DejaVuSans-66" transform="translate(705.46875 0)"/>
     <use xlink:href="#DejaVuSans-6f" transform="translate(740.673828 0)"/>
     <use xlink:href="#DejaVuSans-72" transform="translate(801.855469 0)"/>
     <use xlink:href="#DejaVuSans-20" transform="translate(842.96875 0)"/>
     <use xlink:href="#DejaVuSans-4b" transform="translate(874.755859 0)"/>
     <use xlink:href="#DejaVuSans-32" transform="translate(940.332031 0)"/>
     <use xlink:href="#DejaVuSans-2d" transform="translate(1003.955078 0)"/>
     <use xlink:href="#DejaVuSans-31" transform="translate(1040.039062 0)"/>
     <use xlink:href="#DejaVuSans-34" transform="translate(1103.662109 0)"/>
     <use xlink:href="#DejaVuSans-31" transform="translate(1167.285156 0)"/>
     <use xlink:href="#DejaVuSans-20" transform="translate(1230.908203 0)"/>
     <use xlink:href="#DejaVuSans-62" transform="translate(1262.695312 0)"/>
    </g>
   </g>
   <g id="legend_1">
    <g id="patch_7">
     <path d="M 66 227.2095 
L 209.5125 227.2095 
Q 211.9125 227.2095 211.9125 224.8095 
L 211.9125 49.872 
Q 211.9125 47.472 209.5125 47.472 
L 66 47.472 
Q 63.6 47.472 63.6 49.872 
L 63.6 224.8095 
Q 63.6 227.2095 66 227.2095 
z
" style="fill: #ffffff; opacity: 0.8; stroke: #cccccc; stroke-linejoin: miter"/>
    </g>
    <g id="patch_8">
     <path d="M 68.4 61.390125 
L 92.4 61.390125 
L 92.4 52.990125 
L 68.4 52.990125 
z
" style="fill: #1f77b4; fill-opacity: 0.2"/>
    </g>
    <g id="text_21">
     <!-- asymmetric error -->
     <g transform="translate(102 61.390125) scale(0.12 -0.12)">
      <defs>
       <path id="DejaVuSans-61" d="M 2194 1759 
Q 1497 1759 1228 1600 
Q 959 1441 959 1056 
Q 959 750 1161 570 
Q 1363 391 1709 391 
Q 2188 391 2477 730 
Q 2766 1069 2766 1631 
L 2766 1759 
L 2194 1759 
z
M 3341 1997 
L 3341 0 
L 2766 0 
L 2766 531 
Q 2569 213 2275 61 
Q 1981 -91 1556 -91 
Q 1019 -91 701 211 
Q 384 513 384 1019 
Q 384 1609 779 1909 
Q 1175 2209 1959 2209 
L 2766 2209 
L 2766 2266 
Q 2766 2663 2505 2880 
Q 2244 3097 1772 3097 
Q 1472 3097 1187 3025 
Q 903 2953 641 2809 
L 641 3341 
Q 956 3463 1253 3523 
Q 1550 3584 1831 3584 
Q 2591 3584 2966 3190 
Q 3341 2797 3341 1997 
z
" transform="scale(0.015625)"/>
       <path id="DejaVuSans-79" d="M 2059 -325 
Q 1816 -950 1584 -1140 
Q 1353 -1331 966 -1331 
L 506 -1331 
L 506 -850 
L 844 -850 
Q 1081 -850 1212 -737 
Q 1344 -625 1503 -206 
L 1606 56 
L 191 3500 
L 800 3500 
L 1894 763 
L 2988 3500 
L 3597 3500 
L 2059 -325 
z
" transform="scale(0.015625)"/>
      </defs>
      <use xlink:href="#DejaVuSans-61"/>
      <use xlink:href="#DejaVuSans-73" transform="translate(61.279297 0)"/>
      <use xlink:href="#DejaVuSans-79" transform="translate(113.378906 0)"/>
      <use xlink:href="#DejaVuSans-6d" transform="translate(172.558594 0)"/>
      <use xlink:href="#DejaVuSans-6d" transform="translate(269.970703 0)"/>
      <use xlink:href="#DejaVuSans-65" transform="translate(367.382812 0)"/>
      <use xlink:href="#DejaVuSans-74" transform="translate(428.90625 0)"/>
      <use xlink:href="#DejaVuSans-72" transform="translate(468.115234 0)"/>
      <use xlink:href="#DejaVuSans-69" transform="translate(509.228516 0)"/>
      <use xlink:href="#DejaVuSans-63" transform="translate(537.011719 0)"/>
      <use xlink:href="#DejaVuSans-20" transform="translate(591.992188 0)"/>
      <use xlink:href="#DejaVuSans-65" transform="translate(623.779297 0)"/>
      <use xlink:href="#DejaVuSans-72" transform="translate(685.302734 0)"/>
      <use xlink:href="#DejaVuSans-72" transform="translate(724.666016 0)"/>
      <use xlink:href="#DejaVuSans-6f" transform="translate(763.529297 0)"/>
      <use xlink:href="#DejaVuSans-72" transform="translate(824.710938 0)"/>
     </g>
    </g>
    <g id="line2d_15">
     <path d="M 68.4 74.803875 
L 80.4 74.803875 
L 92.4 74.803875 
" style="fill: none; stroke: #ff7f0e; stroke-width: 1.5; stroke-linecap: square"/>
    </g>
    <g id="text_22">
     <!-- with initial values -->
     <g transform="translate(102 79.003875) scale(0.12 -0.12)">
      <defs>
       <path id="DejaVuSans-77" d="M 269 3500 
L 844 3500 
L 1563 769 
L 2278 3500 
L 2956 3500 
L 3675 769 
L 4391 3500 
L 4966 3500 
L 4050 0 
L 3372 0 
L 2619 2869 
L 1863 0 
L 1184 0 
L 269 3500 
z
" transform="scale(0.015625)"/>
       <path id="DejaVuSans-76" d="M 191 3500 
L 800 3500 
L 1894 563 
L 2988 3500 
L 3597 3500 
L 2284 0 
L 1503 0 
L 191 3500 
z
" transform="scale(0.015625)"/>
       <path id="DejaVuSans-75" d="M 544 1381 
L 544 3500 
L 1119 3500 
L 1119 1403 
Q 1119 906 1312 657 
Q 1506 409 1894 409 
Q 2359 409 2629 706 
Q 2900 1003 2900 1516 
L 2900 3500 
L 3475 3500 
L 3475 0 
L 2900 0 
L 2900 538 
Q 2691 219 2414 64 
Q 2138 -91 1772 -91 
Q 1169 -91 856 284 
Q 544 659 544 1381 
z
M 1991 3584 
L 1991 3584 
z
" transform="scale(0.015625)"/>
      </defs>
      <use xlink:href="#DejaVuSans-77"/>
      <use xlink:href="#DejaVuSans-69" transform="translate(81.787109 0)"/>
      <use xlink:href="#DejaVuSans-74" transform="translate(109.570312 0)"/>
      <use xlink:href="#DejaVuSans-68" transform="translate(148.779297 0)"/>
      <use xlink:href="#DejaVuSans-20" transform="translate(212.158203 0)"/>
      <use xlink:href="#DejaVuSans-69" transform="translate(243.945312 0)"/>
      <use xlink:href="#DejaVuSans-6e" transform="translate(271.728516 0)"/>
      <use xlink:href="#DejaVuSans-69" transform="translate(335.107422 0)"/>
      <use xlink:href="#DejaVuSans-74" transform="translate(362.890625 0)"/>
      <use xlink:href="#DejaVuSans-69" transform="translate(402.099609 0)"/>
      <use xlink:href="#DejaVuSans-61" transform="translate(429.882812 0)"/>
      <use xlink:href="#DejaVuSans-6c" transform="translate(491.162109 0)"/>
      <use xlink:href="#DejaVuSans-20" transform="translate(518.945312 0)"/>
      <use xlink:href="#DejaVuSans-76" transform="translate(550.732422 0)"/>
      <use xlink:href="#DejaVuSans-61" transform="translate(609.912109 0)"/>
      <use xlink:href="#DejaVuSans-6c" transform="translate(671.191406 0)"/>
      <use xlink:href="#DejaVuSans-75" transform="translate(698.974609 0)"/>
      <use xlink:href="#DejaVuSans-65" transform="translate(762.353516 0)"/>
      <use xlink:href="#DejaVuSans-73" transform="translate(823.876953 0)"/>
     </g>
    </g>
    <g id="line2d_16">
     <path d="M 68.4 92.417625 
L 80.4 92.417625 
L 92.4 92.417625 
" style="fill: none; stroke-dasharray: 5.55,2.4; stroke-dashoffset: 0; stroke: #2ca02c; stroke-width: 1.5"/>
    </g>
    <g id="text_23">
     <!-- Metal-rich -->
     <g transform="translate(102 96.617625) scale(0.12 -0.12)">
      <defs>
       <path id="DejaVuSans-4d" d="M 628 4666 
L 1569 4666 
L 2759 1491 
L 3956 4666 
L 4897 4666 
L 4897 0 
L 4281 0 
L 4281 4097 
L 3078 897 
L 2444 897 
L 1241 4097 
L 1241 0 
L 628 0 
L 628 4666 
z
" transform="scale(0.015625)"/>
      </defs>
      <use xlink:href="#DejaVuSans-4d"/>
      <use xlink:href="#DejaVuSans-65" transform="translate(86.279297 0)"/>
      <use xlink:href="#DejaVuSans-74" transform="translate(147.802734 0)"/>
      <use xlink:href="#DejaVuSans-61" transform="translate(187.011719 0)"/>
      <use xlink:href="#DejaVuSans-6c" transform="translate(248.291016 0)"/>
      <use xlink:href="#DejaVuSans-2d" transform="translate(276.074219 0)"/>
      <use xlink:href="#DejaVuSans-72" transform="translate(312.158203 0)"/>
      <use xlink:href="#DejaVuSans-69" transform="translate(353.271484 0)"/>
      <use xlink:href="#DejaVuSans-63" transform="translate(381.054688 0)"/>
      <use xlink:href="#DejaVuSans-68" transform="translate(436.035156 0)"/>
     </g>
    </g>
    <g id="line2d_17">
     <path d="M 68.4 110.031375 
L 80.4 110.031375 
L 92.4 110.031375 
" style="fill: none; stroke-dasharray: 5.55,2.4; stroke-dashoffset: 0; stroke: #d62728; stroke-width: 1.5"/>
    </g>
    <g id="text_24">
     <!-- Ultramafic -->
     <g transform="translate(102 114.231375) scale(0.12 -0.12)">
      <defs>
       <path id="DejaVuSans-55" d="M 556 4666 
L 1191 4666 
L 1191 1831 
Q 1191 1081 1462 751 
Q 1734 422 2344 422 
Q 2950 422 3222 751 
Q 3494 1081 3494 1831 
L 3494 4666 
L 4128 4666 
L 4128 1753 
Q 4128 841 3676 375 
Q 3225 -91 2344 -91 
Q 1459 -91 1007 375 
Q 556 841 556 1753 
L 556 4666 
z
" transform="scale(0.015625)"/>
      </defs>
      <use xlink:href="#DejaVuSans-55"/>
      <use xlink:href="#DejaVuSans-6c" transform="translate(73.193359 0)"/>
      <use xlink:href="#DejaVuSans-74" transform="translate(100.976562 0)"/>
      <use xlink:href="#DejaVuSans-72" transform="translate(140.185547 0)"/>
      <use xlink:href="#DejaVuSans-61" transform="translate(181.298828 0)"/>
      <use xlink:href="#DejaVuSans-6d" transform="translate(242.578125 0)"/>
      <use xlink:href="#DejaVuSans-61" transform="translate(339.990234 0)"/>
      <use xlink:href="#DejaVuSans-66" transform="translate(401.269531 0)"/>
      <use xlink:href="#DejaVuSans-69" transform="translate(436.474609 0)"/>
      <use xlink:href="#DejaVuSans-63" transform="translate(464.257812 0)"/>
     </g>
    </g>
    <g id="line2d_18">
     <path d="M 68.4 127.645125 
L 80.4 127.645125 
L 92.4 127.645125 
" style="fill: none; stroke-dasharray: 5.55,2.4; stroke-dashoffset: 0; stroke: #9467bd; stroke-width: 1.5"/>
    </g>
    <g id="text_25">
     <!-- Feldspathic -->
     <g transform="translate(102 131.845125) scale(0.12 -0.12)">
      <use xlink:href="#DejaVuSans-46"/>
      <use xlink:href="#DejaVuSans-65" transform="translate(52.019531 0)"/>
      <use xlink:href="#DejaVuSans-6c" transform="translate(113.542969 0)"/>
      <use xlink:href="#DejaVuSans-64" transform="translate(141.326172 0)"/>
      <use xlink:href="#DejaVuSans-73" transform="translate(204.802734 0)"/>
      <use xlink:href="#DejaVuSans-70" transform="translate(256.902344 0)"/>
      <use xlink:href="#DejaVuSans-61" transform="translate(320.378906 0)"/>
      <use xlink:href="#DejaVuSans-74" transform="translate(381.658203 0)"/>
      <use xlink:href="#DejaVuSans-68" transform="translate(420.867188 0)"/>
      <use xlink:href="#DejaVuSans-69" transform="translate(484.246094 0)"/>
      <use xlink:href="#DejaVuSans-63" transform="translate(512.029297 0)"/>
     </g>
    </g>
    <g id="line2d_19">
     <path d="M 68.4 145.258875 
L 80.4 145.258875 
L 92.4 145.258875 
" style="fill: none; stroke-dasharray: 5.55,2.4; stroke-dashoffset: 0; stroke: #8c564b; stroke-width: 1.5"/>
    </g>
    <g id="text_26">
     <!-- Basaltic -->
     <g transform="translate(102 149.458875) scale(0.12 -0.12)">
      <defs>
       <path id="DejaVuSans-42" d="M 1259 2228 
L 1259 519 
L 2272 519 
Q 2781 519 3026 730 
Q 3272 941 3272 1375 
Q 3272 1813 3026 2020 
Q 2781 2228 2272 2228 
L 1259 2228 
z
M 1259 4147 
L 1259 2741 
L 2194 2741 
Q 2656 2741 2882 2914 
Q 3109 3088 3109 3444 
Q 3109 3797 2882 3972 
Q 2656 4147 2194 4147 
L 1259 4147 
z
M 628 4666 
L 2241 4666 
Q 2963 4666 3353 4366 
Q 3744 4066 3744 3513 
Q 3744 3084 3544 2831 
Q 3344 2578 2956 2516 
Q 3422 2416 3680 2098 
Q 3938 1781 3938 1306 
Q 3938 681 3513 340 
Q 3088 0 2303 0 
L 628 0 
L 628 4666 
z
" transform="scale(0.015625)"/>
      </defs>
      <use xlink:href="#DejaVuSans-42"/>
      <use xlink:href="#DejaVuSans-61" transform="translate(68.603516 0)"/>
      <use xlink:href="#DejaVuSans-73" transform="translate(129.882812 0)"/>
      <use xlink:href="#DejaVuSans-61" transform="translate(181.982422 0)"/>
      <use xlink:href="#DejaVuSans-6c" transform="translate(243.261719 0)"/>
      <use xlink:href="#DejaVuSans-74" transform="translate(271.044922 0)"/>
      <use xlink:href="#DejaVuSans-69" transform="translate(310.253906 0)"/>
      <use xlink:href="#DejaVuSans-63" transform="translate(338.037109 0)"/>
     </g>
    </g>
    <g id="line2d_20">
     <path d="M 68.4 162.872625 
L 80.4 162.872625 
L 92.4 162.872625 
" style="fill: none; stroke-dasharray: 5.55,2.4; stroke-dashoffset: 0; stroke: #e377c2; stroke-width: 1.5"/>
    </g>
    <g id="text_27">
     <!-- Granitoid -->
     <g transform="translate(102 167.072625) scale(0.12 -0.12)">
      <use xlink:href="#DejaVuSans-47"/>
      <use xlink:href="#DejaVuSans-72" transform="translate(77.490234 0)"/>
      <use xlink:href="#DejaVuSans-61" transform="translate(118.603516 0)"/>
      <use xlink:href="#DejaVuSans-6e" transform="translate(179.882812 0)"/>
      <use xlink:href="#DejaVuSans-69" transform="translate(243.261719 0)"/>
      <use xlink:href="#DejaVuSans-74" transform="translate(271.044922 0)"/>
      <use xlink:href="#DejaVuSans-6f" transform="translate(310.253906 0)"/>
      <use xlink:href="#DejaVuSans-69" transform="translate(371.435547 0)"/>
      <use xlink:href="#DejaVuSans-64" transform="translate(399.21875 0)"/>
     </g>
    </g>
    <g id="line2d_21">
     <path d="M 68.4 180.486375 
L 80.4 180.486375 
L 92.4 180.486375 
" style="fill: none; stroke-dasharray: 5.55,2.4; stroke-dashoffset: 0; stroke: #7f7f7f; stroke-width: 1.5"/>
    </g>
    <g id="text_28">
     <!-- Clay -->
     <g transform="translate(102 184.686375) scale(0.12 -0.12)">
      <use xlink:href="#DejaVuSans-43"/>
      <use xlink:href="#DejaVuSans-6c" transform="translate(69.824219 0)"/>
      <use xlink:href="#DejaVuSans-61" transform="translate(97.607422 0)"/>
      <use xlink:href="#DejaVuSans-79" transform="translate(158.886719 0)"/>
     </g>
    </g>
    <g id="line2d_22">
     <path d="M 68.4 198.100125 
L 80.4 198.100125 
L 92.4 198.100125 
" style="fill: none; stroke-dasharray: 5.55,2.4; stroke-dashoffset: 0; stroke: #bcbd22; stroke-width: 1.5"/>
    </g>
    <g id="text_29">
     <!-- Ice-rich silicate -->
     <g transform="translate(102 202.300125) scale(0.12 -0.12)">
      <use xlink:href="#DejaVuSans-49"/>
      <use xlink:href="#DejaVuSans-63" transform="translate(29.492188 0)"/>
      <use xlink:href="#DejaVuSans-65" transform="translate(84.472656 0)"/>
      <use xlink:href="#DejaVuSans-2d" transform="translate(145.996094 0)"/>
      <use xlink:href="#DejaVuSans-72" transform="translate(182.080078 0)"/>
      <use xlink:href="#DejaVuSans-69" transform="translate(223.193359 0)"/>
      <use xlink:href="#DejaVuSans-63" transform="translate(250.976562 0)"/>
      <use xlink:href="#DejaVuSans-68" transform="translate(305.957031 0)"/>
      <use xlink:href="#DejaVuSans-20" transform="translate(369.335938 0)"/>
      <use xlink:href="#DejaVuSans-73" transform="translate(401.123047 0)"/>
      <use xlink:href="#DejaVuSans-69" transform="translate(453.222656 0)"/>
      <use xlink:href="#DejaVuSans-6c" transform="translate(481.005859 0)"/>
      <use xlink:href="#DejaVuSans-69" transform="translate(508.789062 0)"/>
      <use xlink:href="#DejaVuSans-63" transform="translate(536.572266 0)"/>
      <use xlink:href="#DejaVuSans-61" transform="translate(591.552734 0)"/>
      <use xlink:href="#DejaVuSans-74" transform="translate(652.832031 0)"/>
      <use xlink:href="#DejaVuSans-65" transform="translate(692.041016 0)"/>
     </g>
    </g>
    <g id="line2d_23">
     <path d="M 68.4 215.713875 
L 80.4 215.713875 
L 92.4 215.713875 
" style="fill: none; stroke-dasharray: 5.55,2.4; stroke-dashoffset: 0; stroke: #17becf; stroke-width: 1.5"/>
    </g>
    <g id="text_30">
     <!-- Fe-oxidized -->
     <g transform="translate(102 219.913875) scale(0.12 -0.12)">
      <defs>
       <path id="DejaVuSans-78" d="M 3513 3500 
L 2247 1797 
L 3578 0 
L 2900 0 
L 1881 1375 
L 863 0 
L 184 0 
L 1544 1831 
L 300 3500 
L 978 3500 
L 1906 2253 
L 2834 3500 
L 3513 3500 
z
" transform="scale(0.015625)"/>
       <path id="DejaVuSans-7a" d="M 353 3500 
L 3084 3500 
L 3084 2975 
L 922 459 
L 3084 459 
L 3084 0 
L 275 0 
L 275 525 
L 2438 3041 
L 353 3041 
L 353 3500 
z
" transform="scale(0.015625)"/>
      </defs>
      <use xlink:href="#DejaVuSans-46"/>
      <use xlink:href="#DejaVuSans-65" transform="translate(52.019531 0)"/>
      <use xlink:href="#DejaVuSans-2d" transform="translate(113.542969 0)"/>
      <use xlink:href="#DejaVuSans-6f" transform="translate(151.501953 0)"/>
      <use xlink:href="#DejaVuSans-78" transform="translate(209.558594 0)"/>
      <use xlink:href="#DejaVuSans-69" transform="translate(268.738281 0)"/>
      <use xlink:href="#DejaVuSans-64" transform="translate(296.521484 0)"/>
      <use xlink:href="#DejaVuSans-69" transform="translate(359.998047 0)"/>
      <use xlink:href="#DejaVuSans-7a" transform="translate(387.78125 0)"/>
      <use xlink:href="#DejaVuSans-65" transform="translate(440.271484 0)"/>
      <use xlink:href="#DejaVuSans-64" transform="translate(501.794922 0)"/>
     </g>
    </g>
   </g>
   <g id="line2d_24">
    <path d="M 76.78393 279.104797 
L 82.850647 270.625285 
L 88.915209 260.205363 
L 94.978568 250.402221 
L 101.039923 241.505093 
L 107.102003 234.237654 
L 113.164206 230.945588 
L 119.224269 229.682479 
L 125.283922 229.673613 
L 131.341773 231.431991 
L 137.400129 232.486233 
L 143.459724 227.436273 
L 149.51686 220.712713 
L 155.574589 213.244035 
L 161.633787 209.089387 
L 167.691211 203.773156 
L 173.747706 197.561029 
L 179.80829 186.099582 
L 185.867477 176.740571 
L 191.92202 169.34727 
L 197.9788 167.890292 
L 204.039873 165.034058 
L 210.096704 155.04194 
L 216.154956 145.144259 
L 222.21326 139.921313 
L 228.26715 135.676331 
L 234.327475 133.102774 
L 240.387487 129.616086 
L 246.445992 128.202673 
L 252.502579 125.168379 
L 258.557856 122.614421 
L 264.61327 120.11867 
L 270.67133 117.25945 
L 276.72942 115.273855 
L 282.785468 112.909605 
L 288.843968 110.12191 
L 294.904084 106.605012 
L 300.958753 91.893989 
L 307.014382 77.28616 
L 313.071324 71.331756 
L 319.130655 71.878076 
L 325.193673 73.442361 
L 331.247677 73.485204 
L 337.301656 72.291721 
L 343.358033 71.621353 
L 349.411964 71.894193 
L 355.466484 68.727928 
L 361.525097 69.212786 
L 367.583599 68.360399 
L 373.646138 64.484119 
L 379.708761 67.919089 
L 385.758813 65.316925 
L 391.809566 65.014343 
L 397.866304 63.249691 
" clip-path="url(#p30fee43001)" style="fill: none; stroke-dasharray: 5.55,2.4; stroke-dashoffset: 0; stroke: #2ca02c; stroke-width: 1.5"/>
   </g>
   <g id="line2d_25">
    <path d="M 76.78393 287.213911 
L 82.850647 281.350017 
L 88.915209 269.981165 
L 94.978568 259.17137 
L 101.039923 251.148683 
L 107.102003 246.907141 
L 113.164206 245.878039 
L 119.224269 248.195086 
L 125.283922 254.707399 
L 131.341773 262.469405 
L 137.400129 265.233206 
L 143.459724 260.952586 
L 149.51686 255.254795 
L 155.574589 251.017751 
L 161.633787 251.84514 
L 167.691211 254.684902 
L 173.747706 257.030293 
L 179.80829 255.489364 
L 185.867477 252.942064 
L 191.92202 249.405974 
L 197.9788 246.984905 
L 204.039873 235.619808 
L 210.096704 227.311962 
L 216.154956 221.164096 
L 222.21326 219.965149 
L 228.26715 217.945333 
L 234.327475 216.625485 
L 240.387487 215.169049 
L 246.445992 213.307372 
L 252.502579 211.463727 
L 258.557856 208.734089 
L 264.61327 205.159645 
L 270.67133 201.364006 
L 276.72942 197.906002 
L 282.785468 193.894411 
L 288.843968 190.023345 
L 294.904084 184.33012 
L 300.958753 173.578969 
L 307.014382 162.029222 
L 313.071324 155.022154 
L 319.130655 149.666792 
L 325.193673 144.188138 
L 331.247677 134.118337 
L 337.301656 119.804482 
L 343.358033 116.922493 
L 349.411964 109.246487 
L 355.466484 104.263942 
L 361.525097 107.081666 
L 367.583599 103.705242 
L 373.646138 99.733585 
L 379.708761 99.250042 
L 385.758813 100.749491 
L 391.809566 100.213768 
L 397.866304 94.919197 
" clip-path="url(#p30fee43001)" style="fill: none; stroke-dasharray: 5.55,2.4; stroke-dashoffset: 0; stroke: #d62728; stroke-width: 1.5"/>
   </g>
   <g id="line2d_26">
    <path d="M 76.78393 288.528369 
L 82.850647 285.83748 
L 88.915209 282.544 
L 94.978568 278.189786 
L 101.039923 273.070725 
L 107.102003 268.876096 
L 113.164206 266.05812 
L 119.224269 265.254798 
L 125.283922 266.3516 
L 131.341773 268.525029 
L 137.400129 269.736942 
L 143.459724 268.06456 
L 149.51686 265.699415 
L 155.574589 262.806758 
L 161.633787 261.256003 
L 167.691211 259.18944 
L 173.747706 257.228732 
L 179.80829 253.663388 
L 185.867477 251.44585 
L 191.92202 249.72183 
L 197.9788 249.248824 
L 204.039873 245.11861 
L 210.096704 237.487673 
L 216.154956 232.307486 
L 222.21326 231.396969 
L 228.26715 232.038737 
L 234.327475 232.874966 
L 240.387487 230.077539 
L 246.445992 225.745732 
L 252.502579 228.679624 
L 258.557856 228.545911 
L 264.61327 227.449385 
L 270.67133 225.463786 
L 276.72942 222.629608 
L 282.785468 219.212666 
L 288.843968 215.12045 
L 294.904084 207.005015 
L 300.958753 184.08047 
L 307.014382 170.123311 
L 313.071324 159.289905 
L 319.130655 140.981382 
L 325.193673 129.957118 
L 331.247677 121.493173 
L 337.301656 110.488596 
L 343.358033 99.920372 
L 349.411964 92.750755 
L 355.466484 83.480802 
L 361.525097 79.146248 
L 367.583599 75.785149 
L 373.646138 74.301135 
L 379.708761 78.22541 
L 385.758813 74.035605 
L 391.809566 70.814393 
L 397.866304 66.527112 
" clip-path="url(#p30fee43001)" style="fill: none; stroke-dasharray: 5.55,2.4; stroke-dashoffset: 0; stroke: #9467bd; stroke-width: 1.5"/>
   </g>
   <g id="line2d_27">
    <path d="M 76.78393 281.728007 
L 82.850647 274.669659 
L 88.915209 265.643911 
L 94.978568 256.460399 
L 101.039923 248.964752 
L 107.102003 243.340096 
L 113.164206 239.914814 
L 119.224269 237.772544 
L 125.283922 236.557792 
L 131.341773 237.164494 
L 137.400129 237.515746 
L 143.459724 232.370199 
L 149.51686 225.806607 
L 155.574589 218.588272 
L 161.633787 214.423201 
L 167.691211 209.074607 
L 173.747706 203.028258 
L 179.80829 192.576186 
L 185.867477 183.927983 
L 191.92202 177.046777 
L 197.9788 175.306287 
L 204.039873 172.189026 
L 210.096704 167.198315 
L 216.154956 162.577136 
L 222.21326 158.917358 
L 228.26715 154.821903 
L 234.327475 151.884251 
L 240.387487 147.790636 
L 246.445992 145.434423 
L 252.502579 141.837876 
L 258.557856 138.817396 
L 264.61327 135.941216 
L 270.67133 132.811837 
L 276.72942 130.044097 
L 282.785468 127.052948 
L 288.843968 124.032124 
L 294.904084 120.346841 
L 300.958753 106.150049 
L 307.014382 91.862475 
L 313.071324 85.503314 
L 319.130655 84.276057 
L 325.193673 83.937939 
L 331.247677 82.592922 
L 337.301656 79.726901 
L 343.358033 76.768101 
L 349.411964 74.712549 
L 355.466484 69.708952 
L 361.525097 69.240749 
L 367.583599 67.966294 
L 373.646138 64.353918 
L 379.708761 68.156293 
L 385.758813 66.084727 
L 391.809566 65.487659 
L 397.866304 63.40415 
" clip-path="url(#p30fee43001)" style="fill: none; stroke-dasharray: 5.55,2.4; stroke-dashoffset: 0; stroke: #8c564b; stroke-width: 1.5"/>
   </g>
   <g id="line2d_28">
    <path d="M 76.78393 288.62805 
L 82.850647 285.150148 
L 88.915209 281.185131 
L 94.978568 277.294805 
L 101.039923 273.746996 
L 107.102003 270.517703 
L 113.164206 269.116878 
L 119.224269 269.003071 
L 125.283922 269.719195 
L 131.341773 271.365342 
L 137.400129 272.799521 
L 143.459724 272.249276 
L 149.51686 271.11647 
L 155.574589 269.898466 
L 161.633787 270.166608 
L 167.691211 269.933225 
L 173.747706 268.312479 
L 179.80829 263.755679 
L 185.867477 259.343544 
L 191.92202 254.957123 
L 197.9788 251.159784 
L 204.039873 233.941179 
L 210.096704 223.888614 
L 216.154956 217.693652 
L 222.21326 217.072197 
L 228.26715 218.793035 
L 234.327475 222.056333 
L 240.387487 222.008066 
L 246.445992 221.227011 
L 252.502579 222.827157 
L 258.557856 220.918126 
L 264.61327 216.941063 
L 270.67133 215.093142 
L 276.72942 212.584893 
L 282.785468 209.020124 
L 288.843968 202.75739 
L 294.904084 195.244712 
L 300.958753 179.833026 
L 307.014382 159.929293 
L 313.071324 154.623088 
L 319.130655 145.402166 
L 325.193673 140.523072 
L 331.247677 133.403648 
L 337.301656 127.546983 
L 343.358033 121.468641 
L 349.411964 112.092571 
L 355.466484 100.060961 
L 361.525097 94.510943 
L 367.583599 89.36397 
L 373.646138 82.509032 
L 379.708761 83.864031 
L 385.758813 81.380521 
L 391.809566 80.307546 
L 397.866304 77.488784 
" clip-path="url(#p30fee43001)" style="fill: none; stroke-dasharray: 5.55,2.4; stroke-dashoffset: 0; stroke: #e377c2; stroke-width: 1.5"/>
   </g>
   <g id="line2d_29">
    <path d="M 76.78393 290.391054 
L 82.850647 288.78774 
L 88.915209 286.483099 
L 94.978568 282.924973 
L 101.039923 279.845207 
L 107.102003 277.511226 
L 113.164206 277.701329 
L 119.224269 273.998528 
L 125.283922 271.96579 
L 131.341773 279.188106 
L 137.400129 280.964764 
L 143.459724 277.849487 
L 149.51686 266.954616 
L 155.574589 247.700747 
L 161.633787 257.536302 
L 167.691211 255.447062 
L 173.747706 241.542568 
L 179.80829 220.705469 
L 185.867477 212.293581 
L 191.92202 201.833109 
L 197.9788 191.761883 
L 204.039873 157.810773 
L 210.096704 154.920619 
L 216.154956 151.536674 
L 222.21326 153.066653 
L 228.26715 154.142318 
L 234.327475 157.161948 
L 240.387487 157.104529 
L 246.445992 159.068655 
L 252.502579 162.542968 
L 258.557856 163.353401 
L 264.61327 162.367583 
L 270.67133 161.013973 
L 276.72942 159.927241 
L 282.785468 157.616637 
L 288.843968 154.348483 
L 294.904084 150.008089 
L 300.958753 136.891538 
L 307.014382 122.869083 
L 313.071324 114.565888 
L 319.130655 109.9592 
L 325.193673 105.128949 
L 331.247677 100.454651 
L 337.301656 95.551019 
L 343.358033 91.731584 
L 349.411964 89.799654 
L 355.466484 82.389853 
L 361.525097 78.088582 
L 367.583599 75.212995 
L 373.646138 69.437284 
L 379.708761 70.555528 
L 385.758813 65.561734 
L 391.809566 63.597668 
L 397.866304 59.478257 
" clip-path="url(#p30fee43001)" style="fill: none; stroke-dasharray: 5.55,2.4; stroke-dashoffset: 0; stroke: #7f7f7f; stroke-width: 1.5"/>
   </g>
   <g id="line2d_30">
    <path d="M 76.78393 283.996031 
L 82.850647 278.115641 
L 88.915209 270.522243 
L 94.978568 262.665534 
L 101.039923 256.323812 
L 107.102003 251.691115 
L 113.164206 247.989168 
L 119.224269 246.196715 
L 125.283922 237.854195 
L 131.341773 232.609648 
L 137.400129 235.528466 
L 143.459724 234.205846 
L 149.51686 228.022588 
L 155.574589 210.771362 
L 161.633787 205.105743 
L 167.691211 206.356594 
L 173.747706 205.736889 
L 179.80829 189.76549 
L 185.867477 177.818034 
L 191.92202 170.598276 
L 197.9788 164.707415 
L 204.039873 159.703522 
L 210.096704 152.68587 
L 216.154956 147.338677 
L 222.21326 144.8527 
L 228.26715 140.563005 
L 234.327475 136.765003 
L 240.387487 132.077068 
L 246.445992 129.715316 
L 252.502579 127.22759 
L 258.557856 126.280996 
L 264.61327 124.151888 
L 270.67133 119.920702 
L 276.72942 115.472563 
L 282.785468 111.097259 
L 288.843968 107.07795 
L 294.904084 102.759947 
L 300.958753 87.28889 
L 307.014382 71.884296 
L 313.071324 65.724969 
L 319.130655 65.91843 
L 325.193673 67.667213 
L 331.247677 67.94234 
L 337.301656 66.392867 
L 343.358033 64.380339 
L 349.411964 63.089143 
L 355.466484 58.497706 
L 361.525097 58.408912 
L 367.583599 57.320055 
L 373.646138 53.568 
L 379.708761 57.634362 
L 385.758813 55.715545 
L 391.809566 55.743901 
L 397.866304 54.348728 
" clip-path="url(#p30fee43001)" style="fill: none; stroke-dasharray: 5.55,2.4; stroke-dashoffset: 0; stroke: #bcbd22; stroke-width: 1.5"/>
   </g>
   <g id="line2d_31">
    <path d="M 76.78393 280.553795 
L 82.850647 272.909133 
L 88.915209 263.244757 
L 94.978568 254.053821 
L 101.039923 246.490156 
L 107.102003 240.51084 
L 113.164206 236.937582 
L 119.224269 234.463741 
L 125.283922 233.058623 
L 131.341773 233.69462 
L 137.400129 234.191164 
L 143.459724 228.967457 
L 149.51686 222.2979 
L 155.574589 214.997378 
L 161.633787 211.039993 
L 167.691211 205.720603 
L 173.747706 199.803309 
L 179.80829 189.734552 
L 185.867477 181.608454 
L 191.92202 175.210988 
L 197.9788 173.888645 
L 204.039873 169.088968 
L 210.096704 163.084641 
L 216.154956 158.290117 
L 222.21326 155.053964 
L 228.26715 151.660376 
L 234.327475 149.624982 
L 240.387487 146.340914 
L 246.445992 144.723931 
L 252.502579 142.058106 
L 258.557856 139.793272 
L 264.61327 137.584281 
L 270.67133 134.932395 
L 276.72942 132.430688 
L 282.785468 129.772061 
L 288.843968 126.988881 
L 294.904084 123.448749 
L 300.958753 109.481622 
L 307.014382 94.613362 
L 313.071324 86.675585 
L 319.130655 84.895527 
L 325.193673 85.114751 
L 331.247677 84.601305 
L 337.301656 82.500153 
L 343.358033 80.94513 
L 349.411964 80.59032 
L 355.466484 77.122962 
L 361.525097 77.838311 
L 367.583599 77.713347 
L 373.646138 74.809223 
L 379.708761 78.84455 
L 385.758813 76.714155 
L 391.809566 75.529104 
L 397.866304 72.590672 
" clip-path="url(#p30fee43001)" style="fill: none; stroke-dasharray: 5.55,2.4; stroke-dashoffset: 0; stroke: #17becf; stroke-width: 1.5"/>
   </g>
  </g>
 </g>
 <defs>
  <clipPath id="p30fee43001">
   <rect x="57.6" y="41.472" width="357.12" height="266.112"/>
  </clipPath>
 </defs>
</svg>
