<?xml version="1.0" encoding="utf-8" standalone="no"?>
<!DOCTYPE svg PUBLIC "-//W3C//DTD SVG 1.1//EN"
  "http://www.w3.org/Graphics/SVG/1.1/DTD/svg11.dtd">
<svg xmlns:xlink="http://www.w3.org/1999/xlink" width="720pt" height="720pt" viewBox="0 0 720 720" xmlns="http://www.w3.org/2000/svg" version="1.1">
 <metadata>
  <rdf:RDF xmlns:dc="http://purl.org/dc/elements/1.1/" xmlns:cc="http://creativecommons.org/ns#" xmlns:rdf="http://www.w3.org/1999/02/22-rdf-syntax-ns#">
   <cc:Work>
    <dc:type rdf:resource="http://purl.org/dc/dcmitype/StillImage"/>
    <dc:date>2025-12-10T16:30:58.325518</dc:date>
    <dc:format>image/svg+xml</dc:format>
    <dc:creator>
     <cc:Agent>
      <dc:title>Matplotlib v3.10.7, https://matplotlib.org/</dc:title>
     </cc:Agent>
    </dc:creator>
   </cc:Work>
  </rdf:RDF>
 </metadata>
 <defs>
  <style type="text/css">*{stroke-linejoin: round; stroke-linecap: butt}</style>
 </defs>
 <g id="figure_1">
  <g id="patch_1">
   <path d="M 0 720 
L 720 720 
L 720 0 
L 0 0 
z
" style="fill: #ffffff"/>
  </g>
  <g id="axes_1">
   <g id="patch_2">
    <path d="M 90 640.8 
L 648 640.8 
L 648 86.4 
L 90 86.4 
z
" style="fill: #ffffff"/>
   </g>
   <g id="FillBetweenPolyCollection_1">
    <path d="M 124.82768 550.422592 
L 124.82768 597.733665 
L 148.487788 564.134157 
L 204.325645 413.866391 
L 281.930801 326.441329 
L 374.678426 264.731536 
L 622.636364 192.854309 
L 622.636364 111.6 
L 622.636364 111.6 
L 374.678426 170.519354 
L 281.930801 213.450151 
L 204.325645 376.533081 
L 148.487788 487.028877 
L 124.82768 550.422592 
z
" clip-path="url(#p70ff5b20e1)" style="fill: #1f77b4; fill-opacity: 0.2"/>
   </g>
   <g id="matplotlib.axis_1">
    <g id="xtick_1">
     <g id="line2d_1">
      <defs>
       <path id="m70a37693cc" d="M 0 0 
L 0 3.5 
" style="stroke: #000000; stroke-width: 0.8"/>
      </defs>
      <g>
       <use xlink:href="#m70a37693cc" x="153.21981" y="640.8" style="stroke: #000000; stroke-width: 0.8"/>
      </g>
     </g>
     <g id="text_1">
      <!-- 1 -->
      <g transform="translate(148.76606 658.437813) scale(0.14 -0.14)">
       <defs>
        <path id="DejaVuSans-31" d="M 794 531 
L 1825 531 
L 1825 4091 
L 703 3866 
L 703 4441 
L 1819 4666 
L 2450 4666 
L 2450 531 
L 3481 531 
L 3481 0 
L 794 0 
L 794 531 
z
" transform="scale(0.015625)"/>
       </defs>
       <use xlink:href="#DejaVuSans-31"/>
      </g>
     </g>
    </g>
    <g id="xtick_2">
     <g id="line2d_2">
      <g>
       <use xlink:href="#m70a37693cc" x="247.860244" y="640.8" style="stroke: #000000; stroke-width: 0.8"/>
      </g>
     </g>
     <g id="text_2">
      <!-- 2 -->
      <g transform="translate(243.406494 658.437813) scale(0.14 -0.14)">
       <defs>
        <path id="DejaVuSans-32" d="M 1228 531 
L 3431 531 
L 3431 0 
L 469 0 
L 469 531 
Q 828 903 1448 1529 
Q 2069 2156 2228 2338 
Q 2531 2678 2651 2914 
Q 2772 3150 2772 3378 
Q 2772 3750 2511 3984 
Q 2250 4219 1831 4219 
Q 1534 4219 1204 4116 
Q 875 4013 500 3803 
L 500 4441 
Q 881 4594 1212 4672 
Q 1544 4750 1819 4750 
Q 2544 4750 2975 4387 
Q 3406 4025 3406 3419 
Q 3406 3131 3298 2873 
Q 3191 2616 2906 2266 
Q 2828 2175 2409 1742 
Q 1991 1309 1228 531 
z
" transform="scale(0.015625)"/>
       </defs>
       <use xlink:href="#DejaVuSans-32"/>
      </g>
     </g>
    </g>
    <g id="xtick_3">
     <g id="line2d_3">
      <g>
       <use xlink:href="#m70a37693cc" x="342.500678" y="640.8" style="stroke: #000000; stroke-width: 0.8"/>
      </g>
     </g>
     <g id="text_3">
      <!-- 3 -->
      <g transform="translate(338.046928 658.437813) scale(0.14 -0.14)">
       <defs>
        <path id="DejaVuSans-33" d="M 2597 2516 
Q 3050 2419 3304 2112 
Q 3559 1806 3559 1356 
Q 3559 666 3084 287 
Q 2609 -91 1734 -91 
Q 1441 -91 1130 -33 
Q 819 25 488 141 
L 488 750 
Q 750 597 1062 519 
Q 1375 441 1716 441 
Q 2309 441 2620 675 
Q 2931 909 2931 1356 
Q 2931 1769 2642 2001 
Q 2353 2234 1838 2234 
L 1294 2234 
L 1294 2753 
L 1863 2753 
Q 2328 2753 2575 2939 
Q 2822 3125 2822 3475 
Q 2822 3834 2567 4026 
Q 2313 4219 1838 4219 
Q 1578 4219 1281 4162 
Q 984 4106 628 3988 
L 628 4550 
Q 988 4650 1302 4700 
Q 1616 4750 1894 4750 
Q 2613 4750 3031 4423 
Q 3450 4097 3450 3541 
Q 3450 3153 3228 2886 
Q 3006 2619 2597 2516 
z
" transform="scale(0.015625)"/>
       </defs>
       <use xlink:href="#DejaVuSans-33"/>
      </g>
     </g>
    </g>
    <g id="xtick_4">
     <g id="line2d_4">
      <g>
       <use xlink:href="#m70a37693cc" x="437.141113" y="640.8" style="stroke: #000000; stroke-width: 0.8"/>
      </g>
     </g>
     <g id="text_4">
      <!-- 4 -->
      <g transform="translate(432.687363 658.437813) scale(0.14 -0.14)">
       <defs>
        <path id="DejaVuSans-34" d="M 2419 4116 
L 825 1625 
L 2419 1625 
L 2419 4116 
z
M 2253 4666 
L 3047 4666 
L 3047 1625 
L 3713 1625 
L 3713 1100 
L 3047 1100 
L 3047 0 
L 2419 0 
L 2419 1100 
L 313 1100 
L 313 1709 
L 2253 4666 
z
" transform="scale(0.015625)"/>
       </defs>
       <use xlink:href="#DejaVuSans-34"/>
      </g>
     </g>
    </g>
    <g id="xtick_5">
     <g id="line2d_5">
      <g>
       <use xlink:href="#m70a37693cc" x="531.781547" y="640.8" style="stroke: #000000; stroke-width: 0.8"/>
      </g>
     </g>
     <g id="text_5">
      <!-- 5 -->
      <g transform="translate(527.327797 658.437813) scale(0.14 -0.14)">
       <defs>
        <path id="DejaVuSans-35" d="M 691 4666 
L 3169 4666 
L 3169 4134 
L 1269 4134 
L 1269 2991 
Q 1406 3038 1543 3061 
Q 1681 3084 1819 3084 
Q 2600 3084 3056 2656 
Q 3513 2228 3513 1497 
Q 3513 744 3044 326 
Q 2575 -91 1722 -91 
Q 1428 -91 1123 -41 
Q 819 9 494 109 
L 494 744 
Q 775 591 1075 516 
Q 1375 441 1709 441 
Q 2250 441 2565 725 
Q 2881 1009 2881 1497 
Q 2881 1984 2565 2268 
Q 2250 2553 1709 2553 
Q 1456 2553 1204 2497 
Q 953 2441 691 2322 
L 691 4666 
z
" transform="scale(0.015625)"/>
       </defs>
       <use xlink:href="#DejaVuSans-35"/>
      </g>
     </g>
    </g>
    <g id="xtick_6">
     <g id="line2d_6">
      <g>
       <use xlink:href="#m70a37693cc" x="626.421981" y="640.8" style="stroke: #000000; stroke-width: 0.8"/>
      </g>
     </g>
     <g id="text_6">
      <!-- 6 -->
      <g transform="translate(621.968231 658.437813) scale(0.14 -0.14)">
       <defs>
        <path id="DejaVuSans-36" d="M 2113 2584 
Q 1688 2584 1439 2293 
Q 1191 2003 1191 1497 
Q 1191 994 1439 701 
Q 1688 409 2113 409 
Q 2538 409 2786 701 
Q 3034 994 3034 1497 
Q 3034 2003 2786 2293 
Q 2538 2584 2113 2584 
z
M 3366 4563 
L 3366 3988 
Q 3128 4100 2886 4159 
Q 2644 4219 2406 4219 
Q 1781 4219 1451 3797 
Q 1122 3375 1075 2522 
Q 1259 2794 1537 2939 
Q 1816 3084 2150 3084 
Q 2853 3084 3261 2657 
Q 3669 2231 3669 1497 
Q 3669 778 3244 343 
Q 2819 -91 2113 -91 
Q 1303 -91 875 529 
Q 447 1150 447 2328 
Q 447 3434 972 4092 
Q 1497 4750 2381 4750 
Q 2619 4750 2861 4703 
Q 3103 4656 3366 4563 
z
" transform="scale(0.015625)"/>
       </defs>
       <use xlink:href="#DejaVuSans-36"/>
      </g>
     </g>
    </g>
    <g id="text_7">
     <!-- $\lambda$ ($\mu$m) -->
     <g transform="translate(345.83 675.989375) scale(0.14 -0.14)">
      <defs>
       <path id="DejaVuSans-Oblique-3bb" d="M 2350 4316 
L 3125 0 
L 2516 0 
L 2038 2588 
L 328 0 
L -281 0 
L 1903 3356 
L 1794 3975 
Q 1725 4369 1391 4369 
L 1091 4369 
L 1184 4863 
L 1550 4856 
Q 2253 4847 2350 4316 
z
" transform="scale(0.015625)"/>
       <path id="DejaVuSans-20" transform="scale(0.015625)"/>
       <path id="DejaVuSans-28" d="M 1984 4856 
Q 1566 4138 1362 3434 
Q 1159 2731 1159 2009 
Q 1159 1288 1364 580 
Q 1569 -128 1984 -844 
L 1484 -844 
Q 1016 -109 783 600 
Q 550 1309 550 2009 
Q 550 2706 781 3412 
Q 1013 4119 1484 4856 
L 1984 4856 
z
" transform="scale(0.015625)"/>
       <path id="DejaVuSans-Oblique-3bc" d="M -84 -1331 
L 856 3500 
L 1434 3500 
L 1009 1322 
Q 997 1256 987 1175 
Q 978 1094 978 1013 
Q 978 722 1161 565 
Q 1344 409 1684 409 
Q 2147 409 2431 671 
Q 2716 934 2816 1459 
L 3213 3500 
L 3788 3500 
L 3266 809 
Q 3253 750 3248 706 
Q 3244 663 3244 628 
Q 3244 531 3283 486 
Q 3322 441 3406 441 
Q 3438 441 3492 456 
Q 3547 472 3647 513 
L 3559 50 
Q 3422 -19 3297 -55 
Q 3172 -91 3053 -91 
Q 2847 -91 2730 40 
Q 2613 172 2613 403 
Q 2438 153 2195 31 
Q 1953 -91 1625 -91 
Q 1334 -91 1117 43 
Q 900 178 831 397 
L 494 -1331 
L -84 -1331 
z
" transform="scale(0.015625)"/>
       <path id="DejaVuSans-6d" d="M 3328 2828 
Q 3544 3216 3844 3400 
Q 4144 3584 4550 3584 
Q 5097 3584 5394 3201 
Q 5691 2819 5691 2113 
L 5691 0 
L 5113 0 
L 5113 2094 
Q 5113 2597 4934 2840 
Q 4756 3084 4391 3084 
Q 3944 3084 3684 2787 
Q 3425 2491 3425 1978 
L 3425 0 
L 2847 0 
L 2847 2094 
Q 2847 2600 2669 2842 
Q 2491 3084 2119 3084 
Q 1678 3084 1418 2786 
Q 1159 2488 1159 1978 
L 1159 0 
L 581 0 
L 581 3500 
L 1159 3500 
L 1159 2956 
Q 1356 3278 1631 3431 
Q 1906 3584 2284 3584 
Q 2666 3584 2933 3390 
Q 3200 3197 3328 2828 
z
" transform="scale(0.015625)"/>
       <path id="DejaVuSans-29" d="M 513 4856 
L 1013 4856 
Q 1481 4119 1714 3412 
Q 1947 2706 1947 2009 
Q 1947 1309 1714 600 
Q 1481 -109 1013 -844 
L 513 -844 
Q 928 -128 1133 580 
Q 1338 1288 1338 2009 
Q 1338 2731 1133 3434 
Q 928 4138 513 4856 
z
" transform="scale(0.015625)"/>
      </defs>
      <use xlink:href="#DejaVuSans-Oblique-3bb" transform="translate(0 0.015625)"/>
      <use xlink:href="#DejaVuSans-20" transform="translate(59.179688 0.015625)"/>
      <use xlink:href="#DejaVuSans-28" transform="translate(90.966797 0.015625)"/>
      <use xlink:href="#DejaVuSans-Oblique-3bc" transform="translate(129.980469 0.015625)"/>
      <use xlink:href="#DejaVuSans-6d" transform="translate(193.603516 0.015625)"/>
      <use xlink:href="#DejaVuSans-29" transform="translate(291.015625 0.015625)"/>
     </g>
    </g>
   </g>
   <g id="matplotlib.axis_2">
    <g id="ytick_1">
     <g id="line2d_7">
      <defs>
       <path id="m3d203d17dd" d="M 0 0 
L -3.5 0 
" style="stroke: #000000; stroke-width: 0.8"/>
      </defs>
      <g>
       <use xlink:href="#m3d203d17dd" x="90" y="615.6" style="stroke: #000000; stroke-width: 0.8"/>
      </g>
     </g>
     <g id="text_8">
      <!-- 0 -->
      <g transform="translate(74.0925 620.918906) scale(0.14 -0.14)">
       <defs>
        <path id="DejaVuSans-30" d="M 2034 4250 
Q 1547 4250 1301 3770 
Q 1056 3291 1056 2328 
Q 1056 1369 1301 889 
Q 1547 409 2034 409 
Q 2525 409 2770 889 
Q 3016 1369 3016 2328 
Q 3016 3291 2770 3770 
Q 2525 4250 2034 4250 
z
M 2034 4750 
Q 2819 4750 3233 4129 
Q 3647 3509 3647 2328 
Q 3647 1150 3233 529 
Q 2819 -91 2034 -91 
Q 1250 -91 836 529 
Q 422 1150 422 2328 
Q 422 3509 836 4129 
Q 1250 4750 2034 4750 
z
" transform="scale(0.015625)"/>
       </defs>
       <use xlink:href="#DejaVuSans-30"/>
      </g>
     </g>
    </g>
    <g id="ytick_2">
     <g id="line2d_8">
      <g>
       <use xlink:href="#m3d203d17dd" x="90" y="497.784836" style="stroke: #000000; stroke-width: 0.8"/>
      </g>
     </g>
     <g id="text_9">
      <!-- 50 -->
      <g transform="translate(65.185 503.103742) scale(0.14 -0.14)">
       <use xlink:href="#DejaVuSans-35"/>
       <use xlink:href="#DejaVuSans-30" transform="translate(63.623047 0)"/>
      </g>
     </g>
    </g>
    <g id="ytick_3">
     <g id="line2d_9">
      <g>
       <use xlink:href="#m3d203d17dd" x="90" y="379.969672" style="stroke: #000000; stroke-width: 0.8"/>
      </g>
     </g>
     <g id="text_10">
      <!-- 100 -->
      <g transform="translate(56.2775 385.288578) scale(0.14 -0.14)">
       <use xlink:href="#DejaVuSans-31"/>
       <use xlink:href="#DejaVuSans-30" transform="translate(63.623047 0)"/>
       <use xlink:href="#DejaVuSans-30" transform="translate(127.246094 0)"/>
      </g>
     </g>
    </g>
    <g id="ytick_4">
     <g id="line2d_10">
      <g>
       <use xlink:href="#m3d203d17dd" x="90" y="262.154508" style="stroke: #000000; stroke-width: 0.8"/>
      </g>
     </g>
     <g id="text_11">
      <!-- 150 -->
      <g transform="translate(56.2775 267.473415) scale(0.14 -0.14)">
       <use xlink:href="#DejaVuSans-31"/>
       <use xlink:href="#DejaVuSans-35" transform="translate(63.623047 0)"/>
       <use xlink:href="#DejaVuSans-30" transform="translate(127.246094 0)"/>
      </g>
     </g>
    </g>
    <g id="ytick_5">
     <g id="line2d_11">
      <g>
       <use xlink:href="#m3d203d17dd" x="90" y="144.339344" style="stroke: #000000; stroke-width: 0.8"/>
      </g>
     </g>
     <g id="text_12">
      <!-- 200 -->
      <g transform="translate(56.2775 149.658251) scale(0.14 -0.14)">
       <use xlink:href="#DejaVuSans-32"/>
       <use xlink:href="#DejaVuSans-30" transform="translate(63.623047 0)"/>
       <use xlink:href="#DejaVuSans-30" transform="translate(127.246094 0)"/>
      </g>
     </g>
    </g>
    <g id="text_13">
     <!-- Eclipse depth (ppm) -->
     <g transform="translate(49.365937 434.152344) rotate(-90) scale(0.14 -0.14)">
      <defs>
       <path id="DejaVuSans-45" d="M 628 4666 
L 3578 4666 
L 3578 4134 
L 1259 4134 
L 1259 2753 
L 3481 2753 
L 3481 2222 
L 1259 2222 
L 1259 531 
L 3634 531 
L 3634 0 
L 628 0 
L 628 4666 
z
" transform="scale(0.015625)"/>
       <path id="DejaVuSans-63" d="M 3122 3366 
L 3122 2828 
Q 2878 2963 2633 3030 
Q 2388 3097 2138 3097 
Q 1578 3097 1268 2742 
Q 959 2388 959 1747 
Q 959 1106 1268 751 
Q 1578 397 2138 397 
Q 2388 397 2633 464 
Q 2878 531 3122 666 
L 3122 134 
Q 2881 22 2623 -34 
Q 2366 -91 2075 -91 
Q 1284 -91 818 406 
Q 353 903 353 1747 
Q 353 2603 823 3093 
Q 1294 3584 2113 3584 
Q 2378 3584 2631 3529 
Q 2884 3475 3122 3366 
z
" transform="scale(0.015625)"/>
       <path id="DejaVuSans-6c" d="M 603 4863 
L 1178 4863 
L 1178 0 
L 603 0 
L 603 4863 
z
" transform="scale(0.015625)"/>
       <path id="DejaVuSans-69" d="M 603 3500 
L 1178 3500 
L 1178 0 
L 603 0 
L 603 3500 
z
M 603 4863 
L 1178 4863 
L 1178 4134 
L 603 4134 
L 603 4863 
z
" transform="scale(0.015625)"/>
       <path id="DejaVuSans-70" d="M 1159 525 
L 1159 -1331 
L 581 -1331 
L 581 3500 
L 1159 3500 
L 1159 2969 
Q 1341 3281 1617 3432 
Q 1894 3584 2278 3584 
Q 2916 3584 3314 3078 
Q 3713 2572 3713 1747 
Q 3713 922 3314 415 
Q 2916 -91 2278 -91 
Q 1894 -91 1617 61 
Q 1341 213 1159 525 
z
M 3116 1747 
Q 3116 2381 2855 2742 
Q 2594 3103 2138 3103 
Q 1681 3103 1420 2742 
Q 1159 2381 1159 1747 
Q 1159 1113 1420 752 
Q 1681 391 2138 391 
Q 2594 391 2855 752 
Q 3116 1113 3116 1747 
z
" transform="scale(0.015625)"/>
       <path id="DejaVuSans-73" d="M 2834 3397 
L 2834 2853 
Q 2591 2978 2328 3040 
Q 2066 3103 1784 3103 
Q 1356 3103 1142 2972 
Q 928 2841 928 2578 
Q 928 2378 1081 2264 
Q 1234 2150 1697 2047 
L 1894 2003 
Q 2506 1872 2764 1633 
Q 3022 1394 3022 966 
Q 3022 478 2636 193 
Q 2250 -91 1575 -91 
Q 1294 -91 989 -36 
Q 684 19 347 128 
L 347 722 
Q 666 556 975 473 
Q 1284 391 1588 391 
Q 1994 391 2212 530 
Q 2431 669 2431 922 
Q 2431 1156 2273 1281 
Q 2116 1406 1581 1522 
L 1381 1569 
Q 847 1681 609 1914 
Q 372 2147 372 2553 
Q 372 3047 722 3315 
Q 1072 3584 1716 3584 
Q 2034 3584 2315 3537 
Q 2597 3491 2834 3397 
z
" transform="scale(0.015625)"/>
       <path id="DejaVuSans-65" d="M 3597 1894 
L 3597 1613 
L 953 1613 
Q 991 1019 1311 708 
Q 1631 397 2203 397 
Q 2534 397 2845 478 
Q 3156 559 3463 722 
L 3463 178 
Q 3153 47 2828 -22 
Q 2503 -91 2169 -91 
Q 1331 -91 842 396 
Q 353 884 353 1716 
Q 353 2575 817 3079 
Q 1281 3584 2069 3584 
Q 2775 3584 3186 3129 
Q 3597 2675 3597 1894 
z
M 3022 2063 
Q 3016 2534 2758 2815 
Q 2500 3097 2075 3097 
Q 1594 3097 1305 2825 
Q 1016 2553 972 2059 
L 3022 2063 
z
" transform="scale(0.015625)"/>
       <path id="DejaVuSans-64" d="M 2906 2969 
L 2906 4863 
L 3481 4863 
L 3481 0 
L 2906 0 
L 2906 525 
Q 2725 213 2448 61 
Q 2172 -91 1784 -91 
Q 1150 -91 751 415 
Q 353 922 353 1747 
Q 353 2572 751 3078 
Q 1150 3584 1784 3584 
Q 2172 3584 2448 3432 
Q 2725 3281 2906 2969 
z
M 947 1747 
Q 947 1113 1208 752 
Q 1469 391 1925 391 
Q 2381 391 2643 752 
Q 2906 1113 2906 1747 
Q 2906 2381 2643 2742 
Q 2381 3103 1925 3103 
Q 1469 3103 1208 2742 
Q 947 2381 947 1747 
z
" transform="scale(0.015625)"/>
       <path id="DejaVuSans-74" d="M 1172 4494 
L 1172 3500 
L 2356 3500 
L 2356 3053 
L 1172 3053 
L 1172 1153 
Q 1172 725 1289 603 
Q 1406 481 1766 481 
L 2356 481 
L 2356 0 
L 1766 0 
Q 1100 0 847 248 
Q 594 497 594 1153 
L 594 3053 
L 172 3053 
L 172 3500 
L 594 3500 
L 594 4494 
L 1172 4494 
z
" transform="scale(0.015625)"/>
       <path id="DejaVuSans-68" d="M 3513 2113 
L 3513 0 
L 2938 0 
L 2938 2094 
Q 2938 2591 2744 2837 
Q 2550 3084 2163 3084 
Q 1697 3084 1428 2787 
Q 1159 2491 1159 1978 
L 1159 0 
L 581 0 
L 581 4863 
L 1159 4863 
L 1159 2956 
Q 1366 3272 1645 3428 
Q 1925 3584 2291 3584 
Q 2894 3584 3203 3211 
Q 3513 2838 3513 2113 
z
" transform="scale(0.015625)"/>
      </defs>
      <use xlink:href="#DejaVuSans-45"/>
      <use xlink:href="#DejaVuSans-63" transform="translate(63.183594 0)"/>
      <use xlink:href="#DejaVuSans-6c" transform="translate(118.164062 0)"/>
      <use xlink:href="#DejaVuSans-69" transform="translate(145.947266 0)"/>
      <use xlink:href="#DejaVuSans-70" transform="translate(173.730469 0)"/>
      <use xlink:href="#DejaVuSans-73" transform="translate(237.207031 0)"/>
      <use xlink:href="#DejaVuSans-65" transform="translate(289.306641 0)"/>
      <use xlink:href="#DejaVuSans-20" transform="translate(350.830078 0)"/>
      <use xlink:href="#DejaVuSans-64" transform="translate(382.617188 0)"/>
      <use xlink:href="#DejaVuSans-65" transform="translate(446.09375 0)"/>
      <use xlink:href="#DejaVuSans-70" transform="translate(507.617188 0)"/>
      <use xlink:href="#DejaVuSans-74" transform="translate(571.09375 0)"/>
      <use xlink:href="#DejaVuSans-68" transform="translate(610.302734 0)"/>
      <use xlink:href="#DejaVuSans-20" transform="translate(673.681641 0)"/>
      <use xlink:href="#DejaVuSans-28" transform="translate(705.46875 0)"/>
      <use xlink:href="#DejaVuSans-70" transform="translate(744.482422 0)"/>
      <use xlink:href="#DejaVuSans-70" transform="translate(807.958984 0)"/>
      <use xlink:href="#DejaVuSans-6d" transform="translate(871.435547 0)"/>
      <use xlink:href="#DejaVuSans-29" transform="translate(968.847656 0)"/>
     </g>
    </g>
   </g>
   <g id="line2d_12">
    <path d="M 124.82768 579.952462 
L 148.487788 527.930189 
L 204.325645 395.127281 
L 281.930801 269.208759 
L 374.678426 219.391366 
L 622.636364 139.202259 
" clip-path="url(#p70ff5b20e1)" style="fill: none; stroke: #1f77b4; stroke-width: 1.5; stroke-linecap: square"/>
    <defs>
     <path id="m4364bf1780" d="M 0 3 
C 0.795609 3 1.55874 2.683901 2.12132 2.12132 
C 2.683901 1.55874 3 0.795609 3 0 
C 3 -0.795609 2.683901 -1.55874 2.12132 -2.12132 
C 1.55874 -2.683901 0.795609 -3 0 -3 
C -0.795609 -3 -1.55874 -2.683901 -2.12132 -2.12132 
C -2.683901 -1.55874 -3 -0.795609 -3 0 
C -3 0.795609 -2.683901 1.55874 -2.12132 2.12132 
C -1.55874 2.683901 -0.795609 3 0 3 
z
" style="stroke: #1f77b4"/>
    </defs>
    <g clip-path="url(#p70ff5b20e1)">
     <use xlink:href="#m4364bf1780" x="124.82768" y="579.952462" style="fill: #1f77b4; stroke: #1f77b4"/>
     <use xlink:href="#m4364bf1780" x="148.487788" y="527.930189" style="fill: #1f77b4; stroke: #1f77b4"/>
     <use xlink:href="#m4364bf1780" x="204.325645" y="395.127281" style="fill: #1f77b4; stroke: #1f77b4"/>
     <use xlink:href="#m4364bf1780" x="281.930801" y="269.208759" style="fill: #1f77b4; stroke: #1f77b4"/>
     <use xlink:href="#m4364bf1780" x="374.678426" y="219.391366" style="fill: #1f77b4; stroke: #1f77b4"/>
     <use xlink:href="#m4364bf1780" x="622.636364" y="139.202259" style="fill: #1f77b4; stroke: #1f77b4"/>
    </g>
   </g>
   <g id="line2d_13">
    <path d="M 115.363636 590.010428 
L 124.82768 572.461606 
L 134.291723 551.982866 
L 143.755767 529.82294 
L 153.21981 506.992622 
L 162.683853 484.231726 
L 172.147897 462.041716 
L 181.61194 440.737493 
L 191.075984 420.497631 
L 200.540027 401.405778 
L 210.004071 383.482109 
L 219.468114 366.706068 
L 228.932157 351.032268 
L 238.396201 336.401335 
L 247.860244 322.747121 
L 257.324288 310.001392 
L 266.788331 298.096786 
L 276.252374 286.968591 
L 285.716418 276.555753 
L 295.180461 266.80136 
L 304.644505 257.652806 
L 314.108548 249.06174 
L 323.572592 240.983899 
L 333.036635 233.378864 
L 342.500678 226.209789 
L 351.964722 219.443109 
L 361.428765 213.048264 
L 370.892809 206.997427 
L 380.356852 201.265245 
L 389.820896 195.828612 
L 399.284939 190.666446 
L 408.748982 185.759498 
L 418.213026 181.090172 
L 427.677069 176.642366 
L 437.141113 172.401328 
L 446.605156 168.353527 
L 456.069199 164.486533 
L 465.533243 160.788918 
L 474.997286 157.25016 
L 484.46133 153.86056 
L 493.925373 150.611162 
L 503.389417 147.493695 
L 512.85346 144.500501 
L 522.317503 141.624489 
L 531.781547 138.859082 
L 541.24559 136.198172 
L 550.709634 133.636083 
L 560.173677 131.16753 
L 569.63772 128.787594 
L 579.101764 126.491683 
L 588.565807 124.275511 
L 598.029851 122.135076 
L 607.493894 120.066629 
L 616.957938 118.066664 
" clip-path="url(#p70ff5b20e1)" style="fill: none; stroke: #ff7f0e; stroke-width: 1.5; stroke-linecap: square"/>
   </g>
   <g id="line2d_14">
    <path d="M 115.363636 615.6 
L 124.82768 615.6 
L 134.291723 615.6 
L 143.755767 615.6 
L 153.21981 615.6 
L 162.683853 615.6 
L 172.147897 615.6 
L 181.61194 615.6 
L 191.075984 615.6 
L 200.540027 615.6 
L 210.004071 615.6 
L 219.468114 615.6 
L 228.932157 615.6 
L 238.396201 615.6 
L 247.860244 615.6 
L 257.324288 615.6 
L 266.788331 615.6 
L 276.252374 615.6 
L 285.716418 615.6 
L 295.180461 615.6 
L 304.644505 615.6 
L 314.108548 615.6 
L 323.572592 615.6 
L 333.036635 615.6 
L 342.500678 615.6 
L 351.964722 615.6 
L 361.428765 615.6 
L 370.892809 615.6 
L 380.356852 615.6 
L 389.820896 615.6 
L 399.284939 615.6 
L 408.748982 615.6 
L 418.213026 615.6 
L 427.677069 615.6 
L 437.141113 615.6 
L 446.605156 615.6 
L 456.069199 615.6 
L 465.533243 615.6 
L 474.997286 615.6 
L 484.46133 615.6 
L 493.925373 615.6 
L 503.389417 615.6 
L 512.85346 615.6 
L 522.317503 615.6 
L 531.781547 615.6 
L 541.24559 615.6 
L 550.709634 615.6 
L 560.173677 615.6 
L 569.63772 615.6 
L 579.101764 615.6 
L 588.565807 615.6 
L 598.029851 615.6 
L 607.493894 615.6 
L 616.957938 615.6 
" clip-path="url(#p70ff5b20e1)" style="fill: none; stroke-dasharray: 5.55,2.4; stroke-dashoffset: 0; stroke: #000000; stroke-width: 1.5"/>
   </g>
   <g id="patch_3">
    <path d="M 90 640.8 
L 90 86.4 
" style="fill: none; stroke: #000000; stroke-width: 0.8; stroke-linejoin: miter; stroke-linecap: square"/>
   </g>
   <g id="patch_4">
    <path d="M 648 640.8 
L 648 86.4 
" style="fill: none; stroke: #000000; stroke-width: 0.8; stroke-linejoin: miter; stroke-linecap: square"/>
   </g>
   <g id="patch_5">
    <path d="M 90 640.8 
L 648 640.8 
" style="fill: none; stroke: #000000; stroke-width: 0.8; stroke-linejoin: miter; stroke-linecap: square"/>
   </g>
   <g id="patch_6">
    <path d="M 90 86.4 
L 648 86.4 
" style="fill: none; stroke: #000000; stroke-width: 0.8; stroke-linejoin: miter; stroke-linecap: square"/>
   </g>
   <g id="text_14">
    <!-- FGS1 -->
    <g transform="translate(111.722211 569.952462) scale(0.1 -0.1)">
     <defs>
      <path id="DejaVuSans-46" d="M 628 4666 
L 3309 4666 
L 3309 4134 
L 1259 4134 
L 1259 2759 
L 3109 2759 
L 3109 2228 
L 1259 2228 
L 1259 0 
L 628 0 
L 628 4666 
z
" transform="scale(0.015625)"/>
      <path id="DejaVuSans-47" d="M 3809 666 
L 3809 1919 
L 2778 1919 
L 2778 2438 
L 4434 2438 
L 4434 434 
Q 4069 175 3628 42 
Q 3188 -91 2688 -91 
Q 1594 -91 976 548 
Q 359 1188 359 2328 
Q 359 3472 976 4111 
Q 1594 4750 2688 4750 
Q 3144 4750 3555 4637 
Q 3966 4525 4313 4306 
L 4313 3634 
Q 3963 3931 3569 4081 
Q 3175 4231 2741 4231 
Q 1884 4231 1454 3753 
Q 1025 3275 1025 2328 
Q 1025 1384 1454 906 
Q 1884 428 2741 428 
Q 3075 428 3337 486 
Q 3600 544 3809 666 
z
" transform="scale(0.015625)"/>
      <path id="DejaVuSans-53" d="M 3425 4513 
L 3425 3897 
Q 3066 4069 2747 4153 
Q 2428 4238 2131 4238 
Q 1616 4238 1336 4038 
Q 1056 3838 1056 3469 
Q 1056 3159 1242 3001 
Q 1428 2844 1947 2747 
L 2328 2669 
Q 3034 2534 3370 2195 
Q 3706 1856 3706 1288 
Q 3706 609 3251 259 
Q 2797 -91 1919 -91 
Q 1588 -91 1214 -16 
Q 841 59 441 206 
L 441 856 
Q 825 641 1194 531 
Q 1563 422 1919 422 
Q 2459 422 2753 634 
Q 3047 847 3047 1241 
Q 3047 1584 2836 1778 
Q 2625 1972 2144 2069 
L 1759 2144 
Q 1053 2284 737 2584 
Q 422 2884 422 3419 
Q 422 4038 858 4394 
Q 1294 4750 2059 4750 
Q 2388 4750 2728 4690 
Q 3069 4631 3425 4513 
z
" transform="scale(0.015625)"/>
     </defs>
     <use xlink:href="#DejaVuSans-46"/>
     <use xlink:href="#DejaVuSans-47" transform="translate(57.519531 0)"/>
     <use xlink:href="#DejaVuSans-53" transform="translate(135.009766 0)"/>
     <use xlink:href="#DejaVuSans-31" transform="translate(198.486328 0)"/>
    </g>
   </g>
   <g id="text_15">
    <!-- FGS2 -->
    <g transform="translate(135.38232 517.930189) scale(0.1 -0.1)">
     <use xlink:href="#DejaVuSans-46"/>
     <use xlink:href="#DejaVuSans-47" transform="translate(57.519531 0)"/>
     <use xlink:href="#DejaVuSans-53" transform="translate(135.009766 0)"/>
     <use xlink:href="#DejaVuSans-32" transform="translate(198.486328 0)"/>
    </g>
   </g>
   <g id="text_16">
    <!-- NIRSpec -->
    <g transform="translate(183.461582 385.127281) scale(0.1 -0.1)">
     <defs>
      <path id="DejaVuSans-4e" d="M 628 4666 
L 1478 4666 
L 3547 763 
L 3547 4666 
L 4159 4666 
L 4159 0 
L 3309 0 
L 1241 3903 
L 1241 0 
L 628 0 
L 628 4666 
z
" transform="scale(0.015625)"/>
      <path id="DejaVuSans-49" d="M 628 4666 
L 1259 4666 
L 1259 0 
L 628 0 
L 628 4666 
z
" transform="scale(0.015625)"/>
      <path id="DejaVuSans-52" d="M 2841 2188 
Q 3044 2119 3236 1894 
Q 3428 1669 3622 1275 
L 4263 0 
L 3584 0 
L 2988 1197 
Q 2756 1666 2539 1819 
Q 2322 1972 1947 1972 
L 1259 1972 
L 1259 0 
L 628 0 
L 628 4666 
L 2053 4666 
Q 2853 4666 3247 4331 
Q 3641 3997 3641 3322 
Q 3641 2881 3436 2590 
Q 3231 2300 2841 2188 
z
M 1259 4147 
L 1259 2491 
L 2053 2491 
Q 2509 2491 2742 2702 
Q 2975 2913 2975 3322 
Q 2975 3731 2742 3939 
Q 2509 4147 2053 4147 
L 1259 4147 
z
" transform="scale(0.015625)"/>
     </defs>
     <use xlink:href="#DejaVuSans-4e"/>
     <use xlink:href="#DejaVuSans-49" transform="translate(74.804688 0)"/>
     <use xlink:href="#DejaVuSans-52" transform="translate(104.296875 0)"/>
     <use xlink:href="#DejaVuSans-53" transform="translate(173.779297 0)"/>
     <use xlink:href="#DejaVuSans-70" transform="translate(237.255859 0)"/>
     <use xlink:href="#DejaVuSans-65" transform="translate(300.732422 0)"/>
     <use xlink:href="#DejaVuSans-63" transform="translate(362.255859 0)"/>
    </g>
   </g>
   <g id="text_17">
    <!-- AIRS-CH0-bin1 -->
    <g transform="translate(245.433144 259.208759) scale(0.1 -0.1)">
     <defs>
      <path id="DejaVuSans-41" d="M 2188 4044 
L 1331 1722 
L 3047 1722 
L 2188 4044 
z
M 1831 4666 
L 2547 4666 
L 4325 0 
L 3669 0 
L 3244 1197 
L 1141 1197 
L 716 0 
L 50 0 
L 1831 4666 
z
" transform="scale(0.015625)"/>
      <path id="DejaVuSans-2d" d="M 313 2009 
L 1997 2009 
L 1997 1497 
L 313 1497 
L 313 2009 
z
" transform="scale(0.015625)"/>
      <path id="DejaVuSans-43" d="M 4122 4306 
L 4122 3641 
Q 3803 3938 3442 4084 
Q 3081 4231 2675 4231 
Q 1875 4231 1450 3742 
Q 1025 3253 1025 2328 
Q 1025 1406 1450 917 
Q 1875 428 2675 428 
Q 3081 428 3442 575 
Q 3803 722 4122 1019 
L 4122 359 
Q 3791 134 3420 21 
Q 3050 -91 2638 -91 
Q 1578 -91 968 557 
Q 359 1206 359 2328 
Q 359 3453 968 4101 
Q 1578 4750 2638 4750 
Q 3056 4750 3426 4639 
Q 3797 4528 4122 4306 
z
" transform="scale(0.015625)"/>
      <path id="DejaVuSans-48" d="M 628 4666 
L 1259 4666 
L 1259 2753 
L 3553 2753 
L 3553 4666 
L 4184 4666 
L 4184 0 
L 3553 0 
L 3553 2222 
L 1259 2222 
L 1259 0 
L 628 0 
L 628 4666 
z
" transform="scale(0.015625)"/>
      <path id="DejaVuSans-62" d="M 3116 1747 
Q 3116 2381 2855 2742 
Q 2594 3103 2138 3103 
Q 1681 3103 1420 2742 
Q 1159 2381 1159 1747 
Q 1159 1113 1420 752 
Q 1681 391 2138 391 
Q 2594 391 2855 752 
Q 3116 1113 3116 1747 
z
M 1159 2969 
Q 1341 3281 1617 3432 
Q 1894 3584 2278 3584 
Q 2916 3584 3314 3078 
Q 3713 2572 3713 1747 
Q 3713 922 3314 415 
Q 2916 -91 2278 -91 
Q 1894 -91 1617 61 
Q 1341 213 1159 525 
L 1159 0 
L 581 0 
L 581 4863 
L 1159 4863 
L 1159 2969 
z
" transform="scale(0.015625)"/>
      <path id="DejaVuSans-6e" d="M 3513 2113 
L 3513 0 
L 2938 0 
L 2938 2094 
Q 2938 2591 2744 2837 
Q 2550 3084 2163 3084 
Q 1697 3084 1428 2787 
Q 1159 2491 1159 1978 
L 1159 0 
L 581 0 
L 581 3500 
L 1159 3500 
L 1159 2956 
Q 1366 3272 1645 3428 
Q 1925 3584 2291 3584 
Q 2894 3584 3203 3211 
Q 3513 2838 3513 2113 
z
" transform="scale(0.015625)"/>
     </defs>
     <use xlink:href="#DejaVuSans-41"/>
     <use xlink:href="#DejaVuSans-49" transform="translate(68.408203 0)"/>
     <use xlink:href="#DejaVuSans-52" transform="translate(97.900391 0)"/>
     <use xlink:href="#DejaVuSans-53" transform="translate(167.382812 0)"/>
     <use xlink:href="#DejaVuSans-2d" transform="translate(230.859375 0)"/>
     <use xlink:href="#DejaVuSans-43" transform="translate(266.943359 0)"/>
     <use xlink:href="#DejaVuSans-48" transform="translate(336.767578 0)"/>
     <use xlink:href="#DejaVuSans-30" transform="translate(411.962891 0)"/>
     <use xlink:href="#DejaVuSans-2d" transform="translate(475.585938 0)"/>
     <use xlink:href="#DejaVuSans-62" transform="translate(511.669922 0)"/>
     <use xlink:href="#DejaVuSans-69" transform="translate(575.146484 0)"/>
     <use xlink:href="#DejaVuSans-6e" transform="translate(602.929688 0)"/>
     <use xlink:href="#DejaVuSans-31" transform="translate(666.308594 0)"/>
    </g>
   </g>
   <g id="text_18">
    <!-- AIRS-CH0-bin2 -->
    <g transform="translate(338.18077 209.391366) scale(0.1 -0.1)">
     <use xlink:href="#DejaVuSans-41"/>
     <use xlink:href="#DejaVuSans-49" transform="translate(68.408203 0)"/>
     <use xlink:href="#DejaVuSans-52" transform="translate(97.900391 0)"/>
     <use xlink:href="#DejaVuSans-53" transform="translate(167.382812 0)"/>
     <use xlink:href="#DejaVuSans-2d" transform="translate(230.859375 0)"/>
     <use xlink:href="#DejaVuSans-43" transform="translate(266.943359 0)"/>
     <use xlink:href="#DejaVuSans-48" transform="translate(336.767578 0)"/>
     <use xlink:href="#DejaVuSans-30" transform="translate(411.962891 0)"/>
     <use xlink:href="#DejaVuSans-2d" transform="translate(475.585938 0)"/>
     <use xlink:href="#DejaVuSans-62" transform="translate(511.669922 0)"/>
     <use xlink:href="#DejaVuSans-69" transform="translate(575.146484 0)"/>
     <use xlink:href="#DejaVuSans-6e" transform="translate(602.929688 0)"/>
     <use xlink:href="#DejaVuSans-32" transform="translate(666.308594 0)"/>
    </g>
   </g>
   <g id="text_19">
    <!-- AIRS-CH1 -->
    <g transform="translate(598.855895 129.202259) scale(0.1 -0.1)">
     <use xlink:href="#DejaVuSans-41"/>
     <use xlink:href="#DejaVuSans-49" transform="translate(68.408203 0)"/>
     <use xlink:href="#DejaVuSans-52" transform="translate(97.900391 0)"/>
     <use xlink:href="#DejaVuSans-53" transform="translate(167.382812 0)"/>
     <use xlink:href="#DejaVuSans-2d" transform="translate(230.859375 0)"/>
     <use xlink:href="#DejaVuSans-43" transform="translate(266.943359 0)"/>
     <use xlink:href="#DejaVuSans-48" transform="translate(336.767578 0)"/>
     <use xlink:href="#DejaVuSans-31" transform="translate(411.962891 0)"/>
    </g>
   </g>
   <g id="text_20">
    <!-- Eclipse depth for K2-141 b -->
    <g transform="translate(276.166875 80.4) scale(0.14 -0.14)">
     <defs>
      <path id="DejaVuSans-66" d="M 2375 4863 
L 2375 4384 
L 1825 4384 
Q 1516 4384 1395 4259 
Q 1275 4134 1275 3809 
L 1275 3500 
L 2222 3500 
L 2222 3053 
L 1275 3053 
L 1275 0 
L 697 0 
L 697 3053 
L 147 3053 
L 147 3500 
L 697 3500 
L 697 3744 
Q 697 4328 969 4595 
Q 1241 4863 1831 4863 
L 2375 4863 
z
" transform="scale(0.015625)"/>
      <path id="DejaVuSans-6f" d="M 1959 3097 
Q 1497 3097 1228 2736 
Q 959 2375 959 1747 
Q 959 1119 1226 758 
Q 1494 397 1959 397 
Q 2419 397 2687 759 
Q 2956 1122 2956 1747 
Q 2956 2369 2687 2733 
Q 2419 3097 1959 3097 
z
M 1959 3584 
Q 2709 3584 3137 3096 
Q 3566 2609 3566 1747 
Q 3566 888 3137 398 
Q 2709 -91 1959 -91 
Q 1206 -91 779 398 
Q 353 888 353 1747 
Q 353 2609 779 3096 
Q 1206 3584 1959 3584 
z
" transform="scale(0.015625)"/>
      <path id="DejaVuSans-72" d="M 2631 2963 
Q 2534 3019 2420 3045 
Q 2306 3072 2169 3072 
Q 1681 3072 1420 2755 
Q 1159 2438 1159 1844 
L 1159 0 
L 581 0 
L 581 3500 
L 1159 3500 
L 1159 2956 
Q 1341 3275 1631 3429 
Q 1922 3584 2338 3584 
Q 2397 3584 2469 3576 
Q 2541 3569 2628 3553 
L 2631 2963 
z
" transform="scale(0.015625)"/>
      <path id="DejaVuSans-4b" d="M 628 4666 
L 1259 4666 
L 1259 2694 
L 3353 4666 
L 4166 4666 
L 1850 2491 
L 4331 0 
L 3500 0 
L 1259 2247 
L 1259 0 
L 628 0 
L 628 4666 
z
" transform="scale(0.015625)"/>
     </defs>
     <use xlink:href="#DejaVuSans-45"/>
     <use xlink:href="#DejaVuSans-63" transform="translate(63.183594 0)"/>
     <use xlink:href="#DejaVuSans-6c" transform="translate(118.164062 0)"/>
     <use xlink:href="#DejaVuSans-69" transform="translate(145.947266 0)"/>
     <use xlink:href="#DejaVuSans-70" transform="translate(173.730469 0)"/>
     <use xlink:href="#DejaVuSans-73" transform="translate(237.207031 0)"/>
     <use xlink:href="#DejaVuSans-65" transform="translate(289.306641 0)"/>
     <use xlink:href="#DejaVuSans-20" transform="translate(350.830078 0)"/>
     <use xlink:href="#DejaVuSans-64" transform="translate(382.617188 0)"/>
     <use xlink:href="#DejaVuSans-65" transform="translate(446.09375 0)"/>
     <use xlink:href="#DejaVuSans-70" transform="translate(507.617188 0)"/>
     <use xlink:href="#DejaVuSans-74" transform="translate(571.09375 0)"/>
     <use xlink:href="#DejaVuSans-68" transform="translate(610.302734 0)"/>
     <use xlink:href="#DejaVuSans-20" transform="translate(673.681641 0)"/>
     <use xlink:href="#DejaVuSans-66" transform="translate(705.46875 0)"/>
     <use xlink:href="#DejaVuSans-6f" transform="translate(740.673828 0)"/>
     <use xlink:href="#DejaVuSans-72" transform="translate(801.855469 0)"/>
     <use xlink:href="#DejaVuSans-20" transform="translate(842.96875 0)"/>
     <use xlink:href="#DejaVuSans-4b" transform="translate(874.755859 0)"/>
     <use xlink:href="#DejaVuSans-32" transform="translate(940.332031 0)"/>
     <use xlink:href="#DejaVuSans-2d" transform="translate(1003.955078 0)"/>
     <use xlink:href="#DejaVuSans-31" transform="translate(1040.039062 0)"/>
     <use xlink:href="#DejaVuSans-34" transform="translate(1103.662109 0)"/>
     <use xlink:href="#DejaVuSans-31" transform="translate(1167.285156 0)"/>
     <use xlink:href="#DejaVuSans-20" transform="translate(1230.908203 0)"/>
     <use xlink:href="#DejaVuSans-62" transform="translate(1262.695312 0)"/>
    </g>
   </g>
   <g id="legend_1">
    <g id="patch_7">
     <path d="M 368.085 634.8 
L 639.6 634.8 
Q 642 634.8 642 632.4 
L 642 400.95 
Q 642 398.55 639.6 398.55 
L 368.085 398.55 
Q 365.685 398.55 365.685 400.95 
L 365.685 632.4 
Q 365.685 634.8 368.085 634.8 
z
" style="fill: #ffffff; opacity: 0.8; stroke: #cccccc; stroke-linejoin: miter"/>
    </g>
    <g id="patch_8">
     <path d="M 370.485 412.468125 
L 394.485 412.468125 
L 394.485 404.068125 
L 370.485 404.068125 
z
" style="fill: #1f77b4; fill-opacity: 0.2"/>
    </g>
    <g id="text_21">
     <!-- asymmetric error -->
     <g transform="translate(404.085 412.468125) scale(0.12 -0.12)">
      <defs>
       <path id="DejaVuSans-61" d="M 2194 1759 
Q 1497 1759 1228 1600 
Q 959 1441 959 1056 
Q 959 750 1161 570 
Q 1363 391 1709 391 
Q 2188 391 2477 730 
Q 2766 1069 2766 1631 
L 2766 1759 
L 2194 1759 
z
M 3341 1997 
L 3341 0 
L 2766 0 
L 2766 531 
Q 2569 213 2275 61 
Q 1981 -91 1556 -91 
Q 1019 -91 701 211 
Q 384 513 384 1019 
Q 384 1609 779 1909 
Q 1175 2209 1959 2209 
L 2766 2209 
L 2766 2266 
Q 2766 2663 2505 2880 
Q 2244 3097 1772 3097 
Q 1472 3097 1187 3025 
Q 903 2953 641 2809 
L 641 3341 
Q 956 3463 1253 3523 
Q 1550 3584 1831 3584 
Q 2591 3584 2966 3190 
Q 3341 2797 3341 1997 
z
" transform="scale(0.015625)"/>
       <path id="DejaVuSans-79" d="M 2059 -325 
Q 1816 -950 1584 -1140 
Q 1353 -1331 966 -1331 
L 506 -1331 
L 506 -850 
L 844 -850 
Q 1081 -850 1212 -737 
Q 1344 -625 1503 -206 
L 1606 56 
L 191 3500 
L 800 3500 
L 1894 763 
L 2988 3500 
L 3597 3500 
L 2059 -325 
z
" transform="scale(0.015625)"/>
      </defs>
      <use xlink:href="#DejaVuSans-61"/>
      <use xlink:href="#DejaVuSans-73" transform="translate(61.279297 0)"/>
      <use xlink:href="#DejaVuSans-79" transform="translate(113.378906 0)"/>
      <use xlink:href="#DejaVuSans-6d" transform="translate(172.558594 0)"/>
      <use xlink:href="#DejaVuSans-6d" transform="translate(269.970703 0)"/>
      <use xlink:href="#DejaVuSans-65" transform="translate(367.382812 0)"/>
      <use xlink:href="#DejaVuSans-74" transform="translate(428.90625 0)"/>
      <use xlink:href="#DejaVuSans-72" transform="translate(468.115234 0)"/>
      <use xlink:href="#DejaVuSans-69" transform="translate(509.228516 0)"/>
      <use xlink:href="#DejaVuSans-63" transform="translate(537.011719 0)"/>
      <use xlink:href="#DejaVuSans-20" transform="translate(591.992188 0)"/>
      <use xlink:href="#DejaVuSans-65" transform="translate(623.779297 0)"/>
      <use xlink:href="#DejaVuSans-72" transform="translate(685.302734 0)"/>
      <use xlink:href="#DejaVuSans-72" transform="translate(724.666016 0)"/>
      <use xlink:href="#DejaVuSans-6f" transform="translate(763.529297 0)"/>
      <use xlink:href="#DejaVuSans-72" transform="translate(824.710938 0)"/>
     </g>
    </g>
    <g id="line2d_15">
     <path d="M 370.485 425.881875 
L 382.485 425.881875 
L 394.485 425.881875 
" style="fill: none; stroke: #ff7f0e; stroke-width: 1.5; stroke-linecap: square"/>
    </g>
    <g id="text_22">
     <!-- B(T = 2614.4 K) -->
     <g transform="translate(404.085 430.081875) scale(0.12 -0.12)">
      <defs>
       <path id="DejaVuSans-42" d="M 1259 2228 
L 1259 519 
L 2272 519 
Q 2781 519 3026 730 
Q 3272 941 3272 1375 
Q 3272 1813 3026 2020 
Q 2781 2228 2272 2228 
L 1259 2228 
z
M 1259 4147 
L 1259 2741 
L 2194 2741 
Q 2656 2741 2882 2914 
Q 3109 3088 3109 3444 
Q 3109 3797 2882 3972 
Q 2656 4147 2194 4147 
L 1259 4147 
z
M 628 4666 
L 2241 4666 
Q 2963 4666 3353 4366 
Q 3744 4066 3744 3513 
Q 3744 3084 3544 2831 
Q 3344 2578 2956 2516 
Q 3422 2416 3680 2098 
Q 3938 1781 3938 1306 
Q 3938 681 3513 340 
Q 3088 0 2303 0 
L 628 0 
L 628 4666 
z
" transform="scale(0.015625)"/>
       <path id="DejaVuSans-54" d="M -19 4666 
L 3928 4666 
L 3928 4134 
L 2272 4134 
L 2272 0 
L 1638 0 
L 1638 4134 
L -19 4134 
L -19 4666 
z
" transform="scale(0.015625)"/>
       <path id="DejaVuSans-3d" d="M 678 2906 
L 4684 2906 
L 4684 2381 
L 678 2381 
L 678 2906 
z
M 678 1631 
L 4684 1631 
L 4684 1100 
L 678 1100 
L 678 1631 
z
" transform="scale(0.015625)"/>
       <path id="DejaVuSans-2e" d="M 684 794 
L 1344 794 
L 1344 0 
L 684 0 
L 684 794 
z
" transform="scale(0.015625)"/>
      </defs>
      <use xlink:href="#DejaVuSans-42"/>
      <use xlink:href="#DejaVuSans-28" transform="translate(68.603516 0)"/>
      <use xlink:href="#DejaVuSans-54" transform="translate(107.617188 0)"/>
      <use xlink:href="#DejaVuSans-20" transform="translate(168.701172 0)"/>
      <use xlink:href="#DejaVuSans-3d" transform="translate(200.488281 0)"/>
      <use xlink:href="#DejaVuSans-20" transform="translate(284.277344 0)"/>
      <use xlink:href="#DejaVuSans-32" transform="translate(316.064453 0)"/>
      <use xlink:href="#DejaVuSans-36" transform="translate(379.6875 0)"/>
      <use xlink:href="#DejaVuSans-31" transform="translate(443.310547 0)"/>
      <use xlink:href="#DejaVuSans-34" transform="translate(506.933594 0)"/>
      <use xlink:href="#DejaVuSans-2e" transform="translate(570.556641 0)"/>
      <use xlink:href="#DejaVuSans-34" transform="translate(602.34375 0)"/>
      <use xlink:href="#DejaVuSans-20" transform="translate(665.966797 0)"/>
      <use xlink:href="#DejaVuSans-4b" transform="translate(697.753906 0)"/>
      <use xlink:href="#DejaVuSans-29" transform="translate(763.330078 0)"/>
     </g>
    </g>
    <g id="line2d_16">
     <path d="M 370.485 443.495625 
L 382.485 443.495625 
L 394.485 443.495625 
" style="fill: none; stroke-dasharray: 5.55,2.4; stroke-dashoffset: 0; stroke: #000000; stroke-width: 1.5"/>
    </g>
    <g id="text_23">
     <!-- orlando_gold_granite_slab -->
     <g transform="translate(404.085 447.695625) scale(0.12 -0.12)">
      <defs>
       <path id="DejaVuSans-5f" d="M 3263 -1063 
L 3263 -1509 
L -63 -1509 
L -63 -1063 
L 3263 -1063 
z
" transform="scale(0.015625)"/>
       <path id="DejaVuSans-67" d="M 2906 1791 
Q 2906 2416 2648 2759 
Q 2391 3103 1925 3103 
Q 1463 3103 1205 2759 
Q 947 2416 947 1791 
Q 947 1169 1205 825 
Q 1463 481 1925 481 
Q 2391 481 2648 825 
Q 2906 1169 2906 1791 
z
M 3481 434 
Q 3481 -459 3084 -895 
Q 2688 -1331 1869 -1331 
Q 1566 -1331 1297 -1286 
Q 1028 -1241 775 -1147 
L 775 -588 
Q 1028 -725 1275 -790 
Q 1522 -856 1778 -856 
Q 2344 -856 2625 -561 
Q 2906 -266 2906 331 
L 2906 616 
Q 2728 306 2450 153 
Q 2172 0 1784 0 
Q 1141 0 747 490 
Q 353 981 353 1791 
Q 353 2603 747 3093 
Q 1141 3584 1784 3584 
Q 2172 3584 2450 3431 
Q 2728 3278 2906 2969 
L 2906 3500 
L 3481 3500 
L 3481 434 
z
" transform="scale(0.015625)"/>
      </defs>
      <use xlink:href="#DejaVuSans-6f"/>
      <use xlink:href="#DejaVuSans-72" transform="translate(61.181641 0)"/>
      <use xlink:href="#DejaVuSans-6c" transform="translate(102.294922 0)"/>
      <use xlink:href="#DejaVuSans-61" transform="translate(130.078125 0)"/>
      <use xlink:href="#DejaVuSans-6e" transform="translate(191.357422 0)"/>
      <use xlink:href="#DejaVuSans-64" transform="translate(254.736328 0)"/>
      <use xlink:href="#DejaVuSans-6f" transform="translate(318.212891 0)"/>
      <use xlink:href="#DejaVuSans-5f" transform="translate(379.394531 0)"/>
      <use xlink:href="#DejaVuSans-67" transform="translate(429.394531 0)"/>
      <use xlink:href="#DejaVuSans-6f" transform="translate(492.871094 0)"/>
      <use xlink:href="#DejaVuSans-6c" transform="translate(554.052734 0)"/>
      <use xlink:href="#DejaVuSans-64" transform="translate(581.835938 0)"/>
      <use xlink:href="#DejaVuSans-5f" transform="translate(645.3125 0)"/>
      <use xlink:href="#DejaVuSans-67" transform="translate(695.3125 0)"/>
      <use xlink:href="#DejaVuSans-72" transform="translate(758.789062 0)"/>
      <use xlink:href="#DejaVuSans-61" transform="translate(799.902344 0)"/>
      <use xlink:href="#DejaVuSans-6e" transform="translate(861.181641 0)"/>
      <use xlink:href="#DejaVuSans-69" transform="translate(924.560547 0)"/>
      <use xlink:href="#DejaVuSans-74" transform="translate(952.34375 0)"/>
      <use xlink:href="#DejaVuSans-65" transform="translate(991.552734 0)"/>
      <use xlink:href="#DejaVuSans-5f" transform="translate(1053.076172 0)"/>
      <use xlink:href="#DejaVuSans-73" transform="translate(1103.076172 0)"/>
      <use xlink:href="#DejaVuSans-6c" transform="translate(1155.175781 0)"/>
      <use xlink:href="#DejaVuSans-61" transform="translate(1182.958984 0)"/>
      <use xlink:href="#DejaVuSans-62" transform="translate(1244.238281 0)"/>
     </g>
    </g>
    <g id="line2d_17">
     <path d="M 370.485 461.443125 
L 382.485 461.443125 
L 394.485 461.443125 
" style="fill: none; stroke-dasharray: 5.55,2.4; stroke-dashoffset: 0; stroke: #00ff00; stroke-width: 1.5"/>
    </g>
    <g id="text_24">
     <!-- basaltic_andesite_slab -->
     <g transform="translate(404.085 465.643125) scale(0.12 -0.12)">
      <use xlink:href="#DejaVuSans-62"/>
      <use xlink:href="#DejaVuSans-61" transform="translate(63.476562 0)"/>
      <use xlink:href="#DejaVuSans-73" transform="translate(124.755859 0)"/>
      <use xlink:href="#DejaVuSans-61" transform="translate(176.855469 0)"/>
      <use xlink:href="#DejaVuSans-6c" transform="translate(238.134766 0)"/>
      <use xlink:href="#DejaVuSans-74" transform="translate(265.917969 0)"/>
      <use xlink:href="#DejaVuSans-69" transform="translate(305.126953 0)"/>
      <use xlink:href="#DejaVuSans-63" transform="translate(332.910156 0)"/>
      <use xlink:href="#DejaVuSans-5f" transform="translate(387.890625 0)"/>
      <use xlink:href="#DejaVuSans-61" transform="translate(437.890625 0)"/>
      <use xlink:href="#DejaVuSans-6e" transform="translate(499.169922 0)"/>
      <use xlink:href="#DejaVuSans-64" transform="translate(562.548828 0)"/>
      <use xlink:href="#DejaVuSans-65" transform="translate(626.025391 0)"/>
      <use xlink:href="#DejaVuSans-73" transform="translate(687.548828 0)"/>
      <use xlink:href="#DejaVuSans-69" transform="translate(739.648438 0)"/>
      <use xlink:href="#DejaVuSans-74" transform="translate(767.431641 0)"/>
      <use xlink:href="#DejaVuSans-65" transform="translate(806.640625 0)"/>
      <use xlink:href="#DejaVuSans-5f" transform="translate(868.164062 0)"/>
      <use xlink:href="#DejaVuSans-73" transform="translate(918.164062 0)"/>
      <use xlink:href="#DejaVuSans-6c" transform="translate(970.263672 0)"/>
      <use xlink:href="#DejaVuSans-61" transform="translate(998.046875 0)"/>
      <use xlink:href="#DejaVuSans-62" transform="translate(1059.326172 0)"/>
     </g>
    </g>
    <g id="line2d_18">
     <path d="M 370.485 479.390625 
L 382.485 479.390625 
L 394.485 479.390625 
" style="fill: none; stroke-dasharray: 5.55,2.4; stroke-dashoffset: 0; stroke: #ffff00; stroke-width: 1.5"/>
    </g>
    <g id="text_25">
     <!-- dalmatian_granite_slab -->
     <g transform="translate(404.085 483.590625) scale(0.12 -0.12)">
      <use xlink:href="#DejaVuSans-64"/>
      <use xlink:href="#DejaVuSans-61" transform="translate(63.476562 0)"/>
      <use xlink:href="#DejaVuSans-6c" transform="translate(124.755859 0)"/>
      <use xlink:href="#DejaVuSans-6d" transform="translate(152.539062 0)"/>
      <use xlink:href="#DejaVuSans-61" transform="translate(249.951172 0)"/>
      <use xlink:href="#DejaVuSans-74" transform="translate(311.230469 0)"/>
      <use xlink:href="#DejaVuSans-69" transform="translate(350.439453 0)"/>
      <use xlink:href="#DejaVuSans-61" transform="translate(378.222656 0)"/>
      <use xlink:href="#DejaVuSans-6e" transform="translate(439.501953 0)"/>
      <use xlink:href="#DejaVuSans-5f" transform="translate(502.880859 0)"/>
      <use xlink:href="#DejaVuSans-67" transform="translate(552.880859 0)"/>
      <use xlink:href="#DejaVuSans-72" transform="translate(616.357422 0)"/>
      <use xlink:href="#DejaVuSans-61" transform="translate(657.470703 0)"/>
      <use xlink:href="#DejaVuSans-6e" transform="translate(718.75 0)"/>
      <use xlink:href="#DejaVuSans-69" transform="translate(782.128906 0)"/>
      <use xlink:href="#DejaVuSans-74" transform="translate(809.912109 0)"/>
      <use xlink:href="#DejaVuSans-65" transform="translate(849.121094 0)"/>
      <use xlink:href="#DejaVuSans-5f" transform="translate(910.644531 0)"/>
      <use xlink:href="#DejaVuSans-73" transform="translate(960.644531 0)"/>
      <use xlink:href="#DejaVuSans-6c" transform="translate(1012.744141 0)"/>
      <use xlink:href="#DejaVuSans-61" transform="translate(1040.527344 0)"/>
      <use xlink:href="#DejaVuSans-62" transform="translate(1101.806641 0)"/>
     </g>
    </g>
    <g id="line2d_19">
     <path d="M 370.485 497.338125 
L 382.485 497.338125 
L 394.485 497.338125 
" style="fill: none; stroke-dasharray: 5.55,2.4; stroke-dashoffset: 0; stroke: #800000; stroke-width: 1.5"/>
    </g>
    <g id="text_26">
     <!-- STM_101_andesite_slab -->
     <g transform="translate(404.085 501.538125) scale(0.12 -0.12)">
      <defs>
       <path id="DejaVuSans-4d" d="M 628 4666 
L 1569 4666 
L 2759 1491 
L 3956 4666 
L 4897 4666 
L 4897 0 
L 4281 0 
L 4281 4097 
L 3078 897 
L 2444 897 
L 1241 4097 
L 1241 0 
L 628 0 
L 628 4666 
z
" transform="scale(0.015625)"/>
      </defs>
      <use xlink:href="#DejaVuSans-53"/>
      <use xlink:href="#DejaVuSans-54" transform="translate(63.476562 0)"/>
      <use xlink:href="#DejaVuSans-4d" transform="translate(124.560547 0)"/>
      <use xlink:href="#DejaVuSans-5f" transform="translate(210.839844 0)"/>
      <use xlink:href="#DejaVuSans-31" transform="translate(260.839844 0)"/>
      <use xlink:href="#DejaVuSans-30" transform="translate(324.462891 0)"/>
      <use xlink:href="#DejaVuSans-31" transform="translate(388.085938 0)"/>
      <use xlink:href="#DejaVuSans-5f" transform="translate(451.708984 0)"/>
      <use xlink:href="#DejaVuSans-61" transform="translate(501.708984 0)"/>
      <use xlink:href="#DejaVuSans-6e" transform="translate(562.988281 0)"/>
      <use xlink:href="#DejaVuSans-64" transform="translate(626.367188 0)"/>
      <use xlink:href="#DejaVuSans-65" transform="translate(689.84375 0)"/>
      <use xlink:href="#DejaVuSans-73" transform="translate(751.367188 0)"/>
      <use xlink:href="#DejaVuSans-69" transform="translate(803.466797 0)"/>
      <use xlink:href="#DejaVuSans-74" transform="translate(831.25 0)"/>
      <use xlink:href="#DejaVuSans-65" transform="translate(870.458984 0)"/>
      <use xlink:href="#DejaVuSans-5f" transform="translate(931.982422 0)"/>
      <use xlink:href="#DejaVuSans-73" transform="translate(981.982422 0)"/>
      <use xlink:href="#DejaVuSans-6c" transform="translate(1034.082031 0)"/>
      <use xlink:href="#DejaVuSans-61" transform="translate(1061.865234 0)"/>
      <use xlink:href="#DejaVuSans-62" transform="translate(1123.144531 0)"/>
     </g>
    </g>
    <g id="line2d_20">
     <path d="M 370.485 515.285625 
L 382.485 515.285625 
L 394.485 515.285625 
" style="fill: none; stroke-dasharray: 5.55,2.4; stroke-dashoffset: 0; stroke: #80ff00; stroke-width: 1.5"/>
    </g>
    <g id="text_27">
     <!-- new_basalt_slab -->
     <g transform="translate(404.085 519.485625) scale(0.12 -0.12)">
      <defs>
       <path id="DejaVuSans-77" d="M 269 3500 
L 844 3500 
L 1563 769 
L 2278 3500 
L 2956 3500 
L 3675 769 
L 4391 3500 
L 4966 3500 
L 4050 0 
L 3372 0 
L 2619 2869 
L 1863 0 
L 1184 0 
L 269 3500 
z
" transform="scale(0.015625)"/>
      </defs>
      <use xlink:href="#DejaVuSans-6e"/>
      <use xlink:href="#DejaVuSans-65" transform="translate(63.378906 0)"/>
      <use xlink:href="#DejaVuSans-77" transform="translate(124.902344 0)"/>
      <use xlink:href="#DejaVuSans-5f" transform="translate(206.689453 0)"/>
      <use xlink:href="#DejaVuSans-62" transform="translate(256.689453 0)"/>
      <use xlink:href="#DejaVuSans-61" transform="translate(320.166016 0)"/>
      <use xlink:href="#DejaVuSans-73" transform="translate(381.445312 0)"/>
      <use xlink:href="#DejaVuSans-61" transform="translate(433.544922 0)"/>
      <use xlink:href="#DejaVuSans-6c" transform="translate(494.824219 0)"/>
      <use xlink:href="#DejaVuSans-74" transform="translate(522.607422 0)"/>
      <use xlink:href="#DejaVuSans-5f" transform="translate(561.816406 0)"/>
      <use xlink:href="#DejaVuSans-73" transform="translate(611.816406 0)"/>
      <use xlink:href="#DejaVuSans-6c" transform="translate(663.916016 0)"/>
      <use xlink:href="#DejaVuSans-61" transform="translate(691.699219 0)"/>
      <use xlink:href="#DejaVuSans-62" transform="translate(752.978516 0)"/>
     </g>
    </g>
    <g id="line2d_21">
     <path d="M 370.485 533.233125 
L 382.485 533.233125 
L 394.485 533.233125 
" style="fill: none; stroke-dasharray: 5.55,2.4; stroke-dashoffset: 0; stroke: #0000ff; stroke-width: 1.5"/>
    </g>
    <g id="text_28">
     <!-- EG_19_70_olivine_pyroxenite_slab -->
     <g transform="translate(404.085 537.433125) scale(0.12 -0.12)">
      <defs>
       <path id="DejaVuSans-39" d="M 703 97 
L 703 672 
Q 941 559 1184 500 
Q 1428 441 1663 441 
Q 2288 441 2617 861 
Q 2947 1281 2994 2138 
Q 2813 1869 2534 1725 
Q 2256 1581 1919 1581 
Q 1219 1581 811 2004 
Q 403 2428 403 3163 
Q 403 3881 828 4315 
Q 1253 4750 1959 4750 
Q 2769 4750 3195 4129 
Q 3622 3509 3622 2328 
Q 3622 1225 3098 567 
Q 2575 -91 1691 -91 
Q 1453 -91 1209 -44 
Q 966 3 703 97 
z
M 1959 2075 
Q 2384 2075 2632 2365 
Q 2881 2656 2881 3163 
Q 2881 3666 2632 3958 
Q 2384 4250 1959 4250 
Q 1534 4250 1286 3958 
Q 1038 3666 1038 3163 
Q 1038 2656 1286 2365 
Q 1534 2075 1959 2075 
z
" transform="scale(0.015625)"/>
       <path id="DejaVuSans-37" d="M 525 4666 
L 3525 4666 
L 3525 4397 
L 1831 0 
L 1172 0 
L 2766 4134 
L 525 4134 
L 525 4666 
z
" transform="scale(0.015625)"/>
       <path id="DejaVuSans-76" d="M 191 3500 
L 800 3500 
L 1894 563 
L 2988 3500 
L 3597 3500 
L 2284 0 
L 1503 0 
L 191 3500 
z
" transform="scale(0.015625)"/>
       <path id="DejaVuSans-78" d="M 3513 3500 
L 2247 1797 
L 3578 0 
L 2900 0 
L 1881 1375 
L 863 0 
L 184 0 
L 1544 1831 
L 300 3500 
L 978 3500 
L 1906 2253 
L 2834 3500 
L 3513 3500 
z
" transform="scale(0.015625)"/>
      </defs>
      <use xlink:href="#DejaVuSans-45"/>
      <use xlink:href="#DejaVuSans-47" transform="translate(63.183594 0)"/>
      <use xlink:href="#DejaVuSans-5f" transform="translate(140.673828 0)"/>
      <use xlink:href="#DejaVuSans-31" transform="translate(190.673828 0)"/>
      <use xlink:href="#DejaVuSans-39" transform="translate(254.296875 0)"/>
      <use xlink:href="#DejaVuSans-5f" transform="translate(317.919922 0)"/>
      <use xlink:href="#DejaVuSans-37" transform="translate(367.919922 0)"/>
      <use xlink:href="#DejaVuSans-30" transform="translate(431.542969 0)"/>
      <use xlink:href="#DejaVuSans-5f" transform="translate(495.166016 0)"/>
      <use xlink:href="#DejaVuSans-6f" transform="translate(545.166016 0)"/>
      <use xlink:href="#DejaVuSans-6c" transform="translate(606.347656 0)"/>
      <use xlink:href="#DejaVuSans-69" transform="translate(634.130859 0)"/>
      <use xlink:href="#DejaVuSans-76" transform="translate(661.914062 0)"/>
      <use xlink:href="#DejaVuSans-69" transform="translate(721.09375 0)"/>
      <use xlink:href="#DejaVuSans-6e" transform="translate(748.876953 0)"/>
      <use xlink:href="#DejaVuSans-65" transform="translate(812.255859 0)"/>
      <use xlink:href="#DejaVuSans-5f" transform="translate(873.779297 0)"/>
      <use xlink:href="#DejaVuSans-70" transform="translate(923.779297 0)"/>
      <use xlink:href="#DejaVuSans-79" transform="translate(987.255859 0)"/>
      <use xlink:href="#DejaVuSans-72" transform="translate(1046.435547 0)"/>
      <use xlink:href="#DejaVuSans-6f" transform="translate(1085.298828 0)"/>
      <use xlink:href="#DejaVuSans-78" transform="translate(1143.355469 0)"/>
      <use xlink:href="#DejaVuSans-65" transform="translate(1199.410156 0)"/>
      <use xlink:href="#DejaVuSans-6e" transform="translate(1260.933594 0)"/>
      <use xlink:href="#DejaVuSans-69" transform="translate(1324.3125 0)"/>
      <use xlink:href="#DejaVuSans-74" transform="translate(1352.095703 0)"/>
      <use xlink:href="#DejaVuSans-65" transform="translate(1391.304688 0)"/>
      <use xlink:href="#DejaVuSans-5f" transform="translate(1452.828125 0)"/>
      <use xlink:href="#DejaVuSans-73" transform="translate(1502.828125 0)"/>
      <use xlink:href="#DejaVuSans-6c" transform="translate(1554.927734 0)"/>
      <use xlink:href="#DejaVuSans-61" transform="translate(1582.710938 0)"/>
      <use xlink:href="#DejaVuSans-62" transform="translate(1643.990234 0)"/>
     </g>
    </g>
    <g id="line2d_22">
     <path d="M 370.485 551.180625 
L 382.485 551.180625 
L 394.485 551.180625 
" style="fill: none; stroke-dasharray: 5.55,2.4; stroke-dashoffset: 0; stroke: #00ffff; stroke-width: 1.5"/>
    </g>
    <g id="text_29">
     <!-- EG_19_63_olivine_clinopyroxenite_slab -->
     <g transform="translate(404.085 555.380625) scale(0.12 -0.12)">
      <use xlink:href="#DejaVuSans-45"/>
      <use xlink:href="#DejaVuSans-47" transform="translate(63.183594 0)"/>
      <use xlink:href="#DejaVuSans-5f" transform="translate(140.673828 0)"/>
      <use xlink:href="#DejaVuSans-31" transform="translate(190.673828 0)"/>
      <use xlink:href="#DejaVuSans-39" transform="translate(254.296875 0)"/>
      <use xlink:href="#DejaVuSans-5f" transform="translate(317.919922 0)"/>
      <use xlink:href="#DejaVuSans-36" transform="translate(367.919922 0)"/>
      <use xlink:href="#DejaVuSans-33" transform="translate(431.542969 0)"/>
      <use xlink:href="#DejaVuSans-5f" transform="translate(495.166016 0)"/>
      <use xlink:href="#DejaVuSans-6f" transform="translate(545.166016 0)"/>
      <use xlink:href="#DejaVuSans-6c" transform="translate(606.347656 0)"/>
      <use xlink:href="#DejaVuSans-69" transform="translate(634.130859 0)"/>
      <use xlink:href="#DejaVuSans-76" transform="translate(661.914062 0)"/>
      <use xlink:href="#DejaVuSans-69" transform="translate(721.09375 0)"/>
      <use xlink:href="#DejaVuSans-6e" transform="translate(748.876953 0)"/>
      <use xlink:href="#DejaVuSans-65" transform="translate(812.255859 0)"/>
      <use xlink:href="#DejaVuSans-5f" transform="translate(873.779297 0)"/>
      <use xlink:href="#DejaVuSans-63" transform="translate(923.779297 0)"/>
      <use xlink:href="#DejaVuSans-6c" transform="translate(978.759766 0)"/>
      <use xlink:href="#DejaVuSans-69" transform="translate(1006.542969 0)"/>
      <use xlink:href="#DejaVuSans-6e" transform="translate(1034.326172 0)"/>
      <use xlink:href="#DejaVuSans-6f" transform="translate(1097.705078 0)"/>
      <use xlink:href="#DejaVuSans-70" transform="translate(1158.886719 0)"/>
      <use xlink:href="#DejaVuSans-79" transform="translate(1222.363281 0)"/>
      <use xlink:href="#DejaVuSans-72" transform="translate(1281.542969 0)"/>
      <use xlink:href="#DejaVuSans-6f" transform="translate(1320.40625 0)"/>
      <use xlink:href="#DejaVuSans-78" transform="translate(1378.462891 0)"/>
      <use xlink:href="#DejaVuSans-65" transform="translate(1434.517578 0)"/>
      <use xlink:href="#DejaVuSans-6e" transform="translate(1496.041016 0)"/>
      <use xlink:href="#DejaVuSans-69" transform="translate(1559.419922 0)"/>
      <use xlink:href="#DejaVuSans-74" transform="translate(1587.203125 0)"/>
      <use xlink:href="#DejaVuSans-65" transform="translate(1626.412109 0)"/>
      <use xlink:href="#DejaVuSans-5f" transform="translate(1687.935547 0)"/>
      <use xlink:href="#DejaVuSans-73" transform="translate(1737.935547 0)"/>
      <use xlink:href="#DejaVuSans-6c" transform="translate(1790.035156 0)"/>
      <use xlink:href="#DejaVuSans-61" transform="translate(1817.818359 0)"/>
      <use xlink:href="#DejaVuSans-62" transform="translate(1879.097656 0)"/>
     </g>
    </g>
    <g id="line2d_23">
     <path d="M 370.485 569.128125 
L 382.485 569.128125 
L 394.485 569.128125 
" style="fill: none; stroke-dasharray: 5.55,2.4; stroke-dashoffset: 0; stroke: #ff00ff; stroke-width: 1.5"/>
    </g>
    <g id="text_30">
     <!-- EG_19_68_olivine_gabbronorite_slab -->
     <g transform="translate(404.085 573.328125) scale(0.12 -0.12)">
      <defs>
       <path id="DejaVuSans-38" d="M 2034 2216 
Q 1584 2216 1326 1975 
Q 1069 1734 1069 1313 
Q 1069 891 1326 650 
Q 1584 409 2034 409 
Q 2484 409 2743 651 
Q 3003 894 3003 1313 
Q 3003 1734 2745 1975 
Q 2488 2216 2034 2216 
z
M 1403 2484 
Q 997 2584 770 2862 
Q 544 3141 544 3541 
Q 544 4100 942 4425 
Q 1341 4750 2034 4750 
Q 2731 4750 3128 4425 
Q 3525 4100 3525 3541 
Q 3525 3141 3298 2862 
Q 3072 2584 2669 2484 
Q 3125 2378 3379 2068 
Q 3634 1759 3634 1313 
Q 3634 634 3220 271 
Q 2806 -91 2034 -91 
Q 1263 -91 848 271 
Q 434 634 434 1313 
Q 434 1759 690 2068 
Q 947 2378 1403 2484 
z
M 1172 3481 
Q 1172 3119 1398 2916 
Q 1625 2713 2034 2713 
Q 2441 2713 2670 2916 
Q 2900 3119 2900 3481 
Q 2900 3844 2670 4047 
Q 2441 4250 2034 4250 
Q 1625 4250 1398 4047 
Q 1172 3844 1172 3481 
z
" transform="scale(0.015625)"/>
      </defs>
      <use xlink:href="#DejaVuSans-45"/>
      <use xlink:href="#DejaVuSans-47" transform="translate(63.183594 0)"/>
      <use xlink:href="#DejaVuSans-5f" transform="translate(140.673828 0)"/>
      <use xlink:href="#DejaVuSans-31" transform="translate(190.673828 0)"/>
      <use xlink:href="#DejaVuSans-39" transform="translate(254.296875 0)"/>
      <use xlink:href="#DejaVuSans-5f" transform="translate(317.919922 0)"/>
      <use xlink:href="#DejaVuSans-36" transform="translate(367.919922 0)"/>
      <use xlink:href="#DejaVuSans-38" transform="translate(431.542969 0)"/>
      <use xlink:href="#DejaVuSans-5f" transform="translate(495.166016 0)"/>
      <use xlink:href="#DejaVuSans-6f" transform="translate(545.166016 0)"/>
      <use xlink:href="#DejaVuSans-6c" transform="translate(606.347656 0)"/>
      <use xlink:href="#DejaVuSans-69" transform="translate(634.130859 0)"/>
      <use xlink:href="#DejaVuSans-76" transform="translate(661.914062 0)"/>
      <use xlink:href="#DejaVuSans-69" transform="translate(721.09375 0)"/>
      <use xlink:href="#DejaVuSans-6e" transform="translate(748.876953 0)"/>
      <use xlink:href="#DejaVuSans-65" transform="translate(812.255859 0)"/>
      <use xlink:href="#DejaVuSans-5f" transform="translate(873.779297 0)"/>
      <use xlink:href="#DejaVuSans-67" transform="translate(923.779297 0)"/>
      <use xlink:href="#DejaVuSans-61" transform="translate(987.255859 0)"/>
      <use xlink:href="#DejaVuSans-62" transform="translate(1048.535156 0)"/>
      <use xlink:href="#DejaVuSans-62" transform="translate(1112.011719 0)"/>
      <use xlink:href="#DejaVuSans-72" transform="translate(1175.488281 0)"/>
      <use xlink:href="#DejaVuSans-6f" transform="translate(1214.351562 0)"/>
      <use xlink:href="#DejaVuSans-6e" transform="translate(1275.533203 0)"/>
      <use xlink:href="#DejaVuSans-6f" transform="translate(1338.912109 0)"/>
      <use xlink:href="#DejaVuSans-72" transform="translate(1400.09375 0)"/>
      <use xlink:href="#DejaVuSans-69" transform="translate(1441.207031 0)"/>
      <use xlink:href="#DejaVuSans-74" transform="translate(1468.990234 0)"/>
      <use xlink:href="#DejaVuSans-65" transform="translate(1508.199219 0)"/>
      <use xlink:href="#DejaVuSans-5f" transform="translate(1569.722656 0)"/>
      <use xlink:href="#DejaVuSans-73" transform="translate(1619.722656 0)"/>
      <use xlink:href="#DejaVuSans-6c" transform="translate(1671.822266 0)"/>
      <use xlink:href="#DejaVuSans-61" transform="translate(1699.605469 0)"/>
      <use xlink:href="#DejaVuSans-62" transform="translate(1760.884766 0)"/>
     </g>
    </g>
    <g id="line2d_24">
     <path d="M 370.485 587.075625 
L 382.485 587.075625 
L 394.485 587.075625 
" style="fill: none; stroke-dasharray: 5.55,2.4; stroke-dashoffset: 0; stroke: #ff00b2; stroke-width: 1.5"/>
    </g>
    <g id="text_31">
     <!-- hematite_crushed -->
     <g transform="translate(404.085 591.275625) scale(0.12 -0.12)">
      <defs>
       <path id="DejaVuSans-75" d="M 544 1381 
L 544 3500 
L 1119 3500 
L 1119 1403 
Q 1119 906 1312 657 
Q 1506 409 1894 409 
Q 2359 409 2629 706 
Q 2900 1003 2900 1516 
L 2900 3500 
L 3475 3500 
L 3475 0 
L 2900 0 
L 2900 538 
Q 2691 219 2414 64 
Q 2138 -91 1772 -91 
Q 1169 -91 856 284 
Q 544 659 544 1381 
z
M 1991 3584 
L 1991 3584 
z
" transform="scale(0.015625)"/>
      </defs>
      <use xlink:href="#DejaVuSans-68"/>
      <use xlink:href="#DejaVuSans-65" transform="translate(63.378906 0)"/>
      <use xlink:href="#DejaVuSans-6d" transform="translate(124.902344 0)"/>
      <use xlink:href="#DejaVuSans-61" transform="translate(222.314453 0)"/>
      <use xlink:href="#DejaVuSans-74" transform="translate(283.59375 0)"/>
      <use xlink:href="#DejaVuSans-69" transform="translate(322.802734 0)"/>
      <use xlink:href="#DejaVuSans-74" transform="translate(350.585938 0)"/>
      <use xlink:href="#DejaVuSans-65" transform="translate(389.794922 0)"/>
      <use xlink:href="#DejaVuSans-5f" transform="translate(451.318359 0)"/>
      <use xlink:href="#DejaVuSans-63" transform="translate(501.318359 0)"/>
      <use xlink:href="#DejaVuSans-72" transform="translate(556.298828 0)"/>
      <use xlink:href="#DejaVuSans-75" transform="translate(597.412109 0)"/>
      <use xlink:href="#DejaVuSans-73" transform="translate(660.791016 0)"/>
      <use xlink:href="#DejaVuSans-68" transform="translate(712.890625 0)"/>
      <use xlink:href="#DejaVuSans-65" transform="translate(776.269531 0)"/>
      <use xlink:href="#DejaVuSans-64" transform="translate(837.792969 0)"/>
     </g>
    </g>
    <g id="line2d_25">
     <path d="M 370.485 605.023125 
L 382.485 605.023125 
L 394.485 605.023125 
" style="fill: none; stroke-dasharray: 5.55,2.4; stroke-dashoffset: 0; stroke: #ff0000; stroke-width: 1.5"/>
    </g>
    <g id="text_32">
     <!-- dunite_xenolith_crushed -->
     <g transform="translate(404.085 609.223125) scale(0.12 -0.12)">
      <use xlink:href="#DejaVuSans-64"/>
      <use xlink:href="#DejaVuSans-75" transform="translate(63.476562 0)"/>
      <use xlink:href="#DejaVuSans-6e" transform="translate(126.855469 0)"/>
      <use xlink:href="#DejaVuSans-69" transform="translate(190.234375 0)"/>
      <use xlink:href="#DejaVuSans-74" transform="translate(218.017578 0)"/>
      <use xlink:href="#DejaVuSans-65" transform="translate(257.226562 0)"/>
      <use xlink:href="#DejaVuSans-5f" transform="translate(318.75 0)"/>
      <use xlink:href="#DejaVuSans-78" transform="translate(368.75 0)"/>
      <use xlink:href="#DejaVuSans-65" transform="translate(424.804688 0)"/>
      <use xlink:href="#DejaVuSans-6e" transform="translate(486.328125 0)"/>
      <use xlink:href="#DejaVuSans-6f" transform="translate(549.707031 0)"/>
      <use xlink:href="#DejaVuSans-6c" transform="translate(610.888672 0)"/>
      <use xlink:href="#DejaVuSans-69" transform="translate(638.671875 0)"/>
      <use xlink:href="#DejaVuSans-74" transform="translate(666.455078 0)"/>
      <use xlink:href="#DejaVuSans-68" transform="translate(705.664062 0)"/>
      <use xlink:href="#DejaVuSans-5f" transform="translate(769.042969 0)"/>
      <use xlink:href="#DejaVuSans-63" transform="translate(819.042969 0)"/>
      <use xlink:href="#DejaVuSans-72" transform="translate(874.023438 0)"/>
      <use xlink:href="#DejaVuSans-75" transform="translate(915.136719 0)"/>
      <use xlink:href="#DejaVuSans-73" transform="translate(978.515625 0)"/>
      <use xlink:href="#DejaVuSans-68" transform="translate(1030.615234 0)"/>
      <use xlink:href="#DejaVuSans-65" transform="translate(1093.994141 0)"/>
      <use xlink:href="#DejaVuSans-64" transform="translate(1155.517578 0)"/>
     </g>
    </g>
    <g id="line2d_26">
     <path d="M 370.485 622.970625 
L 382.485 622.970625 
L 394.485 622.970625 
" style="fill: none; stroke-dasharray: 5.55,2.4; stroke-dashoffset: 0; stroke: #0080ff; stroke-width: 1.5"/>
    </g>
    <g id="text_33">
     <!-- K1919_basalt_slab -->
     <g transform="translate(404.085 627.170625) scale(0.12 -0.12)">
      <use xlink:href="#DejaVuSans-4b"/>
      <use xlink:href="#DejaVuSans-31" transform="translate(65.576172 0)"/>
      <use xlink:href="#DejaVuSans-39" transform="translate(129.199219 0)"/>
      <use xlink:href="#DejaVuSans-31" transform="translate(192.822266 0)"/>
      <use xlink:href="#DejaVuSans-39" transform="translate(256.445312 0)"/>
      <use xlink:href="#DejaVuSans-5f" transform="translate(320.068359 0)"/>
      <use xlink:href="#DejaVuSans-62" transform="translate(370.068359 0)"/>
      <use xlink:href="#DejaVuSans-61" transform="translate(433.544922 0)"/>
      <use xlink:href="#DejaVuSans-73" transform="translate(494.824219 0)"/>
      <use xlink:href="#DejaVuSans-61" transform="translate(546.923828 0)"/>
      <use xlink:href="#DejaVuSans-6c" transform="translate(608.203125 0)"/>
      <use xlink:href="#DejaVuSans-74" transform="translate(635.986328 0)"/>
      <use xlink:href="#DejaVuSans-5f" transform="translate(675.195312 0)"/>
      <use xlink:href="#DejaVuSans-73" transform="translate(725.195312 0)"/>
      <use xlink:href="#DejaVuSans-6c" transform="translate(777.294922 0)"/>
      <use xlink:href="#DejaVuSans-61" transform="translate(805.078125 0)"/>
      <use xlink:href="#DejaVuSans-62" transform="translate(866.357422 0)"/>
     </g>
    </g>
   </g>
   <g id="line2d_27">
    <path d="M 119.972626 594.050193 
L 129.455597 583.878031 
L 138.929104 572.491432 
L 148.402612 559.872956 
L 157.876119 546.71206 
L 167.349627 533.125851 
L 176.823134 520.296015 
L 186.287178 507.689086 
L 195.760685 495.810018 
L 205.224729 484.287695 
L 214.688772 472.368335 
L 224.152815 460.340821 
L 233.616859 448.00628 
L 243.080902 432.849359 
L 252.55441 425.543876 
L 262.018453 415.21832 
L 271.482497 405.584103 
L 280.94654 394.545057 
L 290.420047 381.627096 
L 299.874627 368.520866 
L 309.33867 348.114101 
L 318.812178 289.879715 
L 328.276221 273.27461 
L 337.740265 262.254651 
L 347.204308 255.880144 
L 356.668351 252.811295 
L 366.132395 251.783239 
L 375.605902 253.317429 
L 385.069946 255.516331 
L 394.533989 254.637194 
L 403.998033 249.181645 
L 413.462076 237.470346 
L 422.926119 230.598659 
L 432.390163 223.304016 
L 441.854206 215.021845 
L 451.31825 205.246014 
L 460.791757 195.450626 
L 470.246336 186.502328 
L 479.71038 177.919022 
L 489.174423 174.396585 
L 498.638467 169.485342 
L 508.111974 165.164588 
L 517.576018 160.827812 
L 527.030597 156.341411 
L 536.49464 152.926185 
L 545.958684 149.815865 
L 555.413263 146.811814 
L 564.886771 143.745085 
L 574.350814 141.089531 
L 583.824322 138.190571 
L 593.297829 135.366306 
L 602.752408 132.846004 
L 612.206988 130.538947 
L 621.661567 128.071662 
" clip-path="url(#p70ff5b20e1)" style="fill: none; stroke-dasharray: 5.55,2.4; stroke-dashoffset: 0; stroke: #000000; stroke-width: 1.5"/>
   </g>
   <g id="line2d_28">
    <path d="M 119.972626 584.153719 
L 129.455597 566.759253 
L 138.929104 547.014374 
L 148.402612 525.525359 
L 157.876119 504.116223 
L 167.349627 483.613086 
L 176.823134 463.440773 
L 186.287178 444.213339 
L 195.760685 426.069803 
L 205.224729 408.983777 
L 214.688772 392.313638 
L 224.152815 376.722686 
L 233.616859 362.011814 
L 243.080902 348.184319 
L 252.55441 335.287564 
L 262.018453 323.113724 
L 271.482497 311.834335 
L 280.94654 301.167586 
L 290.420047 291.256503 
L 299.874627 281.971726 
L 309.33867 273.198973 
L 318.812178 263.830076 
L 328.276221 255.587962 
L 337.740265 248.012683 
L 347.204308 241.00975 
L 356.668351 234.704989 
L 366.132395 228.973517 
L 375.605902 223.436675 
L 385.069946 218.193194 
L 394.533989 212.738352 
L 403.998033 207.439968 
L 413.462076 202.675287 
L 422.926119 197.832613 
L 432.390163 193.325476 
L 441.854206 188.832477 
L 451.31825 184.479678 
L 460.791757 180.281217 
L 470.246336 176.194444 
L 479.71038 172.030385 
L 489.174423 168.141071 
L 498.638467 164.126873 
L 508.111974 160.164984 
L 517.576018 156.787459 
L 527.030597 153.374589 
L 536.49464 150.111345 
L 545.958684 147.005973 
L 555.413263 144.080387 
L 564.886771 141.387368 
L 574.350814 138.622953 
L 583.824322 136.025835 
L 593.297829 133.471838 
L 602.752408 131.118834 
L 612.206988 128.845472 
L 621.661567 126.711368 
" clip-path="url(#p70ff5b20e1)" style="fill: none; stroke-dasharray: 5.55,2.4; stroke-dashoffset: 0; stroke: #00ff00; stroke-width: 1.5"/>
   </g>
   <g id="line2d_29">
    <path d="M 119.972626 586.012607 
L 129.455597 569.196613 
L 138.929104 550.221067 
L 148.402612 529.907376 
L 157.876119 509.367245 
L 167.349627 489.126128 
L 176.823134 470.040779 
L 186.287178 452.215345 
L 195.760685 435.06452 
L 205.224729 419.556981 
L 214.688772 404.270935 
L 224.152815 390.448389 
L 233.616859 377.26228 
L 243.080902 363.36928 
L 252.55441 353.539018 
L 262.018453 342.98655 
L 271.482497 331.28232 
L 280.94654 318.308986 
L 290.420047 308.45846 
L 299.874627 299.088855 
L 309.33867 287.183869 
L 318.812178 263.819472 
L 328.276221 254.291053 
L 337.740265 246.479672 
L 347.204308 239.357745 
L 356.668351 233.878633 
L 366.132395 229.807884 
L 375.605902 227.361334 
L 385.069946 225.484539 
L 394.533989 222.437838 
L 403.998033 218.127924 
L 413.462076 212.107569 
L 422.926119 206.955041 
L 432.390163 201.23912 
L 441.854206 195.530269 
L 451.31825 189.438989 
L 460.791757 183.53645 
L 470.246336 177.527169 
L 479.71038 171.867329 
L 489.174423 167.744505 
L 498.638467 163.291092 
L 508.111974 159.475059 
L 517.576018 155.84753 
L 527.030597 152.321322 
L 536.49464 149.199927 
L 545.958684 146.289892 
L 555.413263 143.372789 
L 564.886771 140.503283 
L 574.350814 137.905223 
L 583.824322 135.240479 
L 593.297829 132.693551 
L 602.752408 130.423724 
L 612.206988 128.122794 
L 621.661567 126.043592 
" clip-path="url(#p70ff5b20e1)" style="fill: none; stroke-dasharray: 5.55,2.4; stroke-dashoffset: 0; stroke: #ffff00; stroke-width: 1.5"/>
   </g>
   <g id="line2d_30">
    <path d="M 119.972626 584.754576 
L 129.455597 567.295783 
L 138.929104 547.473617 
L 148.402612 526.135642 
L 157.876119 504.712368 
L 167.349627 483.821147 
L 176.823134 463.277246 
L 186.287178 443.603999 
L 195.760685 424.990616 
L 205.224729 407.252601 
L 214.688772 390.451216 
L 224.152815 374.788397 
L 233.616859 360.265793 
L 243.080902 346.579441 
L 252.55441 333.850219 
L 262.018453 321.787596 
L 271.482497 310.580075 
L 280.94654 300.027842 
L 290.420047 290.027927 
L 299.874627 280.492439 
L 309.33867 271.463556 
L 318.812178 261.688903 
L 328.276221 253.566725 
L 337.740265 245.951389 
L 347.204308 238.766313 
L 356.668351 232.476397 
L 366.132395 226.693322 
L 375.605902 221.33768 
L 385.069946 216.188687 
L 394.533989 210.727482 
L 403.998033 205.572127 
L 413.462076 200.629073 
L 422.926119 195.899973 
L 432.390163 191.274549 
L 441.854206 186.901251 
L 451.31825 182.675221 
L 460.791757 178.580672 
L 470.246336 174.808938 
L 479.71038 170.913026 
L 489.174423 167.485076 
L 498.638467 163.86226 
L 508.111974 160.49251 
L 517.576018 157.307731 
L 527.030597 154.085957 
L 536.49464 151.116073 
L 545.958684 148.163153 
L 555.413263 145.302837 
L 564.886771 142.434273 
L 574.350814 139.991729 
L 583.824322 137.337589 
L 593.297829 134.870775 
L 602.752408 132.679649 
L 612.206988 130.315334 
L 621.661567 128.140466 
" clip-path="url(#p70ff5b20e1)" style="fill: none; stroke-dasharray: 5.55,2.4; stroke-dashoffset: 0; stroke: #800000; stroke-width: 1.5"/>
   </g>
   <g id="line2d_31">
    <path d="M 119.972626 585.471599 
L 129.455597 568.353292 
L 138.929104 548.718217 
L 148.402612 527.491223 
L 157.876119 506.042265 
L 167.349627 485.510852 
L 176.823134 465.479918 
L 186.287178 446.508142 
L 195.760685 429.183894 
L 205.224729 412.636754 
L 214.688772 396.4711 
L 224.152815 381.327374 
L 233.616859 367.178716 
L 243.080902 353.52653 
L 252.55441 341.081479 
L 262.018453 329.237049 
L 271.482497 318.084901 
L 280.94654 307.702086 
L 290.420047 297.912824 
L 299.874627 288.628518 
L 309.33867 279.523762 
L 318.812178 267.348508 
L 328.276221 258.920953 
L 337.740265 251.607459 
L 347.204308 244.858535 
L 356.668351 239.239223 
L 366.132395 233.994799 
L 375.605902 229.030304 
L 385.069946 224.628258 
L 394.533989 219.352966 
L 403.998033 214.309535 
L 413.462076 209.491366 
L 422.926119 204.835075 
L 432.390163 200.208945 
L 441.854206 195.870755 
L 451.31825 191.592886 
L 460.791757 187.534625 
L 470.246336 183.309538 
L 479.71038 179.516832 
L 489.174423 175.799763 
L 498.638467 171.659267 
L 508.111974 167.812131 
L 517.576018 164.310193 
L 527.030597 160.46824 
L 536.49464 157.216778 
L 545.958684 153.918895 
L 555.413263 150.894109 
L 564.886771 147.97135 
L 574.350814 145.317446 
L 583.824322 142.706426 
L 593.297829 140.198141 
L 602.752408 137.742402 
L 612.206988 135.179922 
L 621.661567 132.604012 
" clip-path="url(#p70ff5b20e1)" style="fill: none; stroke-dasharray: 5.55,2.4; stroke-dashoffset: 0; stroke: #80ff00; stroke-width: 1.5"/>
   </g>
   <g id="line2d_32">
    <path d="M 119.972626 585.282624 
L 129.455597 568.002203 
L 138.929104 548.390455 
L 148.402612 527.277742 
L 157.876119 505.867899 
L 167.349627 485.017914 
L 176.823134 464.691028 
L 186.287178 445.201337 
L 195.760685 426.762792 
L 205.224729 410.072154 
L 214.688772 393.619737 
L 224.152815 378.234019 
L 233.616859 363.734507 
L 243.080902 350.209091 
L 252.55441 337.419783 
L 262.018453 325.416539 
L 271.482497 314.068818 
L 280.94654 303.36531 
L 290.420047 293.46648 
L 299.874627 284.071428 
L 309.33867 275.175676 
L 318.812178 264.936831 
L 328.276221 257.185772 
L 337.740265 249.672699 
L 347.204308 242.737627 
L 356.668351 236.518164 
L 366.132395 230.613033 
L 375.605902 225.076663 
L 385.069946 219.819514 
L 394.533989 214.36962 
L 403.998033 209.162426 
L 413.462076 204.13054 
L 422.926119 199.289986 
L 432.390163 194.595052 
L 441.854206 190.246259 
L 451.31825 186.057223 
L 460.791757 181.944767 
L 470.246336 177.95366 
L 479.71038 174.215149 
L 489.174423 170.479231 
L 498.638467 166.671209 
L 508.111974 163.160317 
L 517.576018 159.66427 
L 527.030597 156.292871 
L 536.49464 153.186792 
L 545.958684 150.342263 
L 555.413263 147.783789 
L 564.886771 144.957403 
L 574.350814 142.547376 
L 583.824322 140.189188 
L 593.297829 137.685615 
L 602.752408 135.304806 
L 612.206988 132.801941 
L 621.661567 130.580418 
" clip-path="url(#p70ff5b20e1)" style="fill: none; stroke-dasharray: 5.55,2.4; stroke-dashoffset: 0; stroke: #0000ff; stroke-width: 1.5"/>
   </g>
   <g id="line2d_33">
    <path d="M 119.972626 584.736197 
L 129.455597 567.239703 
L 138.929104 547.424842 
L 148.402612 526.066131 
L 157.876119 504.481686 
L 167.349627 483.667516 
L 176.823134 463.22847 
L 186.287178 443.734538 
L 195.760685 425.361027 
L 205.224729 408.374908 
L 214.688772 391.741528 
L 224.152815 376.216317 
L 233.616859 361.451014 
L 243.080902 347.778564 
L 252.55441 334.970642 
L 262.018453 322.872674 
L 271.482497 311.612372 
L 280.94654 300.896847 
L 290.420047 290.834018 
L 299.874627 281.394432 
L 309.33867 272.511168 
L 318.812178 262.278921 
L 328.276221 254.58889 
L 337.740265 247.040001 
L 347.204308 239.846678 
L 356.668351 233.545688 
L 366.132395 227.55031 
L 375.605902 221.888349 
L 385.069946 216.665602 
L 394.533989 211.13206 
L 403.998033 205.948664 
L 413.462076 200.9566 
L 422.926119 196.128063 
L 432.390163 191.471301 
L 441.854206 187.155024 
L 451.31825 182.792565 
L 460.791757 178.792975 
L 470.246336 174.86596 
L 479.71038 171.141587 
L 489.174423 167.433709 
L 498.638467 163.771542 
L 508.111974 160.28869 
L 517.576018 157.04948 
L 527.030597 153.768563 
L 536.49464 150.95443 
L 545.958684 148.001511 
L 555.413263 145.309435 
L 564.886771 142.677679 
L 574.350814 140.081976 
L 583.824322 137.497111 
L 593.297829 135.101457 
L 602.752408 132.867211 
L 612.206988 130.485695 
L 621.661567 128.378689 
" clip-path="url(#p70ff5b20e1)" style="fill: none; stroke-dasharray: 5.55,2.4; stroke-dashoffset: 0; stroke: #00ffff; stroke-width: 1.5"/>
   </g>
   <g id="line2d_34">
    <path d="M 119.972626 587.57083 
L 129.455597 571.521813 
L 138.929104 552.165724 
L 148.402612 531.585535 
L 157.876119 512.205177 
L 167.349627 494.041613 
L 176.823134 474.951786 
L 186.287178 456.067429 
L 195.760685 437.755418 
L 205.224729 420.644651 
L 214.688772 403.393212 
L 224.152815 387.851978 
L 233.616859 373.265518 
L 243.080902 359.750469 
L 252.55441 347.649203 
L 262.018453 336.526273 
L 271.482497 326.596811 
L 280.94654 316.962594 
L 290.420047 307.626213 
L 299.874627 298.660951 
L 309.33867 289.330225 
L 318.812178 272.450611 
L 328.276221 262.085233 
L 337.740265 254.193973 
L 347.204308 247.109512 
L 356.668351 241.086565 
L 366.132395 236.285126 
L 375.605902 231.772098 
L 385.069946 227.643148 
L 394.533989 222.45716 
L 403.998033 217.220276 
L 413.462076 212.08919 
L 422.926119 206.809893 
L 432.390163 201.782955 
L 441.854206 196.839431 
L 451.31825 192.077342 
L 460.791757 187.360965 
L 470.246336 182.395999 
L 479.71038 177.940229 
L 489.174423 173.595206 
L 498.638467 169.128126 
L 508.111974 165.15752 
L 517.576018 161.523864 
L 527.030597 158.109345 
L 536.49464 154.775883 
L 545.958684 151.648126 
L 555.413263 148.761419 
L 564.886771 145.983337 
L 574.350814 143.304927 
L 583.824322 140.586696 
L 593.297829 137.847729 
L 602.752408 135.655896 
L 612.206988 133.069382 
L 621.661567 131.041311 
" clip-path="url(#p70ff5b20e1)" style="fill: none; stroke-dasharray: 5.55,2.4; stroke-dashoffset: 0; stroke: #ff00ff; stroke-width: 1.5"/>
   </g>
   <g id="line2d_35">
    <path d="M 119.972626 584.025536 
L 129.455597 566.588185 
L 138.929104 546.81503 
L 148.402612 526.22848 
L 157.876119 506.896897 
L 167.349627 488.386014 
L 176.823134 469.772631 
L 186.287178 451.200249 
L 195.760685 433.616807 
L 205.224729 416.655194 
L 214.688772 400.91226 
L 224.152815 386.184422 
L 233.616859 372.603161 
L 243.080902 359.968428 
L 252.55441 347.827104 
L 262.018453 336.790886 
L 271.482497 326.332669 
L 280.94654 316.326156 
L 290.420047 306.8008 
L 299.874627 297.947462 
L 309.33867 289.001992 
L 318.812178 276.879048 
L 328.276221 264.759166 
L 337.740265 255.730754 
L 347.204308 247.977103 
L 356.668351 241.203438 
L 366.132395 236.544084 
L 375.605902 232.709907 
L 385.069946 229.198779 
L 394.533989 225.042025 
L 403.998033 220.928391 
L 413.462076 217.640405 
L 422.926119 214.136818 
L 432.390163 210.427761 
L 441.854206 206.750043 
L 451.31825 203.359793 
L 460.791757 199.761718 
L 470.246336 196.296539 
L 479.71038 192.026917 
L 489.174423 187.382172 
L 498.638467 183.449738 
L 508.111974 180.378061 
L 517.576018 177.634145 
L 527.030597 174.73118 
L 536.49464 172.035098 
L 545.958684 169.607398 
L 555.413263 167.284319 
L 564.886771 164.956763 
L 574.350814 162.522701 
L 583.824322 160.103249 
L 593.297829 157.874657 
L 602.752408 156.076091 
L 612.206988 153.919131 
L 621.661567 151.377387 
" clip-path="url(#p70ff5b20e1)" style="fill: none; stroke-dasharray: 5.55,2.4; stroke-dashoffset: 0; stroke: #ff00b2; stroke-width: 1.5"/>
   </g>
   <g id="line2d_36">
    <path d="M 119.972626 588.964112 
L 129.455597 570.053365 
L 138.929104 547.286998 
L 148.402612 524.614177 
L 157.876119 501.982355 
L 167.349627 481.440338 
L 176.823134 462.536424 
L 186.287178 447.512399 
L 195.760685 442.979107 
L 205.224729 444.663628 
L 214.688772 448.185359 
L 224.152815 447.365365 
L 233.616859 442.176786 
L 243.080902 435.348454 
L 252.55441 428.294861 
L 262.018453 421.2276 
L 271.482497 414.404453 
L 280.94654 407.727632 
L 290.420047 401.318958 
L 299.874627 394.70293 
L 309.33867 386.389892 
L 318.812178 370.667694 
L 328.276221 355.630002 
L 337.740265 345.419197 
L 347.204308 337.344146 
L 356.668351 330.133858 
L 366.132395 322.315408 
L 375.605902 309.697404 
L 385.069946 299.066942 
L 394.533989 285.723668 
L 403.998033 271.525762 
L 413.462076 257.924944 
L 422.926119 246.280329 
L 432.390163 236.849225 
L 441.854206 227.208646 
L 451.31825 219.261777 
L 460.791757 207.101367 
L 470.246336 200.037406 
L 479.71038 194.157015 
L 489.174423 187.283443 
L 498.638467 180.608036 
L 508.111974 174.884811 
L 517.576018 167.234365 
L 527.030597 159.271003 
L 536.49464 155.952621 
L 545.958684 151.891296 
L 555.413263 148.196613 
L 564.886771 145.153212 
L 574.350814 141.940392 
L 583.824322 139.199776 
L 593.297829 136.463636 
L 602.752408 134.432032 
L 612.206988 132.019413 
L 621.661567 130.190921 
" clip-path="url(#p70ff5b20e1)" style="fill: none; stroke-dasharray: 5.55,2.4; stroke-dashoffset: 0; stroke: #ff0000; stroke-width: 1.5"/>
   </g>
   <g id="line2d_37">
    <path d="M 119.972626 585.317497 
L 129.455597 568.599525 
L 138.929104 549.432176 
L 148.402612 528.591616 
L 157.876119 507.850492 
L 167.349627 487.840294 
L 176.823134 467.859078 
L 186.287178 448.617741 
L 195.760685 430.345316 
L 205.224729 413.593649 
L 214.688772 397.854957 
L 224.152815 382.169753 
L 233.616859 368.182501 
L 243.080902 354.789509 
L 252.55441 342.303693 
L 262.018453 330.624912 
L 271.482497 319.545338 
L 280.94654 309.321338 
L 290.420047 299.650834 
L 299.874627 290.555503 
L 309.33867 281.837417 
L 318.812178 272.124499 
L 328.276221 263.919851 
L 337.740265 256.46003 
L 347.204308 249.6079 
L 356.668351 244.130438 
L 366.132395 238.775974 
L 375.605902 233.905495 
L 385.069946 229.091096 
L 394.533989 224.01609 
L 403.998033 219.375587 
L 413.462076 215.211999 
L 422.926119 210.993509 
L 432.390163 207.114563 
L 441.854206 203.416109 
L 451.31825 200.042118 
L 460.791757 196.502244 
L 470.246336 193.18504 
L 479.71038 189.837676 
L 489.174423 186.302043 
L 498.638467 182.350286 
L 508.111974 178.286135 
L 517.576018 174.287488 
L 527.030597 170.114004 
L 536.49464 165.998013 
L 545.958684 162.252669 
L 555.413263 158.929574 
L 564.886771 155.674813 
L 574.350814 152.891076 
L 583.824322 150.161063 
L 593.297829 147.268465 
L 602.752408 144.622337 
L 612.206988 141.655515 
L 621.661567 138.986766 
" clip-path="url(#p70ff5b20e1)" style="fill: none; stroke-dasharray: 5.55,2.4; stroke-dashoffset: 0; stroke: #0080ff; stroke-width: 1.5"/>
   </g>
  </g>
 </g>
 <defs>
  <clipPath id="p70ff5b20e1">
   <rect x="90" y="86.4" width="558" height="554.4"/>
  </clipPath>
 </defs>
</svg>
