<?xml version="1.0" encoding="utf-8" standalone="no"?>
<!DOCTYPE svg PUBLIC "-//W3C//DTD SVG 1.1//EN"
  "http://www.w3.org/Graphics/SVG/1.1/DTD/svg11.dtd">
<svg xmlns:xlink="http://www.w3.org/1999/xlink" width="460.8pt" height="345.6pt" viewBox="0 0 460.8 345.6" xmlns="http://www.w3.org/2000/svg" version="1.1">
 <metadata>
  <rdf:RDF xmlns:dc="http://purl.org/dc/elements/1.1/" xmlns:cc="http://creativecommons.org/ns#" xmlns:rdf="http://www.w3.org/1999/02/22-rdf-syntax-ns#">
   <cc:Work>
    <dc:type rdf:resource="http://purl.org/dc/dcmitype/StillImage"/>
    <dc:date>2025-12-04T12:26:39.849586</dc:date>
    <dc:format>image/svg+xml</dc:format>
    <dc:creator>
     <cc:Agent>
      <dc:title>Matplotlib v3.10.7, https://matplotlib.org/</dc:title>
     </cc:Agent>
    </dc:creator>
   </cc:Work>
  </rdf:RDF>
 </metadata>
 <defs>
  <style type="text/css">*{stroke-linejoin: round; stroke-linecap: butt}</style>
 </defs>
 <g id="figure_1">
  <g id="patch_1">
   <path d="M 0 345.6 
L 460.8 345.6 
L 460.8 0 
L 0 0 
z
" style="fill: #ffffff"/>
  </g>
  <g id="axes_1">
   <g id="patch_2">
    <path d="M 57.6 307.584 
L 414.72 307.584 
L 414.72 41.472 
L 57.6 41.472 
z
" style="fill: #ffffff"/>
   </g>
   <g id="matplotlib.axis_1">
    <g id="xtick_1">
     <g id="line2d_1">
      <defs>
       <path id="m79449217ea" d="M 0 0 
L 0 3.5 
" style="stroke: #000000; stroke-width: 0.8"/>
      </defs>
      <g>
       <use xlink:href="#m79449217ea" x="120.525426" y="307.584" style="stroke: #000000; stroke-width: 0.8"/>
      </g>
     </g>
     <g id="text_1">
      <!-- 0.4 -->
      <g transform="translate(109.393238 325.221812) scale(0.14 -0.14)">
       <defs>
        <path id="DejaVuSans-30" d="M 2034 4250 
Q 1547 4250 1301 3770 
Q 1056 3291 1056 2328 
Q 1056 1369 1301 889 
Q 1547 409 2034 409 
Q 2525 409 2770 889 
Q 3016 1369 3016 2328 
Q 3016 3291 2770 3770 
Q 2525 4250 2034 4250 
z
M 2034 4750 
Q 2819 4750 3233 4129 
Q 3647 3509 3647 2328 
Q 3647 1150 3233 529 
Q 2819 -91 2034 -91 
Q 1250 -91 836 529 
Q 422 1150 422 2328 
Q 422 3509 836 4129 
Q 1250 4750 2034 4750 
z
" transform="scale(0.015625)"/>
        <path id="DejaVuSans-2e" d="M 684 794 
L 1344 794 
L 1344 0 
L 684 0 
L 684 794 
z
" transform="scale(0.015625)"/>
        <path id="DejaVuSans-34" d="M 2419 4116 
L 825 1625 
L 2419 1625 
L 2419 4116 
z
M 2253 4666 
L 3047 4666 
L 3047 1625 
L 3713 1625 
L 3713 1100 
L 3047 1100 
L 3047 0 
L 2419 0 
L 2419 1100 
L 313 1100 
L 313 1709 
L 2253 4666 
z
" transform="scale(0.015625)"/>
       </defs>
       <use xlink:href="#DejaVuSans-30"/>
       <use xlink:href="#DejaVuSans-2e" transform="translate(63.623047 0)"/>
       <use xlink:href="#DejaVuSans-34" transform="translate(95.410156 0)"/>
      </g>
     </g>
    </g>
    <g id="xtick_2">
     <g id="line2d_2">
      <g>
       <use xlink:href="#m79449217ea" x="189.244951" y="307.584" style="stroke: #000000; stroke-width: 0.8"/>
      </g>
     </g>
     <g id="text_2">
      <!-- 0.6 -->
      <g transform="translate(178.112764 325.221812) scale(0.14 -0.14)">
       <defs>
        <path id="DejaVuSans-36" d="M 2113 2584 
Q 1688 2584 1439 2293 
Q 1191 2003 1191 1497 
Q 1191 994 1439 701 
Q 1688 409 2113 409 
Q 2538 409 2786 701 
Q 3034 994 3034 1497 
Q 3034 2003 2786 2293 
Q 2538 2584 2113 2584 
z
M 3366 4563 
L 3366 3988 
Q 3128 4100 2886 4159 
Q 2644 4219 2406 4219 
Q 1781 4219 1451 3797 
Q 1122 3375 1075 2522 
Q 1259 2794 1537 2939 
Q 1816 3084 2150 3084 
Q 2853 3084 3261 2657 
Q 3669 2231 3669 1497 
Q 3669 778 3244 343 
Q 2819 -91 2113 -91 
Q 1303 -91 875 529 
Q 447 1150 447 2328 
Q 447 3434 972 4092 
Q 1497 4750 2381 4750 
Q 2619 4750 2861 4703 
Q 3103 4656 3366 4563 
z
" transform="scale(0.015625)"/>
       </defs>
       <use xlink:href="#DejaVuSans-30"/>
       <use xlink:href="#DejaVuSans-2e" transform="translate(63.623047 0)"/>
       <use xlink:href="#DejaVuSans-36" transform="translate(95.410156 0)"/>
      </g>
     </g>
    </g>
    <g id="xtick_3">
     <g id="line2d_3">
      <g>
       <use xlink:href="#m79449217ea" x="257.964476" y="307.584" style="stroke: #000000; stroke-width: 0.8"/>
      </g>
     </g>
     <g id="text_3">
      <!-- 0.8 -->
      <g transform="translate(246.832289 325.221812) scale(0.14 -0.14)">
       <defs>
        <path id="DejaVuSans-38" d="M 2034 2216 
Q 1584 2216 1326 1975 
Q 1069 1734 1069 1313 
Q 1069 891 1326 650 
Q 1584 409 2034 409 
Q 2484 409 2743 651 
Q 3003 894 3003 1313 
Q 3003 1734 2745 1975 
Q 2488 2216 2034 2216 
z
M 1403 2484 
Q 997 2584 770 2862 
Q 544 3141 544 3541 
Q 544 4100 942 4425 
Q 1341 4750 2034 4750 
Q 2731 4750 3128 4425 
Q 3525 4100 3525 3541 
Q 3525 3141 3298 2862 
Q 3072 2584 2669 2484 
Q 3125 2378 3379 2068 
Q 3634 1759 3634 1313 
Q 3634 634 3220 271 
Q 2806 -91 2034 -91 
Q 1263 -91 848 271 
Q 434 634 434 1313 
Q 434 1759 690 2068 
Q 947 2378 1403 2484 
z
M 1172 3481 
Q 1172 3119 1398 2916 
Q 1625 2713 2034 2713 
Q 2441 2713 2670 2916 
Q 2900 3119 2900 3481 
Q 2900 3844 2670 4047 
Q 2441 4250 2034 4250 
Q 1625 4250 1398 4047 
Q 1172 3844 1172 3481 
z
" transform="scale(0.015625)"/>
       </defs>
       <use xlink:href="#DejaVuSans-30"/>
       <use xlink:href="#DejaVuSans-2e" transform="translate(63.623047 0)"/>
       <use xlink:href="#DejaVuSans-38" transform="translate(95.410156 0)"/>
      </g>
     </g>
    </g>
    <g id="xtick_4">
     <g id="line2d_4">
      <g>
       <use xlink:href="#m79449217ea" x="326.684002" y="307.584" style="stroke: #000000; stroke-width: 0.8"/>
      </g>
     </g>
     <g id="text_4">
      <!-- 1.0 -->
      <g transform="translate(315.551814 325.221812) scale(0.14 -0.14)">
       <defs>
        <path id="DejaVuSans-31" d="M 794 531 
L 1825 531 
L 1825 4091 
L 703 3866 
L 703 4441 
L 1819 4666 
L 2450 4666 
L 2450 531 
L 3481 531 
L 3481 0 
L 794 0 
L 794 531 
z
" transform="scale(0.015625)"/>
       </defs>
       <use xlink:href="#DejaVuSans-31"/>
       <use xlink:href="#DejaVuSans-2e" transform="translate(63.623047 0)"/>
       <use xlink:href="#DejaVuSans-30" transform="translate(95.410156 0)"/>
      </g>
     </g>
    </g>
    <g id="xtick_5">
     <g id="line2d_5">
      <g>
       <use xlink:href="#m79449217ea" x="395.403527" y="307.584" style="stroke: #000000; stroke-width: 0.8"/>
      </g>
     </g>
     <g id="text_5">
      <!-- 1.2 -->
      <g transform="translate(384.27134 325.221812) scale(0.14 -0.14)">
       <defs>
        <path id="DejaVuSans-32" d="M 1228 531 
L 3431 531 
L 3431 0 
L 469 0 
L 469 531 
Q 828 903 1448 1529 
Q 2069 2156 2228 2338 
Q 2531 2678 2651 2914 
Q 2772 3150 2772 3378 
Q 2772 3750 2511 3984 
Q 2250 4219 1831 4219 
Q 1534 4219 1204 4116 
Q 875 4013 500 3803 
L 500 4441 
Q 881 4594 1212 4672 
Q 1544 4750 1819 4750 
Q 2544 4750 2975 4387 
Q 3406 4025 3406 3419 
Q 3406 3131 3298 2873 
Q 3191 2616 2906 2266 
Q 2828 2175 2409 1742 
Q 1991 1309 1228 531 
z
" transform="scale(0.015625)"/>
       </defs>
       <use xlink:href="#DejaVuSans-31"/>
       <use xlink:href="#DejaVuSans-2e" transform="translate(63.623047 0)"/>
       <use xlink:href="#DejaVuSans-32" transform="translate(95.410156 0)"/>
      </g>
     </g>
    </g>
    <g id="text_6">
     <!-- BJD - 2459370.807543 [d] -->
     <g transform="translate(144.673281 342.771187) scale(0.14 -0.14)">
      <defs>
       <path id="DejaVuSans-42" d="M 1259 2228 
L 1259 519 
L 2272 519 
Q 2781 519 3026 730 
Q 3272 941 3272 1375 
Q 3272 1813 3026 2020 
Q 2781 2228 2272 2228 
L 1259 2228 
z
M 1259 4147 
L 1259 2741 
L 2194 2741 
Q 2656 2741 2882 2914 
Q 3109 3088 3109 3444 
Q 3109 3797 2882 3972 
Q 2656 4147 2194 4147 
L 1259 4147 
z
M 628 4666 
L 2241 4666 
Q 2963 4666 3353 4366 
Q 3744 4066 3744 3513 
Q 3744 3084 3544 2831 
Q 3344 2578 2956 2516 
Q 3422 2416 3680 2098 
Q 3938 1781 3938 1306 
Q 3938 681 3513 340 
Q 3088 0 2303 0 
L 628 0 
L 628 4666 
z
" transform="scale(0.015625)"/>
       <path id="DejaVuSans-4a" d="M 628 4666 
L 1259 4666 
L 1259 325 
Q 1259 -519 939 -900 
Q 619 -1281 -91 -1281 
L -331 -1281 
L -331 -750 
L -134 -750 
Q 284 -750 456 -515 
Q 628 -281 628 325 
L 628 4666 
z
" transform="scale(0.015625)"/>
       <path id="DejaVuSans-44" d="M 1259 4147 
L 1259 519 
L 2022 519 
Q 2988 519 3436 956 
Q 3884 1394 3884 2338 
Q 3884 3275 3436 3711 
Q 2988 4147 2022 4147 
L 1259 4147 
z
M 628 4666 
L 1925 4666 
Q 3281 4666 3915 4102 
Q 4550 3538 4550 2338 
Q 4550 1131 3912 565 
Q 3275 0 1925 0 
L 628 0 
L 628 4666 
z
" transform="scale(0.015625)"/>
       <path id="DejaVuSans-20" transform="scale(0.015625)"/>
       <path id="DejaVuSans-2d" d="M 313 2009 
L 1997 2009 
L 1997 1497 
L 313 1497 
L 313 2009 
z
" transform="scale(0.015625)"/>
       <path id="DejaVuSans-35" d="M 691 4666 
L 3169 4666 
L 3169 4134 
L 1269 4134 
L 1269 2991 
Q 1406 3038 1543 3061 
Q 1681 3084 1819 3084 
Q 2600 3084 3056 2656 
Q 3513 2228 3513 1497 
Q 3513 744 3044 326 
Q 2575 -91 1722 -91 
Q 1428 -91 1123 -41 
Q 819 9 494 109 
L 494 744 
Q 775 591 1075 516 
Q 1375 441 1709 441 
Q 2250 441 2565 725 
Q 2881 1009 2881 1497 
Q 2881 1984 2565 2268 
Q 2250 2553 1709 2553 
Q 1456 2553 1204 2497 
Q 953 2441 691 2322 
L 691 4666 
z
" transform="scale(0.015625)"/>
       <path id="DejaVuSans-39" d="M 703 97 
L 703 672 
Q 941 559 1184 500 
Q 1428 441 1663 441 
Q 2288 441 2617 861 
Q 2947 1281 2994 2138 
Q 2813 1869 2534 1725 
Q 2256 1581 1919 1581 
Q 1219 1581 811 2004 
Q 403 2428 403 3163 
Q 403 3881 828 4315 
Q 1253 4750 1959 4750 
Q 2769 4750 3195 4129 
Q 3622 3509 3622 2328 
Q 3622 1225 3098 567 
Q 2575 -91 1691 -91 
Q 1453 -91 1209 -44 
Q 966 3 703 97 
z
M 1959 2075 
Q 2384 2075 2632 2365 
Q 2881 2656 2881 3163 
Q 2881 3666 2632 3958 
Q 2384 4250 1959 4250 
Q 1534 4250 1286 3958 
Q 1038 3666 1038 3163 
Q 1038 2656 1286 2365 
Q 1534 2075 1959 2075 
z
" transform="scale(0.015625)"/>
       <path id="DejaVuSans-33" d="M 2597 2516 
Q 3050 2419 3304 2112 
Q 3559 1806 3559 1356 
Q 3559 666 3084 287 
Q 2609 -91 1734 -91 
Q 1441 -91 1130 -33 
Q 819 25 488 141 
L 488 750 
Q 750 597 1062 519 
Q 1375 441 1716 441 
Q 2309 441 2620 675 
Q 2931 909 2931 1356 
Q 2931 1769 2642 2001 
Q 2353 2234 1838 2234 
L 1294 2234 
L 1294 2753 
L 1863 2753 
Q 2328 2753 2575 2939 
Q 2822 3125 2822 3475 
Q 2822 3834 2567 4026 
Q 2313 4219 1838 4219 
Q 1578 4219 1281 4162 
Q 984 4106 628 3988 
L 628 4550 
Q 988 4650 1302 4700 
Q 1616 4750 1894 4750 
Q 2613 4750 3031 4423 
Q 3450 4097 3450 3541 
Q 3450 3153 3228 2886 
Q 3006 2619 2597 2516 
z
" transform="scale(0.015625)"/>
       <path id="DejaVuSans-37" d="M 525 4666 
L 3525 4666 
L 3525 4397 
L 1831 0 
L 1172 0 
L 2766 4134 
L 525 4134 
L 525 4666 
z
" transform="scale(0.015625)"/>
       <path id="DejaVuSans-5b" d="M 550 4863 
L 1875 4863 
L 1875 4416 
L 1125 4416 
L 1125 -397 
L 1875 -397 
L 1875 -844 
L 550 -844 
L 550 4863 
z
" transform="scale(0.015625)"/>
       <path id="DejaVuSans-64" d="M 2906 2969 
L 2906 4863 
L 3481 4863 
L 3481 0 
L 2906 0 
L 2906 525 
Q 2725 213 2448 61 
Q 2172 -91 1784 -91 
Q 1150 -91 751 415 
Q 353 922 353 1747 
Q 353 2572 751 3078 
Q 1150 3584 1784 3584 
Q 2172 3584 2448 3432 
Q 2725 3281 2906 2969 
z
M 947 1747 
Q 947 1113 1208 752 
Q 1469 391 1925 391 
Q 2381 391 2643 752 
Q 2906 1113 2906 1747 
Q 2906 2381 2643 2742 
Q 2381 3103 1925 3103 
Q 1469 3103 1208 2742 
Q 947 2381 947 1747 
z
" transform="scale(0.015625)"/>
       <path id="DejaVuSans-5d" d="M 1947 4863 
L 1947 -844 
L 622 -844 
L 622 -397 
L 1369 -397 
L 1369 4416 
L 622 4416 
L 622 4863 
L 1947 4863 
z
" transform="scale(0.015625)"/>
      </defs>
      <use xlink:href="#DejaVuSans-42"/>
      <use xlink:href="#DejaVuSans-4a" transform="translate(68.603516 0)"/>
      <use xlink:href="#DejaVuSans-44" transform="translate(98.095703 0)"/>
      <use xlink:href="#DejaVuSans-20" transform="translate(175.097656 0)"/>
      <use xlink:href="#DejaVuSans-2d" transform="translate(206.884766 0)"/>
      <use xlink:href="#DejaVuSans-20" transform="translate(242.96875 0)"/>
      <use xlink:href="#DejaVuSans-32" transform="translate(274.755859 0)"/>
      <use xlink:href="#DejaVuSans-34" transform="translate(338.378906 0)"/>
      <use xlink:href="#DejaVuSans-35" transform="translate(402.001953 0)"/>
      <use xlink:href="#DejaVuSans-39" transform="translate(465.625 0)"/>
      <use xlink:href="#DejaVuSans-33" transform="translate(529.248047 0)"/>
      <use xlink:href="#DejaVuSans-37" transform="translate(592.871094 0)"/>
      <use xlink:href="#DejaVuSans-30" transform="translate(656.494141 0)"/>
      <use xlink:href="#DejaVuSans-2e" transform="translate(720.117188 0)"/>
      <use xlink:href="#DejaVuSans-38" transform="translate(751.904297 0)"/>
      <use xlink:href="#DejaVuSans-30" transform="translate(815.527344 0)"/>
      <use xlink:href="#DejaVuSans-37" transform="translate(879.150391 0)"/>
      <use xlink:href="#DejaVuSans-35" transform="translate(942.773438 0)"/>
      <use xlink:href="#DejaVuSans-34" transform="translate(1006.396484 0)"/>
      <use xlink:href="#DejaVuSans-33" transform="translate(1070.019531 0)"/>
      <use xlink:href="#DejaVuSans-20" transform="translate(1133.642578 0)"/>
      <use xlink:href="#DejaVuSans-5b" transform="translate(1165.429688 0)"/>
      <use xlink:href="#DejaVuSans-64" transform="translate(1204.443359 0)"/>
      <use xlink:href="#DejaVuSans-5d" transform="translate(1267.919922 0)"/>
     </g>
    </g>
   </g>
   <g id="matplotlib.axis_2">
    <g id="ytick_1">
     <g id="line2d_6">
      <defs>
       <path id="m38142a0a77" d="M 0 0 
L -3.5 0 
" style="stroke: #000000; stroke-width: 0.8"/>
      </defs>
      <g>
       <use xlink:href="#m38142a0a77" x="57.6" y="300.881069" style="stroke: #000000; stroke-width: 0.8"/>
      </g>
     </g>
     <g id="text_7">
      <!-- −0.0005 -->
      <g transform="translate(-10.118438 306.199975) scale(0.14 -0.14)">
       <defs>
        <path id="DejaVuSans-2212" d="M 678 2272 
L 4684 2272 
L 4684 1741 
L 678 1741 
L 678 2272 
z
" transform="scale(0.015625)"/>
       </defs>
       <use xlink:href="#DejaVuSans-2212"/>
       <use xlink:href="#DejaVuSans-30" transform="translate(83.789062 0)"/>
       <use xlink:href="#DejaVuSans-2e" transform="translate(147.412109 0)"/>
       <use xlink:href="#DejaVuSans-30" transform="translate(179.199219 0)"/>
       <use xlink:href="#DejaVuSans-30" transform="translate(242.822266 0)"/>
       <use xlink:href="#DejaVuSans-30" transform="translate(306.445312 0)"/>
       <use xlink:href="#DejaVuSans-35" transform="translate(370.068359 0)"/>
      </g>
     </g>
    </g>
    <g id="ytick_2">
     <g id="line2d_7">
      <g>
       <use xlink:href="#m38142a0a77" x="57.6" y="265.452232" style="stroke: #000000; stroke-width: 0.8"/>
      </g>
     </g>
     <g id="text_8">
      <!-- −0.0004 -->
      <g transform="translate(-10.118438 270.771138) scale(0.14 -0.14)">
       <use xlink:href="#DejaVuSans-2212"/>
       <use xlink:href="#DejaVuSans-30" transform="translate(83.789062 0)"/>
       <use xlink:href="#DejaVuSans-2e" transform="translate(147.412109 0)"/>
       <use xlink:href="#DejaVuSans-30" transform="translate(179.199219 0)"/>
       <use xlink:href="#DejaVuSans-30" transform="translate(242.822266 0)"/>
       <use xlink:href="#DejaVuSans-30" transform="translate(306.445312 0)"/>
       <use xlink:href="#DejaVuSans-34" transform="translate(370.068359 0)"/>
      </g>
     </g>
    </g>
    <g id="ytick_3">
     <g id="line2d_8">
      <g>
       <use xlink:href="#m38142a0a77" x="57.6" y="230.023395" style="stroke: #000000; stroke-width: 0.8"/>
      </g>
     </g>
     <g id="text_9">
      <!-- −0.0003 -->
      <g transform="translate(-10.118438 235.342301) scale(0.14 -0.14)">
       <use xlink:href="#DejaVuSans-2212"/>
       <use xlink:href="#DejaVuSans-30" transform="translate(83.789062 0)"/>
       <use xlink:href="#DejaVuSans-2e" transform="translate(147.412109 0)"/>
       <use xlink:href="#DejaVuSans-30" transform="translate(179.199219 0)"/>
       <use xlink:href="#DejaVuSans-30" transform="translate(242.822266 0)"/>
       <use xlink:href="#DejaVuSans-30" transform="translate(306.445312 0)"/>
       <use xlink:href="#DejaVuSans-33" transform="translate(370.068359 0)"/>
      </g>
     </g>
    </g>
    <g id="ytick_4">
     <g id="line2d_9">
      <g>
       <use xlink:href="#m38142a0a77" x="57.6" y="194.594558" style="stroke: #000000; stroke-width: 0.8"/>
      </g>
     </g>
     <g id="text_10">
      <!-- −0.0002 -->
      <g transform="translate(-10.118438 199.913464) scale(0.14 -0.14)">
       <use xlink:href="#DejaVuSans-2212"/>
       <use xlink:href="#DejaVuSans-30" transform="translate(83.789062 0)"/>
       <use xlink:href="#DejaVuSans-2e" transform="translate(147.412109 0)"/>
       <use xlink:href="#DejaVuSans-30" transform="translate(179.199219 0)"/>
       <use xlink:href="#DejaVuSans-30" transform="translate(242.822266 0)"/>
       <use xlink:href="#DejaVuSans-30" transform="translate(306.445312 0)"/>
       <use xlink:href="#DejaVuSans-32" transform="translate(370.068359 0)"/>
      </g>
     </g>
    </g>
    <g id="ytick_5">
     <g id="line2d_10">
      <g>
       <use xlink:href="#m38142a0a77" x="57.6" y="159.165721" style="stroke: #000000; stroke-width: 0.8"/>
      </g>
     </g>
     <g id="text_11">
      <!-- −0.0001 -->
      <g transform="translate(-10.118438 164.484628) scale(0.14 -0.14)">
       <use xlink:href="#DejaVuSans-2212"/>
       <use xlink:href="#DejaVuSans-30" transform="translate(83.789062 0)"/>
       <use xlink:href="#DejaVuSans-2e" transform="translate(147.412109 0)"/>
       <use xlink:href="#DejaVuSans-30" transform="translate(179.199219 0)"/>
       <use xlink:href="#DejaVuSans-30" transform="translate(242.822266 0)"/>
       <use xlink:href="#DejaVuSans-30" transform="translate(306.445312 0)"/>
       <use xlink:href="#DejaVuSans-31" transform="translate(370.068359 0)"/>
      </g>
     </g>
    </g>
    <g id="ytick_6">
     <g id="line2d_11">
      <g>
       <use xlink:href="#m38142a0a77" x="57.6" y="123.736885" style="stroke: #000000; stroke-width: 0.8"/>
      </g>
     </g>
     <g id="text_12">
      <!-- 0.0000 -->
      <g transform="translate(1.613125 129.055791) scale(0.14 -0.14)">
       <use xlink:href="#DejaVuSans-30"/>
       <use xlink:href="#DejaVuSans-2e" transform="translate(63.623047 0)"/>
       <use xlink:href="#DejaVuSans-30" transform="translate(95.410156 0)"/>
       <use xlink:href="#DejaVuSans-30" transform="translate(159.033203 0)"/>
       <use xlink:href="#DejaVuSans-30" transform="translate(222.65625 0)"/>
       <use xlink:href="#DejaVuSans-30" transform="translate(286.279297 0)"/>
      </g>
     </g>
    </g>
    <g id="ytick_7">
     <g id="line2d_12">
      <g>
       <use xlink:href="#m38142a0a77" x="57.6" y="88.308048" style="stroke: #000000; stroke-width: 0.8"/>
      </g>
     </g>
     <g id="text_13">
      <!-- 0.0001 -->
      <g transform="translate(1.613125 93.626954) scale(0.14 -0.14)">
       <use xlink:href="#DejaVuSans-30"/>
       <use xlink:href="#DejaVuSans-2e" transform="translate(63.623047 0)"/>
       <use xlink:href="#DejaVuSans-30" transform="translate(95.410156 0)"/>
       <use xlink:href="#DejaVuSans-30" transform="translate(159.033203 0)"/>
       <use xlink:href="#DejaVuSans-30" transform="translate(222.65625 0)"/>
       <use xlink:href="#DejaVuSans-31" transform="translate(286.279297 0)"/>
      </g>
     </g>
    </g>
    <g id="ytick_8">
     <g id="line2d_13">
      <g>
       <use xlink:href="#m38142a0a77" x="57.6" y="52.879211" style="stroke: #000000; stroke-width: 0.8"/>
      </g>
     </g>
     <g id="text_14">
      <!-- 0.0002 -->
      <g transform="translate(1.613125 58.198117) scale(0.14 -0.14)">
       <use xlink:href="#DejaVuSans-30"/>
       <use xlink:href="#DejaVuSans-2e" transform="translate(63.623047 0)"/>
       <use xlink:href="#DejaVuSans-30" transform="translate(95.410156 0)"/>
       <use xlink:href="#DejaVuSans-30" transform="translate(159.033203 0)"/>
       <use xlink:href="#DejaVuSans-30" transform="translate(222.65625 0)"/>
       <use xlink:href="#DejaVuSans-32" transform="translate(286.279297 0)"/>
      </g>
     </g>
    </g>
    <g id="text_15">
     <!-- $(F_p + F_{\bigstar})/F_{\bigstar}$ -->
     <g transform="translate(-18.458438 215.548) rotate(-90) scale(0.14 -0.14)">
      <defs>
       <path id="DejaVuSans-28" d="M 1984 4856 
Q 1566 4138 1362 3434 
Q 1159 2731 1159 2009 
Q 1159 1288 1364 580 
Q 1569 -128 1984 -844 
L 1484 -844 
Q 1016 -109 783 600 
Q 550 1309 550 2009 
Q 550 2706 781 3412 
Q 1013 4119 1484 4856 
L 1984 4856 
z
" transform="scale(0.015625)"/>
       <path id="DejaVuSans-Oblique-46" d="M 1081 4666 
L 3756 4666 
L 3653 4134 
L 1606 4134 
L 1338 2759 
L 3188 2759 
L 3084 2228 
L 1234 2228 
L 800 0 
L 172 0 
L 1081 4666 
z
" transform="scale(0.015625)"/>
       <path id="DejaVuSans-Oblique-70" d="M 3175 2156 
Q 3175 2616 2975 2859 
Q 2775 3103 2400 3103 
Q 2144 3103 1911 2972 
Q 1678 2841 1497 2591 
Q 1319 2344 1212 1994 
Q 1106 1644 1106 1300 
Q 1106 863 1306 627 
Q 1506 391 1875 391 
Q 2147 391 2380 519 
Q 2613 647 2778 891 
Q 2956 1147 3065 1494 
Q 3175 1841 3175 2156 
z
M 1394 2969 
Q 1625 3272 1939 3428 
Q 2253 3584 2638 3584 
Q 3175 3584 3472 3232 
Q 3769 2881 3769 2247 
Q 3769 1728 3584 1258 
Q 3400 788 3053 416 
Q 2822 169 2531 39 
Q 2241 -91 1919 -91 
Q 1547 -91 1294 64 
Q 1041 219 916 525 
L 556 -1331 
L -19 -1331 
L 922 3500 
L 1497 3500 
L 1394 2969 
z
" transform="scale(0.015625)"/>
       <path id="DejaVuSans-2b" d="M 2944 4013 
L 2944 2272 
L 4684 2272 
L 4684 1741 
L 2944 1741 
L 2944 0 
L 2419 0 
L 2419 1741 
L 678 1741 
L 678 2272 
L 2419 2272 
L 2419 4013 
L 2944 4013 
z
" transform="scale(0.015625)"/>
       <path id="DejaVuSans-2605" d="M 416 2850 
L 2288 2850 
L 2869 4628 
L 3453 2850 
L 5322 2850 
L 3809 1747 
L 4391 -28 
L 2869 1072 
L 1350 -28 
L 1928 1747 
L 416 2850 
z
" transform="scale(0.015625)"/>
       <path id="DejaVuSans-29" d="M 513 4856 
L 1013 4856 
Q 1481 4119 1714 3412 
Q 1947 2706 1947 2009 
Q 1947 1309 1714 600 
Q 1481 -109 1013 -844 
L 513 -844 
Q 928 -128 1133 580 
Q 1338 1288 1338 2009 
Q 1338 2731 1133 3434 
Q 928 4138 513 4856 
z
" transform="scale(0.015625)"/>
       <path id="DejaVuSans-2f" d="M 1625 4666 
L 2156 4666 
L 531 -594 
L 0 -594 
L 1625 4666 
z
" transform="scale(0.015625)"/>
      </defs>
      <use xlink:href="#DejaVuSans-28" transform="translate(0 0.125)"/>
      <use xlink:href="#DejaVuSans-Oblique-46" transform="translate(39.013672 0.125)"/>
      <use xlink:href="#DejaVuSans-Oblique-70" transform="translate(96.533203 -16.28125) scale(0.7)"/>
      <use xlink:href="#DejaVuSans-2b" transform="translate(163.183594 0.125)"/>
      <use xlink:href="#DejaVuSans-Oblique-46" transform="translate(266.455078 0.125)"/>
      <use xlink:href="#DejaVuSans-2605" transform="translate(323.974609 -16.28125) scale(0.7)"/>
      <use xlink:href="#DejaVuSans-29" transform="translate(389.462891 0.125)"/>
      <use xlink:href="#DejaVuSans-2f" transform="translate(428.476562 0.125)"/>
      <use xlink:href="#DejaVuSans-Oblique-46" transform="translate(462.167969 0.125)"/>
      <use xlink:href="#DejaVuSans-2605" transform="translate(519.6875 -16.28125) scale(0.7)"/>
     </g>
    </g>
    <g id="text_16">
     <!-- +1 -->
     <g transform="translate(57.6 38.472) scale(0.14 -0.14)">
      <use xlink:href="#DejaVuSans-2b"/>
      <use xlink:href="#DejaVuSans-31" transform="translate(83.789062 0)"/>
     </g>
    </g>
   </g>
   <g id="patch_3">
    <path d="M 57.6 307.584 
L 57.6 41.472 
" style="fill: none; stroke: #000000; stroke-width: 0.8; stroke-linejoin: miter; stroke-linecap: square"/>
   </g>
   <g id="patch_4">
    <path d="M 414.72 307.584 
L 414.72 41.472 
" style="fill: none; stroke: #000000; stroke-width: 0.8; stroke-linejoin: miter; stroke-linecap: square"/>
   </g>
   <g id="patch_5">
    <path d="M 57.6 307.584 
L 414.72 307.584 
" style="fill: none; stroke: #000000; stroke-width: 0.8; stroke-linejoin: miter; stroke-linecap: square"/>
   </g>
   <g id="patch_6">
    <path d="M 57.6 41.472 
L 414.72 41.472 
" style="fill: none; stroke: #000000; stroke-width: 0.8; stroke-linejoin: miter; stroke-linecap: square"/>
   </g>
   <g id="LineCollection_1">
    <path d="M 75.550618 100.397938 
L 75.550618 79.89058 
" clip-path="url(#p87ab75b070)" style="fill: none; stroke: #ff8000; stroke-width: 1.5"/>
    <path d="M 78.987737 95.605318 
L 78.987737 75.089977 
" clip-path="url(#p87ab75b070)" style="fill: none; stroke: #ff8000; stroke-width: 1.5"/>
    <path d="M 82.423518 87.624602 
L 82.423518 67.10926 
" clip-path="url(#p87ab75b070)" style="fill: none; stroke: #ff8000; stroke-width: 1.5"/>
    <path d="M 85.859299 90.858039 
L 85.859299 70.342697 
" clip-path="url(#p87ab75b070)" style="fill: none; stroke: #ff8000; stroke-width: 1.5"/>
    <path d="M 89.29508 74.659443 
L 89.29508 54.144102 
" clip-path="url(#p87ab75b070)" style="fill: none; stroke: #ff8000; stroke-width: 1.5"/>
    <path d="M 92.730861 74.083342 
L 92.730861 53.568 
" clip-path="url(#p87ab75b070)" style="fill: none; stroke: #ff8000; stroke-width: 1.5"/>
    <path d="M 96.166642 76.213972 
L 96.166642 55.69863 
" clip-path="url(#p87ab75b070)" style="fill: none; stroke: #ff8000; stroke-width: 1.5"/>
    <path d="M 99.602423 119.83228 
L 99.602423 99.316939 
" clip-path="url(#p87ab75b070)" style="fill: none; stroke: #ff8000; stroke-width: 1.5"/>
    <path d="M 103.038204 141.70348 
L 103.038204 121.188138 
" clip-path="url(#p87ab75b070)" style="fill: none; stroke: #ff8000; stroke-width: 1.5"/>
    <path d="M 106.473985 140.252896 
L 106.473985 119.737555 
" clip-path="url(#p87ab75b070)" style="fill: none; stroke: #ff8000; stroke-width: 1.5"/>
    <path d="M 109.909766 133.329195 
L 109.909766 112.813854 
" clip-path="url(#p87ab75b070)" style="fill: none; stroke: #ff8000; stroke-width: 1.5"/>
    <path d="M 113.345547 136.015186 
L 113.345547 115.499844 
" clip-path="url(#p87ab75b070)" style="fill: none; stroke: #ff8000; stroke-width: 1.5"/>
    <path d="M 116.781328 130.528694 
L 116.781328 110.013352 
" clip-path="url(#p87ab75b070)" style="fill: none; stroke: #ff8000; stroke-width: 1.5"/>
    <path d="M 120.218447 110.848335 
L 120.218447 90.340978 
" clip-path="url(#p87ab75b070)" style="fill: none; stroke: #ff8000; stroke-width: 1.5"/>
    <path d="M 123.655565 93.42022 
L 123.655565 72.904878 
" clip-path="url(#p87ab75b070)" style="fill: none; stroke: #ff8000; stroke-width: 1.5"/>
    <path d="M 127.091346 80.234312 
L 127.091346 59.718971 
" clip-path="url(#p87ab75b070)" style="fill: none; stroke: #ff8000; stroke-width: 1.5"/>
    <path d="M 130.527127 94.921626 
L 130.527127 74.406285 
" clip-path="url(#p87ab75b070)" style="fill: none; stroke: #ff8000; stroke-width: 1.5"/>
    <path d="M 133.962908 79.399275 
L 133.962908 58.883934 
" clip-path="url(#p87ab75b070)" style="fill: none; stroke: #ff8000; stroke-width: 1.5"/>
    <path d="M 137.398689 112.813991 
L 137.398689 92.298649 
" clip-path="url(#p87ab75b070)" style="fill: none; stroke: #ff8000; stroke-width: 1.5"/>
    <path d="M 140.83447 93.333744 
L 140.83447 72.818403 
" clip-path="url(#p87ab75b070)" style="fill: none; stroke: #ff8000; stroke-width: 1.5"/>
    <path d="M 144.270251 86.49635 
L 144.270251 65.981009 
" clip-path="url(#p87ab75b070)" style="fill: none; stroke: #ff8000; stroke-width: 1.5"/>
    <path d="M 147.706032 100.113296 
L 147.706032 79.597955 
" clip-path="url(#p87ab75b070)" style="fill: none; stroke: #ff8000; stroke-width: 1.5"/>
    <path d="M 151.141813 81.795211 
L 151.141813 61.27987 
" clip-path="url(#p87ab75b070)" style="fill: none; stroke: #ff8000; stroke-width: 1.5"/>
    <path d="M 154.577594 99.458876 
L 154.577594 78.943534 
" clip-path="url(#p87ab75b070)" style="fill: none; stroke: #ff8000; stroke-width: 1.5"/>
    <path d="M 158.013375 124.618408 
L 158.013375 104.103066 
" clip-path="url(#p87ab75b070)" style="fill: none; stroke: #ff8000; stroke-width: 1.5"/>
    <path d="M 161.449156 107.398786 
L 161.449156 86.883444 
" clip-path="url(#p87ab75b070)" style="fill: none; stroke: #ff8000; stroke-width: 1.5"/>
    <path d="M 164.884937 102.354205 
L 164.884937 81.838863 
" clip-path="url(#p87ab75b070)" style="fill: none; stroke: #ff8000; stroke-width: 1.5"/>
    <path d="M 168.322056 101.194145 
L 168.322056 80.686787 
" clip-path="url(#p87ab75b070)" style="fill: none; stroke: #ff8000; stroke-width: 1.5"/>
    <path d="M 171.759175 98.968812 
L 171.759175 78.45347 
" clip-path="url(#p87ab75b070)" style="fill: none; stroke: #ff8000; stroke-width: 1.5"/>
    <path d="M 175.194956 131.792096 
L 175.194956 111.276754 
" clip-path="url(#p87ab75b070)" style="fill: none; stroke: #ff8000; stroke-width: 1.5"/>
    <path d="M 178.630737 95.263654 
L 178.630737 74.748312 
" clip-path="url(#p87ab75b070)" style="fill: none; stroke: #ff8000; stroke-width: 1.5"/>
    <path d="M 182.066518 101.849354 
L 182.066518 81.334012 
" clip-path="url(#p87ab75b070)" style="fill: none; stroke: #ff8000; stroke-width: 1.5"/>
    <path d="M 185.502299 120.072705 
L 185.502299 99.557363 
" clip-path="url(#p87ab75b070)" style="fill: none; stroke: #ff8000; stroke-width: 1.5"/>
    <path d="M 188.93808 115.361286 
L 188.93808 94.845945 
" clip-path="url(#p87ab75b070)" style="fill: none; stroke: #ff8000; stroke-width: 1.5"/>
    <path d="M 192.373861 138.349758 
L 192.373861 117.834416 
" clip-path="url(#p87ab75b070)" style="fill: none; stroke: #ff8000; stroke-width: 1.5"/>
    <path d="M 195.809642 127.075645 
L 195.809642 106.560304 
" clip-path="url(#p87ab75b070)" style="fill: none; stroke: #ff8000; stroke-width: 1.5"/>
    <path d="M 199.245423 110.382698 
L 199.245423 89.867357 
" clip-path="url(#p87ab75b070)" style="fill: none; stroke: #ff8000; stroke-width: 1.5"/>
    <path d="M 202.681204 121.936254 
L 202.681204 101.420912 
" clip-path="url(#p87ab75b070)" style="fill: none; stroke: #ff8000; stroke-width: 1.5"/>
    <path d="M 206.116985 126.830121 
L 206.116985 106.314779 
" clip-path="url(#p87ab75b070)" style="fill: none; stroke: #ff8000; stroke-width: 1.5"/>
    <path d="M 209.552766 121.021341 
L 209.552766 100.506 
" clip-path="url(#p87ab75b070)" style="fill: none; stroke: #ff8000; stroke-width: 1.5"/>
    <path d="M 212.988547 139.077451 
L 212.988547 118.562109 
" clip-path="url(#p87ab75b070)" style="fill: none; stroke: #ff8000; stroke-width: 1.5"/>
    <path d="M 216.425666 139.775881 
L 216.425666 119.268524 
" clip-path="url(#p87ab75b070)" style="fill: none; stroke: #ff8000; stroke-width: 1.5"/>
    <path d="M 219.862785 118.932688 
L 219.862785 98.417346 
" clip-path="url(#p87ab75b070)" style="fill: none; stroke: #ff8000; stroke-width: 1.5"/>
    <path d="M 223.298566 155.936461 
L 223.298566 135.42112 
" clip-path="url(#p87ab75b070)" style="fill: none; stroke: #ff8000; stroke-width: 1.5"/>
    <path d="M 226.734347 264.468855 
L 226.734347 243.953514 
" clip-path="url(#p87ab75b070)" style="fill: none; stroke: #ff8000; stroke-width: 1.5"/>
    <path d="M 230.170128 268.992964 
L 230.170128 248.477622 
" clip-path="url(#p87ab75b070)" style="fill: none; stroke: #ff8000; stroke-width: 1.5"/>
    <path d="M 233.605909 286.43372 
L 233.605909 265.918379 
" clip-path="url(#p87ab75b070)" style="fill: none; stroke: #ff8000; stroke-width: 1.5"/>
    <path d="M 237.04169 271.675487 
L 237.04169 251.160146 
" clip-path="url(#p87ab75b070)" style="fill: none; stroke: #ff8000; stroke-width: 1.5"/>
    <path d="M 240.477471 293.890223 
L 240.477471 273.374882 
" clip-path="url(#p87ab75b070)" style="fill: none; stroke: #ff8000; stroke-width: 1.5"/>
    <path d="M 243.913252 290.710044 
L 243.913252 270.194702 
" clip-path="url(#p87ab75b070)" style="fill: none; stroke: #ff8000; stroke-width: 1.5"/>
    <path d="M 247.349033 227.081893 
L 247.349033 206.566551 
" clip-path="url(#p87ab75b070)" style="fill: none; stroke: #ff8000; stroke-width: 1.5"/>
    <path d="M 250.784814 122.618187 
L 250.784814 102.102845 
" clip-path="url(#p87ab75b070)" style="fill: none; stroke: #ff8000; stroke-width: 1.5"/>
    <path d="M 254.220595 136.165008 
L 254.220595 115.649667 
" clip-path="url(#p87ab75b070)" style="fill: none; stroke: #ff8000; stroke-width: 1.5"/>
    <path d="M 257.656376 122.248809 
L 257.656376 101.733467 
" clip-path="url(#p87ab75b070)" style="fill: none; stroke: #ff8000; stroke-width: 1.5"/>
    <path d="M 261.093495 119.605182 
L 261.093495 99.097825 
" clip-path="url(#p87ab75b070)" style="fill: none; stroke: #ff8000; stroke-width: 1.5"/>
    <path d="M 264.530614 124.357038 
L 264.530614 103.841697 
" clip-path="url(#p87ab75b070)" style="fill: none; stroke: #ff8000; stroke-width: 1.5"/>
    <path d="M 267.966395 119.484703 
L 267.966395 98.969361 
" clip-path="url(#p87ab75b070)" style="fill: none; stroke: #ff8000; stroke-width: 1.5"/>
    <path d="M 271.402176 129.409863 
L 271.402176 108.894521 
" clip-path="url(#p87ab75b070)" style="fill: none; stroke: #ff8000; stroke-width: 1.5"/>
    <path d="M 274.837957 106.898051 
L 274.837957 86.382709 
" clip-path="url(#p87ab75b070)" style="fill: none; stroke: #ff8000; stroke-width: 1.5"/>
    <path d="M 278.273738 113.267118 
L 278.273738 92.751777 
" clip-path="url(#p87ab75b070)" style="fill: none; stroke: #ff8000; stroke-width: 1.5"/>
    <path d="M 281.709519 124.93942 
L 281.709519 104.424079 
" clip-path="url(#p87ab75b070)" style="fill: none; stroke: #ff8000; stroke-width: 1.5"/>
    <path d="M 285.1453 136.18405 
L 285.1453 115.668708 
" clip-path="url(#p87ab75b070)" style="fill: none; stroke: #ff8000; stroke-width: 1.5"/>
    <path d="M 288.581081 101.642155 
L 288.581081 81.126814 
" clip-path="url(#p87ab75b070)" style="fill: none; stroke: #ff8000; stroke-width: 1.5"/>
    <path d="M 292.016862 112.842635 
L 292.016862 92.327293 
" clip-path="url(#p87ab75b070)" style="fill: none; stroke: #ff8000; stroke-width: 1.5"/>
    <path d="M 295.452643 108.727296 
L 295.452643 88.211955 
" clip-path="url(#p87ab75b070)" style="fill: none; stroke: #ff8000; stroke-width: 1.5"/>
    <path d="M 298.888424 127.515207 
L 298.888424 106.999866 
" clip-path="url(#p87ab75b070)" style="fill: none; stroke: #ff8000; stroke-width: 1.5"/>
    <path d="M 302.324205 119.2089 
L 302.324205 98.693558 
" clip-path="url(#p87ab75b070)" style="fill: none; stroke: #ff8000; stroke-width: 1.5"/>
    <path d="M 305.759986 114.022369 
L 305.759986 93.507027 
" clip-path="url(#p87ab75b070)" style="fill: none; stroke: #ff8000; stroke-width: 1.5"/>
    <path d="M 309.197105 108.215825 
L 309.197105 87.708468 
" clip-path="url(#p87ab75b070)" style="fill: none; stroke: #ff8000; stroke-width: 1.5"/>
    <path d="M 312.634223 109.141396 
L 312.634223 88.626054 
" clip-path="url(#p87ab75b070)" style="fill: none; stroke: #ff8000; stroke-width: 1.5"/>
    <path d="M 316.070004 89.253661 
L 316.070004 68.73832 
" clip-path="url(#p87ab75b070)" style="fill: none; stroke: #ff8000; stroke-width: 1.5"/>
    <path d="M 319.505785 100.940966 
L 319.505785 80.425624 
" clip-path="url(#p87ab75b070)" style="fill: none; stroke: #ff8000; stroke-width: 1.5"/>
    <path d="M 322.941566 108.260684 
L 322.941566 87.745343 
" clip-path="url(#p87ab75b070)" style="fill: none; stroke: #ff8000; stroke-width: 1.5"/>
    <path d="M 326.377347 92.221694 
L 326.377347 71.706352 
" clip-path="url(#p87ab75b070)" style="fill: none; stroke: #ff8000; stroke-width: 1.5"/>
    <path d="M 329.813128 85.243535 
L 329.813128 64.728193 
" clip-path="url(#p87ab75b070)" style="fill: none; stroke: #ff8000; stroke-width: 1.5"/>
    <path d="M 333.248909 95.251477 
L 333.248909 74.736136 
" clip-path="url(#p87ab75b070)" style="fill: none; stroke: #ff8000; stroke-width: 1.5"/>
    <path d="M 336.68469 108.534287 
L 336.68469 88.018946 
" clip-path="url(#p87ab75b070)" style="fill: none; stroke: #ff8000; stroke-width: 1.5"/>
    <path d="M 340.120471 100.807122 
L 340.120471 80.29178 
" clip-path="url(#p87ab75b070)" style="fill: none; stroke: #ff8000; stroke-width: 1.5"/>
    <path d="M 343.556252 92.255683 
L 343.556252 71.740341 
" clip-path="url(#p87ab75b070)" style="fill: none; stroke: #ff8000; stroke-width: 1.5"/>
    <path d="M 346.992033 91.326258 
L 346.992033 70.810916 
" clip-path="url(#p87ab75b070)" style="fill: none; stroke: #ff8000; stroke-width: 1.5"/>
    <path d="M 350.427814 100.519069 
L 350.427814 80.003728 
" clip-path="url(#p87ab75b070)" style="fill: none; stroke: #ff8000; stroke-width: 1.5"/>
    <path d="M 353.863595 136.64942 
L 353.863595 116.134078 
" clip-path="url(#p87ab75b070)" style="fill: none; stroke: #ff8000; stroke-width: 1.5"/>
    <path d="M 357.300714 137.454493 
L 357.300714 116.947136 
" clip-path="url(#p87ab75b070)" style="fill: none; stroke: #ff8000; stroke-width: 1.5"/>
    <path d="M 360.737833 126.81143 
L 360.737833 106.296089 
" clip-path="url(#p87ab75b070)" style="fill: none; stroke: #ff8000; stroke-width: 1.5"/>
    <path d="M 364.173614 133.837899 
L 364.173614 113.322557 
" clip-path="url(#p87ab75b070)" style="fill: none; stroke: #ff8000; stroke-width: 1.5"/>
    <path d="M 367.609395 122.525477 
L 367.609395 102.010135 
" clip-path="url(#p87ab75b070)" style="fill: none; stroke: #ff8000; stroke-width: 1.5"/>
    <path d="M 371.045176 120.475713 
L 371.045176 99.960372 
" clip-path="url(#p87ab75b070)" style="fill: none; stroke: #ff8000; stroke-width: 1.5"/>
    <path d="M 374.480957 116.857992 
L 374.480957 96.34265 
" clip-path="url(#p87ab75b070)" style="fill: none; stroke: #ff8000; stroke-width: 1.5"/>
    <path d="M 377.916738 89.839396 
L 377.916738 69.324054 
" clip-path="url(#p87ab75b070)" style="fill: none; stroke: #ff8000; stroke-width: 1.5"/>
    <path d="M 381.352519 87.262511 
L 381.352519 66.747169 
" clip-path="url(#p87ab75b070)" style="fill: none; stroke: #ff8000; stroke-width: 1.5"/>
    <path d="M 384.7883 75.808608 
L 384.7883 55.293267 
" clip-path="url(#p87ab75b070)" style="fill: none; stroke: #ff8000; stroke-width: 1.5"/>
    <path d="M 388.224081 95.700021 
L 388.224081 75.18468 
" clip-path="url(#p87ab75b070)" style="fill: none; stroke: #ff8000; stroke-width: 1.5"/>
    <path d="M 391.659862 82.507891 
L 391.659862 61.992549 
" clip-path="url(#p87ab75b070)" style="fill: none; stroke: #ff8000; stroke-width: 1.5"/>
    <path d="M 395.095643 94.00395 
L 395.095643 73.488608 
" clip-path="url(#p87ab75b070)" style="fill: none; stroke: #ff8000; stroke-width: 1.5"/>
    <path d="M 397.651072 87.393413 
L 397.651072 58.011904 
" clip-path="url(#p87ab75b070)" style="fill: none; stroke: #ff8000; stroke-width: 1.5"/>
   </g>
   <g id="text_17">
    <!-- Phase curve at $\lambda$ = 5.96 $\mu$m with RS-CH -->
    <g transform="translate(77.2 21.834187) scale(0.16 -0.16)">
     <defs>
      <path id="DejaVuSans-50" d="M 1259 4147 
L 1259 2394 
L 2053 2394 
Q 2494 2394 2734 2622 
Q 2975 2850 2975 3272 
Q 2975 3691 2734 3919 
Q 2494 4147 2053 4147 
L 1259 4147 
z
M 628 4666 
L 2053 4666 
Q 2838 4666 3239 4311 
Q 3641 3956 3641 3272 
Q 3641 2581 3239 2228 
Q 2838 1875 2053 1875 
L 1259 1875 
L 1259 0 
L 628 0 
L 628 4666 
z
" transform="scale(0.015625)"/>
      <path id="DejaVuSans-68" d="M 3513 2113 
L 3513 0 
L 2938 0 
L 2938 2094 
Q 2938 2591 2744 2837 
Q 2550 3084 2163 3084 
Q 1697 3084 1428 2787 
Q 1159 2491 1159 1978 
L 1159 0 
L 581 0 
L 581 4863 
L 1159 4863 
L 1159 2956 
Q 1366 3272 1645 3428 
Q 1925 3584 2291 3584 
Q 2894 3584 3203 3211 
Q 3513 2838 3513 2113 
z
" transform="scale(0.015625)"/>
      <path id="DejaVuSans-61" d="M 2194 1759 
Q 1497 1759 1228 1600 
Q 959 1441 959 1056 
Q 959 750 1161 570 
Q 1363 391 1709 391 
Q 2188 391 2477 730 
Q 2766 1069 2766 1631 
L 2766 1759 
L 2194 1759 
z
M 3341 1997 
L 3341 0 
L 2766 0 
L 2766 531 
Q 2569 213 2275 61 
Q 1981 -91 1556 -91 
Q 1019 -91 701 211 
Q 384 513 384 1019 
Q 384 1609 779 1909 
Q 1175 2209 1959 2209 
L 2766 2209 
L 2766 2266 
Q 2766 2663 2505 2880 
Q 2244 3097 1772 3097 
Q 1472 3097 1187 3025 
Q 903 2953 641 2809 
L 641 3341 
Q 956 3463 1253 3523 
Q 1550 3584 1831 3584 
Q 2591 3584 2966 3190 
Q 3341 2797 3341 1997 
z
" transform="scale(0.015625)"/>
      <path id="DejaVuSans-73" d="M 2834 3397 
L 2834 2853 
Q 2591 2978 2328 3040 
Q 2066 3103 1784 3103 
Q 1356 3103 1142 2972 
Q 928 2841 928 2578 
Q 928 2378 1081 2264 
Q 1234 2150 1697 2047 
L 1894 2003 
Q 2506 1872 2764 1633 
Q 3022 1394 3022 966 
Q 3022 478 2636 193 
Q 2250 -91 1575 -91 
Q 1294 -91 989 -36 
Q 684 19 347 128 
L 347 722 
Q 666 556 975 473 
Q 1284 391 1588 391 
Q 1994 391 2212 530 
Q 2431 669 2431 922 
Q 2431 1156 2273 1281 
Q 2116 1406 1581 1522 
L 1381 1569 
Q 847 1681 609 1914 
Q 372 2147 372 2553 
Q 372 3047 722 3315 
Q 1072 3584 1716 3584 
Q 2034 3584 2315 3537 
Q 2597 3491 2834 3397 
z
" transform="scale(0.015625)"/>
      <path id="DejaVuSans-65" d="M 3597 1894 
L 3597 1613 
L 953 1613 
Q 991 1019 1311 708 
Q 1631 397 2203 397 
Q 2534 397 2845 478 
Q 3156 559 3463 722 
L 3463 178 
Q 3153 47 2828 -22 
Q 2503 -91 2169 -91 
Q 1331 -91 842 396 
Q 353 884 353 1716 
Q 353 2575 817 3079 
Q 1281 3584 2069 3584 
Q 2775 3584 3186 3129 
Q 3597 2675 3597 1894 
z
M 3022 2063 
Q 3016 2534 2758 2815 
Q 2500 3097 2075 3097 
Q 1594 3097 1305 2825 
Q 1016 2553 972 2059 
L 3022 2063 
z
" transform="scale(0.015625)"/>
      <path id="DejaVuSans-63" d="M 3122 3366 
L 3122 2828 
Q 2878 2963 2633 3030 
Q 2388 3097 2138 3097 
Q 1578 3097 1268 2742 
Q 959 2388 959 1747 
Q 959 1106 1268 751 
Q 1578 397 2138 397 
Q 2388 397 2633 464 
Q 2878 531 3122 666 
L 3122 134 
Q 2881 22 2623 -34 
Q 2366 -91 2075 -91 
Q 1284 -91 818 406 
Q 353 903 353 1747 
Q 353 2603 823 3093 
Q 1294 3584 2113 3584 
Q 2378 3584 2631 3529 
Q 2884 3475 3122 3366 
z
" transform="scale(0.015625)"/>
      <path id="DejaVuSans-75" d="M 544 1381 
L 544 3500 
L 1119 3500 
L 1119 1403 
Q 1119 906 1312 657 
Q 1506 409 1894 409 
Q 2359 409 2629 706 
Q 2900 1003 2900 1516 
L 2900 3500 
L 3475 3500 
L 3475 0 
L 2900 0 
L 2900 538 
Q 2691 219 2414 64 
Q 2138 -91 1772 -91 
Q 1169 -91 856 284 
Q 544 659 544 1381 
z
M 1991 3584 
L 1991 3584 
z
" transform="scale(0.015625)"/>
      <path id="DejaVuSans-72" d="M 2631 2963 
Q 2534 3019 2420 3045 
Q 2306 3072 2169 3072 
Q 1681 3072 1420 2755 
Q 1159 2438 1159 1844 
L 1159 0 
L 581 0 
L 581 3500 
L 1159 3500 
L 1159 2956 
Q 1341 3275 1631 3429 
Q 1922 3584 2338 3584 
Q 2397 3584 2469 3576 
Q 2541 3569 2628 3553 
L 2631 2963 
z
" transform="scale(0.015625)"/>
      <path id="DejaVuSans-76" d="M 191 3500 
L 800 3500 
L 1894 563 
L 2988 3500 
L 3597 3500 
L 2284 0 
L 1503 0 
L 191 3500 
z
" transform="scale(0.015625)"/>
      <path id="DejaVuSans-74" d="M 1172 4494 
L 1172 3500 
L 2356 3500 
L 2356 3053 
L 1172 3053 
L 1172 1153 
Q 1172 725 1289 603 
Q 1406 481 1766 481 
L 2356 481 
L 2356 0 
L 1766 0 
Q 1100 0 847 248 
Q 594 497 594 1153 
L 594 3053 
L 172 3053 
L 172 3500 
L 594 3500 
L 594 4494 
L 1172 4494 
z
" transform="scale(0.015625)"/>
      <path id="DejaVuSans-Oblique-3bb" d="M 2350 4316 
L 3125 0 
L 2516 0 
L 2038 2588 
L 328 0 
L -281 0 
L 1903 3356 
L 1794 3975 
Q 1725 4369 1391 4369 
L 1091 4369 
L 1184 4863 
L 1550 4856 
Q 2253 4847 2350 4316 
z
" transform="scale(0.015625)"/>
      <path id="DejaVuSans-3d" d="M 678 2906 
L 4684 2906 
L 4684 2381 
L 678 2381 
L 678 2906 
z
M 678 1631 
L 4684 1631 
L 4684 1100 
L 678 1100 
L 678 1631 
z
" transform="scale(0.015625)"/>
      <path id="DejaVuSans-Oblique-3bc" d="M -84 -1331 
L 856 3500 
L 1434 3500 
L 1009 1322 
Q 997 1256 987 1175 
Q 978 1094 978 1013 
Q 978 722 1161 565 
Q 1344 409 1684 409 
Q 2147 409 2431 671 
Q 2716 934 2816 1459 
L 3213 3500 
L 3788 3500 
L 3266 809 
Q 3253 750 3248 706 
Q 3244 663 3244 628 
Q 3244 531 3283 486 
Q 3322 441 3406 441 
Q 3438 441 3492 456 
Q 3547 472 3647 513 
L 3559 50 
Q 3422 -19 3297 -55 
Q 3172 -91 3053 -91 
Q 2847 -91 2730 40 
Q 2613 172 2613 403 
Q 2438 153 2195 31 
Q 1953 -91 1625 -91 
Q 1334 -91 1117 43 
Q 900 178 831 397 
L 494 -1331 
L -84 -1331 
z
" transform="scale(0.015625)"/>
      <path id="DejaVuSans-6d" d="M 3328 2828 
Q 3544 3216 3844 3400 
Q 4144 3584 4550 3584 
Q 5097 3584 5394 3201 
Q 5691 2819 5691 2113 
L 5691 0 
L 5113 0 
L 5113 2094 
Q 5113 2597 4934 2840 
Q 4756 3084 4391 3084 
Q 3944 3084 3684 2787 
Q 3425 2491 3425 1978 
L 3425 0 
L 2847 0 
L 2847 2094 
Q 2847 2600 2669 2842 
Q 2491 3084 2119 3084 
Q 1678 3084 1418 2786 
Q 1159 2488 1159 1978 
L 1159 0 
L 581 0 
L 581 3500 
L 1159 3500 
L 1159 2956 
Q 1356 3278 1631 3431 
Q 1906 3584 2284 3584 
Q 2666 3584 2933 3390 
Q 3200 3197 3328 2828 
z
" transform="scale(0.015625)"/>
      <path id="DejaVuSans-77" d="M 269 3500 
L 844 3500 
L 1563 769 
L 2278 3500 
L 2956 3500 
L 3675 769 
L 4391 3500 
L 4966 3500 
L 4050 0 
L 3372 0 
L 2619 2869 
L 1863 0 
L 1184 0 
L 269 3500 
z
" transform="scale(0.015625)"/>
      <path id="DejaVuSans-69" d="M 603 3500 
L 1178 3500 
L 1178 0 
L 603 0 
L 603 3500 
z
M 603 4863 
L 1178 4863 
L 1178 4134 
L 603 4134 
L 603 4863 
z
" transform="scale(0.015625)"/>
      <path id="DejaVuSans-52" d="M 2841 2188 
Q 3044 2119 3236 1894 
Q 3428 1669 3622 1275 
L 4263 0 
L 3584 0 
L 2988 1197 
Q 2756 1666 2539 1819 
Q 2322 1972 1947 1972 
L 1259 1972 
L 1259 0 
L 628 0 
L 628 4666 
L 2053 4666 
Q 2853 4666 3247 4331 
Q 3641 3997 3641 3322 
Q 3641 2881 3436 2590 
Q 3231 2300 2841 2188 
z
M 1259 4147 
L 1259 2491 
L 2053 2491 
Q 2509 2491 2742 2702 
Q 2975 2913 2975 3322 
Q 2975 3731 2742 3939 
Q 2509 4147 2053 4147 
L 1259 4147 
z
" transform="scale(0.015625)"/>
      <path id="DejaVuSans-53" d="M 3425 4513 
L 3425 3897 
Q 3066 4069 2747 4153 
Q 2428 4238 2131 4238 
Q 1616 4238 1336 4038 
Q 1056 3838 1056 3469 
Q 1056 3159 1242 3001 
Q 1428 2844 1947 2747 
L 2328 2669 
Q 3034 2534 3370 2195 
Q 3706 1856 3706 1288 
Q 3706 609 3251 259 
Q 2797 -91 1919 -91 
Q 1588 -91 1214 -16 
Q 841 59 441 206 
L 441 856 
Q 825 641 1194 531 
Q 1563 422 1919 422 
Q 2459 422 2753 634 
Q 3047 847 3047 1241 
Q 3047 1584 2836 1778 
Q 2625 1972 2144 2069 
L 1759 2144 
Q 1053 2284 737 2584 
Q 422 2884 422 3419 
Q 422 4038 858 4394 
Q 1294 4750 2059 4750 
Q 2388 4750 2728 4690 
Q 3069 4631 3425 4513 
z
" transform="scale(0.015625)"/>
      <path id="DejaVuSans-43" d="M 4122 4306 
L 4122 3641 
Q 3803 3938 3442 4084 
Q 3081 4231 2675 4231 
Q 1875 4231 1450 3742 
Q 1025 3253 1025 2328 
Q 1025 1406 1450 917 
Q 1875 428 2675 428 
Q 3081 428 3442 575 
Q 3803 722 4122 1019 
L 4122 359 
Q 3791 134 3420 21 
Q 3050 -91 2638 -91 
Q 1578 -91 968 557 
Q 359 1206 359 2328 
Q 359 3453 968 4101 
Q 1578 4750 2638 4750 
Q 3056 4750 3426 4639 
Q 3797 4528 4122 4306 
z
" transform="scale(0.015625)"/>
      <path id="DejaVuSans-48" d="M 628 4666 
L 1259 4666 
L 1259 2753 
L 3553 2753 
L 3553 4666 
L 4184 4666 
L 4184 0 
L 3553 0 
L 3553 2222 
L 1259 2222 
L 1259 0 
L 628 0 
L 628 4666 
z
" transform="scale(0.015625)"/>
     </defs>
     <use xlink:href="#DejaVuSans-50" transform="translate(0 0.015625)"/>
     <use xlink:href="#DejaVuSans-68" transform="translate(60.302734 0.015625)"/>
     <use xlink:href="#DejaVuSans-61" transform="translate(123.681641 0.015625)"/>
     <use xlink:href="#DejaVuSans-73" transform="translate(184.960938 0.015625)"/>
     <use xlink:href="#DejaVuSans-65" transform="translate(237.060547 0.015625)"/>
     <use xlink:href="#DejaVuSans-20" transform="translate(298.583984 0.015625)"/>
     <use xlink:href="#DejaVuSans-63" transform="translate(330.371094 0.015625)"/>
     <use xlink:href="#DejaVuSans-75" transform="translate(385.351562 0.015625)"/>
     <use xlink:href="#DejaVuSans-72" transform="translate(448.730469 0.015625)"/>
     <use xlink:href="#DejaVuSans-76" transform="translate(489.84375 0.015625)"/>
     <use xlink:href="#DejaVuSans-65" transform="translate(549.023438 0.015625)"/>
     <use xlink:href="#DejaVuSans-20" transform="translate(610.546875 0.015625)"/>
     <use xlink:href="#DejaVuSans-61" transform="translate(642.333984 0.015625)"/>
     <use xlink:href="#DejaVuSans-74" transform="translate(703.613281 0.015625)"/>
     <use xlink:href="#DejaVuSans-20" transform="translate(742.822266 0.015625)"/>
     <use xlink:href="#DejaVuSans-Oblique-3bb" transform="translate(774.609375 0.015625)"/>
     <use xlink:href="#DejaVuSans-20" transform="translate(833.789062 0.015625)"/>
     <use xlink:href="#DejaVuSans-3d" transform="translate(865.576172 0.015625)"/>
     <use xlink:href="#DejaVuSans-20" transform="translate(949.365234 0.015625)"/>
     <use xlink:href="#DejaVuSans-35" transform="translate(981.152344 0.015625)"/>
     <use xlink:href="#DejaVuSans-2e" transform="translate(1044.775391 0.015625)"/>
     <use xlink:href="#DejaVuSans-39" transform="translate(1076.5625 0.015625)"/>
     <use xlink:href="#DejaVuSans-36" transform="translate(1140.185547 0.015625)"/>
     <use xlink:href="#DejaVuSans-20" transform="translate(1203.808594 0.015625)"/>
     <use xlink:href="#DejaVuSans-Oblique-3bc" transform="translate(1235.595703 0.015625)"/>
     <use xlink:href="#DejaVuSans-6d" transform="translate(1299.21875 0.015625)"/>
     <use xlink:href="#DejaVuSans-20" transform="translate(1396.630859 0.015625)"/>
     <use xlink:href="#DejaVuSans-77" transform="translate(1428.417969 0.015625)"/>
     <use xlink:href="#DejaVuSans-69" transform="translate(1510.205078 0.015625)"/>
     <use xlink:href="#DejaVuSans-74" transform="translate(1537.988281 0.015625)"/>
     <use xlink:href="#DejaVuSans-68" transform="translate(1577.197266 0.015625)"/>
     <use xlink:href="#DejaVuSans-20" transform="translate(1640.576172 0.015625)"/>
     <use xlink:href="#DejaVuSans-52" transform="translate(1672.363281 0.015625)"/>
     <use xlink:href="#DejaVuSans-53" transform="translate(1741.845703 0.015625)"/>
     <use xlink:href="#DejaVuSans-2d" transform="translate(1805.322266 0.015625)"/>
     <use xlink:href="#DejaVuSans-43" transform="translate(1841.40625 0.015625)"/>
     <use xlink:href="#DejaVuSans-48" transform="translate(1911.230469 0.015625)"/>
    </g>
   </g>
   <g id="line2d_14">
    <defs>
     <path id="mf2c6e5a69a" d="M 0 3 
C 0.795609 3 1.55874 2.683901 2.12132 2.12132 
C 2.683901 1.55874 3 0.795609 3 0 
C 3 -0.795609 2.683901 -1.55874 2.12132 -2.12132 
C 1.55874 -2.683901 0.795609 -3 0 -3 
C -0.795609 -3 -1.55874 -2.683901 -2.12132 -2.12132 
C -2.683901 -1.55874 -3 -0.795609 -3 0 
C -3 0.795609 -2.683901 1.55874 -2.12132 2.12132 
C -1.55874 2.683901 -0.795609 3 0 3 
z
" style="stroke: #ff8000"/>
    </defs>
    <g clip-path="url(#p87ab75b070)">
     <use xlink:href="#mf2c6e5a69a" x="75.550618" y="90.144259" style="fill: #ff8000; stroke: #ff8000"/>
     <use xlink:href="#mf2c6e5a69a" x="78.987737" y="85.347648" style="fill: #ff8000; stroke: #ff8000"/>
     <use xlink:href="#mf2c6e5a69a" x="82.423518" y="77.366931" style="fill: #ff8000; stroke: #ff8000"/>
     <use xlink:href="#mf2c6e5a69a" x="85.859299" y="80.600368" style="fill: #ff8000; stroke: #ff8000"/>
     <use xlink:href="#mf2c6e5a69a" x="89.29508" y="64.401772" style="fill: #ff8000; stroke: #ff8000"/>
     <use xlink:href="#mf2c6e5a69a" x="92.730861" y="63.825671" style="fill: #ff8000; stroke: #ff8000"/>
     <use xlink:href="#mf2c6e5a69a" x="96.166642" y="65.956301" style="fill: #ff8000; stroke: #ff8000"/>
     <use xlink:href="#mf2c6e5a69a" x="99.602423" y="109.57461" style="fill: #ff8000; stroke: #ff8000"/>
     <use xlink:href="#mf2c6e5a69a" x="103.038204" y="131.445809" style="fill: #ff8000; stroke: #ff8000"/>
     <use xlink:href="#mf2c6e5a69a" x="106.473985" y="129.995226" style="fill: #ff8000; stroke: #ff8000"/>
     <use xlink:href="#mf2c6e5a69a" x="109.909766" y="123.071525" style="fill: #ff8000; stroke: #ff8000"/>
     <use xlink:href="#mf2c6e5a69a" x="113.345547" y="125.757515" style="fill: #ff8000; stroke: #ff8000"/>
     <use xlink:href="#mf2c6e5a69a" x="116.781328" y="120.271023" style="fill: #ff8000; stroke: #ff8000"/>
     <use xlink:href="#mf2c6e5a69a" x="120.218447" y="100.594656" style="fill: #ff8000; stroke: #ff8000"/>
     <use xlink:href="#mf2c6e5a69a" x="123.655565" y="83.162549" style="fill: #ff8000; stroke: #ff8000"/>
     <use xlink:href="#mf2c6e5a69a" x="127.091346" y="69.976641" style="fill: #ff8000; stroke: #ff8000"/>
     <use xlink:href="#mf2c6e5a69a" x="130.527127" y="84.663956" style="fill: #ff8000; stroke: #ff8000"/>
     <use xlink:href="#mf2c6e5a69a" x="133.962908" y="69.141604" style="fill: #ff8000; stroke: #ff8000"/>
     <use xlink:href="#mf2c6e5a69a" x="137.398689" y="102.55632" style="fill: #ff8000; stroke: #ff8000"/>
     <use xlink:href="#mf2c6e5a69a" x="140.83447" y="83.076074" style="fill: #ff8000; stroke: #ff8000"/>
     <use xlink:href="#mf2c6e5a69a" x="144.270251" y="76.23868" style="fill: #ff8000; stroke: #ff8000"/>
     <use xlink:href="#mf2c6e5a69a" x="147.706032" y="89.855625" style="fill: #ff8000; stroke: #ff8000"/>
     <use xlink:href="#mf2c6e5a69a" x="151.141813" y="71.53754" style="fill: #ff8000; stroke: #ff8000"/>
     <use xlink:href="#mf2c6e5a69a" x="154.577594" y="89.201205" style="fill: #ff8000; stroke: #ff8000"/>
     <use xlink:href="#mf2c6e5a69a" x="158.013375" y="114.360737" style="fill: #ff8000; stroke: #ff8000"/>
     <use xlink:href="#mf2c6e5a69a" x="161.449156" y="97.141115" style="fill: #ff8000; stroke: #ff8000"/>
     <use xlink:href="#mf2c6e5a69a" x="164.884937" y="92.096534" style="fill: #ff8000; stroke: #ff8000"/>
     <use xlink:href="#mf2c6e5a69a" x="168.322056" y="90.940466" style="fill: #ff8000; stroke: #ff8000"/>
     <use xlink:href="#mf2c6e5a69a" x="171.759175" y="88.711141" style="fill: #ff8000; stroke: #ff8000"/>
     <use xlink:href="#mf2c6e5a69a" x="175.194956" y="121.534425" style="fill: #ff8000; stroke: #ff8000"/>
     <use xlink:href="#mf2c6e5a69a" x="178.630737" y="85.005983" style="fill: #ff8000; stroke: #ff8000"/>
     <use xlink:href="#mf2c6e5a69a" x="182.066518" y="91.591683" style="fill: #ff8000; stroke: #ff8000"/>
     <use xlink:href="#mf2c6e5a69a" x="185.502299" y="109.815034" style="fill: #ff8000; stroke: #ff8000"/>
     <use xlink:href="#mf2c6e5a69a" x="188.93808" y="105.103615" style="fill: #ff8000; stroke: #ff8000"/>
     <use xlink:href="#mf2c6e5a69a" x="192.373861" y="128.092087" style="fill: #ff8000; stroke: #ff8000"/>
     <use xlink:href="#mf2c6e5a69a" x="195.809642" y="116.817974" style="fill: #ff8000; stroke: #ff8000"/>
     <use xlink:href="#mf2c6e5a69a" x="199.245423" y="100.125027" style="fill: #ff8000; stroke: #ff8000"/>
     <use xlink:href="#mf2c6e5a69a" x="202.681204" y="111.678583" style="fill: #ff8000; stroke: #ff8000"/>
     <use xlink:href="#mf2c6e5a69a" x="206.116985" y="116.57245" style="fill: #ff8000; stroke: #ff8000"/>
     <use xlink:href="#mf2c6e5a69a" x="209.552766" y="110.763671" style="fill: #ff8000; stroke: #ff8000"/>
     <use xlink:href="#mf2c6e5a69a" x="212.988547" y="128.81978" style="fill: #ff8000; stroke: #ff8000"/>
     <use xlink:href="#mf2c6e5a69a" x="216.425666" y="129.522202" style="fill: #ff8000; stroke: #ff8000"/>
     <use xlink:href="#mf2c6e5a69a" x="219.862785" y="108.675017" style="fill: #ff8000; stroke: #ff8000"/>
     <use xlink:href="#mf2c6e5a69a" x="223.298566" y="145.67879" style="fill: #ff8000; stroke: #ff8000"/>
     <use xlink:href="#mf2c6e5a69a" x="226.734347" y="254.211184" style="fill: #ff8000; stroke: #ff8000"/>
     <use xlink:href="#mf2c6e5a69a" x="230.170128" y="258.735293" style="fill: #ff8000; stroke: #ff8000"/>
     <use xlink:href="#mf2c6e5a69a" x="233.605909" y="276.17605" style="fill: #ff8000; stroke: #ff8000"/>
     <use xlink:href="#mf2c6e5a69a" x="237.04169" y="261.417817" style="fill: #ff8000; stroke: #ff8000"/>
     <use xlink:href="#mf2c6e5a69a" x="240.477471" y="283.632553" style="fill: #ff8000; stroke: #ff8000"/>
     <use xlink:href="#mf2c6e5a69a" x="243.913252" y="280.452373" style="fill: #ff8000; stroke: #ff8000"/>
     <use xlink:href="#mf2c6e5a69a" x="247.349033" y="216.824222" style="fill: #ff8000; stroke: #ff8000"/>
     <use xlink:href="#mf2c6e5a69a" x="250.784814" y="112.360516" style="fill: #ff8000; stroke: #ff8000"/>
     <use xlink:href="#mf2c6e5a69a" x="254.220595" y="125.907338" style="fill: #ff8000; stroke: #ff8000"/>
     <use xlink:href="#mf2c6e5a69a" x="257.656376" y="111.991138" style="fill: #ff8000; stroke: #ff8000"/>
     <use xlink:href="#mf2c6e5a69a" x="261.093495" y="109.351504" style="fill: #ff8000; stroke: #ff8000"/>
     <use xlink:href="#mf2c6e5a69a" x="264.530614" y="114.099367" style="fill: #ff8000; stroke: #ff8000"/>
     <use xlink:href="#mf2c6e5a69a" x="267.966395" y="109.227032" style="fill: #ff8000; stroke: #ff8000"/>
     <use xlink:href="#mf2c6e5a69a" x="271.402176" y="119.152192" style="fill: #ff8000; stroke: #ff8000"/>
     <use xlink:href="#mf2c6e5a69a" x="274.837957" y="96.64038" style="fill: #ff8000; stroke: #ff8000"/>
     <use xlink:href="#mf2c6e5a69a" x="278.273738" y="103.009447" style="fill: #ff8000; stroke: #ff8000"/>
     <use xlink:href="#mf2c6e5a69a" x="281.709519" y="114.68175" style="fill: #ff8000; stroke: #ff8000"/>
     <use xlink:href="#mf2c6e5a69a" x="285.1453" y="125.926379" style="fill: #ff8000; stroke: #ff8000"/>
     <use xlink:href="#mf2c6e5a69a" x="288.581081" y="91.384485" style="fill: #ff8000; stroke: #ff8000"/>
     <use xlink:href="#mf2c6e5a69a" x="292.016862" y="102.584964" style="fill: #ff8000; stroke: #ff8000"/>
     <use xlink:href="#mf2c6e5a69a" x="295.452643" y="98.469625" style="fill: #ff8000; stroke: #ff8000"/>
     <use xlink:href="#mf2c6e5a69a" x="298.888424" y="117.257536" style="fill: #ff8000; stroke: #ff8000"/>
     <use xlink:href="#mf2c6e5a69a" x="302.324205" y="108.951229" style="fill: #ff8000; stroke: #ff8000"/>
     <use xlink:href="#mf2c6e5a69a" x="305.759986" y="103.764698" style="fill: #ff8000; stroke: #ff8000"/>
     <use xlink:href="#mf2c6e5a69a" x="309.197105" y="97.962146" style="fill: #ff8000; stroke: #ff8000"/>
     <use xlink:href="#mf2c6e5a69a" x="312.634223" y="98.883725" style="fill: #ff8000; stroke: #ff8000"/>
     <use xlink:href="#mf2c6e5a69a" x="316.070004" y="78.995991" style="fill: #ff8000; stroke: #ff8000"/>
     <use xlink:href="#mf2c6e5a69a" x="319.505785" y="90.683295" style="fill: #ff8000; stroke: #ff8000"/>
     <use xlink:href="#mf2c6e5a69a" x="322.941566" y="98.003013" style="fill: #ff8000; stroke: #ff8000"/>
     <use xlink:href="#mf2c6e5a69a" x="326.377347" y="81.964023" style="fill: #ff8000; stroke: #ff8000"/>
     <use xlink:href="#mf2c6e5a69a" x="329.813128" y="74.985864" style="fill: #ff8000; stroke: #ff8000"/>
     <use xlink:href="#mf2c6e5a69a" x="333.248909" y="84.993807" style="fill: #ff8000; stroke: #ff8000"/>
     <use xlink:href="#mf2c6e5a69a" x="336.68469" y="98.276617" style="fill: #ff8000; stroke: #ff8000"/>
     <use xlink:href="#mf2c6e5a69a" x="340.120471" y="90.549451" style="fill: #ff8000; stroke: #ff8000"/>
     <use xlink:href="#mf2c6e5a69a" x="343.556252" y="81.998012" style="fill: #ff8000; stroke: #ff8000"/>
     <use xlink:href="#mf2c6e5a69a" x="346.992033" y="81.068587" style="fill: #ff8000; stroke: #ff8000"/>
     <use xlink:href="#mf2c6e5a69a" x="350.427814" y="90.261398" style="fill: #ff8000; stroke: #ff8000"/>
     <use xlink:href="#mf2c6e5a69a" x="353.863595" y="126.391749" style="fill: #ff8000; stroke: #ff8000"/>
     <use xlink:href="#mf2c6e5a69a" x="357.300714" y="127.200814" style="fill: #ff8000; stroke: #ff8000"/>
     <use xlink:href="#mf2c6e5a69a" x="360.737833" y="116.553759" style="fill: #ff8000; stroke: #ff8000"/>
     <use xlink:href="#mf2c6e5a69a" x="364.173614" y="123.580228" style="fill: #ff8000; stroke: #ff8000"/>
     <use xlink:href="#mf2c6e5a69a" x="367.609395" y="112.267806" style="fill: #ff8000; stroke: #ff8000"/>
     <use xlink:href="#mf2c6e5a69a" x="371.045176" y="110.218042" style="fill: #ff8000; stroke: #ff8000"/>
     <use xlink:href="#mf2c6e5a69a" x="374.480957" y="106.600321" style="fill: #ff8000; stroke: #ff8000"/>
     <use xlink:href="#mf2c6e5a69a" x="377.916738" y="79.581725" style="fill: #ff8000; stroke: #ff8000"/>
     <use xlink:href="#mf2c6e5a69a" x="381.352519" y="77.00484" style="fill: #ff8000; stroke: #ff8000"/>
     <use xlink:href="#mf2c6e5a69a" x="384.7883" y="65.550937" style="fill: #ff8000; stroke: #ff8000"/>
     <use xlink:href="#mf2c6e5a69a" x="388.224081" y="85.442351" style="fill: #ff8000; stroke: #ff8000"/>
     <use xlink:href="#mf2c6e5a69a" x="391.659862" y="72.25022" style="fill: #ff8000; stroke: #ff8000"/>
     <use xlink:href="#mf2c6e5a69a" x="395.095643" y="83.746279" style="fill: #ff8000; stroke: #ff8000"/>
     <use xlink:href="#mf2c6e5a69a" x="397.651072" y="72.702658" style="fill: #ff8000; stroke: #ff8000"/>
    </g>
   </g>
   <g id="line2d_15">
    <path d="M 73.832727 83.421546 
L 78.775007 81.189737 
L 83.382807 79.34974 
L 87.749781 77.842795 
L 91.934798 76.631703 
L 95.986022 75.689149 
L 97.931359 75.32152 
L 97.934035 75.359578 
L 97.998255 79.296672 
L 98.619051 123.730269 
L 120.83389 123.632937 
L 120.914165 117.969869 
L 121.318218 75.320054 
L 121.462713 75.3456 
L 125.417607 76.161812 
L 129.474184 77.227603 
L 133.667228 78.561135 
L 138.042229 80.188327 
L 142.660732 82.146379 
L 147.613716 84.491623 
L 153.056378 87.320153 
L 159.29109 90.818969 
L 167.214258 95.536543 
L 188.752109 108.49696 
L 194.992172 111.906725 
L 200.41878 114.623581 
L 205.355708 116.850654 
L 209.960832 118.687368 
L 214.32513 120.191251 
L 218.510147 121.400229 
L 222.558696 122.340093 
L 224.471923 122.802547 
L 224.536143 132.734705 
L 224.81443 219.118292 
L 225.036525 254.648666 
L 225.381709 258.766738 
L 225.879415 262.12406 
L 226.51359 264.922933 
L 227.273529 267.292467 
L 228.145854 269.3001 
L 229.117184 270.988886 
L 230.16879 272.380393 
L 231.284616 273.494936 
L 232.445931 274.345826 
L 233.636681 274.946435 
L 234.84081 275.307955 
L 236.05029 275.440855 
L 237.254419 275.350409 
L 238.447845 275.037186 
L 239.619864 274.497914 
L 240.759772 273.726045 
L 241.854192 272.713498 
L 242.892418 271.445495 
L 243.855721 269.912859 
L 244.730722 268.096714 
L 245.50404 265.970892 
L 246.164973 263.489272 
L 246.702817 260.581716 
L 247.106869 257.145521 
L 247.36375 253.017682 
L 247.39586 249.07314 
L 247.585845 193.899718 
L 247.906946 122.693105 
L 251.859164 121.882827 
L 255.913065 120.823186 
L 260.100757 119.4969 
L 264.470407 117.877362 
L 269.083559 115.927287 
L 274.028515 113.591547 
L 279.455122 110.777114 
L 285.665751 107.297571 
L 293.522023 102.625327 
L 315.552229 89.37665 
L 321.749479 86.000614 
L 327.152004 83.305697 
L 332.075553 81.09427 
L 336.669973 79.271237 
L 341.026244 77.779319 
L 345.203233 76.581611 
L 349.249106 75.651161 
L 351.007134 75.323311 
L 351.00981 75.364187 
L 351.076706 79.549281 
L 351.686798 123.730269 
L 373.909665 123.626687 
L 373.98994 117.947528 
L 374.393992 75.320095 
L 374.538488 75.345641 
L 378.493382 76.161866 
L 382.549958 77.22767 
L 386.743003 78.561215 
L 391.118004 80.188419 
L 395.736507 82.146483 
L 398.487273 83.419718 
L 398.487273 83.419718 
" clip-path="url(#p87ab75b070)" style="fill: none; stroke: #000000; stroke-width: 1.5; stroke-linecap: square"/>
   </g>
   <g id="legend_1">
    <g id="patch_7">
     <path d="M 66 301.584 
L 176.4075 301.584 
Q 178.8075 301.584 178.8075 299.184 
L 178.8075 247.54275 
Q 178.8075 245.14275 176.4075 245.14275 
L 66 245.14275 
Q 63.6 245.14275 63.6 247.54275 
L 63.6 299.184 
Q 63.6 301.584 66 301.584 
z
" style="fill: #ffffff; opacity: 0.8; stroke: #cccccc; stroke-linejoin: miter"/>
    </g>
    <g id="line2d_16">
     <path d="M 68.4 254.860875 
L 80.4 254.860875 
L 92.4 254.860875 
" style="fill: none; stroke: #1f77b4; stroke-width: 1.5; stroke-linecap: square"/>
    </g>
    <g id="text_18">
     <!-- our model -->
     <g transform="translate(102 259.060875) scale(0.12 -0.12)">
      <defs>
       <path id="DejaVuSans-6f" d="M 1959 3097 
Q 1497 3097 1228 2736 
Q 959 2375 959 1747 
Q 959 1119 1226 758 
Q 1494 397 1959 397 
Q 2419 397 2687 759 
Q 2956 1122 2956 1747 
Q 2956 2369 2687 2733 
Q 2419 3097 1959 3097 
z
M 1959 3584 
Q 2709 3584 3137 3096 
Q 3566 2609 3566 1747 
Q 3566 888 3137 398 
Q 2709 -91 1959 -91 
Q 1206 -91 779 398 
Q 353 888 353 1747 
Q 353 2609 779 3096 
Q 1206 3584 1959 3584 
z
" transform="scale(0.015625)"/>
       <path id="DejaVuSans-6c" d="M 603 4863 
L 1178 4863 
L 1178 0 
L 603 0 
L 603 4863 
z
" transform="scale(0.015625)"/>
      </defs>
      <use xlink:href="#DejaVuSans-6f"/>
      <use xlink:href="#DejaVuSans-75" transform="translate(61.181641 0)"/>
      <use xlink:href="#DejaVuSans-72" transform="translate(124.560547 0)"/>
      <use xlink:href="#DejaVuSans-20" transform="translate(165.673828 0)"/>
      <use xlink:href="#DejaVuSans-6d" transform="translate(197.460938 0)"/>
      <use xlink:href="#DejaVuSans-6f" transform="translate(294.873047 0)"/>
      <use xlink:href="#DejaVuSans-64" transform="translate(356.054688 0)"/>
      <use xlink:href="#DejaVuSans-65" transform="translate(419.53125 0)"/>
      <use xlink:href="#DejaVuSans-6c" transform="translate(481.054688 0)"/>
     </g>
    </g>
    <g id="line2d_17">
     <path d="M 68.4 272.474625 
L 80.4 272.474625 
L 92.4 272.474625 
" style="fill: none; stroke: #000000; stroke-width: 1.5; stroke-linecap: square"/>
    </g>
    <g id="text_19">
     <!-- origin data -->
     <g transform="translate(102 276.674625) scale(0.12 -0.12)">
      <defs>
       <path id="DejaVuSans-67" d="M 2906 1791 
Q 2906 2416 2648 2759 
Q 2391 3103 1925 3103 
Q 1463 3103 1205 2759 
Q 947 2416 947 1791 
Q 947 1169 1205 825 
Q 1463 481 1925 481 
Q 2391 481 2648 825 
Q 2906 1169 2906 1791 
z
M 3481 434 
Q 3481 -459 3084 -895 
Q 2688 -1331 1869 -1331 
Q 1566 -1331 1297 -1286 
Q 1028 -1241 775 -1147 
L 775 -588 
Q 1028 -725 1275 -790 
Q 1522 -856 1778 -856 
Q 2344 -856 2625 -561 
Q 2906 -266 2906 331 
L 2906 616 
Q 2728 306 2450 153 
Q 2172 0 1784 0 
Q 1141 0 747 490 
Q 353 981 353 1791 
Q 353 2603 747 3093 
Q 1141 3584 1784 3584 
Q 2172 3584 2450 3431 
Q 2728 3278 2906 2969 
L 2906 3500 
L 3481 3500 
L 3481 434 
z
" transform="scale(0.015625)"/>
       <path id="DejaVuSans-6e" d="M 3513 2113 
L 3513 0 
L 2938 0 
L 2938 2094 
Q 2938 2591 2744 2837 
Q 2550 3084 2163 3084 
Q 1697 3084 1428 2787 
Q 1159 2491 1159 1978 
L 1159 0 
L 581 0 
L 581 3500 
L 1159 3500 
L 1159 2956 
Q 1366 3272 1645 3428 
Q 1925 3584 2291 3584 
Q 2894 3584 3203 3211 
Q 3513 2838 3513 2113 
z
" transform="scale(0.015625)"/>
      </defs>
      <use xlink:href="#DejaVuSans-6f"/>
      <use xlink:href="#DejaVuSans-72" transform="translate(61.181641 0)"/>
      <use xlink:href="#DejaVuSans-69" transform="translate(102.294922 0)"/>
      <use xlink:href="#DejaVuSans-67" transform="translate(130.078125 0)"/>
      <use xlink:href="#DejaVuSans-69" transform="translate(193.554688 0)"/>
      <use xlink:href="#DejaVuSans-6e" transform="translate(221.337891 0)"/>
      <use xlink:href="#DejaVuSans-20" transform="translate(284.716797 0)"/>
      <use xlink:href="#DejaVuSans-64" transform="translate(316.503906 0)"/>
      <use xlink:href="#DejaVuSans-61" transform="translate(379.980469 0)"/>
      <use xlink:href="#DejaVuSans-74" transform="translate(441.259766 0)"/>
      <use xlink:href="#DejaVuSans-61" transform="translate(480.46875 0)"/>
     </g>
    </g>
    <g id="LineCollection_2">
     <path d="M 80.4 296.088375 
L 80.4 284.088375 
" style="fill: none; stroke: #ff8000; stroke-width: 1.5"/>
    </g>
    <g id="line2d_18"/>
    <g id="line2d_19">
     <g>
      <use xlink:href="#mf2c6e5a69a" x="80.4" y="290.088375" style="fill: #ff8000; stroke: #ff8000"/>
     </g>
    </g>
    <g id="text_20">
     <!-- data binned -->
     <g transform="translate(102 294.288375) scale(0.12 -0.12)">
      <defs>
       <path id="DejaVuSans-62" d="M 3116 1747 
Q 3116 2381 2855 2742 
Q 2594 3103 2138 3103 
Q 1681 3103 1420 2742 
Q 1159 2381 1159 1747 
Q 1159 1113 1420 752 
Q 1681 391 2138 391 
Q 2594 391 2855 752 
Q 3116 1113 3116 1747 
z
M 1159 2969 
Q 1341 3281 1617 3432 
Q 1894 3584 2278 3584 
Q 2916 3584 3314 3078 
Q 3713 2572 3713 1747 
Q 3713 922 3314 415 
Q 2916 -91 2278 -91 
Q 1894 -91 1617 61 
Q 1341 213 1159 525 
L 1159 0 
L 581 0 
L 581 4863 
L 1159 4863 
L 1159 2969 
z
" transform="scale(0.015625)"/>
      </defs>
      <use xlink:href="#DejaVuSans-64"/>
      <use xlink:href="#DejaVuSans-61" transform="translate(63.476562 0)"/>
      <use xlink:href="#DejaVuSans-74" transform="translate(124.755859 0)"/>
      <use xlink:href="#DejaVuSans-61" transform="translate(163.964844 0)"/>
      <use xlink:href="#DejaVuSans-20" transform="translate(225.244141 0)"/>
      <use xlink:href="#DejaVuSans-62" transform="translate(257.03125 0)"/>
      <use xlink:href="#DejaVuSans-69" transform="translate(320.507812 0)"/>
      <use xlink:href="#DejaVuSans-6e" transform="translate(348.291016 0)"/>
      <use xlink:href="#DejaVuSans-6e" transform="translate(411.669922 0)"/>
      <use xlink:href="#DejaVuSans-65" transform="translate(475.048828 0)"/>
      <use xlink:href="#DejaVuSans-64" transform="translate(536.572266 0)"/>
     </g>
    </g>
   </g>
   <g id="line2d_20">
    <path d="M 73.832727 80.728319 
L 78.649243 78.4046 
L 83.141981 76.480508 
L 87.399246 74.896369 
L 91.477229 73.613836 
L 95.42142 72.604624 
L 98.263164 72.024034 
L 98.375549 123.736885 
L 120.983737 123.736885 
L 120.986413 72.024268 
L 121.096123 72.044362 
L 124.919901 72.860915 
L 128.837333 73.926189 
L 132.883206 75.258756 
L 137.094981 76.88244 
L 141.528851 78.833071 
L 146.25974 81.161048 
L 151.410735 83.948411 
L 157.211961 87.347444 
L 164.225342 91.726652 
L 175.985667 99.382613 
L 186.10035 105.854392 
L 192.669542 109.796475 
L 198.224589 112.876362 
L 203.215035 115.393514 
L 207.830862 117.476367 
L 212.179105 119.197513 
L 216.32666 120.602547 
L 220.321692 121.72324 
L 224.204338 122.583008 
L 224.322075 122.645967 
L 224.378268 128.821626 
L 224.605715 183.136911 
L 224.886678 229.605396 
L 225.32284 240.730927 
L 225.948987 251.144619 
L 226.727657 260.471816 
L 227.621389 268.575607 
L 228.595395 275.439959 
L 229.612215 281.078771 
L 230.639738 285.571603 
L 231.645855 289.015589 
L 232.603806 291.540458 
L 233.494861 293.296839 
L 234.308317 294.43789 
L 235.041498 295.106076 
L 235.705107 295.424651 
L 236.320551 295.480364 
L 236.925291 295.310957 
L 237.556789 294.895198 
L 238.239129 294.166791 
L 238.985689 293.027201 
L 239.796469 291.363974 
L 240.668794 289.043148 
L 241.589283 285.933913 
L 242.536531 281.922312 
L 243.489131 276.890327 
L 244.420324 270.740651 
L 245.298 263.417932 
L 246.087373 254.920705 
L 246.756334 245.266409 
L 247.26742 234.644306 
L 247.53768 224.694795 
L 247.700906 187.791235 
L 248.051441 122.59601 
L 251.885923 121.752305 
L 255.816735 120.658183 
L 259.878663 119.294763 
L 264.111844 117.636903 
L 268.572473 115.648227 
L 273.343499 113.273839 
L 278.553363 110.42756 
L 284.450919 106.944792 
L 291.675692 102.406668 
L 317.872184 85.699843 
L 323.59581 82.46641 
L 328.690613 79.8389 
L 333.378688 77.667554 
L 337.777772 75.871891 
L 341.965464 74.400126 
L 345.989931 73.219202 
L 349.893984 72.303616 
L 351.338939 72.023992 
L 351.451324 123.736885 
L 374.059512 123.736885 
L 374.062188 72.02431 
L 374.171897 72.044404 
L 377.995675 72.860971 
L 381.913108 73.926258 
L 385.958981 75.258839 
L 390.170756 76.882535 
L 394.604626 78.833179 
L 398.487273 80.726368 
L 398.487273 80.726368 
" clip-path="url(#p87ab75b070)" style="fill: none; stroke: #1f77b4; stroke-width: 1.5; stroke-linecap: square"/>
   </g>
  </g>
 </g>
 <defs>
  <clipPath id="p87ab75b070">
   <rect x="57.6" y="41.472" width="357.12" height="266.112"/>
  </clipPath>
 </defs>
</svg>
