<?xml version="1.0" encoding="utf-8" standalone="no"?>
<!DOCTYPE svg PUBLIC "-//W3C//DTD SVG 1.1//EN"
  "http://www.w3.org/Graphics/SVG/1.1/DTD/svg11.dtd">
<svg xmlns:xlink="http://www.w3.org/1999/xlink" width="460.8pt" height="345.6pt" viewBox="0 0 460.8 345.6" xmlns="http://www.w3.org/2000/svg" version="1.1">
 <metadata>
  <rdf:RDF xmlns:dc="http://purl.org/dc/elements/1.1/" xmlns:cc="http://creativecommons.org/ns#" xmlns:rdf="http://www.w3.org/1999/02/22-rdf-syntax-ns#">
   <cc:Work>
    <dc:type rdf:resource="http://purl.org/dc/dcmitype/StillImage"/>
    <dc:date>2025-12-04T12:26:36.266273</dc:date>
    <dc:format>image/svg+xml</dc:format>
    <dc:creator>
     <cc:Agent>
      <dc:title>Matplotlib v3.10.7, https://matplotlib.org/</dc:title>
     </cc:Agent>
    </dc:creator>
   </cc:Work>
  </rdf:RDF>
 </metadata>
 <defs>
  <style type="text/css">*{stroke-linejoin: round; stroke-linecap: butt}</style>
 </defs>
 <g id="figure_1">
  <g id="patch_1">
   <path d="M 0 345.6 
L 460.8 345.6 
L 460.8 0 
L 0 0 
z
" style="fill: #ffffff"/>
  </g>
  <g id="axes_1">
   <g id="patch_2">
    <path d="M 57.6 307.584 
L 414.72 307.584 
L 414.72 41.472 
L 57.6 41.472 
z
" style="fill: #ffffff"/>
   </g>
   <g id="matplotlib.axis_1">
    <g id="xtick_1">
     <g id="line2d_1">
      <defs>
       <path id="mb24d56a3a9" d="M 0 0 
L 0 3.5 
" style="stroke: #000000; stroke-width: 0.8"/>
      </defs>
      <g>
       <use xlink:href="#mb24d56a3a9" x="120.525342" y="307.584" style="stroke: #000000; stroke-width: 0.8"/>
      </g>
     </g>
     <g id="text_1">
      <!-- 0.4 -->
      <g transform="translate(109.393155 325.221812) scale(0.14 -0.14)">
       <defs>
        <path id="DejaVuSans-30" d="M 2034 4250 
Q 1547 4250 1301 3770 
Q 1056 3291 1056 2328 
Q 1056 1369 1301 889 
Q 1547 409 2034 409 
Q 2525 409 2770 889 
Q 3016 1369 3016 2328 
Q 3016 3291 2770 3770 
Q 2525 4250 2034 4250 
z
M 2034 4750 
Q 2819 4750 3233 4129 
Q 3647 3509 3647 2328 
Q 3647 1150 3233 529 
Q 2819 -91 2034 -91 
Q 1250 -91 836 529 
Q 422 1150 422 2328 
Q 422 3509 836 4129 
Q 1250 4750 2034 4750 
z
" transform="scale(0.015625)"/>
        <path id="DejaVuSans-2e" d="M 684 794 
L 1344 794 
L 1344 0 
L 684 0 
L 684 794 
z
" transform="scale(0.015625)"/>
        <path id="DejaVuSans-34" d="M 2419 4116 
L 825 1625 
L 2419 1625 
L 2419 4116 
z
M 2253 4666 
L 3047 4666 
L 3047 1625 
L 3713 1625 
L 3713 1100 
L 3047 1100 
L 3047 0 
L 2419 0 
L 2419 1100 
L 313 1100 
L 313 1709 
L 2253 4666 
z
" transform="scale(0.015625)"/>
       </defs>
       <use xlink:href="#DejaVuSans-30"/>
       <use xlink:href="#DejaVuSans-2e" transform="translate(63.623047 0)"/>
       <use xlink:href="#DejaVuSans-34" transform="translate(95.410156 0)"/>
      </g>
     </g>
    </g>
    <g id="xtick_2">
     <g id="line2d_2">
      <g>
       <use xlink:href="#mb24d56a3a9" x="189.244744" y="307.584" style="stroke: #000000; stroke-width: 0.8"/>
      </g>
     </g>
     <g id="text_2">
      <!-- 0.6 -->
      <g transform="translate(178.112557 325.221812) scale(0.14 -0.14)">
       <defs>
        <path id="DejaVuSans-36" d="M 2113 2584 
Q 1688 2584 1439 2293 
Q 1191 2003 1191 1497 
Q 1191 994 1439 701 
Q 1688 409 2113 409 
Q 2538 409 2786 701 
Q 3034 994 3034 1497 
Q 3034 2003 2786 2293 
Q 2538 2584 2113 2584 
z
M 3366 4563 
L 3366 3988 
Q 3128 4100 2886 4159 
Q 2644 4219 2406 4219 
Q 1781 4219 1451 3797 
Q 1122 3375 1075 2522 
Q 1259 2794 1537 2939 
Q 1816 3084 2150 3084 
Q 2853 3084 3261 2657 
Q 3669 2231 3669 1497 
Q 3669 778 3244 343 
Q 2819 -91 2113 -91 
Q 1303 -91 875 529 
Q 447 1150 447 2328 
Q 447 3434 972 4092 
Q 1497 4750 2381 4750 
Q 2619 4750 2861 4703 
Q 3103 4656 3366 4563 
z
" transform="scale(0.015625)"/>
       </defs>
       <use xlink:href="#DejaVuSans-30"/>
       <use xlink:href="#DejaVuSans-2e" transform="translate(63.623047 0)"/>
       <use xlink:href="#DejaVuSans-36" transform="translate(95.410156 0)"/>
      </g>
     </g>
    </g>
    <g id="xtick_3">
     <g id="line2d_3">
      <g>
       <use xlink:href="#mb24d56a3a9" x="257.964147" y="307.584" style="stroke: #000000; stroke-width: 0.8"/>
      </g>
     </g>
     <g id="text_3">
      <!-- 0.8 -->
      <g transform="translate(246.831959 325.221812) scale(0.14 -0.14)">
       <defs>
        <path id="DejaVuSans-38" d="M 2034 2216 
Q 1584 2216 1326 1975 
Q 1069 1734 1069 1313 
Q 1069 891 1326 650 
Q 1584 409 2034 409 
Q 2484 409 2743 651 
Q 3003 894 3003 1313 
Q 3003 1734 2745 1975 
Q 2488 2216 2034 2216 
z
M 1403 2484 
Q 997 2584 770 2862 
Q 544 3141 544 3541 
Q 544 4100 942 4425 
Q 1341 4750 2034 4750 
Q 2731 4750 3128 4425 
Q 3525 4100 3525 3541 
Q 3525 3141 3298 2862 
Q 3072 2584 2669 2484 
Q 3125 2378 3379 2068 
Q 3634 1759 3634 1313 
Q 3634 634 3220 271 
Q 2806 -91 2034 -91 
Q 1263 -91 848 271 
Q 434 634 434 1313 
Q 434 1759 690 2068 
Q 947 2378 1403 2484 
z
M 1172 3481 
Q 1172 3119 1398 2916 
Q 1625 2713 2034 2713 
Q 2441 2713 2670 2916 
Q 2900 3119 2900 3481 
Q 2900 3844 2670 4047 
Q 2441 4250 2034 4250 
Q 1625 4250 1398 4047 
Q 1172 3844 1172 3481 
z
" transform="scale(0.015625)"/>
       </defs>
       <use xlink:href="#DejaVuSans-30"/>
       <use xlink:href="#DejaVuSans-2e" transform="translate(63.623047 0)"/>
       <use xlink:href="#DejaVuSans-38" transform="translate(95.410156 0)"/>
      </g>
     </g>
    </g>
    <g id="xtick_4">
     <g id="line2d_4">
      <g>
       <use xlink:href="#mb24d56a3a9" x="326.683549" y="307.584" style="stroke: #000000; stroke-width: 0.8"/>
      </g>
     </g>
     <g id="text_4">
      <!-- 1.0 -->
      <g transform="translate(315.551362 325.221812) scale(0.14 -0.14)">
       <defs>
        <path id="DejaVuSans-31" d="M 794 531 
L 1825 531 
L 1825 4091 
L 703 3866 
L 703 4441 
L 1819 4666 
L 2450 4666 
L 2450 531 
L 3481 531 
L 3481 0 
L 794 0 
L 794 531 
z
" transform="scale(0.015625)"/>
       </defs>
       <use xlink:href="#DejaVuSans-31"/>
       <use xlink:href="#DejaVuSans-2e" transform="translate(63.623047 0)"/>
       <use xlink:href="#DejaVuSans-30" transform="translate(95.410156 0)"/>
      </g>
     </g>
    </g>
    <g id="xtick_5">
     <g id="line2d_5">
      <g>
       <use xlink:href="#mb24d56a3a9" x="395.402952" y="307.584" style="stroke: #000000; stroke-width: 0.8"/>
      </g>
     </g>
     <g id="text_5">
      <!-- 1.2 -->
      <g transform="translate(384.270764 325.221812) scale(0.14 -0.14)">
       <defs>
        <path id="DejaVuSans-32" d="M 1228 531 
L 3431 531 
L 3431 0 
L 469 0 
L 469 531 
Q 828 903 1448 1529 
Q 2069 2156 2228 2338 
Q 2531 2678 2651 2914 
Q 2772 3150 2772 3378 
Q 2772 3750 2511 3984 
Q 2250 4219 1831 4219 
Q 1534 4219 1204 4116 
Q 875 4013 500 3803 
L 500 4441 
Q 881 4594 1212 4672 
Q 1544 4750 1819 4750 
Q 2544 4750 2975 4387 
Q 3406 4025 3406 3419 
Q 3406 3131 3298 2873 
Q 3191 2616 2906 2266 
Q 2828 2175 2409 1742 
Q 1991 1309 1228 531 
z
" transform="scale(0.015625)"/>
       </defs>
       <use xlink:href="#DejaVuSans-31"/>
       <use xlink:href="#DejaVuSans-2e" transform="translate(63.623047 0)"/>
       <use xlink:href="#DejaVuSans-32" transform="translate(95.410156 0)"/>
      </g>
     </g>
    </g>
    <g id="text_6">
     <!-- BJD - 2459370.807543 [d] -->
     <g transform="translate(144.673281 342.771187) scale(0.14 -0.14)">
      <defs>
       <path id="DejaVuSans-42" d="M 1259 2228 
L 1259 519 
L 2272 519 
Q 2781 519 3026 730 
Q 3272 941 3272 1375 
Q 3272 1813 3026 2020 
Q 2781 2228 2272 2228 
L 1259 2228 
z
M 1259 4147 
L 1259 2741 
L 2194 2741 
Q 2656 2741 2882 2914 
Q 3109 3088 3109 3444 
Q 3109 3797 2882 3972 
Q 2656 4147 2194 4147 
L 1259 4147 
z
M 628 4666 
L 2241 4666 
Q 2963 4666 3353 4366 
Q 3744 4066 3744 3513 
Q 3744 3084 3544 2831 
Q 3344 2578 2956 2516 
Q 3422 2416 3680 2098 
Q 3938 1781 3938 1306 
Q 3938 681 3513 340 
Q 3088 0 2303 0 
L 628 0 
L 628 4666 
z
" transform="scale(0.015625)"/>
       <path id="DejaVuSans-4a" d="M 628 4666 
L 1259 4666 
L 1259 325 
Q 1259 -519 939 -900 
Q 619 -1281 -91 -1281 
L -331 -1281 
L -331 -750 
L -134 -750 
Q 284 -750 456 -515 
Q 628 -281 628 325 
L 628 4666 
z
" transform="scale(0.015625)"/>
       <path id="DejaVuSans-44" d="M 1259 4147 
L 1259 519 
L 2022 519 
Q 2988 519 3436 956 
Q 3884 1394 3884 2338 
Q 3884 3275 3436 3711 
Q 2988 4147 2022 4147 
L 1259 4147 
z
M 628 4666 
L 1925 4666 
Q 3281 4666 3915 4102 
Q 4550 3538 4550 2338 
Q 4550 1131 3912 565 
Q 3275 0 1925 0 
L 628 0 
L 628 4666 
z
" transform="scale(0.015625)"/>
       <path id="DejaVuSans-20" transform="scale(0.015625)"/>
       <path id="DejaVuSans-2d" d="M 313 2009 
L 1997 2009 
L 1997 1497 
L 313 1497 
L 313 2009 
z
" transform="scale(0.015625)"/>
       <path id="DejaVuSans-35" d="M 691 4666 
L 3169 4666 
L 3169 4134 
L 1269 4134 
L 1269 2991 
Q 1406 3038 1543 3061 
Q 1681 3084 1819 3084 
Q 2600 3084 3056 2656 
Q 3513 2228 3513 1497 
Q 3513 744 3044 326 
Q 2575 -91 1722 -91 
Q 1428 -91 1123 -41 
Q 819 9 494 109 
L 494 744 
Q 775 591 1075 516 
Q 1375 441 1709 441 
Q 2250 441 2565 725 
Q 2881 1009 2881 1497 
Q 2881 1984 2565 2268 
Q 2250 2553 1709 2553 
Q 1456 2553 1204 2497 
Q 953 2441 691 2322 
L 691 4666 
z
" transform="scale(0.015625)"/>
       <path id="DejaVuSans-39" d="M 703 97 
L 703 672 
Q 941 559 1184 500 
Q 1428 441 1663 441 
Q 2288 441 2617 861 
Q 2947 1281 2994 2138 
Q 2813 1869 2534 1725 
Q 2256 1581 1919 1581 
Q 1219 1581 811 2004 
Q 403 2428 403 3163 
Q 403 3881 828 4315 
Q 1253 4750 1959 4750 
Q 2769 4750 3195 4129 
Q 3622 3509 3622 2328 
Q 3622 1225 3098 567 
Q 2575 -91 1691 -91 
Q 1453 -91 1209 -44 
Q 966 3 703 97 
z
M 1959 2075 
Q 2384 2075 2632 2365 
Q 2881 2656 2881 3163 
Q 2881 3666 2632 3958 
Q 2384 4250 1959 4250 
Q 1534 4250 1286 3958 
Q 1038 3666 1038 3163 
Q 1038 2656 1286 2365 
Q 1534 2075 1959 2075 
z
" transform="scale(0.015625)"/>
       <path id="DejaVuSans-33" d="M 2597 2516 
Q 3050 2419 3304 2112 
Q 3559 1806 3559 1356 
Q 3559 666 3084 287 
Q 2609 -91 1734 -91 
Q 1441 -91 1130 -33 
Q 819 25 488 141 
L 488 750 
Q 750 597 1062 519 
Q 1375 441 1716 441 
Q 2309 441 2620 675 
Q 2931 909 2931 1356 
Q 2931 1769 2642 2001 
Q 2353 2234 1838 2234 
L 1294 2234 
L 1294 2753 
L 1863 2753 
Q 2328 2753 2575 2939 
Q 2822 3125 2822 3475 
Q 2822 3834 2567 4026 
Q 2313 4219 1838 4219 
Q 1578 4219 1281 4162 
Q 984 4106 628 3988 
L 628 4550 
Q 988 4650 1302 4700 
Q 1616 4750 1894 4750 
Q 2613 4750 3031 4423 
Q 3450 4097 3450 3541 
Q 3450 3153 3228 2886 
Q 3006 2619 2597 2516 
z
" transform="scale(0.015625)"/>
       <path id="DejaVuSans-37" d="M 525 4666 
L 3525 4666 
L 3525 4397 
L 1831 0 
L 1172 0 
L 2766 4134 
L 525 4134 
L 525 4666 
z
" transform="scale(0.015625)"/>
       <path id="DejaVuSans-5b" d="M 550 4863 
L 1875 4863 
L 1875 4416 
L 1125 4416 
L 1125 -397 
L 1875 -397 
L 1875 -844 
L 550 -844 
L 550 4863 
z
" transform="scale(0.015625)"/>
       <path id="DejaVuSans-64" d="M 2906 2969 
L 2906 4863 
L 3481 4863 
L 3481 0 
L 2906 0 
L 2906 525 
Q 2725 213 2448 61 
Q 2172 -91 1784 -91 
Q 1150 -91 751 415 
Q 353 922 353 1747 
Q 353 2572 751 3078 
Q 1150 3584 1784 3584 
Q 2172 3584 2448 3432 
Q 2725 3281 2906 2969 
z
M 947 1747 
Q 947 1113 1208 752 
Q 1469 391 1925 391 
Q 2381 391 2643 752 
Q 2906 1113 2906 1747 
Q 2906 2381 2643 2742 
Q 2381 3103 1925 3103 
Q 1469 3103 1208 2742 
Q 947 2381 947 1747 
z
" transform="scale(0.015625)"/>
       <path id="DejaVuSans-5d" d="M 1947 4863 
L 1947 -844 
L 622 -844 
L 622 -397 
L 1369 -397 
L 1369 4416 
L 622 4416 
L 622 4863 
L 1947 4863 
z
" transform="scale(0.015625)"/>
      </defs>
      <use xlink:href="#DejaVuSans-42"/>
      <use xlink:href="#DejaVuSans-4a" transform="translate(68.603516 0)"/>
      <use xlink:href="#DejaVuSans-44" transform="translate(98.095703 0)"/>
      <use xlink:href="#DejaVuSans-20" transform="translate(175.097656 0)"/>
      <use xlink:href="#DejaVuSans-2d" transform="translate(206.884766 0)"/>
      <use xlink:href="#DejaVuSans-20" transform="translate(242.96875 0)"/>
      <use xlink:href="#DejaVuSans-32" transform="translate(274.755859 0)"/>
      <use xlink:href="#DejaVuSans-34" transform="translate(338.378906 0)"/>
      <use xlink:href="#DejaVuSans-35" transform="translate(402.001953 0)"/>
      <use xlink:href="#DejaVuSans-39" transform="translate(465.625 0)"/>
      <use xlink:href="#DejaVuSans-33" transform="translate(529.248047 0)"/>
      <use xlink:href="#DejaVuSans-37" transform="translate(592.871094 0)"/>
      <use xlink:href="#DejaVuSans-30" transform="translate(656.494141 0)"/>
      <use xlink:href="#DejaVuSans-2e" transform="translate(720.117188 0)"/>
      <use xlink:href="#DejaVuSans-38" transform="translate(751.904297 0)"/>
      <use xlink:href="#DejaVuSans-30" transform="translate(815.527344 0)"/>
      <use xlink:href="#DejaVuSans-37" transform="translate(879.150391 0)"/>
      <use xlink:href="#DejaVuSans-35" transform="translate(942.773438 0)"/>
      <use xlink:href="#DejaVuSans-34" transform="translate(1006.396484 0)"/>
      <use xlink:href="#DejaVuSans-33" transform="translate(1070.019531 0)"/>
      <use xlink:href="#DejaVuSans-20" transform="translate(1133.642578 0)"/>
      <use xlink:href="#DejaVuSans-5b" transform="translate(1165.429688 0)"/>
      <use xlink:href="#DejaVuSans-64" transform="translate(1204.443359 0)"/>
      <use xlink:href="#DejaVuSans-5d" transform="translate(1267.919922 0)"/>
     </g>
    </g>
   </g>
   <g id="matplotlib.axis_2">
    <g id="ytick_1">
     <g id="line2d_6">
      <defs>
       <path id="mad439ec085" d="M 0 0 
L -3.5 0 
" style="stroke: #000000; stroke-width: 0.8"/>
      </defs>
      <g>
       <use xlink:href="#mad439ec085" x="57.6" y="301.006931" style="stroke: #000000; stroke-width: 0.8"/>
      </g>
     </g>
     <g id="text_7">
      <!-- −0.0005 -->
      <g transform="translate(-10.118438 306.325837) scale(0.14 -0.14)">
       <defs>
        <path id="DejaVuSans-2212" d="M 678 2272 
L 4684 2272 
L 4684 1741 
L 678 1741 
L 678 2272 
z
" transform="scale(0.015625)"/>
       </defs>
       <use xlink:href="#DejaVuSans-2212"/>
       <use xlink:href="#DejaVuSans-30" transform="translate(83.789062 0)"/>
       <use xlink:href="#DejaVuSans-2e" transform="translate(147.412109 0)"/>
       <use xlink:href="#DejaVuSans-30" transform="translate(179.199219 0)"/>
       <use xlink:href="#DejaVuSans-30" transform="translate(242.822266 0)"/>
       <use xlink:href="#DejaVuSans-30" transform="translate(306.445312 0)"/>
       <use xlink:href="#DejaVuSans-35" transform="translate(370.068359 0)"/>
      </g>
     </g>
    </g>
    <g id="ytick_2">
     <g id="line2d_7">
      <g>
       <use xlink:href="#mad439ec085" x="57.6" y="264.751268" style="stroke: #000000; stroke-width: 0.8"/>
      </g>
     </g>
     <g id="text_8">
      <!-- −0.0004 -->
      <g transform="translate(-10.118438 270.070174) scale(0.14 -0.14)">
       <use xlink:href="#DejaVuSans-2212"/>
       <use xlink:href="#DejaVuSans-30" transform="translate(83.789062 0)"/>
       <use xlink:href="#DejaVuSans-2e" transform="translate(147.412109 0)"/>
       <use xlink:href="#DejaVuSans-30" transform="translate(179.199219 0)"/>
       <use xlink:href="#DejaVuSans-30" transform="translate(242.822266 0)"/>
       <use xlink:href="#DejaVuSans-30" transform="translate(306.445312 0)"/>
       <use xlink:href="#DejaVuSans-34" transform="translate(370.068359 0)"/>
      </g>
     </g>
    </g>
    <g id="ytick_3">
     <g id="line2d_8">
      <g>
       <use xlink:href="#mad439ec085" x="57.6" y="228.495605" style="stroke: #000000; stroke-width: 0.8"/>
      </g>
     </g>
     <g id="text_9">
      <!-- −0.0003 -->
      <g transform="translate(-10.118438 233.814511) scale(0.14 -0.14)">
       <use xlink:href="#DejaVuSans-2212"/>
       <use xlink:href="#DejaVuSans-30" transform="translate(83.789062 0)"/>
       <use xlink:href="#DejaVuSans-2e" transform="translate(147.412109 0)"/>
       <use xlink:href="#DejaVuSans-30" transform="translate(179.199219 0)"/>
       <use xlink:href="#DejaVuSans-30" transform="translate(242.822266 0)"/>
       <use xlink:href="#DejaVuSans-30" transform="translate(306.445312 0)"/>
       <use xlink:href="#DejaVuSans-33" transform="translate(370.068359 0)"/>
      </g>
     </g>
    </g>
    <g id="ytick_4">
     <g id="line2d_9">
      <g>
       <use xlink:href="#mad439ec085" x="57.6" y="192.239942" style="stroke: #000000; stroke-width: 0.8"/>
      </g>
     </g>
     <g id="text_10">
      <!-- −0.0002 -->
      <g transform="translate(-10.118438 197.558848) scale(0.14 -0.14)">
       <use xlink:href="#DejaVuSans-2212"/>
       <use xlink:href="#DejaVuSans-30" transform="translate(83.789062 0)"/>
       <use xlink:href="#DejaVuSans-2e" transform="translate(147.412109 0)"/>
       <use xlink:href="#DejaVuSans-30" transform="translate(179.199219 0)"/>
       <use xlink:href="#DejaVuSans-30" transform="translate(242.822266 0)"/>
       <use xlink:href="#DejaVuSans-30" transform="translate(306.445312 0)"/>
       <use xlink:href="#DejaVuSans-32" transform="translate(370.068359 0)"/>
      </g>
     </g>
    </g>
    <g id="ytick_5">
     <g id="line2d_10">
      <g>
       <use xlink:href="#mad439ec085" x="57.6" y="155.984279" style="stroke: #000000; stroke-width: 0.8"/>
      </g>
     </g>
     <g id="text_11">
      <!-- −0.0001 -->
      <g transform="translate(-10.118438 161.303185) scale(0.14 -0.14)">
       <use xlink:href="#DejaVuSans-2212"/>
       <use xlink:href="#DejaVuSans-30" transform="translate(83.789062 0)"/>
       <use xlink:href="#DejaVuSans-2e" transform="translate(147.412109 0)"/>
       <use xlink:href="#DejaVuSans-30" transform="translate(179.199219 0)"/>
       <use xlink:href="#DejaVuSans-30" transform="translate(242.822266 0)"/>
       <use xlink:href="#DejaVuSans-30" transform="translate(306.445312 0)"/>
       <use xlink:href="#DejaVuSans-31" transform="translate(370.068359 0)"/>
      </g>
     </g>
    </g>
    <g id="ytick_6">
     <g id="line2d_11">
      <g>
       <use xlink:href="#mad439ec085" x="57.6" y="119.728616" style="stroke: #000000; stroke-width: 0.8"/>
      </g>
     </g>
     <g id="text_12">
      <!-- 0.0000 -->
      <g transform="translate(1.613125 125.047522) scale(0.14 -0.14)">
       <use xlink:href="#DejaVuSans-30"/>
       <use xlink:href="#DejaVuSans-2e" transform="translate(63.623047 0)"/>
       <use xlink:href="#DejaVuSans-30" transform="translate(95.410156 0)"/>
       <use xlink:href="#DejaVuSans-30" transform="translate(159.033203 0)"/>
       <use xlink:href="#DejaVuSans-30" transform="translate(222.65625 0)"/>
       <use xlink:href="#DejaVuSans-30" transform="translate(286.279297 0)"/>
      </g>
     </g>
    </g>
    <g id="ytick_7">
     <g id="line2d_12">
      <g>
       <use xlink:href="#mad439ec085" x="57.6" y="83.472952" style="stroke: #000000; stroke-width: 0.8"/>
      </g>
     </g>
     <g id="text_13">
      <!-- 0.0001 -->
      <g transform="translate(1.613125 88.791859) scale(0.14 -0.14)">
       <use xlink:href="#DejaVuSans-30"/>
       <use xlink:href="#DejaVuSans-2e" transform="translate(63.623047 0)"/>
       <use xlink:href="#DejaVuSans-30" transform="translate(95.410156 0)"/>
       <use xlink:href="#DejaVuSans-30" transform="translate(159.033203 0)"/>
       <use xlink:href="#DejaVuSans-30" transform="translate(222.65625 0)"/>
       <use xlink:href="#DejaVuSans-31" transform="translate(286.279297 0)"/>
      </g>
     </g>
    </g>
    <g id="ytick_8">
     <g id="line2d_13">
      <g>
       <use xlink:href="#mad439ec085" x="57.6" y="47.217289" style="stroke: #000000; stroke-width: 0.8"/>
      </g>
     </g>
     <g id="text_14">
      <!-- 0.0002 -->
      <g transform="translate(1.613125 52.536196) scale(0.14 -0.14)">
       <use xlink:href="#DejaVuSans-30"/>
       <use xlink:href="#DejaVuSans-2e" transform="translate(63.623047 0)"/>
       <use xlink:href="#DejaVuSans-30" transform="translate(95.410156 0)"/>
       <use xlink:href="#DejaVuSans-30" transform="translate(159.033203 0)"/>
       <use xlink:href="#DejaVuSans-30" transform="translate(222.65625 0)"/>
       <use xlink:href="#DejaVuSans-32" transform="translate(286.279297 0)"/>
      </g>
     </g>
    </g>
    <g id="text_15">
     <!-- $(F_p + F_{\bigstar})/F_{\bigstar}$ -->
     <g transform="translate(-18.458438 215.548) rotate(-90) scale(0.14 -0.14)">
      <defs>
       <path id="DejaVuSans-28" d="M 1984 4856 
Q 1566 4138 1362 3434 
Q 1159 2731 1159 2009 
Q 1159 1288 1364 580 
Q 1569 -128 1984 -844 
L 1484 -844 
Q 1016 -109 783 600 
Q 550 1309 550 2009 
Q 550 2706 781 3412 
Q 1013 4119 1484 4856 
L 1984 4856 
z
" transform="scale(0.015625)"/>
       <path id="DejaVuSans-Oblique-46" d="M 1081 4666 
L 3756 4666 
L 3653 4134 
L 1606 4134 
L 1338 2759 
L 3188 2759 
L 3084 2228 
L 1234 2228 
L 800 0 
L 172 0 
L 1081 4666 
z
" transform="scale(0.015625)"/>
       <path id="DejaVuSans-Oblique-70" d="M 3175 2156 
Q 3175 2616 2975 2859 
Q 2775 3103 2400 3103 
Q 2144 3103 1911 2972 
Q 1678 2841 1497 2591 
Q 1319 2344 1212 1994 
Q 1106 1644 1106 1300 
Q 1106 863 1306 627 
Q 1506 391 1875 391 
Q 2147 391 2380 519 
Q 2613 647 2778 891 
Q 2956 1147 3065 1494 
Q 3175 1841 3175 2156 
z
M 1394 2969 
Q 1625 3272 1939 3428 
Q 2253 3584 2638 3584 
Q 3175 3584 3472 3232 
Q 3769 2881 3769 2247 
Q 3769 1728 3584 1258 
Q 3400 788 3053 416 
Q 2822 169 2531 39 
Q 2241 -91 1919 -91 
Q 1547 -91 1294 64 
Q 1041 219 916 525 
L 556 -1331 
L -19 -1331 
L 922 3500 
L 1497 3500 
L 1394 2969 
z
" transform="scale(0.015625)"/>
       <path id="DejaVuSans-2b" d="M 2944 4013 
L 2944 2272 
L 4684 2272 
L 4684 1741 
L 2944 1741 
L 2944 0 
L 2419 0 
L 2419 1741 
L 678 1741 
L 678 2272 
L 2419 2272 
L 2419 4013 
L 2944 4013 
z
" transform="scale(0.015625)"/>
       <path id="DejaVuSans-2605" d="M 416 2850 
L 2288 2850 
L 2869 4628 
L 3453 2850 
L 5322 2850 
L 3809 1747 
L 4391 -28 
L 2869 1072 
L 1350 -28 
L 1928 1747 
L 416 2850 
z
" transform="scale(0.015625)"/>
       <path id="DejaVuSans-29" d="M 513 4856 
L 1013 4856 
Q 1481 4119 1714 3412 
Q 1947 2706 1947 2009 
Q 1947 1309 1714 600 
Q 1481 -109 1013 -844 
L 513 -844 
Q 928 -128 1133 580 
Q 1338 1288 1338 2009 
Q 1338 2731 1133 3434 
Q 928 4138 513 4856 
z
" transform="scale(0.015625)"/>
       <path id="DejaVuSans-2f" d="M 1625 4666 
L 2156 4666 
L 531 -594 
L 0 -594 
L 1625 4666 
z
" transform="scale(0.015625)"/>
      </defs>
      <use xlink:href="#DejaVuSans-28" transform="translate(0 0.125)"/>
      <use xlink:href="#DejaVuSans-Oblique-46" transform="translate(39.013672 0.125)"/>
      <use xlink:href="#DejaVuSans-Oblique-70" transform="translate(96.533203 -16.28125) scale(0.7)"/>
      <use xlink:href="#DejaVuSans-2b" transform="translate(163.183594 0.125)"/>
      <use xlink:href="#DejaVuSans-Oblique-46" transform="translate(266.455078 0.125)"/>
      <use xlink:href="#DejaVuSans-2605" transform="translate(323.974609 -16.28125) scale(0.7)"/>
      <use xlink:href="#DejaVuSans-29" transform="translate(389.462891 0.125)"/>
      <use xlink:href="#DejaVuSans-2f" transform="translate(428.476562 0.125)"/>
      <use xlink:href="#DejaVuSans-Oblique-46" transform="translate(462.167969 0.125)"/>
      <use xlink:href="#DejaVuSans-2605" transform="translate(519.6875 -16.28125) scale(0.7)"/>
     </g>
    </g>
    <g id="text_16">
     <!-- +1 -->
     <g transform="translate(57.6 38.472) scale(0.14 -0.14)">
      <use xlink:href="#DejaVuSans-2b"/>
      <use xlink:href="#DejaVuSans-31" transform="translate(83.789062 0)"/>
     </g>
    </g>
   </g>
   <g id="patch_3">
    <path d="M 57.6 307.584 
L 57.6 41.472 
" style="fill: none; stroke: #000000; stroke-width: 0.8; stroke-linejoin: miter; stroke-linecap: square"/>
   </g>
   <g id="patch_4">
    <path d="M 414.72 307.584 
L 414.72 41.472 
" style="fill: none; stroke: #000000; stroke-width: 0.8; stroke-linejoin: miter; stroke-linecap: square"/>
   </g>
   <g id="patch_5">
    <path d="M 57.6 307.584 
L 414.72 307.584 
" style="fill: none; stroke: #000000; stroke-width: 0.8; stroke-linejoin: miter; stroke-linecap: square"/>
   </g>
   <g id="patch_6">
    <path d="M 57.6 41.472 
L 414.72 41.472 
" style="fill: none; stroke: #000000; stroke-width: 0.8; stroke-linejoin: miter; stroke-linecap: square"/>
   </g>
   <g id="LineCollection_1">
    <path d="M 75.548611 85.530177 
L 75.548611 69.966788 
" clip-path="url(#pd772638b50)" style="fill: none; stroke: #ff8000; stroke-width: 1.5"/>
    <path d="M 78.98703 100.944001 
L 78.98703 85.380612 
" clip-path="url(#pd772638b50)" style="fill: none; stroke: #ff8000; stroke-width: 1.5"/>
    <path d="M 82.422123 88.536852 
L 82.422123 72.95839 
" clip-path="url(#pd772638b50)" style="fill: none; stroke: #ff8000; stroke-width: 1.5"/>
    <path d="M 85.857216 100.238488 
L 85.857216 84.6751 
" clip-path="url(#pd772638b50)" style="fill: none; stroke: #ff8000; stroke-width: 1.5"/>
    <path d="M 89.295635 79.477653 
L 89.295635 63.914264 
" clip-path="url(#pd772638b50)" style="fill: none; stroke: #ff8000; stroke-width: 1.5"/>
    <path d="M 92.730728 79.630808 
L 92.730728 64.052346 
" clip-path="url(#pd772638b50)" style="fill: none; stroke: #ff8000; stroke-width: 1.5"/>
    <path d="M 96.165821 91.888865 
L 96.165821 76.325476 
" clip-path="url(#pd772638b50)" style="fill: none; stroke: #ff8000; stroke-width: 1.5"/>
    <path d="M 99.604239 126.757141 
L 99.604239 111.193753 
" clip-path="url(#pd772638b50)" style="fill: none; stroke: #ff8000; stroke-width: 1.5"/>
    <path d="M 103.039333 130.457295 
L 103.039333 114.878833 
" clip-path="url(#pd772638b50)" style="fill: none; stroke: #ff8000; stroke-width: 1.5"/>
    <path d="M 106.474426 130.736532 
L 106.474426 115.173143 
" clip-path="url(#pd772638b50)" style="fill: none; stroke: #ff8000; stroke-width: 1.5"/>
    <path d="M 109.909519 126.821904 
L 109.909519 111.243442 
" clip-path="url(#pd772638b50)" style="fill: none; stroke: #ff8000; stroke-width: 1.5"/>
    <path d="M 113.344612 125.0814 
L 113.344612 109.518011 
" clip-path="url(#pd772638b50)" style="fill: none; stroke: #ff8000; stroke-width: 1.5"/>
    <path d="M 116.783031 133.29427 
L 116.783031 117.730881 
" clip-path="url(#pd772638b50)" style="fill: none; stroke: #ff8000; stroke-width: 1.5"/>
    <path d="M 120.218124 117.121887 
L 120.218124 101.543425 
" clip-path="url(#pd772638b50)" style="fill: none; stroke: #ff8000; stroke-width: 1.5"/>
    <path d="M 123.653217 74.580199 
L 123.653217 59.01681 
" clip-path="url(#pd772638b50)" style="fill: none; stroke: #ff8000; stroke-width: 1.5"/>
    <path d="M 127.091635 90.721173 
L 127.091635 75.157784 
" clip-path="url(#pd772638b50)" style="fill: none; stroke: #ff8000; stroke-width: 1.5"/>
    <path d="M 130.526729 83.433027 
L 130.526729 67.854565 
" clip-path="url(#pd772638b50)" style="fill: none; stroke: #ff8000; stroke-width: 1.5"/>
    <path d="M 133.961822 89.759821 
L 133.961822 74.196433 
" clip-path="url(#pd772638b50)" style="fill: none; stroke: #ff8000; stroke-width: 1.5"/>
    <path d="M 137.40024 97.740101 
L 137.40024 82.176713 
" clip-path="url(#pd772638b50)" style="fill: none; stroke: #ff8000; stroke-width: 1.5"/>
    <path d="M 140.835333 91.626028 
L 140.835333 76.047566 
" clip-path="url(#pd772638b50)" style="fill: none; stroke: #ff8000; stroke-width: 1.5"/>
    <path d="M 144.270427 95.88136 
L 144.270427 80.317971 
" clip-path="url(#pd772638b50)" style="fill: none; stroke: #ff8000; stroke-width: 1.5"/>
    <path d="M 147.70552 101.183169 
L 147.70552 85.604707 
" clip-path="url(#pd772638b50)" style="fill: none; stroke: #ff8000; stroke-width: 1.5"/>
    <path d="M 151.140613 102.499838 
L 151.140613 86.936449 
" clip-path="url(#pd772638b50)" style="fill: none; stroke: #ff8000; stroke-width: 1.5"/>
    <path d="M 154.579031 109.449912 
L 154.579031 93.886524 
" clip-path="url(#pd772638b50)" style="fill: none; stroke: #ff8000; stroke-width: 1.5"/>
    <path d="M 158.014125 96.192532 
L 158.014125 80.61407 
" clip-path="url(#pd772638b50)" style="fill: none; stroke: #ff8000; stroke-width: 1.5"/>
    <path d="M 161.449218 110.15327 
L 161.449218 94.589881 
" clip-path="url(#pd772638b50)" style="fill: none; stroke: #ff8000; stroke-width: 1.5"/>
    <path d="M 164.887636 77.445571 
L 164.887636 61.882183 
" clip-path="url(#pd772638b50)" style="fill: none; stroke: #ff8000; stroke-width: 1.5"/>
    <path d="M 168.322729 113.201939 
L 168.322729 97.623476 
" clip-path="url(#pd772638b50)" style="fill: none; stroke: #ff8000; stroke-width: 1.5"/>
    <path d="M 171.757823 113.319561 
L 171.757823 97.756172 
" clip-path="url(#pd772638b50)" style="fill: none; stroke: #ff8000; stroke-width: 1.5"/>
    <path d="M 175.192916 98.909551 
L 175.192916 83.331089 
" clip-path="url(#pd772638b50)" style="fill: none; stroke: #ff8000; stroke-width: 1.5"/>
    <path d="M 178.628009 103.414219 
L 178.628009 87.85083 
" clip-path="url(#pd772638b50)" style="fill: none; stroke: #ff8000; stroke-width: 1.5"/>
    <path d="M 182.066427 111.532775 
L 182.066427 95.969386 
" clip-path="url(#pd772638b50)" style="fill: none; stroke: #ff8000; stroke-width: 1.5"/>
    <path d="M 185.501521 113.658399 
L 185.501521 98.079937 
" clip-path="url(#pd772638b50)" style="fill: none; stroke: #ff8000; stroke-width: 1.5"/>
    <path d="M 188.936614 126.793356 
L 188.936614 111.229968 
" clip-path="url(#pd772638b50)" style="fill: none; stroke: #ff8000; stroke-width: 1.5"/>
    <path d="M 192.375032 121.261836 
L 192.375032 105.698447 
" clip-path="url(#pd772638b50)" style="fill: none; stroke: #ff8000; stroke-width: 1.5"/>
    <path d="M 195.810125 128.218361 
L 195.810125 112.639899 
" clip-path="url(#pd772638b50)" style="fill: none; stroke: #ff8000; stroke-width: 1.5"/>
    <path d="M 199.245219 109.507068 
L 199.245219 93.94368 
" clip-path="url(#pd772638b50)" style="fill: none; stroke: #ff8000; stroke-width: 1.5"/>
    <path d="M 202.683637 119.662022 
L 202.683637 104.098633 
" clip-path="url(#pd772638b50)" style="fill: none; stroke: #ff8000; stroke-width: 1.5"/>
    <path d="M 206.11873 100.783835 
L 206.11873 85.205373 
" clip-path="url(#pd772638b50)" style="fill: none; stroke: #ff8000; stroke-width: 1.5"/>
    <path d="M 209.553823 143.634567 
L 209.553823 128.071178 
" clip-path="url(#pd772638b50)" style="fill: none; stroke: #ff8000; stroke-width: 1.5"/>
    <path d="M 212.988917 122.916173 
L 212.988917 107.337711 
" clip-path="url(#pd772638b50)" style="fill: none; stroke: #ff8000; stroke-width: 1.5"/>
    <path d="M 216.42401 126.01823 
L 216.42401 110.454842 
" clip-path="url(#pd772638b50)" style="fill: none; stroke: #ff8000; stroke-width: 1.5"/>
    <path d="M 219.862428 123.411558 
L 219.862428 107.84817 
" clip-path="url(#pd772638b50)" style="fill: none; stroke: #ff8000; stroke-width: 1.5"/>
    <path d="M 223.297521 136.577818 
L 223.297521 120.999356 
" clip-path="url(#pd772638b50)" style="fill: none; stroke: #ff8000; stroke-width: 1.5"/>
    <path d="M 226.732615 270.614229 
L 226.732615 255.050841 
" clip-path="url(#pd772638b50)" style="fill: none; stroke: #ff8000; stroke-width: 1.5"/>
    <path d="M 230.171033 272.808738 
L 230.171033 257.24535 
" clip-path="url(#pd772638b50)" style="fill: none; stroke: #ff8000; stroke-width: 1.5"/>
    <path d="M 233.606126 293.69897 
L 233.606126 278.120508 
" clip-path="url(#pd772638b50)" style="fill: none; stroke: #ff8000; stroke-width: 1.5"/>
    <path d="M 237.041219 291.214845 
L 237.041219 275.651456 
" clip-path="url(#pd772638b50)" style="fill: none; stroke: #ff8000; stroke-width: 1.5"/>
    <path d="M 240.476313 281.961291 
L 240.476313 266.382829 
" clip-path="url(#pd772638b50)" style="fill: none; stroke: #ff8000; stroke-width: 1.5"/>
    <path d="M 243.911406 281.728913 
L 243.911406 266.165524 
" clip-path="url(#pd772638b50)" style="fill: none; stroke: #ff8000; stroke-width: 1.5"/>
    <path d="M 247.349824 212.095165 
L 247.349824 196.531776 
" clip-path="url(#pd772638b50)" style="fill: none; stroke: #ff8000; stroke-width: 1.5"/>
    <path d="M 250.784917 123.376766 
L 250.784917 107.798304 
" clip-path="url(#pd772638b50)" style="fill: none; stroke: #ff8000; stroke-width: 1.5"/>
    <path d="M 254.220011 116.751684 
L 254.220011 101.188295 
" clip-path="url(#pd772638b50)" style="fill: none; stroke: #ff8000; stroke-width: 1.5"/>
    <path d="M 257.658429 125.017056 
L 257.658429 109.453667 
" clip-path="url(#pd772638b50)" style="fill: none; stroke: #ff8000; stroke-width: 1.5"/>
    <path d="M 261.093522 108.975572 
L 261.093522 93.39711 
" clip-path="url(#pd772638b50)" style="fill: none; stroke: #ff8000; stroke-width: 1.5"/>
    <path d="M 264.528615 113.244694 
L 264.528615 97.681305 
" clip-path="url(#pd772638b50)" style="fill: none; stroke: #ff8000; stroke-width: 1.5"/>
    <path d="M 267.967034 112.197477 
L 267.967034 96.634088 
" clip-path="url(#pd772638b50)" style="fill: none; stroke: #ff8000; stroke-width: 1.5"/>
    <path d="M 271.402127 112.978191 
L 271.402127 97.399729 
" clip-path="url(#pd772638b50)" style="fill: none; stroke: #ff8000; stroke-width: 1.5"/>
    <path d="M 274.83722 118.310865 
L 274.83722 102.747477 
" clip-path="url(#pd772638b50)" style="fill: none; stroke: #ff8000; stroke-width: 1.5"/>
    <path d="M 278.272313 126.316236 
L 278.272313 110.737774 
" clip-path="url(#pd772638b50)" style="fill: none; stroke: #ff8000; stroke-width: 1.5"/>
    <path d="M 281.707407 114.534456 
L 281.707407 98.971067 
" clip-path="url(#pd772638b50)" style="fill: none; stroke: #ff8000; stroke-width: 1.5"/>
    <path d="M 285.145825 122.582516 
L 285.145825 107.019128 
" clip-path="url(#pd772638b50)" style="fill: none; stroke: #ff8000; stroke-width: 1.5"/>
    <path d="M 288.580918 113.094898 
L 288.580918 97.516436 
" clip-path="url(#pd772638b50)" style="fill: none; stroke: #ff8000; stroke-width: 1.5"/>
    <path d="M 292.016011 106.69674 
L 292.016011 91.133351 
" clip-path="url(#pd772638b50)" style="fill: none; stroke: #ff8000; stroke-width: 1.5"/>
    <path d="M 295.45443 98.411618 
L 295.45443 82.84823 
" clip-path="url(#pd772638b50)" style="fill: none; stroke: #ff8000; stroke-width: 1.5"/>
    <path d="M 298.889523 107.23076 
L 298.889523 91.652298 
" clip-path="url(#pd772638b50)" style="fill: none; stroke: #ff8000; stroke-width: 1.5"/>
    <path d="M 302.324616 108.17235 
L 302.324616 92.608961 
" clip-path="url(#pd772638b50)" style="fill: none; stroke: #ff8000; stroke-width: 1.5"/>
    <path d="M 305.759709 112.025747 
L 305.759709 96.447285 
" clip-path="url(#pd772638b50)" style="fill: none; stroke: #ff8000; stroke-width: 1.5"/>
    <path d="M 309.194803 90.417389 
L 309.194803 74.854001 
" clip-path="url(#pd772638b50)" style="fill: none; stroke: #ff8000; stroke-width: 1.5"/>
    <path d="M 312.633221 102.710304 
L 312.633221 87.146916 
" clip-path="url(#pd772638b50)" style="fill: none; stroke: #ff8000; stroke-width: 1.5"/>
    <path d="M 316.068314 96.010078 
L 316.068314 80.431616 
" clip-path="url(#pd772638b50)" style="fill: none; stroke: #ff8000; stroke-width: 1.5"/>
    <path d="M 319.503407 102.072136 
L 319.503407 86.508748 
" clip-path="url(#pd772638b50)" style="fill: none; stroke: #ff8000; stroke-width: 1.5"/>
    <path d="M 322.941826 90.123509 
L 322.941826 74.560121 
" clip-path="url(#pd772638b50)" style="fill: none; stroke: #ff8000; stroke-width: 1.5"/>
    <path d="M 326.376919 107.702588 
L 326.376919 92.124126 
" clip-path="url(#pd772638b50)" style="fill: none; stroke: #ff8000; stroke-width: 1.5"/>
    <path d="M 329.812012 91.581264 
L 329.812012 76.017875 
" clip-path="url(#pd772638b50)" style="fill: none; stroke: #ff8000; stroke-width: 1.5"/>
    <path d="M 333.250431 95.216676 
L 333.250431 79.653288 
" clip-path="url(#pd772638b50)" style="fill: none; stroke: #ff8000; stroke-width: 1.5"/>
    <path d="M 336.685524 105.292605 
L 336.685524 89.714143 
" clip-path="url(#pd772638b50)" style="fill: none; stroke: #ff8000; stroke-width: 1.5"/>
    <path d="M 340.120617 93.620577 
L 340.120617 78.057189 
" clip-path="url(#pd772638b50)" style="fill: none; stroke: #ff8000; stroke-width: 1.5"/>
    <path d="M 343.55571 85.028813 
L 343.55571 69.450351 
" clip-path="url(#pd772638b50)" style="fill: none; stroke: #ff8000; stroke-width: 1.5"/>
    <path d="M 346.990803 69.131389 
L 346.990803 53.568 
" clip-path="url(#pd772638b50)" style="fill: none; stroke: #ff8000; stroke-width: 1.5"/>
    <path d="M 350.429222 107.4664 
L 350.429222 91.903011 
" clip-path="url(#pd772638b50)" style="fill: none; stroke: #ff8000; stroke-width: 1.5"/>
    <path d="M 353.864315 129.121693 
L 353.864315 113.543231 
" clip-path="url(#pd772638b50)" style="fill: none; stroke: #ff8000; stroke-width: 1.5"/>
    <path d="M 357.299408 132.971455 
L 357.299408 117.408067 
" clip-path="url(#pd772638b50)" style="fill: none; stroke: #ff8000; stroke-width: 1.5"/>
    <path d="M 360.737827 116.621073 
L 360.737827 101.057685 
" clip-path="url(#pd772638b50)" style="fill: none; stroke: #ff8000; stroke-width: 1.5"/>
    <path d="M 364.17292 125.563602 
L 364.17292 109.98514 
" clip-path="url(#pd772638b50)" style="fill: none; stroke: #ff8000; stroke-width: 1.5"/>
    <path d="M 367.608013 126.568052 
L 367.608013 111.004663 
" clip-path="url(#pd772638b50)" style="fill: none; stroke: #ff8000; stroke-width: 1.5"/>
    <path d="M 371.043106 126.50338 
L 371.043106 110.924917 
" clip-path="url(#pd772638b50)" style="fill: none; stroke: #ff8000; stroke-width: 1.5"/>
    <path d="M 374.4782 107.670849 
L 374.4782 92.107461 
" clip-path="url(#pd772638b50)" style="fill: none; stroke: #ff8000; stroke-width: 1.5"/>
    <path d="M 377.916618 76.677927 
L 377.916618 61.114538 
" clip-path="url(#pd772638b50)" style="fill: none; stroke: #ff8000; stroke-width: 1.5"/>
    <path d="M 381.351711 74.628043 
L 381.351711 59.049581 
" clip-path="url(#pd772638b50)" style="fill: none; stroke: #ff8000; stroke-width: 1.5"/>
    <path d="M 384.786804 78.112192 
L 384.786804 62.548803 
" clip-path="url(#pd772638b50)" style="fill: none; stroke: #ff8000; stroke-width: 1.5"/>
    <path d="M 388.225223 83.459129 
L 388.225223 67.895741 
" clip-path="url(#pd772638b50)" style="fill: none; stroke: #ff8000; stroke-width: 1.5"/>
    <path d="M 391.660316 96.896135 
L 391.660316 81.317672 
" clip-path="url(#pd772638b50)" style="fill: none; stroke: #ff8000; stroke-width: 1.5"/>
    <path d="M 395.095409 82.697079 
L 395.095409 67.13369 
" clip-path="url(#pd772638b50)" style="fill: none; stroke: #ff8000; stroke-width: 1.5"/>
    <path d="M 397.652608 97.684588 
L 397.652608 75.392582 
" clip-path="url(#pd772638b50)" style="fill: none; stroke: #ff8000; stroke-width: 1.5"/>
   </g>
   <g id="text_17">
    <!-- Phase curve at $\lambda$ = 3.34 $\mu$m with RS-CH0-bin -->
    <g transform="translate(56.88 21.834187) scale(0.16 -0.16)">
     <defs>
      <path id="DejaVuSans-50" d="M 1259 4147 
L 1259 2394 
L 2053 2394 
Q 2494 2394 2734 2622 
Q 2975 2850 2975 3272 
Q 2975 3691 2734 3919 
Q 2494 4147 2053 4147 
L 1259 4147 
z
M 628 4666 
L 2053 4666 
Q 2838 4666 3239 4311 
Q 3641 3956 3641 3272 
Q 3641 2581 3239 2228 
Q 2838 1875 2053 1875 
L 1259 1875 
L 1259 0 
L 628 0 
L 628 4666 
z
" transform="scale(0.015625)"/>
      <path id="DejaVuSans-68" d="M 3513 2113 
L 3513 0 
L 2938 0 
L 2938 2094 
Q 2938 2591 2744 2837 
Q 2550 3084 2163 3084 
Q 1697 3084 1428 2787 
Q 1159 2491 1159 1978 
L 1159 0 
L 581 0 
L 581 4863 
L 1159 4863 
L 1159 2956 
Q 1366 3272 1645 3428 
Q 1925 3584 2291 3584 
Q 2894 3584 3203 3211 
Q 3513 2838 3513 2113 
z
" transform="scale(0.015625)"/>
      <path id="DejaVuSans-61" d="M 2194 1759 
Q 1497 1759 1228 1600 
Q 959 1441 959 1056 
Q 959 750 1161 570 
Q 1363 391 1709 391 
Q 2188 391 2477 730 
Q 2766 1069 2766 1631 
L 2766 1759 
L 2194 1759 
z
M 3341 1997 
L 3341 0 
L 2766 0 
L 2766 531 
Q 2569 213 2275 61 
Q 1981 -91 1556 -91 
Q 1019 -91 701 211 
Q 384 513 384 1019 
Q 384 1609 779 1909 
Q 1175 2209 1959 2209 
L 2766 2209 
L 2766 2266 
Q 2766 2663 2505 2880 
Q 2244 3097 1772 3097 
Q 1472 3097 1187 3025 
Q 903 2953 641 2809 
L 641 3341 
Q 956 3463 1253 3523 
Q 1550 3584 1831 3584 
Q 2591 3584 2966 3190 
Q 3341 2797 3341 1997 
z
" transform="scale(0.015625)"/>
      <path id="DejaVuSans-73" d="M 2834 3397 
L 2834 2853 
Q 2591 2978 2328 3040 
Q 2066 3103 1784 3103 
Q 1356 3103 1142 2972 
Q 928 2841 928 2578 
Q 928 2378 1081 2264 
Q 1234 2150 1697 2047 
L 1894 2003 
Q 2506 1872 2764 1633 
Q 3022 1394 3022 966 
Q 3022 478 2636 193 
Q 2250 -91 1575 -91 
Q 1294 -91 989 -36 
Q 684 19 347 128 
L 347 722 
Q 666 556 975 473 
Q 1284 391 1588 391 
Q 1994 391 2212 530 
Q 2431 669 2431 922 
Q 2431 1156 2273 1281 
Q 2116 1406 1581 1522 
L 1381 1569 
Q 847 1681 609 1914 
Q 372 2147 372 2553 
Q 372 3047 722 3315 
Q 1072 3584 1716 3584 
Q 2034 3584 2315 3537 
Q 2597 3491 2834 3397 
z
" transform="scale(0.015625)"/>
      <path id="DejaVuSans-65" d="M 3597 1894 
L 3597 1613 
L 953 1613 
Q 991 1019 1311 708 
Q 1631 397 2203 397 
Q 2534 397 2845 478 
Q 3156 559 3463 722 
L 3463 178 
Q 3153 47 2828 -22 
Q 2503 -91 2169 -91 
Q 1331 -91 842 396 
Q 353 884 353 1716 
Q 353 2575 817 3079 
Q 1281 3584 2069 3584 
Q 2775 3584 3186 3129 
Q 3597 2675 3597 1894 
z
M 3022 2063 
Q 3016 2534 2758 2815 
Q 2500 3097 2075 3097 
Q 1594 3097 1305 2825 
Q 1016 2553 972 2059 
L 3022 2063 
z
" transform="scale(0.015625)"/>
      <path id="DejaVuSans-63" d="M 3122 3366 
L 3122 2828 
Q 2878 2963 2633 3030 
Q 2388 3097 2138 3097 
Q 1578 3097 1268 2742 
Q 959 2388 959 1747 
Q 959 1106 1268 751 
Q 1578 397 2138 397 
Q 2388 397 2633 464 
Q 2878 531 3122 666 
L 3122 134 
Q 2881 22 2623 -34 
Q 2366 -91 2075 -91 
Q 1284 -91 818 406 
Q 353 903 353 1747 
Q 353 2603 823 3093 
Q 1294 3584 2113 3584 
Q 2378 3584 2631 3529 
Q 2884 3475 3122 3366 
z
" transform="scale(0.015625)"/>
      <path id="DejaVuSans-75" d="M 544 1381 
L 544 3500 
L 1119 3500 
L 1119 1403 
Q 1119 906 1312 657 
Q 1506 409 1894 409 
Q 2359 409 2629 706 
Q 2900 1003 2900 1516 
L 2900 3500 
L 3475 3500 
L 3475 0 
L 2900 0 
L 2900 538 
Q 2691 219 2414 64 
Q 2138 -91 1772 -91 
Q 1169 -91 856 284 
Q 544 659 544 1381 
z
M 1991 3584 
L 1991 3584 
z
" transform="scale(0.015625)"/>
      <path id="DejaVuSans-72" d="M 2631 2963 
Q 2534 3019 2420 3045 
Q 2306 3072 2169 3072 
Q 1681 3072 1420 2755 
Q 1159 2438 1159 1844 
L 1159 0 
L 581 0 
L 581 3500 
L 1159 3500 
L 1159 2956 
Q 1341 3275 1631 3429 
Q 1922 3584 2338 3584 
Q 2397 3584 2469 3576 
Q 2541 3569 2628 3553 
L 2631 2963 
z
" transform="scale(0.015625)"/>
      <path id="DejaVuSans-76" d="M 191 3500 
L 800 3500 
L 1894 563 
L 2988 3500 
L 3597 3500 
L 2284 0 
L 1503 0 
L 191 3500 
z
" transform="scale(0.015625)"/>
      <path id="DejaVuSans-74" d="M 1172 4494 
L 1172 3500 
L 2356 3500 
L 2356 3053 
L 1172 3053 
L 1172 1153 
Q 1172 725 1289 603 
Q 1406 481 1766 481 
L 2356 481 
L 2356 0 
L 1766 0 
Q 1100 0 847 248 
Q 594 497 594 1153 
L 594 3053 
L 172 3053 
L 172 3500 
L 594 3500 
L 594 4494 
L 1172 4494 
z
" transform="scale(0.015625)"/>
      <path id="DejaVuSans-Oblique-3bb" d="M 2350 4316 
L 3125 0 
L 2516 0 
L 2038 2588 
L 328 0 
L -281 0 
L 1903 3356 
L 1794 3975 
Q 1725 4369 1391 4369 
L 1091 4369 
L 1184 4863 
L 1550 4856 
Q 2253 4847 2350 4316 
z
" transform="scale(0.015625)"/>
      <path id="DejaVuSans-3d" d="M 678 2906 
L 4684 2906 
L 4684 2381 
L 678 2381 
L 678 2906 
z
M 678 1631 
L 4684 1631 
L 4684 1100 
L 678 1100 
L 678 1631 
z
" transform="scale(0.015625)"/>
      <path id="DejaVuSans-Oblique-3bc" d="M -84 -1331 
L 856 3500 
L 1434 3500 
L 1009 1322 
Q 997 1256 987 1175 
Q 978 1094 978 1013 
Q 978 722 1161 565 
Q 1344 409 1684 409 
Q 2147 409 2431 671 
Q 2716 934 2816 1459 
L 3213 3500 
L 3788 3500 
L 3266 809 
Q 3253 750 3248 706 
Q 3244 663 3244 628 
Q 3244 531 3283 486 
Q 3322 441 3406 441 
Q 3438 441 3492 456 
Q 3547 472 3647 513 
L 3559 50 
Q 3422 -19 3297 -55 
Q 3172 -91 3053 -91 
Q 2847 -91 2730 40 
Q 2613 172 2613 403 
Q 2438 153 2195 31 
Q 1953 -91 1625 -91 
Q 1334 -91 1117 43 
Q 900 178 831 397 
L 494 -1331 
L -84 -1331 
z
" transform="scale(0.015625)"/>
      <path id="DejaVuSans-6d" d="M 3328 2828 
Q 3544 3216 3844 3400 
Q 4144 3584 4550 3584 
Q 5097 3584 5394 3201 
Q 5691 2819 5691 2113 
L 5691 0 
L 5113 0 
L 5113 2094 
Q 5113 2597 4934 2840 
Q 4756 3084 4391 3084 
Q 3944 3084 3684 2787 
Q 3425 2491 3425 1978 
L 3425 0 
L 2847 0 
L 2847 2094 
Q 2847 2600 2669 2842 
Q 2491 3084 2119 3084 
Q 1678 3084 1418 2786 
Q 1159 2488 1159 1978 
L 1159 0 
L 581 0 
L 581 3500 
L 1159 3500 
L 1159 2956 
Q 1356 3278 1631 3431 
Q 1906 3584 2284 3584 
Q 2666 3584 2933 3390 
Q 3200 3197 3328 2828 
z
" transform="scale(0.015625)"/>
      <path id="DejaVuSans-77" d="M 269 3500 
L 844 3500 
L 1563 769 
L 2278 3500 
L 2956 3500 
L 3675 769 
L 4391 3500 
L 4966 3500 
L 4050 0 
L 3372 0 
L 2619 2869 
L 1863 0 
L 1184 0 
L 269 3500 
z
" transform="scale(0.015625)"/>
      <path id="DejaVuSans-69" d="M 603 3500 
L 1178 3500 
L 1178 0 
L 603 0 
L 603 3500 
z
M 603 4863 
L 1178 4863 
L 1178 4134 
L 603 4134 
L 603 4863 
z
" transform="scale(0.015625)"/>
      <path id="DejaVuSans-52" d="M 2841 2188 
Q 3044 2119 3236 1894 
Q 3428 1669 3622 1275 
L 4263 0 
L 3584 0 
L 2988 1197 
Q 2756 1666 2539 1819 
Q 2322 1972 1947 1972 
L 1259 1972 
L 1259 0 
L 628 0 
L 628 4666 
L 2053 4666 
Q 2853 4666 3247 4331 
Q 3641 3997 3641 3322 
Q 3641 2881 3436 2590 
Q 3231 2300 2841 2188 
z
M 1259 4147 
L 1259 2491 
L 2053 2491 
Q 2509 2491 2742 2702 
Q 2975 2913 2975 3322 
Q 2975 3731 2742 3939 
Q 2509 4147 2053 4147 
L 1259 4147 
z
" transform="scale(0.015625)"/>
      <path id="DejaVuSans-53" d="M 3425 4513 
L 3425 3897 
Q 3066 4069 2747 4153 
Q 2428 4238 2131 4238 
Q 1616 4238 1336 4038 
Q 1056 3838 1056 3469 
Q 1056 3159 1242 3001 
Q 1428 2844 1947 2747 
L 2328 2669 
Q 3034 2534 3370 2195 
Q 3706 1856 3706 1288 
Q 3706 609 3251 259 
Q 2797 -91 1919 -91 
Q 1588 -91 1214 -16 
Q 841 59 441 206 
L 441 856 
Q 825 641 1194 531 
Q 1563 422 1919 422 
Q 2459 422 2753 634 
Q 3047 847 3047 1241 
Q 3047 1584 2836 1778 
Q 2625 1972 2144 2069 
L 1759 2144 
Q 1053 2284 737 2584 
Q 422 2884 422 3419 
Q 422 4038 858 4394 
Q 1294 4750 2059 4750 
Q 2388 4750 2728 4690 
Q 3069 4631 3425 4513 
z
" transform="scale(0.015625)"/>
      <path id="DejaVuSans-43" d="M 4122 4306 
L 4122 3641 
Q 3803 3938 3442 4084 
Q 3081 4231 2675 4231 
Q 1875 4231 1450 3742 
Q 1025 3253 1025 2328 
Q 1025 1406 1450 917 
Q 1875 428 2675 428 
Q 3081 428 3442 575 
Q 3803 722 4122 1019 
L 4122 359 
Q 3791 134 3420 21 
Q 3050 -91 2638 -91 
Q 1578 -91 968 557 
Q 359 1206 359 2328 
Q 359 3453 968 4101 
Q 1578 4750 2638 4750 
Q 3056 4750 3426 4639 
Q 3797 4528 4122 4306 
z
" transform="scale(0.015625)"/>
      <path id="DejaVuSans-48" d="M 628 4666 
L 1259 4666 
L 1259 2753 
L 3553 2753 
L 3553 4666 
L 4184 4666 
L 4184 0 
L 3553 0 
L 3553 2222 
L 1259 2222 
L 1259 0 
L 628 0 
L 628 4666 
z
" transform="scale(0.015625)"/>
      <path id="DejaVuSans-62" d="M 3116 1747 
Q 3116 2381 2855 2742 
Q 2594 3103 2138 3103 
Q 1681 3103 1420 2742 
Q 1159 2381 1159 1747 
Q 1159 1113 1420 752 
Q 1681 391 2138 391 
Q 2594 391 2855 752 
Q 3116 1113 3116 1747 
z
M 1159 2969 
Q 1341 3281 1617 3432 
Q 1894 3584 2278 3584 
Q 2916 3584 3314 3078 
Q 3713 2572 3713 1747 
Q 3713 922 3314 415 
Q 2916 -91 2278 -91 
Q 1894 -91 1617 61 
Q 1341 213 1159 525 
L 1159 0 
L 581 0 
L 581 4863 
L 1159 4863 
L 1159 2969 
z
" transform="scale(0.015625)"/>
      <path id="DejaVuSans-6e" d="M 3513 2113 
L 3513 0 
L 2938 0 
L 2938 2094 
Q 2938 2591 2744 2837 
Q 2550 3084 2163 3084 
Q 1697 3084 1428 2787 
Q 1159 2491 1159 1978 
L 1159 0 
L 581 0 
L 581 3500 
L 1159 3500 
L 1159 2956 
Q 1366 3272 1645 3428 
Q 1925 3584 2291 3584 
Q 2894 3584 3203 3211 
Q 3513 2838 3513 2113 
z
" transform="scale(0.015625)"/>
     </defs>
     <use xlink:href="#DejaVuSans-50" transform="translate(0 0.015625)"/>
     <use xlink:href="#DejaVuSans-68" transform="translate(60.302734 0.015625)"/>
     <use xlink:href="#DejaVuSans-61" transform="translate(123.681641 0.015625)"/>
     <use xlink:href="#DejaVuSans-73" transform="translate(184.960938 0.015625)"/>
     <use xlink:href="#DejaVuSans-65" transform="translate(237.060547 0.015625)"/>
     <use xlink:href="#DejaVuSans-20" transform="translate(298.583984 0.015625)"/>
     <use xlink:href="#DejaVuSans-63" transform="translate(330.371094 0.015625)"/>
     <use xlink:href="#DejaVuSans-75" transform="translate(385.351562 0.015625)"/>
     <use xlink:href="#DejaVuSans-72" transform="translate(448.730469 0.015625)"/>
     <use xlink:href="#DejaVuSans-76" transform="translate(489.84375 0.015625)"/>
     <use xlink:href="#DejaVuSans-65" transform="translate(549.023438 0.015625)"/>
     <use xlink:href="#DejaVuSans-20" transform="translate(610.546875 0.015625)"/>
     <use xlink:href="#DejaVuSans-61" transform="translate(642.333984 0.015625)"/>
     <use xlink:href="#DejaVuSans-74" transform="translate(703.613281 0.015625)"/>
     <use xlink:href="#DejaVuSans-20" transform="translate(742.822266 0.015625)"/>
     <use xlink:href="#DejaVuSans-Oblique-3bb" transform="translate(774.609375 0.015625)"/>
     <use xlink:href="#DejaVuSans-20" transform="translate(833.789062 0.015625)"/>
     <use xlink:href="#DejaVuSans-3d" transform="translate(865.576172 0.015625)"/>
     <use xlink:href="#DejaVuSans-20" transform="translate(949.365234 0.015625)"/>
     <use xlink:href="#DejaVuSans-33" transform="translate(981.152344 0.015625)"/>
     <use xlink:href="#DejaVuSans-2e" transform="translate(1044.775391 0.015625)"/>
     <use xlink:href="#DejaVuSans-33" transform="translate(1076.5625 0.015625)"/>
     <use xlink:href="#DejaVuSans-34" transform="translate(1140.185547 0.015625)"/>
     <use xlink:href="#DejaVuSans-20" transform="translate(1203.808594 0.015625)"/>
     <use xlink:href="#DejaVuSans-Oblique-3bc" transform="translate(1235.595703 0.015625)"/>
     <use xlink:href="#DejaVuSans-6d" transform="translate(1299.21875 0.015625)"/>
     <use xlink:href="#DejaVuSans-20" transform="translate(1396.630859 0.015625)"/>
     <use xlink:href="#DejaVuSans-77" transform="translate(1428.417969 0.015625)"/>
     <use xlink:href="#DejaVuSans-69" transform="translate(1510.205078 0.015625)"/>
     <use xlink:href="#DejaVuSans-74" transform="translate(1537.988281 0.015625)"/>
     <use xlink:href="#DejaVuSans-68" transform="translate(1577.197266 0.015625)"/>
     <use xlink:href="#DejaVuSans-20" transform="translate(1640.576172 0.015625)"/>
     <use xlink:href="#DejaVuSans-52" transform="translate(1672.363281 0.015625)"/>
     <use xlink:href="#DejaVuSans-53" transform="translate(1741.845703 0.015625)"/>
     <use xlink:href="#DejaVuSans-2d" transform="translate(1805.322266 0.015625)"/>
     <use xlink:href="#DejaVuSans-43" transform="translate(1841.40625 0.015625)"/>
     <use xlink:href="#DejaVuSans-48" transform="translate(1911.230469 0.015625)"/>
     <use xlink:href="#DejaVuSans-30" transform="translate(1986.425781 0.015625)"/>
     <use xlink:href="#DejaVuSans-2d" transform="translate(2050.048828 0.015625)"/>
     <use xlink:href="#DejaVuSans-62" transform="translate(2086.132812 0.015625)"/>
     <use xlink:href="#DejaVuSans-69" transform="translate(2149.609375 0.015625)"/>
     <use xlink:href="#DejaVuSans-6e" transform="translate(2177.392578 0.015625)"/>
    </g>
   </g>
   <g id="line2d_14">
    <defs>
     <path id="m8c4fd8db06" d="M 0 3 
C 0.795609 3 1.55874 2.683901 2.12132 2.12132 
C 2.683901 1.55874 3 0.795609 3 0 
C 3 -0.795609 2.683901 -1.55874 2.12132 -2.12132 
C 1.55874 -2.683901 0.795609 -3 0 -3 
C -0.795609 -3 -1.55874 -2.683901 -2.12132 -2.12132 
C -2.683901 -1.55874 -3 -0.795609 -3 0 
C -3 0.795609 -2.683901 1.55874 -2.12132 2.12132 
C -1.55874 2.683901 -0.795609 3 0 3 
z
" style="stroke: #ff8000"/>
    </defs>
    <g clip-path="url(#pd772638b50)">
     <use xlink:href="#m8c4fd8db06" x="75.548611" y="77.748483" style="fill: #ff8000; stroke: #ff8000"/>
     <use xlink:href="#m8c4fd8db06" x="78.98703" y="93.162307" style="fill: #ff8000; stroke: #ff8000"/>
     <use xlink:href="#m8c4fd8db06" x="82.422123" y="80.747621" style="fill: #ff8000; stroke: #ff8000"/>
     <use xlink:href="#m8c4fd8db06" x="85.857216" y="92.456794" style="fill: #ff8000; stroke: #ff8000"/>
     <use xlink:href="#m8c4fd8db06" x="89.295635" y="71.695958" style="fill: #ff8000; stroke: #ff8000"/>
     <use xlink:href="#m8c4fd8db06" x="92.730728" y="71.841577" style="fill: #ff8000; stroke: #ff8000"/>
     <use xlink:href="#m8c4fd8db06" x="96.165821" y="84.107171" style="fill: #ff8000; stroke: #ff8000"/>
     <use xlink:href="#m8c4fd8db06" x="99.604239" y="118.975447" style="fill: #ff8000; stroke: #ff8000"/>
     <use xlink:href="#m8c4fd8db06" x="103.039333" y="122.668064" style="fill: #ff8000; stroke: #ff8000"/>
     <use xlink:href="#m8c4fd8db06" x="106.474426" y="122.954837" style="fill: #ff8000; stroke: #ff8000"/>
     <use xlink:href="#m8c4fd8db06" x="109.909519" y="119.032673" style="fill: #ff8000; stroke: #ff8000"/>
     <use xlink:href="#m8c4fd8db06" x="113.344612" y="117.299706" style="fill: #ff8000; stroke: #ff8000"/>
     <use xlink:href="#m8c4fd8db06" x="116.783031" y="125.512576" style="fill: #ff8000; stroke: #ff8000"/>
     <use xlink:href="#m8c4fd8db06" x="120.218124" y="109.332656" style="fill: #ff8000; stroke: #ff8000"/>
     <use xlink:href="#m8c4fd8db06" x="123.653217" y="66.798505" style="fill: #ff8000; stroke: #ff8000"/>
     <use xlink:href="#m8c4fd8db06" x="127.091635" y="82.939479" style="fill: #ff8000; stroke: #ff8000"/>
     <use xlink:href="#m8c4fd8db06" x="130.526729" y="75.643796" style="fill: #ff8000; stroke: #ff8000"/>
     <use xlink:href="#m8c4fd8db06" x="133.961822" y="81.978127" style="fill: #ff8000; stroke: #ff8000"/>
     <use xlink:href="#m8c4fd8db06" x="137.40024" y="89.958407" style="fill: #ff8000; stroke: #ff8000"/>
     <use xlink:href="#m8c4fd8db06" x="140.835333" y="83.836797" style="fill: #ff8000; stroke: #ff8000"/>
     <use xlink:href="#m8c4fd8db06" x="144.270427" y="88.099665" style="fill: #ff8000; stroke: #ff8000"/>
     <use xlink:href="#m8c4fd8db06" x="147.70552" y="93.393938" style="fill: #ff8000; stroke: #ff8000"/>
     <use xlink:href="#m8c4fd8db06" x="151.140613" y="94.718144" style="fill: #ff8000; stroke: #ff8000"/>
     <use xlink:href="#m8c4fd8db06" x="154.579031" y="101.668218" style="fill: #ff8000; stroke: #ff8000"/>
     <use xlink:href="#m8c4fd8db06" x="158.014125" y="88.403301" style="fill: #ff8000; stroke: #ff8000"/>
     <use xlink:href="#m8c4fd8db06" x="161.449218" y="102.371575" style="fill: #ff8000; stroke: #ff8000"/>
     <use xlink:href="#m8c4fd8db06" x="164.887636" y="69.663877" style="fill: #ff8000; stroke: #ff8000"/>
     <use xlink:href="#m8c4fd8db06" x="168.322729" y="105.412707" style="fill: #ff8000; stroke: #ff8000"/>
     <use xlink:href="#m8c4fd8db06" x="171.757823" y="105.537867" style="fill: #ff8000; stroke: #ff8000"/>
     <use xlink:href="#m8c4fd8db06" x="175.192916" y="91.12032" style="fill: #ff8000; stroke: #ff8000"/>
     <use xlink:href="#m8c4fd8db06" x="178.628009" y="95.632524" style="fill: #ff8000; stroke: #ff8000"/>
     <use xlink:href="#m8c4fd8db06" x="182.066427" y="103.751081" style="fill: #ff8000; stroke: #ff8000"/>
     <use xlink:href="#m8c4fd8db06" x="185.501521" y="105.869168" style="fill: #ff8000; stroke: #ff8000"/>
     <use xlink:href="#m8c4fd8db06" x="188.936614" y="119.011662" style="fill: #ff8000; stroke: #ff8000"/>
     <use xlink:href="#m8c4fd8db06" x="192.375032" y="113.480141" style="fill: #ff8000; stroke: #ff8000"/>
     <use xlink:href="#m8c4fd8db06" x="195.810125" y="120.42913" style="fill: #ff8000; stroke: #ff8000"/>
     <use xlink:href="#m8c4fd8db06" x="199.245219" y="101.725374" style="fill: #ff8000; stroke: #ff8000"/>
     <use xlink:href="#m8c4fd8db06" x="202.683637" y="111.880327" style="fill: #ff8000; stroke: #ff8000"/>
     <use xlink:href="#m8c4fd8db06" x="206.11873" y="92.994604" style="fill: #ff8000; stroke: #ff8000"/>
     <use xlink:href="#m8c4fd8db06" x="209.553823" y="135.852873" style="fill: #ff8000; stroke: #ff8000"/>
     <use xlink:href="#m8c4fd8db06" x="212.988917" y="115.126942" style="fill: #ff8000; stroke: #ff8000"/>
     <use xlink:href="#m8c4fd8db06" x="216.42401" y="118.236536" style="fill: #ff8000; stroke: #ff8000"/>
     <use xlink:href="#m8c4fd8db06" x="219.862428" y="115.629864" style="fill: #ff8000; stroke: #ff8000"/>
     <use xlink:href="#m8c4fd8db06" x="223.297521" y="128.788587" style="fill: #ff8000; stroke: #ff8000"/>
     <use xlink:href="#m8c4fd8db06" x="226.732615" y="262.832535" style="fill: #ff8000; stroke: #ff8000"/>
     <use xlink:href="#m8c4fd8db06" x="230.171033" y="265.027044" style="fill: #ff8000; stroke: #ff8000"/>
     <use xlink:href="#m8c4fd8db06" x="233.606126" y="285.909739" style="fill: #ff8000; stroke: #ff8000"/>
     <use xlink:href="#m8c4fd8db06" x="237.041219" y="283.433151" style="fill: #ff8000; stroke: #ff8000"/>
     <use xlink:href="#m8c4fd8db06" x="240.476313" y="274.17206" style="fill: #ff8000; stroke: #ff8000"/>
     <use xlink:href="#m8c4fd8db06" x="243.911406" y="273.947218" style="fill: #ff8000; stroke: #ff8000"/>
     <use xlink:href="#m8c4fd8db06" x="247.349824" y="204.313471" style="fill: #ff8000; stroke: #ff8000"/>
     <use xlink:href="#m8c4fd8db06" x="250.784917" y="115.587535" style="fill: #ff8000; stroke: #ff8000"/>
     <use xlink:href="#m8c4fd8db06" x="254.220011" y="108.96999" style="fill: #ff8000; stroke: #ff8000"/>
     <use xlink:href="#m8c4fd8db06" x="257.658429" y="117.235362" style="fill: #ff8000; stroke: #ff8000"/>
     <use xlink:href="#m8c4fd8db06" x="261.093522" y="101.186341" style="fill: #ff8000; stroke: #ff8000"/>
     <use xlink:href="#m8c4fd8db06" x="264.528615" y="105.463" style="fill: #ff8000; stroke: #ff8000"/>
     <use xlink:href="#m8c4fd8db06" x="267.967034" y="104.415783" style="fill: #ff8000; stroke: #ff8000"/>
     <use xlink:href="#m8c4fd8db06" x="271.402127" y="105.18896" style="fill: #ff8000; stroke: #ff8000"/>
     <use xlink:href="#m8c4fd8db06" x="274.83722" y="110.529171" style="fill: #ff8000; stroke: #ff8000"/>
     <use xlink:href="#m8c4fd8db06" x="278.272313" y="118.527005" style="fill: #ff8000; stroke: #ff8000"/>
     <use xlink:href="#m8c4fd8db06" x="281.707407" y="106.752762" style="fill: #ff8000; stroke: #ff8000"/>
     <use xlink:href="#m8c4fd8db06" x="285.145825" y="114.800822" style="fill: #ff8000; stroke: #ff8000"/>
     <use xlink:href="#m8c4fd8db06" x="288.580918" y="105.305667" style="fill: #ff8000; stroke: #ff8000"/>
     <use xlink:href="#m8c4fd8db06" x="292.016011" y="98.915045" style="fill: #ff8000; stroke: #ff8000"/>
     <use xlink:href="#m8c4fd8db06" x="295.45443" y="90.629924" style="fill: #ff8000; stroke: #ff8000"/>
     <use xlink:href="#m8c4fd8db06" x="298.889523" y="99.441529" style="fill: #ff8000; stroke: #ff8000"/>
     <use xlink:href="#m8c4fd8db06" x="302.324616" y="100.390655" style="fill: #ff8000; stroke: #ff8000"/>
     <use xlink:href="#m8c4fd8db06" x="305.759709" y="104.236516" style="fill: #ff8000; stroke: #ff8000"/>
     <use xlink:href="#m8c4fd8db06" x="309.194803" y="82.635695" style="fill: #ff8000; stroke: #ff8000"/>
     <use xlink:href="#m8c4fd8db06" x="312.633221" y="94.92861" style="fill: #ff8000; stroke: #ff8000"/>
     <use xlink:href="#m8c4fd8db06" x="316.068314" y="88.220847" style="fill: #ff8000; stroke: #ff8000"/>
     <use xlink:href="#m8c4fd8db06" x="319.503407" y="94.290442" style="fill: #ff8000; stroke: #ff8000"/>
     <use xlink:href="#m8c4fd8db06" x="322.941826" y="82.341815" style="fill: #ff8000; stroke: #ff8000"/>
     <use xlink:href="#m8c4fd8db06" x="326.376919" y="99.913357" style="fill: #ff8000; stroke: #ff8000"/>
     <use xlink:href="#m8c4fd8db06" x="329.812012" y="83.79957" style="fill: #ff8000; stroke: #ff8000"/>
     <use xlink:href="#m8c4fd8db06" x="333.250431" y="87.434982" style="fill: #ff8000; stroke: #ff8000"/>
     <use xlink:href="#m8c4fd8db06" x="336.685524" y="97.503374" style="fill: #ff8000; stroke: #ff8000"/>
     <use xlink:href="#m8c4fd8db06" x="340.120617" y="85.838883" style="fill: #ff8000; stroke: #ff8000"/>
     <use xlink:href="#m8c4fd8db06" x="343.55571" y="77.239582" style="fill: #ff8000; stroke: #ff8000"/>
     <use xlink:href="#m8c4fd8db06" x="346.990803" y="61.349694" style="fill: #ff8000; stroke: #ff8000"/>
     <use xlink:href="#m8c4fd8db06" x="350.429222" y="99.684705" style="fill: #ff8000; stroke: #ff8000"/>
     <use xlink:href="#m8c4fd8db06" x="353.864315" y="121.332462" style="fill: #ff8000; stroke: #ff8000"/>
     <use xlink:href="#m8c4fd8db06" x="357.299408" y="125.189761" style="fill: #ff8000; stroke: #ff8000"/>
     <use xlink:href="#m8c4fd8db06" x="360.737827" y="108.839379" style="fill: #ff8000; stroke: #ff8000"/>
     <use xlink:href="#m8c4fd8db06" x="364.17292" y="117.774371" style="fill: #ff8000; stroke: #ff8000"/>
     <use xlink:href="#m8c4fd8db06" x="367.608013" y="118.786357" style="fill: #ff8000; stroke: #ff8000"/>
     <use xlink:href="#m8c4fd8db06" x="371.043106" y="118.714149" style="fill: #ff8000; stroke: #ff8000"/>
     <use xlink:href="#m8c4fd8db06" x="374.4782" y="99.889155" style="fill: #ff8000; stroke: #ff8000"/>
     <use xlink:href="#m8c4fd8db06" x="377.916618" y="68.896232" style="fill: #ff8000; stroke: #ff8000"/>
     <use xlink:href="#m8c4fd8db06" x="381.351711" y="66.838812" style="fill: #ff8000; stroke: #ff8000"/>
     <use xlink:href="#m8c4fd8db06" x="384.786804" y="70.330497" style="fill: #ff8000; stroke: #ff8000"/>
     <use xlink:href="#m8c4fd8db06" x="388.225223" y="75.677435" style="fill: #ff8000; stroke: #ff8000"/>
     <use xlink:href="#m8c4fd8db06" x="391.660316" y="89.106903" style="fill: #ff8000; stroke: #ff8000"/>
     <use xlink:href="#m8c4fd8db06" x="395.095409" y="74.915385" style="fill: #ff8000; stroke: #ff8000"/>
     <use xlink:href="#m8c4fd8db06" x="397.652608" y="86.538585" style="fill: #ff8000; stroke: #ff8000"/>
    </g>
   </g>
   <g id="line2d_15">
    <path d="M 73.832727 86.59273 
L 79.186551 84.615193 
L 84.174586 83.006926 
L 88.896592 81.715519 
L 93.432378 80.703535 
L 97.83515 79.94773 
L 97.92826 79.934228 
L 97.93491 79.982299 
L 98.014719 84.428047 
L 98.573379 119.724248 
L 120.833315 119.654813 
L 120.919774 114.531637 
L 121.318817 79.93407 
L 121.44518 79.952419 
L 125.801397 80.700695 
L 130.270676 81.695465 
L 134.906223 82.957195 
L 139.761243 84.511671 
L 144.928847 86.403105 
L 150.548699 88.701564 
L 156.880178 91.537882 
L 164.614957 95.258708 
L 192.587855 108.951977 
L 198.733114 111.567761 
L 204.226602 113.668609 
L 209.307747 115.376736 
L 214.09626 116.754598 
L 218.678601 117.844039 
L 223.114627 118.671724 
L 224.471372 118.956411 
L 224.54453 130.059519 
L 224.870415 227.661699 
L 225.056635 248.137292 
L 225.415773 254.306275 
L 225.921228 259.271656 
L 226.553045 263.344457 
L 227.297925 266.735896 
L 228.142566 269.569818 
L 229.067015 271.911683 
L 230.05132 273.81589 
L 231.07553 275.327891 
L 232.126343 276.493365 
L 233.183806 277.342535 
L 234.234619 277.908521 
L 235.278781 278.222486 
L 236.309641 278.302618 
L 237.333851 278.159313 
L 238.35141 277.791282 
L 239.368969 277.183262 
L 240.379877 276.315066 
L 241.377484 275.158643 
L 242.348488 273.685309 
L 243.279588 271.859958 
L 244.157482 269.636956 
L 244.962218 266.978198 
L 245.680495 263.815456 
L 246.292361 260.098239 
L 246.791164 255.676766 
L 247.163604 250.374665 
L 247.369776 244.727916 
L 247.476188 221.140864 
L 247.935087 118.866583 
L 252.284653 118.122059 
L 256.753932 117.130015 
L 261.382828 115.872906 
L 266.237849 114.321293 
L 271.398802 112.435148 
L 277.012003 110.142322 
L 283.336831 107.311796 
L 291.045007 103.606435 
L 319.283934 89.789544 
L 325.40924 87.188354 
L 330.889428 85.098494 
L 335.957271 83.400448 
L 340.745784 82.028104 
L 345.328125 80.944333 
L 349.7575 80.123489 
L 351.007834 79.948586 
L 351.074341 83.276256 
L 351.686207 119.724248 
L 373.906238 119.694937 
L 373.979396 115.748143 
L 374.398391 79.934718 
L 374.551357 79.956962 
L 378.907574 80.706832 
L 383.376853 81.703163 
L 388.0124 82.966411 
L 392.86742 84.522347 
L 398.035024 86.415163 
L 398.487273 86.591455 
L 398.487273 86.591455 
" clip-path="url(#pd772638b50)" style="fill: none; stroke: #000000; stroke-width: 1.5; stroke-linecap: square"/>
   </g>
   <g id="legend_1">
    <g id="patch_7">
     <path d="M 66 301.584 
L 176.4075 301.584 
Q 178.8075 301.584 178.8075 299.184 
L 178.8075 247.54275 
Q 178.8075 245.14275 176.4075 245.14275 
L 66 245.14275 
Q 63.6 245.14275 63.6 247.54275 
L 63.6 299.184 
Q 63.6 301.584 66 301.584 
z
" style="fill: #ffffff; opacity: 0.8; stroke: #cccccc; stroke-linejoin: miter"/>
    </g>
    <g id="line2d_16">
     <path d="M 68.4 254.860875 
L 80.4 254.860875 
L 92.4 254.860875 
" style="fill: none; stroke: #1f77b4; stroke-width: 1.5; stroke-linecap: square"/>
    </g>
    <g id="text_18">
     <!-- our model -->
     <g transform="translate(102 259.060875) scale(0.12 -0.12)">
      <defs>
       <path id="DejaVuSans-6f" d="M 1959 3097 
Q 1497 3097 1228 2736 
Q 959 2375 959 1747 
Q 959 1119 1226 758 
Q 1494 397 1959 397 
Q 2419 397 2687 759 
Q 2956 1122 2956 1747 
Q 2956 2369 2687 2733 
Q 2419 3097 1959 3097 
z
M 1959 3584 
Q 2709 3584 3137 3096 
Q 3566 2609 3566 1747 
Q 3566 888 3137 398 
Q 2709 -91 1959 -91 
Q 1206 -91 779 398 
Q 353 888 353 1747 
Q 353 2609 779 3096 
Q 1206 3584 1959 3584 
z
" transform="scale(0.015625)"/>
       <path id="DejaVuSans-6c" d="M 603 4863 
L 1178 4863 
L 1178 0 
L 603 0 
L 603 4863 
z
" transform="scale(0.015625)"/>
      </defs>
      <use xlink:href="#DejaVuSans-6f"/>
      <use xlink:href="#DejaVuSans-75" transform="translate(61.181641 0)"/>
      <use xlink:href="#DejaVuSans-72" transform="translate(124.560547 0)"/>
      <use xlink:href="#DejaVuSans-20" transform="translate(165.673828 0)"/>
      <use xlink:href="#DejaVuSans-6d" transform="translate(197.460938 0)"/>
      <use xlink:href="#DejaVuSans-6f" transform="translate(294.873047 0)"/>
      <use xlink:href="#DejaVuSans-64" transform="translate(356.054688 0)"/>
      <use xlink:href="#DejaVuSans-65" transform="translate(419.53125 0)"/>
      <use xlink:href="#DejaVuSans-6c" transform="translate(481.054688 0)"/>
     </g>
    </g>
    <g id="line2d_17">
     <path d="M 68.4 272.474625 
L 80.4 272.474625 
L 92.4 272.474625 
" style="fill: none; stroke: #000000; stroke-width: 1.5; stroke-linecap: square"/>
    </g>
    <g id="text_19">
     <!-- origin data -->
     <g transform="translate(102 276.674625) scale(0.12 -0.12)">
      <defs>
       <path id="DejaVuSans-67" d="M 2906 1791 
Q 2906 2416 2648 2759 
Q 2391 3103 1925 3103 
Q 1463 3103 1205 2759 
Q 947 2416 947 1791 
Q 947 1169 1205 825 
Q 1463 481 1925 481 
Q 2391 481 2648 825 
Q 2906 1169 2906 1791 
z
M 3481 434 
Q 3481 -459 3084 -895 
Q 2688 -1331 1869 -1331 
Q 1566 -1331 1297 -1286 
Q 1028 -1241 775 -1147 
L 775 -588 
Q 1028 -725 1275 -790 
Q 1522 -856 1778 -856 
Q 2344 -856 2625 -561 
Q 2906 -266 2906 331 
L 2906 616 
Q 2728 306 2450 153 
Q 2172 0 1784 0 
Q 1141 0 747 490 
Q 353 981 353 1791 
Q 353 2603 747 3093 
Q 1141 3584 1784 3584 
Q 2172 3584 2450 3431 
Q 2728 3278 2906 2969 
L 2906 3500 
L 3481 3500 
L 3481 434 
z
" transform="scale(0.015625)"/>
      </defs>
      <use xlink:href="#DejaVuSans-6f"/>
      <use xlink:href="#DejaVuSans-72" transform="translate(61.181641 0)"/>
      <use xlink:href="#DejaVuSans-69" transform="translate(102.294922 0)"/>
      <use xlink:href="#DejaVuSans-67" transform="translate(130.078125 0)"/>
      <use xlink:href="#DejaVuSans-69" transform="translate(193.554688 0)"/>
      <use xlink:href="#DejaVuSans-6e" transform="translate(221.337891 0)"/>
      <use xlink:href="#DejaVuSans-20" transform="translate(284.716797 0)"/>
      <use xlink:href="#DejaVuSans-64" transform="translate(316.503906 0)"/>
      <use xlink:href="#DejaVuSans-61" transform="translate(379.980469 0)"/>
      <use xlink:href="#DejaVuSans-74" transform="translate(441.259766 0)"/>
      <use xlink:href="#DejaVuSans-61" transform="translate(480.46875 0)"/>
     </g>
    </g>
    <g id="LineCollection_2">
     <path d="M 80.4 296.088375 
L 80.4 284.088375 
" style="fill: none; stroke: #ff8000; stroke-width: 1.5"/>
    </g>
    <g id="line2d_18"/>
    <g id="line2d_19">
     <g>
      <use xlink:href="#m8c4fd8db06" x="80.4" y="290.088375" style="fill: #ff8000; stroke: #ff8000"/>
     </g>
    </g>
    <g id="text_20">
     <!-- data binned -->
     <g transform="translate(102 294.288375) scale(0.12 -0.12)">
      <use xlink:href="#DejaVuSans-64"/>
      <use xlink:href="#DejaVuSans-61" transform="translate(63.476562 0)"/>
      <use xlink:href="#DejaVuSans-74" transform="translate(124.755859 0)"/>
      <use xlink:href="#DejaVuSans-61" transform="translate(163.964844 0)"/>
      <use xlink:href="#DejaVuSans-20" transform="translate(225.244141 0)"/>
      <use xlink:href="#DejaVuSans-62" transform="translate(257.03125 0)"/>
      <use xlink:href="#DejaVuSans-69" transform="translate(320.507812 0)"/>
      <use xlink:href="#DejaVuSans-6e" transform="translate(348.291016 0)"/>
      <use xlink:href="#DejaVuSans-6e" transform="translate(411.669922 0)"/>
      <use xlink:href="#DejaVuSans-65" transform="translate(475.048828 0)"/>
      <use xlink:href="#DejaVuSans-64" transform="translate(536.572266 0)"/>
     </g>
    </g>
   </g>
   <g id="line2d_20">
    <path d="M 73.832727 85.672776 
L 79.126695 83.661639 
L 84.054873 82.02416 
L 88.730324 80.702751 
L 93.212904 79.664893 
L 97.562471 78.884547 
L 98.260795 78.780724 
L 98.373858 119.728616 
L 120.97963 119.728616 
L 120.986281 78.780566 
L 121.092692 78.795997 
L 125.382402 79.533263 
L 129.778523 80.515742 
L 134.327611 81.761847 
L 139.089521 83.299097 
L 144.144063 85.167685 
L 149.6176 87.432707 
L 155.736255 90.211621 
L 163.05204 93.789339 
L 174.431409 99.639459 
L 186.376089 105.703879 
L 193.459098 109.04931 
L 199.431439 111.629422 
L 204.805214 113.712588 
L 209.786598 115.40831 
L 214.495303 116.778929 
L 219.011137 117.863592 
L 223.380655 118.685858 
L 224.318406 118.832196 
L 224.35831 122.262701 
L 224.537879 162.091418 
L 224.890367 228.443894 
L 225.329314 239.811684 
L 225.961132 250.48165 
L 226.739265 259.946659 
L 227.637112 268.213876 
L 228.608116 275.161949 
L 229.625675 280.891719 
L 230.649884 285.438451 
L 231.654142 288.929041 
L 232.611845 291.491438 
L 233.50304 293.273427 
L 234.314427 294.427262 
L 235.046006 295.102853 
L 235.704426 295.423455 
L 236.316292 295.480617 
L 236.914856 295.312682 
L 237.540023 294.899241 
L 238.218396 294.170632 
L 238.963275 293.024502 
L 239.774662 291.343536 
L 240.645906 288.999586 
L 241.563704 285.86321 
L 242.508105 281.816791 
L 243.459157 276.734478 
L 244.390257 270.514489 
L 245.268151 263.108681 
L 246.059586 254.503222 
L 246.731308 244.732308 
L 247.250064 233.9062 
L 247.536044 223.460271 
L 247.702312 185.053402 
L 248.048149 118.825677 
L 252.34451 118.065339 
L 256.753932 117.05787 
L 261.322972 115.784032 
L 266.111485 114.215602 
L 271.19928 112.311898 
L 276.719372 110.004728 
L 282.917836 107.166785 
L 290.406539 103.482216 
L 303.262367 96.85769 
L 313.657431 91.616643 
L 320.594124 88.365138 
L 326.499957 85.837615 
L 331.827178 83.795723 
L 336.781959 82.131806 
L 341.470712 80.789427 
L 345.966594 79.731547 
L 350.322811 78.933306 
L 351.333719 78.781037 
L 351.446781 119.728616 
L 374.052554 119.728616 
L 374.059205 78.780254 
L 374.165616 78.795681 
L 378.455326 79.532834 
L 382.851447 80.515203 
L 387.400534 81.7612 
L 392.162445 83.298346 
L 397.216987 85.166836 
L 398.487273 85.671466 
L 398.487273 85.671466 
" clip-path="url(#pd772638b50)" style="fill: none; stroke: #1f77b4; stroke-width: 1.5; stroke-linecap: square"/>
   </g>
  </g>
 </g>
 <defs>
  <clipPath id="pd772638b50">
   <rect x="57.6" y="41.472" width="357.12" height="266.112"/>
  </clipPath>
 </defs>
</svg>
