<?xml version="1.0" encoding="utf-8" standalone="no"?>
<!DOCTYPE svg PUBLIC "-//W3C//DTD SVG 1.1//EN"
  "http://www.w3.org/Graphics/SVG/1.1/DTD/svg11.dtd">
<svg xmlns:xlink="http://www.w3.org/1999/xlink" width="720pt" height="720pt" viewBox="0 0 720 720" xmlns="http://www.w3.org/2000/svg" version="1.1">
 <metadata>
  <rdf:RDF xmlns:dc="http://purl.org/dc/elements/1.1/" xmlns:cc="http://creativecommons.org/ns#" xmlns:rdf="http://www.w3.org/1999/02/22-rdf-syntax-ns#">
   <cc:Work>
    <dc:type rdf:resource="http://purl.org/dc/dcmitype/StillImage"/>
    <dc:date>2025-12-10T16:41:11.043881</dc:date>
    <dc:format>image/svg+xml</dc:format>
    <dc:creator>
     <cc:Agent>
      <dc:title>Matplotlib v3.10.7, https://matplotlib.org/</dc:title>
     </cc:Agent>
    </dc:creator>
   </cc:Work>
  </rdf:RDF>
 </metadata>
 <defs>
  <style type="text/css">*{stroke-linejoin: round; stroke-linecap: butt}</style>
 </defs>
 <g id="figure_1">
  <g id="patch_1">
   <path d="M 0 720 
L 720 720 
L 720 0 
L 0 0 
z
" style="fill: #ffffff"/>
  </g>
  <g id="axes_1">
   <g id="patch_2">
    <path d="M 90 640.8 
L 648 640.8 
L 648 86.4 
L 90 86.4 
z
" style="fill: #ffffff"/>
   </g>
   <g id="FillBetweenPolyCollection_1">
    <path d="M 124.82768 615.394745 
L 124.82768 615.599943 
L 148.487788 615.594266 
L 204.325645 613.11963 
L 281.930801 560.514477 
L 374.678426 452.05567 
L 622.636364 223.35647 
L 622.636364 168.714319 
L 622.636364 168.714319 
L 374.678426 393.943528 
L 281.930801 520.064686 
L 204.325645 591.172159 
L 148.487788 613.40902 
L 124.82768 615.394745 
z
" clip-path="url(#p3ea7074c5f)" style="fill: #1f77b4; fill-opacity: 0.2"/>
   </g>
   <g id="matplotlib.axis_1">
    <g id="xtick_1">
     <g id="line2d_1">
      <defs>
       <path id="mc544e817d5" d="M 0 0 
L 0 3.5 
" style="stroke: #000000; stroke-width: 0.8"/>
      </defs>
      <g>
       <use xlink:href="#mc544e817d5" x="153.21981" y="640.8" style="stroke: #000000; stroke-width: 0.8"/>
      </g>
     </g>
     <g id="text_1">
      <!-- 1 -->
      <g transform="translate(148.76606 658.437813) scale(0.14 -0.14)">
       <defs>
        <path id="DejaVuSans-31" d="M 794 531 
L 1825 531 
L 1825 4091 
L 703 3866 
L 703 4441 
L 1819 4666 
L 2450 4666 
L 2450 531 
L 3481 531 
L 3481 0 
L 794 0 
L 794 531 
z
" transform="scale(0.015625)"/>
       </defs>
       <use xlink:href="#DejaVuSans-31"/>
      </g>
     </g>
    </g>
    <g id="xtick_2">
     <g id="line2d_2">
      <g>
       <use xlink:href="#mc544e817d5" x="247.860244" y="640.8" style="stroke: #000000; stroke-width: 0.8"/>
      </g>
     </g>
     <g id="text_2">
      <!-- 2 -->
      <g transform="translate(243.406494 658.437813) scale(0.14 -0.14)">
       <defs>
        <path id="DejaVuSans-32" d="M 1228 531 
L 3431 531 
L 3431 0 
L 469 0 
L 469 531 
Q 828 903 1448 1529 
Q 2069 2156 2228 2338 
Q 2531 2678 2651 2914 
Q 2772 3150 2772 3378 
Q 2772 3750 2511 3984 
Q 2250 4219 1831 4219 
Q 1534 4219 1204 4116 
Q 875 4013 500 3803 
L 500 4441 
Q 881 4594 1212 4672 
Q 1544 4750 1819 4750 
Q 2544 4750 2975 4387 
Q 3406 4025 3406 3419 
Q 3406 3131 3298 2873 
Q 3191 2616 2906 2266 
Q 2828 2175 2409 1742 
Q 1991 1309 1228 531 
z
" transform="scale(0.015625)"/>
       </defs>
       <use xlink:href="#DejaVuSans-32"/>
      </g>
     </g>
    </g>
    <g id="xtick_3">
     <g id="line2d_3">
      <g>
       <use xlink:href="#mc544e817d5" x="342.500678" y="640.8" style="stroke: #000000; stroke-width: 0.8"/>
      </g>
     </g>
     <g id="text_3">
      <!-- 3 -->
      <g transform="translate(338.046928 658.437813) scale(0.14 -0.14)">
       <defs>
        <path id="DejaVuSans-33" d="M 2597 2516 
Q 3050 2419 3304 2112 
Q 3559 1806 3559 1356 
Q 3559 666 3084 287 
Q 2609 -91 1734 -91 
Q 1441 -91 1130 -33 
Q 819 25 488 141 
L 488 750 
Q 750 597 1062 519 
Q 1375 441 1716 441 
Q 2309 441 2620 675 
Q 2931 909 2931 1356 
Q 2931 1769 2642 2001 
Q 2353 2234 1838 2234 
L 1294 2234 
L 1294 2753 
L 1863 2753 
Q 2328 2753 2575 2939 
Q 2822 3125 2822 3475 
Q 2822 3834 2567 4026 
Q 2313 4219 1838 4219 
Q 1578 4219 1281 4162 
Q 984 4106 628 3988 
L 628 4550 
Q 988 4650 1302 4700 
Q 1616 4750 1894 4750 
Q 2613 4750 3031 4423 
Q 3450 4097 3450 3541 
Q 3450 3153 3228 2886 
Q 3006 2619 2597 2516 
z
" transform="scale(0.015625)"/>
       </defs>
       <use xlink:href="#DejaVuSans-33"/>
      </g>
     </g>
    </g>
    <g id="xtick_4">
     <g id="line2d_4">
      <g>
       <use xlink:href="#mc544e817d5" x="437.141113" y="640.8" style="stroke: #000000; stroke-width: 0.8"/>
      </g>
     </g>
     <g id="text_4">
      <!-- 4 -->
      <g transform="translate(432.687363 658.437813) scale(0.14 -0.14)">
       <defs>
        <path id="DejaVuSans-34" d="M 2419 4116 
L 825 1625 
L 2419 1625 
L 2419 4116 
z
M 2253 4666 
L 3047 4666 
L 3047 1625 
L 3713 1625 
L 3713 1100 
L 3047 1100 
L 3047 0 
L 2419 0 
L 2419 1100 
L 313 1100 
L 313 1709 
L 2253 4666 
z
" transform="scale(0.015625)"/>
       </defs>
       <use xlink:href="#DejaVuSans-34"/>
      </g>
     </g>
    </g>
    <g id="xtick_5">
     <g id="line2d_5">
      <g>
       <use xlink:href="#mc544e817d5" x="531.781547" y="640.8" style="stroke: #000000; stroke-width: 0.8"/>
      </g>
     </g>
     <g id="text_5">
      <!-- 5 -->
      <g transform="translate(527.327797 658.437813) scale(0.14 -0.14)">
       <defs>
        <path id="DejaVuSans-35" d="M 691 4666 
L 3169 4666 
L 3169 4134 
L 1269 4134 
L 1269 2991 
Q 1406 3038 1543 3061 
Q 1681 3084 1819 3084 
Q 2600 3084 3056 2656 
Q 3513 2228 3513 1497 
Q 3513 744 3044 326 
Q 2575 -91 1722 -91 
Q 1428 -91 1123 -41 
Q 819 9 494 109 
L 494 744 
Q 775 591 1075 516 
Q 1375 441 1709 441 
Q 2250 441 2565 725 
Q 2881 1009 2881 1497 
Q 2881 1984 2565 2268 
Q 2250 2553 1709 2553 
Q 1456 2553 1204 2497 
Q 953 2441 691 2322 
L 691 4666 
z
" transform="scale(0.015625)"/>
       </defs>
       <use xlink:href="#DejaVuSans-35"/>
      </g>
     </g>
    </g>
    <g id="xtick_6">
     <g id="line2d_6">
      <g>
       <use xlink:href="#mc544e817d5" x="626.421981" y="640.8" style="stroke: #000000; stroke-width: 0.8"/>
      </g>
     </g>
     <g id="text_6">
      <!-- 6 -->
      <g transform="translate(621.968231 658.437813) scale(0.14 -0.14)">
       <defs>
        <path id="DejaVuSans-36" d="M 2113 2584 
Q 1688 2584 1439 2293 
Q 1191 2003 1191 1497 
Q 1191 994 1439 701 
Q 1688 409 2113 409 
Q 2538 409 2786 701 
Q 3034 994 3034 1497 
Q 3034 2003 2786 2293 
Q 2538 2584 2113 2584 
z
M 3366 4563 
L 3366 3988 
Q 3128 4100 2886 4159 
Q 2644 4219 2406 4219 
Q 1781 4219 1451 3797 
Q 1122 3375 1075 2522 
Q 1259 2794 1537 2939 
Q 1816 3084 2150 3084 
Q 2853 3084 3261 2657 
Q 3669 2231 3669 1497 
Q 3669 778 3244 343 
Q 2819 -91 2113 -91 
Q 1303 -91 875 529 
Q 447 1150 447 2328 
Q 447 3434 972 4092 
Q 1497 4750 2381 4750 
Q 2619 4750 2861 4703 
Q 3103 4656 3366 4563 
z
" transform="scale(0.015625)"/>
       </defs>
       <use xlink:href="#DejaVuSans-36"/>
      </g>
     </g>
    </g>
    <g id="text_7">
     <!-- $\lambda$ ($\mu$m) -->
     <g transform="translate(345.83 675.989375) scale(0.14 -0.14)">
      <defs>
       <path id="DejaVuSans-Oblique-3bb" d="M 2350 4316 
L 3125 0 
L 2516 0 
L 2038 2588 
L 328 0 
L -281 0 
L 1903 3356 
L 1794 3975 
Q 1725 4369 1391 4369 
L 1091 4369 
L 1184 4863 
L 1550 4856 
Q 2253 4847 2350 4316 
z
" transform="scale(0.015625)"/>
       <path id="DejaVuSans-20" transform="scale(0.015625)"/>
       <path id="DejaVuSans-28" d="M 1984 4856 
Q 1566 4138 1362 3434 
Q 1159 2731 1159 2009 
Q 1159 1288 1364 580 
Q 1569 -128 1984 -844 
L 1484 -844 
Q 1016 -109 783 600 
Q 550 1309 550 2009 
Q 550 2706 781 3412 
Q 1013 4119 1484 4856 
L 1984 4856 
z
" transform="scale(0.015625)"/>
       <path id="DejaVuSans-Oblique-3bc" d="M -84 -1331 
L 856 3500 
L 1434 3500 
L 1009 1322 
Q 997 1256 987 1175 
Q 978 1094 978 1013 
Q 978 722 1161 565 
Q 1344 409 1684 409 
Q 2147 409 2431 671 
Q 2716 934 2816 1459 
L 3213 3500 
L 3788 3500 
L 3266 809 
Q 3253 750 3248 706 
Q 3244 663 3244 628 
Q 3244 531 3283 486 
Q 3322 441 3406 441 
Q 3438 441 3492 456 
Q 3547 472 3647 513 
L 3559 50 
Q 3422 -19 3297 -55 
Q 3172 -91 3053 -91 
Q 2847 -91 2730 40 
Q 2613 172 2613 403 
Q 2438 153 2195 31 
Q 1953 -91 1625 -91 
Q 1334 -91 1117 43 
Q 900 178 831 397 
L 494 -1331 
L -84 -1331 
z
" transform="scale(0.015625)"/>
       <path id="DejaVuSans-6d" d="M 3328 2828 
Q 3544 3216 3844 3400 
Q 4144 3584 4550 3584 
Q 5097 3584 5394 3201 
Q 5691 2819 5691 2113 
L 5691 0 
L 5113 0 
L 5113 2094 
Q 5113 2597 4934 2840 
Q 4756 3084 4391 3084 
Q 3944 3084 3684 2787 
Q 3425 2491 3425 1978 
L 3425 0 
L 2847 0 
L 2847 2094 
Q 2847 2600 2669 2842 
Q 2491 3084 2119 3084 
Q 1678 3084 1418 2786 
Q 1159 2488 1159 1978 
L 1159 0 
L 581 0 
L 581 3500 
L 1159 3500 
L 1159 2956 
Q 1356 3278 1631 3431 
Q 1906 3584 2284 3584 
Q 2666 3584 2933 3390 
Q 3200 3197 3328 2828 
z
" transform="scale(0.015625)"/>
       <path id="DejaVuSans-29" d="M 513 4856 
L 1013 4856 
Q 1481 4119 1714 3412 
Q 1947 2706 1947 2009 
Q 1947 1309 1714 600 
Q 1481 -109 1013 -844 
L 513 -844 
Q 928 -128 1133 580 
Q 1338 1288 1338 2009 
Q 1338 2731 1133 3434 
Q 928 4138 513 4856 
z
" transform="scale(0.015625)"/>
      </defs>
      <use xlink:href="#DejaVuSans-Oblique-3bb" transform="translate(0 0.015625)"/>
      <use xlink:href="#DejaVuSans-20" transform="translate(59.179688 0.015625)"/>
      <use xlink:href="#DejaVuSans-28" transform="translate(90.966797 0.015625)"/>
      <use xlink:href="#DejaVuSans-Oblique-3bc" transform="translate(129.980469 0.015625)"/>
      <use xlink:href="#DejaVuSans-6d" transform="translate(193.603516 0.015625)"/>
      <use xlink:href="#DejaVuSans-29" transform="translate(291.015625 0.015625)"/>
     </g>
    </g>
   </g>
   <g id="matplotlib.axis_2">
    <g id="ytick_1">
     <g id="line2d_7">
      <defs>
       <path id="m3687e3c77d" d="M 0 0 
L -3.5 0 
" style="stroke: #000000; stroke-width: 0.8"/>
      </defs>
      <g>
       <use xlink:href="#m3687e3c77d" x="90" y="615.6" style="stroke: #000000; stroke-width: 0.8"/>
      </g>
     </g>
     <g id="text_8">
      <!-- 0 -->
      <g transform="translate(74.0925 620.918906) scale(0.14 -0.14)">
       <defs>
        <path id="DejaVuSans-30" d="M 2034 4250 
Q 1547 4250 1301 3770 
Q 1056 3291 1056 2328 
Q 1056 1369 1301 889 
Q 1547 409 2034 409 
Q 2525 409 2770 889 
Q 3016 1369 3016 2328 
Q 3016 3291 2770 3770 
Q 2525 4250 2034 4250 
z
M 2034 4750 
Q 2819 4750 3233 4129 
Q 3647 3509 3647 2328 
Q 3647 1150 3233 529 
Q 2819 -91 2034 -91 
Q 1250 -91 836 529 
Q 422 1150 422 2328 
Q 422 3509 836 4129 
Q 1250 4750 2034 4750 
z
" transform="scale(0.015625)"/>
       </defs>
       <use xlink:href="#DejaVuSans-30"/>
      </g>
     </g>
    </g>
    <g id="ytick_2">
     <g id="line2d_8">
      <g>
       <use xlink:href="#m3687e3c77d" x="90" y="517.846328" style="stroke: #000000; stroke-width: 0.8"/>
      </g>
     </g>
     <g id="text_9">
      <!-- 100 -->
      <g transform="translate(56.2775 523.165234) scale(0.14 -0.14)">
       <use xlink:href="#DejaVuSans-31"/>
       <use xlink:href="#DejaVuSans-30" transform="translate(63.623047 0)"/>
       <use xlink:href="#DejaVuSans-30" transform="translate(127.246094 0)"/>
      </g>
     </g>
    </g>
    <g id="ytick_3">
     <g id="line2d_9">
      <g>
       <use xlink:href="#m3687e3c77d" x="90" y="420.092656" style="stroke: #000000; stroke-width: 0.8"/>
      </g>
     </g>
     <g id="text_10">
      <!-- 200 -->
      <g transform="translate(56.2775 425.411562) scale(0.14 -0.14)">
       <use xlink:href="#DejaVuSans-32"/>
       <use xlink:href="#DejaVuSans-30" transform="translate(63.623047 0)"/>
       <use xlink:href="#DejaVuSans-30" transform="translate(127.246094 0)"/>
      </g>
     </g>
    </g>
    <g id="ytick_4">
     <g id="line2d_10">
      <g>
       <use xlink:href="#m3687e3c77d" x="90" y="322.338984" style="stroke: #000000; stroke-width: 0.8"/>
      </g>
     </g>
     <g id="text_11">
      <!-- 300 -->
      <g transform="translate(56.2775 327.65789) scale(0.14 -0.14)">
       <use xlink:href="#DejaVuSans-33"/>
       <use xlink:href="#DejaVuSans-30" transform="translate(63.623047 0)"/>
       <use xlink:href="#DejaVuSans-30" transform="translate(127.246094 0)"/>
      </g>
     </g>
    </g>
    <g id="ytick_5">
     <g id="line2d_11">
      <g>
       <use xlink:href="#m3687e3c77d" x="90" y="224.585312" style="stroke: #000000; stroke-width: 0.8"/>
      </g>
     </g>
     <g id="text_12">
      <!-- 400 -->
      <g transform="translate(56.2775 229.904218) scale(0.14 -0.14)">
       <use xlink:href="#DejaVuSans-34"/>
       <use xlink:href="#DejaVuSans-30" transform="translate(63.623047 0)"/>
       <use xlink:href="#DejaVuSans-30" transform="translate(127.246094 0)"/>
      </g>
     </g>
    </g>
    <g id="ytick_6">
     <g id="line2d_12">
      <g>
       <use xlink:href="#m3687e3c77d" x="90" y="126.831639" style="stroke: #000000; stroke-width: 0.8"/>
      </g>
     </g>
     <g id="text_13">
      <!-- 500 -->
      <g transform="translate(56.2775 132.150546) scale(0.14 -0.14)">
       <use xlink:href="#DejaVuSans-35"/>
       <use xlink:href="#DejaVuSans-30" transform="translate(63.623047 0)"/>
       <use xlink:href="#DejaVuSans-30" transform="translate(127.246094 0)"/>
      </g>
     </g>
    </g>
    <g id="text_14">
     <!-- Eclipse depth (ppm) -->
     <g transform="translate(49.365937 434.152344) rotate(-90) scale(0.14 -0.14)">
      <defs>
       <path id="DejaVuSans-45" d="M 628 4666 
L 3578 4666 
L 3578 4134 
L 1259 4134 
L 1259 2753 
L 3481 2753 
L 3481 2222 
L 1259 2222 
L 1259 531 
L 3634 531 
L 3634 0 
L 628 0 
L 628 4666 
z
" transform="scale(0.015625)"/>
       <path id="DejaVuSans-63" d="M 3122 3366 
L 3122 2828 
Q 2878 2963 2633 3030 
Q 2388 3097 2138 3097 
Q 1578 3097 1268 2742 
Q 959 2388 959 1747 
Q 959 1106 1268 751 
Q 1578 397 2138 397 
Q 2388 397 2633 464 
Q 2878 531 3122 666 
L 3122 134 
Q 2881 22 2623 -34 
Q 2366 -91 2075 -91 
Q 1284 -91 818 406 
Q 353 903 353 1747 
Q 353 2603 823 3093 
Q 1294 3584 2113 3584 
Q 2378 3584 2631 3529 
Q 2884 3475 3122 3366 
z
" transform="scale(0.015625)"/>
       <path id="DejaVuSans-6c" d="M 603 4863 
L 1178 4863 
L 1178 0 
L 603 0 
L 603 4863 
z
" transform="scale(0.015625)"/>
       <path id="DejaVuSans-69" d="M 603 3500 
L 1178 3500 
L 1178 0 
L 603 0 
L 603 3500 
z
M 603 4863 
L 1178 4863 
L 1178 4134 
L 603 4134 
L 603 4863 
z
" transform="scale(0.015625)"/>
       <path id="DejaVuSans-70" d="M 1159 525 
L 1159 -1331 
L 581 -1331 
L 581 3500 
L 1159 3500 
L 1159 2969 
Q 1341 3281 1617 3432 
Q 1894 3584 2278 3584 
Q 2916 3584 3314 3078 
Q 3713 2572 3713 1747 
Q 3713 922 3314 415 
Q 2916 -91 2278 -91 
Q 1894 -91 1617 61 
Q 1341 213 1159 525 
z
M 3116 1747 
Q 3116 2381 2855 2742 
Q 2594 3103 2138 3103 
Q 1681 3103 1420 2742 
Q 1159 2381 1159 1747 
Q 1159 1113 1420 752 
Q 1681 391 2138 391 
Q 2594 391 2855 752 
Q 3116 1113 3116 1747 
z
" transform="scale(0.015625)"/>
       <path id="DejaVuSans-73" d="M 2834 3397 
L 2834 2853 
Q 2591 2978 2328 3040 
Q 2066 3103 1784 3103 
Q 1356 3103 1142 2972 
Q 928 2841 928 2578 
Q 928 2378 1081 2264 
Q 1234 2150 1697 2047 
L 1894 2003 
Q 2506 1872 2764 1633 
Q 3022 1394 3022 966 
Q 3022 478 2636 193 
Q 2250 -91 1575 -91 
Q 1294 -91 989 -36 
Q 684 19 347 128 
L 347 722 
Q 666 556 975 473 
Q 1284 391 1588 391 
Q 1994 391 2212 530 
Q 2431 669 2431 922 
Q 2431 1156 2273 1281 
Q 2116 1406 1581 1522 
L 1381 1569 
Q 847 1681 609 1914 
Q 372 2147 372 2553 
Q 372 3047 722 3315 
Q 1072 3584 1716 3584 
Q 2034 3584 2315 3537 
Q 2597 3491 2834 3397 
z
" transform="scale(0.015625)"/>
       <path id="DejaVuSans-65" d="M 3597 1894 
L 3597 1613 
L 953 1613 
Q 991 1019 1311 708 
Q 1631 397 2203 397 
Q 2534 397 2845 478 
Q 3156 559 3463 722 
L 3463 178 
Q 3153 47 2828 -22 
Q 2503 -91 2169 -91 
Q 1331 -91 842 396 
Q 353 884 353 1716 
Q 353 2575 817 3079 
Q 1281 3584 2069 3584 
Q 2775 3584 3186 3129 
Q 3597 2675 3597 1894 
z
M 3022 2063 
Q 3016 2534 2758 2815 
Q 2500 3097 2075 3097 
Q 1594 3097 1305 2825 
Q 1016 2553 972 2059 
L 3022 2063 
z
" transform="scale(0.015625)"/>
       <path id="DejaVuSans-64" d="M 2906 2969 
L 2906 4863 
L 3481 4863 
L 3481 0 
L 2906 0 
L 2906 525 
Q 2725 213 2448 61 
Q 2172 -91 1784 -91 
Q 1150 -91 751 415 
Q 353 922 353 1747 
Q 353 2572 751 3078 
Q 1150 3584 1784 3584 
Q 2172 3584 2448 3432 
Q 2725 3281 2906 2969 
z
M 947 1747 
Q 947 1113 1208 752 
Q 1469 391 1925 391 
Q 2381 391 2643 752 
Q 2906 1113 2906 1747 
Q 2906 2381 2643 2742 
Q 2381 3103 1925 3103 
Q 1469 3103 1208 2742 
Q 947 2381 947 1747 
z
" transform="scale(0.015625)"/>
       <path id="DejaVuSans-74" d="M 1172 4494 
L 1172 3500 
L 2356 3500 
L 2356 3053 
L 1172 3053 
L 1172 1153 
Q 1172 725 1289 603 
Q 1406 481 1766 481 
L 2356 481 
L 2356 0 
L 1766 0 
Q 1100 0 847 248 
Q 594 497 594 1153 
L 594 3053 
L 172 3053 
L 172 3500 
L 594 3500 
L 594 4494 
L 1172 4494 
z
" transform="scale(0.015625)"/>
       <path id="DejaVuSans-68" d="M 3513 2113 
L 3513 0 
L 2938 0 
L 2938 2094 
Q 2938 2591 2744 2837 
Q 2550 3084 2163 3084 
Q 1697 3084 1428 2787 
Q 1159 2491 1159 1978 
L 1159 0 
L 581 0 
L 581 4863 
L 1159 4863 
L 1159 2956 
Q 1366 3272 1645 3428 
Q 1925 3584 2291 3584 
Q 2894 3584 3203 3211 
Q 3513 2838 3513 2113 
z
" transform="scale(0.015625)"/>
      </defs>
      <use xlink:href="#DejaVuSans-45"/>
      <use xlink:href="#DejaVuSans-63" transform="translate(63.183594 0)"/>
      <use xlink:href="#DejaVuSans-6c" transform="translate(118.164062 0)"/>
      <use xlink:href="#DejaVuSans-69" transform="translate(145.947266 0)"/>
      <use xlink:href="#DejaVuSans-70" transform="translate(173.730469 0)"/>
      <use xlink:href="#DejaVuSans-73" transform="translate(237.207031 0)"/>
      <use xlink:href="#DejaVuSans-65" transform="translate(289.306641 0)"/>
      <use xlink:href="#DejaVuSans-20" transform="translate(350.830078 0)"/>
      <use xlink:href="#DejaVuSans-64" transform="translate(382.617188 0)"/>
      <use xlink:href="#DejaVuSans-65" transform="translate(446.09375 0)"/>
      <use xlink:href="#DejaVuSans-70" transform="translate(507.617188 0)"/>
      <use xlink:href="#DejaVuSans-74" transform="translate(571.09375 0)"/>
      <use xlink:href="#DejaVuSans-68" transform="translate(610.302734 0)"/>
      <use xlink:href="#DejaVuSans-20" transform="translate(673.681641 0)"/>
      <use xlink:href="#DejaVuSans-28" transform="translate(705.46875 0)"/>
      <use xlink:href="#DejaVuSans-70" transform="translate(744.482422 0)"/>
      <use xlink:href="#DejaVuSans-70" transform="translate(807.958984 0)"/>
      <use xlink:href="#DejaVuSans-6d" transform="translate(871.435547 0)"/>
      <use xlink:href="#DejaVuSans-29" transform="translate(968.847656 0)"/>
     </g>
    </g>
   </g>
   <g id="line2d_13">
    <path d="M 124.82768 615.592485 
L 148.487788 615.382333 
L 204.325645 604.181332 
L 281.930801 540.943233 
L 374.678426 422.87307 
L 622.636364 196.522629 
" clip-path="url(#p3ea7074c5f)" style="fill: none; stroke: #1f77b4; stroke-width: 1.5; stroke-linecap: square"/>
    <defs>
     <path id="m5ef983c13c" d="M 0 3 
C 0.795609 3 1.55874 2.683901 2.12132 2.12132 
C 2.683901 1.55874 3 0.795609 3 0 
C 3 -0.795609 2.683901 -1.55874 2.12132 -2.12132 
C 1.55874 -2.683901 0.795609 -3 0 -3 
C -0.795609 -3 -1.55874 -2.683901 -2.12132 -2.12132 
C -2.683901 -1.55874 -3 -0.795609 -3 0 
C -3 0.795609 -2.683901 1.55874 -2.12132 2.12132 
C -1.55874 2.683901 -0.795609 3 0 3 
z
" style="stroke: #1f77b4"/>
    </defs>
    <g clip-path="url(#p3ea7074c5f)">
     <use xlink:href="#m5ef983c13c" x="124.82768" y="615.592485" style="fill: #1f77b4; stroke: #1f77b4"/>
     <use xlink:href="#m5ef983c13c" x="148.487788" y="615.382333" style="fill: #1f77b4; stroke: #1f77b4"/>
     <use xlink:href="#m5ef983c13c" x="204.325645" y="604.181332" style="fill: #1f77b4; stroke: #1f77b4"/>
     <use xlink:href="#m5ef983c13c" x="281.930801" y="540.943233" style="fill: #1f77b4; stroke: #1f77b4"/>
     <use xlink:href="#m5ef983c13c" x="374.678426" y="422.87307" style="fill: #1f77b4; stroke: #1f77b4"/>
     <use xlink:href="#m5ef983c13c" x="622.636364" y="196.522629" style="fill: #1f77b4; stroke: #1f77b4"/>
    </g>
   </g>
   <g id="line2d_14">
    <path d="M 115.363636 615.599155 
L 124.82768 615.592425 
L 134.291723 615.560807 
L 143.755767 615.459453 
L 153.21981 615.210222 
L 162.683853 614.703642 
L 172.147897 613.809282 
L 181.61194 612.390255 
L 191.075984 610.317468 
L 200.540027 607.480765 
L 210.004071 603.795899 
L 219.468114 599.207471 
L 228.932157 593.688668 
L 238.396201 587.238783 
L 247.860244 579.879444 
L 257.324288 571.650307 
L 266.788331 562.604705 
L 276.252374 552.805627 
L 285.716418 542.322173 
L 295.180461 531.226591 
L 304.644505 519.59188 
L 314.108548 507.489928 
L 323.572592 494.990132 
L 333.036635 482.158409 
L 342.500678 469.056543 
L 351.964722 455.741805 
L 361.428765 442.266764 
L 370.892809 428.679272 
L 380.356852 415.022557 
L 389.820896 401.335394 
L 399.284939 387.652342 
L 408.748982 374.004008 
L 418.213026 360.417329 
L 427.677069 346.915869 
L 437.141113 333.5201 
L 446.605156 320.247688 
L 456.069199 307.11376 
L 465.533243 294.131153 
L 474.997286 281.310654 
L 484.46133 268.661213 
L 493.925373 256.190149 
L 503.389417 243.903328 
L 512.85346 231.80533 
L 522.317503 219.899605 
L 531.781547 208.1886 
L 541.24559 196.673891 
L 550.709634 185.356285 
L 560.173677 174.235924 
L 569.63772 163.312371 
L 579.101764 152.584685 
L 588.565807 142.051497 
L 598.029851 131.711067 
L 607.493894 121.561341 
L 616.957938 111.6 
" clip-path="url(#p3ea7074c5f)" style="fill: none; stroke: #ff7f0e; stroke-width: 1.5; stroke-linecap: square"/>
   </g>
   <g id="line2d_15">
    <path d="M 115.363636 615.6 
L 124.82768 615.6 
L 134.291723 615.6 
L 143.755767 615.6 
L 153.21981 615.6 
L 162.683853 615.6 
L 172.147897 615.6 
L 181.61194 615.6 
L 191.075984 615.6 
L 200.540027 615.6 
L 210.004071 615.6 
L 219.468114 615.6 
L 228.932157 615.6 
L 238.396201 615.6 
L 247.860244 615.6 
L 257.324288 615.6 
L 266.788331 615.6 
L 276.252374 615.6 
L 285.716418 615.6 
L 295.180461 615.6 
L 304.644505 615.6 
L 314.108548 615.6 
L 323.572592 615.6 
L 333.036635 615.6 
L 342.500678 615.6 
L 351.964722 615.6 
L 361.428765 615.6 
L 370.892809 615.6 
L 380.356852 615.6 
L 389.820896 615.6 
L 399.284939 615.6 
L 408.748982 615.6 
L 418.213026 615.6 
L 427.677069 615.6 
L 437.141113 615.6 
L 446.605156 615.6 
L 456.069199 615.6 
L 465.533243 615.6 
L 474.997286 615.6 
L 484.46133 615.6 
L 493.925373 615.6 
L 503.389417 615.6 
L 512.85346 615.6 
L 522.317503 615.6 
L 531.781547 615.6 
L 541.24559 615.6 
L 550.709634 615.6 
L 560.173677 615.6 
L 569.63772 615.6 
L 579.101764 615.6 
L 588.565807 615.6 
L 598.029851 615.6 
L 607.493894 615.6 
L 616.957938 615.6 
" clip-path="url(#p3ea7074c5f)" style="fill: none; stroke-dasharray: 5.55,2.4; stroke-dashoffset: 0; stroke: #000000; stroke-width: 1.5"/>
   </g>
   <g id="LineCollection_1">
    <path d="M 484.46133 283.237515 
L 484.46133 205.034577 
" clip-path="url(#p3ea7074c5f)" style="fill: none; stroke: #000000; stroke-width: 1.5"/>
   </g>
   <g id="line2d_16">
    <defs>
     <path id="m20e465ad6f" d="M 0 3 
C 0.795609 3 1.55874 2.683901 2.12132 2.12132 
C 2.683901 1.55874 3 0.795609 3 0 
C 3 -0.795609 2.683901 -1.55874 2.12132 -2.12132 
C 1.55874 -2.683901 0.795609 -3 0 -3 
C -0.795609 -3 -1.55874 -2.683901 -2.12132 -2.12132 
C -2.683901 -1.55874 -3 -0.795609 -3 0 
C -3 0.795609 -2.683901 1.55874 -2.12132 2.12132 
C -1.55874 2.683901 -0.795609 3 0 3 
z
" style="stroke: #000000"/>
    </defs>
    <g clip-path="url(#p3ea7074c5f)">
     <use xlink:href="#m20e465ad6f" x="484.46133" y="244.136046" style="stroke: #000000"/>
    </g>
   </g>
   <g id="patch_3">
    <path d="M 90 640.8 
L 90 86.4 
" style="fill: none; stroke: #000000; stroke-width: 0.8; stroke-linejoin: miter; stroke-linecap: square"/>
   </g>
   <g id="patch_4">
    <path d="M 648 640.8 
L 648 86.4 
" style="fill: none; stroke: #000000; stroke-width: 0.8; stroke-linejoin: miter; stroke-linecap: square"/>
   </g>
   <g id="patch_5">
    <path d="M 90 640.8 
L 648 640.8 
" style="fill: none; stroke: #000000; stroke-width: 0.8; stroke-linejoin: miter; stroke-linecap: square"/>
   </g>
   <g id="patch_6">
    <path d="M 90 86.4 
L 648 86.4 
" style="fill: none; stroke: #000000; stroke-width: 0.8; stroke-linejoin: miter; stroke-linecap: square"/>
   </g>
   <g id="text_15">
    <!-- FGS1 -->
    <g transform="translate(111.722211 605.592485) scale(0.1 -0.1)">
     <defs>
      <path id="DejaVuSans-46" d="M 628 4666 
L 3309 4666 
L 3309 4134 
L 1259 4134 
L 1259 2759 
L 3109 2759 
L 3109 2228 
L 1259 2228 
L 1259 0 
L 628 0 
L 628 4666 
z
" transform="scale(0.015625)"/>
      <path id="DejaVuSans-47" d="M 3809 666 
L 3809 1919 
L 2778 1919 
L 2778 2438 
L 4434 2438 
L 4434 434 
Q 4069 175 3628 42 
Q 3188 -91 2688 -91 
Q 1594 -91 976 548 
Q 359 1188 359 2328 
Q 359 3472 976 4111 
Q 1594 4750 2688 4750 
Q 3144 4750 3555 4637 
Q 3966 4525 4313 4306 
L 4313 3634 
Q 3963 3931 3569 4081 
Q 3175 4231 2741 4231 
Q 1884 4231 1454 3753 
Q 1025 3275 1025 2328 
Q 1025 1384 1454 906 
Q 1884 428 2741 428 
Q 3075 428 3337 486 
Q 3600 544 3809 666 
z
" transform="scale(0.015625)"/>
      <path id="DejaVuSans-53" d="M 3425 4513 
L 3425 3897 
Q 3066 4069 2747 4153 
Q 2428 4238 2131 4238 
Q 1616 4238 1336 4038 
Q 1056 3838 1056 3469 
Q 1056 3159 1242 3001 
Q 1428 2844 1947 2747 
L 2328 2669 
Q 3034 2534 3370 2195 
Q 3706 1856 3706 1288 
Q 3706 609 3251 259 
Q 2797 -91 1919 -91 
Q 1588 -91 1214 -16 
Q 841 59 441 206 
L 441 856 
Q 825 641 1194 531 
Q 1563 422 1919 422 
Q 2459 422 2753 634 
Q 3047 847 3047 1241 
Q 3047 1584 2836 1778 
Q 2625 1972 2144 2069 
L 1759 2144 
Q 1053 2284 737 2584 
Q 422 2884 422 3419 
Q 422 4038 858 4394 
Q 1294 4750 2059 4750 
Q 2388 4750 2728 4690 
Q 3069 4631 3425 4513 
z
" transform="scale(0.015625)"/>
     </defs>
     <use xlink:href="#DejaVuSans-46"/>
     <use xlink:href="#DejaVuSans-47" transform="translate(57.519531 0)"/>
     <use xlink:href="#DejaVuSans-53" transform="translate(135.009766 0)"/>
     <use xlink:href="#DejaVuSans-31" transform="translate(198.486328 0)"/>
    </g>
   </g>
   <g id="text_16">
    <!-- FGS2 -->
    <g transform="translate(135.38232 605.382333) scale(0.1 -0.1)">
     <use xlink:href="#DejaVuSans-46"/>
     <use xlink:href="#DejaVuSans-47" transform="translate(57.519531 0)"/>
     <use xlink:href="#DejaVuSans-53" transform="translate(135.009766 0)"/>
     <use xlink:href="#DejaVuSans-32" transform="translate(198.486328 0)"/>
    </g>
   </g>
   <g id="text_17">
    <!-- NIRSpec -->
    <g transform="translate(183.461582 594.181332) scale(0.1 -0.1)">
     <defs>
      <path id="DejaVuSans-4e" d="M 628 4666 
L 1478 4666 
L 3547 763 
L 3547 4666 
L 4159 4666 
L 4159 0 
L 3309 0 
L 1241 3903 
L 1241 0 
L 628 0 
L 628 4666 
z
" transform="scale(0.015625)"/>
      <path id="DejaVuSans-49" d="M 628 4666 
L 1259 4666 
L 1259 0 
L 628 0 
L 628 4666 
z
" transform="scale(0.015625)"/>
      <path id="DejaVuSans-52" d="M 2841 2188 
Q 3044 2119 3236 1894 
Q 3428 1669 3622 1275 
L 4263 0 
L 3584 0 
L 2988 1197 
Q 2756 1666 2539 1819 
Q 2322 1972 1947 1972 
L 1259 1972 
L 1259 0 
L 628 0 
L 628 4666 
L 2053 4666 
Q 2853 4666 3247 4331 
Q 3641 3997 3641 3322 
Q 3641 2881 3436 2590 
Q 3231 2300 2841 2188 
z
M 1259 4147 
L 1259 2491 
L 2053 2491 
Q 2509 2491 2742 2702 
Q 2975 2913 2975 3322 
Q 2975 3731 2742 3939 
Q 2509 4147 2053 4147 
L 1259 4147 
z
" transform="scale(0.015625)"/>
     </defs>
     <use xlink:href="#DejaVuSans-4e"/>
     <use xlink:href="#DejaVuSans-49" transform="translate(74.804688 0)"/>
     <use xlink:href="#DejaVuSans-52" transform="translate(104.296875 0)"/>
     <use xlink:href="#DejaVuSans-53" transform="translate(173.779297 0)"/>
     <use xlink:href="#DejaVuSans-70" transform="translate(237.255859 0)"/>
     <use xlink:href="#DejaVuSans-65" transform="translate(300.732422 0)"/>
     <use xlink:href="#DejaVuSans-63" transform="translate(362.255859 0)"/>
    </g>
   </g>
   <g id="text_18">
    <!-- AIRS-Ch0-1 -->
    <g transform="translate(253.756582 530.943233) scale(0.1 -0.1)">
     <defs>
      <path id="DejaVuSans-41" d="M 2188 4044 
L 1331 1722 
L 3047 1722 
L 2188 4044 
z
M 1831 4666 
L 2547 4666 
L 4325 0 
L 3669 0 
L 3244 1197 
L 1141 1197 
L 716 0 
L 50 0 
L 1831 4666 
z
" transform="scale(0.015625)"/>
      <path id="DejaVuSans-2d" d="M 313 2009 
L 1997 2009 
L 1997 1497 
L 313 1497 
L 313 2009 
z
" transform="scale(0.015625)"/>
      <path id="DejaVuSans-43" d="M 4122 4306 
L 4122 3641 
Q 3803 3938 3442 4084 
Q 3081 4231 2675 4231 
Q 1875 4231 1450 3742 
Q 1025 3253 1025 2328 
Q 1025 1406 1450 917 
Q 1875 428 2675 428 
Q 3081 428 3442 575 
Q 3803 722 4122 1019 
L 4122 359 
Q 3791 134 3420 21 
Q 3050 -91 2638 -91 
Q 1578 -91 968 557 
Q 359 1206 359 2328 
Q 359 3453 968 4101 
Q 1578 4750 2638 4750 
Q 3056 4750 3426 4639 
Q 3797 4528 4122 4306 
z
" transform="scale(0.015625)"/>
     </defs>
     <use xlink:href="#DejaVuSans-41"/>
     <use xlink:href="#DejaVuSans-49" transform="translate(68.408203 0)"/>
     <use xlink:href="#DejaVuSans-52" transform="translate(97.900391 0)"/>
     <use xlink:href="#DejaVuSans-53" transform="translate(167.382812 0)"/>
     <use xlink:href="#DejaVuSans-2d" transform="translate(230.859375 0)"/>
     <use xlink:href="#DejaVuSans-43" transform="translate(266.943359 0)"/>
     <use xlink:href="#DejaVuSans-68" transform="translate(336.767578 0)"/>
     <use xlink:href="#DejaVuSans-30" transform="translate(400.146484 0)"/>
     <use xlink:href="#DejaVuSans-2d" transform="translate(463.769531 0)"/>
     <use xlink:href="#DejaVuSans-31" transform="translate(499.853516 0)"/>
    </g>
   </g>
   <g id="text_19">
    <!-- AIRS-Ch0-2 -->
    <g transform="translate(346.504207 412.87307) scale(0.1 -0.1)">
     <use xlink:href="#DejaVuSans-41"/>
     <use xlink:href="#DejaVuSans-49" transform="translate(68.408203 0)"/>
     <use xlink:href="#DejaVuSans-52" transform="translate(97.900391 0)"/>
     <use xlink:href="#DejaVuSans-53" transform="translate(167.382812 0)"/>
     <use xlink:href="#DejaVuSans-2d" transform="translate(230.859375 0)"/>
     <use xlink:href="#DejaVuSans-43" transform="translate(266.943359 0)"/>
     <use xlink:href="#DejaVuSans-68" transform="translate(336.767578 0)"/>
     <use xlink:href="#DejaVuSans-30" transform="translate(400.146484 0)"/>
     <use xlink:href="#DejaVuSans-2d" transform="translate(463.769531 0)"/>
     <use xlink:href="#DejaVuSans-32" transform="translate(499.853516 0)"/>
    </g>
   </g>
   <g id="text_20">
    <!-- AIRS-CH1 -->
    <g transform="translate(598.855895 186.522629) scale(0.1 -0.1)">
     <defs>
      <path id="DejaVuSans-48" d="M 628 4666 
L 1259 4666 
L 1259 2753 
L 3553 2753 
L 3553 4666 
L 4184 4666 
L 4184 0 
L 3553 0 
L 3553 2222 
L 1259 2222 
L 1259 0 
L 628 0 
L 628 4666 
z
" transform="scale(0.015625)"/>
     </defs>
     <use xlink:href="#DejaVuSans-41"/>
     <use xlink:href="#DejaVuSans-49" transform="translate(68.408203 0)"/>
     <use xlink:href="#DejaVuSans-52" transform="translate(97.900391 0)"/>
     <use xlink:href="#DejaVuSans-53" transform="translate(167.382812 0)"/>
     <use xlink:href="#DejaVuSans-2d" transform="translate(230.859375 0)"/>
     <use xlink:href="#DejaVuSans-43" transform="translate(266.943359 0)"/>
     <use xlink:href="#DejaVuSans-48" transform="translate(336.767578 0)"/>
     <use xlink:href="#DejaVuSans-31" transform="translate(411.962891 0)"/>
    </g>
   </g>
   <g id="text_21">
    <!-- Eclipse depths for LHS3844b -->
    <g transform="translate(268.2525 80.4) scale(0.14 -0.14)">
     <defs>
      <path id="DejaVuSans-66" d="M 2375 4863 
L 2375 4384 
L 1825 4384 
Q 1516 4384 1395 4259 
Q 1275 4134 1275 3809 
L 1275 3500 
L 2222 3500 
L 2222 3053 
L 1275 3053 
L 1275 0 
L 697 0 
L 697 3053 
L 147 3053 
L 147 3500 
L 697 3500 
L 697 3744 
Q 697 4328 969 4595 
Q 1241 4863 1831 4863 
L 2375 4863 
z
" transform="scale(0.015625)"/>
      <path id="DejaVuSans-6f" d="M 1959 3097 
Q 1497 3097 1228 2736 
Q 959 2375 959 1747 
Q 959 1119 1226 758 
Q 1494 397 1959 397 
Q 2419 397 2687 759 
Q 2956 1122 2956 1747 
Q 2956 2369 2687 2733 
Q 2419 3097 1959 3097 
z
M 1959 3584 
Q 2709 3584 3137 3096 
Q 3566 2609 3566 1747 
Q 3566 888 3137 398 
Q 2709 -91 1959 -91 
Q 1206 -91 779 398 
Q 353 888 353 1747 
Q 353 2609 779 3096 
Q 1206 3584 1959 3584 
z
" transform="scale(0.015625)"/>
      <path id="DejaVuSans-72" d="M 2631 2963 
Q 2534 3019 2420 3045 
Q 2306 3072 2169 3072 
Q 1681 3072 1420 2755 
Q 1159 2438 1159 1844 
L 1159 0 
L 581 0 
L 581 3500 
L 1159 3500 
L 1159 2956 
Q 1341 3275 1631 3429 
Q 1922 3584 2338 3584 
Q 2397 3584 2469 3576 
Q 2541 3569 2628 3553 
L 2631 2963 
z
" transform="scale(0.015625)"/>
      <path id="DejaVuSans-4c" d="M 628 4666 
L 1259 4666 
L 1259 531 
L 3531 531 
L 3531 0 
L 628 0 
L 628 4666 
z
" transform="scale(0.015625)"/>
      <path id="DejaVuSans-38" d="M 2034 2216 
Q 1584 2216 1326 1975 
Q 1069 1734 1069 1313 
Q 1069 891 1326 650 
Q 1584 409 2034 409 
Q 2484 409 2743 651 
Q 3003 894 3003 1313 
Q 3003 1734 2745 1975 
Q 2488 2216 2034 2216 
z
M 1403 2484 
Q 997 2584 770 2862 
Q 544 3141 544 3541 
Q 544 4100 942 4425 
Q 1341 4750 2034 4750 
Q 2731 4750 3128 4425 
Q 3525 4100 3525 3541 
Q 3525 3141 3298 2862 
Q 3072 2584 2669 2484 
Q 3125 2378 3379 2068 
Q 3634 1759 3634 1313 
Q 3634 634 3220 271 
Q 2806 -91 2034 -91 
Q 1263 -91 848 271 
Q 434 634 434 1313 
Q 434 1759 690 2068 
Q 947 2378 1403 2484 
z
M 1172 3481 
Q 1172 3119 1398 2916 
Q 1625 2713 2034 2713 
Q 2441 2713 2670 2916 
Q 2900 3119 2900 3481 
Q 2900 3844 2670 4047 
Q 2441 4250 2034 4250 
Q 1625 4250 1398 4047 
Q 1172 3844 1172 3481 
z
" transform="scale(0.015625)"/>
      <path id="DejaVuSans-62" d="M 3116 1747 
Q 3116 2381 2855 2742 
Q 2594 3103 2138 3103 
Q 1681 3103 1420 2742 
Q 1159 2381 1159 1747 
Q 1159 1113 1420 752 
Q 1681 391 2138 391 
Q 2594 391 2855 752 
Q 3116 1113 3116 1747 
z
M 1159 2969 
Q 1341 3281 1617 3432 
Q 1894 3584 2278 3584 
Q 2916 3584 3314 3078 
Q 3713 2572 3713 1747 
Q 3713 922 3314 415 
Q 2916 -91 2278 -91 
Q 1894 -91 1617 61 
Q 1341 213 1159 525 
L 1159 0 
L 581 0 
L 581 4863 
L 1159 4863 
L 1159 2969 
z
" transform="scale(0.015625)"/>
     </defs>
     <use xlink:href="#DejaVuSans-45"/>
     <use xlink:href="#DejaVuSans-63" transform="translate(63.183594 0)"/>
     <use xlink:href="#DejaVuSans-6c" transform="translate(118.164062 0)"/>
     <use xlink:href="#DejaVuSans-69" transform="translate(145.947266 0)"/>
     <use xlink:href="#DejaVuSans-70" transform="translate(173.730469 0)"/>
     <use xlink:href="#DejaVuSans-73" transform="translate(237.207031 0)"/>
     <use xlink:href="#DejaVuSans-65" transform="translate(289.306641 0)"/>
     <use xlink:href="#DejaVuSans-20" transform="translate(350.830078 0)"/>
     <use xlink:href="#DejaVuSans-64" transform="translate(382.617188 0)"/>
     <use xlink:href="#DejaVuSans-65" transform="translate(446.09375 0)"/>
     <use xlink:href="#DejaVuSans-70" transform="translate(507.617188 0)"/>
     <use xlink:href="#DejaVuSans-74" transform="translate(571.09375 0)"/>
     <use xlink:href="#DejaVuSans-68" transform="translate(610.302734 0)"/>
     <use xlink:href="#DejaVuSans-73" transform="translate(673.681641 0)"/>
     <use xlink:href="#DejaVuSans-20" transform="translate(725.78125 0)"/>
     <use xlink:href="#DejaVuSans-66" transform="translate(757.568359 0)"/>
     <use xlink:href="#DejaVuSans-6f" transform="translate(792.773438 0)"/>
     <use xlink:href="#DejaVuSans-72" transform="translate(853.955078 0)"/>
     <use xlink:href="#DejaVuSans-20" transform="translate(895.068359 0)"/>
     <use xlink:href="#DejaVuSans-4c" transform="translate(926.855469 0)"/>
     <use xlink:href="#DejaVuSans-48" transform="translate(982.568359 0)"/>
     <use xlink:href="#DejaVuSans-53" transform="translate(1057.763672 0)"/>
     <use xlink:href="#DejaVuSans-33" transform="translate(1121.240234 0)"/>
     <use xlink:href="#DejaVuSans-38" transform="translate(1184.863281 0)"/>
     <use xlink:href="#DejaVuSans-34" transform="translate(1248.486328 0)"/>
     <use xlink:href="#DejaVuSans-34" transform="translate(1312.109375 0)"/>
     <use xlink:href="#DejaVuSans-62" transform="translate(1375.732422 0)"/>
    </g>
   </g>
   <g id="legend_1">
    <g id="patch_7">
     <path d="M 98.4 202.68375 
L 317.1675 202.68375 
Q 319.5675 202.68375 319.5675 200.28375 
L 319.5675 94.8 
Q 319.5675 92.4 317.1675 92.4 
L 98.4 92.4 
Q 96 92.4 96 94.8 
L 96 200.28375 
Q 96 202.68375 98.4 202.68375 
z
" style="fill: #ffffff; opacity: 0.8; stroke: #cccccc; stroke-linejoin: miter"/>
    </g>
    <g id="patch_8">
     <path d="M 100.8 106.318125 
L 124.8 106.318125 
L 124.8 97.918125 
L 100.8 97.918125 
z
" style="fill: #1f77b4; fill-opacity: 0.2"/>
    </g>
    <g id="text_22">
     <!-- asymmetric error -->
     <g transform="translate(134.4 106.318125) scale(0.12 -0.12)">
      <defs>
       <path id="DejaVuSans-61" d="M 2194 1759 
Q 1497 1759 1228 1600 
Q 959 1441 959 1056 
Q 959 750 1161 570 
Q 1363 391 1709 391 
Q 2188 391 2477 730 
Q 2766 1069 2766 1631 
L 2766 1759 
L 2194 1759 
z
M 3341 1997 
L 3341 0 
L 2766 0 
L 2766 531 
Q 2569 213 2275 61 
Q 1981 -91 1556 -91 
Q 1019 -91 701 211 
Q 384 513 384 1019 
Q 384 1609 779 1909 
Q 1175 2209 1959 2209 
L 2766 2209 
L 2766 2266 
Q 2766 2663 2505 2880 
Q 2244 3097 1772 3097 
Q 1472 3097 1187 3025 
Q 903 2953 641 2809 
L 641 3341 
Q 956 3463 1253 3523 
Q 1550 3584 1831 3584 
Q 2591 3584 2966 3190 
Q 3341 2797 3341 1997 
z
" transform="scale(0.015625)"/>
       <path id="DejaVuSans-79" d="M 2059 -325 
Q 1816 -950 1584 -1140 
Q 1353 -1331 966 -1331 
L 506 -1331 
L 506 -850 
L 844 -850 
Q 1081 -850 1212 -737 
Q 1344 -625 1503 -206 
L 1606 56 
L 191 3500 
L 800 3500 
L 1894 763 
L 2988 3500 
L 3597 3500 
L 2059 -325 
z
" transform="scale(0.015625)"/>
      </defs>
      <use xlink:href="#DejaVuSans-61"/>
      <use xlink:href="#DejaVuSans-73" transform="translate(61.279297 0)"/>
      <use xlink:href="#DejaVuSans-79" transform="translate(113.378906 0)"/>
      <use xlink:href="#DejaVuSans-6d" transform="translate(172.558594 0)"/>
      <use xlink:href="#DejaVuSans-6d" transform="translate(269.970703 0)"/>
      <use xlink:href="#DejaVuSans-65" transform="translate(367.382812 0)"/>
      <use xlink:href="#DejaVuSans-74" transform="translate(428.90625 0)"/>
      <use xlink:href="#DejaVuSans-72" transform="translate(468.115234 0)"/>
      <use xlink:href="#DejaVuSans-69" transform="translate(509.228516 0)"/>
      <use xlink:href="#DejaVuSans-63" transform="translate(537.011719 0)"/>
      <use xlink:href="#DejaVuSans-20" transform="translate(591.992188 0)"/>
      <use xlink:href="#DejaVuSans-65" transform="translate(623.779297 0)"/>
      <use xlink:href="#DejaVuSans-72" transform="translate(685.302734 0)"/>
      <use xlink:href="#DejaVuSans-72" transform="translate(724.666016 0)"/>
      <use xlink:href="#DejaVuSans-6f" transform="translate(763.529297 0)"/>
      <use xlink:href="#DejaVuSans-72" transform="translate(824.710938 0)"/>
     </g>
    </g>
    <g id="line2d_17">
     <path d="M 100.8 119.731875 
L 112.8 119.731875 
L 124.8 119.731875 
" style="fill: none; stroke: #ff7f0e; stroke-width: 1.5; stroke-linecap: square"/>
    </g>
    <g id="text_23">
     <!-- blackbody T = 1031.0 K -->
     <g transform="translate(134.4 123.931875) scale(0.12 -0.12)">
      <defs>
       <path id="DejaVuSans-6b" d="M 581 4863 
L 1159 4863 
L 1159 1991 
L 2875 3500 
L 3609 3500 
L 1753 1863 
L 3688 0 
L 2938 0 
L 1159 1709 
L 1159 0 
L 581 0 
L 581 4863 
z
" transform="scale(0.015625)"/>
       <path id="DejaVuSans-54" d="M -19 4666 
L 3928 4666 
L 3928 4134 
L 2272 4134 
L 2272 0 
L 1638 0 
L 1638 4134 
L -19 4134 
L -19 4666 
z
" transform="scale(0.015625)"/>
       <path id="DejaVuSans-3d" d="M 678 2906 
L 4684 2906 
L 4684 2381 
L 678 2381 
L 678 2906 
z
M 678 1631 
L 4684 1631 
L 4684 1100 
L 678 1100 
L 678 1631 
z
" transform="scale(0.015625)"/>
       <path id="DejaVuSans-2e" d="M 684 794 
L 1344 794 
L 1344 0 
L 684 0 
L 684 794 
z
" transform="scale(0.015625)"/>
       <path id="DejaVuSans-4b" d="M 628 4666 
L 1259 4666 
L 1259 2694 
L 3353 4666 
L 4166 4666 
L 1850 2491 
L 4331 0 
L 3500 0 
L 1259 2247 
L 1259 0 
L 628 0 
L 628 4666 
z
" transform="scale(0.015625)"/>
      </defs>
      <use xlink:href="#DejaVuSans-62"/>
      <use xlink:href="#DejaVuSans-6c" transform="translate(63.476562 0)"/>
      <use xlink:href="#DejaVuSans-61" transform="translate(91.259766 0)"/>
      <use xlink:href="#DejaVuSans-63" transform="translate(152.539062 0)"/>
      <use xlink:href="#DejaVuSans-6b" transform="translate(207.519531 0)"/>
      <use xlink:href="#DejaVuSans-62" transform="translate(265.429688 0)"/>
      <use xlink:href="#DejaVuSans-6f" transform="translate(328.90625 0)"/>
      <use xlink:href="#DejaVuSans-64" transform="translate(390.087891 0)"/>
      <use xlink:href="#DejaVuSans-79" transform="translate(453.564453 0)"/>
      <use xlink:href="#DejaVuSans-20" transform="translate(512.744141 0)"/>
      <use xlink:href="#DejaVuSans-54" transform="translate(544.53125 0)"/>
      <use xlink:href="#DejaVuSans-20" transform="translate(605.615234 0)"/>
      <use xlink:href="#DejaVuSans-3d" transform="translate(637.402344 0)"/>
      <use xlink:href="#DejaVuSans-20" transform="translate(721.191406 0)"/>
      <use xlink:href="#DejaVuSans-31" transform="translate(752.978516 0)"/>
      <use xlink:href="#DejaVuSans-30" transform="translate(816.601562 0)"/>
      <use xlink:href="#DejaVuSans-33" transform="translate(880.224609 0)"/>
      <use xlink:href="#DejaVuSans-31" transform="translate(943.847656 0)"/>
      <use xlink:href="#DejaVuSans-2e" transform="translate(1007.470703 0)"/>
      <use xlink:href="#DejaVuSans-30" transform="translate(1039.257812 0)"/>
      <use xlink:href="#DejaVuSans-20" transform="translate(1102.880859 0)"/>
      <use xlink:href="#DejaVuSans-4b" transform="translate(1134.667969 0)"/>
     </g>
    </g>
    <g id="line2d_18">
     <path d="M 100.8 137.345625 
L 112.8 137.345625 
L 124.8 137.345625 
" style="fill: none; stroke-dasharray: 5.55,2.4; stroke-dashoffset: 0; stroke: #2ca02c; stroke-width: 1.5"/>
    </g>
    <g id="text_24">
     <!-- orlando_gold_granite_slab -->
     <g transform="translate(134.4 141.545625) scale(0.12 -0.12)">
      <defs>
       <path id="DejaVuSans-6e" d="M 3513 2113 
L 3513 0 
L 2938 0 
L 2938 2094 
Q 2938 2591 2744 2837 
Q 2550 3084 2163 3084 
Q 1697 3084 1428 2787 
Q 1159 2491 1159 1978 
L 1159 0 
L 581 0 
L 581 3500 
L 1159 3500 
L 1159 2956 
Q 1366 3272 1645 3428 
Q 1925 3584 2291 3584 
Q 2894 3584 3203 3211 
Q 3513 2838 3513 2113 
z
" transform="scale(0.015625)"/>
       <path id="DejaVuSans-5f" d="M 3263 -1063 
L 3263 -1509 
L -63 -1509 
L -63 -1063 
L 3263 -1063 
z
" transform="scale(0.015625)"/>
       <path id="DejaVuSans-67" d="M 2906 1791 
Q 2906 2416 2648 2759 
Q 2391 3103 1925 3103 
Q 1463 3103 1205 2759 
Q 947 2416 947 1791 
Q 947 1169 1205 825 
Q 1463 481 1925 481 
Q 2391 481 2648 825 
Q 2906 1169 2906 1791 
z
M 3481 434 
Q 3481 -459 3084 -895 
Q 2688 -1331 1869 -1331 
Q 1566 -1331 1297 -1286 
Q 1028 -1241 775 -1147 
L 775 -588 
Q 1028 -725 1275 -790 
Q 1522 -856 1778 -856 
Q 2344 -856 2625 -561 
Q 2906 -266 2906 331 
L 2906 616 
Q 2728 306 2450 153 
Q 2172 0 1784 0 
Q 1141 0 747 490 
Q 353 981 353 1791 
Q 353 2603 747 3093 
Q 1141 3584 1784 3584 
Q 2172 3584 2450 3431 
Q 2728 3278 2906 2969 
L 2906 3500 
L 3481 3500 
L 3481 434 
z
" transform="scale(0.015625)"/>
      </defs>
      <use xlink:href="#DejaVuSans-6f"/>
      <use xlink:href="#DejaVuSans-72" transform="translate(61.181641 0)"/>
      <use xlink:href="#DejaVuSans-6c" transform="translate(102.294922 0)"/>
      <use xlink:href="#DejaVuSans-61" transform="translate(130.078125 0)"/>
      <use xlink:href="#DejaVuSans-6e" transform="translate(191.357422 0)"/>
      <use xlink:href="#DejaVuSans-64" transform="translate(254.736328 0)"/>
      <use xlink:href="#DejaVuSans-6f" transform="translate(318.212891 0)"/>
      <use xlink:href="#DejaVuSans-5f" transform="translate(379.394531 0)"/>
      <use xlink:href="#DejaVuSans-67" transform="translate(429.394531 0)"/>
      <use xlink:href="#DejaVuSans-6f" transform="translate(492.871094 0)"/>
      <use xlink:href="#DejaVuSans-6c" transform="translate(554.052734 0)"/>
      <use xlink:href="#DejaVuSans-64" transform="translate(581.835938 0)"/>
      <use xlink:href="#DejaVuSans-5f" transform="translate(645.3125 0)"/>
      <use xlink:href="#DejaVuSans-67" transform="translate(695.3125 0)"/>
      <use xlink:href="#DejaVuSans-72" transform="translate(758.789062 0)"/>
      <use xlink:href="#DejaVuSans-61" transform="translate(799.902344 0)"/>
      <use xlink:href="#DejaVuSans-6e" transform="translate(861.181641 0)"/>
      <use xlink:href="#DejaVuSans-69" transform="translate(924.560547 0)"/>
      <use xlink:href="#DejaVuSans-74" transform="translate(952.34375 0)"/>
      <use xlink:href="#DejaVuSans-65" transform="translate(991.552734 0)"/>
      <use xlink:href="#DejaVuSans-5f" transform="translate(1053.076172 0)"/>
      <use xlink:href="#DejaVuSans-73" transform="translate(1103.076172 0)"/>
      <use xlink:href="#DejaVuSans-6c" transform="translate(1155.175781 0)"/>
      <use xlink:href="#DejaVuSans-61" transform="translate(1182.958984 0)"/>
      <use xlink:href="#DejaVuSans-62" transform="translate(1244.238281 0)"/>
     </g>
    </g>
    <g id="line2d_19">
     <path d="M 100.8 155.293125 
L 112.8 155.293125 
L 124.8 155.293125 
" style="fill: none; stroke-dasharray: 5.55,2.4; stroke-dashoffset: 0; stroke: #d62728; stroke-width: 1.5"/>
    </g>
    <g id="text_25">
     <!-- orlando_gold_granite_crushed -->
     <g transform="translate(134.4 159.493125) scale(0.12 -0.12)">
      <defs>
       <path id="DejaVuSans-75" d="M 544 1381 
L 544 3500 
L 1119 3500 
L 1119 1403 
Q 1119 906 1312 657 
Q 1506 409 1894 409 
Q 2359 409 2629 706 
Q 2900 1003 2900 1516 
L 2900 3500 
L 3475 3500 
L 3475 0 
L 2900 0 
L 2900 538 
Q 2691 219 2414 64 
Q 2138 -91 1772 -91 
Q 1169 -91 856 284 
Q 544 659 544 1381 
z
M 1991 3584 
L 1991 3584 
z
" transform="scale(0.015625)"/>
      </defs>
      <use xlink:href="#DejaVuSans-6f"/>
      <use xlink:href="#DejaVuSans-72" transform="translate(61.181641 0)"/>
      <use xlink:href="#DejaVuSans-6c" transform="translate(102.294922 0)"/>
      <use xlink:href="#DejaVuSans-61" transform="translate(130.078125 0)"/>
      <use xlink:href="#DejaVuSans-6e" transform="translate(191.357422 0)"/>
      <use xlink:href="#DejaVuSans-64" transform="translate(254.736328 0)"/>
      <use xlink:href="#DejaVuSans-6f" transform="translate(318.212891 0)"/>
      <use xlink:href="#DejaVuSans-5f" transform="translate(379.394531 0)"/>
      <use xlink:href="#DejaVuSans-67" transform="translate(429.394531 0)"/>
      <use xlink:href="#DejaVuSans-6f" transform="translate(492.871094 0)"/>
      <use xlink:href="#DejaVuSans-6c" transform="translate(554.052734 0)"/>
      <use xlink:href="#DejaVuSans-64" transform="translate(581.835938 0)"/>
      <use xlink:href="#DejaVuSans-5f" transform="translate(645.3125 0)"/>
      <use xlink:href="#DejaVuSans-67" transform="translate(695.3125 0)"/>
      <use xlink:href="#DejaVuSans-72" transform="translate(758.789062 0)"/>
      <use xlink:href="#DejaVuSans-61" transform="translate(799.902344 0)"/>
      <use xlink:href="#DejaVuSans-6e" transform="translate(861.181641 0)"/>
      <use xlink:href="#DejaVuSans-69" transform="translate(924.560547 0)"/>
      <use xlink:href="#DejaVuSans-74" transform="translate(952.34375 0)"/>
      <use xlink:href="#DejaVuSans-65" transform="translate(991.552734 0)"/>
      <use xlink:href="#DejaVuSans-5f" transform="translate(1053.076172 0)"/>
      <use xlink:href="#DejaVuSans-63" transform="translate(1103.076172 0)"/>
      <use xlink:href="#DejaVuSans-72" transform="translate(1158.056641 0)"/>
      <use xlink:href="#DejaVuSans-75" transform="translate(1199.169922 0)"/>
      <use xlink:href="#DejaVuSans-73" transform="translate(1262.548828 0)"/>
      <use xlink:href="#DejaVuSans-68" transform="translate(1314.648438 0)"/>
      <use xlink:href="#DejaVuSans-65" transform="translate(1378.027344 0)"/>
      <use xlink:href="#DejaVuSans-64" transform="translate(1439.550781 0)"/>
     </g>
    </g>
    <g id="line2d_20">
     <path d="M 100.8 173.240625 
L 112.8 173.240625 
L 124.8 173.240625 
" style="fill: none; stroke-dasharray: 5.55,2.4; stroke-dashoffset: 0; stroke: #9467bd; stroke-width: 1.5"/>
    </g>
    <g id="text_26">
     <!-- orlando_gold_granite_powder -->
     <g transform="translate(134.4 177.440625) scale(0.12 -0.12)">
      <defs>
       <path id="DejaVuSans-77" d="M 269 3500 
L 844 3500 
L 1563 769 
L 2278 3500 
L 2956 3500 
L 3675 769 
L 4391 3500 
L 4966 3500 
L 4050 0 
L 3372 0 
L 2619 2869 
L 1863 0 
L 1184 0 
L 269 3500 
z
" transform="scale(0.015625)"/>
      </defs>
      <use xlink:href="#DejaVuSans-6f"/>
      <use xlink:href="#DejaVuSans-72" transform="translate(61.181641 0)"/>
      <use xlink:href="#DejaVuSans-6c" transform="translate(102.294922 0)"/>
      <use xlink:href="#DejaVuSans-61" transform="translate(130.078125 0)"/>
      <use xlink:href="#DejaVuSans-6e" transform="translate(191.357422 0)"/>
      <use xlink:href="#DejaVuSans-64" transform="translate(254.736328 0)"/>
      <use xlink:href="#DejaVuSans-6f" transform="translate(318.212891 0)"/>
      <use xlink:href="#DejaVuSans-5f" transform="translate(379.394531 0)"/>
      <use xlink:href="#DejaVuSans-67" transform="translate(429.394531 0)"/>
      <use xlink:href="#DejaVuSans-6f" transform="translate(492.871094 0)"/>
      <use xlink:href="#DejaVuSans-6c" transform="translate(554.052734 0)"/>
      <use xlink:href="#DejaVuSans-64" transform="translate(581.835938 0)"/>
      <use xlink:href="#DejaVuSans-5f" transform="translate(645.3125 0)"/>
      <use xlink:href="#DejaVuSans-67" transform="translate(695.3125 0)"/>
      <use xlink:href="#DejaVuSans-72" transform="translate(758.789062 0)"/>
      <use xlink:href="#DejaVuSans-61" transform="translate(799.902344 0)"/>
      <use xlink:href="#DejaVuSans-6e" transform="translate(861.181641 0)"/>
      <use xlink:href="#DejaVuSans-69" transform="translate(924.560547 0)"/>
      <use xlink:href="#DejaVuSans-74" transform="translate(952.34375 0)"/>
      <use xlink:href="#DejaVuSans-65" transform="translate(991.552734 0)"/>
      <use xlink:href="#DejaVuSans-5f" transform="translate(1053.076172 0)"/>
      <use xlink:href="#DejaVuSans-70" transform="translate(1103.076172 0)"/>
      <use xlink:href="#DejaVuSans-6f" transform="translate(1166.552734 0)"/>
      <use xlink:href="#DejaVuSans-77" transform="translate(1227.734375 0)"/>
      <use xlink:href="#DejaVuSans-64" transform="translate(1309.521484 0)"/>
      <use xlink:href="#DejaVuSans-65" transform="translate(1372.998047 0)"/>
      <use xlink:href="#DejaVuSans-72" transform="translate(1434.521484 0)"/>
     </g>
    </g>
    <g id="LineCollection_2">
     <path d="M 112.8 197.188125 
L 112.8 185.188125 
" style="fill: none; stroke: #000000; stroke-width: 1.5"/>
    </g>
    <g id="line2d_21"/>
    <g id="line2d_22">
     <g>
      <use xlink:href="#m20e465ad6f" x="112.8" y="191.188125" style="stroke: #000000"/>
     </g>
    </g>
    <g id="text_27">
     <!-- Kreidberg 2019 -->
     <g transform="translate(134.4 195.388125) scale(0.12 -0.12)">
      <defs>
       <path id="DejaVuSans-39" d="M 703 97 
L 703 672 
Q 941 559 1184 500 
Q 1428 441 1663 441 
Q 2288 441 2617 861 
Q 2947 1281 2994 2138 
Q 2813 1869 2534 1725 
Q 2256 1581 1919 1581 
Q 1219 1581 811 2004 
Q 403 2428 403 3163 
Q 403 3881 828 4315 
Q 1253 4750 1959 4750 
Q 2769 4750 3195 4129 
Q 3622 3509 3622 2328 
Q 3622 1225 3098 567 
Q 2575 -91 1691 -91 
Q 1453 -91 1209 -44 
Q 966 3 703 97 
z
M 1959 2075 
Q 2384 2075 2632 2365 
Q 2881 2656 2881 3163 
Q 2881 3666 2632 3958 
Q 2384 4250 1959 4250 
Q 1534 4250 1286 3958 
Q 1038 3666 1038 3163 
Q 1038 2656 1286 2365 
Q 1534 2075 1959 2075 
z
" transform="scale(0.015625)"/>
      </defs>
      <use xlink:href="#DejaVuSans-4b"/>
      <use xlink:href="#DejaVuSans-72" transform="translate(65.576172 0)"/>
      <use xlink:href="#DejaVuSans-65" transform="translate(104.439453 0)"/>
      <use xlink:href="#DejaVuSans-69" transform="translate(165.962891 0)"/>
      <use xlink:href="#DejaVuSans-64" transform="translate(193.746094 0)"/>
      <use xlink:href="#DejaVuSans-62" transform="translate(257.222656 0)"/>
      <use xlink:href="#DejaVuSans-65" transform="translate(320.699219 0)"/>
      <use xlink:href="#DejaVuSans-72" transform="translate(382.222656 0)"/>
      <use xlink:href="#DejaVuSans-67" transform="translate(421.585938 0)"/>
      <use xlink:href="#DejaVuSans-20" transform="translate(485.0625 0)"/>
      <use xlink:href="#DejaVuSans-32" transform="translate(516.849609 0)"/>
      <use xlink:href="#DejaVuSans-30" transform="translate(580.472656 0)"/>
      <use xlink:href="#DejaVuSans-31" transform="translate(644.095703 0)"/>
      <use xlink:href="#DejaVuSans-39" transform="translate(707.71875 0)"/>
     </g>
    </g>
   </g>
   <g id="line2d_23">
    <path d="M 119.972626 615.597849 
L 129.455597 615.587879 
L 138.929104 615.552589 
L 148.402612 615.456986 
L 157.876119 615.246132 
L 167.349627 614.84583 
L 176.823134 614.181496 
L 186.287178 613.164663 
L 195.760685 611.728955 
L 205.224729 609.797244 
L 214.688772 607.268357 
L 224.152815 604.088723 
L 233.616859 600.179945 
L 243.080902 595.2166 
L 252.55441 590.38835 
L 262.018453 584.504264 
L 271.482497 578.060244 
L 280.94654 570.630085 
L 290.420047 562.047801 
L 299.874627 552.622783 
L 309.33867 540.239935 
L 318.812178 515.151552 
L 328.276221 500.782545 
L 337.740265 487.491858 
L 347.204308 475.396209 
L 356.668351 464.373798 
L 366.132395 454.12892 
L 375.605902 445.112122 
L 385.069946 436.605597 
L 394.533989 426.705692 
L 403.998033 414.377878 
L 413.462076 398.341388 
L 422.926119 384.753335 
L 432.390163 370.720306 
L 441.854206 355.895473 
L 451.31825 339.822326 
L 460.791757 323.479182 
L 470.246336 307.497826 
L 479.71038 291.594281 
L 489.174423 279.371064 
L 498.638467 266.098657 
L 508.111974 253.307589 
L 517.576018 240.541839 
L 527.030597 227.686351 
L 536.49464 215.780443 
L 545.958684 204.219507 
L 555.413263 192.839318 
L 564.886771 181.484153 
L 574.350814 170.601824 
L 583.824322 159.581954 
L 593.297829 148.72592 
L 602.752408 138.279865 
L 612.206988 128.146426 
L 621.661567 117.948079 
" clip-path="url(#p3ea7074c5f)" style="fill: none; stroke-dasharray: 5.55,2.4; stroke-dashoffset: 0; stroke: #2ca02c; stroke-width: 1.5"/>
   </g>
   <g id="line2d_24">
    <path d="M 119.972626 615.59824 
L 129.455597 615.590322 
L 138.929104 615.562365 
L 148.402612 615.486215 
L 157.876119 615.320816 
L 167.349627 615.006733 
L 176.823134 614.479841 
L 186.287178 613.676012 
L 195.760685 612.553996 
L 205.224729 611.198152 
L 214.688772 609.389416 
L 224.152815 607.079203 
L 233.616859 604.273087 
L 243.080902 600.70801 
L 252.55441 597.350269 
L 262.018453 592.933172 
L 271.482497 588.347938 
L 280.94654 582.765617 
L 290.420047 576.007905 
L 299.874627 568.80434 
L 309.33867 556.621104 
L 318.812178 522.758254 
L 328.276221 508.443598 
L 337.740265 494.970307 
L 347.204308 484.821227 
L 356.668351 476.819405 
L 366.132395 471.592223 
L 375.605902 468.844269 
L 385.069946 467.64708 
L 394.533989 464.718282 
L 403.998033 457.593995 
L 413.462076 443.327824 
L 422.926119 428.627724 
L 432.390163 412.632975 
L 441.854206 400.340647 
L 451.31825 384.302397 
L 460.791757 359.941107 
L 470.246336 333.978807 
L 479.71038 307.148356 
L 489.174423 289.725719 
L 498.638467 271.91891 
L 508.111974 257.802596 
L 517.576018 244.034382 
L 527.030597 229.671533 
L 536.49464 216.909204 
L 545.958684 204.376402 
L 555.413263 192.206754 
L 564.886771 180.626951 
L 574.350814 169.630836 
L 583.824322 158.196003 
L 593.297829 147.356489 
L 602.752408 137.022557 
L 612.206988 127.11141 
L 621.661567 116.724496 
" clip-path="url(#p3ea7074c5f)" style="fill: none; stroke-dasharray: 5.55,2.4; stroke-dashoffset: 0; stroke: #d62728; stroke-width: 1.5"/>
   </g>
   <g id="line2d_25">
    <path d="M 119.972626 615.599413 
L 129.455597 615.596676 
L 138.929104 615.586706 
L 148.402612 615.559725 
L 157.876119 615.506939 
L 167.349627 615.410553 
L 176.823134 615.23792 
L 186.287178 614.973594 
L 195.760685 614.631066 
L 205.224729 614.154321 
L 214.688772 613.562129 
L 224.152815 612.815975 
L 233.616859 611.920259 
L 243.080902 610.774488 
L 252.55441 609.646313 
L 262.018453 608.133868 
L 271.482497 606.521714 
L 280.94654 604.717768 
L 290.420047 602.442942 
L 299.874627 599.917281 
L 309.33867 594.16868 
L 318.812178 569.541696 
L 328.276221 562.254159 
L 337.740265 555.181192 
L 347.204308 551.949358 
L 356.668351 549.856452 
L 366.132395 550.178062 
L 375.605902 551.283069 
L 385.069946 552.96756 
L 394.533989 554.013427 
L 403.998033 552.918684 
L 413.462076 549.324965 
L 422.926119 544.555173 
L 432.390163 537.424824 
L 441.854206 532.613975 
L 451.31825 524.914798 
L 460.791757 511.830958 
L 470.246336 492.496552 
L 479.71038 465.225135 
L 489.174423 446.0574 
L 498.638467 420.185033 
L 508.111974 404.337208 
L 517.576018 388.33806 
L 527.030597 347.963154 
L 536.49464 320.653808 
L 545.958684 303.445936 
L 555.413263 271.163763 
L 564.886771 245.305473 
L 574.350814 243.641021 
L 583.824322 218.101799 
L 593.297829 205.282676 
L 602.752408 200.533216 
L 612.206988 189.512272 
L 621.661567 176.245241 
" clip-path="url(#p3ea7074c5f)" style="fill: none; stroke-dasharray: 5.55,2.4; stroke-dashoffset: 0; stroke: #9467bd; stroke-width: 1.5"/>
   </g>
  </g>
 </g>
 <defs>
  <clipPath id="p3ea7074c5f">
   <rect x="90" y="86.4" width="558" height="554.4"/>
  </clipPath>
 </defs>
</svg>
