<?xml version="1.0" encoding="utf-8" standalone="no"?>
<!DOCTYPE svg PUBLIC "-//W3C//DTD SVG 1.1//EN"
  "http://www.w3.org/Graphics/SVG/1.1/DTD/svg11.dtd">
<svg xmlns:xlink="http://www.w3.org/1999/xlink" width="720pt" height="576pt" viewBox="0 0 720 576" xmlns="http://www.w3.org/2000/svg" version="1.1">
 <metadata>
  <rdf:RDF xmlns:dc="http://purl.org/dc/elements/1.1/" xmlns:cc="http://creativecommons.org/ns#" xmlns:rdf="http://www.w3.org/1999/02/22-rdf-syntax-ns#">
   <cc:Work>
    <dc:type rdf:resource="http://purl.org/dc/dcmitype/StillImage"/>
    <dc:date>2025-12-04T10:54:32.866907</dc:date>
    <dc:format>image/svg+xml</dc:format>
    <dc:creator>
     <cc:Agent>
      <dc:title>Matplotlib v3.10.7, https://matplotlib.org/</dc:title>
     </cc:Agent>
    </dc:creator>
   </cc:Work>
  </rdf:RDF>
 </metadata>
 <defs>
  <style type="text/css">*{stroke-linejoin: round; stroke-linecap: butt}</style>
 </defs>
 <g id="figure_1">
  <g id="patch_1">
   <path d="M 0 576 
L 720 576 
L 720 0 
L 0 0 
z
" style="fill: #ffffff"/>
  </g>
  <g id="axes_1">
   <g id="patch_2">
    <path d="M 90 512.64 
L 648 512.64 
L 648 69.12 
L 90 69.12 
z
" style="fill: #ffffff"/>
   </g>
   <g id="FillBetweenPolyCollection_1">
    <path d="M 124.82768 492.331196 
L 124.82768 492.479959 
L 148.487788 492.475843 
L 204.325645 490.681802 
L 281.930801 452.544553 
L 374.678426 373.914984 
L 622.636364 208.114529 
L 622.636364 168.500514 
L 622.636364 168.500514 
L 374.678426 331.785324 
L 281.930801 423.219598 
L 204.325645 474.770506 
L 148.487788 490.891601 
L 124.82768 492.331196 
z
" clip-path="url(#p9aefd2d4fd)" style="fill: #1f77b4; fill-opacity: 0.2"/>
   </g>
   <g id="matplotlib.axis_1">
    <g id="xtick_1">
     <g id="line2d_1">
      <defs>
       <path id="me26222c3de" d="M 0 0 
L 0 3.5 
" style="stroke: #000000; stroke-width: 0.8"/>
      </defs>
      <g>
       <use xlink:href="#me26222c3de" x="153.21981" y="512.64" style="stroke: #000000; stroke-width: 0.8"/>
      </g>
     </g>
     <g id="text_1">
      <!-- 1 -->
      <g transform="translate(148.76606 530.277812) scale(0.14 -0.14)">
       <defs>
        <path id="DejaVuSans-31" d="M 794 531 
L 1825 531 
L 1825 4091 
L 703 3866 
L 703 4441 
L 1819 4666 
L 2450 4666 
L 2450 531 
L 3481 531 
L 3481 0 
L 794 0 
L 794 531 
z
" transform="scale(0.015625)"/>
       </defs>
       <use xlink:href="#DejaVuSans-31"/>
      </g>
     </g>
    </g>
    <g id="xtick_2">
     <g id="line2d_2">
      <g>
       <use xlink:href="#me26222c3de" x="247.860244" y="512.64" style="stroke: #000000; stroke-width: 0.8"/>
      </g>
     </g>
     <g id="text_2">
      <!-- 2 -->
      <g transform="translate(243.406494 530.277812) scale(0.14 -0.14)">
       <defs>
        <path id="DejaVuSans-32" d="M 1228 531 
L 3431 531 
L 3431 0 
L 469 0 
L 469 531 
Q 828 903 1448 1529 
Q 2069 2156 2228 2338 
Q 2531 2678 2651 2914 
Q 2772 3150 2772 3378 
Q 2772 3750 2511 3984 
Q 2250 4219 1831 4219 
Q 1534 4219 1204 4116 
Q 875 4013 500 3803 
L 500 4441 
Q 881 4594 1212 4672 
Q 1544 4750 1819 4750 
Q 2544 4750 2975 4387 
Q 3406 4025 3406 3419 
Q 3406 3131 3298 2873 
Q 3191 2616 2906 2266 
Q 2828 2175 2409 1742 
Q 1991 1309 1228 531 
z
" transform="scale(0.015625)"/>
       </defs>
       <use xlink:href="#DejaVuSans-32"/>
      </g>
     </g>
    </g>
    <g id="xtick_3">
     <g id="line2d_3">
      <g>
       <use xlink:href="#me26222c3de" x="342.500678" y="512.64" style="stroke: #000000; stroke-width: 0.8"/>
      </g>
     </g>
     <g id="text_3">
      <!-- 3 -->
      <g transform="translate(338.046928 530.277812) scale(0.14 -0.14)">
       <defs>
        <path id="DejaVuSans-33" d="M 2597 2516 
Q 3050 2419 3304 2112 
Q 3559 1806 3559 1356 
Q 3559 666 3084 287 
Q 2609 -91 1734 -91 
Q 1441 -91 1130 -33 
Q 819 25 488 141 
L 488 750 
Q 750 597 1062 519 
Q 1375 441 1716 441 
Q 2309 441 2620 675 
Q 2931 909 2931 1356 
Q 2931 1769 2642 2001 
Q 2353 2234 1838 2234 
L 1294 2234 
L 1294 2753 
L 1863 2753 
Q 2328 2753 2575 2939 
Q 2822 3125 2822 3475 
Q 2822 3834 2567 4026 
Q 2313 4219 1838 4219 
Q 1578 4219 1281 4162 
Q 984 4106 628 3988 
L 628 4550 
Q 988 4650 1302 4700 
Q 1616 4750 1894 4750 
Q 2613 4750 3031 4423 
Q 3450 4097 3450 3541 
Q 3450 3153 3228 2886 
Q 3006 2619 2597 2516 
z
" transform="scale(0.015625)"/>
       </defs>
       <use xlink:href="#DejaVuSans-33"/>
      </g>
     </g>
    </g>
    <g id="xtick_4">
     <g id="line2d_4">
      <g>
       <use xlink:href="#me26222c3de" x="437.141113" y="512.64" style="stroke: #000000; stroke-width: 0.8"/>
      </g>
     </g>
     <g id="text_4">
      <!-- 4 -->
      <g transform="translate(432.687363 530.277812) scale(0.14 -0.14)">
       <defs>
        <path id="DejaVuSans-34" d="M 2419 4116 
L 825 1625 
L 2419 1625 
L 2419 4116 
z
M 2253 4666 
L 3047 4666 
L 3047 1625 
L 3713 1625 
L 3713 1100 
L 3047 1100 
L 3047 0 
L 2419 0 
L 2419 1100 
L 313 1100 
L 313 1709 
L 2253 4666 
z
" transform="scale(0.015625)"/>
       </defs>
       <use xlink:href="#DejaVuSans-34"/>
      </g>
     </g>
    </g>
    <g id="xtick_5">
     <g id="line2d_5">
      <g>
       <use xlink:href="#me26222c3de" x="531.781547" y="512.64" style="stroke: #000000; stroke-width: 0.8"/>
      </g>
     </g>
     <g id="text_5">
      <!-- 5 -->
      <g transform="translate(527.327797 530.277812) scale(0.14 -0.14)">
       <defs>
        <path id="DejaVuSans-35" d="M 691 4666 
L 3169 4666 
L 3169 4134 
L 1269 4134 
L 1269 2991 
Q 1406 3038 1543 3061 
Q 1681 3084 1819 3084 
Q 2600 3084 3056 2656 
Q 3513 2228 3513 1497 
Q 3513 744 3044 326 
Q 2575 -91 1722 -91 
Q 1428 -91 1123 -41 
Q 819 9 494 109 
L 494 744 
Q 775 591 1075 516 
Q 1375 441 1709 441 
Q 2250 441 2565 725 
Q 2881 1009 2881 1497 
Q 2881 1984 2565 2268 
Q 2250 2553 1709 2553 
Q 1456 2553 1204 2497 
Q 953 2441 691 2322 
L 691 4666 
z
" transform="scale(0.015625)"/>
       </defs>
       <use xlink:href="#DejaVuSans-35"/>
      </g>
     </g>
    </g>
    <g id="xtick_6">
     <g id="line2d_6">
      <g>
       <use xlink:href="#me26222c3de" x="626.421981" y="512.64" style="stroke: #000000; stroke-width: 0.8"/>
      </g>
     </g>
     <g id="text_6">
      <!-- 6 -->
      <g transform="translate(621.968231 530.277812) scale(0.14 -0.14)">
       <defs>
        <path id="DejaVuSans-36" d="M 2113 2584 
Q 1688 2584 1439 2293 
Q 1191 2003 1191 1497 
Q 1191 994 1439 701 
Q 1688 409 2113 409 
Q 2538 409 2786 701 
Q 3034 994 3034 1497 
Q 3034 2003 2786 2293 
Q 2538 2584 2113 2584 
z
M 3366 4563 
L 3366 3988 
Q 3128 4100 2886 4159 
Q 2644 4219 2406 4219 
Q 1781 4219 1451 3797 
Q 1122 3375 1075 2522 
Q 1259 2794 1537 2939 
Q 1816 3084 2150 3084 
Q 2853 3084 3261 2657 
Q 3669 2231 3669 1497 
Q 3669 778 3244 343 
Q 2819 -91 2113 -91 
Q 1303 -91 875 529 
Q 447 1150 447 2328 
Q 447 3434 972 4092 
Q 1497 4750 2381 4750 
Q 2619 4750 2861 4703 
Q 3103 4656 3366 4563 
z
" transform="scale(0.015625)"/>
       </defs>
       <use xlink:href="#DejaVuSans-36"/>
      </g>
     </g>
    </g>
    <g id="text_7">
     <!-- $\lambda$ ($\mu$m) -->
     <g transform="translate(345.83 547.829375) scale(0.14 -0.14)">
      <defs>
       <path id="DejaVuSans-Oblique-3bb" d="M 2350 4316 
L 3125 0 
L 2516 0 
L 2038 2588 
L 328 0 
L -281 0 
L 1903 3356 
L 1794 3975 
Q 1725 4369 1391 4369 
L 1091 4369 
L 1184 4863 
L 1550 4856 
Q 2253 4847 2350 4316 
z
" transform="scale(0.015625)"/>
       <path id="DejaVuSans-20" transform="scale(0.015625)"/>
       <path id="DejaVuSans-28" d="M 1984 4856 
Q 1566 4138 1362 3434 
Q 1159 2731 1159 2009 
Q 1159 1288 1364 580 
Q 1569 -128 1984 -844 
L 1484 -844 
Q 1016 -109 783 600 
Q 550 1309 550 2009 
Q 550 2706 781 3412 
Q 1013 4119 1484 4856 
L 1984 4856 
z
" transform="scale(0.015625)"/>
       <path id="DejaVuSans-Oblique-3bc" d="M -84 -1331 
L 856 3500 
L 1434 3500 
L 1009 1322 
Q 997 1256 987 1175 
Q 978 1094 978 1013 
Q 978 722 1161 565 
Q 1344 409 1684 409 
Q 2147 409 2431 671 
Q 2716 934 2816 1459 
L 3213 3500 
L 3788 3500 
L 3266 809 
Q 3253 750 3248 706 
Q 3244 663 3244 628 
Q 3244 531 3283 486 
Q 3322 441 3406 441 
Q 3438 441 3492 456 
Q 3547 472 3647 513 
L 3559 50 
Q 3422 -19 3297 -55 
Q 3172 -91 3053 -91 
Q 2847 -91 2730 40 
Q 2613 172 2613 403 
Q 2438 153 2195 31 
Q 1953 -91 1625 -91 
Q 1334 -91 1117 43 
Q 900 178 831 397 
L 494 -1331 
L -84 -1331 
z
" transform="scale(0.015625)"/>
       <path id="DejaVuSans-6d" d="M 3328 2828 
Q 3544 3216 3844 3400 
Q 4144 3584 4550 3584 
Q 5097 3584 5394 3201 
Q 5691 2819 5691 2113 
L 5691 0 
L 5113 0 
L 5113 2094 
Q 5113 2597 4934 2840 
Q 4756 3084 4391 3084 
Q 3944 3084 3684 2787 
Q 3425 2491 3425 1978 
L 3425 0 
L 2847 0 
L 2847 2094 
Q 2847 2600 2669 2842 
Q 2491 3084 2119 3084 
Q 1678 3084 1418 2786 
Q 1159 2488 1159 1978 
L 1159 0 
L 581 0 
L 581 3500 
L 1159 3500 
L 1159 2956 
Q 1356 3278 1631 3431 
Q 1906 3584 2284 3584 
Q 2666 3584 2933 3390 
Q 3200 3197 3328 2828 
z
" transform="scale(0.015625)"/>
       <path id="DejaVuSans-29" d="M 513 4856 
L 1013 4856 
Q 1481 4119 1714 3412 
Q 1947 2706 1947 2009 
Q 1947 1309 1714 600 
Q 1481 -109 1013 -844 
L 513 -844 
Q 928 -128 1133 580 
Q 1338 1288 1338 2009 
Q 1338 2731 1133 3434 
Q 928 4138 513 4856 
z
" transform="scale(0.015625)"/>
      </defs>
      <use xlink:href="#DejaVuSans-Oblique-3bb" transform="translate(0 0.015625)"/>
      <use xlink:href="#DejaVuSans-20" transform="translate(59.179688 0.015625)"/>
      <use xlink:href="#DejaVuSans-28" transform="translate(90.966797 0.015625)"/>
      <use xlink:href="#DejaVuSans-Oblique-3bc" transform="translate(129.980469 0.015625)"/>
      <use xlink:href="#DejaVuSans-6d" transform="translate(193.603516 0.015625)"/>
      <use xlink:href="#DejaVuSans-29" transform="translate(291.015625 0.015625)"/>
     </g>
    </g>
   </g>
   <g id="matplotlib.axis_2">
    <g id="ytick_1">
     <g id="line2d_7">
      <defs>
       <path id="m8573f69c44" d="M 0 0 
L -3.5 0 
" style="stroke: #000000; stroke-width: 0.8"/>
      </defs>
      <g>
       <use xlink:href="#m8573f69c44" x="90" y="492.48" style="stroke: #000000; stroke-width: 0.8"/>
      </g>
     </g>
     <g id="text_8">
      <!-- 0 -->
      <g transform="translate(74.0925 497.798906) scale(0.14 -0.14)">
       <defs>
        <path id="DejaVuSans-30" d="M 2034 4250 
Q 1547 4250 1301 3770 
Q 1056 3291 1056 2328 
Q 1056 1369 1301 889 
Q 1547 409 2034 409 
Q 2525 409 2770 889 
Q 3016 1369 3016 2328 
Q 3016 3291 2770 3770 
Q 2525 4250 2034 4250 
z
M 2034 4750 
Q 2819 4750 3233 4129 
Q 3647 3509 3647 2328 
Q 3647 1150 3233 529 
Q 2819 -91 2034 -91 
Q 1250 -91 836 529 
Q 422 1150 422 2328 
Q 422 3509 836 4129 
Q 1250 4750 2034 4750 
z
" transform="scale(0.015625)"/>
       </defs>
       <use xlink:href="#DejaVuSans-30"/>
      </g>
     </g>
    </g>
    <g id="ytick_2">
     <g id="line2d_8">
      <g>
       <use xlink:href="#m8573f69c44" x="90" y="421.611351" style="stroke: #000000; stroke-width: 0.8"/>
      </g>
     </g>
     <g id="text_9">
      <!-- 100 -->
      <g transform="translate(56.2775 426.930257) scale(0.14 -0.14)">
       <use xlink:href="#DejaVuSans-31"/>
       <use xlink:href="#DejaVuSans-30" transform="translate(63.623047 0)"/>
       <use xlink:href="#DejaVuSans-30" transform="translate(127.246094 0)"/>
      </g>
     </g>
    </g>
    <g id="ytick_3">
     <g id="line2d_9">
      <g>
       <use xlink:href="#m8573f69c44" x="90" y="350.742702" style="stroke: #000000; stroke-width: 0.8"/>
      </g>
     </g>
     <g id="text_10">
      <!-- 200 -->
      <g transform="translate(56.2775 356.061608) scale(0.14 -0.14)">
       <use xlink:href="#DejaVuSans-32"/>
       <use xlink:href="#DejaVuSans-30" transform="translate(63.623047 0)"/>
       <use xlink:href="#DejaVuSans-30" transform="translate(127.246094 0)"/>
      </g>
     </g>
    </g>
    <g id="ytick_4">
     <g id="line2d_10">
      <g>
       <use xlink:href="#m8573f69c44" x="90" y="279.874053" style="stroke: #000000; stroke-width: 0.8"/>
      </g>
     </g>
     <g id="text_11">
      <!-- 300 -->
      <g transform="translate(56.2775 285.19296) scale(0.14 -0.14)">
       <use xlink:href="#DejaVuSans-33"/>
       <use xlink:href="#DejaVuSans-30" transform="translate(63.623047 0)"/>
       <use xlink:href="#DejaVuSans-30" transform="translate(127.246094 0)"/>
      </g>
     </g>
    </g>
    <g id="ytick_5">
     <g id="line2d_11">
      <g>
       <use xlink:href="#m8573f69c44" x="90" y="209.005404" style="stroke: #000000; stroke-width: 0.8"/>
      </g>
     </g>
     <g id="text_12">
      <!-- 400 -->
      <g transform="translate(56.2775 214.324311) scale(0.14 -0.14)">
       <use xlink:href="#DejaVuSans-34"/>
       <use xlink:href="#DejaVuSans-30" transform="translate(63.623047 0)"/>
       <use xlink:href="#DejaVuSans-30" transform="translate(127.246094 0)"/>
      </g>
     </g>
    </g>
    <g id="ytick_6">
     <g id="line2d_12">
      <g>
       <use xlink:href="#m8573f69c44" x="90" y="138.136755" style="stroke: #000000; stroke-width: 0.8"/>
      </g>
     </g>
     <g id="text_13">
      <!-- 500 -->
      <g transform="translate(56.2775 143.455662) scale(0.14 -0.14)">
       <use xlink:href="#DejaVuSans-35"/>
       <use xlink:href="#DejaVuSans-30" transform="translate(63.623047 0)"/>
       <use xlink:href="#DejaVuSans-30" transform="translate(127.246094 0)"/>
      </g>
     </g>
    </g>
    <g id="text_14">
     <!-- Eclipse depth (ppm) -->
     <g transform="translate(49.365937 361.432344) rotate(-90) scale(0.14 -0.14)">
      <defs>
       <path id="DejaVuSans-45" d="M 628 4666 
L 3578 4666 
L 3578 4134 
L 1259 4134 
L 1259 2753 
L 3481 2753 
L 3481 2222 
L 1259 2222 
L 1259 531 
L 3634 531 
L 3634 0 
L 628 0 
L 628 4666 
z
" transform="scale(0.015625)"/>
       <path id="DejaVuSans-63" d="M 3122 3366 
L 3122 2828 
Q 2878 2963 2633 3030 
Q 2388 3097 2138 3097 
Q 1578 3097 1268 2742 
Q 959 2388 959 1747 
Q 959 1106 1268 751 
Q 1578 397 2138 397 
Q 2388 397 2633 464 
Q 2878 531 3122 666 
L 3122 134 
Q 2881 22 2623 -34 
Q 2366 -91 2075 -91 
Q 1284 -91 818 406 
Q 353 903 353 1747 
Q 353 2603 823 3093 
Q 1294 3584 2113 3584 
Q 2378 3584 2631 3529 
Q 2884 3475 3122 3366 
z
" transform="scale(0.015625)"/>
       <path id="DejaVuSans-6c" d="M 603 4863 
L 1178 4863 
L 1178 0 
L 603 0 
L 603 4863 
z
" transform="scale(0.015625)"/>
       <path id="DejaVuSans-69" d="M 603 3500 
L 1178 3500 
L 1178 0 
L 603 0 
L 603 3500 
z
M 603 4863 
L 1178 4863 
L 1178 4134 
L 603 4134 
L 603 4863 
z
" transform="scale(0.015625)"/>
       <path id="DejaVuSans-70" d="M 1159 525 
L 1159 -1331 
L 581 -1331 
L 581 3500 
L 1159 3500 
L 1159 2969 
Q 1341 3281 1617 3432 
Q 1894 3584 2278 3584 
Q 2916 3584 3314 3078 
Q 3713 2572 3713 1747 
Q 3713 922 3314 415 
Q 2916 -91 2278 -91 
Q 1894 -91 1617 61 
Q 1341 213 1159 525 
z
M 3116 1747 
Q 3116 2381 2855 2742 
Q 2594 3103 2138 3103 
Q 1681 3103 1420 2742 
Q 1159 2381 1159 1747 
Q 1159 1113 1420 752 
Q 1681 391 2138 391 
Q 2594 391 2855 752 
Q 3116 1113 3116 1747 
z
" transform="scale(0.015625)"/>
       <path id="DejaVuSans-73" d="M 2834 3397 
L 2834 2853 
Q 2591 2978 2328 3040 
Q 2066 3103 1784 3103 
Q 1356 3103 1142 2972 
Q 928 2841 928 2578 
Q 928 2378 1081 2264 
Q 1234 2150 1697 2047 
L 1894 2003 
Q 2506 1872 2764 1633 
Q 3022 1394 3022 966 
Q 3022 478 2636 193 
Q 2250 -91 1575 -91 
Q 1294 -91 989 -36 
Q 684 19 347 128 
L 347 722 
Q 666 556 975 473 
Q 1284 391 1588 391 
Q 1994 391 2212 530 
Q 2431 669 2431 922 
Q 2431 1156 2273 1281 
Q 2116 1406 1581 1522 
L 1381 1569 
Q 847 1681 609 1914 
Q 372 2147 372 2553 
Q 372 3047 722 3315 
Q 1072 3584 1716 3584 
Q 2034 3584 2315 3537 
Q 2597 3491 2834 3397 
z
" transform="scale(0.015625)"/>
       <path id="DejaVuSans-65" d="M 3597 1894 
L 3597 1613 
L 953 1613 
Q 991 1019 1311 708 
Q 1631 397 2203 397 
Q 2534 397 2845 478 
Q 3156 559 3463 722 
L 3463 178 
Q 3153 47 2828 -22 
Q 2503 -91 2169 -91 
Q 1331 -91 842 396 
Q 353 884 353 1716 
Q 353 2575 817 3079 
Q 1281 3584 2069 3584 
Q 2775 3584 3186 3129 
Q 3597 2675 3597 1894 
z
M 3022 2063 
Q 3016 2534 2758 2815 
Q 2500 3097 2075 3097 
Q 1594 3097 1305 2825 
Q 1016 2553 972 2059 
L 3022 2063 
z
" transform="scale(0.015625)"/>
       <path id="DejaVuSans-64" d="M 2906 2969 
L 2906 4863 
L 3481 4863 
L 3481 0 
L 2906 0 
L 2906 525 
Q 2725 213 2448 61 
Q 2172 -91 1784 -91 
Q 1150 -91 751 415 
Q 353 922 353 1747 
Q 353 2572 751 3078 
Q 1150 3584 1784 3584 
Q 2172 3584 2448 3432 
Q 2725 3281 2906 2969 
z
M 947 1747 
Q 947 1113 1208 752 
Q 1469 391 1925 391 
Q 2381 391 2643 752 
Q 2906 1113 2906 1747 
Q 2906 2381 2643 2742 
Q 2381 3103 1925 3103 
Q 1469 3103 1208 2742 
Q 947 2381 947 1747 
z
" transform="scale(0.015625)"/>
       <path id="DejaVuSans-74" d="M 1172 4494 
L 1172 3500 
L 2356 3500 
L 2356 3053 
L 1172 3053 
L 1172 1153 
Q 1172 725 1289 603 
Q 1406 481 1766 481 
L 2356 481 
L 2356 0 
L 1766 0 
Q 1100 0 847 248 
Q 594 497 594 1153 
L 594 3053 
L 172 3053 
L 172 3500 
L 594 3500 
L 594 4494 
L 1172 4494 
z
" transform="scale(0.015625)"/>
       <path id="DejaVuSans-68" d="M 3513 2113 
L 3513 0 
L 2938 0 
L 2938 2094 
Q 2938 2591 2744 2837 
Q 2550 3084 2163 3084 
Q 1697 3084 1428 2787 
Q 1159 2491 1159 1978 
L 1159 0 
L 581 0 
L 581 4863 
L 1159 4863 
L 1159 2956 
Q 1366 3272 1645 3428 
Q 1925 3584 2291 3584 
Q 2894 3584 3203 3211 
Q 3513 2838 3513 2113 
z
" transform="scale(0.015625)"/>
      </defs>
      <use xlink:href="#DejaVuSans-45"/>
      <use xlink:href="#DejaVuSans-63" transform="translate(63.183594 0)"/>
      <use xlink:href="#DejaVuSans-6c" transform="translate(118.164062 0)"/>
      <use xlink:href="#DejaVuSans-69" transform="translate(145.947266 0)"/>
      <use xlink:href="#DejaVuSans-70" transform="translate(173.730469 0)"/>
      <use xlink:href="#DejaVuSans-73" transform="translate(237.207031 0)"/>
      <use xlink:href="#DejaVuSans-65" transform="translate(289.306641 0)"/>
      <use xlink:href="#DejaVuSans-20" transform="translate(350.830078 0)"/>
      <use xlink:href="#DejaVuSans-64" transform="translate(382.617188 0)"/>
      <use xlink:href="#DejaVuSans-65" transform="translate(446.09375 0)"/>
      <use xlink:href="#DejaVuSans-70" transform="translate(507.617188 0)"/>
      <use xlink:href="#DejaVuSans-74" transform="translate(571.09375 0)"/>
      <use xlink:href="#DejaVuSans-68" transform="translate(610.302734 0)"/>
      <use xlink:href="#DejaVuSans-20" transform="translate(673.681641 0)"/>
      <use xlink:href="#DejaVuSans-28" transform="translate(705.46875 0)"/>
      <use xlink:href="#DejaVuSans-70" transform="translate(744.482422 0)"/>
      <use xlink:href="#DejaVuSans-70" transform="translate(807.958984 0)"/>
      <use xlink:href="#DejaVuSans-6d" transform="translate(871.435547 0)"/>
      <use xlink:href="#DejaVuSans-29" transform="translate(968.847656 0)"/>
     </g>
    </g>
   </g>
   <g id="line2d_13">
    <path d="M 124.82768 492.474552 
L 148.487788 492.322197 
L 204.325645 484.201788 
L 281.930801 438.355954 
L 374.678426 352.758424 
L 622.636364 188.660753 
" clip-path="url(#p9aefd2d4fd)" style="fill: none; stroke: #1f77b4; stroke-width: 1.5; stroke-linecap: square"/>
    <defs>
     <path id="m84b4ce868e" d="M 0 3 
C 0.795609 3 1.55874 2.683901 2.12132 2.12132 
C 2.683901 1.55874 3 0.795609 3 0 
C 3 -0.795609 2.683901 -1.55874 2.12132 -2.12132 
C 1.55874 -2.683901 0.795609 -3 0 -3 
C -0.795609 -3 -1.55874 -2.683901 -2.12132 -2.12132 
C -2.683901 -1.55874 -3 -0.795609 -3 0 
C -3 0.795609 -2.683901 1.55874 -2.12132 2.12132 
C -1.55874 2.683901 -0.795609 3 0 3 
z
" style="stroke: #1f77b4"/>
    </defs>
    <g clip-path="url(#p9aefd2d4fd)">
     <use xlink:href="#m84b4ce868e" x="124.82768" y="492.474552" style="fill: #1f77b4; stroke: #1f77b4"/>
     <use xlink:href="#m84b4ce868e" x="148.487788" y="492.322197" style="fill: #1f77b4; stroke: #1f77b4"/>
     <use xlink:href="#m84b4ce868e" x="204.325645" y="484.201788" style="fill: #1f77b4; stroke: #1f77b4"/>
     <use xlink:href="#m84b4ce868e" x="281.930801" y="438.355954" style="fill: #1f77b4; stroke: #1f77b4"/>
     <use xlink:href="#m84b4ce868e" x="374.678426" y="352.758424" style="fill: #1f77b4; stroke: #1f77b4"/>
     <use xlink:href="#m84b4ce868e" x="622.636364" y="188.660753" style="fill: #1f77b4; stroke: #1f77b4"/>
    </g>
   </g>
   <g id="line2d_14">
    <path d="M 115.363636 492.479387 
L 124.82768 492.474508 
L 134.291723 492.451586 
L 143.755767 492.378107 
L 153.21981 492.197422 
L 162.683853 491.830166 
L 172.147897 491.18178 
L 181.61194 490.153026 
L 191.075984 488.650314 
L 200.540027 486.593784 
L 210.004071 483.92236 
L 219.468114 480.59588 
L 228.932157 476.594904 
L 238.396201 471.918919 
L 247.860244 466.583607 
L 257.324288 460.617715 
L 266.788331 454.059909 
L 276.252374 446.955854 
L 285.716418 439.355647 
L 295.180461 431.311664 
L 304.644505 422.876827 
L 314.108548 414.103254 
L 323.572592 405.041255 
L 333.036635 395.738619 
L 342.500678 386.240137 
L 351.964722 376.587327 
L 361.428765 366.818304 
L 370.892809 356.967756 
L 380.356852 347.067024 
L 389.820896 337.144218 
L 399.284939 327.224392 
L 408.748982 317.329735 
L 418.213026 307.479778 
L 427.677069 297.6916 
L 437.141113 287.980047 
L 446.605156 278.357923 
L 456.069199 268.836197 
L 465.533243 259.424174 
L 474.997286 250.129674 
L 484.46133 240.959187 
L 493.925373 231.918018 
L 503.389417 223.01042 
L 512.85346 214.239714 
L 522.317503 205.608399 
L 531.781547 197.118252 
L 541.24559 188.770413 
L 550.709634 180.565469 
L 560.173677 172.503522 
L 569.63772 164.584254 
L 579.101764 156.806986 
L 588.565807 149.170722 
L 598.029851 141.674202 
L 607.493894 134.315938 
L 616.957938 127.094248 
" clip-path="url(#p9aefd2d4fd)" style="fill: none; stroke: #ff7f0e; stroke-width: 1.5; stroke-linecap: square"/>
   </g>
   <g id="line2d_15">
    <path d="M 115.363636 492.48 
L 124.82768 492.48 
L 134.291723 492.48 
L 143.755767 492.48 
L 153.21981 492.48 
L 162.683853 492.48 
L 172.147897 492.48 
L 181.61194 492.48 
L 191.075984 492.48 
L 200.540027 492.48 
L 210.004071 492.48 
L 219.468114 492.48 
L 228.932157 492.48 
L 238.396201 492.48 
L 247.860244 492.48 
L 257.324288 492.48 
L 266.788331 492.48 
L 276.252374 492.48 
L 285.716418 492.48 
L 295.180461 492.48 
L 304.644505 492.48 
L 314.108548 492.48 
L 323.572592 492.48 
L 333.036635 492.48 
L 342.500678 492.48 
L 351.964722 492.48 
L 361.428765 492.48 
L 370.892809 492.48 
L 380.356852 492.48 
L 389.820896 492.48 
L 399.284939 492.48 
L 408.748982 492.48 
L 418.213026 492.48 
L 427.677069 492.48 
L 437.141113 492.48 
L 446.605156 492.48 
L 456.069199 492.48 
L 465.533243 492.48 
L 474.997286 492.48 
L 484.46133 492.48 
L 493.925373 492.48 
L 503.389417 492.48 
L 512.85346 492.48 
L 522.317503 492.48 
L 531.781547 492.48 
L 541.24559 492.48 
L 550.709634 492.48 
L 560.173677 492.48 
L 569.63772 492.48 
L 579.101764 492.48 
L 588.565807 492.48 
L 598.029851 492.48 
L 607.493894 492.48 
L 616.957938 492.48 
" clip-path="url(#p9aefd2d4fd)" style="fill: none; stroke-dasharray: 5.55,2.4; stroke-dashoffset: 0; stroke: #000000; stroke-width: 1.5"/>
   </g>
   <g id="LineCollection_1">
    <path d="M 484.46133 251.526594 
L 484.46133 194.831675 
" clip-path="url(#p9aefd2d4fd)" style="fill: none; stroke: #000000; stroke-width: 1.5"/>
   </g>
   <g id="line2d_16">
    <defs>
     <path id="m4980b58a6f" d="M 0 3 
C 0.795609 3 1.55874 2.683901 2.12132 2.12132 
C 2.683901 1.55874 3 0.795609 3 0 
C 3 -0.795609 2.683901 -1.55874 2.12132 -2.12132 
C 1.55874 -2.683901 0.795609 -3 0 -3 
C -0.795609 -3 -1.55874 -2.683901 -2.12132 -2.12132 
C -2.683901 -1.55874 -3 -0.795609 -3 0 
C -3 0.795609 -2.683901 1.55874 -2.12132 2.12132 
C -1.55874 2.683901 -0.795609 3 0 3 
z
" style="stroke: #000000"/>
    </defs>
    <g clip-path="url(#p9aefd2d4fd)">
     <use xlink:href="#m4980b58a6f" x="484.46133" y="223.179134" style="stroke: #000000"/>
    </g>
   </g>
   <g id="patch_3">
    <path d="M 90 512.64 
L 90 69.12 
" style="fill: none; stroke: #000000; stroke-width: 0.8; stroke-linejoin: miter; stroke-linecap: square"/>
   </g>
   <g id="patch_4">
    <path d="M 648 512.64 
L 648 69.12 
" style="fill: none; stroke: #000000; stroke-width: 0.8; stroke-linejoin: miter; stroke-linecap: square"/>
   </g>
   <g id="patch_5">
    <path d="M 90 512.64 
L 648 512.64 
" style="fill: none; stroke: #000000; stroke-width: 0.8; stroke-linejoin: miter; stroke-linecap: square"/>
   </g>
   <g id="patch_6">
    <path d="M 90 69.12 
L 648 69.12 
" style="fill: none; stroke: #000000; stroke-width: 0.8; stroke-linejoin: miter; stroke-linecap: square"/>
   </g>
   <g id="text_15">
    <!-- FGS1 -->
    <g transform="translate(111.722211 482.474552) scale(0.1 -0.1)">
     <defs>
      <path id="DejaVuSans-46" d="M 628 4666 
L 3309 4666 
L 3309 4134 
L 1259 4134 
L 1259 2759 
L 3109 2759 
L 3109 2228 
L 1259 2228 
L 1259 0 
L 628 0 
L 628 4666 
z
" transform="scale(0.015625)"/>
      <path id="DejaVuSans-47" d="M 3809 666 
L 3809 1919 
L 2778 1919 
L 2778 2438 
L 4434 2438 
L 4434 434 
Q 4069 175 3628 42 
Q 3188 -91 2688 -91 
Q 1594 -91 976 548 
Q 359 1188 359 2328 
Q 359 3472 976 4111 
Q 1594 4750 2688 4750 
Q 3144 4750 3555 4637 
Q 3966 4525 4313 4306 
L 4313 3634 
Q 3963 3931 3569 4081 
Q 3175 4231 2741 4231 
Q 1884 4231 1454 3753 
Q 1025 3275 1025 2328 
Q 1025 1384 1454 906 
Q 1884 428 2741 428 
Q 3075 428 3337 486 
Q 3600 544 3809 666 
z
" transform="scale(0.015625)"/>
      <path id="DejaVuSans-53" d="M 3425 4513 
L 3425 3897 
Q 3066 4069 2747 4153 
Q 2428 4238 2131 4238 
Q 1616 4238 1336 4038 
Q 1056 3838 1056 3469 
Q 1056 3159 1242 3001 
Q 1428 2844 1947 2747 
L 2328 2669 
Q 3034 2534 3370 2195 
Q 3706 1856 3706 1288 
Q 3706 609 3251 259 
Q 2797 -91 1919 -91 
Q 1588 -91 1214 -16 
Q 841 59 441 206 
L 441 856 
Q 825 641 1194 531 
Q 1563 422 1919 422 
Q 2459 422 2753 634 
Q 3047 847 3047 1241 
Q 3047 1584 2836 1778 
Q 2625 1972 2144 2069 
L 1759 2144 
Q 1053 2284 737 2584 
Q 422 2884 422 3419 
Q 422 4038 858 4394 
Q 1294 4750 2059 4750 
Q 2388 4750 2728 4690 
Q 3069 4631 3425 4513 
z
" transform="scale(0.015625)"/>
     </defs>
     <use xlink:href="#DejaVuSans-46"/>
     <use xlink:href="#DejaVuSans-47" transform="translate(57.519531 0)"/>
     <use xlink:href="#DejaVuSans-53" transform="translate(135.009766 0)"/>
     <use xlink:href="#DejaVuSans-31" transform="translate(198.486328 0)"/>
    </g>
   </g>
   <g id="text_16">
    <!-- FGS2 -->
    <g transform="translate(135.38232 482.322197) scale(0.1 -0.1)">
     <use xlink:href="#DejaVuSans-46"/>
     <use xlink:href="#DejaVuSans-47" transform="translate(57.519531 0)"/>
     <use xlink:href="#DejaVuSans-53" transform="translate(135.009766 0)"/>
     <use xlink:href="#DejaVuSans-32" transform="translate(198.486328 0)"/>
    </g>
   </g>
   <g id="text_17">
    <!-- NIRSpec -->
    <g transform="translate(183.461582 474.201788) scale(0.1 -0.1)">
     <defs>
      <path id="DejaVuSans-4e" d="M 628 4666 
L 1478 4666 
L 3547 763 
L 3547 4666 
L 4159 4666 
L 4159 0 
L 3309 0 
L 1241 3903 
L 1241 0 
L 628 0 
L 628 4666 
z
" transform="scale(0.015625)"/>
      <path id="DejaVuSans-49" d="M 628 4666 
L 1259 4666 
L 1259 0 
L 628 0 
L 628 4666 
z
" transform="scale(0.015625)"/>
      <path id="DejaVuSans-52" d="M 2841 2188 
Q 3044 2119 3236 1894 
Q 3428 1669 3622 1275 
L 4263 0 
L 3584 0 
L 2988 1197 
Q 2756 1666 2539 1819 
Q 2322 1972 1947 1972 
L 1259 1972 
L 1259 0 
L 628 0 
L 628 4666 
L 2053 4666 
Q 2853 4666 3247 4331 
Q 3641 3997 3641 3322 
Q 3641 2881 3436 2590 
Q 3231 2300 2841 2188 
z
M 1259 4147 
L 1259 2491 
L 2053 2491 
Q 2509 2491 2742 2702 
Q 2975 2913 2975 3322 
Q 2975 3731 2742 3939 
Q 2509 4147 2053 4147 
L 1259 4147 
z
" transform="scale(0.015625)"/>
     </defs>
     <use xlink:href="#DejaVuSans-4e"/>
     <use xlink:href="#DejaVuSans-49" transform="translate(74.804688 0)"/>
     <use xlink:href="#DejaVuSans-52" transform="translate(104.296875 0)"/>
     <use xlink:href="#DejaVuSans-53" transform="translate(173.779297 0)"/>
     <use xlink:href="#DejaVuSans-70" transform="translate(237.255859 0)"/>
     <use xlink:href="#DejaVuSans-65" transform="translate(300.732422 0)"/>
     <use xlink:href="#DejaVuSans-63" transform="translate(362.255859 0)"/>
    </g>
   </g>
   <g id="text_18">
    <!-- AIRS-Ch0-1 -->
    <g transform="translate(253.756582 428.355954) scale(0.1 -0.1)">
     <defs>
      <path id="DejaVuSans-41" d="M 2188 4044 
L 1331 1722 
L 3047 1722 
L 2188 4044 
z
M 1831 4666 
L 2547 4666 
L 4325 0 
L 3669 0 
L 3244 1197 
L 1141 1197 
L 716 0 
L 50 0 
L 1831 4666 
z
" transform="scale(0.015625)"/>
      <path id="DejaVuSans-2d" d="M 313 2009 
L 1997 2009 
L 1997 1497 
L 313 1497 
L 313 2009 
z
" transform="scale(0.015625)"/>
      <path id="DejaVuSans-43" d="M 4122 4306 
L 4122 3641 
Q 3803 3938 3442 4084 
Q 3081 4231 2675 4231 
Q 1875 4231 1450 3742 
Q 1025 3253 1025 2328 
Q 1025 1406 1450 917 
Q 1875 428 2675 428 
Q 3081 428 3442 575 
Q 3803 722 4122 1019 
L 4122 359 
Q 3791 134 3420 21 
Q 3050 -91 2638 -91 
Q 1578 -91 968 557 
Q 359 1206 359 2328 
Q 359 3453 968 4101 
Q 1578 4750 2638 4750 
Q 3056 4750 3426 4639 
Q 3797 4528 4122 4306 
z
" transform="scale(0.015625)"/>
     </defs>
     <use xlink:href="#DejaVuSans-41"/>
     <use xlink:href="#DejaVuSans-49" transform="translate(68.408203 0)"/>
     <use xlink:href="#DejaVuSans-52" transform="translate(97.900391 0)"/>
     <use xlink:href="#DejaVuSans-53" transform="translate(167.382812 0)"/>
     <use xlink:href="#DejaVuSans-2d" transform="translate(230.859375 0)"/>
     <use xlink:href="#DejaVuSans-43" transform="translate(266.943359 0)"/>
     <use xlink:href="#DejaVuSans-68" transform="translate(336.767578 0)"/>
     <use xlink:href="#DejaVuSans-30" transform="translate(400.146484 0)"/>
     <use xlink:href="#DejaVuSans-2d" transform="translate(463.769531 0)"/>
     <use xlink:href="#DejaVuSans-31" transform="translate(499.853516 0)"/>
    </g>
   </g>
   <g id="text_19">
    <!-- AIRS-Ch0-2 -->
    <g transform="translate(346.504207 342.758424) scale(0.1 -0.1)">
     <use xlink:href="#DejaVuSans-41"/>
     <use xlink:href="#DejaVuSans-49" transform="translate(68.408203 0)"/>
     <use xlink:href="#DejaVuSans-52" transform="translate(97.900391 0)"/>
     <use xlink:href="#DejaVuSans-53" transform="translate(167.382812 0)"/>
     <use xlink:href="#DejaVuSans-2d" transform="translate(230.859375 0)"/>
     <use xlink:href="#DejaVuSans-43" transform="translate(266.943359 0)"/>
     <use xlink:href="#DejaVuSans-68" transform="translate(336.767578 0)"/>
     <use xlink:href="#DejaVuSans-30" transform="translate(400.146484 0)"/>
     <use xlink:href="#DejaVuSans-2d" transform="translate(463.769531 0)"/>
     <use xlink:href="#DejaVuSans-32" transform="translate(499.853516 0)"/>
    </g>
   </g>
   <g id="text_20">
    <!-- AIRS-CH1 -->
    <g transform="translate(598.855895 178.660753) scale(0.1 -0.1)">
     <defs>
      <path id="DejaVuSans-48" d="M 628 4666 
L 1259 4666 
L 1259 2753 
L 3553 2753 
L 3553 4666 
L 4184 4666 
L 4184 0 
L 3553 0 
L 3553 2222 
L 1259 2222 
L 1259 0 
L 628 0 
L 628 4666 
z
" transform="scale(0.015625)"/>
     </defs>
     <use xlink:href="#DejaVuSans-41"/>
     <use xlink:href="#DejaVuSans-49" transform="translate(68.408203 0)"/>
     <use xlink:href="#DejaVuSans-52" transform="translate(97.900391 0)"/>
     <use xlink:href="#DejaVuSans-53" transform="translate(167.382812 0)"/>
     <use xlink:href="#DejaVuSans-2d" transform="translate(230.859375 0)"/>
     <use xlink:href="#DejaVuSans-43" transform="translate(266.943359 0)"/>
     <use xlink:href="#DejaVuSans-48" transform="translate(336.767578 0)"/>
     <use xlink:href="#DejaVuSans-31" transform="translate(411.962891 0)"/>
    </g>
   </g>
   <g id="text_21">
    <!-- Eclipse depths for LHS3844b -->
    <g transform="translate(268.2525 63.12) scale(0.14 -0.14)">
     <defs>
      <path id="DejaVuSans-66" d="M 2375 4863 
L 2375 4384 
L 1825 4384 
Q 1516 4384 1395 4259 
Q 1275 4134 1275 3809 
L 1275 3500 
L 2222 3500 
L 2222 3053 
L 1275 3053 
L 1275 0 
L 697 0 
L 697 3053 
L 147 3053 
L 147 3500 
L 697 3500 
L 697 3744 
Q 697 4328 969 4595 
Q 1241 4863 1831 4863 
L 2375 4863 
z
" transform="scale(0.015625)"/>
      <path id="DejaVuSans-6f" d="M 1959 3097 
Q 1497 3097 1228 2736 
Q 959 2375 959 1747 
Q 959 1119 1226 758 
Q 1494 397 1959 397 
Q 2419 397 2687 759 
Q 2956 1122 2956 1747 
Q 2956 2369 2687 2733 
Q 2419 3097 1959 3097 
z
M 1959 3584 
Q 2709 3584 3137 3096 
Q 3566 2609 3566 1747 
Q 3566 888 3137 398 
Q 2709 -91 1959 -91 
Q 1206 -91 779 398 
Q 353 888 353 1747 
Q 353 2609 779 3096 
Q 1206 3584 1959 3584 
z
" transform="scale(0.015625)"/>
      <path id="DejaVuSans-72" d="M 2631 2963 
Q 2534 3019 2420 3045 
Q 2306 3072 2169 3072 
Q 1681 3072 1420 2755 
Q 1159 2438 1159 1844 
L 1159 0 
L 581 0 
L 581 3500 
L 1159 3500 
L 1159 2956 
Q 1341 3275 1631 3429 
Q 1922 3584 2338 3584 
Q 2397 3584 2469 3576 
Q 2541 3569 2628 3553 
L 2631 2963 
z
" transform="scale(0.015625)"/>
      <path id="DejaVuSans-4c" d="M 628 4666 
L 1259 4666 
L 1259 531 
L 3531 531 
L 3531 0 
L 628 0 
L 628 4666 
z
" transform="scale(0.015625)"/>
      <path id="DejaVuSans-38" d="M 2034 2216 
Q 1584 2216 1326 1975 
Q 1069 1734 1069 1313 
Q 1069 891 1326 650 
Q 1584 409 2034 409 
Q 2484 409 2743 651 
Q 3003 894 3003 1313 
Q 3003 1734 2745 1975 
Q 2488 2216 2034 2216 
z
M 1403 2484 
Q 997 2584 770 2862 
Q 544 3141 544 3541 
Q 544 4100 942 4425 
Q 1341 4750 2034 4750 
Q 2731 4750 3128 4425 
Q 3525 4100 3525 3541 
Q 3525 3141 3298 2862 
Q 3072 2584 2669 2484 
Q 3125 2378 3379 2068 
Q 3634 1759 3634 1313 
Q 3634 634 3220 271 
Q 2806 -91 2034 -91 
Q 1263 -91 848 271 
Q 434 634 434 1313 
Q 434 1759 690 2068 
Q 947 2378 1403 2484 
z
M 1172 3481 
Q 1172 3119 1398 2916 
Q 1625 2713 2034 2713 
Q 2441 2713 2670 2916 
Q 2900 3119 2900 3481 
Q 2900 3844 2670 4047 
Q 2441 4250 2034 4250 
Q 1625 4250 1398 4047 
Q 1172 3844 1172 3481 
z
" transform="scale(0.015625)"/>
      <path id="DejaVuSans-62" d="M 3116 1747 
Q 3116 2381 2855 2742 
Q 2594 3103 2138 3103 
Q 1681 3103 1420 2742 
Q 1159 2381 1159 1747 
Q 1159 1113 1420 752 
Q 1681 391 2138 391 
Q 2594 391 2855 752 
Q 3116 1113 3116 1747 
z
M 1159 2969 
Q 1341 3281 1617 3432 
Q 1894 3584 2278 3584 
Q 2916 3584 3314 3078 
Q 3713 2572 3713 1747 
Q 3713 922 3314 415 
Q 2916 -91 2278 -91 
Q 1894 -91 1617 61 
Q 1341 213 1159 525 
L 1159 0 
L 581 0 
L 581 4863 
L 1159 4863 
L 1159 2969 
z
" transform="scale(0.015625)"/>
     </defs>
     <use xlink:href="#DejaVuSans-45"/>
     <use xlink:href="#DejaVuSans-63" transform="translate(63.183594 0)"/>
     <use xlink:href="#DejaVuSans-6c" transform="translate(118.164062 0)"/>
     <use xlink:href="#DejaVuSans-69" transform="translate(145.947266 0)"/>
     <use xlink:href="#DejaVuSans-70" transform="translate(173.730469 0)"/>
     <use xlink:href="#DejaVuSans-73" transform="translate(237.207031 0)"/>
     <use xlink:href="#DejaVuSans-65" transform="translate(289.306641 0)"/>
     <use xlink:href="#DejaVuSans-20" transform="translate(350.830078 0)"/>
     <use xlink:href="#DejaVuSans-64" transform="translate(382.617188 0)"/>
     <use xlink:href="#DejaVuSans-65" transform="translate(446.09375 0)"/>
     <use xlink:href="#DejaVuSans-70" transform="translate(507.617188 0)"/>
     <use xlink:href="#DejaVuSans-74" transform="translate(571.09375 0)"/>
     <use xlink:href="#DejaVuSans-68" transform="translate(610.302734 0)"/>
     <use xlink:href="#DejaVuSans-73" transform="translate(673.681641 0)"/>
     <use xlink:href="#DejaVuSans-20" transform="translate(725.78125 0)"/>
     <use xlink:href="#DejaVuSans-66" transform="translate(757.568359 0)"/>
     <use xlink:href="#DejaVuSans-6f" transform="translate(792.773438 0)"/>
     <use xlink:href="#DejaVuSans-72" transform="translate(853.955078 0)"/>
     <use xlink:href="#DejaVuSans-20" transform="translate(895.068359 0)"/>
     <use xlink:href="#DejaVuSans-4c" transform="translate(926.855469 0)"/>
     <use xlink:href="#DejaVuSans-48" transform="translate(982.568359 0)"/>
     <use xlink:href="#DejaVuSans-53" transform="translate(1057.763672 0)"/>
     <use xlink:href="#DejaVuSans-33" transform="translate(1121.240234 0)"/>
     <use xlink:href="#DejaVuSans-38" transform="translate(1184.863281 0)"/>
     <use xlink:href="#DejaVuSans-34" transform="translate(1248.486328 0)"/>
     <use xlink:href="#DejaVuSans-34" transform="translate(1312.109375 0)"/>
     <use xlink:href="#DejaVuSans-62" transform="translate(1375.732422 0)"/>
    </g>
   </g>
   <g id="legend_1">
    <g id="patch_7">
     <path d="M 98.4 272.47125 
L 285.80625 272.47125 
Q 288.20625 272.47125 288.20625 270.07125 
L 288.20625 77.52 
Q 288.20625 75.12 285.80625 75.12 
L 98.4 75.12 
Q 96 75.12 96 77.52 
L 96 270.07125 
Q 96 272.47125 98.4 272.47125 
z
" style="fill: #ffffff; opacity: 0.8; stroke: #cccccc; stroke-linejoin: miter"/>
    </g>
    <g id="patch_8">
     <path d="M 100.8 89.038125 
L 124.8 89.038125 
L 124.8 80.638125 
L 100.8 80.638125 
z
" style="fill: #1f77b4; fill-opacity: 0.2"/>
    </g>
    <g id="text_22">
     <!-- asymmetric error -->
     <g transform="translate(134.4 89.038125) scale(0.12 -0.12)">
      <defs>
       <path id="DejaVuSans-61" d="M 2194 1759 
Q 1497 1759 1228 1600 
Q 959 1441 959 1056 
Q 959 750 1161 570 
Q 1363 391 1709 391 
Q 2188 391 2477 730 
Q 2766 1069 2766 1631 
L 2766 1759 
L 2194 1759 
z
M 3341 1997 
L 3341 0 
L 2766 0 
L 2766 531 
Q 2569 213 2275 61 
Q 1981 -91 1556 -91 
Q 1019 -91 701 211 
Q 384 513 384 1019 
Q 384 1609 779 1909 
Q 1175 2209 1959 2209 
L 2766 2209 
L 2766 2266 
Q 2766 2663 2505 2880 
Q 2244 3097 1772 3097 
Q 1472 3097 1187 3025 
Q 903 2953 641 2809 
L 641 3341 
Q 956 3463 1253 3523 
Q 1550 3584 1831 3584 
Q 2591 3584 2966 3190 
Q 3341 2797 3341 1997 
z
" transform="scale(0.015625)"/>
       <path id="DejaVuSans-79" d="M 2059 -325 
Q 1816 -950 1584 -1140 
Q 1353 -1331 966 -1331 
L 506 -1331 
L 506 -850 
L 844 -850 
Q 1081 -850 1212 -737 
Q 1344 -625 1503 -206 
L 1606 56 
L 191 3500 
L 800 3500 
L 1894 763 
L 2988 3500 
L 3597 3500 
L 2059 -325 
z
" transform="scale(0.015625)"/>
      </defs>
      <use xlink:href="#DejaVuSans-61"/>
      <use xlink:href="#DejaVuSans-73" transform="translate(61.279297 0)"/>
      <use xlink:href="#DejaVuSans-79" transform="translate(113.378906 0)"/>
      <use xlink:href="#DejaVuSans-6d" transform="translate(172.558594 0)"/>
      <use xlink:href="#DejaVuSans-6d" transform="translate(269.970703 0)"/>
      <use xlink:href="#DejaVuSans-65" transform="translate(367.382812 0)"/>
      <use xlink:href="#DejaVuSans-74" transform="translate(428.90625 0)"/>
      <use xlink:href="#DejaVuSans-72" transform="translate(468.115234 0)"/>
      <use xlink:href="#DejaVuSans-69" transform="translate(509.228516 0)"/>
      <use xlink:href="#DejaVuSans-63" transform="translate(537.011719 0)"/>
      <use xlink:href="#DejaVuSans-20" transform="translate(591.992188 0)"/>
      <use xlink:href="#DejaVuSans-65" transform="translate(623.779297 0)"/>
      <use xlink:href="#DejaVuSans-72" transform="translate(685.302734 0)"/>
      <use xlink:href="#DejaVuSans-72" transform="translate(724.666016 0)"/>
      <use xlink:href="#DejaVuSans-6f" transform="translate(763.529297 0)"/>
      <use xlink:href="#DejaVuSans-72" transform="translate(824.710938 0)"/>
     </g>
    </g>
    <g id="line2d_17">
     <path d="M 100.8 102.451875 
L 112.8 102.451875 
L 124.8 102.451875 
" style="fill: none; stroke: #ff7f0e; stroke-width: 1.5; stroke-linecap: square"/>
    </g>
    <g id="text_23">
     <!-- blackbody T = 1031.0 K -->
     <g transform="translate(134.4 106.651875) scale(0.12 -0.12)">
      <defs>
       <path id="DejaVuSans-6b" d="M 581 4863 
L 1159 4863 
L 1159 1991 
L 2875 3500 
L 3609 3500 
L 1753 1863 
L 3688 0 
L 2938 0 
L 1159 1709 
L 1159 0 
L 581 0 
L 581 4863 
z
" transform="scale(0.015625)"/>
       <path id="DejaVuSans-54" d="M -19 4666 
L 3928 4666 
L 3928 4134 
L 2272 4134 
L 2272 0 
L 1638 0 
L 1638 4134 
L -19 4134 
L -19 4666 
z
" transform="scale(0.015625)"/>
       <path id="DejaVuSans-3d" d="M 678 2906 
L 4684 2906 
L 4684 2381 
L 678 2381 
L 678 2906 
z
M 678 1631 
L 4684 1631 
L 4684 1100 
L 678 1100 
L 678 1631 
z
" transform="scale(0.015625)"/>
       <path id="DejaVuSans-2e" d="M 684 794 
L 1344 794 
L 1344 0 
L 684 0 
L 684 794 
z
" transform="scale(0.015625)"/>
       <path id="DejaVuSans-4b" d="M 628 4666 
L 1259 4666 
L 1259 2694 
L 3353 4666 
L 4166 4666 
L 1850 2491 
L 4331 0 
L 3500 0 
L 1259 2247 
L 1259 0 
L 628 0 
L 628 4666 
z
" transform="scale(0.015625)"/>
      </defs>
      <use xlink:href="#DejaVuSans-62"/>
      <use xlink:href="#DejaVuSans-6c" transform="translate(63.476562 0)"/>
      <use xlink:href="#DejaVuSans-61" transform="translate(91.259766 0)"/>
      <use xlink:href="#DejaVuSans-63" transform="translate(152.539062 0)"/>
      <use xlink:href="#DejaVuSans-6b" transform="translate(207.519531 0)"/>
      <use xlink:href="#DejaVuSans-62" transform="translate(265.429688 0)"/>
      <use xlink:href="#DejaVuSans-6f" transform="translate(328.90625 0)"/>
      <use xlink:href="#DejaVuSans-64" transform="translate(390.087891 0)"/>
      <use xlink:href="#DejaVuSans-79" transform="translate(453.564453 0)"/>
      <use xlink:href="#DejaVuSans-20" transform="translate(512.744141 0)"/>
      <use xlink:href="#DejaVuSans-54" transform="translate(544.53125 0)"/>
      <use xlink:href="#DejaVuSans-20" transform="translate(605.615234 0)"/>
      <use xlink:href="#DejaVuSans-3d" transform="translate(637.402344 0)"/>
      <use xlink:href="#DejaVuSans-20" transform="translate(721.191406 0)"/>
      <use xlink:href="#DejaVuSans-31" transform="translate(752.978516 0)"/>
      <use xlink:href="#DejaVuSans-30" transform="translate(816.601562 0)"/>
      <use xlink:href="#DejaVuSans-33" transform="translate(880.224609 0)"/>
      <use xlink:href="#DejaVuSans-31" transform="translate(943.847656 0)"/>
      <use xlink:href="#DejaVuSans-2e" transform="translate(1007.470703 0)"/>
      <use xlink:href="#DejaVuSans-30" transform="translate(1039.257812 0)"/>
      <use xlink:href="#DejaVuSans-20" transform="translate(1102.880859 0)"/>
      <use xlink:href="#DejaVuSans-4b" transform="translate(1134.667969 0)"/>
     </g>
    </g>
    <g id="line2d_18">
     <path d="M 100.8 120.065625 
L 112.8 120.065625 
L 124.8 120.065625 
" style="fill: none; stroke-dasharray: 5.55,2.4; stroke-dashoffset: 0; stroke: #2ca02c; stroke-width: 1.5"/>
    </g>
    <g id="text_24">
     <!-- Metal-rich HES2012 -->
     <g transform="translate(134.4 124.265625) scale(0.12 -0.12)">
      <defs>
       <path id="DejaVuSans-4d" d="M 628 4666 
L 1569 4666 
L 2759 1491 
L 3956 4666 
L 4897 4666 
L 4897 0 
L 4281 0 
L 4281 4097 
L 3078 897 
L 2444 897 
L 1241 4097 
L 1241 0 
L 628 0 
L 628 4666 
z
" transform="scale(0.015625)"/>
      </defs>
      <use xlink:href="#DejaVuSans-4d"/>
      <use xlink:href="#DejaVuSans-65" transform="translate(86.279297 0)"/>
      <use xlink:href="#DejaVuSans-74" transform="translate(147.802734 0)"/>
      <use xlink:href="#DejaVuSans-61" transform="translate(187.011719 0)"/>
      <use xlink:href="#DejaVuSans-6c" transform="translate(248.291016 0)"/>
      <use xlink:href="#DejaVuSans-2d" transform="translate(276.074219 0)"/>
      <use xlink:href="#DejaVuSans-72" transform="translate(312.158203 0)"/>
      <use xlink:href="#DejaVuSans-69" transform="translate(353.271484 0)"/>
      <use xlink:href="#DejaVuSans-63" transform="translate(381.054688 0)"/>
      <use xlink:href="#DejaVuSans-68" transform="translate(436.035156 0)"/>
      <use xlink:href="#DejaVuSans-20" transform="translate(499.414062 0)"/>
      <use xlink:href="#DejaVuSans-48" transform="translate(531.201172 0)"/>
      <use xlink:href="#DejaVuSans-45" transform="translate(606.396484 0)"/>
      <use xlink:href="#DejaVuSans-53" transform="translate(669.580078 0)"/>
      <use xlink:href="#DejaVuSans-32" transform="translate(733.056641 0)"/>
      <use xlink:href="#DejaVuSans-30" transform="translate(796.679688 0)"/>
      <use xlink:href="#DejaVuSans-31" transform="translate(860.302734 0)"/>
      <use xlink:href="#DejaVuSans-32" transform="translate(923.925781 0)"/>
     </g>
    </g>
    <g id="line2d_19">
     <path d="M 100.8 137.679375 
L 112.8 137.679375 
L 124.8 137.679375 
" style="fill: none; stroke-dasharray: 5.55,2.4; stroke-dashoffset: 0; stroke: #d62728; stroke-width: 1.5"/>
    </g>
    <g id="text_25">
     <!-- Ultramafic HES2012 -->
     <g transform="translate(134.4 141.879375) scale(0.12 -0.12)">
      <defs>
       <path id="DejaVuSans-55" d="M 556 4666 
L 1191 4666 
L 1191 1831 
Q 1191 1081 1462 751 
Q 1734 422 2344 422 
Q 2950 422 3222 751 
Q 3494 1081 3494 1831 
L 3494 4666 
L 4128 4666 
L 4128 1753 
Q 4128 841 3676 375 
Q 3225 -91 2344 -91 
Q 1459 -91 1007 375 
Q 556 841 556 1753 
L 556 4666 
z
" transform="scale(0.015625)"/>
      </defs>
      <use xlink:href="#DejaVuSans-55"/>
      <use xlink:href="#DejaVuSans-6c" transform="translate(73.193359 0)"/>
      <use xlink:href="#DejaVuSans-74" transform="translate(100.976562 0)"/>
      <use xlink:href="#DejaVuSans-72" transform="translate(140.185547 0)"/>
      <use xlink:href="#DejaVuSans-61" transform="translate(181.298828 0)"/>
      <use xlink:href="#DejaVuSans-6d" transform="translate(242.578125 0)"/>
      <use xlink:href="#DejaVuSans-61" transform="translate(339.990234 0)"/>
      <use xlink:href="#DejaVuSans-66" transform="translate(401.269531 0)"/>
      <use xlink:href="#DejaVuSans-69" transform="translate(436.474609 0)"/>
      <use xlink:href="#DejaVuSans-63" transform="translate(464.257812 0)"/>
      <use xlink:href="#DejaVuSans-20" transform="translate(519.238281 0)"/>
      <use xlink:href="#DejaVuSans-48" transform="translate(551.025391 0)"/>
      <use xlink:href="#DejaVuSans-45" transform="translate(626.220703 0)"/>
      <use xlink:href="#DejaVuSans-53" transform="translate(689.404297 0)"/>
      <use xlink:href="#DejaVuSans-32" transform="translate(752.880859 0)"/>
      <use xlink:href="#DejaVuSans-30" transform="translate(816.503906 0)"/>
      <use xlink:href="#DejaVuSans-31" transform="translate(880.126953 0)"/>
      <use xlink:href="#DejaVuSans-32" transform="translate(943.75 0)"/>
     </g>
    </g>
    <g id="line2d_20">
     <path d="M 100.8 155.293125 
L 112.8 155.293125 
L 124.8 155.293125 
" style="fill: none; stroke-dasharray: 5.55,2.4; stroke-dashoffset: 0; stroke: #9467bd; stroke-width: 1.5"/>
    </g>
    <g id="text_26">
     <!-- Feldspathic HES2012 -->
     <g transform="translate(134.4 159.493125) scale(0.12 -0.12)">
      <use xlink:href="#DejaVuSans-46"/>
      <use xlink:href="#DejaVuSans-65" transform="translate(52.019531 0)"/>
      <use xlink:href="#DejaVuSans-6c" transform="translate(113.542969 0)"/>
      <use xlink:href="#DejaVuSans-64" transform="translate(141.326172 0)"/>
      <use xlink:href="#DejaVuSans-73" transform="translate(204.802734 0)"/>
      <use xlink:href="#DejaVuSans-70" transform="translate(256.902344 0)"/>
      <use xlink:href="#DejaVuSans-61" transform="translate(320.378906 0)"/>
      <use xlink:href="#DejaVuSans-74" transform="translate(381.658203 0)"/>
      <use xlink:href="#DejaVuSans-68" transform="translate(420.867188 0)"/>
      <use xlink:href="#DejaVuSans-69" transform="translate(484.246094 0)"/>
      <use xlink:href="#DejaVuSans-63" transform="translate(512.029297 0)"/>
      <use xlink:href="#DejaVuSans-20" transform="translate(567.009766 0)"/>
      <use xlink:href="#DejaVuSans-48" transform="translate(598.796875 0)"/>
      <use xlink:href="#DejaVuSans-45" transform="translate(673.992188 0)"/>
      <use xlink:href="#DejaVuSans-53" transform="translate(737.175781 0)"/>
      <use xlink:href="#DejaVuSans-32" transform="translate(800.652344 0)"/>
      <use xlink:href="#DejaVuSans-30" transform="translate(864.275391 0)"/>
      <use xlink:href="#DejaVuSans-31" transform="translate(927.898438 0)"/>
      <use xlink:href="#DejaVuSans-32" transform="translate(991.521484 0)"/>
     </g>
    </g>
    <g id="line2d_21">
     <path d="M 100.8 172.906875 
L 112.8 172.906875 
L 124.8 172.906875 
" style="fill: none; stroke-dasharray: 5.55,2.4; stroke-dashoffset: 0; stroke: #8c564b; stroke-width: 1.5"/>
    </g>
    <g id="text_27">
     <!-- Basaltic HES2012 -->
     <g transform="translate(134.4 177.106875) scale(0.12 -0.12)">
      <defs>
       <path id="DejaVuSans-42" d="M 1259 2228 
L 1259 519 
L 2272 519 
Q 2781 519 3026 730 
Q 3272 941 3272 1375 
Q 3272 1813 3026 2020 
Q 2781 2228 2272 2228 
L 1259 2228 
z
M 1259 4147 
L 1259 2741 
L 2194 2741 
Q 2656 2741 2882 2914 
Q 3109 3088 3109 3444 
Q 3109 3797 2882 3972 
Q 2656 4147 2194 4147 
L 1259 4147 
z
M 628 4666 
L 2241 4666 
Q 2963 4666 3353 4366 
Q 3744 4066 3744 3513 
Q 3744 3084 3544 2831 
Q 3344 2578 2956 2516 
Q 3422 2416 3680 2098 
Q 3938 1781 3938 1306 
Q 3938 681 3513 340 
Q 3088 0 2303 0 
L 628 0 
L 628 4666 
z
" transform="scale(0.015625)"/>
      </defs>
      <use xlink:href="#DejaVuSans-42"/>
      <use xlink:href="#DejaVuSans-61" transform="translate(68.603516 0)"/>
      <use xlink:href="#DejaVuSans-73" transform="translate(129.882812 0)"/>
      <use xlink:href="#DejaVuSans-61" transform="translate(181.982422 0)"/>
      <use xlink:href="#DejaVuSans-6c" transform="translate(243.261719 0)"/>
      <use xlink:href="#DejaVuSans-74" transform="translate(271.044922 0)"/>
      <use xlink:href="#DejaVuSans-69" transform="translate(310.253906 0)"/>
      <use xlink:href="#DejaVuSans-63" transform="translate(338.037109 0)"/>
      <use xlink:href="#DejaVuSans-20" transform="translate(393.017578 0)"/>
      <use xlink:href="#DejaVuSans-48" transform="translate(424.804688 0)"/>
      <use xlink:href="#DejaVuSans-45" transform="translate(500 0)"/>
      <use xlink:href="#DejaVuSans-53" transform="translate(563.183594 0)"/>
      <use xlink:href="#DejaVuSans-32" transform="translate(626.660156 0)"/>
      <use xlink:href="#DejaVuSans-30" transform="translate(690.283203 0)"/>
      <use xlink:href="#DejaVuSans-31" transform="translate(753.90625 0)"/>
      <use xlink:href="#DejaVuSans-32" transform="translate(817.529297 0)"/>
     </g>
    </g>
    <g id="line2d_22">
     <path d="M 100.8 190.520625 
L 112.8 190.520625 
L 124.8 190.520625 
" style="fill: none; stroke-dasharray: 5.55,2.4; stroke-dashoffset: 0; stroke: #e377c2; stroke-width: 1.5"/>
    </g>
    <g id="text_28">
     <!-- Granitoid HES2012 -->
     <g transform="translate(134.4 194.720625) scale(0.12 -0.12)">
      <defs>
       <path id="DejaVuSans-6e" d="M 3513 2113 
L 3513 0 
L 2938 0 
L 2938 2094 
Q 2938 2591 2744 2837 
Q 2550 3084 2163 3084 
Q 1697 3084 1428 2787 
Q 1159 2491 1159 1978 
L 1159 0 
L 581 0 
L 581 3500 
L 1159 3500 
L 1159 2956 
Q 1366 3272 1645 3428 
Q 1925 3584 2291 3584 
Q 2894 3584 3203 3211 
Q 3513 2838 3513 2113 
z
" transform="scale(0.015625)"/>
      </defs>
      <use xlink:href="#DejaVuSans-47"/>
      <use xlink:href="#DejaVuSans-72" transform="translate(77.490234 0)"/>
      <use xlink:href="#DejaVuSans-61" transform="translate(118.603516 0)"/>
      <use xlink:href="#DejaVuSans-6e" transform="translate(179.882812 0)"/>
      <use xlink:href="#DejaVuSans-69" transform="translate(243.261719 0)"/>
      <use xlink:href="#DejaVuSans-74" transform="translate(271.044922 0)"/>
      <use xlink:href="#DejaVuSans-6f" transform="translate(310.253906 0)"/>
      <use xlink:href="#DejaVuSans-69" transform="translate(371.435547 0)"/>
      <use xlink:href="#DejaVuSans-64" transform="translate(399.21875 0)"/>
      <use xlink:href="#DejaVuSans-20" transform="translate(462.695312 0)"/>
      <use xlink:href="#DejaVuSans-48" transform="translate(494.482422 0)"/>
      <use xlink:href="#DejaVuSans-45" transform="translate(569.677734 0)"/>
      <use xlink:href="#DejaVuSans-53" transform="translate(632.861328 0)"/>
      <use xlink:href="#DejaVuSans-32" transform="translate(696.337891 0)"/>
      <use xlink:href="#DejaVuSans-30" transform="translate(759.960938 0)"/>
      <use xlink:href="#DejaVuSans-31" transform="translate(823.583984 0)"/>
      <use xlink:href="#DejaVuSans-32" transform="translate(887.207031 0)"/>
     </g>
    </g>
    <g id="line2d_23">
     <path d="M 100.8 208.134375 
L 112.8 208.134375 
L 124.8 208.134375 
" style="fill: none; stroke-dasharray: 5.55,2.4; stroke-dashoffset: 0; stroke: #7f7f7f; stroke-width: 1.5"/>
    </g>
    <g id="text_29">
     <!-- Clay HES2012 -->
     <g transform="translate(134.4 212.334375) scale(0.12 -0.12)">
      <use xlink:href="#DejaVuSans-43"/>
      <use xlink:href="#DejaVuSans-6c" transform="translate(69.824219 0)"/>
      <use xlink:href="#DejaVuSans-61" transform="translate(97.607422 0)"/>
      <use xlink:href="#DejaVuSans-79" transform="translate(158.886719 0)"/>
      <use xlink:href="#DejaVuSans-20" transform="translate(218.066406 0)"/>
      <use xlink:href="#DejaVuSans-48" transform="translate(249.853516 0)"/>
      <use xlink:href="#DejaVuSans-45" transform="translate(325.048828 0)"/>
      <use xlink:href="#DejaVuSans-53" transform="translate(388.232422 0)"/>
      <use xlink:href="#DejaVuSans-32" transform="translate(451.708984 0)"/>
      <use xlink:href="#DejaVuSans-30" transform="translate(515.332031 0)"/>
      <use xlink:href="#DejaVuSans-31" transform="translate(578.955078 0)"/>
      <use xlink:href="#DejaVuSans-32" transform="translate(642.578125 0)"/>
     </g>
    </g>
    <g id="line2d_24">
     <path d="M 100.8 225.748125 
L 112.8 225.748125 
L 124.8 225.748125 
" style="fill: none; stroke-dasharray: 5.55,2.4; stroke-dashoffset: 0; stroke: #bcbd22; stroke-width: 1.5"/>
    </g>
    <g id="text_30">
     <!-- Ice-rich silicate HES2012 -->
     <g transform="translate(134.4 229.948125) scale(0.12 -0.12)">
      <use xlink:href="#DejaVuSans-49"/>
      <use xlink:href="#DejaVuSans-63" transform="translate(29.492188 0)"/>
      <use xlink:href="#DejaVuSans-65" transform="translate(84.472656 0)"/>
      <use xlink:href="#DejaVuSans-2d" transform="translate(145.996094 0)"/>
      <use xlink:href="#DejaVuSans-72" transform="translate(182.080078 0)"/>
      <use xlink:href="#DejaVuSans-69" transform="translate(223.193359 0)"/>
      <use xlink:href="#DejaVuSans-63" transform="translate(250.976562 0)"/>
      <use xlink:href="#DejaVuSans-68" transform="translate(305.957031 0)"/>
      <use xlink:href="#DejaVuSans-20" transform="translate(369.335938 0)"/>
      <use xlink:href="#DejaVuSans-73" transform="translate(401.123047 0)"/>
      <use xlink:href="#DejaVuSans-69" transform="translate(453.222656 0)"/>
      <use xlink:href="#DejaVuSans-6c" transform="translate(481.005859 0)"/>
      <use xlink:href="#DejaVuSans-69" transform="translate(508.789062 0)"/>
      <use xlink:href="#DejaVuSans-63" transform="translate(536.572266 0)"/>
      <use xlink:href="#DejaVuSans-61" transform="translate(591.552734 0)"/>
      <use xlink:href="#DejaVuSans-74" transform="translate(652.832031 0)"/>
      <use xlink:href="#DejaVuSans-65" transform="translate(692.041016 0)"/>
      <use xlink:href="#DejaVuSans-20" transform="translate(753.564453 0)"/>
      <use xlink:href="#DejaVuSans-48" transform="translate(785.351562 0)"/>
      <use xlink:href="#DejaVuSans-45" transform="translate(860.546875 0)"/>
      <use xlink:href="#DejaVuSans-53" transform="translate(923.730469 0)"/>
      <use xlink:href="#DejaVuSans-32" transform="translate(987.207031 0)"/>
      <use xlink:href="#DejaVuSans-30" transform="translate(1050.830078 0)"/>
      <use xlink:href="#DejaVuSans-31" transform="translate(1114.453125 0)"/>
      <use xlink:href="#DejaVuSans-32" transform="translate(1178.076172 0)"/>
     </g>
    </g>
    <g id="line2d_25">
     <path d="M 100.8 243.361875 
L 112.8 243.361875 
L 124.8 243.361875 
" style="fill: none; stroke-dasharray: 5.55,2.4; stroke-dashoffset: 0; stroke: #17becf; stroke-width: 1.5"/>
    </g>
    <g id="text_31">
     <!-- Fe-oxidized HES2012 -->
     <g transform="translate(134.4 247.561875) scale(0.12 -0.12)">
      <defs>
       <path id="DejaVuSans-78" d="M 3513 3500 
L 2247 1797 
L 3578 0 
L 2900 0 
L 1881 1375 
L 863 0 
L 184 0 
L 1544 1831 
L 300 3500 
L 978 3500 
L 1906 2253 
L 2834 3500 
L 3513 3500 
z
" transform="scale(0.015625)"/>
       <path id="DejaVuSans-7a" d="M 353 3500 
L 3084 3500 
L 3084 2975 
L 922 459 
L 3084 459 
L 3084 0 
L 275 0 
L 275 525 
L 2438 3041 
L 353 3041 
L 353 3500 
z
" transform="scale(0.015625)"/>
      </defs>
      <use xlink:href="#DejaVuSans-46"/>
      <use xlink:href="#DejaVuSans-65" transform="translate(52.019531 0)"/>
      <use xlink:href="#DejaVuSans-2d" transform="translate(113.542969 0)"/>
      <use xlink:href="#DejaVuSans-6f" transform="translate(151.501953 0)"/>
      <use xlink:href="#DejaVuSans-78" transform="translate(209.558594 0)"/>
      <use xlink:href="#DejaVuSans-69" transform="translate(268.738281 0)"/>
      <use xlink:href="#DejaVuSans-64" transform="translate(296.521484 0)"/>
      <use xlink:href="#DejaVuSans-69" transform="translate(359.998047 0)"/>
      <use xlink:href="#DejaVuSans-7a" transform="translate(387.78125 0)"/>
      <use xlink:href="#DejaVuSans-65" transform="translate(440.271484 0)"/>
      <use xlink:href="#DejaVuSans-64" transform="translate(501.794922 0)"/>
      <use xlink:href="#DejaVuSans-20" transform="translate(565.271484 0)"/>
      <use xlink:href="#DejaVuSans-48" transform="translate(597.058594 0)"/>
      <use xlink:href="#DejaVuSans-45" transform="translate(672.253906 0)"/>
      <use xlink:href="#DejaVuSans-53" transform="translate(735.4375 0)"/>
      <use xlink:href="#DejaVuSans-32" transform="translate(798.914062 0)"/>
      <use xlink:href="#DejaVuSans-30" transform="translate(862.537109 0)"/>
      <use xlink:href="#DejaVuSans-31" transform="translate(926.160156 0)"/>
      <use xlink:href="#DejaVuSans-32" transform="translate(989.783203 0)"/>
     </g>
    </g>
    <g id="LineCollection_2">
     <path d="M 112.8 266.975625 
L 112.8 254.975625 
" style="fill: none; stroke: #000000; stroke-width: 1.5"/>
    </g>
    <g id="line2d_26"/>
    <g id="line2d_27">
     <g>
      <use xlink:href="#m4980b58a6f" x="112.8" y="260.975625" style="stroke: #000000"/>
     </g>
    </g>
    <g id="text_32">
     <!-- Kreidberg 2019 -->
     <g transform="translate(134.4 265.175625) scale(0.12 -0.12)">
      <defs>
       <path id="DejaVuSans-67" d="M 2906 1791 
Q 2906 2416 2648 2759 
Q 2391 3103 1925 3103 
Q 1463 3103 1205 2759 
Q 947 2416 947 1791 
Q 947 1169 1205 825 
Q 1463 481 1925 481 
Q 2391 481 2648 825 
Q 2906 1169 2906 1791 
z
M 3481 434 
Q 3481 -459 3084 -895 
Q 2688 -1331 1869 -1331 
Q 1566 -1331 1297 -1286 
Q 1028 -1241 775 -1147 
L 775 -588 
Q 1028 -725 1275 -790 
Q 1522 -856 1778 -856 
Q 2344 -856 2625 -561 
Q 2906 -266 2906 331 
L 2906 616 
Q 2728 306 2450 153 
Q 2172 0 1784 0 
Q 1141 0 747 490 
Q 353 981 353 1791 
Q 353 2603 747 3093 
Q 1141 3584 1784 3584 
Q 2172 3584 2450 3431 
Q 2728 3278 2906 2969 
L 2906 3500 
L 3481 3500 
L 3481 434 
z
" transform="scale(0.015625)"/>
       <path id="DejaVuSans-39" d="M 703 97 
L 703 672 
Q 941 559 1184 500 
Q 1428 441 1663 441 
Q 2288 441 2617 861 
Q 2947 1281 2994 2138 
Q 2813 1869 2534 1725 
Q 2256 1581 1919 1581 
Q 1219 1581 811 2004 
Q 403 2428 403 3163 
Q 403 3881 828 4315 
Q 1253 4750 1959 4750 
Q 2769 4750 3195 4129 
Q 3622 3509 3622 2328 
Q 3622 1225 3098 567 
Q 2575 -91 1691 -91 
Q 1453 -91 1209 -44 
Q 966 3 703 97 
z
M 1959 2075 
Q 2384 2075 2632 2365 
Q 2881 2656 2881 3163 
Q 2881 3666 2632 3958 
Q 2384 4250 1959 4250 
Q 1534 4250 1286 3958 
Q 1038 3666 1038 3163 
Q 1038 2656 1286 2365 
Q 1534 2075 1959 2075 
z
" transform="scale(0.015625)"/>
      </defs>
      <use xlink:href="#DejaVuSans-4b"/>
      <use xlink:href="#DejaVuSans-72" transform="translate(65.576172 0)"/>
      <use xlink:href="#DejaVuSans-65" transform="translate(104.439453 0)"/>
      <use xlink:href="#DejaVuSans-69" transform="translate(165.962891 0)"/>
      <use xlink:href="#DejaVuSans-64" transform="translate(193.746094 0)"/>
      <use xlink:href="#DejaVuSans-62" transform="translate(257.222656 0)"/>
      <use xlink:href="#DejaVuSans-65" transform="translate(320.699219 0)"/>
      <use xlink:href="#DejaVuSans-72" transform="translate(382.222656 0)"/>
      <use xlink:href="#DejaVuSans-67" transform="translate(421.585938 0)"/>
      <use xlink:href="#DejaVuSans-20" transform="translate(485.0625 0)"/>
      <use xlink:href="#DejaVuSans-32" transform="translate(516.849609 0)"/>
      <use xlink:href="#DejaVuSans-30" transform="translate(580.472656 0)"/>
      <use xlink:href="#DejaVuSans-31" transform="translate(644.095703 0)"/>
      <use xlink:href="#DejaVuSans-39" transform="translate(707.71875 0)"/>
     </g>
    </g>
   </g>
   <g id="line2d_28">
    <path d="M 119.974891 492.47381 
L 129.454136 492.461277 
L 138.930014 492.423176 
L 148.404013 492.329036 
L 157.874879 492.126067 
L 167.34688 491.749256 
L 176.819071 491.176493 
L 186.28792 490.135063 
L 195.756129 488.531393 
L 205.221521 487.118957 
L 214.687701 485.791841 
L 224.155819 482.555329 
L 233.620093 477.083501 
L 243.085295 472.439984 
L 252.552792 468.037019 
L 262.017518 464.900654 
L 271.480791 461.720464 
L 280.950454 453.192554 
L 290.417933 438.591452 
L 299.878157 422.765496 
L 309.341875 416.717617 
L 318.812302 403.874101 
L 328.2761 386.707037 
L 337.742119 370.421404 
L 347.208219 359.636953 
L 356.667421 352.44627 
L 366.136679 347.568351 
L 375.605449 344.405195 
L 385.071862 341.145313 
L 394.53528 337.278245 
L 403.99665 333.211323 
L 413.458234 329.378623 
L 422.923953 324.10543 
L 432.389719 316.655743 
L 441.852294 304.76926 
L 451.3187 292.957379 
L 460.787631 280.506359 
L 470.248052 258.768784 
L 479.709971 236.688841 
L 489.173944 222.817073 
L 498.641648 214.932511 
L 508.115114 207.285434 
L 517.574495 197.911413 
L 527.033837 188.09231 
L 536.496927 176.700366 
L 545.956193 168.584412 
L 555.416381 159.649469 
L 564.882964 152.1912 
L 574.349373 139.320404 
L 583.822091 123.275842 
L 593.294939 122.949673 
L 602.748146 115.270751 
L 612.202447 110.79195 
L 621.6661 104.161375 
" clip-path="url(#p9aefd2d4fd)" style="fill: none; stroke-dasharray: 5.55,2.4; stroke-dashoffset: 0; stroke: #2ca02c; stroke-width: 1.5"/>
   </g>
   <g id="line2d_29">
    <path d="M 119.974891 492.476846 
L 129.454136 492.469062 
L 138.930014 492.438196 
L 148.404013 492.357983 
L 157.874879 492.189397 
L 167.34688 491.901682 
L 176.819071 491.479578 
L 186.28792 490.801683 
L 195.756129 490.048274 
L 205.221521 489.728821 
L 214.687701 489.267105 
L 224.155819 487.434624 
L 233.620093 484.190077 
L 243.085295 481.649965 
L 252.552792 480.153208 
L 262.017518 480.234706 
L 271.480791 480.415567 
L 280.950454 478.122525 
L 290.417933 473.17022 
L 299.878157 467.005937 
L 309.341875 463.660455 
L 318.812302 451.763239 
L 328.2761 441.133016 
L 337.742119 432.124597 
L 347.208219 427.994867 
L 356.667421 424.530002 
L 366.136679 422.111695 
L 375.605449 420.769915 
L 385.071862 418.134216 
L 394.53528 415.911583 
L 403.99665 412.545141 
L 413.458234 408.460863 
L 422.923953 403.552383 
L 432.389719 397.263736 
L 441.852294 388.024822 
L 451.3187 378.950253 
L 460.787631 367.718408 
L 470.248052 352.528508 
L 479.709971 336.021198 
L 489.173944 323.483614 
L 498.641648 311.462548 
L 508.115114 298.130989 
L 517.574495 278.316094 
L 527.033837 252.871104 
L 536.496927 240.587448 
L 545.956193 222.667028 
L 555.416381 211.817427 
L 564.882964 209.137311 
L 574.349373 194.277154 
L 583.822091 179.59868 
L 593.294939 173.833016 
L 602.748146 173.342909 
L 612.202447 169.081693 
L 621.6661 157.099196 
" clip-path="url(#p9aefd2d4fd)" style="fill: none; stroke-dasharray: 5.55,2.4; stroke-dashoffset: 0; stroke: #d62728; stroke-width: 1.5"/>
   </g>
   <g id="line2d_30">
    <path d="M 119.974891 492.477399 
L 129.454136 492.472813 
L 138.930014 492.459156 
L 148.404013 492.421705 
L 157.874879 492.332533 
L 167.34688 492.161641 
L 176.819071 491.884777 
L 186.28792 491.403247 
L 195.756129 490.734818 
L 205.221521 490.226284 
L 214.687701 489.747777 
L 224.155819 488.481075 
L 233.620093 486.347396 
L 243.085295 484.516723 
L 252.552792 482.795517 
L 262.017518 481.565144 
L 271.480791 480.465531 
L 280.950454 477.462128 
L 290.417933 472.500299 
L 299.878157 467.188327 
L 309.341875 465.021026 
L 318.812302 458.24097 
L 328.2761 448.786247 
L 337.742119 441.18615 
L 347.208219 437.763507 
L 356.667421 436.896163 
L 366.136679 436.610279 
L 375.605449 434.058412 
L 385.071862 429.410838 
L 394.53528 431.618503 
L 403.99665 430.804501 
L 413.458234 429.200919 
L 422.923953 426.321051 
L 432.389719 421.38779 
L 441.852294 414.051305 
L 451.3187 405.962227 
L 460.787631 393.137001 
L 470.248052 364.548892 
L 479.709971 345.520978 
L 489.173944 328.581207 
L 498.641648 300.651999 
L 508.115114 279.839213 
L 517.574495 261.581323 
L 527.033837 240.154219 
L 536.496927 216.59171 
L 545.956193 198.773854 
L 555.416381 181.286633 
L 564.882964 167.120064 
L 574.349373 150.864774 
L 583.822091 138.973989 
L 593.294939 139.681823 
L 602.748146 129.552705 
L 612.202447 120.388852 
L 621.6661 109.636472 
" clip-path="url(#p9aefd2d4fd)" style="fill: none; stroke-dasharray: 5.55,2.4; stroke-dashoffset: 0; stroke: #9467bd; stroke-width: 1.5"/>
   </g>
   <g id="line2d_31">
    <path d="M 119.974891 492.474803 
L 129.454136 492.464331 
L 138.930014 492.431817 
L 148.404013 492.349216 
L 157.874879 492.175315 
L 167.34688 491.857812 
L 176.819071 491.356737 
L 186.28792 490.42181 
L 195.756129 488.941963 
L 205.221521 487.596811 
L 214.687701 486.324622 
L 224.155819 483.273503 
L 233.620093 478.131083 
L 243.085295 473.741153 
L 252.552792 469.544827 
L 262.017518 466.493469 
L 271.480791 463.438485 
L 280.950454 455.520062 
L 290.417933 441.853296 
L 299.878157 427.02006 
L 309.341875 421.11564 
L 318.812302 408.742323 
L 328.2761 395.898354 
L 337.742119 384.586069 
L 347.208219 375.859099 
L 356.667421 369.21887 
L 366.136679 364.324834 
L 375.605449 360.623837 
L 385.071862 356.72941 
L 394.53528 352.464608 
L 403.99665 348.136498 
L 413.458234 344.09254 
L 422.923953 338.795098 
L 432.389719 331.062706 
L 441.852294 319.307888 
L 451.3187 307.928452 
L 460.787631 295.927006 
L 470.248052 275.131005 
L 479.709971 253.774496 
L 489.173944 239.861707 
L 498.641648 230.314391 
L 508.115114 220.761447 
L 517.574495 209.991572 
L 527.033837 198.224819 
L 536.496927 183.953303 
L 545.956193 172.66053 
L 555.416381 161.085312 
L 564.882964 152.231449 
L 574.349373 138.707391 
L 583.822091 123.068566 
L 593.294939 123.336407 
L 602.748146 116.529498 
L 612.202447 111.573559 
L 621.6661 104.419461 
" clip-path="url(#p9aefd2d4fd)" style="fill: none; stroke-dasharray: 5.55,2.4; stroke-dashoffset: 0; stroke: #8c564b; stroke-width: 1.5"/>
   </g>
   <g id="line2d_32">
    <path d="M 119.974891 492.477405 
L 129.454136 492.472245 
L 138.930014 492.456974 
L 148.404013 492.419109 
L 157.874879 492.33738 
L 167.34688 492.181953 
L 176.819071 491.947564 
L 186.28792 491.53692 
L 195.756129 490.935768 
L 205.221521 490.463686 
L 214.687701 490.074424 
L 224.155819 489.094668 
L 233.620093 487.466062 
L 243.085295 486.251524 
L 252.552792 485.32261 
L 262.017518 484.796997 
L 271.480791 483.942472 
L 280.950454 481.075683 
L 290.417933 476.067307 
L 299.878157 470.067234 
L 309.341875 466.110397 
L 318.812302 450.640641 
L 328.2761 438.540509 
L 337.742119 429.325864 
L 347.208219 425.535146 
L 356.667421 425.305525 
L 366.136679 426.968413 
L 375.605449 426.871548 
L 385.071862 425.321636 
L 394.53528 426.27364 
L 403.99665 423.768427 
L 413.458234 419.427982 
L 422.923953 416.524529 
L 432.389719 411.58269 
L 441.852294 403.574177 
L 451.3187 392.645455 
L 460.787631 379.962972 
L 470.248052 359.676232 
L 479.709971 333.542291 
L 489.173944 323.01767 
L 498.641648 306.14445 
L 508.115114 293.427695 
L 517.574495 277.39102 
L 527.033837 263.43784 
L 536.496927 246.988234 
L 545.956193 226.784777 
L 555.416381 205.616814 
L 564.882964 190.222614 
L 574.349373 171.968033 
L 583.822091 152.075699 
L 593.294939 148.840003 
L 602.748146 141.595205 
L 612.202447 136.114723 
L 621.6661 127.964473 
" clip-path="url(#p9aefd2d4fd)" style="fill: none; stroke-dasharray: 5.55,2.4; stroke-dashoffset: 0; stroke: #e377c2; stroke-width: 1.5"/>
   </g>
   <g id="line2d_33">
    <path d="M 119.974891 492.478109 
L 129.454136 492.475043 
L 138.930014 492.465388 
L 148.404013 492.437775 
L 157.874879 492.37731 
L 167.34688 492.265802 
L 176.819071 492.121444 
L 186.28792 491.690319 
L 195.756129 491.092578 
L 205.221521 491.122846 
L 214.687701 490.939327 
L 224.155819 489.894153 
L 233.620093 486.50093 
L 243.085295 480.905509 
L 252.552792 481.769087 
L 262.017518 480.458399 
L 271.480791 475.420377 
L 280.950454 465.644565 
L 290.417933 454.696353 
L 299.878157 440.706958 
L 309.341875 430.729513 
L 318.812302 398.993039 
L 328.2761 386.677108 
L 337.742119 375.647891 
L 347.208219 370.887807 
L 356.667421 368.663358 
L 366.136679 369.0563 
L 375.605449 368.949265 
L 385.071862 369.094413 
L 394.53528 371.358053 
L 403.99665 370.749349 
L 413.458234 368.675094 
L 422.923953 365.445588 
L 432.389719 360.220348 
L 441.852294 350.729579 
L 451.3187 340.556803 
L 460.787631 329.209766 
L 470.248052 310.41476 
L 479.709971 290.115126 
L 489.173944 274.813501 
L 498.641648 262.181797 
L 508.115114 247.960039 
L 517.574495 233.689735 
L 527.033837 219.798427 
L 536.496927 205.062401 
L 545.956193 194.512985 
L 555.416381 179.687052 
L 564.882964 165.528262 
L 574.349373 149.97108 
L 583.822091 131.186475 
L 593.294939 127.223889 
L 602.748146 115.664824 
L 612.202447 108.439628 
L 621.6661 97.848764 
" clip-path="url(#p9aefd2d4fd)" style="fill: none; stroke-dasharray: 5.55,2.4; stroke-dashoffset: 0; stroke: #7f7f7f; stroke-width: 1.5"/>
   </g>
   <g id="line2d_34">
    <path d="M 119.974891 492.475661 
L 129.454136 492.466924 
L 138.930014 492.439673 
L 148.404013 492.369975 
L 157.874879 492.223585 
L 167.34688 491.957313 
L 176.819071 491.519505 
L 186.28792 490.722297 
L 195.756129 488.986627 
L 205.221521 487.220768 
L 214.687701 486.120886 
L 224.155819 483.550301 
L 233.620093 478.568171 
L 243.085295 471.807552 
L 252.552792 466.922574 
L 262.017518 465.717451 
L 271.480791 464.2825 
L 280.950454 454.487291 
L 290.417933 439.07427 
L 299.878157 423.459883 
L 309.341875 414.79715 
L 318.812302 400.258624 
L 328.2761 384.962378 
L 337.742119 372.22163 
L 347.208219 363.86013 
L 356.667421 356.720623 
L 366.136679 350.830411 
L 375.605449 346.596062 
L 385.071862 342.510109 
L 394.53528 339.162949 
L 403.99665 336.594768 
L 413.458234 333.125093 
L 422.923953 326.612522 
L 432.389719 316.840816 
L 441.852294 302.899379 
L 451.3187 289.677938 
L 460.787631 276.189754 
L 470.248052 253.480388 
L 479.709971 230.355942 
L 489.173944 216.071542 
L 498.641648 207.534238 
L 508.115114 199.868924 
L 517.574495 190.55692 
L 527.033837 180.043665 
L 536.496927 166.482441 
L 545.956193 155.824773 
L 555.416381 144.631313 
L 564.882964 135.94249 
L 574.349373 122.153946 
L 583.822091 105.829994 
L 593.294939 106.251096 
L 602.748146 99.537444 
L 612.202447 95.438795 
L 621.6661 89.28 
" clip-path="url(#p9aefd2d4fd)" style="fill: none; stroke-dasharray: 5.55,2.4; stroke-dashoffset: 0; stroke: #bcbd22; stroke-width: 1.5"/>
   </g>
   <g id="line2d_35">
    <path d="M 119.974891 492.474358 
L 129.454136 492.462999 
L 138.930014 492.428037 
L 148.404013 492.341312 
L 157.874879 492.159061 
L 167.34688 491.824191 
L 176.819071 491.296407 
L 186.28792 490.303618 
L 195.756129 488.731715 
L 205.221521 487.306286 
L 214.687701 485.972354 
L 224.155819 482.777952 
L 233.620093 477.409395 
L 243.085295 472.867524 
L 252.552792 468.589379 
L 262.017518 465.48494 
L 271.480791 462.427628 
L 280.950454 454.502796 
L 290.417933 440.803895 
L 299.878157 426.009014 
L 309.341875 420.274618 
L 318.812302 406.622378 
L 328.2761 392.799476 
L 337.742119 381.108062 
L 347.208219 372.563768 
L 356.667421 366.453807 
L 366.136679 362.31355 
L 375.605449 359.332959 
L 385.071862 356.090847 
L 394.53528 352.669241 
L 403.99665 349.038325 
L 413.458234 345.622966 
L 422.923953 340.799689 
L 432.389719 333.391755 
L 441.852294 322.104789 
L 451.3187 311.11136 
L 460.787631 299.408227 
L 470.248052 278.954672 
L 479.709971 256.994261 
L 489.173944 241.267627 
L 498.641648 231.084284 
L 508.115114 222.27427 
L 517.574495 212.660365 
L 527.033837 202.007541 
L 536.496927 189.852454 
L 545.956193 181.179159 
L 555.416381 171.971194 
L 564.882964 165.164535 
L 574.349373 153.865169 
L 583.822091 139.780137 
L 593.294939 140.692683 
L 602.748146 133.947617 
L 612.202447 128.201593 
L 621.6661 119.776931 
" clip-path="url(#p9aefd2d4fd)" style="fill: none; stroke-dasharray: 5.55,2.4; stroke-dashoffset: 0; stroke: #17becf; stroke-width: 1.5"/>
   </g>
  </g>
 </g>
 <defs>
  <clipPath id="p9aefd2d4fd">
   <rect x="90" y="69.12" width="558" height="443.52"/>
  </clipPath>
 </defs>
</svg>
