<?xml version="1.0" encoding="utf-8" standalone="no"?>
<!DOCTYPE svg PUBLIC "-//W3C//DTD SVG 1.1//EN"
  "http://www.w3.org/Graphics/SVG/1.1/DTD/svg11.dtd">
<svg xmlns:xlink="http://www.w3.org/1999/xlink" width="720pt" height="720pt" viewBox="0 0 720 720" xmlns="http://www.w3.org/2000/svg" version="1.1">
 <metadata>
  <rdf:RDF xmlns:dc="http://purl.org/dc/elements/1.1/" xmlns:cc="http://creativecommons.org/ns#" xmlns:rdf="http://www.w3.org/1999/02/22-rdf-syntax-ns#">
   <cc:Work>
    <dc:type rdf:resource="http://purl.org/dc/dcmitype/StillImage"/>
    <dc:date>2025-12-10T16:14:49.308598</dc:date>
    <dc:format>image/svg+xml</dc:format>
    <dc:creator>
     <cc:Agent>
      <dc:title>Matplotlib v3.10.7, https://matplotlib.org/</dc:title>
     </cc:Agent>
    </dc:creator>
   </cc:Work>
  </rdf:RDF>
 </metadata>
 <defs>
  <style type="text/css">*{stroke-linejoin: round; stroke-linecap: butt}</style>
 </defs>
 <g id="figure_1">
  <g id="patch_1">
   <path d="M 0 720 
L 720 720 
L 720 0 
L 0 0 
z
" style="fill: #ffffff"/>
  </g>
  <g id="axes_1">
   <g id="patch_2">
    <path d="M 90 640.8 
L 648 640.8 
L 648 86.4 
L 90 86.4 
z
" style="fill: #ffffff"/>
   </g>
   <g id="FillBetweenPolyCollection_1">
    <path d="M 124.82768 587.196217 
L 124.82768 608.076641 
L 148.487788 590.200888 
L 204.325645 514.322645 
L 281.930801 350.202849 
L 374.678426 246.929496 
L 622.636364 174.390083 
L 622.636364 141.090357 
L 622.636364 141.090357 
L 374.678426 208.784347 
L 281.930801 319.125064 
L 204.325645 486.107219 
L 148.487788 544.545537 
L 124.82768 587.196217 
z
" clip-path="url(#p55fecdd374)" style="fill: #1f77b4; fill-opacity: 0.2"/>
   </g>
   <g id="matplotlib.axis_1">
    <g id="xtick_1">
     <g id="line2d_1">
      <defs>
       <path id="ma939500376" d="M 0 0 
L 0 3.5 
" style="stroke: #000000; stroke-width: 0.8"/>
      </defs>
      <g>
       <use xlink:href="#ma939500376" x="153.21981" y="640.8" style="stroke: #000000; stroke-width: 0.8"/>
      </g>
     </g>
     <g id="text_1">
      <!-- 1 -->
      <g transform="translate(148.76606 658.437813) scale(0.14 -0.14)">
       <defs>
        <path id="DejaVuSans-31" d="M 794 531 
L 1825 531 
L 1825 4091 
L 703 3866 
L 703 4441 
L 1819 4666 
L 2450 4666 
L 2450 531 
L 3481 531 
L 3481 0 
L 794 0 
L 794 531 
z
" transform="scale(0.015625)"/>
       </defs>
       <use xlink:href="#DejaVuSans-31"/>
      </g>
     </g>
    </g>
    <g id="xtick_2">
     <g id="line2d_2">
      <g>
       <use xlink:href="#ma939500376" x="247.860244" y="640.8" style="stroke: #000000; stroke-width: 0.8"/>
      </g>
     </g>
     <g id="text_2">
      <!-- 2 -->
      <g transform="translate(243.406494 658.437813) scale(0.14 -0.14)">
       <defs>
        <path id="DejaVuSans-32" d="M 1228 531 
L 3431 531 
L 3431 0 
L 469 0 
L 469 531 
Q 828 903 1448 1529 
Q 2069 2156 2228 2338 
Q 2531 2678 2651 2914 
Q 2772 3150 2772 3378 
Q 2772 3750 2511 3984 
Q 2250 4219 1831 4219 
Q 1534 4219 1204 4116 
Q 875 4013 500 3803 
L 500 4441 
Q 881 4594 1212 4672 
Q 1544 4750 1819 4750 
Q 2544 4750 2975 4387 
Q 3406 4025 3406 3419 
Q 3406 3131 3298 2873 
Q 3191 2616 2906 2266 
Q 2828 2175 2409 1742 
Q 1991 1309 1228 531 
z
" transform="scale(0.015625)"/>
       </defs>
       <use xlink:href="#DejaVuSans-32"/>
      </g>
     </g>
    </g>
    <g id="xtick_3">
     <g id="line2d_3">
      <g>
       <use xlink:href="#ma939500376" x="342.500678" y="640.8" style="stroke: #000000; stroke-width: 0.8"/>
      </g>
     </g>
     <g id="text_3">
      <!-- 3 -->
      <g transform="translate(338.046928 658.437813) scale(0.14 -0.14)">
       <defs>
        <path id="DejaVuSans-33" d="M 2597 2516 
Q 3050 2419 3304 2112 
Q 3559 1806 3559 1356 
Q 3559 666 3084 287 
Q 2609 -91 1734 -91 
Q 1441 -91 1130 -33 
Q 819 25 488 141 
L 488 750 
Q 750 597 1062 519 
Q 1375 441 1716 441 
Q 2309 441 2620 675 
Q 2931 909 2931 1356 
Q 2931 1769 2642 2001 
Q 2353 2234 1838 2234 
L 1294 2234 
L 1294 2753 
L 1863 2753 
Q 2328 2753 2575 2939 
Q 2822 3125 2822 3475 
Q 2822 3834 2567 4026 
Q 2313 4219 1838 4219 
Q 1578 4219 1281 4162 
Q 984 4106 628 3988 
L 628 4550 
Q 988 4650 1302 4700 
Q 1616 4750 1894 4750 
Q 2613 4750 3031 4423 
Q 3450 4097 3450 3541 
Q 3450 3153 3228 2886 
Q 3006 2619 2597 2516 
z
" transform="scale(0.015625)"/>
       </defs>
       <use xlink:href="#DejaVuSans-33"/>
      </g>
     </g>
    </g>
    <g id="xtick_4">
     <g id="line2d_4">
      <g>
       <use xlink:href="#ma939500376" x="437.141113" y="640.8" style="stroke: #000000; stroke-width: 0.8"/>
      </g>
     </g>
     <g id="text_4">
      <!-- 4 -->
      <g transform="translate(432.687363 658.437813) scale(0.14 -0.14)">
       <defs>
        <path id="DejaVuSans-34" d="M 2419 4116 
L 825 1625 
L 2419 1625 
L 2419 4116 
z
M 2253 4666 
L 3047 4666 
L 3047 1625 
L 3713 1625 
L 3713 1100 
L 3047 1100 
L 3047 0 
L 2419 0 
L 2419 1100 
L 313 1100 
L 313 1709 
L 2253 4666 
z
" transform="scale(0.015625)"/>
       </defs>
       <use xlink:href="#DejaVuSans-34"/>
      </g>
     </g>
    </g>
    <g id="xtick_5">
     <g id="line2d_5">
      <g>
       <use xlink:href="#ma939500376" x="531.781547" y="640.8" style="stroke: #000000; stroke-width: 0.8"/>
      </g>
     </g>
     <g id="text_5">
      <!-- 5 -->
      <g transform="translate(527.327797 658.437813) scale(0.14 -0.14)">
       <defs>
        <path id="DejaVuSans-35" d="M 691 4666 
L 3169 4666 
L 3169 4134 
L 1269 4134 
L 1269 2991 
Q 1406 3038 1543 3061 
Q 1681 3084 1819 3084 
Q 2600 3084 3056 2656 
Q 3513 2228 3513 1497 
Q 3513 744 3044 326 
Q 2575 -91 1722 -91 
Q 1428 -91 1123 -41 
Q 819 9 494 109 
L 494 744 
Q 775 591 1075 516 
Q 1375 441 1709 441 
Q 2250 441 2565 725 
Q 2881 1009 2881 1497 
Q 2881 1984 2565 2268 
Q 2250 2553 1709 2553 
Q 1456 2553 1204 2497 
Q 953 2441 691 2322 
L 691 4666 
z
" transform="scale(0.015625)"/>
       </defs>
       <use xlink:href="#DejaVuSans-35"/>
      </g>
     </g>
    </g>
    <g id="xtick_6">
     <g id="line2d_6">
      <g>
       <use xlink:href="#ma939500376" x="626.421981" y="640.8" style="stroke: #000000; stroke-width: 0.8"/>
      </g>
     </g>
     <g id="text_6">
      <!-- 6 -->
      <g transform="translate(621.968231 658.437813) scale(0.14 -0.14)">
       <defs>
        <path id="DejaVuSans-36" d="M 2113 2584 
Q 1688 2584 1439 2293 
Q 1191 2003 1191 1497 
Q 1191 994 1439 701 
Q 1688 409 2113 409 
Q 2538 409 2786 701 
Q 3034 994 3034 1497 
Q 3034 2003 2786 2293 
Q 2538 2584 2113 2584 
z
M 3366 4563 
L 3366 3988 
Q 3128 4100 2886 4159 
Q 2644 4219 2406 4219 
Q 1781 4219 1451 3797 
Q 1122 3375 1075 2522 
Q 1259 2794 1537 2939 
Q 1816 3084 2150 3084 
Q 2853 3084 3261 2657 
Q 3669 2231 3669 1497 
Q 3669 778 3244 343 
Q 2819 -91 2113 -91 
Q 1303 -91 875 529 
Q 447 1150 447 2328 
Q 447 3434 972 4092 
Q 1497 4750 2381 4750 
Q 2619 4750 2861 4703 
Q 3103 4656 3366 4563 
z
" transform="scale(0.015625)"/>
       </defs>
       <use xlink:href="#DejaVuSans-36"/>
      </g>
     </g>
    </g>
    <g id="text_7">
     <!-- $\lambda$ ($\mu$m) -->
     <g transform="translate(345.83 675.989375) scale(0.14 -0.14)">
      <defs>
       <path id="DejaVuSans-Oblique-3bb" d="M 2350 4316 
L 3125 0 
L 2516 0 
L 2038 2588 
L 328 0 
L -281 0 
L 1903 3356 
L 1794 3975 
Q 1725 4369 1391 4369 
L 1091 4369 
L 1184 4863 
L 1550 4856 
Q 2253 4847 2350 4316 
z
" transform="scale(0.015625)"/>
       <path id="DejaVuSans-20" transform="scale(0.015625)"/>
       <path id="DejaVuSans-28" d="M 1984 4856 
Q 1566 4138 1362 3434 
Q 1159 2731 1159 2009 
Q 1159 1288 1364 580 
Q 1569 -128 1984 -844 
L 1484 -844 
Q 1016 -109 783 600 
Q 550 1309 550 2009 
Q 550 2706 781 3412 
Q 1013 4119 1484 4856 
L 1984 4856 
z
" transform="scale(0.015625)"/>
       <path id="DejaVuSans-Oblique-3bc" d="M -84 -1331 
L 856 3500 
L 1434 3500 
L 1009 1322 
Q 997 1256 987 1175 
Q 978 1094 978 1013 
Q 978 722 1161 565 
Q 1344 409 1684 409 
Q 2147 409 2431 671 
Q 2716 934 2816 1459 
L 3213 3500 
L 3788 3500 
L 3266 809 
Q 3253 750 3248 706 
Q 3244 663 3244 628 
Q 3244 531 3283 486 
Q 3322 441 3406 441 
Q 3438 441 3492 456 
Q 3547 472 3647 513 
L 3559 50 
Q 3422 -19 3297 -55 
Q 3172 -91 3053 -91 
Q 2847 -91 2730 40 
Q 2613 172 2613 403 
Q 2438 153 2195 31 
Q 1953 -91 1625 -91 
Q 1334 -91 1117 43 
Q 900 178 831 397 
L 494 -1331 
L -84 -1331 
z
" transform="scale(0.015625)"/>
       <path id="DejaVuSans-6d" d="M 3328 2828 
Q 3544 3216 3844 3400 
Q 4144 3584 4550 3584 
Q 5097 3584 5394 3201 
Q 5691 2819 5691 2113 
L 5691 0 
L 5113 0 
L 5113 2094 
Q 5113 2597 4934 2840 
Q 4756 3084 4391 3084 
Q 3944 3084 3684 2787 
Q 3425 2491 3425 1978 
L 3425 0 
L 2847 0 
L 2847 2094 
Q 2847 2600 2669 2842 
Q 2491 3084 2119 3084 
Q 1678 3084 1418 2786 
Q 1159 2488 1159 1978 
L 1159 0 
L 581 0 
L 581 3500 
L 1159 3500 
L 1159 2956 
Q 1356 3278 1631 3431 
Q 1906 3584 2284 3584 
Q 2666 3584 2933 3390 
Q 3200 3197 3328 2828 
z
" transform="scale(0.015625)"/>
       <path id="DejaVuSans-29" d="M 513 4856 
L 1013 4856 
Q 1481 4119 1714 3412 
Q 1947 2706 1947 2009 
Q 1947 1309 1714 600 
Q 1481 -109 1013 -844 
L 513 -844 
Q 928 -128 1133 580 
Q 1338 1288 1338 2009 
Q 1338 2731 1133 3434 
Q 928 4138 513 4856 
z
" transform="scale(0.015625)"/>
      </defs>
      <use xlink:href="#DejaVuSans-Oblique-3bb" transform="translate(0 0.015625)"/>
      <use xlink:href="#DejaVuSans-20" transform="translate(59.179688 0.015625)"/>
      <use xlink:href="#DejaVuSans-28" transform="translate(90.966797 0.015625)"/>
      <use xlink:href="#DejaVuSans-Oblique-3bc" transform="translate(129.980469 0.015625)"/>
      <use xlink:href="#DejaVuSans-6d" transform="translate(193.603516 0.015625)"/>
      <use xlink:href="#DejaVuSans-29" transform="translate(291.015625 0.015625)"/>
     </g>
    </g>
   </g>
   <g id="matplotlib.axis_2">
    <g id="ytick_1">
     <g id="line2d_7">
      <defs>
       <path id="mfb6eb44237" d="M 0 0 
L -3.5 0 
" style="stroke: #000000; stroke-width: 0.8"/>
      </defs>
      <g>
       <use xlink:href="#mfb6eb44237" x="90" y="615.6" style="stroke: #000000; stroke-width: 0.8"/>
      </g>
     </g>
     <g id="text_8">
      <!-- 0 -->
      <g transform="translate(74.0925 620.918906) scale(0.14 -0.14)">
       <defs>
        <path id="DejaVuSans-30" d="M 2034 4250 
Q 1547 4250 1301 3770 
Q 1056 3291 1056 2328 
Q 1056 1369 1301 889 
Q 1547 409 2034 409 
Q 2525 409 2770 889 
Q 3016 1369 3016 2328 
Q 3016 3291 2770 3770 
Q 2525 4250 2034 4250 
z
M 2034 4750 
Q 2819 4750 3233 4129 
Q 3647 3509 3647 2328 
Q 3647 1150 3233 529 
Q 2819 -91 2034 -91 
Q 1250 -91 836 529 
Q 422 1150 422 2328 
Q 422 3509 836 4129 
Q 1250 4750 2034 4750 
z
" transform="scale(0.015625)"/>
       </defs>
       <use xlink:href="#DejaVuSans-30"/>
      </g>
     </g>
    </g>
    <g id="ytick_2">
     <g id="line2d_8">
      <g>
       <use xlink:href="#mfb6eb44237" x="90" y="547.694589" style="stroke: #000000; stroke-width: 0.8"/>
      </g>
     </g>
     <g id="text_9">
      <!-- 20 -->
      <g transform="translate(65.185 553.013495) scale(0.14 -0.14)">
       <use xlink:href="#DejaVuSans-32"/>
       <use xlink:href="#DejaVuSans-30" transform="translate(63.623047 0)"/>
      </g>
     </g>
    </g>
    <g id="ytick_3">
     <g id="line2d_9">
      <g>
       <use xlink:href="#mfb6eb44237" x="90" y="479.789178" style="stroke: #000000; stroke-width: 0.8"/>
      </g>
     </g>
     <g id="text_10">
      <!-- 40 -->
      <g transform="translate(65.185 485.108084) scale(0.14 -0.14)">
       <use xlink:href="#DejaVuSans-34"/>
       <use xlink:href="#DejaVuSans-30" transform="translate(63.623047 0)"/>
      </g>
     </g>
    </g>
    <g id="ytick_4">
     <g id="line2d_10">
      <g>
       <use xlink:href="#mfb6eb44237" x="90" y="411.883767" style="stroke: #000000; stroke-width: 0.8"/>
      </g>
     </g>
     <g id="text_11">
      <!-- 60 -->
      <g transform="translate(65.185 417.202673) scale(0.14 -0.14)">
       <use xlink:href="#DejaVuSans-36"/>
       <use xlink:href="#DejaVuSans-30" transform="translate(63.623047 0)"/>
      </g>
     </g>
    </g>
    <g id="ytick_5">
     <g id="line2d_11">
      <g>
       <use xlink:href="#mfb6eb44237" x="90" y="343.978356" style="stroke: #000000; stroke-width: 0.8"/>
      </g>
     </g>
     <g id="text_12">
      <!-- 80 -->
      <g transform="translate(65.185 349.297263) scale(0.14 -0.14)">
       <defs>
        <path id="DejaVuSans-38" d="M 2034 2216 
Q 1584 2216 1326 1975 
Q 1069 1734 1069 1313 
Q 1069 891 1326 650 
Q 1584 409 2034 409 
Q 2484 409 2743 651 
Q 3003 894 3003 1313 
Q 3003 1734 2745 1975 
Q 2488 2216 2034 2216 
z
M 1403 2484 
Q 997 2584 770 2862 
Q 544 3141 544 3541 
Q 544 4100 942 4425 
Q 1341 4750 2034 4750 
Q 2731 4750 3128 4425 
Q 3525 4100 3525 3541 
Q 3525 3141 3298 2862 
Q 3072 2584 2669 2484 
Q 3125 2378 3379 2068 
Q 3634 1759 3634 1313 
Q 3634 634 3220 271 
Q 2806 -91 2034 -91 
Q 1263 -91 848 271 
Q 434 634 434 1313 
Q 434 1759 690 2068 
Q 947 2378 1403 2484 
z
M 1172 3481 
Q 1172 3119 1398 2916 
Q 1625 2713 2034 2713 
Q 2441 2713 2670 2916 
Q 2900 3119 2900 3481 
Q 2900 3844 2670 4047 
Q 2441 4250 2034 4250 
Q 1625 4250 1398 4047 
Q 1172 3844 1172 3481 
z
" transform="scale(0.015625)"/>
       </defs>
       <use xlink:href="#DejaVuSans-38"/>
       <use xlink:href="#DejaVuSans-30" transform="translate(63.623047 0)"/>
      </g>
     </g>
    </g>
    <g id="ytick_6">
     <g id="line2d_12">
      <g>
       <use xlink:href="#mfb6eb44237" x="90" y="276.072945" style="stroke: #000000; stroke-width: 0.8"/>
      </g>
     </g>
     <g id="text_13">
      <!-- 100 -->
      <g transform="translate(56.2775 281.391852) scale(0.14 -0.14)">
       <use xlink:href="#DejaVuSans-31"/>
       <use xlink:href="#DejaVuSans-30" transform="translate(63.623047 0)"/>
       <use xlink:href="#DejaVuSans-30" transform="translate(127.246094 0)"/>
      </g>
     </g>
    </g>
    <g id="ytick_7">
     <g id="line2d_13">
      <g>
       <use xlink:href="#mfb6eb44237" x="90" y="208.167534" style="stroke: #000000; stroke-width: 0.8"/>
      </g>
     </g>
     <g id="text_14">
      <!-- 120 -->
      <g transform="translate(56.2775 213.486441) scale(0.14 -0.14)">
       <use xlink:href="#DejaVuSans-31"/>
       <use xlink:href="#DejaVuSans-32" transform="translate(63.623047 0)"/>
       <use xlink:href="#DejaVuSans-30" transform="translate(127.246094 0)"/>
      </g>
     </g>
    </g>
    <g id="ytick_8">
     <g id="line2d_14">
      <g>
       <use xlink:href="#mfb6eb44237" x="90" y="140.262123" style="stroke: #000000; stroke-width: 0.8"/>
      </g>
     </g>
     <g id="text_15">
      <!-- 140 -->
      <g transform="translate(56.2775 145.58103) scale(0.14 -0.14)">
       <use xlink:href="#DejaVuSans-31"/>
       <use xlink:href="#DejaVuSans-34" transform="translate(63.623047 0)"/>
       <use xlink:href="#DejaVuSans-30" transform="translate(127.246094 0)"/>
      </g>
     </g>
    </g>
    <g id="text_16">
     <!-- Eclipse depth (ppm) -->
     <g transform="translate(49.365937 434.152344) rotate(-90) scale(0.14 -0.14)">
      <defs>
       <path id="DejaVuSans-45" d="M 628 4666 
L 3578 4666 
L 3578 4134 
L 1259 4134 
L 1259 2753 
L 3481 2753 
L 3481 2222 
L 1259 2222 
L 1259 531 
L 3634 531 
L 3634 0 
L 628 0 
L 628 4666 
z
" transform="scale(0.015625)"/>
       <path id="DejaVuSans-63" d="M 3122 3366 
L 3122 2828 
Q 2878 2963 2633 3030 
Q 2388 3097 2138 3097 
Q 1578 3097 1268 2742 
Q 959 2388 959 1747 
Q 959 1106 1268 751 
Q 1578 397 2138 397 
Q 2388 397 2633 464 
Q 2878 531 3122 666 
L 3122 134 
Q 2881 22 2623 -34 
Q 2366 -91 2075 -91 
Q 1284 -91 818 406 
Q 353 903 353 1747 
Q 353 2603 823 3093 
Q 1294 3584 2113 3584 
Q 2378 3584 2631 3529 
Q 2884 3475 3122 3366 
z
" transform="scale(0.015625)"/>
       <path id="DejaVuSans-6c" d="M 603 4863 
L 1178 4863 
L 1178 0 
L 603 0 
L 603 4863 
z
" transform="scale(0.015625)"/>
       <path id="DejaVuSans-69" d="M 603 3500 
L 1178 3500 
L 1178 0 
L 603 0 
L 603 3500 
z
M 603 4863 
L 1178 4863 
L 1178 4134 
L 603 4134 
L 603 4863 
z
" transform="scale(0.015625)"/>
       <path id="DejaVuSans-70" d="M 1159 525 
L 1159 -1331 
L 581 -1331 
L 581 3500 
L 1159 3500 
L 1159 2969 
Q 1341 3281 1617 3432 
Q 1894 3584 2278 3584 
Q 2916 3584 3314 3078 
Q 3713 2572 3713 1747 
Q 3713 922 3314 415 
Q 2916 -91 2278 -91 
Q 1894 -91 1617 61 
Q 1341 213 1159 525 
z
M 3116 1747 
Q 3116 2381 2855 2742 
Q 2594 3103 2138 3103 
Q 1681 3103 1420 2742 
Q 1159 2381 1159 1747 
Q 1159 1113 1420 752 
Q 1681 391 2138 391 
Q 2594 391 2855 752 
Q 3116 1113 3116 1747 
z
" transform="scale(0.015625)"/>
       <path id="DejaVuSans-73" d="M 2834 3397 
L 2834 2853 
Q 2591 2978 2328 3040 
Q 2066 3103 1784 3103 
Q 1356 3103 1142 2972 
Q 928 2841 928 2578 
Q 928 2378 1081 2264 
Q 1234 2150 1697 2047 
L 1894 2003 
Q 2506 1872 2764 1633 
Q 3022 1394 3022 966 
Q 3022 478 2636 193 
Q 2250 -91 1575 -91 
Q 1294 -91 989 -36 
Q 684 19 347 128 
L 347 722 
Q 666 556 975 473 
Q 1284 391 1588 391 
Q 1994 391 2212 530 
Q 2431 669 2431 922 
Q 2431 1156 2273 1281 
Q 2116 1406 1581 1522 
L 1381 1569 
Q 847 1681 609 1914 
Q 372 2147 372 2553 
Q 372 3047 722 3315 
Q 1072 3584 1716 3584 
Q 2034 3584 2315 3537 
Q 2597 3491 2834 3397 
z
" transform="scale(0.015625)"/>
       <path id="DejaVuSans-65" d="M 3597 1894 
L 3597 1613 
L 953 1613 
Q 991 1019 1311 708 
Q 1631 397 2203 397 
Q 2534 397 2845 478 
Q 3156 559 3463 722 
L 3463 178 
Q 3153 47 2828 -22 
Q 2503 -91 2169 -91 
Q 1331 -91 842 396 
Q 353 884 353 1716 
Q 353 2575 817 3079 
Q 1281 3584 2069 3584 
Q 2775 3584 3186 3129 
Q 3597 2675 3597 1894 
z
M 3022 2063 
Q 3016 2534 2758 2815 
Q 2500 3097 2075 3097 
Q 1594 3097 1305 2825 
Q 1016 2553 972 2059 
L 3022 2063 
z
" transform="scale(0.015625)"/>
       <path id="DejaVuSans-64" d="M 2906 2969 
L 2906 4863 
L 3481 4863 
L 3481 0 
L 2906 0 
L 2906 525 
Q 2725 213 2448 61 
Q 2172 -91 1784 -91 
Q 1150 -91 751 415 
Q 353 922 353 1747 
Q 353 2572 751 3078 
Q 1150 3584 1784 3584 
Q 2172 3584 2448 3432 
Q 2725 3281 2906 2969 
z
M 947 1747 
Q 947 1113 1208 752 
Q 1469 391 1925 391 
Q 2381 391 2643 752 
Q 2906 1113 2906 1747 
Q 2906 2381 2643 2742 
Q 2381 3103 1925 3103 
Q 1469 3103 1208 2742 
Q 947 2381 947 1747 
z
" transform="scale(0.015625)"/>
       <path id="DejaVuSans-74" d="M 1172 4494 
L 1172 3500 
L 2356 3500 
L 2356 3053 
L 1172 3053 
L 1172 1153 
Q 1172 725 1289 603 
Q 1406 481 1766 481 
L 2356 481 
L 2356 0 
L 1766 0 
Q 1100 0 847 248 
Q 594 497 594 1153 
L 594 3053 
L 172 3053 
L 172 3500 
L 594 3500 
L 594 4494 
L 1172 4494 
z
" transform="scale(0.015625)"/>
       <path id="DejaVuSans-68" d="M 3513 2113 
L 3513 0 
L 2938 0 
L 2938 2094 
Q 2938 2591 2744 2837 
Q 2550 3084 2163 3084 
Q 1697 3084 1428 2787 
Q 1159 2491 1159 1978 
L 1159 0 
L 581 0 
L 581 4863 
L 1159 4863 
L 1159 2956 
Q 1366 3272 1645 3428 
Q 1925 3584 2291 3584 
Q 2894 3584 3203 3211 
Q 3513 2838 3513 2113 
z
" transform="scale(0.015625)"/>
      </defs>
      <use xlink:href="#DejaVuSans-45"/>
      <use xlink:href="#DejaVuSans-63" transform="translate(63.183594 0)"/>
      <use xlink:href="#DejaVuSans-6c" transform="translate(118.164062 0)"/>
      <use xlink:href="#DejaVuSans-69" transform="translate(145.947266 0)"/>
      <use xlink:href="#DejaVuSans-70" transform="translate(173.730469 0)"/>
      <use xlink:href="#DejaVuSans-73" transform="translate(237.207031 0)"/>
      <use xlink:href="#DejaVuSans-65" transform="translate(289.306641 0)"/>
      <use xlink:href="#DejaVuSans-20" transform="translate(350.830078 0)"/>
      <use xlink:href="#DejaVuSans-64" transform="translate(382.617188 0)"/>
      <use xlink:href="#DejaVuSans-65" transform="translate(446.09375 0)"/>
      <use xlink:href="#DejaVuSans-70" transform="translate(507.617188 0)"/>
      <use xlink:href="#DejaVuSans-74" transform="translate(571.09375 0)"/>
      <use xlink:href="#DejaVuSans-68" transform="translate(610.302734 0)"/>
      <use xlink:href="#DejaVuSans-20" transform="translate(673.681641 0)"/>
      <use xlink:href="#DejaVuSans-28" transform="translate(705.46875 0)"/>
      <use xlink:href="#DejaVuSans-70" transform="translate(744.482422 0)"/>
      <use xlink:href="#DejaVuSans-70" transform="translate(807.958984 0)"/>
      <use xlink:href="#DejaVuSans-6d" transform="translate(871.435547 0)"/>
      <use xlink:href="#DejaVuSans-29" transform="translate(968.847656 0)"/>
     </g>
    </g>
   </g>
   <g id="line2d_15">
    <path d="M 124.82768 600.345082 
L 148.487788 571.372699 
L 204.325645 493.33702 
L 281.930801 334.014116 
L 374.678426 227.154542 
L 622.636364 170.690026 
" clip-path="url(#p55fecdd374)" style="fill: none; stroke: #1f77b4; stroke-width: 1.5; stroke-linecap: square"/>
    <defs>
     <path id="m8cea1070a6" d="M 0 3 
C 0.795609 3 1.55874 2.683901 2.12132 2.12132 
C 2.683901 1.55874 3 0.795609 3 0 
C 3 -0.795609 2.683901 -1.55874 2.12132 -2.12132 
C 1.55874 -2.683901 0.795609 -3 0 -3 
C -0.795609 -3 -1.55874 -2.683901 -2.12132 -2.12132 
C -2.683901 -1.55874 -3 -0.795609 -3 0 
C -3 0.795609 -2.683901 1.55874 -2.12132 2.12132 
C -1.55874 2.683901 -0.795609 3 0 3 
z
" style="stroke: #1f77b4"/>
    </defs>
    <g clip-path="url(#p55fecdd374)">
     <use xlink:href="#m8cea1070a6" x="124.82768" y="600.345082" style="fill: #1f77b4; stroke: #1f77b4"/>
     <use xlink:href="#m8cea1070a6" x="148.487788" y="571.372699" style="fill: #1f77b4; stroke: #1f77b4"/>
     <use xlink:href="#m8cea1070a6" x="204.325645" y="493.33702" style="fill: #1f77b4; stroke: #1f77b4"/>
     <use xlink:href="#m8cea1070a6" x="281.930801" y="334.014116" style="fill: #1f77b4; stroke: #1f77b4"/>
     <use xlink:href="#m8cea1070a6" x="374.678426" y="227.154542" style="fill: #1f77b4; stroke: #1f77b4"/>
     <use xlink:href="#m8cea1070a6" x="622.636364" y="170.690026" style="fill: #1f77b4; stroke: #1f77b4"/>
    </g>
   </g>
   <g id="line2d_16">
    <path d="M 115.363636 605.712127 
L 124.82768 595.783426 
L 134.291723 582.396307 
L 143.755767 566.243929 
L 153.21981 548.135442 
L 162.683853 528.826776 
L 172.147897 508.946641 
L 181.61194 488.980175 
L 191.075984 469.280942 
L 200.540027 450.093507 
L 210.004071 431.577403 
L 219.468114 413.828454 
L 228.932157 396.896216 
L 238.396201 380.797529 
L 247.860244 365.526722 
L 257.324288 351.063131 
L 266.788331 337.376527 
L 276.252374 324.430996 
L 285.716418 312.187649 
L 295.180461 300.60651 
L 304.644505 289.647779 
L 314.108548 279.272675 
L 323.572592 269.443964 
L 333.036635 260.126271 
L 342.500678 251.28624 
L 351.964722 242.892597 
L 361.428765 234.916134 
L 370.892809 227.329654 
L 380.356852 220.107884 
L 389.820896 213.227375 
L 399.284939 206.666386 
L 408.748982 200.404775 
L 418.213026 194.423884 
L 427.677069 188.706428 
L 437.141113 183.236393 
L 446.605156 177.998935 
L 456.069199 172.980292 
L 465.533243 168.167691 
L 474.997286 163.549278 
L 484.46133 159.114035 
L 493.925373 154.851721 
L 503.389417 150.752804 
L 512.85346 146.808411 
L 522.317503 143.010267 
L 531.781547 139.350658 
L 541.24559 135.822377 
L 550.709634 132.418695 
L 560.173677 129.133315 
L 569.63772 125.960345 
L 579.101764 122.894266 
L 588.565807 119.929902 
L 598.029851 117.062397 
L 607.493894 114.287192 
L 616.957938 111.6 
" clip-path="url(#p55fecdd374)" style="fill: none; stroke: #ff7f0e; stroke-width: 1.5; stroke-linecap: square"/>
   </g>
   <g id="line2d_17">
    <path d="M 115.363636 615.6 
L 124.82768 615.6 
L 134.291723 615.6 
L 143.755767 615.6 
L 153.21981 615.6 
L 162.683853 615.6 
L 172.147897 615.6 
L 181.61194 615.6 
L 191.075984 615.6 
L 200.540027 615.6 
L 210.004071 615.6 
L 219.468114 615.6 
L 228.932157 615.6 
L 238.396201 615.6 
L 247.860244 615.6 
L 257.324288 615.6 
L 266.788331 615.6 
L 276.252374 615.6 
L 285.716418 615.6 
L 295.180461 615.6 
L 304.644505 615.6 
L 314.108548 615.6 
L 323.572592 615.6 
L 333.036635 615.6 
L 342.500678 615.6 
L 351.964722 615.6 
L 361.428765 615.6 
L 370.892809 615.6 
L 380.356852 615.6 
L 389.820896 615.6 
L 399.284939 615.6 
L 408.748982 615.6 
L 418.213026 615.6 
L 427.677069 615.6 
L 437.141113 615.6 
L 446.605156 615.6 
L 456.069199 615.6 
L 465.533243 615.6 
L 474.997286 615.6 
L 484.46133 615.6 
L 493.925373 615.6 
L 503.389417 615.6 
L 512.85346 615.6 
L 522.317503 615.6 
L 531.781547 615.6 
L 541.24559 615.6 
L 550.709634 615.6 
L 560.173677 615.6 
L 569.63772 615.6 
L 579.101764 615.6 
L 588.565807 615.6 
L 598.029851 615.6 
L 607.493894 615.6 
L 616.957938 615.6 
" clip-path="url(#p55fecdd374)" style="fill: none; stroke-dasharray: 5.55,2.4; stroke-dashoffset: 0; stroke: #000000; stroke-width: 1.5"/>
   </g>
   <g id="patch_3">
    <path d="M 90 640.8 
L 90 86.4 
" style="fill: none; stroke: #000000; stroke-width: 0.8; stroke-linejoin: miter; stroke-linecap: square"/>
   </g>
   <g id="patch_4">
    <path d="M 648 640.8 
L 648 86.4 
" style="fill: none; stroke: #000000; stroke-width: 0.8; stroke-linejoin: miter; stroke-linecap: square"/>
   </g>
   <g id="patch_5">
    <path d="M 90 640.8 
L 648 640.8 
" style="fill: none; stroke: #000000; stroke-width: 0.8; stroke-linejoin: miter; stroke-linecap: square"/>
   </g>
   <g id="patch_6">
    <path d="M 90 86.4 
L 648 86.4 
" style="fill: none; stroke: #000000; stroke-width: 0.8; stroke-linejoin: miter; stroke-linecap: square"/>
   </g>
   <g id="text_17">
    <!-- FGS1 -->
    <g transform="translate(111.722211 590.345082) scale(0.1 -0.1)">
     <defs>
      <path id="DejaVuSans-46" d="M 628 4666 
L 3309 4666 
L 3309 4134 
L 1259 4134 
L 1259 2759 
L 3109 2759 
L 3109 2228 
L 1259 2228 
L 1259 0 
L 628 0 
L 628 4666 
z
" transform="scale(0.015625)"/>
      <path id="DejaVuSans-47" d="M 3809 666 
L 3809 1919 
L 2778 1919 
L 2778 2438 
L 4434 2438 
L 4434 434 
Q 4069 175 3628 42 
Q 3188 -91 2688 -91 
Q 1594 -91 976 548 
Q 359 1188 359 2328 
Q 359 3472 976 4111 
Q 1594 4750 2688 4750 
Q 3144 4750 3555 4637 
Q 3966 4525 4313 4306 
L 4313 3634 
Q 3963 3931 3569 4081 
Q 3175 4231 2741 4231 
Q 1884 4231 1454 3753 
Q 1025 3275 1025 2328 
Q 1025 1384 1454 906 
Q 1884 428 2741 428 
Q 3075 428 3337 486 
Q 3600 544 3809 666 
z
" transform="scale(0.015625)"/>
      <path id="DejaVuSans-53" d="M 3425 4513 
L 3425 3897 
Q 3066 4069 2747 4153 
Q 2428 4238 2131 4238 
Q 1616 4238 1336 4038 
Q 1056 3838 1056 3469 
Q 1056 3159 1242 3001 
Q 1428 2844 1947 2747 
L 2328 2669 
Q 3034 2534 3370 2195 
Q 3706 1856 3706 1288 
Q 3706 609 3251 259 
Q 2797 -91 1919 -91 
Q 1588 -91 1214 -16 
Q 841 59 441 206 
L 441 856 
Q 825 641 1194 531 
Q 1563 422 1919 422 
Q 2459 422 2753 634 
Q 3047 847 3047 1241 
Q 3047 1584 2836 1778 
Q 2625 1972 2144 2069 
L 1759 2144 
Q 1053 2284 737 2584 
Q 422 2884 422 3419 
Q 422 4038 858 4394 
Q 1294 4750 2059 4750 
Q 2388 4750 2728 4690 
Q 3069 4631 3425 4513 
z
" transform="scale(0.015625)"/>
     </defs>
     <use xlink:href="#DejaVuSans-46"/>
     <use xlink:href="#DejaVuSans-47" transform="translate(57.519531 0)"/>
     <use xlink:href="#DejaVuSans-53" transform="translate(135.009766 0)"/>
     <use xlink:href="#DejaVuSans-31" transform="translate(198.486328 0)"/>
    </g>
   </g>
   <g id="text_18">
    <!-- FGS2 -->
    <g transform="translate(135.38232 561.372699) scale(0.1 -0.1)">
     <use xlink:href="#DejaVuSans-46"/>
     <use xlink:href="#DejaVuSans-47" transform="translate(57.519531 0)"/>
     <use xlink:href="#DejaVuSans-53" transform="translate(135.009766 0)"/>
     <use xlink:href="#DejaVuSans-32" transform="translate(198.486328 0)"/>
    </g>
   </g>
   <g id="text_19">
    <!-- NIRSpec -->
    <g transform="translate(183.461582 483.33702) scale(0.1 -0.1)">
     <defs>
      <path id="DejaVuSans-4e" d="M 628 4666 
L 1478 4666 
L 3547 763 
L 3547 4666 
L 4159 4666 
L 4159 0 
L 3309 0 
L 1241 3903 
L 1241 0 
L 628 0 
L 628 4666 
z
" transform="scale(0.015625)"/>
      <path id="DejaVuSans-49" d="M 628 4666 
L 1259 4666 
L 1259 0 
L 628 0 
L 628 4666 
z
" transform="scale(0.015625)"/>
      <path id="DejaVuSans-52" d="M 2841 2188 
Q 3044 2119 3236 1894 
Q 3428 1669 3622 1275 
L 4263 0 
L 3584 0 
L 2988 1197 
Q 2756 1666 2539 1819 
Q 2322 1972 1947 1972 
L 1259 1972 
L 1259 0 
L 628 0 
L 628 4666 
L 2053 4666 
Q 2853 4666 3247 4331 
Q 3641 3997 3641 3322 
Q 3641 2881 3436 2590 
Q 3231 2300 2841 2188 
z
M 1259 4147 
L 1259 2491 
L 2053 2491 
Q 2509 2491 2742 2702 
Q 2975 2913 2975 3322 
Q 2975 3731 2742 3939 
Q 2509 4147 2053 4147 
L 1259 4147 
z
" transform="scale(0.015625)"/>
     </defs>
     <use xlink:href="#DejaVuSans-4e"/>
     <use xlink:href="#DejaVuSans-49" transform="translate(74.804688 0)"/>
     <use xlink:href="#DejaVuSans-52" transform="translate(104.296875 0)"/>
     <use xlink:href="#DejaVuSans-53" transform="translate(173.779297 0)"/>
     <use xlink:href="#DejaVuSans-70" transform="translate(237.255859 0)"/>
     <use xlink:href="#DejaVuSans-65" transform="translate(300.732422 0)"/>
     <use xlink:href="#DejaVuSans-63" transform="translate(362.255859 0)"/>
    </g>
   </g>
   <g id="text_20">
    <!-- AIRS-CH0-bin1 -->
    <g transform="translate(245.433144 324.014116) scale(0.1 -0.1)">
     <defs>
      <path id="DejaVuSans-41" d="M 2188 4044 
L 1331 1722 
L 3047 1722 
L 2188 4044 
z
M 1831 4666 
L 2547 4666 
L 4325 0 
L 3669 0 
L 3244 1197 
L 1141 1197 
L 716 0 
L 50 0 
L 1831 4666 
z
" transform="scale(0.015625)"/>
      <path id="DejaVuSans-2d" d="M 313 2009 
L 1997 2009 
L 1997 1497 
L 313 1497 
L 313 2009 
z
" transform="scale(0.015625)"/>
      <path id="DejaVuSans-43" d="M 4122 4306 
L 4122 3641 
Q 3803 3938 3442 4084 
Q 3081 4231 2675 4231 
Q 1875 4231 1450 3742 
Q 1025 3253 1025 2328 
Q 1025 1406 1450 917 
Q 1875 428 2675 428 
Q 3081 428 3442 575 
Q 3803 722 4122 1019 
L 4122 359 
Q 3791 134 3420 21 
Q 3050 -91 2638 -91 
Q 1578 -91 968 557 
Q 359 1206 359 2328 
Q 359 3453 968 4101 
Q 1578 4750 2638 4750 
Q 3056 4750 3426 4639 
Q 3797 4528 4122 4306 
z
" transform="scale(0.015625)"/>
      <path id="DejaVuSans-48" d="M 628 4666 
L 1259 4666 
L 1259 2753 
L 3553 2753 
L 3553 4666 
L 4184 4666 
L 4184 0 
L 3553 0 
L 3553 2222 
L 1259 2222 
L 1259 0 
L 628 0 
L 628 4666 
z
" transform="scale(0.015625)"/>
      <path id="DejaVuSans-62" d="M 3116 1747 
Q 3116 2381 2855 2742 
Q 2594 3103 2138 3103 
Q 1681 3103 1420 2742 
Q 1159 2381 1159 1747 
Q 1159 1113 1420 752 
Q 1681 391 2138 391 
Q 2594 391 2855 752 
Q 3116 1113 3116 1747 
z
M 1159 2969 
Q 1341 3281 1617 3432 
Q 1894 3584 2278 3584 
Q 2916 3584 3314 3078 
Q 3713 2572 3713 1747 
Q 3713 922 3314 415 
Q 2916 -91 2278 -91 
Q 1894 -91 1617 61 
Q 1341 213 1159 525 
L 1159 0 
L 581 0 
L 581 4863 
L 1159 4863 
L 1159 2969 
z
" transform="scale(0.015625)"/>
      <path id="DejaVuSans-6e" d="M 3513 2113 
L 3513 0 
L 2938 0 
L 2938 2094 
Q 2938 2591 2744 2837 
Q 2550 3084 2163 3084 
Q 1697 3084 1428 2787 
Q 1159 2491 1159 1978 
L 1159 0 
L 581 0 
L 581 3500 
L 1159 3500 
L 1159 2956 
Q 1366 3272 1645 3428 
Q 1925 3584 2291 3584 
Q 2894 3584 3203 3211 
Q 3513 2838 3513 2113 
z
" transform="scale(0.015625)"/>
     </defs>
     <use xlink:href="#DejaVuSans-41"/>
     <use xlink:href="#DejaVuSans-49" transform="translate(68.408203 0)"/>
     <use xlink:href="#DejaVuSans-52" transform="translate(97.900391 0)"/>
     <use xlink:href="#DejaVuSans-53" transform="translate(167.382812 0)"/>
     <use xlink:href="#DejaVuSans-2d" transform="translate(230.859375 0)"/>
     <use xlink:href="#DejaVuSans-43" transform="translate(266.943359 0)"/>
     <use xlink:href="#DejaVuSans-48" transform="translate(336.767578 0)"/>
     <use xlink:href="#DejaVuSans-30" transform="translate(411.962891 0)"/>
     <use xlink:href="#DejaVuSans-2d" transform="translate(475.585938 0)"/>
     <use xlink:href="#DejaVuSans-62" transform="translate(511.669922 0)"/>
     <use xlink:href="#DejaVuSans-69" transform="translate(575.146484 0)"/>
     <use xlink:href="#DejaVuSans-6e" transform="translate(602.929688 0)"/>
     <use xlink:href="#DejaVuSans-31" transform="translate(666.308594 0)"/>
    </g>
   </g>
   <g id="text_21">
    <!-- AIRS-CH0-bin2 -->
    <g transform="translate(338.18077 217.154542) scale(0.1 -0.1)">
     <use xlink:href="#DejaVuSans-41"/>
     <use xlink:href="#DejaVuSans-49" transform="translate(68.408203 0)"/>
     <use xlink:href="#DejaVuSans-52" transform="translate(97.900391 0)"/>
     <use xlink:href="#DejaVuSans-53" transform="translate(167.382812 0)"/>
     <use xlink:href="#DejaVuSans-2d" transform="translate(230.859375 0)"/>
     <use xlink:href="#DejaVuSans-43" transform="translate(266.943359 0)"/>
     <use xlink:href="#DejaVuSans-48" transform="translate(336.767578 0)"/>
     <use xlink:href="#DejaVuSans-30" transform="translate(411.962891 0)"/>
     <use xlink:href="#DejaVuSans-2d" transform="translate(475.585938 0)"/>
     <use xlink:href="#DejaVuSans-62" transform="translate(511.669922 0)"/>
     <use xlink:href="#DejaVuSans-69" transform="translate(575.146484 0)"/>
     <use xlink:href="#DejaVuSans-6e" transform="translate(602.929688 0)"/>
     <use xlink:href="#DejaVuSans-32" transform="translate(666.308594 0)"/>
    </g>
   </g>
   <g id="text_22">
    <!-- AIRS-CH1 -->
    <g transform="translate(598.855895 160.690026) scale(0.1 -0.1)">
     <use xlink:href="#DejaVuSans-41"/>
     <use xlink:href="#DejaVuSans-49" transform="translate(68.408203 0)"/>
     <use xlink:href="#DejaVuSans-52" transform="translate(97.900391 0)"/>
     <use xlink:href="#DejaVuSans-53" transform="translate(167.382812 0)"/>
     <use xlink:href="#DejaVuSans-2d" transform="translate(230.859375 0)"/>
     <use xlink:href="#DejaVuSans-43" transform="translate(266.943359 0)"/>
     <use xlink:href="#DejaVuSans-48" transform="translate(336.767578 0)"/>
     <use xlink:href="#DejaVuSans-31" transform="translate(411.962891 0)"/>
    </g>
   </g>
   <g id="text_23">
    <!-- Eclipse depth for 55 Cnc e -->
    <g transform="translate(276.929219 80.4) scale(0.14 -0.14)">
     <defs>
      <path id="DejaVuSans-66" d="M 2375 4863 
L 2375 4384 
L 1825 4384 
Q 1516 4384 1395 4259 
Q 1275 4134 1275 3809 
L 1275 3500 
L 2222 3500 
L 2222 3053 
L 1275 3053 
L 1275 0 
L 697 0 
L 697 3053 
L 147 3053 
L 147 3500 
L 697 3500 
L 697 3744 
Q 697 4328 969 4595 
Q 1241 4863 1831 4863 
L 2375 4863 
z
" transform="scale(0.015625)"/>
      <path id="DejaVuSans-6f" d="M 1959 3097 
Q 1497 3097 1228 2736 
Q 959 2375 959 1747 
Q 959 1119 1226 758 
Q 1494 397 1959 397 
Q 2419 397 2687 759 
Q 2956 1122 2956 1747 
Q 2956 2369 2687 2733 
Q 2419 3097 1959 3097 
z
M 1959 3584 
Q 2709 3584 3137 3096 
Q 3566 2609 3566 1747 
Q 3566 888 3137 398 
Q 2709 -91 1959 -91 
Q 1206 -91 779 398 
Q 353 888 353 1747 
Q 353 2609 779 3096 
Q 1206 3584 1959 3584 
z
" transform="scale(0.015625)"/>
      <path id="DejaVuSans-72" d="M 2631 2963 
Q 2534 3019 2420 3045 
Q 2306 3072 2169 3072 
Q 1681 3072 1420 2755 
Q 1159 2438 1159 1844 
L 1159 0 
L 581 0 
L 581 3500 
L 1159 3500 
L 1159 2956 
Q 1341 3275 1631 3429 
Q 1922 3584 2338 3584 
Q 2397 3584 2469 3576 
Q 2541 3569 2628 3553 
L 2631 2963 
z
" transform="scale(0.015625)"/>
     </defs>
     <use xlink:href="#DejaVuSans-45"/>
     <use xlink:href="#DejaVuSans-63" transform="translate(63.183594 0)"/>
     <use xlink:href="#DejaVuSans-6c" transform="translate(118.164062 0)"/>
     <use xlink:href="#DejaVuSans-69" transform="translate(145.947266 0)"/>
     <use xlink:href="#DejaVuSans-70" transform="translate(173.730469 0)"/>
     <use xlink:href="#DejaVuSans-73" transform="translate(237.207031 0)"/>
     <use xlink:href="#DejaVuSans-65" transform="translate(289.306641 0)"/>
     <use xlink:href="#DejaVuSans-20" transform="translate(350.830078 0)"/>
     <use xlink:href="#DejaVuSans-64" transform="translate(382.617188 0)"/>
     <use xlink:href="#DejaVuSans-65" transform="translate(446.09375 0)"/>
     <use xlink:href="#DejaVuSans-70" transform="translate(507.617188 0)"/>
     <use xlink:href="#DejaVuSans-74" transform="translate(571.09375 0)"/>
     <use xlink:href="#DejaVuSans-68" transform="translate(610.302734 0)"/>
     <use xlink:href="#DejaVuSans-20" transform="translate(673.681641 0)"/>
     <use xlink:href="#DejaVuSans-66" transform="translate(705.46875 0)"/>
     <use xlink:href="#DejaVuSans-6f" transform="translate(740.673828 0)"/>
     <use xlink:href="#DejaVuSans-72" transform="translate(801.855469 0)"/>
     <use xlink:href="#DejaVuSans-20" transform="translate(842.96875 0)"/>
     <use xlink:href="#DejaVuSans-35" transform="translate(874.755859 0)"/>
     <use xlink:href="#DejaVuSans-35" transform="translate(938.378906 0)"/>
     <use xlink:href="#DejaVuSans-20" transform="translate(1002.001953 0)"/>
     <use xlink:href="#DejaVuSans-43" transform="translate(1033.789062 0)"/>
     <use xlink:href="#DejaVuSans-6e" transform="translate(1103.613281 0)"/>
     <use xlink:href="#DejaVuSans-63" transform="translate(1166.992188 0)"/>
     <use xlink:href="#DejaVuSans-20" transform="translate(1221.972656 0)"/>
     <use xlink:href="#DejaVuSans-65" transform="translate(1253.759766 0)"/>
    </g>
   </g>
   <g id="legend_1">
    <g id="patch_7">
     <path d="M 98.4 272.1375 
L 241.9125 272.1375 
Q 244.3125 272.1375 244.3125 269.7375 
L 244.3125 94.8 
Q 244.3125 92.4 241.9125 92.4 
L 98.4 92.4 
Q 96 92.4 96 94.8 
L 96 269.7375 
Q 96 272.1375 98.4 272.1375 
z
" style="fill: #ffffff; opacity: 0.8; stroke: #cccccc; stroke-linejoin: miter"/>
    </g>
    <g id="patch_8">
     <path d="M 100.8 106.318125 
L 124.8 106.318125 
L 124.8 97.918125 
L 100.8 97.918125 
z
" style="fill: #1f77b4; fill-opacity: 0.2"/>
    </g>
    <g id="text_24">
     <!-- asymmetric error -->
     <g transform="translate(134.4 106.318125) scale(0.12 -0.12)">
      <defs>
       <path id="DejaVuSans-61" d="M 2194 1759 
Q 1497 1759 1228 1600 
Q 959 1441 959 1056 
Q 959 750 1161 570 
Q 1363 391 1709 391 
Q 2188 391 2477 730 
Q 2766 1069 2766 1631 
L 2766 1759 
L 2194 1759 
z
M 3341 1997 
L 3341 0 
L 2766 0 
L 2766 531 
Q 2569 213 2275 61 
Q 1981 -91 1556 -91 
Q 1019 -91 701 211 
Q 384 513 384 1019 
Q 384 1609 779 1909 
Q 1175 2209 1959 2209 
L 2766 2209 
L 2766 2266 
Q 2766 2663 2505 2880 
Q 2244 3097 1772 3097 
Q 1472 3097 1187 3025 
Q 903 2953 641 2809 
L 641 3341 
Q 956 3463 1253 3523 
Q 1550 3584 1831 3584 
Q 2591 3584 2966 3190 
Q 3341 2797 3341 1997 
z
" transform="scale(0.015625)"/>
       <path id="DejaVuSans-79" d="M 2059 -325 
Q 1816 -950 1584 -1140 
Q 1353 -1331 966 -1331 
L 506 -1331 
L 506 -850 
L 844 -850 
Q 1081 -850 1212 -737 
Q 1344 -625 1503 -206 
L 1606 56 
L 191 3500 
L 800 3500 
L 1894 763 
L 2988 3500 
L 3597 3500 
L 2059 -325 
z
" transform="scale(0.015625)"/>
      </defs>
      <use xlink:href="#DejaVuSans-61"/>
      <use xlink:href="#DejaVuSans-73" transform="translate(61.279297 0)"/>
      <use xlink:href="#DejaVuSans-79" transform="translate(113.378906 0)"/>
      <use xlink:href="#DejaVuSans-6d" transform="translate(172.558594 0)"/>
      <use xlink:href="#DejaVuSans-6d" transform="translate(269.970703 0)"/>
      <use xlink:href="#DejaVuSans-65" transform="translate(367.382812 0)"/>
      <use xlink:href="#DejaVuSans-74" transform="translate(428.90625 0)"/>
      <use xlink:href="#DejaVuSans-72" transform="translate(468.115234 0)"/>
      <use xlink:href="#DejaVuSans-69" transform="translate(509.228516 0)"/>
      <use xlink:href="#DejaVuSans-63" transform="translate(537.011719 0)"/>
      <use xlink:href="#DejaVuSans-20" transform="translate(591.992188 0)"/>
      <use xlink:href="#DejaVuSans-65" transform="translate(623.779297 0)"/>
      <use xlink:href="#DejaVuSans-72" transform="translate(685.302734 0)"/>
      <use xlink:href="#DejaVuSans-72" transform="translate(724.666016 0)"/>
      <use xlink:href="#DejaVuSans-6f" transform="translate(763.529297 0)"/>
      <use xlink:href="#DejaVuSans-72" transform="translate(824.710938 0)"/>
     </g>
    </g>
    <g id="line2d_18">
     <path d="M 100.8 119.731875 
L 112.8 119.731875 
L 124.8 119.731875 
" style="fill: none; stroke: #ff7f0e; stroke-width: 1.5; stroke-linecap: square"/>
    </g>
    <g id="text_25">
     <!-- with initial values -->
     <g transform="translate(134.4 123.931875) scale(0.12 -0.12)">
      <defs>
       <path id="DejaVuSans-77" d="M 269 3500 
L 844 3500 
L 1563 769 
L 2278 3500 
L 2956 3500 
L 3675 769 
L 4391 3500 
L 4966 3500 
L 4050 0 
L 3372 0 
L 2619 2869 
L 1863 0 
L 1184 0 
L 269 3500 
z
" transform="scale(0.015625)"/>
       <path id="DejaVuSans-76" d="M 191 3500 
L 800 3500 
L 1894 563 
L 2988 3500 
L 3597 3500 
L 2284 0 
L 1503 0 
L 191 3500 
z
" transform="scale(0.015625)"/>
       <path id="DejaVuSans-75" d="M 544 1381 
L 544 3500 
L 1119 3500 
L 1119 1403 
Q 1119 906 1312 657 
Q 1506 409 1894 409 
Q 2359 409 2629 706 
Q 2900 1003 2900 1516 
L 2900 3500 
L 3475 3500 
L 3475 0 
L 2900 0 
L 2900 538 
Q 2691 219 2414 64 
Q 2138 -91 1772 -91 
Q 1169 -91 856 284 
Q 544 659 544 1381 
z
M 1991 3584 
L 1991 3584 
z
" transform="scale(0.015625)"/>
      </defs>
      <use xlink:href="#DejaVuSans-77"/>
      <use xlink:href="#DejaVuSans-69" transform="translate(81.787109 0)"/>
      <use xlink:href="#DejaVuSans-74" transform="translate(109.570312 0)"/>
      <use xlink:href="#DejaVuSans-68" transform="translate(148.779297 0)"/>
      <use xlink:href="#DejaVuSans-20" transform="translate(212.158203 0)"/>
      <use xlink:href="#DejaVuSans-69" transform="translate(243.945312 0)"/>
      <use xlink:href="#DejaVuSans-6e" transform="translate(271.728516 0)"/>
      <use xlink:href="#DejaVuSans-69" transform="translate(335.107422 0)"/>
      <use xlink:href="#DejaVuSans-74" transform="translate(362.890625 0)"/>
      <use xlink:href="#DejaVuSans-69" transform="translate(402.099609 0)"/>
      <use xlink:href="#DejaVuSans-61" transform="translate(429.882812 0)"/>
      <use xlink:href="#DejaVuSans-6c" transform="translate(491.162109 0)"/>
      <use xlink:href="#DejaVuSans-20" transform="translate(518.945312 0)"/>
      <use xlink:href="#DejaVuSans-76" transform="translate(550.732422 0)"/>
      <use xlink:href="#DejaVuSans-61" transform="translate(609.912109 0)"/>
      <use xlink:href="#DejaVuSans-6c" transform="translate(671.191406 0)"/>
      <use xlink:href="#DejaVuSans-75" transform="translate(698.974609 0)"/>
      <use xlink:href="#DejaVuSans-65" transform="translate(762.353516 0)"/>
      <use xlink:href="#DejaVuSans-73" transform="translate(823.876953 0)"/>
     </g>
    </g>
    <g id="line2d_19">
     <path d="M 100.8 137.345625 
L 112.8 137.345625 
L 124.8 137.345625 
" style="fill: none; stroke-dasharray: 5.55,2.4; stroke-dashoffset: 0; stroke: #000000; stroke-width: 1.5"/>
    </g>
    <g id="text_26">
     <!-- Metal-rich -->
     <g transform="translate(134.4 141.545625) scale(0.12 -0.12)">
      <defs>
       <path id="DejaVuSans-4d" d="M 628 4666 
L 1569 4666 
L 2759 1491 
L 3956 4666 
L 4897 4666 
L 4897 0 
L 4281 0 
L 4281 4097 
L 3078 897 
L 2444 897 
L 1241 4097 
L 1241 0 
L 628 0 
L 628 4666 
z
" transform="scale(0.015625)"/>
      </defs>
      <use xlink:href="#DejaVuSans-4d"/>
      <use xlink:href="#DejaVuSans-65" transform="translate(86.279297 0)"/>
      <use xlink:href="#DejaVuSans-74" transform="translate(147.802734 0)"/>
      <use xlink:href="#DejaVuSans-61" transform="translate(187.011719 0)"/>
      <use xlink:href="#DejaVuSans-6c" transform="translate(248.291016 0)"/>
      <use xlink:href="#DejaVuSans-2d" transform="translate(276.074219 0)"/>
      <use xlink:href="#DejaVuSans-72" transform="translate(312.158203 0)"/>
      <use xlink:href="#DejaVuSans-69" transform="translate(353.271484 0)"/>
      <use xlink:href="#DejaVuSans-63" transform="translate(381.054688 0)"/>
      <use xlink:href="#DejaVuSans-68" transform="translate(436.035156 0)"/>
     </g>
    </g>
    <g id="line2d_20">
     <path d="M 100.8 154.959375 
L 112.8 154.959375 
L 124.8 154.959375 
" style="fill: none; stroke-dasharray: 5.55,2.4; stroke-dashoffset: 0; stroke: #00ff00; stroke-width: 1.5"/>
    </g>
    <g id="text_27">
     <!-- Ultramafic -->
     <g transform="translate(134.4 159.159375) scale(0.12 -0.12)">
      <defs>
       <path id="DejaVuSans-55" d="M 556 4666 
L 1191 4666 
L 1191 1831 
Q 1191 1081 1462 751 
Q 1734 422 2344 422 
Q 2950 422 3222 751 
Q 3494 1081 3494 1831 
L 3494 4666 
L 4128 4666 
L 4128 1753 
Q 4128 841 3676 375 
Q 3225 -91 2344 -91 
Q 1459 -91 1007 375 
Q 556 841 556 1753 
L 556 4666 
z
" transform="scale(0.015625)"/>
      </defs>
      <use xlink:href="#DejaVuSans-55"/>
      <use xlink:href="#DejaVuSans-6c" transform="translate(73.193359 0)"/>
      <use xlink:href="#DejaVuSans-74" transform="translate(100.976562 0)"/>
      <use xlink:href="#DejaVuSans-72" transform="translate(140.185547 0)"/>
      <use xlink:href="#DejaVuSans-61" transform="translate(181.298828 0)"/>
      <use xlink:href="#DejaVuSans-6d" transform="translate(242.578125 0)"/>
      <use xlink:href="#DejaVuSans-61" transform="translate(339.990234 0)"/>
      <use xlink:href="#DejaVuSans-66" transform="translate(401.269531 0)"/>
      <use xlink:href="#DejaVuSans-69" transform="translate(436.474609 0)"/>
      <use xlink:href="#DejaVuSans-63" transform="translate(464.257812 0)"/>
     </g>
    </g>
    <g id="line2d_21">
     <path d="M 100.8 172.573125 
L 112.8 172.573125 
L 124.8 172.573125 
" style="fill: none; stroke-dasharray: 5.55,2.4; stroke-dashoffset: 0; stroke: #ffff00; stroke-width: 1.5"/>
    </g>
    <g id="text_28">
     <!-- Feldspathic -->
     <g transform="translate(134.4 176.773125) scale(0.12 -0.12)">
      <use xlink:href="#DejaVuSans-46"/>
      <use xlink:href="#DejaVuSans-65" transform="translate(52.019531 0)"/>
      <use xlink:href="#DejaVuSans-6c" transform="translate(113.542969 0)"/>
      <use xlink:href="#DejaVuSans-64" transform="translate(141.326172 0)"/>
      <use xlink:href="#DejaVuSans-73" transform="translate(204.802734 0)"/>
      <use xlink:href="#DejaVuSans-70" transform="translate(256.902344 0)"/>
      <use xlink:href="#DejaVuSans-61" transform="translate(320.378906 0)"/>
      <use xlink:href="#DejaVuSans-74" transform="translate(381.658203 0)"/>
      <use xlink:href="#DejaVuSans-68" transform="translate(420.867188 0)"/>
      <use xlink:href="#DejaVuSans-69" transform="translate(484.246094 0)"/>
      <use xlink:href="#DejaVuSans-63" transform="translate(512.029297 0)"/>
     </g>
    </g>
    <g id="line2d_22">
     <path d="M 100.8 190.186875 
L 112.8 190.186875 
L 124.8 190.186875 
" style="fill: none; stroke-dasharray: 5.55,2.4; stroke-dashoffset: 0; stroke: #800000; stroke-width: 1.5"/>
    </g>
    <g id="text_29">
     <!-- Basaltic -->
     <g transform="translate(134.4 194.386875) scale(0.12 -0.12)">
      <defs>
       <path id="DejaVuSans-42" d="M 1259 2228 
L 1259 519 
L 2272 519 
Q 2781 519 3026 730 
Q 3272 941 3272 1375 
Q 3272 1813 3026 2020 
Q 2781 2228 2272 2228 
L 1259 2228 
z
M 1259 4147 
L 1259 2741 
L 2194 2741 
Q 2656 2741 2882 2914 
Q 3109 3088 3109 3444 
Q 3109 3797 2882 3972 
Q 2656 4147 2194 4147 
L 1259 4147 
z
M 628 4666 
L 2241 4666 
Q 2963 4666 3353 4366 
Q 3744 4066 3744 3513 
Q 3744 3084 3544 2831 
Q 3344 2578 2956 2516 
Q 3422 2416 3680 2098 
Q 3938 1781 3938 1306 
Q 3938 681 3513 340 
Q 3088 0 2303 0 
L 628 0 
L 628 4666 
z
" transform="scale(0.015625)"/>
      </defs>
      <use xlink:href="#DejaVuSans-42"/>
      <use xlink:href="#DejaVuSans-61" transform="translate(68.603516 0)"/>
      <use xlink:href="#DejaVuSans-73" transform="translate(129.882812 0)"/>
      <use xlink:href="#DejaVuSans-61" transform="translate(181.982422 0)"/>
      <use xlink:href="#DejaVuSans-6c" transform="translate(243.261719 0)"/>
      <use xlink:href="#DejaVuSans-74" transform="translate(271.044922 0)"/>
      <use xlink:href="#DejaVuSans-69" transform="translate(310.253906 0)"/>
      <use xlink:href="#DejaVuSans-63" transform="translate(338.037109 0)"/>
     </g>
    </g>
    <g id="line2d_23">
     <path d="M 100.8 207.800625 
L 112.8 207.800625 
L 124.8 207.800625 
" style="fill: none; stroke-dasharray: 5.55,2.4; stroke-dashoffset: 0; stroke: #80ff00; stroke-width: 1.5"/>
    </g>
    <g id="text_30">
     <!-- Granitoid -->
     <g transform="translate(134.4 212.000625) scale(0.12 -0.12)">
      <use xlink:href="#DejaVuSans-47"/>
      <use xlink:href="#DejaVuSans-72" transform="translate(77.490234 0)"/>
      <use xlink:href="#DejaVuSans-61" transform="translate(118.603516 0)"/>
      <use xlink:href="#DejaVuSans-6e" transform="translate(179.882812 0)"/>
      <use xlink:href="#DejaVuSans-69" transform="translate(243.261719 0)"/>
      <use xlink:href="#DejaVuSans-74" transform="translate(271.044922 0)"/>
      <use xlink:href="#DejaVuSans-6f" transform="translate(310.253906 0)"/>
      <use xlink:href="#DejaVuSans-69" transform="translate(371.435547 0)"/>
      <use xlink:href="#DejaVuSans-64" transform="translate(399.21875 0)"/>
     </g>
    </g>
    <g id="line2d_24">
     <path d="M 100.8 225.414375 
L 112.8 225.414375 
L 124.8 225.414375 
" style="fill: none; stroke-dasharray: 5.55,2.4; stroke-dashoffset: 0; stroke: #0000ff; stroke-width: 1.5"/>
    </g>
    <g id="text_31">
     <!-- Clay -->
     <g transform="translate(134.4 229.614375) scale(0.12 -0.12)">
      <use xlink:href="#DejaVuSans-43"/>
      <use xlink:href="#DejaVuSans-6c" transform="translate(69.824219 0)"/>
      <use xlink:href="#DejaVuSans-61" transform="translate(97.607422 0)"/>
      <use xlink:href="#DejaVuSans-79" transform="translate(158.886719 0)"/>
     </g>
    </g>
    <g id="line2d_25">
     <path d="M 100.8 243.028125 
L 112.8 243.028125 
L 124.8 243.028125 
" style="fill: none; stroke-dasharray: 5.55,2.4; stroke-dashoffset: 0; stroke: #00ffff; stroke-width: 1.5"/>
    </g>
    <g id="text_32">
     <!-- Ice-rich silicate -->
     <g transform="translate(134.4 247.228125) scale(0.12 -0.12)">
      <use xlink:href="#DejaVuSans-49"/>
      <use xlink:href="#DejaVuSans-63" transform="translate(29.492188 0)"/>
      <use xlink:href="#DejaVuSans-65" transform="translate(84.472656 0)"/>
      <use xlink:href="#DejaVuSans-2d" transform="translate(145.996094 0)"/>
      <use xlink:href="#DejaVuSans-72" transform="translate(182.080078 0)"/>
      <use xlink:href="#DejaVuSans-69" transform="translate(223.193359 0)"/>
      <use xlink:href="#DejaVuSans-63" transform="translate(250.976562 0)"/>
      <use xlink:href="#DejaVuSans-68" transform="translate(305.957031 0)"/>
      <use xlink:href="#DejaVuSans-20" transform="translate(369.335938 0)"/>
      <use xlink:href="#DejaVuSans-73" transform="translate(401.123047 0)"/>
      <use xlink:href="#DejaVuSans-69" transform="translate(453.222656 0)"/>
      <use xlink:href="#DejaVuSans-6c" transform="translate(481.005859 0)"/>
      <use xlink:href="#DejaVuSans-69" transform="translate(508.789062 0)"/>
      <use xlink:href="#DejaVuSans-63" transform="translate(536.572266 0)"/>
      <use xlink:href="#DejaVuSans-61" transform="translate(591.552734 0)"/>
      <use xlink:href="#DejaVuSans-74" transform="translate(652.832031 0)"/>
      <use xlink:href="#DejaVuSans-65" transform="translate(692.041016 0)"/>
     </g>
    </g>
    <g id="line2d_26">
     <path d="M 100.8 260.641875 
L 112.8 260.641875 
L 124.8 260.641875 
" style="fill: none; stroke-dasharray: 5.55,2.4; stroke-dashoffset: 0; stroke: #ff00ff; stroke-width: 1.5"/>
    </g>
    <g id="text_33">
     <!-- Fe-oxidized -->
     <g transform="translate(134.4 264.841875) scale(0.12 -0.12)">
      <defs>
       <path id="DejaVuSans-78" d="M 3513 3500 
L 2247 1797 
L 3578 0 
L 2900 0 
L 1881 1375 
L 863 0 
L 184 0 
L 1544 1831 
L 300 3500 
L 978 3500 
L 1906 2253 
L 2834 3500 
L 3513 3500 
z
" transform="scale(0.015625)"/>
       <path id="DejaVuSans-7a" d="M 353 3500 
L 3084 3500 
L 3084 2975 
L 922 459 
L 3084 459 
L 3084 0 
L 275 0 
L 275 525 
L 2438 3041 
L 353 3041 
L 353 3500 
z
" transform="scale(0.015625)"/>
      </defs>
      <use xlink:href="#DejaVuSans-46"/>
      <use xlink:href="#DejaVuSans-65" transform="translate(52.019531 0)"/>
      <use xlink:href="#DejaVuSans-2d" transform="translate(113.542969 0)"/>
      <use xlink:href="#DejaVuSans-6f" transform="translate(151.501953 0)"/>
      <use xlink:href="#DejaVuSans-78" transform="translate(209.558594 0)"/>
      <use xlink:href="#DejaVuSans-69" transform="translate(268.738281 0)"/>
      <use xlink:href="#DejaVuSans-64" transform="translate(296.521484 0)"/>
      <use xlink:href="#DejaVuSans-69" transform="translate(359.998047 0)"/>
      <use xlink:href="#DejaVuSans-7a" transform="translate(387.78125 0)"/>
      <use xlink:href="#DejaVuSans-65" transform="translate(440.271484 0)"/>
      <use xlink:href="#DejaVuSans-64" transform="translate(501.794922 0)"/>
     </g>
    </g>
   </g>
   <g id="line2d_27">
    <path d="M 119.972626 602.095651 
L 129.455597 591.315327 
L 138.929104 577.509818 
L 148.402612 561.481764 
L 157.876119 544.226999 
L 167.349627 526.878525 
L 176.823134 510.338464 
L 186.287178 494.833282 
L 195.760685 480.550398 
L 205.224729 466.668495 
L 214.688772 452.595438 
L 224.152815 438.750883 
L 233.616859 425.01939 
L 243.080902 411.828424 
L 252.55441 399.652984 
L 262.018453 388.561654 
L 271.482497 377.534494 
L 280.94654 363.668209 
L 290.420047 350.960051 
L 299.874627 339.413755 
L 309.33867 329.29483 
L 318.812178 316.818908 
L 328.276221 294.859996 
L 337.740265 274.558315 
L 347.204308 263.686998 
L 356.668351 256.618724 
L 366.132395 251.116349 
L 375.605902 246.641722 
L 385.069946 242.798954 
L 394.533989 238.706974 
L 403.998033 234.361368 
L 413.462076 229.986222 
L 422.926119 225.505823 
L 432.390163 222.223615 
L 441.854206 218.799824 
L 451.31825 214.634506 
L 460.791757 210.266151 
L 470.246336 205.860109 
L 479.71038 201.719576 
L 489.174423 197.353937 
L 498.638467 194.106021 
L 508.111974 191.222758 
L 517.576018 188.108616 
L 527.030597 185.618524 
L 536.49464 183.810882 
L 545.958684 181.813444 
L 555.413263 178.9879 
L 564.886771 175.249707 
L 574.350814 170.953672 
L 583.824322 166.022381 
L 593.297829 160.797059 
L 602.752408 155.53439 
L 612.206988 151.264837 
L 621.661567 146.831632 
" clip-path="url(#p55fecdd374)" style="fill: none; stroke-dasharray: 5.55,2.4; stroke-dashoffset: 0; stroke: #000000; stroke-width: 1.5"/>
   </g>
   <g id="line2d_28">
    <path d="M 119.972626 608.778222 
L 129.455597 601.781249 
L 138.929104 588.051114 
L 148.402612 572.004047 
L 157.876119 556.977598 
L 167.349627 545.234037 
L 176.823134 534.694438 
L 186.287178 528.815866 
L 195.760685 531.931027 
L 205.224729 538.839044 
L 214.688772 537.321019 
L 224.152815 525.847721 
L 233.616859 513.055699 
L 243.080902 505.419736 
L 252.55441 506.521841 
L 262.018453 514.597152 
L 271.482497 522.109867 
L 280.94654 523.480538 
L 290.420047 520.781977 
L 299.874627 514.702406 
L 309.33867 506.76664 
L 318.812178 478.478943 
L 328.276221 459.904437 
L 337.740265 447.00173 
L 347.204308 444.757456 
L 356.668351 441.417528 
L 366.132395 438.588589 
L 375.605902 436.941543 
L 385.069946 432.457749 
L 394.533989 429.666157 
L 403.998033 424.280919 
L 413.462076 416.979389 
L 422.926119 409.587546 
L 432.390163 402.594986 
L 441.854206 394.804877 
L 451.31825 387.469056 
L 460.791757 377.059835 
L 470.246336 370.253676 
L 479.71038 362.457795 
L 489.174423 353.508881 
L 498.638467 340.733157 
L 508.111974 326.432617 
L 517.576018 304.863142 
L 527.030597 277.149925 
L 536.49464 271.186132 
L 545.958684 254.278704 
L 555.413263 247.410411 
L 564.886771 248.945752 
L 574.350814 240.148267 
L 583.824322 234.624162 
L 593.297829 223.412978 
L 602.752408 226.357017 
L 612.206988 222.180835 
L 621.661567 210.75541 
" clip-path="url(#p55fecdd374)" style="fill: none; stroke-dasharray: 5.55,2.4; stroke-dashoffset: 0; stroke: #00ff00; stroke-width: 1.5"/>
   </g>
   <g id="line2d_29">
    <path d="M 119.972626 609.865049 
L 129.455597 606.176427 
L 138.929104 601.626085 
L 148.402612 594.833167 
L 157.876119 585.958609 
L 167.349627 577.050098 
L 176.823134 567.6014 
L 186.287178 560.116526 
L 195.760685 555.815058 
L 205.224729 552.912441 
L 214.688772 548.974946 
L 224.152815 544.333611 
L 233.616859 539.677676 
L 243.080902 534.627551 
L 252.55441 530.039522 
L 262.018453 525.743825 
L 271.482497 522.590298 
L 280.94654 519.274477 
L 290.420047 517.4485 
L 299.874627 515.394701 
L 309.33867 511.847662 
L 318.812178 500.236176 
L 328.276221 483.142347 
L 337.740265 472.280537 
L 347.204308 470.617873 
L 356.668351 473.076049 
L 366.132395 475.061603 
L 375.605902 470.102132 
L 385.069946 460.178095 
L 394.533989 467.763469 
L 403.998033 467.972279 
L 413.462076 465.992157 
L 422.926119 462.33579 
L 432.390163 456.562472 
L 441.854206 449.829311 
L 451.31825 441.756376 
L 460.791757 425.718137 
L 470.246336 391.386858 
L 479.71038 377.810869 
L 489.174423 361.47079 
L 498.638467 324.360823 
L 508.111974 299.233783 
L 517.576018 280.552326 
L 527.030597 259.202865 
L 536.49464 238.392572 
L 545.958684 222.275902 
L 555.413263 207.393413 
L 564.886771 194.58068 
L 574.350814 185.489164 
L 583.824322 185.128587 
L 593.297829 181.394468 
L 602.752408 172.960956 
L 612.206988 162.95 
L 621.661567 153.446978 
" clip-path="url(#p55fecdd374)" style="fill: none; stroke-dasharray: 5.55,2.4; stroke-dashoffset: 0; stroke: #ffff00; stroke-width: 1.5"/>
   </g>
   <g id="line2d_30">
    <path d="M 119.972626 604.258099 
L 129.455597 595.265725 
L 138.929104 583.379222 
L 148.402612 568.752736 
L 157.876119 554.091279 
L 167.349627 540.063379 
L 176.823134 524.964611 
L 186.287178 509.678424 
L 195.760685 494.674384 
L 205.224729 479.995611 
L 214.688772 465.607812 
L 224.152815 451.572443 
L 233.616859 438.001886 
L 243.080902 425.06964 
L 252.55441 412.984174 
L 262.018453 401.685054 
L 271.482497 390.82562 
L 280.94654 378.584651 
L 290.420047 366.977919 
L 299.874627 356.271612 
L 309.33867 345.934372 
L 318.812178 333.20686 
L 328.276221 322.624142 
L 337.740265 314.10405 
L 347.204308 306.658561 
L 356.668351 299.624579 
L 366.132395 293.272367 
L 375.605902 287.06785 
L 385.069946 281.200143 
L 394.533989 275.594212 
L 403.998033 270.093534 
L 413.462076 264.777899 
L 422.926119 259.545787 
L 432.390163 254.464425 
L 441.854206 249.537548 
L 451.31825 244.723733 
L 460.791757 239.755434 
L 470.246336 234.550824 
L 479.71038 229.367264 
L 489.174423 223.796304 
L 498.638467 217.475329 
L 508.111974 211.282016 
L 517.576018 205.646206 
L 527.030597 199.941812 
L 536.49464 193.737635 
L 545.958684 187.280849 
L 555.413263 180.876689 
L 564.886771 175.304032 
L 574.350814 170.182266 
L 583.824322 165.769093 
L 593.297829 161.271039 
L 602.752408 157.069052 
L 612.206988 152.218229 
L 621.661567 147.143318 
" clip-path="url(#p55fecdd374)" style="fill: none; stroke-dasharray: 5.55,2.4; stroke-dashoffset: 0; stroke: #800000; stroke-width: 1.5"/>
   </g>
   <g id="line2d_31">
    <path d="M 119.972626 609.945516 
L 129.455597 605.503484 
L 138.929104 600.159328 
L 148.402612 593.762299 
L 157.876119 586.85496 
L 167.349627 579.429843 
L 176.823134 572.591768 
L 186.287178 566.995344 
L 195.760685 562.724433 
L 205.224729 559.515903 
L 214.688772 556.899847 
L 224.152815 555.21002 
L 233.616859 553.485223 
L 243.080902 552.199774 
L 252.55441 552.312157 
L 262.018453 552.339998 
L 271.482497 549.534826 
L 280.94654 542.516462 
L 290.420047 535.047546 
L 299.874627 526.856116 
L 309.33867 516.131815 
L 318.812178 474.635497 
L 328.276221 452.085808 
L 337.740265 439.130474 
L 347.204308 438.213751 
L 356.668351 443.323293 
L 366.132395 450.778968 
L 375.605902 452.153713 
L 385.069946 450.108063 
L 394.533989 454.81221 
L 403.998033 451.150411 
L 413.462076 442.885643 
L 422.926119 439.637048 
L 432.390163 434.636154 
L 441.854206 427.677887 
L 451.31825 415.013528 
L 460.791757 400.48177 
L 470.246336 382.838925 
L 479.71038 358.474124 
L 489.174423 352.764637 
L 498.638467 332.693835 
L 508.111974 319.428174 
L 517.576018 303.487378 
L 527.030597 292.066028 
L 536.49464 279.954419 
L 545.958684 259.800093 
L 555.413263 239.317105 
L 564.886771 224.481809 
L 574.350814 212.072096 
L 583.824322 201.102316 
L 593.297829 192.663371 
L 602.752408 187.642105 
L 612.206988 182.075899 
L 621.661567 175.572937 
" clip-path="url(#p55fecdd374)" style="fill: none; stroke-dasharray: 5.55,2.4; stroke-dashoffset: 0; stroke: #80ff00; stroke-width: 1.5"/>
   </g>
   <g id="line2d_32">
    <path d="M 119.972626 611.400729 
L 129.455597 609.058332 
L 138.929104 605.876964 
L 148.402612 600.518548 
L 157.876119 594.91737 
L 167.349627 589.561331 
L 176.823134 586.593185 
L 186.287178 576.134394 
L 195.760685 567.351847 
L 205.224729 577.707083 
L 214.688772 578.024541 
L 224.152815 569.756718 
L 233.616859 542.84818 
L 243.080902 497.216083 
L 252.55441 520.747685 
L 262.018453 516.482886 
L 271.482497 484.436624 
L 280.94654 443.372185 
L 290.420047 430.190387 
L 299.874627 410.540598 
L 309.33867 382.845037 
L 318.812178 300.27715 
L 328.276221 294.587016 
L 337.740265 289.061213 
L 347.204308 293.424815 
L 356.668351 298.100442 
L 366.132395 305.119485 
L 375.605902 307.78613 
L 385.069946 311.586117 
L 394.533989 321.413049 
L 403.998033 324.203282 
L 413.462076 322.886257 
L 422.926119 321.273164 
L 432.390163 319.694363 
L 441.854206 315.961942 
L 451.31825 310.301007 
L 460.791757 303.40691 
L 470.246336 296.419104 
L 479.71038 288.179801 
L 489.174423 278.022849 
L 498.638467 265.886455 
L 508.111974 251.781822 
L 517.576018 240.040976 
L 527.030597 230.426249 
L 536.49464 222.598792 
L 545.958684 216.550797 
L 555.413263 205.292759 
L 564.886771 192.522467 
L 574.350814 184.369065 
L 583.824322 175.662233 
L 593.297829 166.06584 
L 602.752408 156.023309 
L 612.206988 148.410433 
L 621.661567 139.219096 
" clip-path="url(#p55fecdd374)" style="fill: none; stroke-dasharray: 5.55,2.4; stroke-dashoffset: 0; stroke: #0000ff; stroke-width: 1.5"/>
   </g>
   <g id="line2d_33">
    <path d="M 119.972626 606.127535 
L 129.455597 598.631796 
L 138.929104 588.645626 
L 148.402612 576.200602 
L 157.876119 563.821106 
L 167.349627 552.15937 
L 176.823134 538.132489 
L 186.287178 525.138788 
L 195.760685 497.308435 
L 205.224729 469.408817 
L 214.688772 460.470089 
L 224.152815 456.346533 
L 233.616859 443.644486 
L 243.080902 405.695208 
L 252.55441 389.69839 
L 262.018453 394.964115 
L 271.482497 397.409389 
L 280.94654 372.108173 
L 290.420047 353.360847 
L 299.874627 342.153059 
L 309.33867 322.150501 
L 318.812178 304.610873 
L 328.276221 289.481208 
L 337.740265 279.53714 
L 347.204308 274.843178 
L 356.668351 267.594955 
L 366.132395 259.335959 
L 375.605902 252.115237 
L 385.069946 246.169779 
L 394.533989 243.264446 
L 403.998033 242.447544 
L 413.462076 238.854329 
L 422.926119 231.33041 
L 432.390163 222.656851 
L 441.854206 214.860631 
L 451.31825 208.050058 
L 460.791757 202.014625 
L 470.246336 196.592378 
L 479.71038 191.473329 
L 489.174423 186.89243 
L 498.638467 182.87209 
L 508.111974 180.185412 
L 517.576018 177.435243 
L 527.030597 174.254214 
L 536.49464 169.844437 
L 545.958684 164.73082 
L 555.413263 159.290238 
L 564.886771 154.224495 
L 574.350814 149.340058 
L 583.824322 144.777833 
L 593.297829 140.24277 
L 602.752408 136.342963 
L 612.206988 132.587454 
L 621.661567 128.865219 
" clip-path="url(#p55fecdd374)" style="fill: none; stroke-dasharray: 5.55,2.4; stroke-dashoffset: 0; stroke: #00ffff; stroke-width: 1.5"/>
   </g>
   <g id="line2d_34">
    <path d="M 119.972626 603.290107 
L 129.455597 593.54602 
L 138.929104 580.790668 
L 148.402612 565.865398 
L 157.876119 550.819596 
L 167.349627 535.965627 
L 176.823134 520.108695 
L 186.287178 503.605643 
L 195.760685 487.494066 
L 205.224729 471.928108 
L 214.688772 457.006234 
L 224.152815 442.7298 
L 233.616859 429.059422 
L 243.080902 416.172673 
L 252.55441 404.528593 
L 262.018453 393.382259 
L 271.482497 382.98628 
L 280.94654 372.040607 
L 290.420047 361.808959 
L 299.874627 352.252631 
L 309.33867 342.753682 
L 318.812178 326.105652 
L 328.276221 313.229428 
L 337.740265 304.379316 
L 347.204308 297.919135 
L 356.668351 292.523371 
L 366.132395 288.201531 
L 375.605902 283.843362 
L 385.069946 279.617268 
L 394.533989 276.081773 
L 403.998033 272.245796 
L 413.462076 268.390806 
L 422.926119 264.187122 
L 432.390163 259.673789 
L 441.854206 255.447016 
L 451.31825 251.119404 
L 460.791757 246.411862 
L 470.246336 241.255804 
L 479.71038 234.585116 
L 489.174423 225.983198 
L 498.638467 218.642963 
L 508.111974 213.531043 
L 517.576018 209.513759 
L 527.030597 205.28461 
L 536.49464 201.794272 
L 545.958684 198.684204 
L 555.413263 195.152104 
L 564.886771 192.035925 
L 574.350814 189.264026 
L 583.824322 186.117289 
L 593.297829 182.632044 
L 602.752408 178.314958 
L 612.206988 172.448609 
L 621.661567 165.686249 
" clip-path="url(#p55fecdd374)" style="fill: none; stroke-dasharray: 5.55,2.4; stroke-dashoffset: 0; stroke: #ff00ff; stroke-width: 1.5"/>
   </g>
  </g>
 </g>
 <defs>
  <clipPath id="p55fecdd374">
   <rect x="90" y="86.4" width="558" height="554.4"/>
  </clipPath>
 </defs>
</svg>
