<?xml version="1.0" encoding="utf-8" standalone="no"?>
<!DOCTYPE svg PUBLIC "-//W3C//DTD SVG 1.1//EN"
  "http://www.w3.org/Graphics/SVG/1.1/DTD/svg11.dtd">
<svg xmlns:xlink="http://www.w3.org/1999/xlink" width="720pt" height="720pt" viewBox="0 0 720 720" xmlns="http://www.w3.org/2000/svg" version="1.1">
 <metadata>
  <rdf:RDF xmlns:dc="http://purl.org/dc/elements/1.1/" xmlns:cc="http://creativecommons.org/ns#" xmlns:rdf="http://www.w3.org/1999/02/22-rdf-syntax-ns#">
   <cc:Work>
    <dc:type rdf:resource="http://purl.org/dc/dcmitype/StillImage"/>
    <dc:date>2025-12-10T16:18:09.698262</dc:date>
    <dc:format>image/svg+xml</dc:format>
    <dc:creator>
     <cc:Agent>
      <dc:title>Matplotlib v3.10.7, https://matplotlib.org/</dc:title>
     </cc:Agent>
    </dc:creator>
   </cc:Work>
  </rdf:RDF>
 </metadata>
 <defs>
  <style type="text/css">*{stroke-linejoin: round; stroke-linecap: butt}</style>
 </defs>
 <g id="figure_1">
  <g id="patch_1">
   <path d="M 0 720 
L 720 720 
L 720 0 
L 0 0 
z
" style="fill: #ffffff"/>
  </g>
  <g id="axes_1">
   <g id="patch_2">
    <path d="M 90 640.8 
L 648 640.8 
L 648 86.4 
L 90 86.4 
z
" style="fill: #ffffff"/>
   </g>
   <g id="FillBetweenPolyCollection_1">
    <path d="M 124.82768 587.196217 
L 124.82768 608.076641 
L 148.487788 590.200888 
L 204.325645 514.322645 
L 281.930801 350.202849 
L 374.678426 246.929496 
L 622.636364 174.390083 
L 622.636364 141.090357 
L 622.636364 141.090357 
L 374.678426 208.784347 
L 281.930801 319.125064 
L 204.325645 486.107219 
L 148.487788 544.545537 
L 124.82768 587.196217 
z
" clip-path="url(#p4e085f20ca)" style="fill: #1f77b4; fill-opacity: 0.2"/>
   </g>
   <g id="matplotlib.axis_1">
    <g id="xtick_1">
     <g id="line2d_1">
      <defs>
       <path id="m1d012e7cec" d="M 0 0 
L 0 3.5 
" style="stroke: #000000; stroke-width: 0.8"/>
      </defs>
      <g>
       <use xlink:href="#m1d012e7cec" x="153.21981" y="640.8" style="stroke: #000000; stroke-width: 0.8"/>
      </g>
     </g>
     <g id="text_1">
      <!-- 1 -->
      <g transform="translate(148.76606 658.437813) scale(0.14 -0.14)">
       <defs>
        <path id="DejaVuSans-31" d="M 794 531 
L 1825 531 
L 1825 4091 
L 703 3866 
L 703 4441 
L 1819 4666 
L 2450 4666 
L 2450 531 
L 3481 531 
L 3481 0 
L 794 0 
L 794 531 
z
" transform="scale(0.015625)"/>
       </defs>
       <use xlink:href="#DejaVuSans-31"/>
      </g>
     </g>
    </g>
    <g id="xtick_2">
     <g id="line2d_2">
      <g>
       <use xlink:href="#m1d012e7cec" x="247.860244" y="640.8" style="stroke: #000000; stroke-width: 0.8"/>
      </g>
     </g>
     <g id="text_2">
      <!-- 2 -->
      <g transform="translate(243.406494 658.437813) scale(0.14 -0.14)">
       <defs>
        <path id="DejaVuSans-32" d="M 1228 531 
L 3431 531 
L 3431 0 
L 469 0 
L 469 531 
Q 828 903 1448 1529 
Q 2069 2156 2228 2338 
Q 2531 2678 2651 2914 
Q 2772 3150 2772 3378 
Q 2772 3750 2511 3984 
Q 2250 4219 1831 4219 
Q 1534 4219 1204 4116 
Q 875 4013 500 3803 
L 500 4441 
Q 881 4594 1212 4672 
Q 1544 4750 1819 4750 
Q 2544 4750 2975 4387 
Q 3406 4025 3406 3419 
Q 3406 3131 3298 2873 
Q 3191 2616 2906 2266 
Q 2828 2175 2409 1742 
Q 1991 1309 1228 531 
z
" transform="scale(0.015625)"/>
       </defs>
       <use xlink:href="#DejaVuSans-32"/>
      </g>
     </g>
    </g>
    <g id="xtick_3">
     <g id="line2d_3">
      <g>
       <use xlink:href="#m1d012e7cec" x="342.500678" y="640.8" style="stroke: #000000; stroke-width: 0.8"/>
      </g>
     </g>
     <g id="text_3">
      <!-- 3 -->
      <g transform="translate(338.046928 658.437813) scale(0.14 -0.14)">
       <defs>
        <path id="DejaVuSans-33" d="M 2597 2516 
Q 3050 2419 3304 2112 
Q 3559 1806 3559 1356 
Q 3559 666 3084 287 
Q 2609 -91 1734 -91 
Q 1441 -91 1130 -33 
Q 819 25 488 141 
L 488 750 
Q 750 597 1062 519 
Q 1375 441 1716 441 
Q 2309 441 2620 675 
Q 2931 909 2931 1356 
Q 2931 1769 2642 2001 
Q 2353 2234 1838 2234 
L 1294 2234 
L 1294 2753 
L 1863 2753 
Q 2328 2753 2575 2939 
Q 2822 3125 2822 3475 
Q 2822 3834 2567 4026 
Q 2313 4219 1838 4219 
Q 1578 4219 1281 4162 
Q 984 4106 628 3988 
L 628 4550 
Q 988 4650 1302 4700 
Q 1616 4750 1894 4750 
Q 2613 4750 3031 4423 
Q 3450 4097 3450 3541 
Q 3450 3153 3228 2886 
Q 3006 2619 2597 2516 
z
" transform="scale(0.015625)"/>
       </defs>
       <use xlink:href="#DejaVuSans-33"/>
      </g>
     </g>
    </g>
    <g id="xtick_4">
     <g id="line2d_4">
      <g>
       <use xlink:href="#m1d012e7cec" x="437.141113" y="640.8" style="stroke: #000000; stroke-width: 0.8"/>
      </g>
     </g>
     <g id="text_4">
      <!-- 4 -->
      <g transform="translate(432.687363 658.437813) scale(0.14 -0.14)">
       <defs>
        <path id="DejaVuSans-34" d="M 2419 4116 
L 825 1625 
L 2419 1625 
L 2419 4116 
z
M 2253 4666 
L 3047 4666 
L 3047 1625 
L 3713 1625 
L 3713 1100 
L 3047 1100 
L 3047 0 
L 2419 0 
L 2419 1100 
L 313 1100 
L 313 1709 
L 2253 4666 
z
" transform="scale(0.015625)"/>
       </defs>
       <use xlink:href="#DejaVuSans-34"/>
      </g>
     </g>
    </g>
    <g id="xtick_5">
     <g id="line2d_5">
      <g>
       <use xlink:href="#m1d012e7cec" x="531.781547" y="640.8" style="stroke: #000000; stroke-width: 0.8"/>
      </g>
     </g>
     <g id="text_5">
      <!-- 5 -->
      <g transform="translate(527.327797 658.437813) scale(0.14 -0.14)">
       <defs>
        <path id="DejaVuSans-35" d="M 691 4666 
L 3169 4666 
L 3169 4134 
L 1269 4134 
L 1269 2991 
Q 1406 3038 1543 3061 
Q 1681 3084 1819 3084 
Q 2600 3084 3056 2656 
Q 3513 2228 3513 1497 
Q 3513 744 3044 326 
Q 2575 -91 1722 -91 
Q 1428 -91 1123 -41 
Q 819 9 494 109 
L 494 744 
Q 775 591 1075 516 
Q 1375 441 1709 441 
Q 2250 441 2565 725 
Q 2881 1009 2881 1497 
Q 2881 1984 2565 2268 
Q 2250 2553 1709 2553 
Q 1456 2553 1204 2497 
Q 953 2441 691 2322 
L 691 4666 
z
" transform="scale(0.015625)"/>
       </defs>
       <use xlink:href="#DejaVuSans-35"/>
      </g>
     </g>
    </g>
    <g id="xtick_6">
     <g id="line2d_6">
      <g>
       <use xlink:href="#m1d012e7cec" x="626.421981" y="640.8" style="stroke: #000000; stroke-width: 0.8"/>
      </g>
     </g>
     <g id="text_6">
      <!-- 6 -->
      <g transform="translate(621.968231 658.437813) scale(0.14 -0.14)">
       <defs>
        <path id="DejaVuSans-36" d="M 2113 2584 
Q 1688 2584 1439 2293 
Q 1191 2003 1191 1497 
Q 1191 994 1439 701 
Q 1688 409 2113 409 
Q 2538 409 2786 701 
Q 3034 994 3034 1497 
Q 3034 2003 2786 2293 
Q 2538 2584 2113 2584 
z
M 3366 4563 
L 3366 3988 
Q 3128 4100 2886 4159 
Q 2644 4219 2406 4219 
Q 1781 4219 1451 3797 
Q 1122 3375 1075 2522 
Q 1259 2794 1537 2939 
Q 1816 3084 2150 3084 
Q 2853 3084 3261 2657 
Q 3669 2231 3669 1497 
Q 3669 778 3244 343 
Q 2819 -91 2113 -91 
Q 1303 -91 875 529 
Q 447 1150 447 2328 
Q 447 3434 972 4092 
Q 1497 4750 2381 4750 
Q 2619 4750 2861 4703 
Q 3103 4656 3366 4563 
z
" transform="scale(0.015625)"/>
       </defs>
       <use xlink:href="#DejaVuSans-36"/>
      </g>
     </g>
    </g>
    <g id="text_7">
     <!-- $\lambda$ ($\mu$m) -->
     <g transform="translate(345.83 675.989375) scale(0.14 -0.14)">
      <defs>
       <path id="DejaVuSans-Oblique-3bb" d="M 2350 4316 
L 3125 0 
L 2516 0 
L 2038 2588 
L 328 0 
L -281 0 
L 1903 3356 
L 1794 3975 
Q 1725 4369 1391 4369 
L 1091 4369 
L 1184 4863 
L 1550 4856 
Q 2253 4847 2350 4316 
z
" transform="scale(0.015625)"/>
       <path id="DejaVuSans-20" transform="scale(0.015625)"/>
       <path id="DejaVuSans-28" d="M 1984 4856 
Q 1566 4138 1362 3434 
Q 1159 2731 1159 2009 
Q 1159 1288 1364 580 
Q 1569 -128 1984 -844 
L 1484 -844 
Q 1016 -109 783 600 
Q 550 1309 550 2009 
Q 550 2706 781 3412 
Q 1013 4119 1484 4856 
L 1984 4856 
z
" transform="scale(0.015625)"/>
       <path id="DejaVuSans-Oblique-3bc" d="M -84 -1331 
L 856 3500 
L 1434 3500 
L 1009 1322 
Q 997 1256 987 1175 
Q 978 1094 978 1013 
Q 978 722 1161 565 
Q 1344 409 1684 409 
Q 2147 409 2431 671 
Q 2716 934 2816 1459 
L 3213 3500 
L 3788 3500 
L 3266 809 
Q 3253 750 3248 706 
Q 3244 663 3244 628 
Q 3244 531 3283 486 
Q 3322 441 3406 441 
Q 3438 441 3492 456 
Q 3547 472 3647 513 
L 3559 50 
Q 3422 -19 3297 -55 
Q 3172 -91 3053 -91 
Q 2847 -91 2730 40 
Q 2613 172 2613 403 
Q 2438 153 2195 31 
Q 1953 -91 1625 -91 
Q 1334 -91 1117 43 
Q 900 178 831 397 
L 494 -1331 
L -84 -1331 
z
" transform="scale(0.015625)"/>
       <path id="DejaVuSans-6d" d="M 3328 2828 
Q 3544 3216 3844 3400 
Q 4144 3584 4550 3584 
Q 5097 3584 5394 3201 
Q 5691 2819 5691 2113 
L 5691 0 
L 5113 0 
L 5113 2094 
Q 5113 2597 4934 2840 
Q 4756 3084 4391 3084 
Q 3944 3084 3684 2787 
Q 3425 2491 3425 1978 
L 3425 0 
L 2847 0 
L 2847 2094 
Q 2847 2600 2669 2842 
Q 2491 3084 2119 3084 
Q 1678 3084 1418 2786 
Q 1159 2488 1159 1978 
L 1159 0 
L 581 0 
L 581 3500 
L 1159 3500 
L 1159 2956 
Q 1356 3278 1631 3431 
Q 1906 3584 2284 3584 
Q 2666 3584 2933 3390 
Q 3200 3197 3328 2828 
z
" transform="scale(0.015625)"/>
       <path id="DejaVuSans-29" d="M 513 4856 
L 1013 4856 
Q 1481 4119 1714 3412 
Q 1947 2706 1947 2009 
Q 1947 1309 1714 600 
Q 1481 -109 1013 -844 
L 513 -844 
Q 928 -128 1133 580 
Q 1338 1288 1338 2009 
Q 1338 2731 1133 3434 
Q 928 4138 513 4856 
z
" transform="scale(0.015625)"/>
      </defs>
      <use xlink:href="#DejaVuSans-Oblique-3bb" transform="translate(0 0.015625)"/>
      <use xlink:href="#DejaVuSans-20" transform="translate(59.179688 0.015625)"/>
      <use xlink:href="#DejaVuSans-28" transform="translate(90.966797 0.015625)"/>
      <use xlink:href="#DejaVuSans-Oblique-3bc" transform="translate(129.980469 0.015625)"/>
      <use xlink:href="#DejaVuSans-6d" transform="translate(193.603516 0.015625)"/>
      <use xlink:href="#DejaVuSans-29" transform="translate(291.015625 0.015625)"/>
     </g>
    </g>
   </g>
   <g id="matplotlib.axis_2">
    <g id="ytick_1">
     <g id="line2d_7">
      <defs>
       <path id="m1b17a06a77" d="M 0 0 
L -3.5 0 
" style="stroke: #000000; stroke-width: 0.8"/>
      </defs>
      <g>
       <use xlink:href="#m1b17a06a77" x="90" y="615.6" style="stroke: #000000; stroke-width: 0.8"/>
      </g>
     </g>
     <g id="text_8">
      <!-- 0 -->
      <g transform="translate(74.0925 620.918906) scale(0.14 -0.14)">
       <defs>
        <path id="DejaVuSans-30" d="M 2034 4250 
Q 1547 4250 1301 3770 
Q 1056 3291 1056 2328 
Q 1056 1369 1301 889 
Q 1547 409 2034 409 
Q 2525 409 2770 889 
Q 3016 1369 3016 2328 
Q 3016 3291 2770 3770 
Q 2525 4250 2034 4250 
z
M 2034 4750 
Q 2819 4750 3233 4129 
Q 3647 3509 3647 2328 
Q 3647 1150 3233 529 
Q 2819 -91 2034 -91 
Q 1250 -91 836 529 
Q 422 1150 422 2328 
Q 422 3509 836 4129 
Q 1250 4750 2034 4750 
z
" transform="scale(0.015625)"/>
       </defs>
       <use xlink:href="#DejaVuSans-30"/>
      </g>
     </g>
    </g>
    <g id="ytick_2">
     <g id="line2d_8">
      <g>
       <use xlink:href="#m1b17a06a77" x="90" y="547.694589" style="stroke: #000000; stroke-width: 0.8"/>
      </g>
     </g>
     <g id="text_9">
      <!-- 20 -->
      <g transform="translate(65.185 553.013495) scale(0.14 -0.14)">
       <use xlink:href="#DejaVuSans-32"/>
       <use xlink:href="#DejaVuSans-30" transform="translate(63.623047 0)"/>
      </g>
     </g>
    </g>
    <g id="ytick_3">
     <g id="line2d_9">
      <g>
       <use xlink:href="#m1b17a06a77" x="90" y="479.789178" style="stroke: #000000; stroke-width: 0.8"/>
      </g>
     </g>
     <g id="text_10">
      <!-- 40 -->
      <g transform="translate(65.185 485.108084) scale(0.14 -0.14)">
       <use xlink:href="#DejaVuSans-34"/>
       <use xlink:href="#DejaVuSans-30" transform="translate(63.623047 0)"/>
      </g>
     </g>
    </g>
    <g id="ytick_4">
     <g id="line2d_10">
      <g>
       <use xlink:href="#m1b17a06a77" x="90" y="411.883767" style="stroke: #000000; stroke-width: 0.8"/>
      </g>
     </g>
     <g id="text_11">
      <!-- 60 -->
      <g transform="translate(65.185 417.202673) scale(0.14 -0.14)">
       <use xlink:href="#DejaVuSans-36"/>
       <use xlink:href="#DejaVuSans-30" transform="translate(63.623047 0)"/>
      </g>
     </g>
    </g>
    <g id="ytick_5">
     <g id="line2d_11">
      <g>
       <use xlink:href="#m1b17a06a77" x="90" y="343.978356" style="stroke: #000000; stroke-width: 0.8"/>
      </g>
     </g>
     <g id="text_12">
      <!-- 80 -->
      <g transform="translate(65.185 349.297263) scale(0.14 -0.14)">
       <defs>
        <path id="DejaVuSans-38" d="M 2034 2216 
Q 1584 2216 1326 1975 
Q 1069 1734 1069 1313 
Q 1069 891 1326 650 
Q 1584 409 2034 409 
Q 2484 409 2743 651 
Q 3003 894 3003 1313 
Q 3003 1734 2745 1975 
Q 2488 2216 2034 2216 
z
M 1403 2484 
Q 997 2584 770 2862 
Q 544 3141 544 3541 
Q 544 4100 942 4425 
Q 1341 4750 2034 4750 
Q 2731 4750 3128 4425 
Q 3525 4100 3525 3541 
Q 3525 3141 3298 2862 
Q 3072 2584 2669 2484 
Q 3125 2378 3379 2068 
Q 3634 1759 3634 1313 
Q 3634 634 3220 271 
Q 2806 -91 2034 -91 
Q 1263 -91 848 271 
Q 434 634 434 1313 
Q 434 1759 690 2068 
Q 947 2378 1403 2484 
z
M 1172 3481 
Q 1172 3119 1398 2916 
Q 1625 2713 2034 2713 
Q 2441 2713 2670 2916 
Q 2900 3119 2900 3481 
Q 2900 3844 2670 4047 
Q 2441 4250 2034 4250 
Q 1625 4250 1398 4047 
Q 1172 3844 1172 3481 
z
" transform="scale(0.015625)"/>
       </defs>
       <use xlink:href="#DejaVuSans-38"/>
       <use xlink:href="#DejaVuSans-30" transform="translate(63.623047 0)"/>
      </g>
     </g>
    </g>
    <g id="ytick_6">
     <g id="line2d_12">
      <g>
       <use xlink:href="#m1b17a06a77" x="90" y="276.072945" style="stroke: #000000; stroke-width: 0.8"/>
      </g>
     </g>
     <g id="text_13">
      <!-- 100 -->
      <g transform="translate(56.2775 281.391852) scale(0.14 -0.14)">
       <use xlink:href="#DejaVuSans-31"/>
       <use xlink:href="#DejaVuSans-30" transform="translate(63.623047 0)"/>
       <use xlink:href="#DejaVuSans-30" transform="translate(127.246094 0)"/>
      </g>
     </g>
    </g>
    <g id="ytick_7">
     <g id="line2d_13">
      <g>
       <use xlink:href="#m1b17a06a77" x="90" y="208.167534" style="stroke: #000000; stroke-width: 0.8"/>
      </g>
     </g>
     <g id="text_14">
      <!-- 120 -->
      <g transform="translate(56.2775 213.486441) scale(0.14 -0.14)">
       <use xlink:href="#DejaVuSans-31"/>
       <use xlink:href="#DejaVuSans-32" transform="translate(63.623047 0)"/>
       <use xlink:href="#DejaVuSans-30" transform="translate(127.246094 0)"/>
      </g>
     </g>
    </g>
    <g id="ytick_8">
     <g id="line2d_14">
      <g>
       <use xlink:href="#m1b17a06a77" x="90" y="140.262123" style="stroke: #000000; stroke-width: 0.8"/>
      </g>
     </g>
     <g id="text_15">
      <!-- 140 -->
      <g transform="translate(56.2775 145.58103) scale(0.14 -0.14)">
       <use xlink:href="#DejaVuSans-31"/>
       <use xlink:href="#DejaVuSans-34" transform="translate(63.623047 0)"/>
       <use xlink:href="#DejaVuSans-30" transform="translate(127.246094 0)"/>
      </g>
     </g>
    </g>
    <g id="text_16">
     <!-- Eclipse depth (ppm) -->
     <g transform="translate(49.365937 434.152344) rotate(-90) scale(0.14 -0.14)">
      <defs>
       <path id="DejaVuSans-45" d="M 628 4666 
L 3578 4666 
L 3578 4134 
L 1259 4134 
L 1259 2753 
L 3481 2753 
L 3481 2222 
L 1259 2222 
L 1259 531 
L 3634 531 
L 3634 0 
L 628 0 
L 628 4666 
z
" transform="scale(0.015625)"/>
       <path id="DejaVuSans-63" d="M 3122 3366 
L 3122 2828 
Q 2878 2963 2633 3030 
Q 2388 3097 2138 3097 
Q 1578 3097 1268 2742 
Q 959 2388 959 1747 
Q 959 1106 1268 751 
Q 1578 397 2138 397 
Q 2388 397 2633 464 
Q 2878 531 3122 666 
L 3122 134 
Q 2881 22 2623 -34 
Q 2366 -91 2075 -91 
Q 1284 -91 818 406 
Q 353 903 353 1747 
Q 353 2603 823 3093 
Q 1294 3584 2113 3584 
Q 2378 3584 2631 3529 
Q 2884 3475 3122 3366 
z
" transform="scale(0.015625)"/>
       <path id="DejaVuSans-6c" d="M 603 4863 
L 1178 4863 
L 1178 0 
L 603 0 
L 603 4863 
z
" transform="scale(0.015625)"/>
       <path id="DejaVuSans-69" d="M 603 3500 
L 1178 3500 
L 1178 0 
L 603 0 
L 603 3500 
z
M 603 4863 
L 1178 4863 
L 1178 4134 
L 603 4134 
L 603 4863 
z
" transform="scale(0.015625)"/>
       <path id="DejaVuSans-70" d="M 1159 525 
L 1159 -1331 
L 581 -1331 
L 581 3500 
L 1159 3500 
L 1159 2969 
Q 1341 3281 1617 3432 
Q 1894 3584 2278 3584 
Q 2916 3584 3314 3078 
Q 3713 2572 3713 1747 
Q 3713 922 3314 415 
Q 2916 -91 2278 -91 
Q 1894 -91 1617 61 
Q 1341 213 1159 525 
z
M 3116 1747 
Q 3116 2381 2855 2742 
Q 2594 3103 2138 3103 
Q 1681 3103 1420 2742 
Q 1159 2381 1159 1747 
Q 1159 1113 1420 752 
Q 1681 391 2138 391 
Q 2594 391 2855 752 
Q 3116 1113 3116 1747 
z
" transform="scale(0.015625)"/>
       <path id="DejaVuSans-73" d="M 2834 3397 
L 2834 2853 
Q 2591 2978 2328 3040 
Q 2066 3103 1784 3103 
Q 1356 3103 1142 2972 
Q 928 2841 928 2578 
Q 928 2378 1081 2264 
Q 1234 2150 1697 2047 
L 1894 2003 
Q 2506 1872 2764 1633 
Q 3022 1394 3022 966 
Q 3022 478 2636 193 
Q 2250 -91 1575 -91 
Q 1294 -91 989 -36 
Q 684 19 347 128 
L 347 722 
Q 666 556 975 473 
Q 1284 391 1588 391 
Q 1994 391 2212 530 
Q 2431 669 2431 922 
Q 2431 1156 2273 1281 
Q 2116 1406 1581 1522 
L 1381 1569 
Q 847 1681 609 1914 
Q 372 2147 372 2553 
Q 372 3047 722 3315 
Q 1072 3584 1716 3584 
Q 2034 3584 2315 3537 
Q 2597 3491 2834 3397 
z
" transform="scale(0.015625)"/>
       <path id="DejaVuSans-65" d="M 3597 1894 
L 3597 1613 
L 953 1613 
Q 991 1019 1311 708 
Q 1631 397 2203 397 
Q 2534 397 2845 478 
Q 3156 559 3463 722 
L 3463 178 
Q 3153 47 2828 -22 
Q 2503 -91 2169 -91 
Q 1331 -91 842 396 
Q 353 884 353 1716 
Q 353 2575 817 3079 
Q 1281 3584 2069 3584 
Q 2775 3584 3186 3129 
Q 3597 2675 3597 1894 
z
M 3022 2063 
Q 3016 2534 2758 2815 
Q 2500 3097 2075 3097 
Q 1594 3097 1305 2825 
Q 1016 2553 972 2059 
L 3022 2063 
z
" transform="scale(0.015625)"/>
       <path id="DejaVuSans-64" d="M 2906 2969 
L 2906 4863 
L 3481 4863 
L 3481 0 
L 2906 0 
L 2906 525 
Q 2725 213 2448 61 
Q 2172 -91 1784 -91 
Q 1150 -91 751 415 
Q 353 922 353 1747 
Q 353 2572 751 3078 
Q 1150 3584 1784 3584 
Q 2172 3584 2448 3432 
Q 2725 3281 2906 2969 
z
M 947 1747 
Q 947 1113 1208 752 
Q 1469 391 1925 391 
Q 2381 391 2643 752 
Q 2906 1113 2906 1747 
Q 2906 2381 2643 2742 
Q 2381 3103 1925 3103 
Q 1469 3103 1208 2742 
Q 947 2381 947 1747 
z
" transform="scale(0.015625)"/>
       <path id="DejaVuSans-74" d="M 1172 4494 
L 1172 3500 
L 2356 3500 
L 2356 3053 
L 1172 3053 
L 1172 1153 
Q 1172 725 1289 603 
Q 1406 481 1766 481 
L 2356 481 
L 2356 0 
L 1766 0 
Q 1100 0 847 248 
Q 594 497 594 1153 
L 594 3053 
L 172 3053 
L 172 3500 
L 594 3500 
L 594 4494 
L 1172 4494 
z
" transform="scale(0.015625)"/>
       <path id="DejaVuSans-68" d="M 3513 2113 
L 3513 0 
L 2938 0 
L 2938 2094 
Q 2938 2591 2744 2837 
Q 2550 3084 2163 3084 
Q 1697 3084 1428 2787 
Q 1159 2491 1159 1978 
L 1159 0 
L 581 0 
L 581 4863 
L 1159 4863 
L 1159 2956 
Q 1366 3272 1645 3428 
Q 1925 3584 2291 3584 
Q 2894 3584 3203 3211 
Q 3513 2838 3513 2113 
z
" transform="scale(0.015625)"/>
      </defs>
      <use xlink:href="#DejaVuSans-45"/>
      <use xlink:href="#DejaVuSans-63" transform="translate(63.183594 0)"/>
      <use xlink:href="#DejaVuSans-6c" transform="translate(118.164062 0)"/>
      <use xlink:href="#DejaVuSans-69" transform="translate(145.947266 0)"/>
      <use xlink:href="#DejaVuSans-70" transform="translate(173.730469 0)"/>
      <use xlink:href="#DejaVuSans-73" transform="translate(237.207031 0)"/>
      <use xlink:href="#DejaVuSans-65" transform="translate(289.306641 0)"/>
      <use xlink:href="#DejaVuSans-20" transform="translate(350.830078 0)"/>
      <use xlink:href="#DejaVuSans-64" transform="translate(382.617188 0)"/>
      <use xlink:href="#DejaVuSans-65" transform="translate(446.09375 0)"/>
      <use xlink:href="#DejaVuSans-70" transform="translate(507.617188 0)"/>
      <use xlink:href="#DejaVuSans-74" transform="translate(571.09375 0)"/>
      <use xlink:href="#DejaVuSans-68" transform="translate(610.302734 0)"/>
      <use xlink:href="#DejaVuSans-20" transform="translate(673.681641 0)"/>
      <use xlink:href="#DejaVuSans-28" transform="translate(705.46875 0)"/>
      <use xlink:href="#DejaVuSans-70" transform="translate(744.482422 0)"/>
      <use xlink:href="#DejaVuSans-70" transform="translate(807.958984 0)"/>
      <use xlink:href="#DejaVuSans-6d" transform="translate(871.435547 0)"/>
      <use xlink:href="#DejaVuSans-29" transform="translate(968.847656 0)"/>
     </g>
    </g>
   </g>
   <g id="line2d_15">
    <path d="M 124.82768 600.345082 
L 148.487788 571.372699 
L 204.325645 493.33702 
L 281.930801 334.014116 
L 374.678426 227.154542 
L 622.636364 170.690026 
" clip-path="url(#p4e085f20ca)" style="fill: none; stroke: #1f77b4; stroke-width: 1.5; stroke-linecap: square"/>
    <defs>
     <path id="me2e2b920e4" d="M 0 3 
C 0.795609 3 1.55874 2.683901 2.12132 2.12132 
C 2.683901 1.55874 3 0.795609 3 0 
C 3 -0.795609 2.683901 -1.55874 2.12132 -2.12132 
C 1.55874 -2.683901 0.795609 -3 0 -3 
C -0.795609 -3 -1.55874 -2.683901 -2.12132 -2.12132 
C -2.683901 -1.55874 -3 -0.795609 -3 0 
C -3 0.795609 -2.683901 1.55874 -2.12132 2.12132 
C -1.55874 2.683901 -0.795609 3 0 3 
z
" style="stroke: #1f77b4"/>
    </defs>
    <g clip-path="url(#p4e085f20ca)">
     <use xlink:href="#me2e2b920e4" x="124.82768" y="600.345082" style="fill: #1f77b4; stroke: #1f77b4"/>
     <use xlink:href="#me2e2b920e4" x="148.487788" y="571.372699" style="fill: #1f77b4; stroke: #1f77b4"/>
     <use xlink:href="#me2e2b920e4" x="204.325645" y="493.33702" style="fill: #1f77b4; stroke: #1f77b4"/>
     <use xlink:href="#me2e2b920e4" x="281.930801" y="334.014116" style="fill: #1f77b4; stroke: #1f77b4"/>
     <use xlink:href="#me2e2b920e4" x="374.678426" y="227.154542" style="fill: #1f77b4; stroke: #1f77b4"/>
     <use xlink:href="#me2e2b920e4" x="622.636364" y="170.690026" style="fill: #1f77b4; stroke: #1f77b4"/>
    </g>
   </g>
   <g id="line2d_16">
    <path d="M 115.363636 605.712127 
L 124.82768 595.783426 
L 134.291723 582.396307 
L 143.755767 566.243929 
L 153.21981 548.135442 
L 162.683853 528.826776 
L 172.147897 508.946641 
L 181.61194 488.980175 
L 191.075984 469.280942 
L 200.540027 450.093507 
L 210.004071 431.577403 
L 219.468114 413.828454 
L 228.932157 396.896216 
L 238.396201 380.797529 
L 247.860244 365.526722 
L 257.324288 351.063131 
L 266.788331 337.376527 
L 276.252374 324.430996 
L 285.716418 312.187649 
L 295.180461 300.60651 
L 304.644505 289.647779 
L 314.108548 279.272675 
L 323.572592 269.443964 
L 333.036635 260.126271 
L 342.500678 251.28624 
L 351.964722 242.892597 
L 361.428765 234.916134 
L 370.892809 227.329654 
L 380.356852 220.107884 
L 389.820896 213.227375 
L 399.284939 206.666386 
L 408.748982 200.404775 
L 418.213026 194.423884 
L 427.677069 188.706428 
L 437.141113 183.236393 
L 446.605156 177.998935 
L 456.069199 172.980292 
L 465.533243 168.167691 
L 474.997286 163.549278 
L 484.46133 159.114035 
L 493.925373 154.851721 
L 503.389417 150.752804 
L 512.85346 146.808411 
L 522.317503 143.010267 
L 531.781547 139.350658 
L 541.24559 135.822377 
L 550.709634 132.418695 
L 560.173677 129.133315 
L 569.63772 125.960345 
L 579.101764 122.894266 
L 588.565807 119.929902 
L 598.029851 117.062397 
L 607.493894 114.287192 
L 616.957938 111.6 
" clip-path="url(#p4e085f20ca)" style="fill: none; stroke: #ff7f0e; stroke-width: 1.5; stroke-linecap: square"/>
   </g>
   <g id="line2d_17">
    <path d="M 115.363636 615.6 
L 124.82768 615.6 
L 134.291723 615.6 
L 143.755767 615.6 
L 153.21981 615.6 
L 162.683853 615.6 
L 172.147897 615.6 
L 181.61194 615.6 
L 191.075984 615.6 
L 200.540027 615.6 
L 210.004071 615.6 
L 219.468114 615.6 
L 228.932157 615.6 
L 238.396201 615.6 
L 247.860244 615.6 
L 257.324288 615.6 
L 266.788331 615.6 
L 276.252374 615.6 
L 285.716418 615.6 
L 295.180461 615.6 
L 304.644505 615.6 
L 314.108548 615.6 
L 323.572592 615.6 
L 333.036635 615.6 
L 342.500678 615.6 
L 351.964722 615.6 
L 361.428765 615.6 
L 370.892809 615.6 
L 380.356852 615.6 
L 389.820896 615.6 
L 399.284939 615.6 
L 408.748982 615.6 
L 418.213026 615.6 
L 427.677069 615.6 
L 437.141113 615.6 
L 446.605156 615.6 
L 456.069199 615.6 
L 465.533243 615.6 
L 474.997286 615.6 
L 484.46133 615.6 
L 493.925373 615.6 
L 503.389417 615.6 
L 512.85346 615.6 
L 522.317503 615.6 
L 531.781547 615.6 
L 541.24559 615.6 
L 550.709634 615.6 
L 560.173677 615.6 
L 569.63772 615.6 
L 579.101764 615.6 
L 588.565807 615.6 
L 598.029851 615.6 
L 607.493894 615.6 
L 616.957938 615.6 
" clip-path="url(#p4e085f20ca)" style="fill: none; stroke-dasharray: 5.55,2.4; stroke-dashoffset: 0; stroke: #000000; stroke-width: 1.5"/>
   </g>
   <g id="patch_3">
    <path d="M 90 640.8 
L 90 86.4 
" style="fill: none; stroke: #000000; stroke-width: 0.8; stroke-linejoin: miter; stroke-linecap: square"/>
   </g>
   <g id="patch_4">
    <path d="M 648 640.8 
L 648 86.4 
" style="fill: none; stroke: #000000; stroke-width: 0.8; stroke-linejoin: miter; stroke-linecap: square"/>
   </g>
   <g id="patch_5">
    <path d="M 90 640.8 
L 648 640.8 
" style="fill: none; stroke: #000000; stroke-width: 0.8; stroke-linejoin: miter; stroke-linecap: square"/>
   </g>
   <g id="patch_6">
    <path d="M 90 86.4 
L 648 86.4 
" style="fill: none; stroke: #000000; stroke-width: 0.8; stroke-linejoin: miter; stroke-linecap: square"/>
   </g>
   <g id="text_17">
    <!-- FGS1 -->
    <g transform="translate(111.722211 590.345082) scale(0.1 -0.1)">
     <defs>
      <path id="DejaVuSans-46" d="M 628 4666 
L 3309 4666 
L 3309 4134 
L 1259 4134 
L 1259 2759 
L 3109 2759 
L 3109 2228 
L 1259 2228 
L 1259 0 
L 628 0 
L 628 4666 
z
" transform="scale(0.015625)"/>
      <path id="DejaVuSans-47" d="M 3809 666 
L 3809 1919 
L 2778 1919 
L 2778 2438 
L 4434 2438 
L 4434 434 
Q 4069 175 3628 42 
Q 3188 -91 2688 -91 
Q 1594 -91 976 548 
Q 359 1188 359 2328 
Q 359 3472 976 4111 
Q 1594 4750 2688 4750 
Q 3144 4750 3555 4637 
Q 3966 4525 4313 4306 
L 4313 3634 
Q 3963 3931 3569 4081 
Q 3175 4231 2741 4231 
Q 1884 4231 1454 3753 
Q 1025 3275 1025 2328 
Q 1025 1384 1454 906 
Q 1884 428 2741 428 
Q 3075 428 3337 486 
Q 3600 544 3809 666 
z
" transform="scale(0.015625)"/>
      <path id="DejaVuSans-53" d="M 3425 4513 
L 3425 3897 
Q 3066 4069 2747 4153 
Q 2428 4238 2131 4238 
Q 1616 4238 1336 4038 
Q 1056 3838 1056 3469 
Q 1056 3159 1242 3001 
Q 1428 2844 1947 2747 
L 2328 2669 
Q 3034 2534 3370 2195 
Q 3706 1856 3706 1288 
Q 3706 609 3251 259 
Q 2797 -91 1919 -91 
Q 1588 -91 1214 -16 
Q 841 59 441 206 
L 441 856 
Q 825 641 1194 531 
Q 1563 422 1919 422 
Q 2459 422 2753 634 
Q 3047 847 3047 1241 
Q 3047 1584 2836 1778 
Q 2625 1972 2144 2069 
L 1759 2144 
Q 1053 2284 737 2584 
Q 422 2884 422 3419 
Q 422 4038 858 4394 
Q 1294 4750 2059 4750 
Q 2388 4750 2728 4690 
Q 3069 4631 3425 4513 
z
" transform="scale(0.015625)"/>
     </defs>
     <use xlink:href="#DejaVuSans-46"/>
     <use xlink:href="#DejaVuSans-47" transform="translate(57.519531 0)"/>
     <use xlink:href="#DejaVuSans-53" transform="translate(135.009766 0)"/>
     <use xlink:href="#DejaVuSans-31" transform="translate(198.486328 0)"/>
    </g>
   </g>
   <g id="text_18">
    <!-- FGS2 -->
    <g transform="translate(135.38232 561.372699) scale(0.1 -0.1)">
     <use xlink:href="#DejaVuSans-46"/>
     <use xlink:href="#DejaVuSans-47" transform="translate(57.519531 0)"/>
     <use xlink:href="#DejaVuSans-53" transform="translate(135.009766 0)"/>
     <use xlink:href="#DejaVuSans-32" transform="translate(198.486328 0)"/>
    </g>
   </g>
   <g id="text_19">
    <!-- NIRSpec -->
    <g transform="translate(183.461582 483.33702) scale(0.1 -0.1)">
     <defs>
      <path id="DejaVuSans-4e" d="M 628 4666 
L 1478 4666 
L 3547 763 
L 3547 4666 
L 4159 4666 
L 4159 0 
L 3309 0 
L 1241 3903 
L 1241 0 
L 628 0 
L 628 4666 
z
" transform="scale(0.015625)"/>
      <path id="DejaVuSans-49" d="M 628 4666 
L 1259 4666 
L 1259 0 
L 628 0 
L 628 4666 
z
" transform="scale(0.015625)"/>
      <path id="DejaVuSans-52" d="M 2841 2188 
Q 3044 2119 3236 1894 
Q 3428 1669 3622 1275 
L 4263 0 
L 3584 0 
L 2988 1197 
Q 2756 1666 2539 1819 
Q 2322 1972 1947 1972 
L 1259 1972 
L 1259 0 
L 628 0 
L 628 4666 
L 2053 4666 
Q 2853 4666 3247 4331 
Q 3641 3997 3641 3322 
Q 3641 2881 3436 2590 
Q 3231 2300 2841 2188 
z
M 1259 4147 
L 1259 2491 
L 2053 2491 
Q 2509 2491 2742 2702 
Q 2975 2913 2975 3322 
Q 2975 3731 2742 3939 
Q 2509 4147 2053 4147 
L 1259 4147 
z
" transform="scale(0.015625)"/>
     </defs>
     <use xlink:href="#DejaVuSans-4e"/>
     <use xlink:href="#DejaVuSans-49" transform="translate(74.804688 0)"/>
     <use xlink:href="#DejaVuSans-52" transform="translate(104.296875 0)"/>
     <use xlink:href="#DejaVuSans-53" transform="translate(173.779297 0)"/>
     <use xlink:href="#DejaVuSans-70" transform="translate(237.255859 0)"/>
     <use xlink:href="#DejaVuSans-65" transform="translate(300.732422 0)"/>
     <use xlink:href="#DejaVuSans-63" transform="translate(362.255859 0)"/>
    </g>
   </g>
   <g id="text_20">
    <!-- AIRS-CH0-bin1 -->
    <g transform="translate(245.433144 324.014116) scale(0.1 -0.1)">
     <defs>
      <path id="DejaVuSans-41" d="M 2188 4044 
L 1331 1722 
L 3047 1722 
L 2188 4044 
z
M 1831 4666 
L 2547 4666 
L 4325 0 
L 3669 0 
L 3244 1197 
L 1141 1197 
L 716 0 
L 50 0 
L 1831 4666 
z
" transform="scale(0.015625)"/>
      <path id="DejaVuSans-2d" d="M 313 2009 
L 1997 2009 
L 1997 1497 
L 313 1497 
L 313 2009 
z
" transform="scale(0.015625)"/>
      <path id="DejaVuSans-43" d="M 4122 4306 
L 4122 3641 
Q 3803 3938 3442 4084 
Q 3081 4231 2675 4231 
Q 1875 4231 1450 3742 
Q 1025 3253 1025 2328 
Q 1025 1406 1450 917 
Q 1875 428 2675 428 
Q 3081 428 3442 575 
Q 3803 722 4122 1019 
L 4122 359 
Q 3791 134 3420 21 
Q 3050 -91 2638 -91 
Q 1578 -91 968 557 
Q 359 1206 359 2328 
Q 359 3453 968 4101 
Q 1578 4750 2638 4750 
Q 3056 4750 3426 4639 
Q 3797 4528 4122 4306 
z
" transform="scale(0.015625)"/>
      <path id="DejaVuSans-48" d="M 628 4666 
L 1259 4666 
L 1259 2753 
L 3553 2753 
L 3553 4666 
L 4184 4666 
L 4184 0 
L 3553 0 
L 3553 2222 
L 1259 2222 
L 1259 0 
L 628 0 
L 628 4666 
z
" transform="scale(0.015625)"/>
      <path id="DejaVuSans-62" d="M 3116 1747 
Q 3116 2381 2855 2742 
Q 2594 3103 2138 3103 
Q 1681 3103 1420 2742 
Q 1159 2381 1159 1747 
Q 1159 1113 1420 752 
Q 1681 391 2138 391 
Q 2594 391 2855 752 
Q 3116 1113 3116 1747 
z
M 1159 2969 
Q 1341 3281 1617 3432 
Q 1894 3584 2278 3584 
Q 2916 3584 3314 3078 
Q 3713 2572 3713 1747 
Q 3713 922 3314 415 
Q 2916 -91 2278 -91 
Q 1894 -91 1617 61 
Q 1341 213 1159 525 
L 1159 0 
L 581 0 
L 581 4863 
L 1159 4863 
L 1159 2969 
z
" transform="scale(0.015625)"/>
      <path id="DejaVuSans-6e" d="M 3513 2113 
L 3513 0 
L 2938 0 
L 2938 2094 
Q 2938 2591 2744 2837 
Q 2550 3084 2163 3084 
Q 1697 3084 1428 2787 
Q 1159 2491 1159 1978 
L 1159 0 
L 581 0 
L 581 3500 
L 1159 3500 
L 1159 2956 
Q 1366 3272 1645 3428 
Q 1925 3584 2291 3584 
Q 2894 3584 3203 3211 
Q 3513 2838 3513 2113 
z
" transform="scale(0.015625)"/>
     </defs>
     <use xlink:href="#DejaVuSans-41"/>
     <use xlink:href="#DejaVuSans-49" transform="translate(68.408203 0)"/>
     <use xlink:href="#DejaVuSans-52" transform="translate(97.900391 0)"/>
     <use xlink:href="#DejaVuSans-53" transform="translate(167.382812 0)"/>
     <use xlink:href="#DejaVuSans-2d" transform="translate(230.859375 0)"/>
     <use xlink:href="#DejaVuSans-43" transform="translate(266.943359 0)"/>
     <use xlink:href="#DejaVuSans-48" transform="translate(336.767578 0)"/>
     <use xlink:href="#DejaVuSans-30" transform="translate(411.962891 0)"/>
     <use xlink:href="#DejaVuSans-2d" transform="translate(475.585938 0)"/>
     <use xlink:href="#DejaVuSans-62" transform="translate(511.669922 0)"/>
     <use xlink:href="#DejaVuSans-69" transform="translate(575.146484 0)"/>
     <use xlink:href="#DejaVuSans-6e" transform="translate(602.929688 0)"/>
     <use xlink:href="#DejaVuSans-31" transform="translate(666.308594 0)"/>
    </g>
   </g>
   <g id="text_21">
    <!-- AIRS-CH0-bin2 -->
    <g transform="translate(338.18077 217.154542) scale(0.1 -0.1)">
     <use xlink:href="#DejaVuSans-41"/>
     <use xlink:href="#DejaVuSans-49" transform="translate(68.408203 0)"/>
     <use xlink:href="#DejaVuSans-52" transform="translate(97.900391 0)"/>
     <use xlink:href="#DejaVuSans-53" transform="translate(167.382812 0)"/>
     <use xlink:href="#DejaVuSans-2d" transform="translate(230.859375 0)"/>
     <use xlink:href="#DejaVuSans-43" transform="translate(266.943359 0)"/>
     <use xlink:href="#DejaVuSans-48" transform="translate(336.767578 0)"/>
     <use xlink:href="#DejaVuSans-30" transform="translate(411.962891 0)"/>
     <use xlink:href="#DejaVuSans-2d" transform="translate(475.585938 0)"/>
     <use xlink:href="#DejaVuSans-62" transform="translate(511.669922 0)"/>
     <use xlink:href="#DejaVuSans-69" transform="translate(575.146484 0)"/>
     <use xlink:href="#DejaVuSans-6e" transform="translate(602.929688 0)"/>
     <use xlink:href="#DejaVuSans-32" transform="translate(666.308594 0)"/>
    </g>
   </g>
   <g id="text_22">
    <!-- AIRS-CH1 -->
    <g transform="translate(598.855895 160.690026) scale(0.1 -0.1)">
     <use xlink:href="#DejaVuSans-41"/>
     <use xlink:href="#DejaVuSans-49" transform="translate(68.408203 0)"/>
     <use xlink:href="#DejaVuSans-52" transform="translate(97.900391 0)"/>
     <use xlink:href="#DejaVuSans-53" transform="translate(167.382812 0)"/>
     <use xlink:href="#DejaVuSans-2d" transform="translate(230.859375 0)"/>
     <use xlink:href="#DejaVuSans-43" transform="translate(266.943359 0)"/>
     <use xlink:href="#DejaVuSans-48" transform="translate(336.767578 0)"/>
     <use xlink:href="#DejaVuSans-31" transform="translate(411.962891 0)"/>
    </g>
   </g>
   <g id="text_23">
    <!-- Eclipse depth for 55 Cnc e -->
    <g transform="translate(276.929219 80.4) scale(0.14 -0.14)">
     <defs>
      <path id="DejaVuSans-66" d="M 2375 4863 
L 2375 4384 
L 1825 4384 
Q 1516 4384 1395 4259 
Q 1275 4134 1275 3809 
L 1275 3500 
L 2222 3500 
L 2222 3053 
L 1275 3053 
L 1275 0 
L 697 0 
L 697 3053 
L 147 3053 
L 147 3500 
L 697 3500 
L 697 3744 
Q 697 4328 969 4595 
Q 1241 4863 1831 4863 
L 2375 4863 
z
" transform="scale(0.015625)"/>
      <path id="DejaVuSans-6f" d="M 1959 3097 
Q 1497 3097 1228 2736 
Q 959 2375 959 1747 
Q 959 1119 1226 758 
Q 1494 397 1959 397 
Q 2419 397 2687 759 
Q 2956 1122 2956 1747 
Q 2956 2369 2687 2733 
Q 2419 3097 1959 3097 
z
M 1959 3584 
Q 2709 3584 3137 3096 
Q 3566 2609 3566 1747 
Q 3566 888 3137 398 
Q 2709 -91 1959 -91 
Q 1206 -91 779 398 
Q 353 888 353 1747 
Q 353 2609 779 3096 
Q 1206 3584 1959 3584 
z
" transform="scale(0.015625)"/>
      <path id="DejaVuSans-72" d="M 2631 2963 
Q 2534 3019 2420 3045 
Q 2306 3072 2169 3072 
Q 1681 3072 1420 2755 
Q 1159 2438 1159 1844 
L 1159 0 
L 581 0 
L 581 3500 
L 1159 3500 
L 1159 2956 
Q 1341 3275 1631 3429 
Q 1922 3584 2338 3584 
Q 2397 3584 2469 3576 
Q 2541 3569 2628 3553 
L 2631 2963 
z
" transform="scale(0.015625)"/>
     </defs>
     <use xlink:href="#DejaVuSans-45"/>
     <use xlink:href="#DejaVuSans-63" transform="translate(63.183594 0)"/>
     <use xlink:href="#DejaVuSans-6c" transform="translate(118.164062 0)"/>
     <use xlink:href="#DejaVuSans-69" transform="translate(145.947266 0)"/>
     <use xlink:href="#DejaVuSans-70" transform="translate(173.730469 0)"/>
     <use xlink:href="#DejaVuSans-73" transform="translate(237.207031 0)"/>
     <use xlink:href="#DejaVuSans-65" transform="translate(289.306641 0)"/>
     <use xlink:href="#DejaVuSans-20" transform="translate(350.830078 0)"/>
     <use xlink:href="#DejaVuSans-64" transform="translate(382.617188 0)"/>
     <use xlink:href="#DejaVuSans-65" transform="translate(446.09375 0)"/>
     <use xlink:href="#DejaVuSans-70" transform="translate(507.617188 0)"/>
     <use xlink:href="#DejaVuSans-74" transform="translate(571.09375 0)"/>
     <use xlink:href="#DejaVuSans-68" transform="translate(610.302734 0)"/>
     <use xlink:href="#DejaVuSans-20" transform="translate(673.681641 0)"/>
     <use xlink:href="#DejaVuSans-66" transform="translate(705.46875 0)"/>
     <use xlink:href="#DejaVuSans-6f" transform="translate(740.673828 0)"/>
     <use xlink:href="#DejaVuSans-72" transform="translate(801.855469 0)"/>
     <use xlink:href="#DejaVuSans-20" transform="translate(842.96875 0)"/>
     <use xlink:href="#DejaVuSans-35" transform="translate(874.755859 0)"/>
     <use xlink:href="#DejaVuSans-35" transform="translate(938.378906 0)"/>
     <use xlink:href="#DejaVuSans-20" transform="translate(1002.001953 0)"/>
     <use xlink:href="#DejaVuSans-43" transform="translate(1033.789062 0)"/>
     <use xlink:href="#DejaVuSans-6e" transform="translate(1103.613281 0)"/>
     <use xlink:href="#DejaVuSans-63" transform="translate(1166.992188 0)"/>
     <use xlink:href="#DejaVuSans-20" transform="translate(1221.972656 0)"/>
     <use xlink:href="#DejaVuSans-65" transform="translate(1253.759766 0)"/>
    </g>
   </g>
   <g id="legend_1">
    <g id="patch_7">
     <path d="M 368.085 634.8 
L 639.6 634.8 
Q 642 634.8 642 632.4 
L 642 400.95 
Q 642 398.55 639.6 398.55 
L 368.085 398.55 
Q 365.685 398.55 365.685 400.95 
L 365.685 632.4 
Q 365.685 634.8 368.085 634.8 
z
" style="fill: #ffffff; opacity: 0.8; stroke: #cccccc; stroke-linejoin: miter"/>
    </g>
    <g id="patch_8">
     <path d="M 370.485 412.468125 
L 394.485 412.468125 
L 394.485 404.068125 
L 370.485 404.068125 
z
" style="fill: #1f77b4; fill-opacity: 0.2"/>
    </g>
    <g id="text_24">
     <!-- asymmetric error -->
     <g transform="translate(404.085 412.468125) scale(0.12 -0.12)">
      <defs>
       <path id="DejaVuSans-61" d="M 2194 1759 
Q 1497 1759 1228 1600 
Q 959 1441 959 1056 
Q 959 750 1161 570 
Q 1363 391 1709 391 
Q 2188 391 2477 730 
Q 2766 1069 2766 1631 
L 2766 1759 
L 2194 1759 
z
M 3341 1997 
L 3341 0 
L 2766 0 
L 2766 531 
Q 2569 213 2275 61 
Q 1981 -91 1556 -91 
Q 1019 -91 701 211 
Q 384 513 384 1019 
Q 384 1609 779 1909 
Q 1175 2209 1959 2209 
L 2766 2209 
L 2766 2266 
Q 2766 2663 2505 2880 
Q 2244 3097 1772 3097 
Q 1472 3097 1187 3025 
Q 903 2953 641 2809 
L 641 3341 
Q 956 3463 1253 3523 
Q 1550 3584 1831 3584 
Q 2591 3584 2966 3190 
Q 3341 2797 3341 1997 
z
" transform="scale(0.015625)"/>
       <path id="DejaVuSans-79" d="M 2059 -325 
Q 1816 -950 1584 -1140 
Q 1353 -1331 966 -1331 
L 506 -1331 
L 506 -850 
L 844 -850 
Q 1081 -850 1212 -737 
Q 1344 -625 1503 -206 
L 1606 56 
L 191 3500 
L 800 3500 
L 1894 763 
L 2988 3500 
L 3597 3500 
L 2059 -325 
z
" transform="scale(0.015625)"/>
      </defs>
      <use xlink:href="#DejaVuSans-61"/>
      <use xlink:href="#DejaVuSans-73" transform="translate(61.279297 0)"/>
      <use xlink:href="#DejaVuSans-79" transform="translate(113.378906 0)"/>
      <use xlink:href="#DejaVuSans-6d" transform="translate(172.558594 0)"/>
      <use xlink:href="#DejaVuSans-6d" transform="translate(269.970703 0)"/>
      <use xlink:href="#DejaVuSans-65" transform="translate(367.382812 0)"/>
      <use xlink:href="#DejaVuSans-74" transform="translate(428.90625 0)"/>
      <use xlink:href="#DejaVuSans-72" transform="translate(468.115234 0)"/>
      <use xlink:href="#DejaVuSans-69" transform="translate(509.228516 0)"/>
      <use xlink:href="#DejaVuSans-63" transform="translate(537.011719 0)"/>
      <use xlink:href="#DejaVuSans-20" transform="translate(591.992188 0)"/>
      <use xlink:href="#DejaVuSans-65" transform="translate(623.779297 0)"/>
      <use xlink:href="#DejaVuSans-72" transform="translate(685.302734 0)"/>
      <use xlink:href="#DejaVuSans-72" transform="translate(724.666016 0)"/>
      <use xlink:href="#DejaVuSans-6f" transform="translate(763.529297 0)"/>
      <use xlink:href="#DejaVuSans-72" transform="translate(824.710938 0)"/>
     </g>
    </g>
    <g id="line2d_18">
     <path d="M 370.485 425.881875 
L 382.485 425.881875 
L 394.485 425.881875 
" style="fill: none; stroke: #ff7f0e; stroke-width: 1.5; stroke-linecap: square"/>
    </g>
    <g id="text_25">
     <!-- with initial values -->
     <g transform="translate(404.085 430.081875) scale(0.12 -0.12)">
      <defs>
       <path id="DejaVuSans-77" d="M 269 3500 
L 844 3500 
L 1563 769 
L 2278 3500 
L 2956 3500 
L 3675 769 
L 4391 3500 
L 4966 3500 
L 4050 0 
L 3372 0 
L 2619 2869 
L 1863 0 
L 1184 0 
L 269 3500 
z
" transform="scale(0.015625)"/>
       <path id="DejaVuSans-76" d="M 191 3500 
L 800 3500 
L 1894 563 
L 2988 3500 
L 3597 3500 
L 2284 0 
L 1503 0 
L 191 3500 
z
" transform="scale(0.015625)"/>
       <path id="DejaVuSans-75" d="M 544 1381 
L 544 3500 
L 1119 3500 
L 1119 1403 
Q 1119 906 1312 657 
Q 1506 409 1894 409 
Q 2359 409 2629 706 
Q 2900 1003 2900 1516 
L 2900 3500 
L 3475 3500 
L 3475 0 
L 2900 0 
L 2900 538 
Q 2691 219 2414 64 
Q 2138 -91 1772 -91 
Q 1169 -91 856 284 
Q 544 659 544 1381 
z
M 1991 3584 
L 1991 3584 
z
" transform="scale(0.015625)"/>
      </defs>
      <use xlink:href="#DejaVuSans-77"/>
      <use xlink:href="#DejaVuSans-69" transform="translate(81.787109 0)"/>
      <use xlink:href="#DejaVuSans-74" transform="translate(109.570312 0)"/>
      <use xlink:href="#DejaVuSans-68" transform="translate(148.779297 0)"/>
      <use xlink:href="#DejaVuSans-20" transform="translate(212.158203 0)"/>
      <use xlink:href="#DejaVuSans-69" transform="translate(243.945312 0)"/>
      <use xlink:href="#DejaVuSans-6e" transform="translate(271.728516 0)"/>
      <use xlink:href="#DejaVuSans-69" transform="translate(335.107422 0)"/>
      <use xlink:href="#DejaVuSans-74" transform="translate(362.890625 0)"/>
      <use xlink:href="#DejaVuSans-69" transform="translate(402.099609 0)"/>
      <use xlink:href="#DejaVuSans-61" transform="translate(429.882812 0)"/>
      <use xlink:href="#DejaVuSans-6c" transform="translate(491.162109 0)"/>
      <use xlink:href="#DejaVuSans-20" transform="translate(518.945312 0)"/>
      <use xlink:href="#DejaVuSans-76" transform="translate(550.732422 0)"/>
      <use xlink:href="#DejaVuSans-61" transform="translate(609.912109 0)"/>
      <use xlink:href="#DejaVuSans-6c" transform="translate(671.191406 0)"/>
      <use xlink:href="#DejaVuSans-75" transform="translate(698.974609 0)"/>
      <use xlink:href="#DejaVuSans-65" transform="translate(762.353516 0)"/>
      <use xlink:href="#DejaVuSans-73" transform="translate(823.876953 0)"/>
     </g>
    </g>
    <g id="line2d_19">
     <path d="M 370.485 443.495625 
L 382.485 443.495625 
L 394.485 443.495625 
" style="fill: none; stroke-dasharray: 5.55,2.4; stroke-dashoffset: 0; stroke: #000000; stroke-width: 1.5"/>
    </g>
    <g id="text_26">
     <!-- orlando_gold_granite_slab -->
     <g transform="translate(404.085 447.695625) scale(0.12 -0.12)">
      <defs>
       <path id="DejaVuSans-5f" d="M 3263 -1063 
L 3263 -1509 
L -63 -1509 
L -63 -1063 
L 3263 -1063 
z
" transform="scale(0.015625)"/>
       <path id="DejaVuSans-67" d="M 2906 1791 
Q 2906 2416 2648 2759 
Q 2391 3103 1925 3103 
Q 1463 3103 1205 2759 
Q 947 2416 947 1791 
Q 947 1169 1205 825 
Q 1463 481 1925 481 
Q 2391 481 2648 825 
Q 2906 1169 2906 1791 
z
M 3481 434 
Q 3481 -459 3084 -895 
Q 2688 -1331 1869 -1331 
Q 1566 -1331 1297 -1286 
Q 1028 -1241 775 -1147 
L 775 -588 
Q 1028 -725 1275 -790 
Q 1522 -856 1778 -856 
Q 2344 -856 2625 -561 
Q 2906 -266 2906 331 
L 2906 616 
Q 2728 306 2450 153 
Q 2172 0 1784 0 
Q 1141 0 747 490 
Q 353 981 353 1791 
Q 353 2603 747 3093 
Q 1141 3584 1784 3584 
Q 2172 3584 2450 3431 
Q 2728 3278 2906 2969 
L 2906 3500 
L 3481 3500 
L 3481 434 
z
" transform="scale(0.015625)"/>
      </defs>
      <use xlink:href="#DejaVuSans-6f"/>
      <use xlink:href="#DejaVuSans-72" transform="translate(61.181641 0)"/>
      <use xlink:href="#DejaVuSans-6c" transform="translate(102.294922 0)"/>
      <use xlink:href="#DejaVuSans-61" transform="translate(130.078125 0)"/>
      <use xlink:href="#DejaVuSans-6e" transform="translate(191.357422 0)"/>
      <use xlink:href="#DejaVuSans-64" transform="translate(254.736328 0)"/>
      <use xlink:href="#DejaVuSans-6f" transform="translate(318.212891 0)"/>
      <use xlink:href="#DejaVuSans-5f" transform="translate(379.394531 0)"/>
      <use xlink:href="#DejaVuSans-67" transform="translate(429.394531 0)"/>
      <use xlink:href="#DejaVuSans-6f" transform="translate(492.871094 0)"/>
      <use xlink:href="#DejaVuSans-6c" transform="translate(554.052734 0)"/>
      <use xlink:href="#DejaVuSans-64" transform="translate(581.835938 0)"/>
      <use xlink:href="#DejaVuSans-5f" transform="translate(645.3125 0)"/>
      <use xlink:href="#DejaVuSans-67" transform="translate(695.3125 0)"/>
      <use xlink:href="#DejaVuSans-72" transform="translate(758.789062 0)"/>
      <use xlink:href="#DejaVuSans-61" transform="translate(799.902344 0)"/>
      <use xlink:href="#DejaVuSans-6e" transform="translate(861.181641 0)"/>
      <use xlink:href="#DejaVuSans-69" transform="translate(924.560547 0)"/>
      <use xlink:href="#DejaVuSans-74" transform="translate(952.34375 0)"/>
      <use xlink:href="#DejaVuSans-65" transform="translate(991.552734 0)"/>
      <use xlink:href="#DejaVuSans-5f" transform="translate(1053.076172 0)"/>
      <use xlink:href="#DejaVuSans-73" transform="translate(1103.076172 0)"/>
      <use xlink:href="#DejaVuSans-6c" transform="translate(1155.175781 0)"/>
      <use xlink:href="#DejaVuSans-61" transform="translate(1182.958984 0)"/>
      <use xlink:href="#DejaVuSans-62" transform="translate(1244.238281 0)"/>
     </g>
    </g>
    <g id="line2d_20">
     <path d="M 370.485 461.443125 
L 382.485 461.443125 
L 394.485 461.443125 
" style="fill: none; stroke-dasharray: 5.55,2.4; stroke-dashoffset: 0; stroke: #00ff00; stroke-width: 1.5"/>
    </g>
    <g id="text_27">
     <!-- basaltic_andesite_slab -->
     <g transform="translate(404.085 465.643125) scale(0.12 -0.12)">
      <use xlink:href="#DejaVuSans-62"/>
      <use xlink:href="#DejaVuSans-61" transform="translate(63.476562 0)"/>
      <use xlink:href="#DejaVuSans-73" transform="translate(124.755859 0)"/>
      <use xlink:href="#DejaVuSans-61" transform="translate(176.855469 0)"/>
      <use xlink:href="#DejaVuSans-6c" transform="translate(238.134766 0)"/>
      <use xlink:href="#DejaVuSans-74" transform="translate(265.917969 0)"/>
      <use xlink:href="#DejaVuSans-69" transform="translate(305.126953 0)"/>
      <use xlink:href="#DejaVuSans-63" transform="translate(332.910156 0)"/>
      <use xlink:href="#DejaVuSans-5f" transform="translate(387.890625 0)"/>
      <use xlink:href="#DejaVuSans-61" transform="translate(437.890625 0)"/>
      <use xlink:href="#DejaVuSans-6e" transform="translate(499.169922 0)"/>
      <use xlink:href="#DejaVuSans-64" transform="translate(562.548828 0)"/>
      <use xlink:href="#DejaVuSans-65" transform="translate(626.025391 0)"/>
      <use xlink:href="#DejaVuSans-73" transform="translate(687.548828 0)"/>
      <use xlink:href="#DejaVuSans-69" transform="translate(739.648438 0)"/>
      <use xlink:href="#DejaVuSans-74" transform="translate(767.431641 0)"/>
      <use xlink:href="#DejaVuSans-65" transform="translate(806.640625 0)"/>
      <use xlink:href="#DejaVuSans-5f" transform="translate(868.164062 0)"/>
      <use xlink:href="#DejaVuSans-73" transform="translate(918.164062 0)"/>
      <use xlink:href="#DejaVuSans-6c" transform="translate(970.263672 0)"/>
      <use xlink:href="#DejaVuSans-61" transform="translate(998.046875 0)"/>
      <use xlink:href="#DejaVuSans-62" transform="translate(1059.326172 0)"/>
     </g>
    </g>
    <g id="line2d_21">
     <path d="M 370.485 479.390625 
L 382.485 479.390625 
L 394.485 479.390625 
" style="fill: none; stroke-dasharray: 5.55,2.4; stroke-dashoffset: 0; stroke: #ffff00; stroke-width: 1.5"/>
    </g>
    <g id="text_28">
     <!-- dalmatian_granite_slab -->
     <g transform="translate(404.085 483.590625) scale(0.12 -0.12)">
      <use xlink:href="#DejaVuSans-64"/>
      <use xlink:href="#DejaVuSans-61" transform="translate(63.476562 0)"/>
      <use xlink:href="#DejaVuSans-6c" transform="translate(124.755859 0)"/>
      <use xlink:href="#DejaVuSans-6d" transform="translate(152.539062 0)"/>
      <use xlink:href="#DejaVuSans-61" transform="translate(249.951172 0)"/>
      <use xlink:href="#DejaVuSans-74" transform="translate(311.230469 0)"/>
      <use xlink:href="#DejaVuSans-69" transform="translate(350.439453 0)"/>
      <use xlink:href="#DejaVuSans-61" transform="translate(378.222656 0)"/>
      <use xlink:href="#DejaVuSans-6e" transform="translate(439.501953 0)"/>
      <use xlink:href="#DejaVuSans-5f" transform="translate(502.880859 0)"/>
      <use xlink:href="#DejaVuSans-67" transform="translate(552.880859 0)"/>
      <use xlink:href="#DejaVuSans-72" transform="translate(616.357422 0)"/>
      <use xlink:href="#DejaVuSans-61" transform="translate(657.470703 0)"/>
      <use xlink:href="#DejaVuSans-6e" transform="translate(718.75 0)"/>
      <use xlink:href="#DejaVuSans-69" transform="translate(782.128906 0)"/>
      <use xlink:href="#DejaVuSans-74" transform="translate(809.912109 0)"/>
      <use xlink:href="#DejaVuSans-65" transform="translate(849.121094 0)"/>
      <use xlink:href="#DejaVuSans-5f" transform="translate(910.644531 0)"/>
      <use xlink:href="#DejaVuSans-73" transform="translate(960.644531 0)"/>
      <use xlink:href="#DejaVuSans-6c" transform="translate(1012.744141 0)"/>
      <use xlink:href="#DejaVuSans-61" transform="translate(1040.527344 0)"/>
      <use xlink:href="#DejaVuSans-62" transform="translate(1101.806641 0)"/>
     </g>
    </g>
    <g id="line2d_22">
     <path d="M 370.485 497.338125 
L 382.485 497.338125 
L 394.485 497.338125 
" style="fill: none; stroke-dasharray: 5.55,2.4; stroke-dashoffset: 0; stroke: #800000; stroke-width: 1.5"/>
    </g>
    <g id="text_29">
     <!-- STM_101_andesite_slab -->
     <g transform="translate(404.085 501.538125) scale(0.12 -0.12)">
      <defs>
       <path id="DejaVuSans-54" d="M -19 4666 
L 3928 4666 
L 3928 4134 
L 2272 4134 
L 2272 0 
L 1638 0 
L 1638 4134 
L -19 4134 
L -19 4666 
z
" transform="scale(0.015625)"/>
       <path id="DejaVuSans-4d" d="M 628 4666 
L 1569 4666 
L 2759 1491 
L 3956 4666 
L 4897 4666 
L 4897 0 
L 4281 0 
L 4281 4097 
L 3078 897 
L 2444 897 
L 1241 4097 
L 1241 0 
L 628 0 
L 628 4666 
z
" transform="scale(0.015625)"/>
      </defs>
      <use xlink:href="#DejaVuSans-53"/>
      <use xlink:href="#DejaVuSans-54" transform="translate(63.476562 0)"/>
      <use xlink:href="#DejaVuSans-4d" transform="translate(124.560547 0)"/>
      <use xlink:href="#DejaVuSans-5f" transform="translate(210.839844 0)"/>
      <use xlink:href="#DejaVuSans-31" transform="translate(260.839844 0)"/>
      <use xlink:href="#DejaVuSans-30" transform="translate(324.462891 0)"/>
      <use xlink:href="#DejaVuSans-31" transform="translate(388.085938 0)"/>
      <use xlink:href="#DejaVuSans-5f" transform="translate(451.708984 0)"/>
      <use xlink:href="#DejaVuSans-61" transform="translate(501.708984 0)"/>
      <use xlink:href="#DejaVuSans-6e" transform="translate(562.988281 0)"/>
      <use xlink:href="#DejaVuSans-64" transform="translate(626.367188 0)"/>
      <use xlink:href="#DejaVuSans-65" transform="translate(689.84375 0)"/>
      <use xlink:href="#DejaVuSans-73" transform="translate(751.367188 0)"/>
      <use xlink:href="#DejaVuSans-69" transform="translate(803.466797 0)"/>
      <use xlink:href="#DejaVuSans-74" transform="translate(831.25 0)"/>
      <use xlink:href="#DejaVuSans-65" transform="translate(870.458984 0)"/>
      <use xlink:href="#DejaVuSans-5f" transform="translate(931.982422 0)"/>
      <use xlink:href="#DejaVuSans-73" transform="translate(981.982422 0)"/>
      <use xlink:href="#DejaVuSans-6c" transform="translate(1034.082031 0)"/>
      <use xlink:href="#DejaVuSans-61" transform="translate(1061.865234 0)"/>
      <use xlink:href="#DejaVuSans-62" transform="translate(1123.144531 0)"/>
     </g>
    </g>
    <g id="line2d_23">
     <path d="M 370.485 515.285625 
L 382.485 515.285625 
L 394.485 515.285625 
" style="fill: none; stroke-dasharray: 5.55,2.4; stroke-dashoffset: 0; stroke: #80ff00; stroke-width: 1.5"/>
    </g>
    <g id="text_30">
     <!-- new_basalt_slab -->
     <g transform="translate(404.085 519.485625) scale(0.12 -0.12)">
      <use xlink:href="#DejaVuSans-6e"/>
      <use xlink:href="#DejaVuSans-65" transform="translate(63.378906 0)"/>
      <use xlink:href="#DejaVuSans-77" transform="translate(124.902344 0)"/>
      <use xlink:href="#DejaVuSans-5f" transform="translate(206.689453 0)"/>
      <use xlink:href="#DejaVuSans-62" transform="translate(256.689453 0)"/>
      <use xlink:href="#DejaVuSans-61" transform="translate(320.166016 0)"/>
      <use xlink:href="#DejaVuSans-73" transform="translate(381.445312 0)"/>
      <use xlink:href="#DejaVuSans-61" transform="translate(433.544922 0)"/>
      <use xlink:href="#DejaVuSans-6c" transform="translate(494.824219 0)"/>
      <use xlink:href="#DejaVuSans-74" transform="translate(522.607422 0)"/>
      <use xlink:href="#DejaVuSans-5f" transform="translate(561.816406 0)"/>
      <use xlink:href="#DejaVuSans-73" transform="translate(611.816406 0)"/>
      <use xlink:href="#DejaVuSans-6c" transform="translate(663.916016 0)"/>
      <use xlink:href="#DejaVuSans-61" transform="translate(691.699219 0)"/>
      <use xlink:href="#DejaVuSans-62" transform="translate(752.978516 0)"/>
     </g>
    </g>
    <g id="line2d_24">
     <path d="M 370.485 533.233125 
L 382.485 533.233125 
L 394.485 533.233125 
" style="fill: none; stroke-dasharray: 5.55,2.4; stroke-dashoffset: 0; stroke: #0000ff; stroke-width: 1.5"/>
    </g>
    <g id="text_31">
     <!-- EG_19_70_olivine_pyroxenite_slab -->
     <g transform="translate(404.085 537.433125) scale(0.12 -0.12)">
      <defs>
       <path id="DejaVuSans-39" d="M 703 97 
L 703 672 
Q 941 559 1184 500 
Q 1428 441 1663 441 
Q 2288 441 2617 861 
Q 2947 1281 2994 2138 
Q 2813 1869 2534 1725 
Q 2256 1581 1919 1581 
Q 1219 1581 811 2004 
Q 403 2428 403 3163 
Q 403 3881 828 4315 
Q 1253 4750 1959 4750 
Q 2769 4750 3195 4129 
Q 3622 3509 3622 2328 
Q 3622 1225 3098 567 
Q 2575 -91 1691 -91 
Q 1453 -91 1209 -44 
Q 966 3 703 97 
z
M 1959 2075 
Q 2384 2075 2632 2365 
Q 2881 2656 2881 3163 
Q 2881 3666 2632 3958 
Q 2384 4250 1959 4250 
Q 1534 4250 1286 3958 
Q 1038 3666 1038 3163 
Q 1038 2656 1286 2365 
Q 1534 2075 1959 2075 
z
" transform="scale(0.015625)"/>
       <path id="DejaVuSans-37" d="M 525 4666 
L 3525 4666 
L 3525 4397 
L 1831 0 
L 1172 0 
L 2766 4134 
L 525 4134 
L 525 4666 
z
" transform="scale(0.015625)"/>
       <path id="DejaVuSans-78" d="M 3513 3500 
L 2247 1797 
L 3578 0 
L 2900 0 
L 1881 1375 
L 863 0 
L 184 0 
L 1544 1831 
L 300 3500 
L 978 3500 
L 1906 2253 
L 2834 3500 
L 3513 3500 
z
" transform="scale(0.015625)"/>
      </defs>
      <use xlink:href="#DejaVuSans-45"/>
      <use xlink:href="#DejaVuSans-47" transform="translate(63.183594 0)"/>
      <use xlink:href="#DejaVuSans-5f" transform="translate(140.673828 0)"/>
      <use xlink:href="#DejaVuSans-31" transform="translate(190.673828 0)"/>
      <use xlink:href="#DejaVuSans-39" transform="translate(254.296875 0)"/>
      <use xlink:href="#DejaVuSans-5f" transform="translate(317.919922 0)"/>
      <use xlink:href="#DejaVuSans-37" transform="translate(367.919922 0)"/>
      <use xlink:href="#DejaVuSans-30" transform="translate(431.542969 0)"/>
      <use xlink:href="#DejaVuSans-5f" transform="translate(495.166016 0)"/>
      <use xlink:href="#DejaVuSans-6f" transform="translate(545.166016 0)"/>
      <use xlink:href="#DejaVuSans-6c" transform="translate(606.347656 0)"/>
      <use xlink:href="#DejaVuSans-69" transform="translate(634.130859 0)"/>
      <use xlink:href="#DejaVuSans-76" transform="translate(661.914062 0)"/>
      <use xlink:href="#DejaVuSans-69" transform="translate(721.09375 0)"/>
      <use xlink:href="#DejaVuSans-6e" transform="translate(748.876953 0)"/>
      <use xlink:href="#DejaVuSans-65" transform="translate(812.255859 0)"/>
      <use xlink:href="#DejaVuSans-5f" transform="translate(873.779297 0)"/>
      <use xlink:href="#DejaVuSans-70" transform="translate(923.779297 0)"/>
      <use xlink:href="#DejaVuSans-79" transform="translate(987.255859 0)"/>
      <use xlink:href="#DejaVuSans-72" transform="translate(1046.435547 0)"/>
      <use xlink:href="#DejaVuSans-6f" transform="translate(1085.298828 0)"/>
      <use xlink:href="#DejaVuSans-78" transform="translate(1143.355469 0)"/>
      <use xlink:href="#DejaVuSans-65" transform="translate(1199.410156 0)"/>
      <use xlink:href="#DejaVuSans-6e" transform="translate(1260.933594 0)"/>
      <use xlink:href="#DejaVuSans-69" transform="translate(1324.3125 0)"/>
      <use xlink:href="#DejaVuSans-74" transform="translate(1352.095703 0)"/>
      <use xlink:href="#DejaVuSans-65" transform="translate(1391.304688 0)"/>
      <use xlink:href="#DejaVuSans-5f" transform="translate(1452.828125 0)"/>
      <use xlink:href="#DejaVuSans-73" transform="translate(1502.828125 0)"/>
      <use xlink:href="#DejaVuSans-6c" transform="translate(1554.927734 0)"/>
      <use xlink:href="#DejaVuSans-61" transform="translate(1582.710938 0)"/>
      <use xlink:href="#DejaVuSans-62" transform="translate(1643.990234 0)"/>
     </g>
    </g>
    <g id="line2d_25">
     <path d="M 370.485 551.180625 
L 382.485 551.180625 
L 394.485 551.180625 
" style="fill: none; stroke-dasharray: 5.55,2.4; stroke-dashoffset: 0; stroke: #00ffff; stroke-width: 1.5"/>
    </g>
    <g id="text_32">
     <!-- EG_19_63_olivine_clinopyroxenite_slab -->
     <g transform="translate(404.085 555.380625) scale(0.12 -0.12)">
      <use xlink:href="#DejaVuSans-45"/>
      <use xlink:href="#DejaVuSans-47" transform="translate(63.183594 0)"/>
      <use xlink:href="#DejaVuSans-5f" transform="translate(140.673828 0)"/>
      <use xlink:href="#DejaVuSans-31" transform="translate(190.673828 0)"/>
      <use xlink:href="#DejaVuSans-39" transform="translate(254.296875 0)"/>
      <use xlink:href="#DejaVuSans-5f" transform="translate(317.919922 0)"/>
      <use xlink:href="#DejaVuSans-36" transform="translate(367.919922 0)"/>
      <use xlink:href="#DejaVuSans-33" transform="translate(431.542969 0)"/>
      <use xlink:href="#DejaVuSans-5f" transform="translate(495.166016 0)"/>
      <use xlink:href="#DejaVuSans-6f" transform="translate(545.166016 0)"/>
      <use xlink:href="#DejaVuSans-6c" transform="translate(606.347656 0)"/>
      <use xlink:href="#DejaVuSans-69" transform="translate(634.130859 0)"/>
      <use xlink:href="#DejaVuSans-76" transform="translate(661.914062 0)"/>
      <use xlink:href="#DejaVuSans-69" transform="translate(721.09375 0)"/>
      <use xlink:href="#DejaVuSans-6e" transform="translate(748.876953 0)"/>
      <use xlink:href="#DejaVuSans-65" transform="translate(812.255859 0)"/>
      <use xlink:href="#DejaVuSans-5f" transform="translate(873.779297 0)"/>
      <use xlink:href="#DejaVuSans-63" transform="translate(923.779297 0)"/>
      <use xlink:href="#DejaVuSans-6c" transform="translate(978.759766 0)"/>
      <use xlink:href="#DejaVuSans-69" transform="translate(1006.542969 0)"/>
      <use xlink:href="#DejaVuSans-6e" transform="translate(1034.326172 0)"/>
      <use xlink:href="#DejaVuSans-6f" transform="translate(1097.705078 0)"/>
      <use xlink:href="#DejaVuSans-70" transform="translate(1158.886719 0)"/>
      <use xlink:href="#DejaVuSans-79" transform="translate(1222.363281 0)"/>
      <use xlink:href="#DejaVuSans-72" transform="translate(1281.542969 0)"/>
      <use xlink:href="#DejaVuSans-6f" transform="translate(1320.40625 0)"/>
      <use xlink:href="#DejaVuSans-78" transform="translate(1378.462891 0)"/>
      <use xlink:href="#DejaVuSans-65" transform="translate(1434.517578 0)"/>
      <use xlink:href="#DejaVuSans-6e" transform="translate(1496.041016 0)"/>
      <use xlink:href="#DejaVuSans-69" transform="translate(1559.419922 0)"/>
      <use xlink:href="#DejaVuSans-74" transform="translate(1587.203125 0)"/>
      <use xlink:href="#DejaVuSans-65" transform="translate(1626.412109 0)"/>
      <use xlink:href="#DejaVuSans-5f" transform="translate(1687.935547 0)"/>
      <use xlink:href="#DejaVuSans-73" transform="translate(1737.935547 0)"/>
      <use xlink:href="#DejaVuSans-6c" transform="translate(1790.035156 0)"/>
      <use xlink:href="#DejaVuSans-61" transform="translate(1817.818359 0)"/>
      <use xlink:href="#DejaVuSans-62" transform="translate(1879.097656 0)"/>
     </g>
    </g>
    <g id="line2d_26">
     <path d="M 370.485 569.128125 
L 382.485 569.128125 
L 394.485 569.128125 
" style="fill: none; stroke-dasharray: 5.55,2.4; stroke-dashoffset: 0; stroke: #ff00ff; stroke-width: 1.5"/>
    </g>
    <g id="text_33">
     <!-- EG_19_68_olivine_gabbronorite_slab -->
     <g transform="translate(404.085 573.328125) scale(0.12 -0.12)">
      <use xlink:href="#DejaVuSans-45"/>
      <use xlink:href="#DejaVuSans-47" transform="translate(63.183594 0)"/>
      <use xlink:href="#DejaVuSans-5f" transform="translate(140.673828 0)"/>
      <use xlink:href="#DejaVuSans-31" transform="translate(190.673828 0)"/>
      <use xlink:href="#DejaVuSans-39" transform="translate(254.296875 0)"/>
      <use xlink:href="#DejaVuSans-5f" transform="translate(317.919922 0)"/>
      <use xlink:href="#DejaVuSans-36" transform="translate(367.919922 0)"/>
      <use xlink:href="#DejaVuSans-38" transform="translate(431.542969 0)"/>
      <use xlink:href="#DejaVuSans-5f" transform="translate(495.166016 0)"/>
      <use xlink:href="#DejaVuSans-6f" transform="translate(545.166016 0)"/>
      <use xlink:href="#DejaVuSans-6c" transform="translate(606.347656 0)"/>
      <use xlink:href="#DejaVuSans-69" transform="translate(634.130859 0)"/>
      <use xlink:href="#DejaVuSans-76" transform="translate(661.914062 0)"/>
      <use xlink:href="#DejaVuSans-69" transform="translate(721.09375 0)"/>
      <use xlink:href="#DejaVuSans-6e" transform="translate(748.876953 0)"/>
      <use xlink:href="#DejaVuSans-65" transform="translate(812.255859 0)"/>
      <use xlink:href="#DejaVuSans-5f" transform="translate(873.779297 0)"/>
      <use xlink:href="#DejaVuSans-67" transform="translate(923.779297 0)"/>
      <use xlink:href="#DejaVuSans-61" transform="translate(987.255859 0)"/>
      <use xlink:href="#DejaVuSans-62" transform="translate(1048.535156 0)"/>
      <use xlink:href="#DejaVuSans-62" transform="translate(1112.011719 0)"/>
      <use xlink:href="#DejaVuSans-72" transform="translate(1175.488281 0)"/>
      <use xlink:href="#DejaVuSans-6f" transform="translate(1214.351562 0)"/>
      <use xlink:href="#DejaVuSans-6e" transform="translate(1275.533203 0)"/>
      <use xlink:href="#DejaVuSans-6f" transform="translate(1338.912109 0)"/>
      <use xlink:href="#DejaVuSans-72" transform="translate(1400.09375 0)"/>
      <use xlink:href="#DejaVuSans-69" transform="translate(1441.207031 0)"/>
      <use xlink:href="#DejaVuSans-74" transform="translate(1468.990234 0)"/>
      <use xlink:href="#DejaVuSans-65" transform="translate(1508.199219 0)"/>
      <use xlink:href="#DejaVuSans-5f" transform="translate(1569.722656 0)"/>
      <use xlink:href="#DejaVuSans-73" transform="translate(1619.722656 0)"/>
      <use xlink:href="#DejaVuSans-6c" transform="translate(1671.822266 0)"/>
      <use xlink:href="#DejaVuSans-61" transform="translate(1699.605469 0)"/>
      <use xlink:href="#DejaVuSans-62" transform="translate(1760.884766 0)"/>
     </g>
    </g>
    <g id="line2d_27">
     <path d="M 370.485 587.075625 
L 382.485 587.075625 
L 394.485 587.075625 
" style="fill: none; stroke-dasharray: 5.55,2.4; stroke-dashoffset: 0; stroke: #ff00b2; stroke-width: 1.5"/>
    </g>
    <g id="text_34">
     <!-- hematite_crushed -->
     <g transform="translate(404.085 591.275625) scale(0.12 -0.12)">
      <use xlink:href="#DejaVuSans-68"/>
      <use xlink:href="#DejaVuSans-65" transform="translate(63.378906 0)"/>
      <use xlink:href="#DejaVuSans-6d" transform="translate(124.902344 0)"/>
      <use xlink:href="#DejaVuSans-61" transform="translate(222.314453 0)"/>
      <use xlink:href="#DejaVuSans-74" transform="translate(283.59375 0)"/>
      <use xlink:href="#DejaVuSans-69" transform="translate(322.802734 0)"/>
      <use xlink:href="#DejaVuSans-74" transform="translate(350.585938 0)"/>
      <use xlink:href="#DejaVuSans-65" transform="translate(389.794922 0)"/>
      <use xlink:href="#DejaVuSans-5f" transform="translate(451.318359 0)"/>
      <use xlink:href="#DejaVuSans-63" transform="translate(501.318359 0)"/>
      <use xlink:href="#DejaVuSans-72" transform="translate(556.298828 0)"/>
      <use xlink:href="#DejaVuSans-75" transform="translate(597.412109 0)"/>
      <use xlink:href="#DejaVuSans-73" transform="translate(660.791016 0)"/>
      <use xlink:href="#DejaVuSans-68" transform="translate(712.890625 0)"/>
      <use xlink:href="#DejaVuSans-65" transform="translate(776.269531 0)"/>
      <use xlink:href="#DejaVuSans-64" transform="translate(837.792969 0)"/>
     </g>
    </g>
    <g id="line2d_28">
     <path d="M 370.485 605.023125 
L 382.485 605.023125 
L 394.485 605.023125 
" style="fill: none; stroke-dasharray: 5.55,2.4; stroke-dashoffset: 0; stroke: #ff0000; stroke-width: 1.5"/>
    </g>
    <g id="text_35">
     <!-- dunite_xenolith_crushed -->
     <g transform="translate(404.085 609.223125) scale(0.12 -0.12)">
      <use xlink:href="#DejaVuSans-64"/>
      <use xlink:href="#DejaVuSans-75" transform="translate(63.476562 0)"/>
      <use xlink:href="#DejaVuSans-6e" transform="translate(126.855469 0)"/>
      <use xlink:href="#DejaVuSans-69" transform="translate(190.234375 0)"/>
      <use xlink:href="#DejaVuSans-74" transform="translate(218.017578 0)"/>
      <use xlink:href="#DejaVuSans-65" transform="translate(257.226562 0)"/>
      <use xlink:href="#DejaVuSans-5f" transform="translate(318.75 0)"/>
      <use xlink:href="#DejaVuSans-78" transform="translate(368.75 0)"/>
      <use xlink:href="#DejaVuSans-65" transform="translate(424.804688 0)"/>
      <use xlink:href="#DejaVuSans-6e" transform="translate(486.328125 0)"/>
      <use xlink:href="#DejaVuSans-6f" transform="translate(549.707031 0)"/>
      <use xlink:href="#DejaVuSans-6c" transform="translate(610.888672 0)"/>
      <use xlink:href="#DejaVuSans-69" transform="translate(638.671875 0)"/>
      <use xlink:href="#DejaVuSans-74" transform="translate(666.455078 0)"/>
      <use xlink:href="#DejaVuSans-68" transform="translate(705.664062 0)"/>
      <use xlink:href="#DejaVuSans-5f" transform="translate(769.042969 0)"/>
      <use xlink:href="#DejaVuSans-63" transform="translate(819.042969 0)"/>
      <use xlink:href="#DejaVuSans-72" transform="translate(874.023438 0)"/>
      <use xlink:href="#DejaVuSans-75" transform="translate(915.136719 0)"/>
      <use xlink:href="#DejaVuSans-73" transform="translate(978.515625 0)"/>
      <use xlink:href="#DejaVuSans-68" transform="translate(1030.615234 0)"/>
      <use xlink:href="#DejaVuSans-65" transform="translate(1093.994141 0)"/>
      <use xlink:href="#DejaVuSans-64" transform="translate(1155.517578 0)"/>
     </g>
    </g>
    <g id="line2d_29">
     <path d="M 370.485 622.970625 
L 382.485 622.970625 
L 394.485 622.970625 
" style="fill: none; stroke-dasharray: 5.55,2.4; stroke-dashoffset: 0; stroke: #0080ff; stroke-width: 1.5"/>
    </g>
    <g id="text_36">
     <!-- K1919_basalt_slab -->
     <g transform="translate(404.085 627.170625) scale(0.12 -0.12)">
      <defs>
       <path id="DejaVuSans-4b" d="M 628 4666 
L 1259 4666 
L 1259 2694 
L 3353 4666 
L 4166 4666 
L 1850 2491 
L 4331 0 
L 3500 0 
L 1259 2247 
L 1259 0 
L 628 0 
L 628 4666 
z
" transform="scale(0.015625)"/>
      </defs>
      <use xlink:href="#DejaVuSans-4b"/>
      <use xlink:href="#DejaVuSans-31" transform="translate(65.576172 0)"/>
      <use xlink:href="#DejaVuSans-39" transform="translate(129.199219 0)"/>
      <use xlink:href="#DejaVuSans-31" transform="translate(192.822266 0)"/>
      <use xlink:href="#DejaVuSans-39" transform="translate(256.445312 0)"/>
      <use xlink:href="#DejaVuSans-5f" transform="translate(320.068359 0)"/>
      <use xlink:href="#DejaVuSans-62" transform="translate(370.068359 0)"/>
      <use xlink:href="#DejaVuSans-61" transform="translate(433.544922 0)"/>
      <use xlink:href="#DejaVuSans-73" transform="translate(494.824219 0)"/>
      <use xlink:href="#DejaVuSans-61" transform="translate(546.923828 0)"/>
      <use xlink:href="#DejaVuSans-6c" transform="translate(608.203125 0)"/>
      <use xlink:href="#DejaVuSans-74" transform="translate(635.986328 0)"/>
      <use xlink:href="#DejaVuSans-5f" transform="translate(675.195312 0)"/>
      <use xlink:href="#DejaVuSans-73" transform="translate(725.195312 0)"/>
      <use xlink:href="#DejaVuSans-6c" transform="translate(777.294922 0)"/>
      <use xlink:href="#DejaVuSans-61" transform="translate(805.078125 0)"/>
      <use xlink:href="#DejaVuSans-62" transform="translate(866.357422 0)"/>
     </g>
    </g>
   </g>
   <g id="line2d_30">
    <path d="M 119.972626 606.463666 
L 129.455597 600.02148 
L 138.929104 591.938699 
L 148.402612 582.255727 
L 157.876119 571.453334 
L 167.349627 559.724033 
L 176.823134 548.003219 
L 186.287178 536.072238 
L 195.760685 524.408466 
L 205.224729 512.824142 
L 214.688772 500.774327 
L 224.152815 488.50348 
L 233.616859 475.865264 
L 243.080902 460.736617 
L 252.55441 452.202605 
L 262.018453 441.082415 
L 271.482497 430.55436 
L 280.94654 418.76666 
L 290.420047 405.265027 
L 299.874627 391.543041 
L 309.33867 371.092987 
L 318.812178 315.680474 
L 328.276221 298.262057 
L 337.740265 286.002414 
L 347.204308 278.11554 
L 356.668351 273.409695 
L 366.132395 270.723018 
L 375.605902 270.573965 
L 385.069946 271.170854 
L 394.533989 268.917073 
L 403.998033 262.325495 
L 413.462076 249.717837 
L 422.926119 241.800066 
L 432.390163 233.492857 
L 441.854206 224.241424 
L 451.31825 213.536815 
L 460.791757 202.816248 
L 470.246336 192.933974 
L 479.71038 183.419407 
L 489.174423 178.921353 
L 498.638467 173.075037 
L 508.111974 167.837492 
L 517.576018 162.608097 
L 527.030597 157.251718 
L 536.49464 152.98556 
L 545.958684 149.047726 
L 555.413263 145.238232 
L 564.886771 141.386637 
L 574.350814 137.968958 
L 583.824322 134.325153 
L 593.297829 130.775059 
L 602.752408 127.551249 
L 612.206988 124.560016 
L 621.661567 121.423125 
" clip-path="url(#p4e085f20ca)" style="fill: none; stroke-dasharray: 5.55,2.4; stroke-dashoffset: 0; stroke: #000000; stroke-width: 1.5"/>
   </g>
   <g id="line2d_31">
    <path d="M 119.972626 602.265754 
L 129.455597 591.610376 
L 138.929104 577.95358 
L 148.402612 561.702457 
L 157.876119 544.156717 
L 167.349627 526.180118 
L 176.823134 507.677591 
L 186.287178 489.29288 
L 195.760685 471.317639 
L 205.224729 453.885301 
L 214.688772 436.597602 
L 224.152815 420.053807 
L 233.616859 404.167675 
L 243.080902 388.991156 
L 252.55441 374.606073 
L 262.018453 360.86813 
L 271.482497 347.950823 
L 280.94654 335.622595 
L 290.420047 324.026728 
L 299.874627 313.059665 
L 309.33867 302.621924 
L 318.812178 291.696962 
L 328.276221 281.867654 
L 337.740265 272.717399 
L 347.204308 264.164034 
L 356.668351 256.330805 
L 366.132395 249.100237 
L 375.605902 242.115826 
L 385.069946 235.469584 
L 394.533989 228.675648 
L 403.998033 222.081693 
L 413.462076 216.049655 
L 422.926119 209.987399 
L 432.390163 204.293531 
L 441.854206 198.654665 
L 451.31825 193.190656 
L 460.791757 187.913048 
L 470.246336 182.781097 
L 479.71038 177.604667 
L 489.174423 172.729738 
L 498.638467 167.759741 
L 508.111974 162.867495 
L 517.576018 158.583682 
L 527.030597 154.290702 
L 536.49464 150.171221 
L 545.958684 146.233046 
L 555.413263 142.49757 
L 564.886771 139.017078 
L 574.350814 135.485996 
L 583.824322 132.142673 
L 593.297829 128.862503 
L 602.752408 125.805061 
L 612.206988 122.846083 
L 621.661567 120.044306 
" clip-path="url(#p4e085f20ca)" style="fill: none; stroke-dasharray: 5.55,2.4; stroke-dashoffset: 0; stroke: #00ff00; stroke-width: 1.5"/>
   </g>
   <g id="line2d_32">
    <path d="M 119.972626 603.053457 
L 129.455597 592.807209 
L 138.929104 579.713688 
L 148.402612 564.324624 
L 157.876119 547.521091 
L 167.349627 529.914915 
L 176.823134 512.359329 
L 186.287178 495.190125 
L 195.760685 478.166578 
L 205.224729 462.161273 
L 214.688772 446.183809 
L 224.152815 431.290455 
L 233.616859 416.883303 
L 243.080902 401.85957 
L 252.55441 390.297995 
L 262.018453 378.175521 
L 271.482497 365.086414 
L 280.94654 350.885355 
L 290.420047 339.490488 
L 299.874627 328.581823 
L 309.33867 315.40342 
L 318.812178 291.686436 
L 328.276221 280.665049 
L 337.740265 271.287651 
L 347.204308 262.614093 
L 356.668351 255.551591 
L 366.132395 249.891335 
L 375.605902 245.854019 
L 385.069946 242.444149 
L 394.533989 237.99193 
L 403.998033 232.386339 
L 413.462076 225.176821 
L 422.926119 218.844302 
L 432.390163 212.001813 
L 441.854206 205.19837 
L 451.31825 198.049628 
L 460.791757 191.111393 
L 470.246336 184.093708 
L 479.71038 177.443731 
L 489.174423 172.337244 
L 498.638467 166.930615 
L 508.111974 162.181651 
L 517.576018 157.647606 
L 527.030597 153.239527 
L 536.49464 149.25959 
L 545.958684 145.515965 
L 555.413263 141.787958 
L 564.886771 138.128535 
L 574.350814 134.763822 
L 583.824322 131.351236 
L 593.297829 128.076837 
L 602.752408 125.10224 
L 612.206988 122.114402 
L 621.661567 119.367629 
" clip-path="url(#p4e085f20ca)" style="fill: none; stroke-dasharray: 5.55,2.4; stroke-dashoffset: 0; stroke: #ffff00; stroke-width: 1.5"/>
   </g>
   <g id="line2d_33">
    <path d="M 119.972626 602.52006 
L 129.455597 591.87351 
L 138.929104 578.205509 
L 148.402612 562.067448 
L 157.876119 544.538346 
L 167.349627 526.320682 
L 176.823134 507.561473 
L 186.287178 488.843346 
L 195.760685 470.495983 
L 205.224729 452.530588 
L 214.688772 435.104022 
L 224.152815 418.470932 
L 233.616859 402.712123 
L 243.080902 387.63135 
L 252.55441 373.370534 
L 262.018453 359.713398 
L 271.482497 346.845662 
L 280.94654 334.607749 
L 290.420047 322.922246 
L 299.874627 311.718193 
L 309.33867 301.035993 
L 318.812178 289.725328 
L 328.276221 279.993804 
L 337.740265 270.794997 
L 347.204308 262.059306 
L 356.668351 254.228793 
L 366.132395 246.938468 
L 375.605902 240.116691 
L 385.069946 233.552275 
L 394.533989 226.744418 
L 403.998033 220.280841 
L 413.462076 214.070212 
L 422.926119 208.111173 
L 432.390163 202.296093 
L 441.854206 196.767914 
L 451.31825 191.4224 
L 460.791757 186.242575 
L 470.246336 181.416198 
L 479.71038 176.501544 
L 489.174423 172.080562 
L 498.638467 167.497286 
L 508.111974 163.193102 
L 517.576018 159.10214 
L 527.030597 155.000653 
L 536.49464 151.175542 
L 545.958684 147.392192 
L 555.413263 143.724281 
L 564.886771 140.069272 
L 574.350814 136.863797 
L 583.824322 133.465131 
L 593.297829 130.274935 
L 602.752408 127.382844 
L 612.206988 124.333891 
L 621.661567 121.492728 
" clip-path="url(#p4e085f20ca)" style="fill: none; stroke-dasharray: 5.55,2.4; stroke-dashoffset: 0; stroke: #800000; stroke-width: 1.5"/>
   </g>
   <g id="line2d_34">
    <path d="M 119.972626 602.824276 
L 129.455597 592.392647 
L 138.929104 578.888637 
L 148.402612 562.878239 
L 157.876119 545.390558 
L 167.349627 527.465567 
L 176.823134 509.123637 
L 186.287178 490.984064 
L 195.760685 473.688896 
L 205.224729 456.744798 
L 214.688772 439.9304 
L 224.152815 423.823576 
L 233.616859 408.475934 
L 243.080902 393.518409 
L 252.55441 379.587275 
L 262.018453 366.201421 
L 271.482497 353.457952 
L 280.94654 341.441071 
L 290.420047 330.010553 
L 299.874627 319.096116 
L 309.33867 308.403051 
L 318.812178 294.936389 
L 328.276221 284.95735 
L 337.740265 276.070908 
L 347.204308 267.775244 
L 356.668351 260.607828 
L 366.132395 253.860067 
L 375.605902 247.443005 
L 385.069946 241.62487 
L 394.533989 235.028538 
L 403.998033 228.704847 
L 413.462076 222.644968 
L 422.926119 216.786089 
L 432.390163 210.998511 
L 441.854206 205.531107 
L 451.31825 200.160128 
L 460.791757 195.039381 
L 470.246336 189.789614 
L 479.71038 184.99719 
L 489.174423 180.310019 
L 498.638467 175.231373 
L 508.111974 170.469166 
L 517.576018 166.077044 
L 527.030597 161.37052 
L 536.49464 157.275485 
L 545.958684 153.157361 
L 555.413263 149.334286 
L 564.886771 145.634121 
L 574.350814 142.22459 
L 583.824322 138.877532 
L 593.297829 135.653044 
L 602.752408 132.501214 
L 612.206988 129.258391 
L 621.661567 126.017266 
" clip-path="url(#p4e085f20ca)" style="fill: none; stroke-dasharray: 5.55,2.4; stroke-dashoffset: 0; stroke: #80ff00; stroke-width: 1.5"/>
   </g>
   <g id="line2d_35">
    <path d="M 119.972626 602.743808 
L 129.455597 592.220167 
L 138.929104 578.708688 
L 148.402612 562.750916 
L 157.876119 545.278854 
L 167.349627 527.131473 
L 176.823134 508.564096 
L 186.287178 490.020826 
L 195.760685 471.844924 
L 205.224729 454.737174 
L 214.688772 437.644703 
L 224.152815 421.291722 
L 233.616859 405.604214 
L 243.080902 390.707125 
L 252.55441 376.43918 
L 262.018453 362.873716 
L 271.482497 349.919401 
L 280.94654 337.579629 
L 290.420047 326.013301 
L 299.874627 314.963732 
L 309.33867 304.428887 
L 318.812178 292.715882 
L 328.276221 283.348671 
L 337.740265 274.265982 
L 347.204308 265.785276 
L 356.668351 258.041003 
L 366.132395 250.654252 
L 375.605902 243.677311 
L 385.069946 237.025297 
L 394.533989 230.242225 
L 403.998033 223.742319 
L 413.462076 217.458013 
L 422.926119 211.402548 
L 432.390163 205.530088 
L 441.854206 200.036201 
L 451.31825 194.736184 
L 460.791757 189.547531 
L 470.246336 184.514043 
L 479.71038 179.762022 
L 489.174423 175.043954 
L 498.638467 170.283445 
L 508.111974 165.845148 
L 517.576018 161.449291 
L 527.030597 157.203505 
L 536.49464 153.246317 
L 545.958684 149.574672 
L 555.413263 146.213354 
L 564.886771 142.6052 
L 574.350814 139.436394 
L 583.824322 136.339907 
L 593.297829 133.116437 
L 602.752408 130.036587 
L 612.206988 126.851144 
L 621.661567 123.966183 
" clip-path="url(#p4e085f20ca)" style="fill: none; stroke-dasharray: 5.55,2.4; stroke-dashoffset: 0; stroke: #0000ff; stroke-width: 1.5"/>
   </g>
   <g id="line2d_36">
    <path d="M 119.972626 602.512251 
L 129.455597 591.845669 
L 138.929104 578.178686 
L 148.402612 562.026026 
L 157.876119 544.390651 
L 167.349627 526.216447 
L 176.823134 507.526841 
L 186.287178 488.939772 
L 195.760685 470.77813 
L 205.224729 453.408945 
L 214.688772 436.138901 
L 224.152815 419.639584 
L 233.616859 403.700486 
L 243.080902 388.647215 
L 252.55441 374.333433 
L 262.018453 360.658302 
L 271.482497 347.754916 
L 280.94654 335.381531 
L 290.420047 323.646797 
L 299.874627 312.536114 
L 309.33867 301.99312 
L 318.812178 290.268911 
L 328.276221 280.941424 
L 337.740265 271.810183 
L 347.204308 263.072794 
L 356.668351 255.237189 
L 366.132395 247.750957 
L 375.605902 240.64126 
L 385.069946 234.008599 
L 394.533989 227.132837 
L 403.998033 220.644135 
L 413.462076 214.386991 
L 422.926119 208.332545 
L 432.390163 202.487586 
L 441.854206 197.016108 
L 451.31825 191.537499 
L 460.791757 186.451384 
L 470.246336 181.472559 
L 479.71038 176.727329 
L 489.174423 172.029633 
L 498.638467 167.406972 
L 508.111974 162.990404 
L 517.576018 158.844779 
L 527.030597 154.684214 
L 536.49464 151.013927 
L 545.958684 147.230237 
L 555.413263 143.730732 
L 564.886771 140.314071 
L 574.350814 136.95479 
L 583.824322 133.626067 
L 593.297829 130.507511 
L 602.752408 127.5723 
L 612.206988 124.50637 
L 621.661567 121.734472 
" clip-path="url(#p4e085f20ca)" style="fill: none; stroke-dasharray: 5.55,2.4; stroke-dashoffset: 0; stroke: #00ffff; stroke-width: 1.5"/>
   </g>
   <g id="line2d_37">
    <path d="M 119.972626 603.714516 
L 129.455597 593.94802 
L 138.929104 580.779463 
L 148.402612 565.328606 
L 157.876119 549.341635 
L 167.349627 533.245336 
L 176.823134 515.841519 
L 186.287178 498.028232 
L 195.760685 480.212568 
L 205.224729 463.011449 
L 214.688772 445.47929 
L 224.152815 429.164336 
L 233.616859 413.550506 
L 243.080902 398.792283 
L 252.55441 385.23361 
L 262.018453 372.549558 
L 271.482497 360.958104 
L 280.94654 349.686825 
L 290.420047 338.74251 
L 299.874627 328.193743 
L 309.33867 317.366565 
L 318.812178 299.633746 
L 328.276221 287.890524 
L 337.740265 278.483248 
L 347.204308 269.886762 
L 356.668351 262.35028 
L 366.132395 256.031342 
L 375.605902 250.054308 
L 385.069946 244.508813 
L 394.533989 238.009925 
L 403.998033 231.511378 
L 413.462076 225.158826 
L 422.926119 218.703738 
L 432.390163 212.531476 
L 441.854206 206.477369 
L 451.31825 200.634787 
L 460.791757 194.868939 
L 470.246336 188.889867 
L 479.71038 183.440458 
L 489.174423 178.128218 
L 498.638467 172.72057 
L 508.111974 167.830362 
L 517.576018 163.30175 
L 527.030597 159.01624 
L 536.49464 154.834964 
L 545.958684 150.882869 
L 555.413263 147.194247 
L 564.886771 143.636004 
L 574.350814 140.198971 
L 583.824322 136.740549 
L 593.297829 133.280089 
L 602.752408 130.391732 
L 612.206988 127.121747 
L 621.661567 124.433372 
" clip-path="url(#p4e085f20ca)" style="fill: none; stroke-dasharray: 5.55,2.4; stroke-dashoffset: 0; stroke: #ff00ff; stroke-width: 1.5"/>
   </g>
   <g id="line2d_38">
    <path d="M 119.972626 602.21143 
L 129.455597 591.526174 
L 138.929104 577.844592 
L 148.402612 562.124828 
L 157.876119 545.940253 
L 167.349627 529.414792 
L 176.823134 512.168855 
L 186.287178 494.441808 
L 195.760685 477.062776 
L 205.224729 459.889837 
L 214.688772 443.49068 
L 224.152815 427.799777 
L 233.616859 412.998435 
L 243.080902 398.976986 
L 252.55441 385.386736 
L 262.018453 372.780097 
L 271.482497 360.725189 
L 280.94654 349.120154 
L 290.420047 338.000303 
L 299.874627 327.546944 
L 309.33867 317.066763 
L 318.812178 303.711466 
L 328.276221 290.369071 
L 337.740265 279.916731 
L 347.204308 270.700609 
L 356.668351 262.460287 
L 366.132395 256.27682 
L 375.605902 250.947264 
L 385.069946 245.99696 
L 394.533989 240.492887 
L 403.998033 235.086258 
L 413.462076 230.530484 
L 422.926119 225.817509 
L 432.390163 220.952086 
L 441.854206 216.160001 
L 451.31825 211.689109 
L 460.791757 207.052188 
L 470.246336 202.581975 
L 479.71038 197.350202 
L 489.174423 191.773471 
L 498.638467 186.927061 
L 508.111974 182.960706 
L 517.576018 179.349157 
L 527.030597 175.605192 
L 536.49464 172.092106 
L 545.958684 168.871692 
L 555.413263 165.779279 
L 564.886771 162.704183 
L 574.350814 159.542846 
L 583.824322 156.415123 
L 593.297829 153.498586 
L 602.752408 151.035996 
L 612.206988 148.228447 
L 621.661567 145.046739 
" clip-path="url(#p4e085f20ca)" style="fill: none; stroke-dasharray: 5.55,2.4; stroke-dashoffset: 0; stroke: #ff00b2; stroke-width: 1.5"/>
   </g>
   <g id="line2d_39">
    <path d="M 119.972626 604.303935 
L 129.455597 593.220074 
L 138.929104 578.101274 
L 148.402612 561.155818 
L 157.876119 542.788763 
L 167.349627 524.708947 
L 176.823134 507.037582 
L 186.287178 491.728647 
L 195.760685 484.201332 
L 205.224729 481.819889 
L 214.688772 481.394802 
L 224.152815 477.88545 
L 233.616859 471.007311 
L 243.080902 462.854927 
L 252.55441 454.56809 
L 262.018453 446.317583 
L 271.482497 438.325795 
L 280.94654 430.506147 
L 290.420047 422.968986 
L 299.874627 415.286507 
L 309.33867 406.085324 
L 318.812178 390.068475 
L 328.276221 374.606073 
L 337.740265 363.577216 
L 347.204308 354.54342 
L 356.668351 346.341125 
L 366.132395 337.582346 
L 375.605902 324.266774 
L 385.069946 312.826749 
L 394.533989 298.772706 
L 403.998033 283.867807 
L 413.462076 269.509208 
L 422.926119 257.025478 
L 432.390163 246.686539 
L 441.854206 236.147619 
L 451.31825 227.269326 
L 460.791757 214.262724 
L 470.246336 206.266522 
L 479.71038 199.453233 
L 489.174423 191.675687 
L 498.638467 184.107968 
L 508.111974 177.499753 
L 517.576018 168.989508 
L 527.030597 160.175385 
L 536.49464 156.011425 
L 545.958684 151.12631 
L 555.413263 146.627916 
L 564.886771 142.801786 
L 574.350814 138.825245 
L 583.824322 135.342716 
L 593.297829 131.882935 
L 602.752408 129.154496 
L 612.206988 126.059028 
L 621.661567 123.571313 
" clip-path="url(#p4e085f20ca)" style="fill: none; stroke-dasharray: 5.55,2.4; stroke-dashoffset: 0; stroke: #ff0000; stroke-width: 1.5"/>
   </g>
   <g id="line2d_40">
    <path d="M 119.972626 602.759426 
L 129.455597 592.514197 
L 138.929104 579.280451 
L 148.402612 563.537261 
L 157.876119 546.550043 
L 167.349627 529.043689 
L 176.823134 510.811086 
L 186.287178 492.538419 
L 195.760685 474.572345 
L 205.224729 457.493116 
L 214.688772 441.039974 
L 224.152815 424.513155 
L 233.616859 409.312868 
L 243.080902 394.588259 
L 252.55441 380.638111 
L 262.018453 367.409797 
L 271.482497 354.745099 
L 280.94654 342.883042 
L 290.420047 331.573056 
L 299.874627 320.843662 
L 309.33867 310.517965 
L 318.812178 299.334283 
L 328.276221 289.591215 
L 337.740265 280.597143 
L 347.204308 272.230857 
L 356.668351 265.220982 
L 366.132395 258.392413 
L 375.605902 252.086038 
L 385.069946 245.893744 
L 394.533989 239.50724 
L 403.998033 233.589283 
L 413.462076 228.180617 
L 422.926119 222.7655 
L 432.390163 217.724542 
L 441.854206 212.902918 
L 451.31825 208.438477 
L 460.791757 203.849769 
L 470.246336 199.517064 
L 479.71038 195.188094 
L 489.174423 190.704639 
L 498.638467 185.8365 
L 508.111974 180.881103 
L 517.576018 176.015341 
L 527.030597 170.997131 
L 536.49464 166.055654 
L 545.958684 161.504973 
L 555.413263 157.396696 
L 564.886771 153.376016 
L 574.350814 149.847991 
L 583.824322 146.392624 
L 593.297829 142.790921 
L 602.752408 139.456426 
L 612.206988 135.81398 
L 621.661567 132.487293 
" clip-path="url(#p4e085f20ca)" style="fill: none; stroke-dasharray: 5.55,2.4; stroke-dashoffset: 0; stroke: #0080ff; stroke-width: 1.5"/>
   </g>
  </g>
 </g>
 <defs>
  <clipPath id="p4e085f20ca">
   <rect x="90" y="86.4" width="558" height="554.4"/>
  </clipPath>
 </defs>
</svg>
