<?xml version="1.0" encoding="utf-8" standalone="no"?>
<!DOCTYPE svg PUBLIC "-//W3C//DTD SVG 1.1//EN"
  "http://www.w3.org/Graphics/SVG/1.1/DTD/svg11.dtd">
<svg xmlns:xlink="http://www.w3.org/1999/xlink" width="720pt" height="720pt" viewBox="0 0 720 720" xmlns="http://www.w3.org/2000/svg" version="1.1">
 <metadata>
  <rdf:RDF xmlns:dc="http://purl.org/dc/elements/1.1/" xmlns:cc="http://creativecommons.org/ns#" xmlns:rdf="http://www.w3.org/1999/02/22-rdf-syntax-ns#">
   <cc:Work>
    <dc:type rdf:resource="http://purl.org/dc/dcmitype/StillImage"/>
    <dc:date>2025-12-07T11:03:46.476462</dc:date>
    <dc:format>image/svg+xml</dc:format>
    <dc:creator>
     <cc:Agent>
      <dc:title>Matplotlib v3.10.7, https://matplotlib.org/</dc:title>
     </cc:Agent>
    </dc:creator>
   </cc:Work>
  </rdf:RDF>
 </metadata>
 <defs>
  <style type="text/css">*{stroke-linejoin: round; stroke-linecap: butt}</style>
 </defs>
 <g id="figure_1">
  <g id="patch_1">
   <path d="M 0 720 
L 720 720 
L 720 0 
L 0 0 
z
" style="fill: #ffffff"/>
  </g>
  <g id="axes_1">
   <g id="patch_2">
    <path d="M 90 640.8 
L 648 640.8 
L 648 86.4 
L 90 86.4 
z
" style="fill: #ffffff"/>
   </g>
   <g id="FillBetweenPolyCollection_1">
    <path d="M 124.82768 590.008168 
L 124.82768 608.821447 
L 148.487788 592.715379 
L 204.325645 524.349019 
L 281.930801 376.476947 
L 374.678426 283.42757 
L 622.636364 218.069498 
L 622.636364 188.066418 
L 622.636364 188.066418 
L 374.678426 249.058758 
L 281.930801 348.475836 
L 204.325645 498.926897 
L 148.487788 551.579869 
L 124.82768 590.008168 
z
" clip-path="url(#p86b7804cba)" style="fill: #1f77b4; fill-opacity: 0.2"/>
   </g>
   <g id="matplotlib.axis_1">
    <g id="xtick_1">
     <g id="line2d_1">
      <defs>
       <path id="m224a255e43" d="M 0 0 
L 0 3.5 
" style="stroke: #000000; stroke-width: 0.8"/>
      </defs>
      <g>
       <use xlink:href="#m224a255e43" x="153.21981" y="640.8" style="stroke: #000000; stroke-width: 0.8"/>
      </g>
     </g>
     <g id="text_1">
      <!-- 1 -->
      <g transform="translate(148.76606 658.437813) scale(0.14 -0.14)">
       <defs>
        <path id="DejaVuSans-31" d="M 794 531 
L 1825 531 
L 1825 4091 
L 703 3866 
L 703 4441 
L 1819 4666 
L 2450 4666 
L 2450 531 
L 3481 531 
L 3481 0 
L 794 0 
L 794 531 
z
" transform="scale(0.015625)"/>
       </defs>
       <use xlink:href="#DejaVuSans-31"/>
      </g>
     </g>
    </g>
    <g id="xtick_2">
     <g id="line2d_2">
      <g>
       <use xlink:href="#m224a255e43" x="247.860244" y="640.8" style="stroke: #000000; stroke-width: 0.8"/>
      </g>
     </g>
     <g id="text_2">
      <!-- 2 -->
      <g transform="translate(243.406494 658.437813) scale(0.14 -0.14)">
       <defs>
        <path id="DejaVuSans-32" d="M 1228 531 
L 3431 531 
L 3431 0 
L 469 0 
L 469 531 
Q 828 903 1448 1529 
Q 2069 2156 2228 2338 
Q 2531 2678 2651 2914 
Q 2772 3150 2772 3378 
Q 2772 3750 2511 3984 
Q 2250 4219 1831 4219 
Q 1534 4219 1204 4116 
Q 875 4013 500 3803 
L 500 4441 
Q 881 4594 1212 4672 
Q 1544 4750 1819 4750 
Q 2544 4750 2975 4387 
Q 3406 4025 3406 3419 
Q 3406 3131 3298 2873 
Q 3191 2616 2906 2266 
Q 2828 2175 2409 1742 
Q 1991 1309 1228 531 
z
" transform="scale(0.015625)"/>
       </defs>
       <use xlink:href="#DejaVuSans-32"/>
      </g>
     </g>
    </g>
    <g id="xtick_3">
     <g id="line2d_3">
      <g>
       <use xlink:href="#m224a255e43" x="342.500678" y="640.8" style="stroke: #000000; stroke-width: 0.8"/>
      </g>
     </g>
     <g id="text_3">
      <!-- 3 -->
      <g transform="translate(338.046928 658.437813) scale(0.14 -0.14)">
       <defs>
        <path id="DejaVuSans-33" d="M 2597 2516 
Q 3050 2419 3304 2112 
Q 3559 1806 3559 1356 
Q 3559 666 3084 287 
Q 2609 -91 1734 -91 
Q 1441 -91 1130 -33 
Q 819 25 488 141 
L 488 750 
Q 750 597 1062 519 
Q 1375 441 1716 441 
Q 2309 441 2620 675 
Q 2931 909 2931 1356 
Q 2931 1769 2642 2001 
Q 2353 2234 1838 2234 
L 1294 2234 
L 1294 2753 
L 1863 2753 
Q 2328 2753 2575 2939 
Q 2822 3125 2822 3475 
Q 2822 3834 2567 4026 
Q 2313 4219 1838 4219 
Q 1578 4219 1281 4162 
Q 984 4106 628 3988 
L 628 4550 
Q 988 4650 1302 4700 
Q 1616 4750 1894 4750 
Q 2613 4750 3031 4423 
Q 3450 4097 3450 3541 
Q 3450 3153 3228 2886 
Q 3006 2619 2597 2516 
z
" transform="scale(0.015625)"/>
       </defs>
       <use xlink:href="#DejaVuSans-33"/>
      </g>
     </g>
    </g>
    <g id="xtick_4">
     <g id="line2d_4">
      <g>
       <use xlink:href="#m224a255e43" x="437.141113" y="640.8" style="stroke: #000000; stroke-width: 0.8"/>
      </g>
     </g>
     <g id="text_4">
      <!-- 4 -->
      <g transform="translate(432.687363 658.437813) scale(0.14 -0.14)">
       <defs>
        <path id="DejaVuSans-34" d="M 2419 4116 
L 825 1625 
L 2419 1625 
L 2419 4116 
z
M 2253 4666 
L 3047 4666 
L 3047 1625 
L 3713 1625 
L 3713 1100 
L 3047 1100 
L 3047 0 
L 2419 0 
L 2419 1100 
L 313 1100 
L 313 1709 
L 2253 4666 
z
" transform="scale(0.015625)"/>
       </defs>
       <use xlink:href="#DejaVuSans-34"/>
      </g>
     </g>
    </g>
    <g id="xtick_5">
     <g id="line2d_5">
      <g>
       <use xlink:href="#m224a255e43" x="531.781547" y="640.8" style="stroke: #000000; stroke-width: 0.8"/>
      </g>
     </g>
     <g id="text_5">
      <!-- 5 -->
      <g transform="translate(527.327797 658.437813) scale(0.14 -0.14)">
       <defs>
        <path id="DejaVuSans-35" d="M 691 4666 
L 3169 4666 
L 3169 4134 
L 1269 4134 
L 1269 2991 
Q 1406 3038 1543 3061 
Q 1681 3084 1819 3084 
Q 2600 3084 3056 2656 
Q 3513 2228 3513 1497 
Q 3513 744 3044 326 
Q 2575 -91 1722 -91 
Q 1428 -91 1123 -41 
Q 819 9 494 109 
L 494 744 
Q 775 591 1075 516 
Q 1375 441 1709 441 
Q 2250 441 2565 725 
Q 2881 1009 2881 1497 
Q 2881 1984 2565 2268 
Q 2250 2553 1709 2553 
Q 1456 2553 1204 2497 
Q 953 2441 691 2322 
L 691 4666 
z
" transform="scale(0.015625)"/>
       </defs>
       <use xlink:href="#DejaVuSans-35"/>
      </g>
     </g>
    </g>
    <g id="xtick_6">
     <g id="line2d_6">
      <g>
       <use xlink:href="#m224a255e43" x="626.421981" y="640.8" style="stroke: #000000; stroke-width: 0.8"/>
      </g>
     </g>
     <g id="text_6">
      <!-- 6 -->
      <g transform="translate(621.968231 658.437813) scale(0.14 -0.14)">
       <defs>
        <path id="DejaVuSans-36" d="M 2113 2584 
Q 1688 2584 1439 2293 
Q 1191 2003 1191 1497 
Q 1191 994 1439 701 
Q 1688 409 2113 409 
Q 2538 409 2786 701 
Q 3034 994 3034 1497 
Q 3034 2003 2786 2293 
Q 2538 2584 2113 2584 
z
M 3366 4563 
L 3366 3988 
Q 3128 4100 2886 4159 
Q 2644 4219 2406 4219 
Q 1781 4219 1451 3797 
Q 1122 3375 1075 2522 
Q 1259 2794 1537 2939 
Q 1816 3084 2150 3084 
Q 2853 3084 3261 2657 
Q 3669 2231 3669 1497 
Q 3669 778 3244 343 
Q 2819 -91 2113 -91 
Q 1303 -91 875 529 
Q 447 1150 447 2328 
Q 447 3434 972 4092 
Q 1497 4750 2381 4750 
Q 2619 4750 2861 4703 
Q 3103 4656 3366 4563 
z
" transform="scale(0.015625)"/>
       </defs>
       <use xlink:href="#DejaVuSans-36"/>
      </g>
     </g>
    </g>
    <g id="text_7">
     <!-- $\lambda$ ($\mu$m) -->
     <g transform="translate(345.83 675.989375) scale(0.14 -0.14)">
      <defs>
       <path id="DejaVuSans-Oblique-3bb" d="M 2350 4316 
L 3125 0 
L 2516 0 
L 2038 2588 
L 328 0 
L -281 0 
L 1903 3356 
L 1794 3975 
Q 1725 4369 1391 4369 
L 1091 4369 
L 1184 4863 
L 1550 4856 
Q 2253 4847 2350 4316 
z
" transform="scale(0.015625)"/>
       <path id="DejaVuSans-20" transform="scale(0.015625)"/>
       <path id="DejaVuSans-28" d="M 1984 4856 
Q 1566 4138 1362 3434 
Q 1159 2731 1159 2009 
Q 1159 1288 1364 580 
Q 1569 -128 1984 -844 
L 1484 -844 
Q 1016 -109 783 600 
Q 550 1309 550 2009 
Q 550 2706 781 3412 
Q 1013 4119 1484 4856 
L 1984 4856 
z
" transform="scale(0.015625)"/>
       <path id="DejaVuSans-Oblique-3bc" d="M -84 -1331 
L 856 3500 
L 1434 3500 
L 1009 1322 
Q 997 1256 987 1175 
Q 978 1094 978 1013 
Q 978 722 1161 565 
Q 1344 409 1684 409 
Q 2147 409 2431 671 
Q 2716 934 2816 1459 
L 3213 3500 
L 3788 3500 
L 3266 809 
Q 3253 750 3248 706 
Q 3244 663 3244 628 
Q 3244 531 3283 486 
Q 3322 441 3406 441 
Q 3438 441 3492 456 
Q 3547 472 3647 513 
L 3559 50 
Q 3422 -19 3297 -55 
Q 3172 -91 3053 -91 
Q 2847 -91 2730 40 
Q 2613 172 2613 403 
Q 2438 153 2195 31 
Q 1953 -91 1625 -91 
Q 1334 -91 1117 43 
Q 900 178 831 397 
L 494 -1331 
L -84 -1331 
z
" transform="scale(0.015625)"/>
       <path id="DejaVuSans-6d" d="M 3328 2828 
Q 3544 3216 3844 3400 
Q 4144 3584 4550 3584 
Q 5097 3584 5394 3201 
Q 5691 2819 5691 2113 
L 5691 0 
L 5113 0 
L 5113 2094 
Q 5113 2597 4934 2840 
Q 4756 3084 4391 3084 
Q 3944 3084 3684 2787 
Q 3425 2491 3425 1978 
L 3425 0 
L 2847 0 
L 2847 2094 
Q 2847 2600 2669 2842 
Q 2491 3084 2119 3084 
Q 1678 3084 1418 2786 
Q 1159 2488 1159 1978 
L 1159 0 
L 581 0 
L 581 3500 
L 1159 3500 
L 1159 2956 
Q 1356 3278 1631 3431 
Q 1906 3584 2284 3584 
Q 2666 3584 2933 3390 
Q 3200 3197 3328 2828 
z
" transform="scale(0.015625)"/>
       <path id="DejaVuSans-29" d="M 513 4856 
L 1013 4856 
Q 1481 4119 1714 3412 
Q 1947 2706 1947 2009 
Q 1947 1309 1714 600 
Q 1481 -109 1013 -844 
L 513 -844 
Q 928 -128 1133 580 
Q 1338 1288 1338 2009 
Q 1338 2731 1133 3434 
Q 928 4138 513 4856 
z
" transform="scale(0.015625)"/>
      </defs>
      <use xlink:href="#DejaVuSans-Oblique-3bb" transform="translate(0 0.015625)"/>
      <use xlink:href="#DejaVuSans-20" transform="translate(59.179688 0.015625)"/>
      <use xlink:href="#DejaVuSans-28" transform="translate(90.966797 0.015625)"/>
      <use xlink:href="#DejaVuSans-Oblique-3bc" transform="translate(129.980469 0.015625)"/>
      <use xlink:href="#DejaVuSans-6d" transform="translate(193.603516 0.015625)"/>
      <use xlink:href="#DejaVuSans-29" transform="translate(291.015625 0.015625)"/>
     </g>
    </g>
   </g>
   <g id="matplotlib.axis_2">
    <g id="ytick_1">
     <g id="line2d_7">
      <defs>
       <path id="mec2976b868" d="M 0 0 
L -3.5 0 
" style="stroke: #000000; stroke-width: 0.8"/>
      </defs>
      <g>
       <use xlink:href="#mec2976b868" x="90" y="615.6" style="stroke: #000000; stroke-width: 0.8"/>
      </g>
     </g>
     <g id="text_8">
      <!-- 0 -->
      <g transform="translate(74.0925 620.918906) scale(0.14 -0.14)">
       <defs>
        <path id="DejaVuSans-30" d="M 2034 4250 
Q 1547 4250 1301 3770 
Q 1056 3291 1056 2328 
Q 1056 1369 1301 889 
Q 1547 409 2034 409 
Q 2525 409 2770 889 
Q 3016 1369 3016 2328 
Q 3016 3291 2770 3770 
Q 2525 4250 2034 4250 
z
M 2034 4750 
Q 2819 4750 3233 4129 
Q 3647 3509 3647 2328 
Q 3647 1150 3233 529 
Q 2819 -91 2034 -91 
Q 1250 -91 836 529 
Q 422 1150 422 2328 
Q 422 3509 836 4129 
Q 1250 4750 2034 4750 
z
" transform="scale(0.015625)"/>
       </defs>
       <use xlink:href="#DejaVuSans-30"/>
      </g>
     </g>
    </g>
    <g id="ytick_2">
     <g id="line2d_8">
      <g>
       <use xlink:href="#mec2976b868" x="90" y="539.12146" style="stroke: #000000; stroke-width: 0.8"/>
      </g>
     </g>
     <g id="text_9">
      <!-- 25 -->
      <g transform="translate(65.185 544.440367) scale(0.14 -0.14)">
       <use xlink:href="#DejaVuSans-32"/>
       <use xlink:href="#DejaVuSans-35" transform="translate(63.623047 0)"/>
      </g>
     </g>
    </g>
    <g id="ytick_3">
     <g id="line2d_9">
      <g>
       <use xlink:href="#mec2976b868" x="90" y="462.642921" style="stroke: #000000; stroke-width: 0.8"/>
      </g>
     </g>
     <g id="text_10">
      <!-- 50 -->
      <g transform="translate(65.185 467.961827) scale(0.14 -0.14)">
       <use xlink:href="#DejaVuSans-35"/>
       <use xlink:href="#DejaVuSans-30" transform="translate(63.623047 0)"/>
      </g>
     </g>
    </g>
    <g id="ytick_4">
     <g id="line2d_10">
      <g>
       <use xlink:href="#mec2976b868" x="90" y="386.164381" style="stroke: #000000; stroke-width: 0.8"/>
      </g>
     </g>
     <g id="text_11">
      <!-- 75 -->
      <g transform="translate(65.185 391.483288) scale(0.14 -0.14)">
       <defs>
        <path id="DejaVuSans-37" d="M 525 4666 
L 3525 4666 
L 3525 4397 
L 1831 0 
L 1172 0 
L 2766 4134 
L 525 4134 
L 525 4666 
z
" transform="scale(0.015625)"/>
       </defs>
       <use xlink:href="#DejaVuSans-37"/>
       <use xlink:href="#DejaVuSans-35" transform="translate(63.623047 0)"/>
      </g>
     </g>
    </g>
    <g id="ytick_5">
     <g id="line2d_11">
      <g>
       <use xlink:href="#mec2976b868" x="90" y="309.685842" style="stroke: #000000; stroke-width: 0.8"/>
      </g>
     </g>
     <g id="text_12">
      <!-- 100 -->
      <g transform="translate(56.2775 315.004748) scale(0.14 -0.14)">
       <use xlink:href="#DejaVuSans-31"/>
       <use xlink:href="#DejaVuSans-30" transform="translate(63.623047 0)"/>
       <use xlink:href="#DejaVuSans-30" transform="translate(127.246094 0)"/>
      </g>
     </g>
    </g>
    <g id="ytick_6">
     <g id="line2d_12">
      <g>
       <use xlink:href="#mec2976b868" x="90" y="233.207302" style="stroke: #000000; stroke-width: 0.8"/>
      </g>
     </g>
     <g id="text_13">
      <!-- 125 -->
      <g transform="translate(56.2775 238.526208) scale(0.14 -0.14)">
       <use xlink:href="#DejaVuSans-31"/>
       <use xlink:href="#DejaVuSans-32" transform="translate(63.623047 0)"/>
       <use xlink:href="#DejaVuSans-35" transform="translate(127.246094 0)"/>
      </g>
     </g>
    </g>
    <g id="ytick_7">
     <g id="line2d_13">
      <g>
       <use xlink:href="#mec2976b868" x="90" y="156.728763" style="stroke: #000000; stroke-width: 0.8"/>
      </g>
     </g>
     <g id="text_14">
      <!-- 150 -->
      <g transform="translate(56.2775 162.047669) scale(0.14 -0.14)">
       <use xlink:href="#DejaVuSans-31"/>
       <use xlink:href="#DejaVuSans-35" transform="translate(63.623047 0)"/>
       <use xlink:href="#DejaVuSans-30" transform="translate(127.246094 0)"/>
      </g>
     </g>
    </g>
    <g id="text_15">
     <!-- Eclipse depth (ppm) -->
     <g transform="translate(49.365937 434.152344) rotate(-90) scale(0.14 -0.14)">
      <defs>
       <path id="DejaVuSans-45" d="M 628 4666 
L 3578 4666 
L 3578 4134 
L 1259 4134 
L 1259 2753 
L 3481 2753 
L 3481 2222 
L 1259 2222 
L 1259 531 
L 3634 531 
L 3634 0 
L 628 0 
L 628 4666 
z
" transform="scale(0.015625)"/>
       <path id="DejaVuSans-63" d="M 3122 3366 
L 3122 2828 
Q 2878 2963 2633 3030 
Q 2388 3097 2138 3097 
Q 1578 3097 1268 2742 
Q 959 2388 959 1747 
Q 959 1106 1268 751 
Q 1578 397 2138 397 
Q 2388 397 2633 464 
Q 2878 531 3122 666 
L 3122 134 
Q 2881 22 2623 -34 
Q 2366 -91 2075 -91 
Q 1284 -91 818 406 
Q 353 903 353 1747 
Q 353 2603 823 3093 
Q 1294 3584 2113 3584 
Q 2378 3584 2631 3529 
Q 2884 3475 3122 3366 
z
" transform="scale(0.015625)"/>
       <path id="DejaVuSans-6c" d="M 603 4863 
L 1178 4863 
L 1178 0 
L 603 0 
L 603 4863 
z
" transform="scale(0.015625)"/>
       <path id="DejaVuSans-69" d="M 603 3500 
L 1178 3500 
L 1178 0 
L 603 0 
L 603 3500 
z
M 603 4863 
L 1178 4863 
L 1178 4134 
L 603 4134 
L 603 4863 
z
" transform="scale(0.015625)"/>
       <path id="DejaVuSans-70" d="M 1159 525 
L 1159 -1331 
L 581 -1331 
L 581 3500 
L 1159 3500 
L 1159 2969 
Q 1341 3281 1617 3432 
Q 1894 3584 2278 3584 
Q 2916 3584 3314 3078 
Q 3713 2572 3713 1747 
Q 3713 922 3314 415 
Q 2916 -91 2278 -91 
Q 1894 -91 1617 61 
Q 1341 213 1159 525 
z
M 3116 1747 
Q 3116 2381 2855 2742 
Q 2594 3103 2138 3103 
Q 1681 3103 1420 2742 
Q 1159 2381 1159 1747 
Q 1159 1113 1420 752 
Q 1681 391 2138 391 
Q 2594 391 2855 752 
Q 3116 1113 3116 1747 
z
" transform="scale(0.015625)"/>
       <path id="DejaVuSans-73" d="M 2834 3397 
L 2834 2853 
Q 2591 2978 2328 3040 
Q 2066 3103 1784 3103 
Q 1356 3103 1142 2972 
Q 928 2841 928 2578 
Q 928 2378 1081 2264 
Q 1234 2150 1697 2047 
L 1894 2003 
Q 2506 1872 2764 1633 
Q 3022 1394 3022 966 
Q 3022 478 2636 193 
Q 2250 -91 1575 -91 
Q 1294 -91 989 -36 
Q 684 19 347 128 
L 347 722 
Q 666 556 975 473 
Q 1284 391 1588 391 
Q 1994 391 2212 530 
Q 2431 669 2431 922 
Q 2431 1156 2273 1281 
Q 2116 1406 1581 1522 
L 1381 1569 
Q 847 1681 609 1914 
Q 372 2147 372 2553 
Q 372 3047 722 3315 
Q 1072 3584 1716 3584 
Q 2034 3584 2315 3537 
Q 2597 3491 2834 3397 
z
" transform="scale(0.015625)"/>
       <path id="DejaVuSans-65" d="M 3597 1894 
L 3597 1613 
L 953 1613 
Q 991 1019 1311 708 
Q 1631 397 2203 397 
Q 2534 397 2845 478 
Q 3156 559 3463 722 
L 3463 178 
Q 3153 47 2828 -22 
Q 2503 -91 2169 -91 
Q 1331 -91 842 396 
Q 353 884 353 1716 
Q 353 2575 817 3079 
Q 1281 3584 2069 3584 
Q 2775 3584 3186 3129 
Q 3597 2675 3597 1894 
z
M 3022 2063 
Q 3016 2534 2758 2815 
Q 2500 3097 2075 3097 
Q 1594 3097 1305 2825 
Q 1016 2553 972 2059 
L 3022 2063 
z
" transform="scale(0.015625)"/>
       <path id="DejaVuSans-64" d="M 2906 2969 
L 2906 4863 
L 3481 4863 
L 3481 0 
L 2906 0 
L 2906 525 
Q 2725 213 2448 61 
Q 2172 -91 1784 -91 
Q 1150 -91 751 415 
Q 353 922 353 1747 
Q 353 2572 751 3078 
Q 1150 3584 1784 3584 
Q 2172 3584 2448 3432 
Q 2725 3281 2906 2969 
z
M 947 1747 
Q 947 1113 1208 752 
Q 1469 391 1925 391 
Q 2381 391 2643 752 
Q 2906 1113 2906 1747 
Q 2906 2381 2643 2742 
Q 2381 3103 1925 3103 
Q 1469 3103 1208 2742 
Q 947 2381 947 1747 
z
" transform="scale(0.015625)"/>
       <path id="DejaVuSans-74" d="M 1172 4494 
L 1172 3500 
L 2356 3500 
L 2356 3053 
L 1172 3053 
L 1172 1153 
Q 1172 725 1289 603 
Q 1406 481 1766 481 
L 2356 481 
L 2356 0 
L 1766 0 
Q 1100 0 847 248 
Q 594 497 594 1153 
L 594 3053 
L 172 3053 
L 172 3500 
L 594 3500 
L 594 4494 
L 1172 4494 
z
" transform="scale(0.015625)"/>
       <path id="DejaVuSans-68" d="M 3513 2113 
L 3513 0 
L 2938 0 
L 2938 2094 
Q 2938 2591 2744 2837 
Q 2550 3084 2163 3084 
Q 1697 3084 1428 2787 
Q 1159 2491 1159 1978 
L 1159 0 
L 581 0 
L 581 4863 
L 1159 4863 
L 1159 2956 
Q 1366 3272 1645 3428 
Q 1925 3584 2291 3584 
Q 2894 3584 3203 3211 
Q 3513 2838 3513 2113 
z
" transform="scale(0.015625)"/>
      </defs>
      <use xlink:href="#DejaVuSans-45"/>
      <use xlink:href="#DejaVuSans-63" transform="translate(63.183594 0)"/>
      <use xlink:href="#DejaVuSans-6c" transform="translate(118.164062 0)"/>
      <use xlink:href="#DejaVuSans-69" transform="translate(145.947266 0)"/>
      <use xlink:href="#DejaVuSans-70" transform="translate(173.730469 0)"/>
      <use xlink:href="#DejaVuSans-73" transform="translate(237.207031 0)"/>
      <use xlink:href="#DejaVuSans-65" transform="translate(289.306641 0)"/>
      <use xlink:href="#DejaVuSans-20" transform="translate(350.830078 0)"/>
      <use xlink:href="#DejaVuSans-64" transform="translate(382.617188 0)"/>
      <use xlink:href="#DejaVuSans-65" transform="translate(446.09375 0)"/>
      <use xlink:href="#DejaVuSans-70" transform="translate(507.617188 0)"/>
      <use xlink:href="#DejaVuSans-74" transform="translate(571.09375 0)"/>
      <use xlink:href="#DejaVuSans-68" transform="translate(610.302734 0)"/>
      <use xlink:href="#DejaVuSans-20" transform="translate(673.681641 0)"/>
      <use xlink:href="#DejaVuSans-28" transform="translate(705.46875 0)"/>
      <use xlink:href="#DejaVuSans-70" transform="translate(744.482422 0)"/>
      <use xlink:href="#DejaVuSans-70" transform="translate(807.958984 0)"/>
      <use xlink:href="#DejaVuSans-6d" transform="translate(871.435547 0)"/>
      <use xlink:href="#DejaVuSans-29" transform="translate(968.847656 0)"/>
     </g>
    </g>
   </g>
   <g id="line2d_14">
    <path d="M 124.82768 601.855307 
L 148.487788 575.751165 
L 204.325645 505.440954 
L 281.930801 361.890885 
L 374.678426 265.61032 
L 622.636364 214.735744 
" clip-path="url(#p86b7804cba)" style="fill: none; stroke: #1f77b4; stroke-width: 1.5; stroke-linecap: square"/>
    <defs>
     <path id="m368b1f5937" d="M 0 3 
C 0.795609 3 1.55874 2.683901 2.12132 2.12132 
C 2.683901 1.55874 3 0.795609 3 0 
C 3 -0.795609 2.683901 -1.55874 2.12132 -2.12132 
C 1.55874 -2.683901 0.795609 -3 0 -3 
C -0.795609 -3 -1.55874 -2.683901 -2.12132 -2.12132 
C -2.683901 -1.55874 -3 -0.795609 -3 0 
C -3 0.795609 -2.683901 1.55874 -2.12132 2.12132 
C -1.55874 2.683901 -0.795609 3 0 3 
z
" style="stroke: #1f77b4"/>
    </defs>
    <g clip-path="url(#p86b7804cba)">
     <use xlink:href="#m368b1f5937" x="124.82768" y="601.855307" style="fill: #1f77b4; stroke: #1f77b4"/>
     <use xlink:href="#m368b1f5937" x="148.487788" y="575.751165" style="fill: #1f77b4; stroke: #1f77b4"/>
     <use xlink:href="#m368b1f5937" x="204.325645" y="505.440954" style="fill: #1f77b4; stroke: #1f77b4"/>
     <use xlink:href="#m368b1f5937" x="281.930801" y="361.890885" style="fill: #1f77b4; stroke: #1f77b4"/>
     <use xlink:href="#m368b1f5937" x="374.678426" y="265.61032" style="fill: #1f77b4; stroke: #1f77b4"/>
     <use xlink:href="#m368b1f5937" x="622.636364" y="214.735744" style="fill: #1f77b4; stroke: #1f77b4"/>
    </g>
   </g>
   <g id="line2d_15">
    <path d="M 115.363636 606.691018 
L 124.82768 597.74525 
L 134.291723 585.683445 
L 143.755767 571.130139 
L 153.21981 554.814377 
L 162.683853 537.417253 
L 172.147897 519.505235 
L 181.61194 501.515433 
L 191.075984 483.766407 
L 200.540027 466.478513 
L 210.004071 449.795487 
L 219.468114 433.80367 
L 228.932157 418.547709 
L 238.396201 404.042778 
L 247.860244 390.283769 
L 257.324288 377.252061 
L 266.788331 364.92042 
L 276.252374 353.256485 
L 285.716418 342.22522 
L 295.180461 331.790604 
L 304.644505 321.916778 
L 314.108548 312.568801 
L 323.572592 303.713124 
L 333.036635 295.317875 
L 342.500678 287.353 
L 351.964722 279.79032 
L 361.428765 272.60352 
L 370.892809 265.768095 
L 380.356852 259.261275 
L 389.820896 253.06193 
L 399.284939 247.150474 
L 408.748982 241.508758 
L 418.213026 236.11997 
L 427.677069 230.968537 
L 437.141113 226.040031 
L 446.605156 221.321077 
L 456.069199 216.799275 
L 465.533243 212.463118 
L 474.997286 208.301924 
L 484.46133 204.305766 
L 493.925373 200.465418 
L 503.389417 196.772291 
L 512.85346 193.218389 
L 522.317503 189.796258 
L 531.781547 186.498947 
L 541.24559 183.319963 
L 550.709634 180.253243 
L 560.173677 177.293113 
L 569.63772 174.434264 
L 579.101764 171.671724 
L 588.565807 169.00083 
L 598.029851 166.417206 
L 607.493894 163.916743 
L 616.957938 161.495581 
" clip-path="url(#p86b7804cba)" style="fill: none; stroke: #ff7f0e; stroke-width: 1.5; stroke-linecap: square"/>
   </g>
   <g id="line2d_16">
    <path d="M 115.363636 615.6 
L 124.82768 615.6 
L 134.291723 615.6 
L 143.755767 615.6 
L 153.21981 615.6 
L 162.683853 615.6 
L 172.147897 615.6 
L 181.61194 615.6 
L 191.075984 615.6 
L 200.540027 615.6 
L 210.004071 615.6 
L 219.468114 615.6 
L 228.932157 615.6 
L 238.396201 615.6 
L 247.860244 615.6 
L 257.324288 615.6 
L 266.788331 615.6 
L 276.252374 615.6 
L 285.716418 615.6 
L 295.180461 615.6 
L 304.644505 615.6 
L 314.108548 615.6 
L 323.572592 615.6 
L 333.036635 615.6 
L 342.500678 615.6 
L 351.964722 615.6 
L 361.428765 615.6 
L 370.892809 615.6 
L 380.356852 615.6 
L 389.820896 615.6 
L 399.284939 615.6 
L 408.748982 615.6 
L 418.213026 615.6 
L 427.677069 615.6 
L 437.141113 615.6 
L 446.605156 615.6 
L 456.069199 615.6 
L 465.533243 615.6 
L 474.997286 615.6 
L 484.46133 615.6 
L 493.925373 615.6 
L 503.389417 615.6 
L 512.85346 615.6 
L 522.317503 615.6 
L 531.781547 615.6 
L 541.24559 615.6 
L 550.709634 615.6 
L 560.173677 615.6 
L 569.63772 615.6 
L 579.101764 615.6 
L 588.565807 615.6 
L 598.029851 615.6 
L 607.493894 615.6 
L 616.957938 615.6 
" clip-path="url(#p86b7804cba)" style="fill: none; stroke-dasharray: 5.55,2.4; stroke-dashoffset: 0; stroke: #000000; stroke-width: 1.5"/>
   </g>
   <g id="patch_3">
    <path d="M 90 640.8 
L 90 86.4 
" style="fill: none; stroke: #000000; stroke-width: 0.8; stroke-linejoin: miter; stroke-linecap: square"/>
   </g>
   <g id="patch_4">
    <path d="M 648 640.8 
L 648 86.4 
" style="fill: none; stroke: #000000; stroke-width: 0.8; stroke-linejoin: miter; stroke-linecap: square"/>
   </g>
   <g id="patch_5">
    <path d="M 90 640.8 
L 648 640.8 
" style="fill: none; stroke: #000000; stroke-width: 0.8; stroke-linejoin: miter; stroke-linecap: square"/>
   </g>
   <g id="patch_6">
    <path d="M 90 86.4 
L 648 86.4 
" style="fill: none; stroke: #000000; stroke-width: 0.8; stroke-linejoin: miter; stroke-linecap: square"/>
   </g>
   <g id="text_16">
    <!-- FGS1 -->
    <g transform="translate(111.722211 591.855307) scale(0.1 -0.1)">
     <defs>
      <path id="DejaVuSans-46" d="M 628 4666 
L 3309 4666 
L 3309 4134 
L 1259 4134 
L 1259 2759 
L 3109 2759 
L 3109 2228 
L 1259 2228 
L 1259 0 
L 628 0 
L 628 4666 
z
" transform="scale(0.015625)"/>
      <path id="DejaVuSans-47" d="M 3809 666 
L 3809 1919 
L 2778 1919 
L 2778 2438 
L 4434 2438 
L 4434 434 
Q 4069 175 3628 42 
Q 3188 -91 2688 -91 
Q 1594 -91 976 548 
Q 359 1188 359 2328 
Q 359 3472 976 4111 
Q 1594 4750 2688 4750 
Q 3144 4750 3555 4637 
Q 3966 4525 4313 4306 
L 4313 3634 
Q 3963 3931 3569 4081 
Q 3175 4231 2741 4231 
Q 1884 4231 1454 3753 
Q 1025 3275 1025 2328 
Q 1025 1384 1454 906 
Q 1884 428 2741 428 
Q 3075 428 3337 486 
Q 3600 544 3809 666 
z
" transform="scale(0.015625)"/>
      <path id="DejaVuSans-53" d="M 3425 4513 
L 3425 3897 
Q 3066 4069 2747 4153 
Q 2428 4238 2131 4238 
Q 1616 4238 1336 4038 
Q 1056 3838 1056 3469 
Q 1056 3159 1242 3001 
Q 1428 2844 1947 2747 
L 2328 2669 
Q 3034 2534 3370 2195 
Q 3706 1856 3706 1288 
Q 3706 609 3251 259 
Q 2797 -91 1919 -91 
Q 1588 -91 1214 -16 
Q 841 59 441 206 
L 441 856 
Q 825 641 1194 531 
Q 1563 422 1919 422 
Q 2459 422 2753 634 
Q 3047 847 3047 1241 
Q 3047 1584 2836 1778 
Q 2625 1972 2144 2069 
L 1759 2144 
Q 1053 2284 737 2584 
Q 422 2884 422 3419 
Q 422 4038 858 4394 
Q 1294 4750 2059 4750 
Q 2388 4750 2728 4690 
Q 3069 4631 3425 4513 
z
" transform="scale(0.015625)"/>
     </defs>
     <use xlink:href="#DejaVuSans-46"/>
     <use xlink:href="#DejaVuSans-47" transform="translate(57.519531 0)"/>
     <use xlink:href="#DejaVuSans-53" transform="translate(135.009766 0)"/>
     <use xlink:href="#DejaVuSans-31" transform="translate(198.486328 0)"/>
    </g>
   </g>
   <g id="text_17">
    <!-- FGS2 -->
    <g transform="translate(135.38232 565.751165) scale(0.1 -0.1)">
     <use xlink:href="#DejaVuSans-46"/>
     <use xlink:href="#DejaVuSans-47" transform="translate(57.519531 0)"/>
     <use xlink:href="#DejaVuSans-53" transform="translate(135.009766 0)"/>
     <use xlink:href="#DejaVuSans-32" transform="translate(198.486328 0)"/>
    </g>
   </g>
   <g id="text_18">
    <!-- NIRSpec -->
    <g transform="translate(183.461582 495.440954) scale(0.1 -0.1)">
     <defs>
      <path id="DejaVuSans-4e" d="M 628 4666 
L 1478 4666 
L 3547 763 
L 3547 4666 
L 4159 4666 
L 4159 0 
L 3309 0 
L 1241 3903 
L 1241 0 
L 628 0 
L 628 4666 
z
" transform="scale(0.015625)"/>
      <path id="DejaVuSans-49" d="M 628 4666 
L 1259 4666 
L 1259 0 
L 628 0 
L 628 4666 
z
" transform="scale(0.015625)"/>
      <path id="DejaVuSans-52" d="M 2841 2188 
Q 3044 2119 3236 1894 
Q 3428 1669 3622 1275 
L 4263 0 
L 3584 0 
L 2988 1197 
Q 2756 1666 2539 1819 
Q 2322 1972 1947 1972 
L 1259 1972 
L 1259 0 
L 628 0 
L 628 4666 
L 2053 4666 
Q 2853 4666 3247 4331 
Q 3641 3997 3641 3322 
Q 3641 2881 3436 2590 
Q 3231 2300 2841 2188 
z
M 1259 4147 
L 1259 2491 
L 2053 2491 
Q 2509 2491 2742 2702 
Q 2975 2913 2975 3322 
Q 2975 3731 2742 3939 
Q 2509 4147 2053 4147 
L 1259 4147 
z
" transform="scale(0.015625)"/>
     </defs>
     <use xlink:href="#DejaVuSans-4e"/>
     <use xlink:href="#DejaVuSans-49" transform="translate(74.804688 0)"/>
     <use xlink:href="#DejaVuSans-52" transform="translate(104.296875 0)"/>
     <use xlink:href="#DejaVuSans-53" transform="translate(173.779297 0)"/>
     <use xlink:href="#DejaVuSans-70" transform="translate(237.255859 0)"/>
     <use xlink:href="#DejaVuSans-65" transform="translate(300.732422 0)"/>
     <use xlink:href="#DejaVuSans-63" transform="translate(362.255859 0)"/>
    </g>
   </g>
   <g id="text_19">
    <!-- AIRS-CH0-bin1 -->
    <g transform="translate(245.433144 351.890885) scale(0.1 -0.1)">
     <defs>
      <path id="DejaVuSans-41" d="M 2188 4044 
L 1331 1722 
L 3047 1722 
L 2188 4044 
z
M 1831 4666 
L 2547 4666 
L 4325 0 
L 3669 0 
L 3244 1197 
L 1141 1197 
L 716 0 
L 50 0 
L 1831 4666 
z
" transform="scale(0.015625)"/>
      <path id="DejaVuSans-2d" d="M 313 2009 
L 1997 2009 
L 1997 1497 
L 313 1497 
L 313 2009 
z
" transform="scale(0.015625)"/>
      <path id="DejaVuSans-43" d="M 4122 4306 
L 4122 3641 
Q 3803 3938 3442 4084 
Q 3081 4231 2675 4231 
Q 1875 4231 1450 3742 
Q 1025 3253 1025 2328 
Q 1025 1406 1450 917 
Q 1875 428 2675 428 
Q 3081 428 3442 575 
Q 3803 722 4122 1019 
L 4122 359 
Q 3791 134 3420 21 
Q 3050 -91 2638 -91 
Q 1578 -91 968 557 
Q 359 1206 359 2328 
Q 359 3453 968 4101 
Q 1578 4750 2638 4750 
Q 3056 4750 3426 4639 
Q 3797 4528 4122 4306 
z
" transform="scale(0.015625)"/>
      <path id="DejaVuSans-48" d="M 628 4666 
L 1259 4666 
L 1259 2753 
L 3553 2753 
L 3553 4666 
L 4184 4666 
L 4184 0 
L 3553 0 
L 3553 2222 
L 1259 2222 
L 1259 0 
L 628 0 
L 628 4666 
z
" transform="scale(0.015625)"/>
      <path id="DejaVuSans-62" d="M 3116 1747 
Q 3116 2381 2855 2742 
Q 2594 3103 2138 3103 
Q 1681 3103 1420 2742 
Q 1159 2381 1159 1747 
Q 1159 1113 1420 752 
Q 1681 391 2138 391 
Q 2594 391 2855 752 
Q 3116 1113 3116 1747 
z
M 1159 2969 
Q 1341 3281 1617 3432 
Q 1894 3584 2278 3584 
Q 2916 3584 3314 3078 
Q 3713 2572 3713 1747 
Q 3713 922 3314 415 
Q 2916 -91 2278 -91 
Q 1894 -91 1617 61 
Q 1341 213 1159 525 
L 1159 0 
L 581 0 
L 581 4863 
L 1159 4863 
L 1159 2969 
z
" transform="scale(0.015625)"/>
      <path id="DejaVuSans-6e" d="M 3513 2113 
L 3513 0 
L 2938 0 
L 2938 2094 
Q 2938 2591 2744 2837 
Q 2550 3084 2163 3084 
Q 1697 3084 1428 2787 
Q 1159 2491 1159 1978 
L 1159 0 
L 581 0 
L 581 3500 
L 1159 3500 
L 1159 2956 
Q 1366 3272 1645 3428 
Q 1925 3584 2291 3584 
Q 2894 3584 3203 3211 
Q 3513 2838 3513 2113 
z
" transform="scale(0.015625)"/>
     </defs>
     <use xlink:href="#DejaVuSans-41"/>
     <use xlink:href="#DejaVuSans-49" transform="translate(68.408203 0)"/>
     <use xlink:href="#DejaVuSans-52" transform="translate(97.900391 0)"/>
     <use xlink:href="#DejaVuSans-53" transform="translate(167.382812 0)"/>
     <use xlink:href="#DejaVuSans-2d" transform="translate(230.859375 0)"/>
     <use xlink:href="#DejaVuSans-43" transform="translate(266.943359 0)"/>
     <use xlink:href="#DejaVuSans-48" transform="translate(336.767578 0)"/>
     <use xlink:href="#DejaVuSans-30" transform="translate(411.962891 0)"/>
     <use xlink:href="#DejaVuSans-2d" transform="translate(475.585938 0)"/>
     <use xlink:href="#DejaVuSans-62" transform="translate(511.669922 0)"/>
     <use xlink:href="#DejaVuSans-69" transform="translate(575.146484 0)"/>
     <use xlink:href="#DejaVuSans-6e" transform="translate(602.929688 0)"/>
     <use xlink:href="#DejaVuSans-31" transform="translate(666.308594 0)"/>
    </g>
   </g>
   <g id="text_20">
    <!-- AIRS-CH0-bin2 -->
    <g transform="translate(338.18077 255.61032) scale(0.1 -0.1)">
     <use xlink:href="#DejaVuSans-41"/>
     <use xlink:href="#DejaVuSans-49" transform="translate(68.408203 0)"/>
     <use xlink:href="#DejaVuSans-52" transform="translate(97.900391 0)"/>
     <use xlink:href="#DejaVuSans-53" transform="translate(167.382812 0)"/>
     <use xlink:href="#DejaVuSans-2d" transform="translate(230.859375 0)"/>
     <use xlink:href="#DejaVuSans-43" transform="translate(266.943359 0)"/>
     <use xlink:href="#DejaVuSans-48" transform="translate(336.767578 0)"/>
     <use xlink:href="#DejaVuSans-30" transform="translate(411.962891 0)"/>
     <use xlink:href="#DejaVuSans-2d" transform="translate(475.585938 0)"/>
     <use xlink:href="#DejaVuSans-62" transform="translate(511.669922 0)"/>
     <use xlink:href="#DejaVuSans-69" transform="translate(575.146484 0)"/>
     <use xlink:href="#DejaVuSans-6e" transform="translate(602.929688 0)"/>
     <use xlink:href="#DejaVuSans-32" transform="translate(666.308594 0)"/>
    </g>
   </g>
   <g id="text_21">
    <!-- AIRS-CH1 -->
    <g transform="translate(598.855895 204.735744) scale(0.1 -0.1)">
     <use xlink:href="#DejaVuSans-41"/>
     <use xlink:href="#DejaVuSans-49" transform="translate(68.408203 0)"/>
     <use xlink:href="#DejaVuSans-52" transform="translate(97.900391 0)"/>
     <use xlink:href="#DejaVuSans-53" transform="translate(167.382812 0)"/>
     <use xlink:href="#DejaVuSans-2d" transform="translate(230.859375 0)"/>
     <use xlink:href="#DejaVuSans-43" transform="translate(266.943359 0)"/>
     <use xlink:href="#DejaVuSans-48" transform="translate(336.767578 0)"/>
     <use xlink:href="#DejaVuSans-31" transform="translate(411.962891 0)"/>
    </g>
   </g>
   <g id="text_22">
    <!-- Eclipse depth for 55 Cnc e -->
    <g transform="translate(276.929219 80.4) scale(0.14 -0.14)">
     <defs>
      <path id="DejaVuSans-66" d="M 2375 4863 
L 2375 4384 
L 1825 4384 
Q 1516 4384 1395 4259 
Q 1275 4134 1275 3809 
L 1275 3500 
L 2222 3500 
L 2222 3053 
L 1275 3053 
L 1275 0 
L 697 0 
L 697 3053 
L 147 3053 
L 147 3500 
L 697 3500 
L 697 3744 
Q 697 4328 969 4595 
Q 1241 4863 1831 4863 
L 2375 4863 
z
" transform="scale(0.015625)"/>
      <path id="DejaVuSans-6f" d="M 1959 3097 
Q 1497 3097 1228 2736 
Q 959 2375 959 1747 
Q 959 1119 1226 758 
Q 1494 397 1959 397 
Q 2419 397 2687 759 
Q 2956 1122 2956 1747 
Q 2956 2369 2687 2733 
Q 2419 3097 1959 3097 
z
M 1959 3584 
Q 2709 3584 3137 3096 
Q 3566 2609 3566 1747 
Q 3566 888 3137 398 
Q 2709 -91 1959 -91 
Q 1206 -91 779 398 
Q 353 888 353 1747 
Q 353 2609 779 3096 
Q 1206 3584 1959 3584 
z
" transform="scale(0.015625)"/>
      <path id="DejaVuSans-72" d="M 2631 2963 
Q 2534 3019 2420 3045 
Q 2306 3072 2169 3072 
Q 1681 3072 1420 2755 
Q 1159 2438 1159 1844 
L 1159 0 
L 581 0 
L 581 3500 
L 1159 3500 
L 1159 2956 
Q 1341 3275 1631 3429 
Q 1922 3584 2338 3584 
Q 2397 3584 2469 3576 
Q 2541 3569 2628 3553 
L 2631 2963 
z
" transform="scale(0.015625)"/>
     </defs>
     <use xlink:href="#DejaVuSans-45"/>
     <use xlink:href="#DejaVuSans-63" transform="translate(63.183594 0)"/>
     <use xlink:href="#DejaVuSans-6c" transform="translate(118.164062 0)"/>
     <use xlink:href="#DejaVuSans-69" transform="translate(145.947266 0)"/>
     <use xlink:href="#DejaVuSans-70" transform="translate(173.730469 0)"/>
     <use xlink:href="#DejaVuSans-73" transform="translate(237.207031 0)"/>
     <use xlink:href="#DejaVuSans-65" transform="translate(289.306641 0)"/>
     <use xlink:href="#DejaVuSans-20" transform="translate(350.830078 0)"/>
     <use xlink:href="#DejaVuSans-64" transform="translate(382.617188 0)"/>
     <use xlink:href="#DejaVuSans-65" transform="translate(446.09375 0)"/>
     <use xlink:href="#DejaVuSans-70" transform="translate(507.617188 0)"/>
     <use xlink:href="#DejaVuSans-74" transform="translate(571.09375 0)"/>
     <use xlink:href="#DejaVuSans-68" transform="translate(610.302734 0)"/>
     <use xlink:href="#DejaVuSans-20" transform="translate(673.681641 0)"/>
     <use xlink:href="#DejaVuSans-66" transform="translate(705.46875 0)"/>
     <use xlink:href="#DejaVuSans-6f" transform="translate(740.673828 0)"/>
     <use xlink:href="#DejaVuSans-72" transform="translate(801.855469 0)"/>
     <use xlink:href="#DejaVuSans-20" transform="translate(842.96875 0)"/>
     <use xlink:href="#DejaVuSans-35" transform="translate(874.755859 0)"/>
     <use xlink:href="#DejaVuSans-35" transform="translate(938.378906 0)"/>
     <use xlink:href="#DejaVuSans-20" transform="translate(1002.001953 0)"/>
     <use xlink:href="#DejaVuSans-43" transform="translate(1033.789062 0)"/>
     <use xlink:href="#DejaVuSans-6e" transform="translate(1103.613281 0)"/>
     <use xlink:href="#DejaVuSans-63" transform="translate(1166.992188 0)"/>
     <use xlink:href="#DejaVuSans-20" transform="translate(1221.972656 0)"/>
     <use xlink:href="#DejaVuSans-65" transform="translate(1253.759766 0)"/>
    </g>
   </g>
   <g id="legend_1">
    <g id="patch_7">
     <path d="M 368.085 634.8 
L 639.6 634.8 
Q 642 634.8 642 632.4 
L 642 400.95 
Q 642 398.55 639.6 398.55 
L 368.085 398.55 
Q 365.685 398.55 365.685 400.95 
L 365.685 632.4 
Q 365.685 634.8 368.085 634.8 
z
" style="fill: #ffffff; opacity: 0.8; stroke: #cccccc; stroke-linejoin: miter"/>
    </g>
    <g id="patch_8">
     <path d="M 370.485 412.468125 
L 394.485 412.468125 
L 394.485 404.068125 
L 370.485 404.068125 
z
" style="fill: #1f77b4; fill-opacity: 0.2"/>
    </g>
    <g id="text_23">
     <!-- asymmetric error -->
     <g transform="translate(404.085 412.468125) scale(0.12 -0.12)">
      <defs>
       <path id="DejaVuSans-61" d="M 2194 1759 
Q 1497 1759 1228 1600 
Q 959 1441 959 1056 
Q 959 750 1161 570 
Q 1363 391 1709 391 
Q 2188 391 2477 730 
Q 2766 1069 2766 1631 
L 2766 1759 
L 2194 1759 
z
M 3341 1997 
L 3341 0 
L 2766 0 
L 2766 531 
Q 2569 213 2275 61 
Q 1981 -91 1556 -91 
Q 1019 -91 701 211 
Q 384 513 384 1019 
Q 384 1609 779 1909 
Q 1175 2209 1959 2209 
L 2766 2209 
L 2766 2266 
Q 2766 2663 2505 2880 
Q 2244 3097 1772 3097 
Q 1472 3097 1187 3025 
Q 903 2953 641 2809 
L 641 3341 
Q 956 3463 1253 3523 
Q 1550 3584 1831 3584 
Q 2591 3584 2966 3190 
Q 3341 2797 3341 1997 
z
" transform="scale(0.015625)"/>
       <path id="DejaVuSans-79" d="M 2059 -325 
Q 1816 -950 1584 -1140 
Q 1353 -1331 966 -1331 
L 506 -1331 
L 506 -850 
L 844 -850 
Q 1081 -850 1212 -737 
Q 1344 -625 1503 -206 
L 1606 56 
L 191 3500 
L 800 3500 
L 1894 763 
L 2988 3500 
L 3597 3500 
L 2059 -325 
z
" transform="scale(0.015625)"/>
      </defs>
      <use xlink:href="#DejaVuSans-61"/>
      <use xlink:href="#DejaVuSans-73" transform="translate(61.279297 0)"/>
      <use xlink:href="#DejaVuSans-79" transform="translate(113.378906 0)"/>
      <use xlink:href="#DejaVuSans-6d" transform="translate(172.558594 0)"/>
      <use xlink:href="#DejaVuSans-6d" transform="translate(269.970703 0)"/>
      <use xlink:href="#DejaVuSans-65" transform="translate(367.382812 0)"/>
      <use xlink:href="#DejaVuSans-74" transform="translate(428.90625 0)"/>
      <use xlink:href="#DejaVuSans-72" transform="translate(468.115234 0)"/>
      <use xlink:href="#DejaVuSans-69" transform="translate(509.228516 0)"/>
      <use xlink:href="#DejaVuSans-63" transform="translate(537.011719 0)"/>
      <use xlink:href="#DejaVuSans-20" transform="translate(591.992188 0)"/>
      <use xlink:href="#DejaVuSans-65" transform="translate(623.779297 0)"/>
      <use xlink:href="#DejaVuSans-72" transform="translate(685.302734 0)"/>
      <use xlink:href="#DejaVuSans-72" transform="translate(724.666016 0)"/>
      <use xlink:href="#DejaVuSans-6f" transform="translate(763.529297 0)"/>
      <use xlink:href="#DejaVuSans-72" transform="translate(824.710938 0)"/>
     </g>
    </g>
    <g id="line2d_17">
     <path d="M 370.485 425.881875 
L 382.485 425.881875 
L 394.485 425.881875 
" style="fill: none; stroke: #ff7f0e; stroke-width: 1.5; stroke-linecap: square"/>
    </g>
    <g id="text_24">
     <!-- with initial values -->
     <g transform="translate(404.085 430.081875) scale(0.12 -0.12)">
      <defs>
       <path id="DejaVuSans-77" d="M 269 3500 
L 844 3500 
L 1563 769 
L 2278 3500 
L 2956 3500 
L 3675 769 
L 4391 3500 
L 4966 3500 
L 4050 0 
L 3372 0 
L 2619 2869 
L 1863 0 
L 1184 0 
L 269 3500 
z
" transform="scale(0.015625)"/>
       <path id="DejaVuSans-76" d="M 191 3500 
L 800 3500 
L 1894 563 
L 2988 3500 
L 3597 3500 
L 2284 0 
L 1503 0 
L 191 3500 
z
" transform="scale(0.015625)"/>
       <path id="DejaVuSans-75" d="M 544 1381 
L 544 3500 
L 1119 3500 
L 1119 1403 
Q 1119 906 1312 657 
Q 1506 409 1894 409 
Q 2359 409 2629 706 
Q 2900 1003 2900 1516 
L 2900 3500 
L 3475 3500 
L 3475 0 
L 2900 0 
L 2900 538 
Q 2691 219 2414 64 
Q 2138 -91 1772 -91 
Q 1169 -91 856 284 
Q 544 659 544 1381 
z
M 1991 3584 
L 1991 3584 
z
" transform="scale(0.015625)"/>
      </defs>
      <use xlink:href="#DejaVuSans-77"/>
      <use xlink:href="#DejaVuSans-69" transform="translate(81.787109 0)"/>
      <use xlink:href="#DejaVuSans-74" transform="translate(109.570312 0)"/>
      <use xlink:href="#DejaVuSans-68" transform="translate(148.779297 0)"/>
      <use xlink:href="#DejaVuSans-20" transform="translate(212.158203 0)"/>
      <use xlink:href="#DejaVuSans-69" transform="translate(243.945312 0)"/>
      <use xlink:href="#DejaVuSans-6e" transform="translate(271.728516 0)"/>
      <use xlink:href="#DejaVuSans-69" transform="translate(335.107422 0)"/>
      <use xlink:href="#DejaVuSans-74" transform="translate(362.890625 0)"/>
      <use xlink:href="#DejaVuSans-69" transform="translate(402.099609 0)"/>
      <use xlink:href="#DejaVuSans-61" transform="translate(429.882812 0)"/>
      <use xlink:href="#DejaVuSans-6c" transform="translate(491.162109 0)"/>
      <use xlink:href="#DejaVuSans-20" transform="translate(518.945312 0)"/>
      <use xlink:href="#DejaVuSans-76" transform="translate(550.732422 0)"/>
      <use xlink:href="#DejaVuSans-61" transform="translate(609.912109 0)"/>
      <use xlink:href="#DejaVuSans-6c" transform="translate(671.191406 0)"/>
      <use xlink:href="#DejaVuSans-75" transform="translate(698.974609 0)"/>
      <use xlink:href="#DejaVuSans-65" transform="translate(762.353516 0)"/>
      <use xlink:href="#DejaVuSans-73" transform="translate(823.876953 0)"/>
     </g>
    </g>
    <g id="line2d_18">
     <path d="M 370.485 443.495625 
L 382.485 443.495625 
L 394.485 443.495625 
" style="fill: none; stroke-dasharray: 5.55,2.4; stroke-dashoffset: 0; stroke: #000000; stroke-width: 1.5"/>
    </g>
    <g id="text_25">
     <!-- orlando_gold_granite_slab -->
     <g transform="translate(404.085 447.695625) scale(0.12 -0.12)">
      <defs>
       <path id="DejaVuSans-5f" d="M 3263 -1063 
L 3263 -1509 
L -63 -1509 
L -63 -1063 
L 3263 -1063 
z
" transform="scale(0.015625)"/>
       <path id="DejaVuSans-67" d="M 2906 1791 
Q 2906 2416 2648 2759 
Q 2391 3103 1925 3103 
Q 1463 3103 1205 2759 
Q 947 2416 947 1791 
Q 947 1169 1205 825 
Q 1463 481 1925 481 
Q 2391 481 2648 825 
Q 2906 1169 2906 1791 
z
M 3481 434 
Q 3481 -459 3084 -895 
Q 2688 -1331 1869 -1331 
Q 1566 -1331 1297 -1286 
Q 1028 -1241 775 -1147 
L 775 -588 
Q 1028 -725 1275 -790 
Q 1522 -856 1778 -856 
Q 2344 -856 2625 -561 
Q 2906 -266 2906 331 
L 2906 616 
Q 2728 306 2450 153 
Q 2172 0 1784 0 
Q 1141 0 747 490 
Q 353 981 353 1791 
Q 353 2603 747 3093 
Q 1141 3584 1784 3584 
Q 2172 3584 2450 3431 
Q 2728 3278 2906 2969 
L 2906 3500 
L 3481 3500 
L 3481 434 
z
" transform="scale(0.015625)"/>
      </defs>
      <use xlink:href="#DejaVuSans-6f"/>
      <use xlink:href="#DejaVuSans-72" transform="translate(61.181641 0)"/>
      <use xlink:href="#DejaVuSans-6c" transform="translate(102.294922 0)"/>
      <use xlink:href="#DejaVuSans-61" transform="translate(130.078125 0)"/>
      <use xlink:href="#DejaVuSans-6e" transform="translate(191.357422 0)"/>
      <use xlink:href="#DejaVuSans-64" transform="translate(254.736328 0)"/>
      <use xlink:href="#DejaVuSans-6f" transform="translate(318.212891 0)"/>
      <use xlink:href="#DejaVuSans-5f" transform="translate(379.394531 0)"/>
      <use xlink:href="#DejaVuSans-67" transform="translate(429.394531 0)"/>
      <use xlink:href="#DejaVuSans-6f" transform="translate(492.871094 0)"/>
      <use xlink:href="#DejaVuSans-6c" transform="translate(554.052734 0)"/>
      <use xlink:href="#DejaVuSans-64" transform="translate(581.835938 0)"/>
      <use xlink:href="#DejaVuSans-5f" transform="translate(645.3125 0)"/>
      <use xlink:href="#DejaVuSans-67" transform="translate(695.3125 0)"/>
      <use xlink:href="#DejaVuSans-72" transform="translate(758.789062 0)"/>
      <use xlink:href="#DejaVuSans-61" transform="translate(799.902344 0)"/>
      <use xlink:href="#DejaVuSans-6e" transform="translate(861.181641 0)"/>
      <use xlink:href="#DejaVuSans-69" transform="translate(924.560547 0)"/>
      <use xlink:href="#DejaVuSans-74" transform="translate(952.34375 0)"/>
      <use xlink:href="#DejaVuSans-65" transform="translate(991.552734 0)"/>
      <use xlink:href="#DejaVuSans-5f" transform="translate(1053.076172 0)"/>
      <use xlink:href="#DejaVuSans-73" transform="translate(1103.076172 0)"/>
      <use xlink:href="#DejaVuSans-6c" transform="translate(1155.175781 0)"/>
      <use xlink:href="#DejaVuSans-61" transform="translate(1182.958984 0)"/>
      <use xlink:href="#DejaVuSans-62" transform="translate(1244.238281 0)"/>
     </g>
    </g>
    <g id="line2d_19">
     <path d="M 370.485 461.443125 
L 382.485 461.443125 
L 394.485 461.443125 
" style="fill: none; stroke-dasharray: 5.55,2.4; stroke-dashoffset: 0; stroke: #00ff00; stroke-width: 1.5"/>
    </g>
    <g id="text_26">
     <!-- basaltic_andesite_slab -->
     <g transform="translate(404.085 465.643125) scale(0.12 -0.12)">
      <use xlink:href="#DejaVuSans-62"/>
      <use xlink:href="#DejaVuSans-61" transform="translate(63.476562 0)"/>
      <use xlink:href="#DejaVuSans-73" transform="translate(124.755859 0)"/>
      <use xlink:href="#DejaVuSans-61" transform="translate(176.855469 0)"/>
      <use xlink:href="#DejaVuSans-6c" transform="translate(238.134766 0)"/>
      <use xlink:href="#DejaVuSans-74" transform="translate(265.917969 0)"/>
      <use xlink:href="#DejaVuSans-69" transform="translate(305.126953 0)"/>
      <use xlink:href="#DejaVuSans-63" transform="translate(332.910156 0)"/>
      <use xlink:href="#DejaVuSans-5f" transform="translate(387.890625 0)"/>
      <use xlink:href="#DejaVuSans-61" transform="translate(437.890625 0)"/>
      <use xlink:href="#DejaVuSans-6e" transform="translate(499.169922 0)"/>
      <use xlink:href="#DejaVuSans-64" transform="translate(562.548828 0)"/>
      <use xlink:href="#DejaVuSans-65" transform="translate(626.025391 0)"/>
      <use xlink:href="#DejaVuSans-73" transform="translate(687.548828 0)"/>
      <use xlink:href="#DejaVuSans-69" transform="translate(739.648438 0)"/>
      <use xlink:href="#DejaVuSans-74" transform="translate(767.431641 0)"/>
      <use xlink:href="#DejaVuSans-65" transform="translate(806.640625 0)"/>
      <use xlink:href="#DejaVuSans-5f" transform="translate(868.164062 0)"/>
      <use xlink:href="#DejaVuSans-73" transform="translate(918.164062 0)"/>
      <use xlink:href="#DejaVuSans-6c" transform="translate(970.263672 0)"/>
      <use xlink:href="#DejaVuSans-61" transform="translate(998.046875 0)"/>
      <use xlink:href="#DejaVuSans-62" transform="translate(1059.326172 0)"/>
     </g>
    </g>
    <g id="line2d_20">
     <path d="M 370.485 479.390625 
L 382.485 479.390625 
L 394.485 479.390625 
" style="fill: none; stroke-dasharray: 5.55,2.4; stroke-dashoffset: 0; stroke: #ffff00; stroke-width: 1.5"/>
    </g>
    <g id="text_27">
     <!-- dalmatian_granite_slab -->
     <g transform="translate(404.085 483.590625) scale(0.12 -0.12)">
      <use xlink:href="#DejaVuSans-64"/>
      <use xlink:href="#DejaVuSans-61" transform="translate(63.476562 0)"/>
      <use xlink:href="#DejaVuSans-6c" transform="translate(124.755859 0)"/>
      <use xlink:href="#DejaVuSans-6d" transform="translate(152.539062 0)"/>
      <use xlink:href="#DejaVuSans-61" transform="translate(249.951172 0)"/>
      <use xlink:href="#DejaVuSans-74" transform="translate(311.230469 0)"/>
      <use xlink:href="#DejaVuSans-69" transform="translate(350.439453 0)"/>
      <use xlink:href="#DejaVuSans-61" transform="translate(378.222656 0)"/>
      <use xlink:href="#DejaVuSans-6e" transform="translate(439.501953 0)"/>
      <use xlink:href="#DejaVuSans-5f" transform="translate(502.880859 0)"/>
      <use xlink:href="#DejaVuSans-67" transform="translate(552.880859 0)"/>
      <use xlink:href="#DejaVuSans-72" transform="translate(616.357422 0)"/>
      <use xlink:href="#DejaVuSans-61" transform="translate(657.470703 0)"/>
      <use xlink:href="#DejaVuSans-6e" transform="translate(718.75 0)"/>
      <use xlink:href="#DejaVuSans-69" transform="translate(782.128906 0)"/>
      <use xlink:href="#DejaVuSans-74" transform="translate(809.912109 0)"/>
      <use xlink:href="#DejaVuSans-65" transform="translate(849.121094 0)"/>
      <use xlink:href="#DejaVuSans-5f" transform="translate(910.644531 0)"/>
      <use xlink:href="#DejaVuSans-73" transform="translate(960.644531 0)"/>
      <use xlink:href="#DejaVuSans-6c" transform="translate(1012.744141 0)"/>
      <use xlink:href="#DejaVuSans-61" transform="translate(1040.527344 0)"/>
      <use xlink:href="#DejaVuSans-62" transform="translate(1101.806641 0)"/>
     </g>
    </g>
    <g id="line2d_21">
     <path d="M 370.485 497.338125 
L 382.485 497.338125 
L 394.485 497.338125 
" style="fill: none; stroke-dasharray: 5.55,2.4; stroke-dashoffset: 0; stroke: #800000; stroke-width: 1.5"/>
    </g>
    <g id="text_28">
     <!-- STM_101_andesite_slab -->
     <g transform="translate(404.085 501.538125) scale(0.12 -0.12)">
      <defs>
       <path id="DejaVuSans-54" d="M -19 4666 
L 3928 4666 
L 3928 4134 
L 2272 4134 
L 2272 0 
L 1638 0 
L 1638 4134 
L -19 4134 
L -19 4666 
z
" transform="scale(0.015625)"/>
       <path id="DejaVuSans-4d" d="M 628 4666 
L 1569 4666 
L 2759 1491 
L 3956 4666 
L 4897 4666 
L 4897 0 
L 4281 0 
L 4281 4097 
L 3078 897 
L 2444 897 
L 1241 4097 
L 1241 0 
L 628 0 
L 628 4666 
z
" transform="scale(0.015625)"/>
      </defs>
      <use xlink:href="#DejaVuSans-53"/>
      <use xlink:href="#DejaVuSans-54" transform="translate(63.476562 0)"/>
      <use xlink:href="#DejaVuSans-4d" transform="translate(124.560547 0)"/>
      <use xlink:href="#DejaVuSans-5f" transform="translate(210.839844 0)"/>
      <use xlink:href="#DejaVuSans-31" transform="translate(260.839844 0)"/>
      <use xlink:href="#DejaVuSans-30" transform="translate(324.462891 0)"/>
      <use xlink:href="#DejaVuSans-31" transform="translate(388.085938 0)"/>
      <use xlink:href="#DejaVuSans-5f" transform="translate(451.708984 0)"/>
      <use xlink:href="#DejaVuSans-61" transform="translate(501.708984 0)"/>
      <use xlink:href="#DejaVuSans-6e" transform="translate(562.988281 0)"/>
      <use xlink:href="#DejaVuSans-64" transform="translate(626.367188 0)"/>
      <use xlink:href="#DejaVuSans-65" transform="translate(689.84375 0)"/>
      <use xlink:href="#DejaVuSans-73" transform="translate(751.367188 0)"/>
      <use xlink:href="#DejaVuSans-69" transform="translate(803.466797 0)"/>
      <use xlink:href="#DejaVuSans-74" transform="translate(831.25 0)"/>
      <use xlink:href="#DejaVuSans-65" transform="translate(870.458984 0)"/>
      <use xlink:href="#DejaVuSans-5f" transform="translate(931.982422 0)"/>
      <use xlink:href="#DejaVuSans-73" transform="translate(981.982422 0)"/>
      <use xlink:href="#DejaVuSans-6c" transform="translate(1034.082031 0)"/>
      <use xlink:href="#DejaVuSans-61" transform="translate(1061.865234 0)"/>
      <use xlink:href="#DejaVuSans-62" transform="translate(1123.144531 0)"/>
     </g>
    </g>
    <g id="line2d_22">
     <path d="M 370.485 515.285625 
L 382.485 515.285625 
L 394.485 515.285625 
" style="fill: none; stroke-dasharray: 5.55,2.4; stroke-dashoffset: 0; stroke: #80ff00; stroke-width: 1.5"/>
    </g>
    <g id="text_29">
     <!-- new_basalt_slab -->
     <g transform="translate(404.085 519.485625) scale(0.12 -0.12)">
      <use xlink:href="#DejaVuSans-6e"/>
      <use xlink:href="#DejaVuSans-65" transform="translate(63.378906 0)"/>
      <use xlink:href="#DejaVuSans-77" transform="translate(124.902344 0)"/>
      <use xlink:href="#DejaVuSans-5f" transform="translate(206.689453 0)"/>
      <use xlink:href="#DejaVuSans-62" transform="translate(256.689453 0)"/>
      <use xlink:href="#DejaVuSans-61" transform="translate(320.166016 0)"/>
      <use xlink:href="#DejaVuSans-73" transform="translate(381.445312 0)"/>
      <use xlink:href="#DejaVuSans-61" transform="translate(433.544922 0)"/>
      <use xlink:href="#DejaVuSans-6c" transform="translate(494.824219 0)"/>
      <use xlink:href="#DejaVuSans-74" transform="translate(522.607422 0)"/>
      <use xlink:href="#DejaVuSans-5f" transform="translate(561.816406 0)"/>
      <use xlink:href="#DejaVuSans-73" transform="translate(611.816406 0)"/>
      <use xlink:href="#DejaVuSans-6c" transform="translate(663.916016 0)"/>
      <use xlink:href="#DejaVuSans-61" transform="translate(691.699219 0)"/>
      <use xlink:href="#DejaVuSans-62" transform="translate(752.978516 0)"/>
     </g>
    </g>
    <g id="line2d_23">
     <path d="M 370.485 533.233125 
L 382.485 533.233125 
L 394.485 533.233125 
" style="fill: none; stroke-dasharray: 5.55,2.4; stroke-dashoffset: 0; stroke: #0000ff; stroke-width: 1.5"/>
    </g>
    <g id="text_30">
     <!-- EG_19_70_olivine_pyroxenite_slab -->
     <g transform="translate(404.085 537.433125) scale(0.12 -0.12)">
      <defs>
       <path id="DejaVuSans-39" d="M 703 97 
L 703 672 
Q 941 559 1184 500 
Q 1428 441 1663 441 
Q 2288 441 2617 861 
Q 2947 1281 2994 2138 
Q 2813 1869 2534 1725 
Q 2256 1581 1919 1581 
Q 1219 1581 811 2004 
Q 403 2428 403 3163 
Q 403 3881 828 4315 
Q 1253 4750 1959 4750 
Q 2769 4750 3195 4129 
Q 3622 3509 3622 2328 
Q 3622 1225 3098 567 
Q 2575 -91 1691 -91 
Q 1453 -91 1209 -44 
Q 966 3 703 97 
z
M 1959 2075 
Q 2384 2075 2632 2365 
Q 2881 2656 2881 3163 
Q 2881 3666 2632 3958 
Q 2384 4250 1959 4250 
Q 1534 4250 1286 3958 
Q 1038 3666 1038 3163 
Q 1038 2656 1286 2365 
Q 1534 2075 1959 2075 
z
" transform="scale(0.015625)"/>
       <path id="DejaVuSans-78" d="M 3513 3500 
L 2247 1797 
L 3578 0 
L 2900 0 
L 1881 1375 
L 863 0 
L 184 0 
L 1544 1831 
L 300 3500 
L 978 3500 
L 1906 2253 
L 2834 3500 
L 3513 3500 
z
" transform="scale(0.015625)"/>
      </defs>
      <use xlink:href="#DejaVuSans-45"/>
      <use xlink:href="#DejaVuSans-47" transform="translate(63.183594 0)"/>
      <use xlink:href="#DejaVuSans-5f" transform="translate(140.673828 0)"/>
      <use xlink:href="#DejaVuSans-31" transform="translate(190.673828 0)"/>
      <use xlink:href="#DejaVuSans-39" transform="translate(254.296875 0)"/>
      <use xlink:href="#DejaVuSans-5f" transform="translate(317.919922 0)"/>
      <use xlink:href="#DejaVuSans-37" transform="translate(367.919922 0)"/>
      <use xlink:href="#DejaVuSans-30" transform="translate(431.542969 0)"/>
      <use xlink:href="#DejaVuSans-5f" transform="translate(495.166016 0)"/>
      <use xlink:href="#DejaVuSans-6f" transform="translate(545.166016 0)"/>
      <use xlink:href="#DejaVuSans-6c" transform="translate(606.347656 0)"/>
      <use xlink:href="#DejaVuSans-69" transform="translate(634.130859 0)"/>
      <use xlink:href="#DejaVuSans-76" transform="translate(661.914062 0)"/>
      <use xlink:href="#DejaVuSans-69" transform="translate(721.09375 0)"/>
      <use xlink:href="#DejaVuSans-6e" transform="translate(748.876953 0)"/>
      <use xlink:href="#DejaVuSans-65" transform="translate(812.255859 0)"/>
      <use xlink:href="#DejaVuSans-5f" transform="translate(873.779297 0)"/>
      <use xlink:href="#DejaVuSans-70" transform="translate(923.779297 0)"/>
      <use xlink:href="#DejaVuSans-79" transform="translate(987.255859 0)"/>
      <use xlink:href="#DejaVuSans-72" transform="translate(1046.435547 0)"/>
      <use xlink:href="#DejaVuSans-6f" transform="translate(1085.298828 0)"/>
      <use xlink:href="#DejaVuSans-78" transform="translate(1143.355469 0)"/>
      <use xlink:href="#DejaVuSans-65" transform="translate(1199.410156 0)"/>
      <use xlink:href="#DejaVuSans-6e" transform="translate(1260.933594 0)"/>
      <use xlink:href="#DejaVuSans-69" transform="translate(1324.3125 0)"/>
      <use xlink:href="#DejaVuSans-74" transform="translate(1352.095703 0)"/>
      <use xlink:href="#DejaVuSans-65" transform="translate(1391.304688 0)"/>
      <use xlink:href="#DejaVuSans-5f" transform="translate(1452.828125 0)"/>
      <use xlink:href="#DejaVuSans-73" transform="translate(1502.828125 0)"/>
      <use xlink:href="#DejaVuSans-6c" transform="translate(1554.927734 0)"/>
      <use xlink:href="#DejaVuSans-61" transform="translate(1582.710938 0)"/>
      <use xlink:href="#DejaVuSans-62" transform="translate(1643.990234 0)"/>
     </g>
    </g>
    <g id="line2d_24">
     <path d="M 370.485 551.180625 
L 382.485 551.180625 
L 394.485 551.180625 
" style="fill: none; stroke-dasharray: 5.55,2.4; stroke-dashoffset: 0; stroke: #00ffff; stroke-width: 1.5"/>
    </g>
    <g id="text_31">
     <!-- EG_19_63_olivine_clinopyroxenite_slab -->
     <g transform="translate(404.085 555.380625) scale(0.12 -0.12)">
      <use xlink:href="#DejaVuSans-45"/>
      <use xlink:href="#DejaVuSans-47" transform="translate(63.183594 0)"/>
      <use xlink:href="#DejaVuSans-5f" transform="translate(140.673828 0)"/>
      <use xlink:href="#DejaVuSans-31" transform="translate(190.673828 0)"/>
      <use xlink:href="#DejaVuSans-39" transform="translate(254.296875 0)"/>
      <use xlink:href="#DejaVuSans-5f" transform="translate(317.919922 0)"/>
      <use xlink:href="#DejaVuSans-36" transform="translate(367.919922 0)"/>
      <use xlink:href="#DejaVuSans-33" transform="translate(431.542969 0)"/>
      <use xlink:href="#DejaVuSans-5f" transform="translate(495.166016 0)"/>
      <use xlink:href="#DejaVuSans-6f" transform="translate(545.166016 0)"/>
      <use xlink:href="#DejaVuSans-6c" transform="translate(606.347656 0)"/>
      <use xlink:href="#DejaVuSans-69" transform="translate(634.130859 0)"/>
      <use xlink:href="#DejaVuSans-76" transform="translate(661.914062 0)"/>
      <use xlink:href="#DejaVuSans-69" transform="translate(721.09375 0)"/>
      <use xlink:href="#DejaVuSans-6e" transform="translate(748.876953 0)"/>
      <use xlink:href="#DejaVuSans-65" transform="translate(812.255859 0)"/>
      <use xlink:href="#DejaVuSans-5f" transform="translate(873.779297 0)"/>
      <use xlink:href="#DejaVuSans-63" transform="translate(923.779297 0)"/>
      <use xlink:href="#DejaVuSans-6c" transform="translate(978.759766 0)"/>
      <use xlink:href="#DejaVuSans-69" transform="translate(1006.542969 0)"/>
      <use xlink:href="#DejaVuSans-6e" transform="translate(1034.326172 0)"/>
      <use xlink:href="#DejaVuSans-6f" transform="translate(1097.705078 0)"/>
      <use xlink:href="#DejaVuSans-70" transform="translate(1158.886719 0)"/>
      <use xlink:href="#DejaVuSans-79" transform="translate(1222.363281 0)"/>
      <use xlink:href="#DejaVuSans-72" transform="translate(1281.542969 0)"/>
      <use xlink:href="#DejaVuSans-6f" transform="translate(1320.40625 0)"/>
      <use xlink:href="#DejaVuSans-78" transform="translate(1378.462891 0)"/>
      <use xlink:href="#DejaVuSans-65" transform="translate(1434.517578 0)"/>
      <use xlink:href="#DejaVuSans-6e" transform="translate(1496.041016 0)"/>
      <use xlink:href="#DejaVuSans-69" transform="translate(1559.419922 0)"/>
      <use xlink:href="#DejaVuSans-74" transform="translate(1587.203125 0)"/>
      <use xlink:href="#DejaVuSans-65" transform="translate(1626.412109 0)"/>
      <use xlink:href="#DejaVuSans-5f" transform="translate(1687.935547 0)"/>
      <use xlink:href="#DejaVuSans-73" transform="translate(1737.935547 0)"/>
      <use xlink:href="#DejaVuSans-6c" transform="translate(1790.035156 0)"/>
      <use xlink:href="#DejaVuSans-61" transform="translate(1817.818359 0)"/>
      <use xlink:href="#DejaVuSans-62" transform="translate(1879.097656 0)"/>
     </g>
    </g>
    <g id="line2d_25">
     <path d="M 370.485 569.128125 
L 382.485 569.128125 
L 394.485 569.128125 
" style="fill: none; stroke-dasharray: 5.55,2.4; stroke-dashoffset: 0; stroke: #ff00ff; stroke-width: 1.5"/>
    </g>
    <g id="text_32">
     <!-- EG_19_68_olivine_gabbronorite_slab -->
     <g transform="translate(404.085 573.328125) scale(0.12 -0.12)">
      <defs>
       <path id="DejaVuSans-38" d="M 2034 2216 
Q 1584 2216 1326 1975 
Q 1069 1734 1069 1313 
Q 1069 891 1326 650 
Q 1584 409 2034 409 
Q 2484 409 2743 651 
Q 3003 894 3003 1313 
Q 3003 1734 2745 1975 
Q 2488 2216 2034 2216 
z
M 1403 2484 
Q 997 2584 770 2862 
Q 544 3141 544 3541 
Q 544 4100 942 4425 
Q 1341 4750 2034 4750 
Q 2731 4750 3128 4425 
Q 3525 4100 3525 3541 
Q 3525 3141 3298 2862 
Q 3072 2584 2669 2484 
Q 3125 2378 3379 2068 
Q 3634 1759 3634 1313 
Q 3634 634 3220 271 
Q 2806 -91 2034 -91 
Q 1263 -91 848 271 
Q 434 634 434 1313 
Q 434 1759 690 2068 
Q 947 2378 1403 2484 
z
M 1172 3481 
Q 1172 3119 1398 2916 
Q 1625 2713 2034 2713 
Q 2441 2713 2670 2916 
Q 2900 3119 2900 3481 
Q 2900 3844 2670 4047 
Q 2441 4250 2034 4250 
Q 1625 4250 1398 4047 
Q 1172 3844 1172 3481 
z
" transform="scale(0.015625)"/>
      </defs>
      <use xlink:href="#DejaVuSans-45"/>
      <use xlink:href="#DejaVuSans-47" transform="translate(63.183594 0)"/>
      <use xlink:href="#DejaVuSans-5f" transform="translate(140.673828 0)"/>
      <use xlink:href="#DejaVuSans-31" transform="translate(190.673828 0)"/>
      <use xlink:href="#DejaVuSans-39" transform="translate(254.296875 0)"/>
      <use xlink:href="#DejaVuSans-5f" transform="translate(317.919922 0)"/>
      <use xlink:href="#DejaVuSans-36" transform="translate(367.919922 0)"/>
      <use xlink:href="#DejaVuSans-38" transform="translate(431.542969 0)"/>
      <use xlink:href="#DejaVuSans-5f" transform="translate(495.166016 0)"/>
      <use xlink:href="#DejaVuSans-6f" transform="translate(545.166016 0)"/>
      <use xlink:href="#DejaVuSans-6c" transform="translate(606.347656 0)"/>
      <use xlink:href="#DejaVuSans-69" transform="translate(634.130859 0)"/>
      <use xlink:href="#DejaVuSans-76" transform="translate(661.914062 0)"/>
      <use xlink:href="#DejaVuSans-69" transform="translate(721.09375 0)"/>
      <use xlink:href="#DejaVuSans-6e" transform="translate(748.876953 0)"/>
      <use xlink:href="#DejaVuSans-65" transform="translate(812.255859 0)"/>
      <use xlink:href="#DejaVuSans-5f" transform="translate(873.779297 0)"/>
      <use xlink:href="#DejaVuSans-67" transform="translate(923.779297 0)"/>
      <use xlink:href="#DejaVuSans-61" transform="translate(987.255859 0)"/>
      <use xlink:href="#DejaVuSans-62" transform="translate(1048.535156 0)"/>
      <use xlink:href="#DejaVuSans-62" transform="translate(1112.011719 0)"/>
      <use xlink:href="#DejaVuSans-72" transform="translate(1175.488281 0)"/>
      <use xlink:href="#DejaVuSans-6f" transform="translate(1214.351562 0)"/>
      <use xlink:href="#DejaVuSans-6e" transform="translate(1275.533203 0)"/>
      <use xlink:href="#DejaVuSans-6f" transform="translate(1338.912109 0)"/>
      <use xlink:href="#DejaVuSans-72" transform="translate(1400.09375 0)"/>
      <use xlink:href="#DejaVuSans-69" transform="translate(1441.207031 0)"/>
      <use xlink:href="#DejaVuSans-74" transform="translate(1468.990234 0)"/>
      <use xlink:href="#DejaVuSans-65" transform="translate(1508.199219 0)"/>
      <use xlink:href="#DejaVuSans-5f" transform="translate(1569.722656 0)"/>
      <use xlink:href="#DejaVuSans-73" transform="translate(1619.722656 0)"/>
      <use xlink:href="#DejaVuSans-6c" transform="translate(1671.822266 0)"/>
      <use xlink:href="#DejaVuSans-61" transform="translate(1699.605469 0)"/>
      <use xlink:href="#DejaVuSans-62" transform="translate(1760.884766 0)"/>
     </g>
    </g>
    <g id="line2d_26">
     <path d="M 370.485 587.075625 
L 382.485 587.075625 
L 394.485 587.075625 
" style="fill: none; stroke-dasharray: 5.55,2.4; stroke-dashoffset: 0; stroke: #ff00b2; stroke-width: 1.5"/>
    </g>
    <g id="text_33">
     <!-- hematite_crushed -->
     <g transform="translate(404.085 591.275625) scale(0.12 -0.12)">
      <use xlink:href="#DejaVuSans-68"/>
      <use xlink:href="#DejaVuSans-65" transform="translate(63.378906 0)"/>
      <use xlink:href="#DejaVuSans-6d" transform="translate(124.902344 0)"/>
      <use xlink:href="#DejaVuSans-61" transform="translate(222.314453 0)"/>
      <use xlink:href="#DejaVuSans-74" transform="translate(283.59375 0)"/>
      <use xlink:href="#DejaVuSans-69" transform="translate(322.802734 0)"/>
      <use xlink:href="#DejaVuSans-74" transform="translate(350.585938 0)"/>
      <use xlink:href="#DejaVuSans-65" transform="translate(389.794922 0)"/>
      <use xlink:href="#DejaVuSans-5f" transform="translate(451.318359 0)"/>
      <use xlink:href="#DejaVuSans-63" transform="translate(501.318359 0)"/>
      <use xlink:href="#DejaVuSans-72" transform="translate(556.298828 0)"/>
      <use xlink:href="#DejaVuSans-75" transform="translate(597.412109 0)"/>
      <use xlink:href="#DejaVuSans-73" transform="translate(660.791016 0)"/>
      <use xlink:href="#DejaVuSans-68" transform="translate(712.890625 0)"/>
      <use xlink:href="#DejaVuSans-65" transform="translate(776.269531 0)"/>
      <use xlink:href="#DejaVuSans-64" transform="translate(837.792969 0)"/>
     </g>
    </g>
    <g id="line2d_27">
     <path d="M 370.485 605.023125 
L 382.485 605.023125 
L 394.485 605.023125 
" style="fill: none; stroke-dasharray: 5.55,2.4; stroke-dashoffset: 0; stroke: #ff0000; stroke-width: 1.5"/>
    </g>
    <g id="text_34">
     <!-- dunite_xenolith_crushed -->
     <g transform="translate(404.085 609.223125) scale(0.12 -0.12)">
      <use xlink:href="#DejaVuSans-64"/>
      <use xlink:href="#DejaVuSans-75" transform="translate(63.476562 0)"/>
      <use xlink:href="#DejaVuSans-6e" transform="translate(126.855469 0)"/>
      <use xlink:href="#DejaVuSans-69" transform="translate(190.234375 0)"/>
      <use xlink:href="#DejaVuSans-74" transform="translate(218.017578 0)"/>
      <use xlink:href="#DejaVuSans-65" transform="translate(257.226562 0)"/>
      <use xlink:href="#DejaVuSans-5f" transform="translate(318.75 0)"/>
      <use xlink:href="#DejaVuSans-78" transform="translate(368.75 0)"/>
      <use xlink:href="#DejaVuSans-65" transform="translate(424.804688 0)"/>
      <use xlink:href="#DejaVuSans-6e" transform="translate(486.328125 0)"/>
      <use xlink:href="#DejaVuSans-6f" transform="translate(549.707031 0)"/>
      <use xlink:href="#DejaVuSans-6c" transform="translate(610.888672 0)"/>
      <use xlink:href="#DejaVuSans-69" transform="translate(638.671875 0)"/>
      <use xlink:href="#DejaVuSans-74" transform="translate(666.455078 0)"/>
      <use xlink:href="#DejaVuSans-68" transform="translate(705.664062 0)"/>
      <use xlink:href="#DejaVuSans-5f" transform="translate(769.042969 0)"/>
      <use xlink:href="#DejaVuSans-63" transform="translate(819.042969 0)"/>
      <use xlink:href="#DejaVuSans-72" transform="translate(874.023438 0)"/>
      <use xlink:href="#DejaVuSans-75" transform="translate(915.136719 0)"/>
      <use xlink:href="#DejaVuSans-73" transform="translate(978.515625 0)"/>
      <use xlink:href="#DejaVuSans-68" transform="translate(1030.615234 0)"/>
      <use xlink:href="#DejaVuSans-65" transform="translate(1093.994141 0)"/>
      <use xlink:href="#DejaVuSans-64" transform="translate(1155.517578 0)"/>
     </g>
    </g>
    <g id="line2d_28">
     <path d="M 370.485 622.970625 
L 382.485 622.970625 
L 394.485 622.970625 
" style="fill: none; stroke-dasharray: 5.55,2.4; stroke-dashoffset: 0; stroke: #0080ff; stroke-width: 1.5"/>
    </g>
    <g id="text_35">
     <!-- K1919_basalt_slab -->
     <g transform="translate(404.085 627.170625) scale(0.12 -0.12)">
      <defs>
       <path id="DejaVuSans-4b" d="M 628 4666 
L 1259 4666 
L 1259 2694 
L 3353 4666 
L 4166 4666 
L 1850 2491 
L 4331 0 
L 3500 0 
L 1259 2247 
L 1259 0 
L 628 0 
L 628 4666 
z
" transform="scale(0.015625)"/>
      </defs>
      <use xlink:href="#DejaVuSans-4b"/>
      <use xlink:href="#DejaVuSans-31" transform="translate(65.576172 0)"/>
      <use xlink:href="#DejaVuSans-39" transform="translate(129.199219 0)"/>
      <use xlink:href="#DejaVuSans-31" transform="translate(192.822266 0)"/>
      <use xlink:href="#DejaVuSans-39" transform="translate(256.445312 0)"/>
      <use xlink:href="#DejaVuSans-5f" transform="translate(320.068359 0)"/>
      <use xlink:href="#DejaVuSans-62" transform="translate(370.068359 0)"/>
      <use xlink:href="#DejaVuSans-61" transform="translate(433.544922 0)"/>
      <use xlink:href="#DejaVuSans-73" transform="translate(494.824219 0)"/>
      <use xlink:href="#DejaVuSans-61" transform="translate(546.923828 0)"/>
      <use xlink:href="#DejaVuSans-6c" transform="translate(608.203125 0)"/>
      <use xlink:href="#DejaVuSans-74" transform="translate(635.986328 0)"/>
      <use xlink:href="#DejaVuSans-5f" transform="translate(675.195312 0)"/>
      <use xlink:href="#DejaVuSans-73" transform="translate(725.195312 0)"/>
      <use xlink:href="#DejaVuSans-6c" transform="translate(777.294922 0)"/>
      <use xlink:href="#DejaVuSans-61" transform="translate(805.078125 0)"/>
      <use xlink:href="#DejaVuSans-62" transform="translate(866.357422 0)"/>
     </g>
    </g>
   </g>
   <g id="line2d_29">
    <path d="M 119.972626 607.446164 
L 129.455597 601.163299 
L 138.929104 593.162726 
L 148.402612 584.287239 
L 157.876119 575.098801 
L 167.349627 565.610261 
L 176.823134 558.215704 
L 186.287178 552.092221 
L 195.760685 545.685155 
L 205.224729 540.744947 
L 214.688772 535.362081 
L 224.152815 525.326873 
L 233.616859 513.359511 
L 243.080902 499.932633 
L 252.55441 491.881584 
L 262.018453 480.980639 
L 271.482497 470.453827 
L 280.94654 455.393061 
L 290.420047 440.054525 
L 299.874627 426.842705 
L 309.33867 409.415387 
L 318.812178 363.200017 
L 328.276221 346.755296 
L 337.740265 333.684807 
L 347.204308 324.006907 
L 356.668351 316.828631 
L 366.132395 312.421632 
L 375.605902 308.566502 
L 385.069946 307.754912 
L 394.533989 302.908008 
L 403.998033 294.246966 
L 413.462076 280.902684 
L 422.926119 271.887394 
L 432.390163 262.758304 
L 441.854206 250.377346 
L 451.31825 239.325279 
L 460.791757 226.419679 
L 470.246336 202.61711 
L 479.71038 179.207029 
L 489.174423 170.420563 
L 498.638467 163.762035 
L 508.111974 160.848509 
L 517.576018 156.466594 
L 527.030597 150.467006 
L 536.49464 145.957219 
L 545.958684 142.297262 
L 555.413263 131.974189 
L 564.886771 130.047541 
L 574.350814 127.310833 
L 583.824322 117.689221 
L 593.297829 125.167293 
L 602.752408 119.061858 
L 612.206988 118.338371 
L 621.661567 113.687558 
" clip-path="url(#p86b7804cba)" style="fill: none; stroke-dasharray: 5.55,2.4; stroke-dashoffset: 0; stroke: #000000; stroke-width: 1.5"/>
   </g>
   <g id="line2d_30">
    <path d="M 119.972626 603.699633 
L 129.455597 593.3683 
L 138.929104 579.901041 
L 148.402612 564.986197 
L 157.876119 550.056362 
L 167.349627 535.599777 
L 176.823134 523.982075 
L 186.287178 514.735819 
L 195.760685 504.981746 
L 205.224729 497.817849 
L 214.688772 490.516901 
L 224.152815 476.70916 
L 233.616859 460.900128 
L 243.080902 446.346262 
L 252.55441 433.128629 
L 262.018453 419.104912 
L 271.482497 405.661514 
L 280.94654 387.720567 
L 290.420047 372.253241 
L 299.874627 360.724254 
L 309.33867 351.676231 
L 318.812178 343.016413 
L 328.276221 332.866181 
L 337.740265 322.321932 
L 347.204308 311.952666 
L 356.668351 301.916846 
L 366.132395 293.412738 
L 375.605902 283.24201 
L 385.069946 275.845618 
L 394.533989 266.61221 
L 403.998033 257.639748 
L 413.462076 250.104165 
L 422.926119 242.635271 
L 432.390163 235.795336 
L 441.854206 226.499216 
L 451.31825 220.283959 
L 460.791757 212.369041 
L 470.246336 192.69662 
L 479.71038 173.335924 
L 489.174423 164.10833 
L 498.638467 158.334812 
L 508.111974 155.800925 
L 517.576018 152.387535 
L 527.030597 147.462317 
L 536.49464 143.099981 
L 545.958684 139.441859 
L 555.413263 129.156414 
L 564.886771 127.621336 
L 574.350814 124.772358 
L 583.824322 115.431575 
L 593.297829 123.232386 
L 602.752408 117.285415 
L 612.206988 116.602614 
L 621.661567 112.287389 
" clip-path="url(#p86b7804cba)" style="fill: none; stroke-dasharray: 5.55,2.4; stroke-dashoffset: 0; stroke: #00ff00; stroke-width: 1.5"/>
   </g>
   <g id="line2d_31">
    <path d="M 119.972626 604.402624 
L 129.455597 594.477545 
L 138.929104 581.569803 
L 148.402612 567.449111 
L 157.876119 553.143036 
L 167.349627 538.941277 
L 176.823134 527.956511 
L 186.287178 519.445062 
L 195.760685 510.232457 
L 205.224729 503.845275 
L 214.688772 497.215504 
L 224.152815 484.690154 
L 233.616859 470.203895 
L 243.080902 455.957473 
L 252.55441 445.009723 
L 262.018453 432.455618 
L 271.482497 419.102159 
L 280.94654 400.143129 
L 290.420047 385.159147 
L 299.874627 373.800555 
L 309.33867 362.454504 
L 318.812178 343.007541 
L 328.276221 331.847487 
L 337.740265 321.098887 
L 347.204308 310.613679 
L 356.668351 301.236493 
L 366.132395 294.108387 
L 375.605902 286.568521 
L 385.069946 282.079536 
L 394.533989 275.014755 
L 403.998033 267.013264 
L 413.462076 258.453174 
L 422.926119 250.779623 
L 432.390163 242.913041 
L 441.854206 232.605875 
L 451.31825 224.831067 
L 460.791757 215.384131 
L 470.246336 193.979318 
L 479.71038 173.173178 
L 489.174423 163.708194 
L 498.638467 157.488347 
L 508.111974 155.104358 
L 517.576018 151.438589 
L 527.030597 146.395594 
L 536.49464 142.174591 
L 545.958684 138.714396 
L 555.413263 128.426502 
L 564.886771 126.711548 
L 574.350814 124.034187 
L 583.824322 114.612643 
L 593.297829 122.437621 
L 602.752408 116.570187 
L 612.206988 115.86169 
L 621.661567 111.6 
" clip-path="url(#p86b7804cba)" style="fill: none; stroke-dasharray: 5.55,2.4; stroke-dashoffset: 0; stroke: #ffff00; stroke-width: 1.5"/>
   </g>
   <g id="line2d_32">
    <path d="M 119.972626 603.926622 
L 129.455597 593.612114 
L 138.929104 580.139654 
L 148.402612 565.329432 
L 157.876119 550.406328 
L 167.349627 535.725507 
L 176.823134 523.88357 
L 186.287178 514.376982 
L 195.760685 504.351563 
L 205.224729 496.831275 
L 214.688772 489.473122 
L 224.152815 475.584925 
L 233.616859 459.835241 
L 243.080902 445.330321 
L 252.55441 432.192837 
L 262.018453 418.21409 
L 271.482497 404.794554 
L 280.94654 386.894598 
L 290.420047 371.331521 
L 299.874627 359.594207 
L 309.33867 350.338774 
L 318.812178 341.357135 
L 328.276221 331.278793 
L 337.740265 320.677337 
L 347.204308 310.134312 
L 356.668351 300.081361 
L 366.132395 291.512705 
L 375.605902 281.463119 
L 385.069946 274.131886 
L 394.533989 264.870029 
L 403.998033 256.001578 
L 413.462076 248.293153 
L 422.926119 240.910221 
L 432.390163 233.950674 
L 441.854206 224.738375 
L 451.31825 218.629269 
L 460.791757 210.793889 
L 470.246336 191.36314 
L 479.71038 172.222091 
L 489.174423 163.446637 
L 498.638467 158.066831 
L 508.111974 156.131618 
L 517.576018 152.912789 
L 527.030597 148.183051 
L 536.49464 144.119593 
L 545.958684 140.617793 
L 555.413263 130.417392 
L 564.886771 128.69846 
L 574.350814 126.181092 
L 583.824322 116.799623 
L 593.297829 124.661311 
L 602.752408 118.890546 
L 612.206988 118.109241 
L 621.661567 113.75853 
" clip-path="url(#p86b7804cba)" style="fill: none; stroke-dasharray: 5.55,2.4; stroke-dashoffset: 0; stroke: #800000; stroke-width: 1.5"/>
   </g>
   <g id="line2d_33">
    <path d="M 119.972626 604.197967 
L 129.455597 594.093317 
L 138.929104 580.787581 
L 148.402612 566.090547 
L 157.876119 551.188244 
L 167.349627 536.750014 
L 176.823134 525.209708 
L 186.287178 516.08643 
L 195.760685 506.799488 
L 205.224729 499.900512 
L 214.688772 492.84552 
L 224.152815 479.38652 
L 233.616859 464.052267 
L 243.080902 449.727531 
L 252.55441 436.899939 
L 262.018453 423.218846 
L 271.482497 409.981328 
L 280.94654 392.456118 
L 290.420047 377.247289 
L 299.874627 365.809771 
L 309.33867 356.551279 
L 318.812178 345.74272 
L 328.276221 335.483583 
L 337.740265 325.189877 
L 347.204308 315.072684 
L 356.668351 305.65114 
L 366.132395 297.597338 
L 375.605902 287.982456 
L 385.069946 281.347178 
L 394.533989 272.341983 
L 403.998033 263.664422 
L 413.462076 256.137404 
L 422.926119 248.886932 
L 432.390163 241.986733 
L 441.854206 232.916378 
L 451.31825 226.806354 
L 460.791757 219.087834 
L 470.246336 199.544508 
L 479.71038 180.80023 
L 489.174423 171.836027 
L 498.638467 165.963699 
L 508.111974 163.521281 
L 517.576018 159.982466 
L 527.030597 154.646711 
L 536.49464 150.312213 
L 545.958684 146.46626 
L 555.413263 136.185709 
L 564.886771 134.396723 
L 574.350814 131.661545 
L 583.824322 122.39877 
L 593.297829 130.101688 
L 602.752408 124.098123 
L 612.206988 123.096254 
L 621.661567 118.353667 
" clip-path="url(#p86b7804cba)" style="fill: none; stroke-dasharray: 5.55,2.4; stroke-dashoffset: 0; stroke: #80ff00; stroke-width: 1.5"/>
   </g>
   <g id="line2d_34">
    <path d="M 119.972626 604.126384 
L 129.455597 593.93363 
L 138.929104 580.617186 
L 148.402612 565.970934 
L 157.876119 551.085457 
L 167.349627 536.45083 
L 176.823134 524.734623 
L 186.287178 515.317056 
L 195.760685 505.385859 
L 205.224729 498.438242 
L 214.688772 491.248342 
L 224.152815 477.588051 
L 233.616859 461.951249 
L 243.080902 447.627736 
L 252.55441 434.516561 
L 262.018453 420.65192 
L 271.482497 407.205769 
L 280.94654 389.313462 
L 290.420047 373.911296 
L 299.874627 362.328162 
L 309.33867 353.199989 
L 318.812178 343.874196 
L 328.276221 334.121041 
L 337.740265 323.646234 
L 347.204308 313.353447 
L 356.668351 303.410013 
L 366.132395 294.779257 
L 375.605902 284.631778 
L 385.069946 277.235997 
L 394.533989 268.025228 
L 403.998033 259.150352 
L 413.462076 251.392369 
L 422.926119 243.936629 
L 432.390163 236.937313 
L 441.854206 227.788339 
L 451.31825 221.730321 
L 460.791757 213.909931 
L 470.246336 194.389855 
L 479.71038 175.514339 
L 489.174423 166.46754 
L 498.638467 160.911833 
L 508.111974 158.825192 
L 517.576018 155.291884 
L 527.030597 150.418059 
L 536.49464 146.221529 
L 545.958684 142.832 
L 555.413263 132.976975 
L 564.886771 131.295059 
L 574.350814 128.811036 
L 583.824322 119.77372 
L 593.297829 127.53568 
L 602.752408 121.590545 
L 612.206988 120.658424 
L 621.661567 116.270391 
" clip-path="url(#p86b7804cba)" style="fill: none; stroke-dasharray: 5.55,2.4; stroke-dashoffset: 0; stroke: #0000ff; stroke-width: 1.5"/>
   </g>
   <g id="line2d_35">
    <path d="M 119.972626 603.919586 
L 129.455597 593.586723 
L 138.929104 580.114569 
L 148.402612 565.290275 
L 157.876119 550.270808 
L 167.349627 535.632509 
L 176.823134 523.854203 
L 186.287178 514.454072 
L 195.760685 504.567844 
L 205.224729 497.470942 
L 214.688772 490.196303 
L 224.152815 476.41487 
L 233.616859 460.558116 
L 243.080902 446.089294 
L 252.55441 432.922137 
L 262.018453 418.943083 
L 271.482497 405.507945 
L 280.94654 387.52417 
L 290.420047 371.936314 
L 299.874627 360.283126 
L 309.33867 351.146082 
L 318.812178 341.814476 
L 328.276221 332.081511 
L 337.740265 321.545828 
L 347.204308 311.009838 
L 356.668351 300.962088 
L 366.132395 292.226709 
L 375.605902 281.929944 
L 385.069946 274.53967 
L 394.533989 265.220607 
L 403.998033 256.331965 
L 413.462076 248.582854 
L 422.926119 241.113654 
L 432.390163 234.127798 
L 441.854206 224.970257 
L 451.31825 218.736951 
L 460.791757 210.990592 
L 470.246336 191.418204 
L 479.71038 172.449691 
L 489.174423 163.394632 
L 498.638467 157.974751 
L 508.111974 155.925738 
L 517.576018 152.65215 
L 527.030597 147.861535 
L 536.49464 143.955623 
L 545.958684 140.453823 
L 555.413263 130.424122 
L 564.886771 128.94931 
L 574.350814 126.273784 
L 583.824322 116.96604 
L 593.297829 124.896559 
L 602.752408 119.083272 
L 612.206988 118.283918 
L 621.661567 114.003873 
" clip-path="url(#p86b7804cba)" style="fill: none; stroke-dasharray: 5.55,2.4; stroke-dashoffset: 0; stroke: #00ffff; stroke-width: 1.5"/>
   </g>
   <g id="line2d_36">
    <path d="M 119.972626 604.992427 
L 129.455597 595.534784 
L 138.929104 582.580849 
L 148.402612 568.391633 
L 157.876119 554.813021 
L 167.349627 541.920575 
L 176.823134 530.91256 
L 186.287178 521.71158 
L 195.760685 511.801185 
L 205.224729 504.464751 
L 214.688772 496.723288 
L 224.152815 483.179856 
L 233.616859 467.765453 
L 243.080902 453.666482 
L 252.55441 441.175395 
L 262.018453 428.115919 
L 271.482497 415.864057 
L 280.94654 399.167874 
L 290.420047 384.534777 
L 299.874627 373.473838 
L 309.33867 364.109806 
L 318.812178 349.695743 
L 328.276221 337.968523 
L 337.740265 327.253574 
L 347.204308 316.897156 
L 356.668351 307.172451 
L 366.132395 299.505936 
L 375.605902 290.30618 
L 385.069946 283.92481 
L 394.533989 275.030968 
L 403.998033 266.217275 
L 413.462076 258.436961 
L 422.926119 250.650222 
L 432.390163 243.402503 
L 441.854206 233.799552 
L 451.31825 227.250542 
L 460.791757 218.926923 
L 470.246336 198.665311 
L 479.71038 179.228443 
L 489.174423 169.612031 
L 498.638467 163.400139 
L 508.111974 160.841472 
L 517.576018 157.169585 
L 527.030597 152.257827 
L 536.49464 147.834614 
L 545.958684 144.159056 
L 555.413263 133.985574 
L 564.886771 132.350769 
L 574.350814 129.590506 
L 583.824322 120.188234 
L 593.297829 127.70118 
L 602.752408 121.951829 
L 612.206988 120.932523 
L 621.661567 116.74517 
" clip-path="url(#p86b7804cba)" style="fill: none; stroke-dasharray: 5.55,2.4; stroke-dashoffset: 0; stroke: #ff00ff; stroke-width: 1.5"/>
   </g>
   <g id="line2d_37">
    <path d="M 119.972626 603.650993 
L 129.455597 593.290598 
L 138.929104 579.797642 
L 148.402612 565.382967 
L 157.876119 551.692391 
L 167.349627 538.493725 
L 176.823134 527.794683 
L 186.287178 518.847611 
L 195.760685 509.386298 
L 205.224729 502.191197 
L 214.688772 495.33352 
L 224.152815 482.21072 
L 233.616859 467.361341 
L 243.080902 453.804449 
L 252.55441 441.291336 
L 262.018453 428.293655 
L 271.482497 415.681427 
L 280.94654 398.706556 
L 290.420047 383.915606 
L 299.874627 372.929005 
L 309.33867 363.857121 
L 318.812178 353.127182 
L 328.276221 340.068624 
L 337.740265 328.479678 
L 347.204308 317.600453 
L 356.668351 307.268508 
L 366.132395 299.721912 
L 375.605902 291.101251 
L 385.069946 285.254619 
L 394.533989 277.270566 
L 403.998033 269.469143 
L 413.462076 263.350554 
L 422.926119 257.191278 
L 432.390163 251.177923 
L 441.854206 242.835338 
L 451.31825 237.595947 
L 460.791757 230.413388 
L 470.246336 212.043855 
L 479.71038 193.273574 
L 489.174423 183.522866 
L 498.638467 177.90567 
L 508.111974 176.207847 
L 517.576018 173.434429 
L 527.030597 169.092283 
L 536.49464 165.353706 
L 545.958684 162.408059 
L 555.413263 153.094808 
L 564.886771 151.874823 
L 574.350814 149.366326 
L 583.824322 140.542844 
L 593.297829 148.153377 
L 602.752408 142.954978 
L 612.206988 142.306745 
L 621.661567 137.681017 
" clip-path="url(#p86b7804cba)" style="fill: none; stroke-dasharray: 5.55,2.4; stroke-dashoffset: 0; stroke: #ff00b2; stroke-width: 1.5"/>
   </g>
   <g id="line2d_38">
    <path d="M 119.972626 605.518599 
L 129.455597 594.860244 
L 138.929104 580.040844 
L 148.402612 564.473179 
L 157.876119 548.801196 
L 167.349627 534.283734 
L 176.823134 523.439077 
L 186.287178 516.681127 
L 195.760685 514.859103 
L 205.224729 518.163587 
L 214.688772 521.820179 
L 224.152815 517.785172 
L 233.616859 509.805095 
L 243.080902 501.514821 
L 252.55441 493.672712 
L 262.018453 485.019012 
L 271.482497 476.549778 
L 280.94654 464.947984 
L 290.420047 454.830179 
L 299.874627 446.845514 
L 309.33867 438.923255 
L 318.812178 425.801985 
L 328.276221 411.432891 
L 337.740265 400.036977 
L 347.204308 390.042149 
L 356.668351 380.506193 
L 366.132395 371.196919 
L 375.605902 356.347234 
L 385.069946 344.986194 
L 394.533989 329.836407 
L 403.998033 313.842909 
L 413.462076 299.00699 
L 422.926119 285.88725 
L 432.390163 274.941335 
L 441.854206 261.488148 
L 451.31825 252.176733 
L 460.791757 237.211718 
L 470.246336 215.644158 
L 479.71038 195.39723 
L 489.174423 183.423138 
L 498.638467 175.027324 
L 508.111974 170.661929 
L 517.576018 162.934537 
L 527.030597 153.434067 
L 536.49464 149.028903 
L 545.958684 144.406234 
L 555.413263 133.402808 
L 564.886771 131.496657 
L 574.350814 128.186054 
L 583.824322 118.741872 
L 593.297829 126.287856 
L 602.752408 120.692992 
L 612.206988 119.856317 
L 621.661567 115.869338 
" clip-path="url(#p86b7804cba)" style="fill: none; stroke-dasharray: 5.55,2.4; stroke-dashoffset: 0; stroke: #ff0000; stroke-width: 1.5"/>
   </g>
   <g id="line2d_39">
    <path d="M 119.972626 604.14015 
L 129.455597 594.205893 
L 138.929104 581.159266 
L 148.402612 566.709411 
L 157.876119 552.251602 
L 167.349627 538.161808 
L 176.823134 526.642304 
L 186.287178 517.327524 
L 195.760685 507.476782 
L 205.224729 500.445651 
L 214.688772 493.621012 
L 224.152815 479.876289 
L 233.616859 464.664708 
L 243.080902 450.526579 
L 252.55441 437.695621 
L 262.018453 424.151272 
L 271.482497 410.990539 
L 280.94654 393.62991 
L 290.420047 378.551402 
L 299.874627 367.28183 
L 309.33867 358.334758 
L 318.812178 349.443669 
L 328.276221 339.409685 
L 337.740265 329.061527 
L 347.204308 318.922614 
L 356.668351 309.679112 
L 366.132395 301.581564 
L 375.605902 292.114438 
L 385.069946 285.162539 
L 394.533989 276.381579 
L 403.998033 268.107519 
L 413.462076 261.200895 
L 422.926119 254.385127 
L 432.390163 248.197708 
L 441.854206 239.795775 
L 451.31825 234.553936 
L 460.791757 227.394321 
L 470.246336 209.049261 
L 479.71038 191.090876 
L 489.174423 182.4332 
L 498.638467 176.791837 
L 508.111974 174.095815 
L 517.576018 170.055301 
L 527.030597 164.415774 
L 536.49464 159.225634 
L 545.958684 154.934882 
L 555.413263 144.475371 
L 564.886771 142.323571 
L 574.350814 139.455014 
L 583.824322 130.173578 
L 593.297829 137.32218 
L 602.752408 131.174223 
L 612.206988 129.734897 
L 621.661567 124.925009 
" clip-path="url(#p86b7804cba)" style="fill: none; stroke-dasharray: 5.55,2.4; stroke-dashoffset: 0; stroke: #0080ff; stroke-width: 1.5"/>
   </g>
  </g>
 </g>
 <defs>
  <clipPath id="p86b7804cba">
   <rect x="90" y="86.4" width="558" height="554.4"/>
  </clipPath>
 </defs>
</svg>
